G75*
G70*
%OFA0B0*%
%FSLAX24Y24*%
%IPPOS*%
%LPD*%
%AMOC8*
5,1,8,0,0,1.08239X$1,22.5*
%
%ADD10C,0.0680*%
%ADD11C,0.0120*%
%ADD12C,0.0600*%
%ADD13C,0.1261*%
%ADD14C,0.1497*%
%ADD15C,0.0907*%
%ADD16C,0.0946*%
D10*
X022857Y002057D02*
X022857Y002657D01*
X023857Y002657D02*
X023857Y002057D01*
X024857Y002057D02*
X024857Y002657D01*
X025857Y002657D02*
X025857Y002057D01*
X026857Y002057D02*
X026857Y002657D01*
X027857Y002657D02*
X027857Y002057D01*
X028857Y002057D02*
X028857Y002657D01*
X029857Y002657D02*
X029857Y002057D01*
X030857Y002057D02*
X030857Y002657D01*
X031857Y002657D02*
X031857Y002057D01*
X032857Y002057D02*
X032857Y002657D01*
X007657Y016357D02*
X007057Y016357D01*
X007057Y017357D02*
X007657Y017357D01*
X007657Y018357D02*
X007057Y018357D01*
X007057Y019357D02*
X007657Y019357D01*
X011967Y019277D02*
X011967Y019877D01*
X013747Y019877D02*
X013747Y019277D01*
X013747Y021837D02*
X013747Y022437D01*
X011967Y022437D02*
X011967Y021837D01*
X015857Y023557D02*
X015857Y024157D01*
X016857Y024157D02*
X016857Y023557D01*
X017857Y023557D02*
X017857Y024157D01*
X035967Y022437D02*
X035967Y021837D01*
X037747Y021837D02*
X037747Y022437D01*
X039857Y023557D02*
X039857Y024157D01*
X040857Y024157D02*
X040857Y023557D01*
X041857Y023557D02*
X041857Y024157D01*
X042857Y024157D02*
X042857Y023557D01*
X037747Y019877D02*
X037747Y019277D01*
X035967Y019277D02*
X035967Y019877D01*
D11*
X039324Y020464D02*
X039264Y020404D01*
X039264Y020602D01*
X039404Y020742D01*
X039602Y020742D01*
X039742Y020602D01*
X039742Y020404D01*
X039602Y020264D01*
X039404Y020264D01*
X039264Y020404D01*
X039354Y020441D01*
X039354Y020565D01*
X039441Y020652D01*
X039565Y020652D01*
X039652Y020565D01*
X039652Y020441D01*
X039565Y020354D01*
X039441Y020354D01*
X039354Y020441D01*
X039444Y020478D01*
X039444Y020528D01*
X039478Y020562D01*
X039528Y020562D01*
X039562Y020528D01*
X039562Y020478D01*
X039528Y020444D01*
X039478Y020444D01*
X039444Y020478D01*
X040031Y021171D02*
X039971Y021111D01*
X039971Y021309D01*
X040111Y021449D01*
X040309Y021449D01*
X040449Y021309D01*
X040449Y021111D01*
X040309Y020971D01*
X040111Y020971D01*
X039971Y021111D01*
X040061Y021148D01*
X040061Y021272D01*
X040148Y021359D01*
X040272Y021359D01*
X040359Y021272D01*
X040359Y021148D01*
X040272Y021061D01*
X040148Y021061D01*
X040061Y021148D01*
X040151Y021185D01*
X040151Y021235D01*
X040185Y021269D01*
X040235Y021269D01*
X040269Y021235D01*
X040269Y021185D01*
X040235Y021151D01*
X040185Y021151D01*
X040151Y021185D01*
X042324Y020464D02*
X042264Y020404D01*
X042264Y020602D01*
X042404Y020742D01*
X042602Y020742D01*
X042742Y020602D01*
X042742Y020404D01*
X042602Y020264D01*
X042404Y020264D01*
X042264Y020404D01*
X042354Y020441D01*
X042354Y020565D01*
X042441Y020652D01*
X042565Y020652D01*
X042652Y020565D01*
X042652Y020441D01*
X042565Y020354D01*
X042441Y020354D01*
X042354Y020441D01*
X042444Y020478D01*
X042444Y020528D01*
X042478Y020562D01*
X042528Y020562D01*
X042562Y020528D01*
X042562Y020478D01*
X042528Y020444D01*
X042478Y020444D01*
X042444Y020478D01*
X043031Y021171D02*
X042971Y021111D01*
X042971Y021309D01*
X043111Y021449D01*
X043309Y021449D01*
X043449Y021309D01*
X043449Y021111D01*
X043309Y020971D01*
X043111Y020971D01*
X042971Y021111D01*
X043061Y021148D01*
X043061Y021272D01*
X043148Y021359D01*
X043272Y021359D01*
X043359Y021272D01*
X043359Y021148D01*
X043272Y021061D01*
X043148Y021061D01*
X043061Y021148D01*
X043151Y021185D01*
X043151Y021235D01*
X043185Y021269D01*
X043235Y021269D01*
X043269Y021235D01*
X043269Y021185D01*
X043235Y021151D01*
X043185Y021151D01*
X043151Y021185D01*
X045324Y020464D02*
X045264Y020404D01*
X045264Y020602D01*
X045404Y020742D01*
X045602Y020742D01*
X045742Y020602D01*
X045742Y020404D01*
X045602Y020264D01*
X045404Y020264D01*
X045264Y020404D01*
X045354Y020441D01*
X045354Y020565D01*
X045441Y020652D01*
X045565Y020652D01*
X045652Y020565D01*
X045652Y020441D01*
X045565Y020354D01*
X045441Y020354D01*
X045354Y020441D01*
X045444Y020478D01*
X045444Y020528D01*
X045478Y020562D01*
X045528Y020562D01*
X045562Y020528D01*
X045562Y020478D01*
X045528Y020444D01*
X045478Y020444D01*
X045444Y020478D01*
X046031Y021171D02*
X045971Y021111D01*
X045971Y021309D01*
X046111Y021449D01*
X046309Y021449D01*
X046449Y021309D01*
X046449Y021111D01*
X046309Y020971D01*
X046111Y020971D01*
X045971Y021111D01*
X046061Y021148D01*
X046061Y021272D01*
X046148Y021359D01*
X046272Y021359D01*
X046359Y021272D01*
X046359Y021148D01*
X046272Y021061D01*
X046148Y021061D01*
X046061Y021148D01*
X046151Y021185D01*
X046151Y021235D01*
X046185Y021269D01*
X046235Y021269D01*
X046269Y021235D01*
X046269Y021185D01*
X046235Y021151D01*
X046185Y021151D01*
X046151Y021185D01*
X018031Y021171D02*
X017971Y021111D01*
X017971Y021309D01*
X018111Y021449D01*
X018309Y021449D01*
X018449Y021309D01*
X018449Y021111D01*
X018309Y020971D01*
X018111Y020971D01*
X017971Y021111D01*
X018061Y021148D01*
X018061Y021272D01*
X018148Y021359D01*
X018272Y021359D01*
X018359Y021272D01*
X018359Y021148D01*
X018272Y021061D01*
X018148Y021061D01*
X018061Y021148D01*
X018151Y021185D01*
X018151Y021235D01*
X018185Y021269D01*
X018235Y021269D01*
X018269Y021235D01*
X018269Y021185D01*
X018235Y021151D01*
X018185Y021151D01*
X018151Y021185D01*
X017324Y020464D02*
X017264Y020404D01*
X017264Y020602D01*
X017404Y020742D01*
X017602Y020742D01*
X017742Y020602D01*
X017742Y020404D01*
X017602Y020264D01*
X017404Y020264D01*
X017264Y020404D01*
X017354Y020441D01*
X017354Y020565D01*
X017441Y020652D01*
X017565Y020652D01*
X017652Y020565D01*
X017652Y020441D01*
X017565Y020354D01*
X017441Y020354D01*
X017354Y020441D01*
X017444Y020478D01*
X017444Y020528D01*
X017478Y020562D01*
X017528Y020562D01*
X017562Y020528D01*
X017562Y020478D01*
X017528Y020444D01*
X017478Y020444D01*
X017444Y020478D01*
X016031Y021171D02*
X015971Y021111D01*
X015971Y021309D01*
X016111Y021449D01*
X016309Y021449D01*
X016449Y021309D01*
X016449Y021111D01*
X016309Y020971D01*
X016111Y020971D01*
X015971Y021111D01*
X016061Y021148D01*
X016061Y021272D01*
X016148Y021359D01*
X016272Y021359D01*
X016359Y021272D01*
X016359Y021148D01*
X016272Y021061D01*
X016148Y021061D01*
X016061Y021148D01*
X016151Y021185D01*
X016151Y021235D01*
X016185Y021269D01*
X016235Y021269D01*
X016269Y021235D01*
X016269Y021185D01*
X016235Y021151D01*
X016185Y021151D01*
X016151Y021185D01*
X015324Y020464D02*
X015264Y020404D01*
X015264Y020602D01*
X015404Y020742D01*
X015602Y020742D01*
X015742Y020602D01*
X015742Y020404D01*
X015602Y020264D01*
X015404Y020264D01*
X015264Y020404D01*
X015354Y020441D01*
X015354Y020565D01*
X015441Y020652D01*
X015565Y020652D01*
X015652Y020565D01*
X015652Y020441D01*
X015565Y020354D01*
X015441Y020354D01*
X015354Y020441D01*
X015444Y020478D01*
X015444Y020528D01*
X015478Y020562D01*
X015528Y020562D01*
X015562Y020528D01*
X015562Y020478D01*
X015528Y020444D01*
X015478Y020444D01*
X015444Y020478D01*
D12*
X010617Y022357D02*
X010097Y022357D01*
X007617Y022357D02*
X007097Y022357D01*
X009597Y017357D02*
X010117Y017357D01*
X012597Y017357D02*
X013117Y017357D01*
D13*
X002857Y002857D03*
X002857Y023857D03*
X055857Y023857D03*
X055857Y002857D03*
D14*
X051357Y007857D03*
X040357Y007857D03*
X029357Y007857D03*
X018357Y007857D03*
X007357Y007857D03*
X007357Y013857D03*
X018357Y013857D03*
X029357Y013857D03*
X040357Y013857D03*
X051357Y013857D03*
D15*
X055357Y008857D03*
X044357Y008857D03*
X033357Y008857D03*
X022357Y008857D03*
X011357Y008857D03*
D16*
X011357Y010857D03*
X011357Y012857D03*
X022357Y012857D03*
X022357Y010857D03*
X033357Y010857D03*
X033357Y012857D03*
X044357Y012857D03*
X044357Y010857D03*
X055357Y010857D03*
X055357Y012857D03*
M02*
