G75*
G70*
%OFA0B0*%
%FSLAX24Y24*%
%IPPOS*%
%LPD*%
%AMOC8*
5,1,8,0,0,1.08239X$1,22.5*
%
%ADD10C,0.0060*%
%ADD11C,0.0020*%
%ADD12C,0.0100*%
%ADD13R,0.0200X0.0800*%
%ADD14R,0.0250X0.0200*%
%ADD15C,0.0080*%
%ADD16C,0.0050*%
D10*
X001507Y002857D02*
X001509Y002930D01*
X001515Y003003D01*
X001525Y003075D01*
X001539Y003147D01*
X001556Y003218D01*
X001578Y003288D01*
X001603Y003357D01*
X001632Y003424D01*
X001664Y003489D01*
X001700Y003553D01*
X001740Y003615D01*
X001782Y003674D01*
X001828Y003731D01*
X001877Y003785D01*
X001929Y003837D01*
X001983Y003886D01*
X002040Y003932D01*
X002099Y003974D01*
X002161Y004014D01*
X002225Y004050D01*
X002290Y004082D01*
X002357Y004111D01*
X002426Y004136D01*
X002496Y004158D01*
X002567Y004175D01*
X002639Y004189D01*
X002711Y004199D01*
X002784Y004205D01*
X002857Y004207D01*
X002930Y004205D01*
X003003Y004199D01*
X003075Y004189D01*
X003147Y004175D01*
X003218Y004158D01*
X003288Y004136D01*
X003357Y004111D01*
X003424Y004082D01*
X003489Y004050D01*
X003553Y004014D01*
X003615Y003974D01*
X003674Y003932D01*
X003731Y003886D01*
X003785Y003837D01*
X003837Y003785D01*
X003886Y003731D01*
X003932Y003674D01*
X003974Y003615D01*
X004014Y003553D01*
X004050Y003489D01*
X004082Y003424D01*
X004111Y003357D01*
X004136Y003288D01*
X004158Y003218D01*
X004175Y003147D01*
X004189Y003075D01*
X004199Y003003D01*
X004205Y002930D01*
X004207Y002857D01*
X004205Y002784D01*
X004199Y002711D01*
X004189Y002639D01*
X004175Y002567D01*
X004158Y002496D01*
X004136Y002426D01*
X004111Y002357D01*
X004082Y002290D01*
X004050Y002225D01*
X004014Y002161D01*
X003974Y002099D01*
X003932Y002040D01*
X003886Y001983D01*
X003837Y001929D01*
X003785Y001877D01*
X003731Y001828D01*
X003674Y001782D01*
X003615Y001740D01*
X003553Y001700D01*
X003489Y001664D01*
X003424Y001632D01*
X003357Y001603D01*
X003288Y001578D01*
X003218Y001556D01*
X003147Y001539D01*
X003075Y001525D01*
X003003Y001515D01*
X002930Y001509D01*
X002857Y001507D01*
X002784Y001509D01*
X002711Y001515D01*
X002639Y001525D01*
X002567Y001539D01*
X002496Y001556D01*
X002426Y001578D01*
X002357Y001603D01*
X002290Y001632D01*
X002225Y001664D01*
X002161Y001700D01*
X002099Y001740D01*
X002040Y001782D01*
X001983Y001828D01*
X001929Y001877D01*
X001877Y001929D01*
X001828Y001983D01*
X001782Y002040D01*
X001740Y002099D01*
X001700Y002161D01*
X001664Y002225D01*
X001632Y002290D01*
X001603Y002357D01*
X001578Y002426D01*
X001556Y002496D01*
X001539Y002567D01*
X001525Y002639D01*
X001515Y002711D01*
X001509Y002784D01*
X001507Y002857D01*
X007107Y015857D02*
X006857Y016107D01*
X006857Y016607D01*
X007107Y016857D01*
X006857Y017107D01*
X006857Y017607D01*
X007107Y017857D01*
X006857Y018107D01*
X006857Y018607D01*
X007107Y018857D01*
X006857Y019107D01*
X006857Y019607D01*
X007107Y019857D01*
X007607Y019857D01*
X007857Y019607D01*
X007857Y019107D01*
X007607Y018857D01*
X007857Y018607D01*
X007857Y018107D01*
X007607Y017857D01*
X007107Y017857D01*
X007607Y017857D02*
X007857Y017607D01*
X007857Y017107D01*
X007607Y016857D01*
X007857Y016607D01*
X007857Y016107D01*
X007607Y015857D01*
X007107Y015857D01*
X007107Y016857D02*
X007607Y016857D01*
X010457Y017057D02*
X010457Y017657D01*
X010459Y017674D01*
X010463Y017691D01*
X010470Y017707D01*
X010480Y017721D01*
X010493Y017734D01*
X010507Y017744D01*
X010523Y017751D01*
X010540Y017755D01*
X010557Y017757D01*
X012157Y017757D01*
X012174Y017755D01*
X012191Y017751D01*
X012207Y017744D01*
X012221Y017734D01*
X012234Y017721D01*
X012244Y017707D01*
X012251Y017691D01*
X012255Y017674D01*
X012257Y017657D01*
X012257Y017057D01*
X012255Y017040D01*
X012251Y017023D01*
X012244Y017007D01*
X012234Y016993D01*
X012221Y016980D01*
X012207Y016970D01*
X012191Y016963D01*
X012174Y016959D01*
X012157Y016957D01*
X010557Y016957D01*
X010540Y016959D01*
X010523Y016963D01*
X010507Y016970D01*
X010493Y016980D01*
X010480Y016993D01*
X010470Y017007D01*
X010463Y017023D01*
X010459Y017040D01*
X010457Y017057D01*
X011107Y017357D02*
X011357Y017357D01*
X011357Y017107D01*
X011357Y017357D02*
X011357Y017607D01*
X011357Y017357D02*
X011757Y017607D01*
X011757Y017107D01*
X011357Y017357D01*
X011957Y017357D01*
X007607Y018857D02*
X007107Y018857D01*
X011657Y020007D02*
X011657Y020407D01*
X011657Y021357D01*
X011657Y021707D01*
X012457Y022057D02*
X012557Y022057D01*
X012557Y022157D01*
X013157Y022157D01*
X013157Y022057D01*
X013257Y022057D01*
X014057Y021707D02*
X014057Y021357D01*
X014057Y020357D01*
X014057Y020007D01*
X013257Y019657D02*
X013157Y019657D01*
X013157Y019557D01*
X012557Y019557D01*
X012557Y019657D01*
X012457Y019657D01*
X012757Y020857D02*
X012759Y020877D01*
X012765Y020895D01*
X012774Y020913D01*
X012786Y020928D01*
X012801Y020940D01*
X012819Y020949D01*
X012837Y020955D01*
X012857Y020957D01*
X012877Y020955D01*
X012895Y020949D01*
X012913Y020940D01*
X012928Y020928D01*
X012940Y020913D01*
X012949Y020895D01*
X012955Y020877D01*
X012957Y020857D01*
X012955Y020837D01*
X012949Y020819D01*
X012940Y020801D01*
X012928Y020786D01*
X012913Y020774D01*
X012895Y020765D01*
X012877Y020759D01*
X012857Y020757D01*
X012837Y020759D01*
X012819Y020765D01*
X012801Y020774D01*
X012786Y020786D01*
X012774Y020801D01*
X012765Y020819D01*
X012759Y020837D01*
X012757Y020857D01*
X012157Y020857D02*
X012159Y020909D01*
X012165Y020961D01*
X012175Y021013D01*
X012188Y021063D01*
X012205Y021113D01*
X012226Y021161D01*
X012251Y021207D01*
X012279Y021251D01*
X012310Y021293D01*
X012344Y021333D01*
X012381Y021370D01*
X012421Y021404D01*
X012463Y021435D01*
X012507Y021463D01*
X012553Y021488D01*
X012601Y021509D01*
X012651Y021526D01*
X012701Y021539D01*
X012753Y021549D01*
X012805Y021555D01*
X012857Y021557D01*
X012909Y021555D01*
X012961Y021549D01*
X013013Y021539D01*
X013063Y021526D01*
X013113Y021509D01*
X013161Y021488D01*
X013207Y021463D01*
X013251Y021435D01*
X013293Y021404D01*
X013333Y021370D01*
X013370Y021333D01*
X013404Y021293D01*
X013435Y021251D01*
X013463Y021207D01*
X013488Y021161D01*
X013509Y021113D01*
X013526Y021063D01*
X013539Y021013D01*
X013549Y020961D01*
X013555Y020909D01*
X013557Y020857D01*
X013555Y020805D01*
X013549Y020753D01*
X013539Y020701D01*
X013526Y020651D01*
X013509Y020601D01*
X013488Y020553D01*
X013463Y020507D01*
X013435Y020463D01*
X013404Y020421D01*
X013370Y020381D01*
X013333Y020344D01*
X013293Y020310D01*
X013251Y020279D01*
X013207Y020251D01*
X013161Y020226D01*
X013113Y020205D01*
X013063Y020188D01*
X013013Y020175D01*
X012961Y020165D01*
X012909Y020159D01*
X012857Y020157D01*
X012805Y020159D01*
X012753Y020165D01*
X012701Y020175D01*
X012651Y020188D01*
X012601Y020205D01*
X012553Y020226D01*
X012507Y020251D01*
X012463Y020279D01*
X012421Y020310D01*
X012381Y020344D01*
X012344Y020381D01*
X012310Y020421D01*
X012279Y020463D01*
X012251Y020507D01*
X012226Y020553D01*
X012205Y020601D01*
X012188Y020651D01*
X012175Y020701D01*
X012165Y020753D01*
X012159Y020805D01*
X012157Y020857D01*
X009757Y022057D02*
X009757Y022657D01*
X009755Y022674D01*
X009751Y022691D01*
X009744Y022707D01*
X009734Y022721D01*
X009721Y022734D01*
X009707Y022744D01*
X009691Y022751D01*
X009674Y022755D01*
X009657Y022757D01*
X008057Y022757D01*
X008040Y022755D01*
X008023Y022751D01*
X008007Y022744D01*
X007993Y022734D01*
X007980Y022721D01*
X007970Y022707D01*
X007963Y022691D01*
X007959Y022674D01*
X007957Y022657D01*
X007957Y022057D01*
X007959Y022040D01*
X007963Y022023D01*
X007970Y022007D01*
X007980Y021993D01*
X007993Y021980D01*
X008007Y021970D01*
X008023Y021963D01*
X008040Y021959D01*
X008057Y021957D01*
X009657Y021957D01*
X009674Y021959D01*
X009691Y021963D01*
X009707Y021970D01*
X009721Y021980D01*
X009734Y021993D01*
X009744Y022007D01*
X009751Y022023D01*
X009755Y022040D01*
X009757Y022057D01*
X009257Y022107D02*
X008857Y022357D01*
X008857Y022107D01*
X008857Y022357D02*
X008607Y022357D01*
X008857Y022357D02*
X008857Y022607D01*
X008857Y022357D02*
X009257Y022607D01*
X009257Y022107D01*
X009457Y022357D02*
X008857Y022357D01*
X001507Y023857D02*
X001509Y023930D01*
X001515Y024003D01*
X001525Y024075D01*
X001539Y024147D01*
X001556Y024218D01*
X001578Y024288D01*
X001603Y024357D01*
X001632Y024424D01*
X001664Y024489D01*
X001700Y024553D01*
X001740Y024615D01*
X001782Y024674D01*
X001828Y024731D01*
X001877Y024785D01*
X001929Y024837D01*
X001983Y024886D01*
X002040Y024932D01*
X002099Y024974D01*
X002161Y025014D01*
X002225Y025050D01*
X002290Y025082D01*
X002357Y025111D01*
X002426Y025136D01*
X002496Y025158D01*
X002567Y025175D01*
X002639Y025189D01*
X002711Y025199D01*
X002784Y025205D01*
X002857Y025207D01*
X002930Y025205D01*
X003003Y025199D01*
X003075Y025189D01*
X003147Y025175D01*
X003218Y025158D01*
X003288Y025136D01*
X003357Y025111D01*
X003424Y025082D01*
X003489Y025050D01*
X003553Y025014D01*
X003615Y024974D01*
X003674Y024932D01*
X003731Y024886D01*
X003785Y024837D01*
X003837Y024785D01*
X003886Y024731D01*
X003932Y024674D01*
X003974Y024615D01*
X004014Y024553D01*
X004050Y024489D01*
X004082Y024424D01*
X004111Y024357D01*
X004136Y024288D01*
X004158Y024218D01*
X004175Y024147D01*
X004189Y024075D01*
X004199Y024003D01*
X004205Y023930D01*
X004207Y023857D01*
X004205Y023784D01*
X004199Y023711D01*
X004189Y023639D01*
X004175Y023567D01*
X004158Y023496D01*
X004136Y023426D01*
X004111Y023357D01*
X004082Y023290D01*
X004050Y023225D01*
X004014Y023161D01*
X003974Y023099D01*
X003932Y023040D01*
X003886Y022983D01*
X003837Y022929D01*
X003785Y022877D01*
X003731Y022828D01*
X003674Y022782D01*
X003615Y022740D01*
X003553Y022700D01*
X003489Y022664D01*
X003424Y022632D01*
X003357Y022603D01*
X003288Y022578D01*
X003218Y022556D01*
X003147Y022539D01*
X003075Y022525D01*
X003003Y022515D01*
X002930Y022509D01*
X002857Y022507D01*
X002784Y022509D01*
X002711Y022515D01*
X002639Y022525D01*
X002567Y022539D01*
X002496Y022556D01*
X002426Y022578D01*
X002357Y022603D01*
X002290Y022632D01*
X002225Y022664D01*
X002161Y022700D01*
X002099Y022740D01*
X002040Y022782D01*
X001983Y022828D01*
X001929Y022877D01*
X001877Y022929D01*
X001828Y022983D01*
X001782Y023040D01*
X001740Y023099D01*
X001700Y023161D01*
X001664Y023225D01*
X001632Y023290D01*
X001603Y023357D01*
X001578Y023426D01*
X001556Y023496D01*
X001539Y023567D01*
X001525Y023639D01*
X001515Y023711D01*
X001509Y023784D01*
X001507Y023857D01*
X015357Y023607D02*
X015607Y023357D01*
X016107Y023357D01*
X016357Y023607D01*
X016357Y024107D01*
X016107Y024357D01*
X015607Y024357D01*
X015357Y024107D01*
X015357Y023607D01*
X016357Y023607D02*
X016607Y023357D01*
X017107Y023357D01*
X017357Y023607D01*
X017357Y024107D01*
X017107Y024357D01*
X016607Y024357D01*
X016357Y024107D01*
X017357Y024107D02*
X017607Y024357D01*
X018107Y024357D01*
X018357Y024107D01*
X018357Y023607D01*
X018107Y023357D01*
X017607Y023357D01*
X017357Y023607D01*
X017931Y021452D02*
X017886Y021456D01*
X017841Y021457D01*
X017795Y021454D01*
X017750Y021447D01*
X017706Y021438D01*
X017662Y021425D01*
X017620Y021408D01*
X017579Y021389D01*
X017539Y021366D01*
X017502Y021340D01*
X017466Y021312D01*
X017433Y021281D01*
X017758Y020265D02*
X017805Y020259D01*
X017853Y020257D01*
X017900Y020259D01*
X017948Y020264D01*
X017994Y020273D01*
X018040Y020286D01*
X018085Y020302D01*
X018128Y020322D01*
X018169Y020345D01*
X018209Y020371D01*
X018246Y020400D01*
X018281Y020433D01*
X017262Y020783D02*
X017258Y020828D01*
X017257Y020873D01*
X017260Y020919D01*
X017267Y020964D01*
X017276Y021008D01*
X017289Y021052D01*
X017306Y021094D01*
X017325Y021135D01*
X017348Y021175D01*
X017374Y021212D01*
X017402Y021248D01*
X017433Y021281D01*
X018451Y020942D02*
X018456Y020896D01*
X018457Y020849D01*
X018455Y020803D01*
X018449Y020757D01*
X018439Y020712D01*
X018426Y020667D01*
X018410Y020624D01*
X018390Y020582D01*
X018367Y020542D01*
X018342Y020503D01*
X018313Y020467D01*
X018281Y020433D01*
X015433Y021281D02*
X015402Y021248D01*
X015374Y021212D01*
X015348Y021175D01*
X015325Y021135D01*
X015306Y021094D01*
X015289Y021052D01*
X015276Y021008D01*
X015267Y020964D01*
X015260Y020919D01*
X015257Y020873D01*
X015258Y020828D01*
X015262Y020783D01*
X015433Y021281D02*
X015466Y021312D01*
X015502Y021340D01*
X015539Y021366D01*
X015579Y021389D01*
X015620Y021408D01*
X015662Y021425D01*
X015706Y021438D01*
X015750Y021447D01*
X015795Y021454D01*
X015841Y021457D01*
X015886Y021456D01*
X015931Y021452D01*
X016281Y020433D02*
X016246Y020400D01*
X016209Y020371D01*
X016169Y020345D01*
X016128Y020322D01*
X016085Y020302D01*
X016040Y020286D01*
X015994Y020273D01*
X015948Y020264D01*
X015900Y020259D01*
X015853Y020257D01*
X015805Y020259D01*
X015758Y020265D01*
X016281Y020433D02*
X016313Y020467D01*
X016342Y020503D01*
X016367Y020542D01*
X016390Y020582D01*
X016410Y020624D01*
X016426Y020667D01*
X016439Y020712D01*
X016449Y020757D01*
X016455Y020803D01*
X016457Y020849D01*
X016456Y020896D01*
X016451Y020942D01*
X035657Y021357D02*
X035657Y020407D01*
X035657Y020007D01*
X036457Y019657D02*
X036557Y019657D01*
X036557Y019557D01*
X037157Y019557D01*
X037157Y019657D01*
X037257Y019657D01*
X038057Y020007D02*
X038057Y020357D01*
X038057Y021357D01*
X038057Y021707D01*
X037257Y022057D02*
X037157Y022057D01*
X037157Y022157D01*
X036557Y022157D01*
X036557Y022057D01*
X036457Y022057D01*
X035657Y021707D02*
X035657Y021357D01*
X036757Y020857D02*
X036759Y020877D01*
X036765Y020895D01*
X036774Y020913D01*
X036786Y020928D01*
X036801Y020940D01*
X036819Y020949D01*
X036837Y020955D01*
X036857Y020957D01*
X036877Y020955D01*
X036895Y020949D01*
X036913Y020940D01*
X036928Y020928D01*
X036940Y020913D01*
X036949Y020895D01*
X036955Y020877D01*
X036957Y020857D01*
X036955Y020837D01*
X036949Y020819D01*
X036940Y020801D01*
X036928Y020786D01*
X036913Y020774D01*
X036895Y020765D01*
X036877Y020759D01*
X036857Y020757D01*
X036837Y020759D01*
X036819Y020765D01*
X036801Y020774D01*
X036786Y020786D01*
X036774Y020801D01*
X036765Y020819D01*
X036759Y020837D01*
X036757Y020857D01*
X036157Y020857D02*
X036159Y020909D01*
X036165Y020961D01*
X036175Y021013D01*
X036188Y021063D01*
X036205Y021113D01*
X036226Y021161D01*
X036251Y021207D01*
X036279Y021251D01*
X036310Y021293D01*
X036344Y021333D01*
X036381Y021370D01*
X036421Y021404D01*
X036463Y021435D01*
X036507Y021463D01*
X036553Y021488D01*
X036601Y021509D01*
X036651Y021526D01*
X036701Y021539D01*
X036753Y021549D01*
X036805Y021555D01*
X036857Y021557D01*
X036909Y021555D01*
X036961Y021549D01*
X037013Y021539D01*
X037063Y021526D01*
X037113Y021509D01*
X037161Y021488D01*
X037207Y021463D01*
X037251Y021435D01*
X037293Y021404D01*
X037333Y021370D01*
X037370Y021333D01*
X037404Y021293D01*
X037435Y021251D01*
X037463Y021207D01*
X037488Y021161D01*
X037509Y021113D01*
X037526Y021063D01*
X037539Y021013D01*
X037549Y020961D01*
X037555Y020909D01*
X037557Y020857D01*
X037555Y020805D01*
X037549Y020753D01*
X037539Y020701D01*
X037526Y020651D01*
X037509Y020601D01*
X037488Y020553D01*
X037463Y020507D01*
X037435Y020463D01*
X037404Y020421D01*
X037370Y020381D01*
X037333Y020344D01*
X037293Y020310D01*
X037251Y020279D01*
X037207Y020251D01*
X037161Y020226D01*
X037113Y020205D01*
X037063Y020188D01*
X037013Y020175D01*
X036961Y020165D01*
X036909Y020159D01*
X036857Y020157D01*
X036805Y020159D01*
X036753Y020165D01*
X036701Y020175D01*
X036651Y020188D01*
X036601Y020205D01*
X036553Y020226D01*
X036507Y020251D01*
X036463Y020279D01*
X036421Y020310D01*
X036381Y020344D01*
X036344Y020381D01*
X036310Y020421D01*
X036279Y020463D01*
X036251Y020507D01*
X036226Y020553D01*
X036205Y020601D01*
X036188Y020651D01*
X036175Y020701D01*
X036165Y020753D01*
X036159Y020805D01*
X036157Y020857D01*
X039433Y021281D02*
X039466Y021312D01*
X039502Y021340D01*
X039539Y021366D01*
X039579Y021389D01*
X039620Y021408D01*
X039662Y021425D01*
X039706Y021438D01*
X039750Y021447D01*
X039795Y021454D01*
X039841Y021457D01*
X039886Y021456D01*
X039931Y021452D01*
X040281Y020433D02*
X040246Y020400D01*
X040209Y020371D01*
X040169Y020345D01*
X040128Y020322D01*
X040085Y020302D01*
X040040Y020286D01*
X039994Y020273D01*
X039948Y020264D01*
X039900Y020259D01*
X039853Y020257D01*
X039805Y020259D01*
X039758Y020265D01*
X039262Y020783D02*
X039258Y020828D01*
X039257Y020873D01*
X039260Y020919D01*
X039267Y020964D01*
X039276Y021008D01*
X039289Y021052D01*
X039306Y021094D01*
X039325Y021135D01*
X039348Y021175D01*
X039374Y021212D01*
X039402Y021248D01*
X039433Y021281D01*
X040451Y020942D02*
X040456Y020896D01*
X040457Y020849D01*
X040455Y020803D01*
X040449Y020757D01*
X040439Y020712D01*
X040426Y020667D01*
X040410Y020624D01*
X040390Y020582D01*
X040367Y020542D01*
X040342Y020503D01*
X040313Y020467D01*
X040281Y020433D01*
X042433Y021281D02*
X042466Y021312D01*
X042502Y021340D01*
X042539Y021366D01*
X042579Y021389D01*
X042620Y021408D01*
X042662Y021425D01*
X042706Y021438D01*
X042750Y021447D01*
X042795Y021454D01*
X042841Y021457D01*
X042886Y021456D01*
X042931Y021452D01*
X043281Y020433D02*
X043246Y020400D01*
X043209Y020371D01*
X043169Y020345D01*
X043128Y020322D01*
X043085Y020302D01*
X043040Y020286D01*
X042994Y020273D01*
X042948Y020264D01*
X042900Y020259D01*
X042853Y020257D01*
X042805Y020259D01*
X042758Y020265D01*
X042262Y020783D02*
X042258Y020828D01*
X042257Y020873D01*
X042260Y020919D01*
X042267Y020964D01*
X042276Y021008D01*
X042289Y021052D01*
X042306Y021094D01*
X042325Y021135D01*
X042348Y021175D01*
X042374Y021212D01*
X042402Y021248D01*
X042433Y021281D01*
X043451Y020942D02*
X043456Y020896D01*
X043457Y020849D01*
X043455Y020803D01*
X043449Y020757D01*
X043439Y020712D01*
X043426Y020667D01*
X043410Y020624D01*
X043390Y020582D01*
X043367Y020542D01*
X043342Y020503D01*
X043313Y020467D01*
X043281Y020433D01*
X045433Y021281D02*
X045466Y021312D01*
X045502Y021340D01*
X045539Y021366D01*
X045579Y021389D01*
X045620Y021408D01*
X045662Y021425D01*
X045706Y021438D01*
X045750Y021447D01*
X045795Y021454D01*
X045841Y021457D01*
X045886Y021456D01*
X045931Y021452D01*
X046281Y020433D02*
X046246Y020400D01*
X046209Y020371D01*
X046169Y020345D01*
X046128Y020322D01*
X046085Y020302D01*
X046040Y020286D01*
X045994Y020273D01*
X045948Y020264D01*
X045900Y020259D01*
X045853Y020257D01*
X045805Y020259D01*
X045758Y020265D01*
X045262Y020783D02*
X045258Y020828D01*
X045257Y020873D01*
X045260Y020919D01*
X045267Y020964D01*
X045276Y021008D01*
X045289Y021052D01*
X045306Y021094D01*
X045325Y021135D01*
X045348Y021175D01*
X045374Y021212D01*
X045402Y021248D01*
X045433Y021281D01*
X046451Y020942D02*
X046456Y020896D01*
X046457Y020849D01*
X046455Y020803D01*
X046449Y020757D01*
X046439Y020712D01*
X046426Y020667D01*
X046410Y020624D01*
X046390Y020582D01*
X046367Y020542D01*
X046342Y020503D01*
X046313Y020467D01*
X046281Y020433D01*
X043107Y023357D02*
X043357Y023607D01*
X043357Y024107D01*
X043107Y024357D01*
X042607Y024357D01*
X042357Y024107D01*
X042107Y024357D01*
X041607Y024357D01*
X041357Y024107D01*
X041357Y023607D01*
X041607Y023357D01*
X042107Y023357D01*
X042357Y023607D01*
X042357Y024107D01*
X042357Y023607D02*
X042607Y023357D01*
X043107Y023357D01*
X041357Y023607D02*
X041107Y023357D01*
X040607Y023357D01*
X040357Y023607D01*
X040107Y023357D01*
X039607Y023357D01*
X039357Y023607D01*
X039357Y024107D01*
X039607Y024357D01*
X040107Y024357D01*
X040357Y024107D01*
X040607Y024357D01*
X041107Y024357D01*
X041357Y024107D01*
X040357Y024107D02*
X040357Y023607D01*
X054507Y023857D02*
X054509Y023930D01*
X054515Y024003D01*
X054525Y024075D01*
X054539Y024147D01*
X054556Y024218D01*
X054578Y024288D01*
X054603Y024357D01*
X054632Y024424D01*
X054664Y024489D01*
X054700Y024553D01*
X054740Y024615D01*
X054782Y024674D01*
X054828Y024731D01*
X054877Y024785D01*
X054929Y024837D01*
X054983Y024886D01*
X055040Y024932D01*
X055099Y024974D01*
X055161Y025014D01*
X055225Y025050D01*
X055290Y025082D01*
X055357Y025111D01*
X055426Y025136D01*
X055496Y025158D01*
X055567Y025175D01*
X055639Y025189D01*
X055711Y025199D01*
X055784Y025205D01*
X055857Y025207D01*
X055930Y025205D01*
X056003Y025199D01*
X056075Y025189D01*
X056147Y025175D01*
X056218Y025158D01*
X056288Y025136D01*
X056357Y025111D01*
X056424Y025082D01*
X056489Y025050D01*
X056553Y025014D01*
X056615Y024974D01*
X056674Y024932D01*
X056731Y024886D01*
X056785Y024837D01*
X056837Y024785D01*
X056886Y024731D01*
X056932Y024674D01*
X056974Y024615D01*
X057014Y024553D01*
X057050Y024489D01*
X057082Y024424D01*
X057111Y024357D01*
X057136Y024288D01*
X057158Y024218D01*
X057175Y024147D01*
X057189Y024075D01*
X057199Y024003D01*
X057205Y023930D01*
X057207Y023857D01*
X057205Y023784D01*
X057199Y023711D01*
X057189Y023639D01*
X057175Y023567D01*
X057158Y023496D01*
X057136Y023426D01*
X057111Y023357D01*
X057082Y023290D01*
X057050Y023225D01*
X057014Y023161D01*
X056974Y023099D01*
X056932Y023040D01*
X056886Y022983D01*
X056837Y022929D01*
X056785Y022877D01*
X056731Y022828D01*
X056674Y022782D01*
X056615Y022740D01*
X056553Y022700D01*
X056489Y022664D01*
X056424Y022632D01*
X056357Y022603D01*
X056288Y022578D01*
X056218Y022556D01*
X056147Y022539D01*
X056075Y022525D01*
X056003Y022515D01*
X055930Y022509D01*
X055857Y022507D01*
X055784Y022509D01*
X055711Y022515D01*
X055639Y022525D01*
X055567Y022539D01*
X055496Y022556D01*
X055426Y022578D01*
X055357Y022603D01*
X055290Y022632D01*
X055225Y022664D01*
X055161Y022700D01*
X055099Y022740D01*
X055040Y022782D01*
X054983Y022828D01*
X054929Y022877D01*
X054877Y022929D01*
X054828Y022983D01*
X054782Y023040D01*
X054740Y023099D01*
X054700Y023161D01*
X054664Y023225D01*
X054632Y023290D01*
X054603Y023357D01*
X054578Y023426D01*
X054556Y023496D01*
X054539Y023567D01*
X054525Y023639D01*
X054515Y023711D01*
X054509Y023784D01*
X054507Y023857D01*
X054507Y002857D02*
X054509Y002930D01*
X054515Y003003D01*
X054525Y003075D01*
X054539Y003147D01*
X054556Y003218D01*
X054578Y003288D01*
X054603Y003357D01*
X054632Y003424D01*
X054664Y003489D01*
X054700Y003553D01*
X054740Y003615D01*
X054782Y003674D01*
X054828Y003731D01*
X054877Y003785D01*
X054929Y003837D01*
X054983Y003886D01*
X055040Y003932D01*
X055099Y003974D01*
X055161Y004014D01*
X055225Y004050D01*
X055290Y004082D01*
X055357Y004111D01*
X055426Y004136D01*
X055496Y004158D01*
X055567Y004175D01*
X055639Y004189D01*
X055711Y004199D01*
X055784Y004205D01*
X055857Y004207D01*
X055930Y004205D01*
X056003Y004199D01*
X056075Y004189D01*
X056147Y004175D01*
X056218Y004158D01*
X056288Y004136D01*
X056357Y004111D01*
X056424Y004082D01*
X056489Y004050D01*
X056553Y004014D01*
X056615Y003974D01*
X056674Y003932D01*
X056731Y003886D01*
X056785Y003837D01*
X056837Y003785D01*
X056886Y003731D01*
X056932Y003674D01*
X056974Y003615D01*
X057014Y003553D01*
X057050Y003489D01*
X057082Y003424D01*
X057111Y003357D01*
X057136Y003288D01*
X057158Y003218D01*
X057175Y003147D01*
X057189Y003075D01*
X057199Y003003D01*
X057205Y002930D01*
X057207Y002857D01*
X057205Y002784D01*
X057199Y002711D01*
X057189Y002639D01*
X057175Y002567D01*
X057158Y002496D01*
X057136Y002426D01*
X057111Y002357D01*
X057082Y002290D01*
X057050Y002225D01*
X057014Y002161D01*
X056974Y002099D01*
X056932Y002040D01*
X056886Y001983D01*
X056837Y001929D01*
X056785Y001877D01*
X056731Y001828D01*
X056674Y001782D01*
X056615Y001740D01*
X056553Y001700D01*
X056489Y001664D01*
X056424Y001632D01*
X056357Y001603D01*
X056288Y001578D01*
X056218Y001556D01*
X056147Y001539D01*
X056075Y001525D01*
X056003Y001515D01*
X055930Y001509D01*
X055857Y001507D01*
X055784Y001509D01*
X055711Y001515D01*
X055639Y001525D01*
X055567Y001539D01*
X055496Y001556D01*
X055426Y001578D01*
X055357Y001603D01*
X055290Y001632D01*
X055225Y001664D01*
X055161Y001700D01*
X055099Y001740D01*
X055040Y001782D01*
X054983Y001828D01*
X054929Y001877D01*
X054877Y001929D01*
X054828Y001983D01*
X054782Y002040D01*
X054740Y002099D01*
X054700Y002161D01*
X054664Y002225D01*
X054632Y002290D01*
X054603Y002357D01*
X054578Y002426D01*
X054556Y002496D01*
X054539Y002567D01*
X054525Y002639D01*
X054515Y002711D01*
X054509Y002784D01*
X054507Y002857D01*
D11*
X038057Y020357D02*
X037957Y020357D01*
X037957Y021357D01*
X038057Y021357D01*
X035757Y021357D02*
X035757Y020407D01*
X035657Y020407D01*
X035657Y021357D02*
X035757Y021357D01*
X014057Y021357D02*
X013957Y021357D01*
X013957Y020357D01*
X014057Y020357D01*
X011757Y020407D02*
X011657Y020407D01*
X011757Y020407D02*
X011757Y021357D01*
X011657Y021357D01*
D12*
X016423Y020291D02*
X016460Y020331D01*
X016494Y020373D01*
X016525Y020417D01*
X016553Y020463D01*
X016578Y020511D01*
X016600Y020560D01*
X016618Y020611D01*
X016633Y020663D01*
X016644Y020716D01*
X016652Y020769D01*
X016656Y020823D01*
X016657Y020877D01*
X016654Y020931D01*
X016647Y020985D01*
X016636Y021038D01*
X016622Y021090D01*
X016067Y021629D02*
X016013Y021642D01*
X015958Y021651D01*
X015902Y021656D01*
X015846Y021657D01*
X015790Y021654D01*
X015734Y021647D01*
X015679Y021637D01*
X015625Y021623D01*
X015572Y021604D01*
X015520Y021583D01*
X015470Y021557D01*
X015422Y021528D01*
X015376Y021496D01*
X015332Y021461D01*
X015291Y021423D01*
X015785Y020060D02*
X015838Y020057D01*
X015892Y020058D01*
X015946Y020062D01*
X015999Y020070D01*
X016052Y020081D01*
X016104Y020096D01*
X016155Y020114D01*
X016204Y020136D01*
X016252Y020161D01*
X016298Y020189D01*
X016342Y020220D01*
X016383Y020254D01*
X016423Y020291D01*
X015060Y020791D02*
X015057Y020844D01*
X015058Y020897D01*
X015062Y020951D01*
X015071Y021003D01*
X015082Y021056D01*
X015097Y021107D01*
X015115Y021157D01*
X015137Y021206D01*
X015162Y021253D01*
X015190Y021299D01*
X015221Y021342D01*
X015255Y021384D01*
X015291Y021423D01*
X018423Y020291D02*
X018460Y020331D01*
X018494Y020373D01*
X018525Y020417D01*
X018553Y020463D01*
X018578Y020511D01*
X018600Y020560D01*
X018618Y020611D01*
X018633Y020663D01*
X018644Y020716D01*
X018652Y020769D01*
X018656Y020823D01*
X018657Y020877D01*
X018654Y020931D01*
X018647Y020985D01*
X018636Y021038D01*
X018622Y021090D01*
X018067Y021629D02*
X018013Y021642D01*
X017958Y021651D01*
X017902Y021656D01*
X017846Y021657D01*
X017790Y021654D01*
X017734Y021647D01*
X017679Y021637D01*
X017625Y021623D01*
X017572Y021604D01*
X017520Y021583D01*
X017470Y021557D01*
X017422Y021528D01*
X017376Y021496D01*
X017332Y021461D01*
X017291Y021423D01*
X017785Y020060D02*
X017838Y020057D01*
X017892Y020058D01*
X017946Y020062D01*
X017999Y020070D01*
X018052Y020081D01*
X018104Y020096D01*
X018155Y020114D01*
X018204Y020136D01*
X018252Y020161D01*
X018298Y020189D01*
X018342Y020220D01*
X018383Y020254D01*
X018423Y020291D01*
X017060Y020791D02*
X017057Y020844D01*
X017058Y020897D01*
X017062Y020951D01*
X017071Y021003D01*
X017082Y021056D01*
X017097Y021107D01*
X017115Y021157D01*
X017137Y021206D01*
X017162Y021253D01*
X017190Y021299D01*
X017221Y021342D01*
X017255Y021384D01*
X017291Y021423D01*
X040423Y020291D02*
X040460Y020331D01*
X040494Y020373D01*
X040525Y020417D01*
X040553Y020463D01*
X040578Y020511D01*
X040600Y020560D01*
X040618Y020611D01*
X040633Y020663D01*
X040644Y020716D01*
X040652Y020769D01*
X040656Y020823D01*
X040657Y020877D01*
X040654Y020931D01*
X040647Y020985D01*
X040636Y021038D01*
X040622Y021090D01*
X040067Y021629D02*
X040013Y021642D01*
X039958Y021651D01*
X039902Y021656D01*
X039846Y021657D01*
X039790Y021654D01*
X039734Y021647D01*
X039679Y021637D01*
X039625Y021623D01*
X039572Y021604D01*
X039520Y021583D01*
X039470Y021557D01*
X039422Y021528D01*
X039376Y021496D01*
X039332Y021461D01*
X039291Y021423D01*
X039785Y020060D02*
X039838Y020057D01*
X039892Y020058D01*
X039946Y020062D01*
X039999Y020070D01*
X040052Y020081D01*
X040104Y020096D01*
X040155Y020114D01*
X040204Y020136D01*
X040252Y020161D01*
X040298Y020189D01*
X040342Y020220D01*
X040383Y020254D01*
X040423Y020291D01*
X039060Y020791D02*
X039057Y020844D01*
X039058Y020897D01*
X039062Y020951D01*
X039071Y021003D01*
X039082Y021056D01*
X039097Y021107D01*
X039115Y021157D01*
X039137Y021206D01*
X039162Y021253D01*
X039190Y021299D01*
X039221Y021342D01*
X039255Y021384D01*
X039291Y021423D01*
X043423Y020291D02*
X043460Y020331D01*
X043494Y020373D01*
X043525Y020417D01*
X043553Y020463D01*
X043578Y020511D01*
X043600Y020560D01*
X043618Y020611D01*
X043633Y020663D01*
X043644Y020716D01*
X043652Y020769D01*
X043656Y020823D01*
X043657Y020877D01*
X043654Y020931D01*
X043647Y020985D01*
X043636Y021038D01*
X043622Y021090D01*
X043067Y021629D02*
X043013Y021642D01*
X042958Y021651D01*
X042902Y021656D01*
X042846Y021657D01*
X042790Y021654D01*
X042734Y021647D01*
X042679Y021637D01*
X042625Y021623D01*
X042572Y021604D01*
X042520Y021583D01*
X042470Y021557D01*
X042422Y021528D01*
X042376Y021496D01*
X042332Y021461D01*
X042291Y021423D01*
X042785Y020060D02*
X042838Y020057D01*
X042892Y020058D01*
X042946Y020062D01*
X042999Y020070D01*
X043052Y020081D01*
X043104Y020096D01*
X043155Y020114D01*
X043204Y020136D01*
X043252Y020161D01*
X043298Y020189D01*
X043342Y020220D01*
X043383Y020254D01*
X043423Y020291D01*
X042060Y020791D02*
X042057Y020844D01*
X042058Y020897D01*
X042062Y020951D01*
X042071Y021003D01*
X042082Y021056D01*
X042097Y021107D01*
X042115Y021157D01*
X042137Y021206D01*
X042162Y021253D01*
X042190Y021299D01*
X042221Y021342D01*
X042255Y021384D01*
X042291Y021423D01*
X046423Y020291D02*
X046460Y020331D01*
X046494Y020373D01*
X046525Y020417D01*
X046553Y020463D01*
X046578Y020511D01*
X046600Y020560D01*
X046618Y020611D01*
X046633Y020663D01*
X046644Y020716D01*
X046652Y020769D01*
X046656Y020823D01*
X046657Y020877D01*
X046654Y020931D01*
X046647Y020985D01*
X046636Y021038D01*
X046622Y021090D01*
X046067Y021629D02*
X046013Y021642D01*
X045958Y021651D01*
X045902Y021656D01*
X045846Y021657D01*
X045790Y021654D01*
X045734Y021647D01*
X045679Y021637D01*
X045625Y021623D01*
X045572Y021604D01*
X045520Y021583D01*
X045470Y021557D01*
X045422Y021528D01*
X045376Y021496D01*
X045332Y021461D01*
X045291Y021423D01*
X045785Y020060D02*
X045838Y020057D01*
X045892Y020058D01*
X045946Y020062D01*
X045999Y020070D01*
X046052Y020081D01*
X046104Y020096D01*
X046155Y020114D01*
X046204Y020136D01*
X046252Y020161D01*
X046298Y020189D01*
X046342Y020220D01*
X046383Y020254D01*
X046423Y020291D01*
X045060Y020791D02*
X045057Y020844D01*
X045058Y020897D01*
X045062Y020951D01*
X045071Y021003D01*
X045082Y021056D01*
X045097Y021107D01*
X045115Y021157D01*
X045137Y021206D01*
X045162Y021253D01*
X045190Y021299D01*
X045221Y021342D01*
X045255Y021384D01*
X045291Y021423D01*
D13*
X010707Y017357D03*
X008207Y022357D03*
D14*
X007832Y022357D03*
X009882Y022357D03*
X010332Y017357D03*
X012382Y017357D03*
D15*
X002227Y002857D02*
X002229Y002907D01*
X002235Y002957D01*
X002245Y003006D01*
X002259Y003054D01*
X002276Y003101D01*
X002297Y003146D01*
X002322Y003190D01*
X002350Y003231D01*
X002382Y003270D01*
X002416Y003307D01*
X002453Y003341D01*
X002493Y003371D01*
X002535Y003398D01*
X002579Y003422D01*
X002625Y003443D01*
X002672Y003459D01*
X002720Y003472D01*
X002770Y003481D01*
X002819Y003486D01*
X002870Y003487D01*
X002920Y003484D01*
X002969Y003477D01*
X003018Y003466D01*
X003066Y003451D01*
X003112Y003433D01*
X003157Y003411D01*
X003200Y003385D01*
X003241Y003356D01*
X003280Y003324D01*
X003316Y003289D01*
X003348Y003251D01*
X003378Y003211D01*
X003405Y003168D01*
X003428Y003124D01*
X003447Y003078D01*
X003463Y003030D01*
X003475Y002981D01*
X003483Y002932D01*
X003487Y002882D01*
X003487Y002832D01*
X003483Y002782D01*
X003475Y002733D01*
X003463Y002684D01*
X003447Y002636D01*
X003428Y002590D01*
X003405Y002546D01*
X003378Y002503D01*
X003348Y002463D01*
X003316Y002425D01*
X003280Y002390D01*
X003241Y002358D01*
X003200Y002329D01*
X003157Y002303D01*
X003112Y002281D01*
X003066Y002263D01*
X003018Y002248D01*
X002969Y002237D01*
X002920Y002230D01*
X002870Y002227D01*
X002819Y002228D01*
X002770Y002233D01*
X002720Y002242D01*
X002672Y002255D01*
X002625Y002271D01*
X002579Y002292D01*
X002535Y002316D01*
X002493Y002343D01*
X002453Y002373D01*
X002416Y002407D01*
X002382Y002444D01*
X002350Y002483D01*
X002322Y002524D01*
X002297Y002568D01*
X002276Y002613D01*
X002259Y002660D01*
X002245Y002708D01*
X002235Y002757D01*
X002229Y002807D01*
X002227Y002857D01*
X002227Y023857D02*
X002229Y023907D01*
X002235Y023957D01*
X002245Y024006D01*
X002259Y024054D01*
X002276Y024101D01*
X002297Y024146D01*
X002322Y024190D01*
X002350Y024231D01*
X002382Y024270D01*
X002416Y024307D01*
X002453Y024341D01*
X002493Y024371D01*
X002535Y024398D01*
X002579Y024422D01*
X002625Y024443D01*
X002672Y024459D01*
X002720Y024472D01*
X002770Y024481D01*
X002819Y024486D01*
X002870Y024487D01*
X002920Y024484D01*
X002969Y024477D01*
X003018Y024466D01*
X003066Y024451D01*
X003112Y024433D01*
X003157Y024411D01*
X003200Y024385D01*
X003241Y024356D01*
X003280Y024324D01*
X003316Y024289D01*
X003348Y024251D01*
X003378Y024211D01*
X003405Y024168D01*
X003428Y024124D01*
X003447Y024078D01*
X003463Y024030D01*
X003475Y023981D01*
X003483Y023932D01*
X003487Y023882D01*
X003487Y023832D01*
X003483Y023782D01*
X003475Y023733D01*
X003463Y023684D01*
X003447Y023636D01*
X003428Y023590D01*
X003405Y023546D01*
X003378Y023503D01*
X003348Y023463D01*
X003316Y023425D01*
X003280Y023390D01*
X003241Y023358D01*
X003200Y023329D01*
X003157Y023303D01*
X003112Y023281D01*
X003066Y023263D01*
X003018Y023248D01*
X002969Y023237D01*
X002920Y023230D01*
X002870Y023227D01*
X002819Y023228D01*
X002770Y023233D01*
X002720Y023242D01*
X002672Y023255D01*
X002625Y023271D01*
X002579Y023292D01*
X002535Y023316D01*
X002493Y023343D01*
X002453Y023373D01*
X002416Y023407D01*
X002382Y023444D01*
X002350Y023483D01*
X002322Y023524D01*
X002297Y023568D01*
X002276Y023613D01*
X002259Y023660D01*
X002245Y023708D01*
X002235Y023757D01*
X002229Y023807D01*
X002227Y023857D01*
X055227Y023857D02*
X055229Y023907D01*
X055235Y023957D01*
X055245Y024006D01*
X055259Y024054D01*
X055276Y024101D01*
X055297Y024146D01*
X055322Y024190D01*
X055350Y024231D01*
X055382Y024270D01*
X055416Y024307D01*
X055453Y024341D01*
X055493Y024371D01*
X055535Y024398D01*
X055579Y024422D01*
X055625Y024443D01*
X055672Y024459D01*
X055720Y024472D01*
X055770Y024481D01*
X055819Y024486D01*
X055870Y024487D01*
X055920Y024484D01*
X055969Y024477D01*
X056018Y024466D01*
X056066Y024451D01*
X056112Y024433D01*
X056157Y024411D01*
X056200Y024385D01*
X056241Y024356D01*
X056280Y024324D01*
X056316Y024289D01*
X056348Y024251D01*
X056378Y024211D01*
X056405Y024168D01*
X056428Y024124D01*
X056447Y024078D01*
X056463Y024030D01*
X056475Y023981D01*
X056483Y023932D01*
X056487Y023882D01*
X056487Y023832D01*
X056483Y023782D01*
X056475Y023733D01*
X056463Y023684D01*
X056447Y023636D01*
X056428Y023590D01*
X056405Y023546D01*
X056378Y023503D01*
X056348Y023463D01*
X056316Y023425D01*
X056280Y023390D01*
X056241Y023358D01*
X056200Y023329D01*
X056157Y023303D01*
X056112Y023281D01*
X056066Y023263D01*
X056018Y023248D01*
X055969Y023237D01*
X055920Y023230D01*
X055870Y023227D01*
X055819Y023228D01*
X055770Y023233D01*
X055720Y023242D01*
X055672Y023255D01*
X055625Y023271D01*
X055579Y023292D01*
X055535Y023316D01*
X055493Y023343D01*
X055453Y023373D01*
X055416Y023407D01*
X055382Y023444D01*
X055350Y023483D01*
X055322Y023524D01*
X055297Y023568D01*
X055276Y023613D01*
X055259Y023660D01*
X055245Y023708D01*
X055235Y023757D01*
X055229Y023807D01*
X055227Y023857D01*
X055227Y002857D02*
X055229Y002907D01*
X055235Y002957D01*
X055245Y003006D01*
X055259Y003054D01*
X055276Y003101D01*
X055297Y003146D01*
X055322Y003190D01*
X055350Y003231D01*
X055382Y003270D01*
X055416Y003307D01*
X055453Y003341D01*
X055493Y003371D01*
X055535Y003398D01*
X055579Y003422D01*
X055625Y003443D01*
X055672Y003459D01*
X055720Y003472D01*
X055770Y003481D01*
X055819Y003486D01*
X055870Y003487D01*
X055920Y003484D01*
X055969Y003477D01*
X056018Y003466D01*
X056066Y003451D01*
X056112Y003433D01*
X056157Y003411D01*
X056200Y003385D01*
X056241Y003356D01*
X056280Y003324D01*
X056316Y003289D01*
X056348Y003251D01*
X056378Y003211D01*
X056405Y003168D01*
X056428Y003124D01*
X056447Y003078D01*
X056463Y003030D01*
X056475Y002981D01*
X056483Y002932D01*
X056487Y002882D01*
X056487Y002832D01*
X056483Y002782D01*
X056475Y002733D01*
X056463Y002684D01*
X056447Y002636D01*
X056428Y002590D01*
X056405Y002546D01*
X056378Y002503D01*
X056348Y002463D01*
X056316Y002425D01*
X056280Y002390D01*
X056241Y002358D01*
X056200Y002329D01*
X056157Y002303D01*
X056112Y002281D01*
X056066Y002263D01*
X056018Y002248D01*
X055969Y002237D01*
X055920Y002230D01*
X055870Y002227D01*
X055819Y002228D01*
X055770Y002233D01*
X055720Y002242D01*
X055672Y002255D01*
X055625Y002271D01*
X055579Y002292D01*
X055535Y002316D01*
X055493Y002343D01*
X055453Y002373D01*
X055416Y002407D01*
X055382Y002444D01*
X055350Y002483D01*
X055322Y002524D01*
X055297Y002568D01*
X055276Y002613D01*
X055259Y002660D01*
X055245Y002708D01*
X055235Y002757D01*
X055229Y002807D01*
X055227Y002857D01*
D16*
X054624Y007707D02*
X048758Y007707D01*
X048705Y007709D01*
X048652Y007715D01*
X048599Y007724D01*
X048547Y007737D01*
X048497Y007754D01*
X048447Y007775D01*
X048400Y007798D01*
X048354Y007826D01*
X048310Y007856D01*
X048268Y007890D01*
X048229Y007926D01*
X048193Y007965D01*
X048159Y008007D01*
X048129Y008051D01*
X048101Y008097D01*
X048078Y008144D01*
X048057Y008194D01*
X048040Y008244D01*
X048027Y008296D01*
X048018Y008349D01*
X048012Y008402D01*
X048010Y008455D01*
X048010Y008888D01*
X048010Y008455D02*
X048010Y013258D01*
X048012Y013311D01*
X048018Y013364D01*
X048027Y013417D01*
X048040Y013469D01*
X048057Y013519D01*
X048078Y013569D01*
X048101Y013616D01*
X048129Y013662D01*
X048159Y013706D01*
X048193Y013748D01*
X048229Y013787D01*
X048268Y013823D01*
X048310Y013857D01*
X048354Y013887D01*
X048400Y013915D01*
X048447Y013938D01*
X048497Y013959D01*
X048547Y013976D01*
X048599Y013989D01*
X048652Y013998D01*
X048705Y014004D01*
X048758Y014006D01*
X054624Y014006D01*
X054624Y014007D02*
X054663Y014005D01*
X054701Y013999D01*
X054738Y013990D01*
X054775Y013977D01*
X054810Y013960D01*
X054843Y013941D01*
X054874Y013918D01*
X054903Y013892D01*
X054929Y013863D01*
X054952Y013832D01*
X054971Y013799D01*
X054988Y013764D01*
X055001Y013727D01*
X055010Y013690D01*
X055016Y013652D01*
X055018Y013613D01*
X055018Y012117D01*
X055019Y012117D02*
X055021Y012076D01*
X055026Y012035D01*
X055035Y011995D01*
X055047Y011956D01*
X055063Y011918D01*
X055082Y011881D01*
X055104Y011846D01*
X055129Y011814D01*
X055157Y011783D01*
X055188Y011755D01*
X055220Y011730D01*
X055255Y011708D01*
X055292Y011689D01*
X055330Y011673D01*
X055369Y011661D01*
X055409Y011652D01*
X055450Y011647D01*
X055491Y011645D01*
X055491Y011644D02*
X056278Y011644D01*
X056278Y010069D01*
X055491Y010069D01*
X055450Y010067D01*
X055409Y010062D01*
X055369Y010053D01*
X055330Y010041D01*
X055292Y010025D01*
X055255Y010006D01*
X055220Y009984D01*
X055188Y009959D01*
X055157Y009931D01*
X055129Y009900D01*
X055104Y009868D01*
X055082Y009833D01*
X055063Y009796D01*
X055047Y009758D01*
X055035Y009719D01*
X055026Y009679D01*
X055021Y009638D01*
X055019Y009597D01*
X055018Y009597D02*
X055018Y008101D01*
X055016Y008062D01*
X055010Y008024D01*
X055001Y007987D01*
X054988Y007950D01*
X054971Y007915D01*
X054952Y007882D01*
X054929Y007851D01*
X054903Y007822D01*
X054874Y007796D01*
X054843Y007773D01*
X054810Y007754D01*
X054775Y007737D01*
X054738Y007724D01*
X054701Y007715D01*
X054663Y007709D01*
X054624Y007707D01*
X051770Y007550D02*
X051770Y008337D01*
X050943Y008337D01*
X050943Y007550D01*
X051770Y007550D01*
X051947Y009872D02*
X051947Y011841D01*
X050176Y010857D02*
X050178Y010926D01*
X050184Y010994D01*
X050194Y011062D01*
X050208Y011129D01*
X050226Y011196D01*
X050247Y011261D01*
X050273Y011325D01*
X050302Y011387D01*
X050334Y011447D01*
X050370Y011506D01*
X050410Y011562D01*
X050452Y011616D01*
X050498Y011667D01*
X050547Y011716D01*
X050598Y011762D01*
X050652Y011804D01*
X050708Y011844D01*
X050766Y011880D01*
X050827Y011912D01*
X050889Y011941D01*
X050953Y011967D01*
X051018Y011988D01*
X051085Y012006D01*
X051152Y012020D01*
X051220Y012030D01*
X051288Y012036D01*
X051357Y012038D01*
X051426Y012036D01*
X051494Y012030D01*
X051562Y012020D01*
X051629Y012006D01*
X051696Y011988D01*
X051761Y011967D01*
X051825Y011941D01*
X051887Y011912D01*
X051947Y011880D01*
X052006Y011844D01*
X052062Y011804D01*
X052116Y011762D01*
X052167Y011716D01*
X052216Y011667D01*
X052262Y011616D01*
X052304Y011562D01*
X052344Y011506D01*
X052380Y011447D01*
X052412Y011387D01*
X052441Y011325D01*
X052467Y011261D01*
X052488Y011196D01*
X052506Y011129D01*
X052520Y011062D01*
X052530Y010994D01*
X052536Y010926D01*
X052538Y010857D01*
X052536Y010788D01*
X052530Y010720D01*
X052520Y010652D01*
X052506Y010585D01*
X052488Y010518D01*
X052467Y010453D01*
X052441Y010389D01*
X052412Y010327D01*
X052380Y010266D01*
X052344Y010208D01*
X052304Y010152D01*
X052262Y010098D01*
X052216Y010047D01*
X052167Y009998D01*
X052116Y009952D01*
X052062Y009910D01*
X052006Y009870D01*
X051948Y009834D01*
X051887Y009802D01*
X051825Y009773D01*
X051761Y009747D01*
X051696Y009726D01*
X051629Y009708D01*
X051562Y009694D01*
X051494Y009684D01*
X051426Y009678D01*
X051357Y009676D01*
X051288Y009678D01*
X051220Y009684D01*
X051152Y009694D01*
X051085Y009708D01*
X051018Y009726D01*
X050953Y009747D01*
X050889Y009773D01*
X050827Y009802D01*
X050766Y009834D01*
X050708Y009870D01*
X050652Y009910D01*
X050598Y009952D01*
X050547Y009998D01*
X050498Y010047D01*
X050452Y010098D01*
X050410Y010152D01*
X050370Y010208D01*
X050334Y010266D01*
X050302Y010327D01*
X050273Y010389D01*
X050247Y010453D01*
X050226Y010518D01*
X050208Y010585D01*
X050194Y010652D01*
X050184Y010720D01*
X050178Y010788D01*
X050176Y010857D01*
X049585Y010857D02*
X049587Y010944D01*
X049594Y011031D01*
X049604Y011117D01*
X049619Y011203D01*
X049638Y011288D01*
X049661Y011371D01*
X049689Y011454D01*
X049720Y011535D01*
X049755Y011615D01*
X049794Y011692D01*
X049837Y011768D01*
X049884Y011841D01*
X049934Y011913D01*
X049987Y011981D01*
X050044Y012047D01*
X050104Y012110D01*
X050167Y012170D01*
X050233Y012227D01*
X050301Y012280D01*
X050373Y012330D01*
X050446Y012377D01*
X050522Y012420D01*
X050599Y012459D01*
X050679Y012494D01*
X050760Y012525D01*
X050843Y012553D01*
X050926Y012576D01*
X051011Y012595D01*
X051097Y012610D01*
X051183Y012620D01*
X051270Y012627D01*
X051357Y012629D01*
X051444Y012627D01*
X051531Y012620D01*
X051617Y012610D01*
X051703Y012595D01*
X051788Y012576D01*
X051871Y012553D01*
X051954Y012525D01*
X052035Y012494D01*
X052115Y012459D01*
X052192Y012420D01*
X052268Y012377D01*
X052341Y012330D01*
X052413Y012280D01*
X052481Y012227D01*
X052547Y012170D01*
X052610Y012110D01*
X052670Y012047D01*
X052727Y011981D01*
X052780Y011913D01*
X052830Y011841D01*
X052877Y011768D01*
X052920Y011692D01*
X052959Y011615D01*
X052994Y011535D01*
X053025Y011454D01*
X053053Y011371D01*
X053076Y011288D01*
X053095Y011203D01*
X053110Y011117D01*
X053120Y011031D01*
X053127Y010944D01*
X053129Y010857D01*
X053127Y010770D01*
X053120Y010683D01*
X053110Y010597D01*
X053095Y010511D01*
X053076Y010426D01*
X053053Y010343D01*
X053025Y010260D01*
X052994Y010179D01*
X052959Y010099D01*
X052920Y010022D01*
X052877Y009946D01*
X052830Y009873D01*
X052780Y009801D01*
X052727Y009733D01*
X052670Y009667D01*
X052610Y009604D01*
X052547Y009544D01*
X052481Y009487D01*
X052413Y009434D01*
X052341Y009384D01*
X052268Y009337D01*
X052192Y009294D01*
X052115Y009255D01*
X052035Y009220D01*
X051954Y009189D01*
X051871Y009161D01*
X051788Y009138D01*
X051703Y009119D01*
X051617Y009104D01*
X051531Y009094D01*
X051444Y009087D01*
X051357Y009085D01*
X051270Y009087D01*
X051183Y009094D01*
X051097Y009104D01*
X051011Y009119D01*
X050926Y009138D01*
X050843Y009161D01*
X050760Y009189D01*
X050679Y009220D01*
X050599Y009255D01*
X050522Y009294D01*
X050446Y009337D01*
X050373Y009384D01*
X050301Y009434D01*
X050233Y009487D01*
X050167Y009544D01*
X050104Y009604D01*
X050044Y009667D01*
X049987Y009733D01*
X049934Y009801D01*
X049884Y009873D01*
X049837Y009946D01*
X049794Y010022D01*
X049755Y010099D01*
X049720Y010179D01*
X049689Y010260D01*
X049661Y010343D01*
X049638Y010426D01*
X049619Y010511D01*
X049604Y010597D01*
X049594Y010683D01*
X049587Y010770D01*
X049585Y010857D01*
X045278Y010069D02*
X045278Y011644D01*
X044491Y011644D01*
X044491Y011645D02*
X044450Y011647D01*
X044409Y011652D01*
X044369Y011661D01*
X044330Y011673D01*
X044292Y011689D01*
X044255Y011708D01*
X044220Y011730D01*
X044188Y011755D01*
X044157Y011783D01*
X044129Y011814D01*
X044104Y011846D01*
X044082Y011881D01*
X044063Y011918D01*
X044047Y011956D01*
X044035Y011995D01*
X044026Y012035D01*
X044021Y012076D01*
X044019Y012117D01*
X044018Y012117D02*
X044018Y013613D01*
X044016Y013652D01*
X044010Y013690D01*
X044001Y013727D01*
X043988Y013764D01*
X043971Y013799D01*
X043952Y013832D01*
X043929Y013863D01*
X043903Y013892D01*
X043874Y013918D01*
X043843Y013941D01*
X043810Y013960D01*
X043775Y013977D01*
X043738Y013990D01*
X043701Y013999D01*
X043663Y014005D01*
X043624Y014007D01*
X043624Y014006D02*
X037758Y014006D01*
X037705Y014004D01*
X037652Y013998D01*
X037599Y013989D01*
X037547Y013976D01*
X037497Y013959D01*
X037447Y013938D01*
X037400Y013915D01*
X037354Y013887D01*
X037310Y013857D01*
X037268Y013823D01*
X037229Y013787D01*
X037193Y013748D01*
X037159Y013706D01*
X037129Y013662D01*
X037101Y013616D01*
X037078Y013569D01*
X037057Y013519D01*
X037040Y013469D01*
X037027Y013417D01*
X037018Y013364D01*
X037012Y013311D01*
X037010Y013258D01*
X037010Y008455D01*
X037010Y008888D01*
X037010Y008455D02*
X037012Y008402D01*
X037018Y008349D01*
X037027Y008296D01*
X037040Y008244D01*
X037057Y008194D01*
X037078Y008144D01*
X037101Y008097D01*
X037129Y008051D01*
X037159Y008007D01*
X037193Y007965D01*
X037229Y007926D01*
X037268Y007890D01*
X037310Y007856D01*
X037354Y007826D01*
X037400Y007798D01*
X037447Y007775D01*
X037497Y007754D01*
X037547Y007737D01*
X037599Y007724D01*
X037652Y007715D01*
X037705Y007709D01*
X037758Y007707D01*
X043624Y007707D01*
X043663Y007709D01*
X043701Y007715D01*
X043738Y007724D01*
X043775Y007737D01*
X043810Y007754D01*
X043843Y007773D01*
X043874Y007796D01*
X043903Y007822D01*
X043929Y007851D01*
X043952Y007882D01*
X043971Y007915D01*
X043988Y007950D01*
X044001Y007987D01*
X044010Y008024D01*
X044016Y008062D01*
X044018Y008101D01*
X044018Y009597D01*
X044019Y009597D02*
X044021Y009638D01*
X044026Y009679D01*
X044035Y009719D01*
X044047Y009758D01*
X044063Y009796D01*
X044082Y009833D01*
X044104Y009868D01*
X044129Y009900D01*
X044157Y009931D01*
X044188Y009959D01*
X044220Y009984D01*
X044255Y010006D01*
X044292Y010025D01*
X044330Y010041D01*
X044369Y010053D01*
X044409Y010062D01*
X044450Y010067D01*
X044491Y010069D01*
X045278Y010069D01*
X040947Y009872D02*
X040947Y011841D01*
X039176Y010857D02*
X039178Y010926D01*
X039184Y010994D01*
X039194Y011062D01*
X039208Y011129D01*
X039226Y011196D01*
X039247Y011261D01*
X039273Y011325D01*
X039302Y011387D01*
X039334Y011447D01*
X039370Y011506D01*
X039410Y011562D01*
X039452Y011616D01*
X039498Y011667D01*
X039547Y011716D01*
X039598Y011762D01*
X039652Y011804D01*
X039708Y011844D01*
X039766Y011880D01*
X039827Y011912D01*
X039889Y011941D01*
X039953Y011967D01*
X040018Y011988D01*
X040085Y012006D01*
X040152Y012020D01*
X040220Y012030D01*
X040288Y012036D01*
X040357Y012038D01*
X040426Y012036D01*
X040494Y012030D01*
X040562Y012020D01*
X040629Y012006D01*
X040696Y011988D01*
X040761Y011967D01*
X040825Y011941D01*
X040887Y011912D01*
X040947Y011880D01*
X041006Y011844D01*
X041062Y011804D01*
X041116Y011762D01*
X041167Y011716D01*
X041216Y011667D01*
X041262Y011616D01*
X041304Y011562D01*
X041344Y011506D01*
X041380Y011447D01*
X041412Y011387D01*
X041441Y011325D01*
X041467Y011261D01*
X041488Y011196D01*
X041506Y011129D01*
X041520Y011062D01*
X041530Y010994D01*
X041536Y010926D01*
X041538Y010857D01*
X041536Y010788D01*
X041530Y010720D01*
X041520Y010652D01*
X041506Y010585D01*
X041488Y010518D01*
X041467Y010453D01*
X041441Y010389D01*
X041412Y010327D01*
X041380Y010266D01*
X041344Y010208D01*
X041304Y010152D01*
X041262Y010098D01*
X041216Y010047D01*
X041167Y009998D01*
X041116Y009952D01*
X041062Y009910D01*
X041006Y009870D01*
X040948Y009834D01*
X040887Y009802D01*
X040825Y009773D01*
X040761Y009747D01*
X040696Y009726D01*
X040629Y009708D01*
X040562Y009694D01*
X040494Y009684D01*
X040426Y009678D01*
X040357Y009676D01*
X040288Y009678D01*
X040220Y009684D01*
X040152Y009694D01*
X040085Y009708D01*
X040018Y009726D01*
X039953Y009747D01*
X039889Y009773D01*
X039827Y009802D01*
X039766Y009834D01*
X039708Y009870D01*
X039652Y009910D01*
X039598Y009952D01*
X039547Y009998D01*
X039498Y010047D01*
X039452Y010098D01*
X039410Y010152D01*
X039370Y010208D01*
X039334Y010266D01*
X039302Y010327D01*
X039273Y010389D01*
X039247Y010453D01*
X039226Y010518D01*
X039208Y010585D01*
X039194Y010652D01*
X039184Y010720D01*
X039178Y010788D01*
X039176Y010857D01*
X038585Y010857D02*
X038587Y010944D01*
X038594Y011031D01*
X038604Y011117D01*
X038619Y011203D01*
X038638Y011288D01*
X038661Y011371D01*
X038689Y011454D01*
X038720Y011535D01*
X038755Y011615D01*
X038794Y011692D01*
X038837Y011768D01*
X038884Y011841D01*
X038934Y011913D01*
X038987Y011981D01*
X039044Y012047D01*
X039104Y012110D01*
X039167Y012170D01*
X039233Y012227D01*
X039301Y012280D01*
X039373Y012330D01*
X039446Y012377D01*
X039522Y012420D01*
X039599Y012459D01*
X039679Y012494D01*
X039760Y012525D01*
X039843Y012553D01*
X039926Y012576D01*
X040011Y012595D01*
X040097Y012610D01*
X040183Y012620D01*
X040270Y012627D01*
X040357Y012629D01*
X040444Y012627D01*
X040531Y012620D01*
X040617Y012610D01*
X040703Y012595D01*
X040788Y012576D01*
X040871Y012553D01*
X040954Y012525D01*
X041035Y012494D01*
X041115Y012459D01*
X041192Y012420D01*
X041268Y012377D01*
X041341Y012330D01*
X041413Y012280D01*
X041481Y012227D01*
X041547Y012170D01*
X041610Y012110D01*
X041670Y012047D01*
X041727Y011981D01*
X041780Y011913D01*
X041830Y011841D01*
X041877Y011768D01*
X041920Y011692D01*
X041959Y011615D01*
X041994Y011535D01*
X042025Y011454D01*
X042053Y011371D01*
X042076Y011288D01*
X042095Y011203D01*
X042110Y011117D01*
X042120Y011031D01*
X042127Y010944D01*
X042129Y010857D01*
X042127Y010770D01*
X042120Y010683D01*
X042110Y010597D01*
X042095Y010511D01*
X042076Y010426D01*
X042053Y010343D01*
X042025Y010260D01*
X041994Y010179D01*
X041959Y010099D01*
X041920Y010022D01*
X041877Y009946D01*
X041830Y009873D01*
X041780Y009801D01*
X041727Y009733D01*
X041670Y009667D01*
X041610Y009604D01*
X041547Y009544D01*
X041481Y009487D01*
X041413Y009434D01*
X041341Y009384D01*
X041268Y009337D01*
X041192Y009294D01*
X041115Y009255D01*
X041035Y009220D01*
X040954Y009189D01*
X040871Y009161D01*
X040788Y009138D01*
X040703Y009119D01*
X040617Y009104D01*
X040531Y009094D01*
X040444Y009087D01*
X040357Y009085D01*
X040270Y009087D01*
X040183Y009094D01*
X040097Y009104D01*
X040011Y009119D01*
X039926Y009138D01*
X039843Y009161D01*
X039760Y009189D01*
X039679Y009220D01*
X039599Y009255D01*
X039522Y009294D01*
X039446Y009337D01*
X039373Y009384D01*
X039301Y009434D01*
X039233Y009487D01*
X039167Y009544D01*
X039104Y009604D01*
X039044Y009667D01*
X038987Y009733D01*
X038934Y009801D01*
X038884Y009873D01*
X038837Y009946D01*
X038794Y010022D01*
X038755Y010099D01*
X038720Y010179D01*
X038689Y010260D01*
X038661Y010343D01*
X038638Y010426D01*
X038619Y010511D01*
X038604Y010597D01*
X038594Y010683D01*
X038587Y010770D01*
X038585Y010857D01*
X034278Y010069D02*
X034278Y011644D01*
X033491Y011644D01*
X033491Y011645D02*
X033450Y011647D01*
X033409Y011652D01*
X033369Y011661D01*
X033330Y011673D01*
X033292Y011689D01*
X033255Y011708D01*
X033220Y011730D01*
X033188Y011755D01*
X033157Y011783D01*
X033129Y011814D01*
X033104Y011846D01*
X033082Y011881D01*
X033063Y011918D01*
X033047Y011956D01*
X033035Y011995D01*
X033026Y012035D01*
X033021Y012076D01*
X033019Y012117D01*
X033018Y012117D02*
X033018Y013613D01*
X033016Y013652D01*
X033010Y013690D01*
X033001Y013727D01*
X032988Y013764D01*
X032971Y013799D01*
X032952Y013832D01*
X032929Y013863D01*
X032903Y013892D01*
X032874Y013918D01*
X032843Y013941D01*
X032810Y013960D01*
X032775Y013977D01*
X032738Y013990D01*
X032701Y013999D01*
X032663Y014005D01*
X032624Y014007D01*
X032624Y014006D02*
X026758Y014006D01*
X026705Y014004D01*
X026652Y013998D01*
X026599Y013989D01*
X026547Y013976D01*
X026497Y013959D01*
X026447Y013938D01*
X026400Y013915D01*
X026354Y013887D01*
X026310Y013857D01*
X026268Y013823D01*
X026229Y013787D01*
X026193Y013748D01*
X026159Y013706D01*
X026129Y013662D01*
X026101Y013616D01*
X026078Y013569D01*
X026057Y013519D01*
X026040Y013469D01*
X026027Y013417D01*
X026018Y013364D01*
X026012Y013311D01*
X026010Y013258D01*
X026010Y008455D01*
X026010Y008888D01*
X026010Y008455D02*
X026012Y008402D01*
X026018Y008349D01*
X026027Y008296D01*
X026040Y008244D01*
X026057Y008194D01*
X026078Y008144D01*
X026101Y008097D01*
X026129Y008051D01*
X026159Y008007D01*
X026193Y007965D01*
X026229Y007926D01*
X026268Y007890D01*
X026310Y007856D01*
X026354Y007826D01*
X026400Y007798D01*
X026447Y007775D01*
X026497Y007754D01*
X026547Y007737D01*
X026599Y007724D01*
X026652Y007715D01*
X026705Y007709D01*
X026758Y007707D01*
X032624Y007707D01*
X032663Y007709D01*
X032701Y007715D01*
X032738Y007724D01*
X032775Y007737D01*
X032810Y007754D01*
X032843Y007773D01*
X032874Y007796D01*
X032903Y007822D01*
X032929Y007851D01*
X032952Y007882D01*
X032971Y007915D01*
X032988Y007950D01*
X033001Y007987D01*
X033010Y008024D01*
X033016Y008062D01*
X033018Y008101D01*
X033018Y009597D01*
X033019Y009597D02*
X033021Y009638D01*
X033026Y009679D01*
X033035Y009719D01*
X033047Y009758D01*
X033063Y009796D01*
X033082Y009833D01*
X033104Y009868D01*
X033129Y009900D01*
X033157Y009931D01*
X033188Y009959D01*
X033220Y009984D01*
X033255Y010006D01*
X033292Y010025D01*
X033330Y010041D01*
X033369Y010053D01*
X033409Y010062D01*
X033450Y010067D01*
X033491Y010069D01*
X034278Y010069D01*
X029947Y009872D02*
X029947Y011841D01*
X028176Y010857D02*
X028178Y010926D01*
X028184Y010994D01*
X028194Y011062D01*
X028208Y011129D01*
X028226Y011196D01*
X028247Y011261D01*
X028273Y011325D01*
X028302Y011387D01*
X028334Y011447D01*
X028370Y011506D01*
X028410Y011562D01*
X028452Y011616D01*
X028498Y011667D01*
X028547Y011716D01*
X028598Y011762D01*
X028652Y011804D01*
X028708Y011844D01*
X028766Y011880D01*
X028827Y011912D01*
X028889Y011941D01*
X028953Y011967D01*
X029018Y011988D01*
X029085Y012006D01*
X029152Y012020D01*
X029220Y012030D01*
X029288Y012036D01*
X029357Y012038D01*
X029426Y012036D01*
X029494Y012030D01*
X029562Y012020D01*
X029629Y012006D01*
X029696Y011988D01*
X029761Y011967D01*
X029825Y011941D01*
X029887Y011912D01*
X029947Y011880D01*
X030006Y011844D01*
X030062Y011804D01*
X030116Y011762D01*
X030167Y011716D01*
X030216Y011667D01*
X030262Y011616D01*
X030304Y011562D01*
X030344Y011506D01*
X030380Y011447D01*
X030412Y011387D01*
X030441Y011325D01*
X030467Y011261D01*
X030488Y011196D01*
X030506Y011129D01*
X030520Y011062D01*
X030530Y010994D01*
X030536Y010926D01*
X030538Y010857D01*
X030536Y010788D01*
X030530Y010720D01*
X030520Y010652D01*
X030506Y010585D01*
X030488Y010518D01*
X030467Y010453D01*
X030441Y010389D01*
X030412Y010327D01*
X030380Y010266D01*
X030344Y010208D01*
X030304Y010152D01*
X030262Y010098D01*
X030216Y010047D01*
X030167Y009998D01*
X030116Y009952D01*
X030062Y009910D01*
X030006Y009870D01*
X029948Y009834D01*
X029887Y009802D01*
X029825Y009773D01*
X029761Y009747D01*
X029696Y009726D01*
X029629Y009708D01*
X029562Y009694D01*
X029494Y009684D01*
X029426Y009678D01*
X029357Y009676D01*
X029288Y009678D01*
X029220Y009684D01*
X029152Y009694D01*
X029085Y009708D01*
X029018Y009726D01*
X028953Y009747D01*
X028889Y009773D01*
X028827Y009802D01*
X028766Y009834D01*
X028708Y009870D01*
X028652Y009910D01*
X028598Y009952D01*
X028547Y009998D01*
X028498Y010047D01*
X028452Y010098D01*
X028410Y010152D01*
X028370Y010208D01*
X028334Y010266D01*
X028302Y010327D01*
X028273Y010389D01*
X028247Y010453D01*
X028226Y010518D01*
X028208Y010585D01*
X028194Y010652D01*
X028184Y010720D01*
X028178Y010788D01*
X028176Y010857D01*
X027585Y010857D02*
X027587Y010944D01*
X027594Y011031D01*
X027604Y011117D01*
X027619Y011203D01*
X027638Y011288D01*
X027661Y011371D01*
X027689Y011454D01*
X027720Y011535D01*
X027755Y011615D01*
X027794Y011692D01*
X027837Y011768D01*
X027884Y011841D01*
X027934Y011913D01*
X027987Y011981D01*
X028044Y012047D01*
X028104Y012110D01*
X028167Y012170D01*
X028233Y012227D01*
X028301Y012280D01*
X028373Y012330D01*
X028446Y012377D01*
X028522Y012420D01*
X028599Y012459D01*
X028679Y012494D01*
X028760Y012525D01*
X028843Y012553D01*
X028926Y012576D01*
X029011Y012595D01*
X029097Y012610D01*
X029183Y012620D01*
X029270Y012627D01*
X029357Y012629D01*
X029444Y012627D01*
X029531Y012620D01*
X029617Y012610D01*
X029703Y012595D01*
X029788Y012576D01*
X029871Y012553D01*
X029954Y012525D01*
X030035Y012494D01*
X030115Y012459D01*
X030192Y012420D01*
X030268Y012377D01*
X030341Y012330D01*
X030413Y012280D01*
X030481Y012227D01*
X030547Y012170D01*
X030610Y012110D01*
X030670Y012047D01*
X030727Y011981D01*
X030780Y011913D01*
X030830Y011841D01*
X030877Y011768D01*
X030920Y011692D01*
X030959Y011615D01*
X030994Y011535D01*
X031025Y011454D01*
X031053Y011371D01*
X031076Y011288D01*
X031095Y011203D01*
X031110Y011117D01*
X031120Y011031D01*
X031127Y010944D01*
X031129Y010857D01*
X031127Y010770D01*
X031120Y010683D01*
X031110Y010597D01*
X031095Y010511D01*
X031076Y010426D01*
X031053Y010343D01*
X031025Y010260D01*
X030994Y010179D01*
X030959Y010099D01*
X030920Y010022D01*
X030877Y009946D01*
X030830Y009873D01*
X030780Y009801D01*
X030727Y009733D01*
X030670Y009667D01*
X030610Y009604D01*
X030547Y009544D01*
X030481Y009487D01*
X030413Y009434D01*
X030341Y009384D01*
X030268Y009337D01*
X030192Y009294D01*
X030115Y009255D01*
X030035Y009220D01*
X029954Y009189D01*
X029871Y009161D01*
X029788Y009138D01*
X029703Y009119D01*
X029617Y009104D01*
X029531Y009094D01*
X029444Y009087D01*
X029357Y009085D01*
X029270Y009087D01*
X029183Y009094D01*
X029097Y009104D01*
X029011Y009119D01*
X028926Y009138D01*
X028843Y009161D01*
X028760Y009189D01*
X028679Y009220D01*
X028599Y009255D01*
X028522Y009294D01*
X028446Y009337D01*
X028373Y009384D01*
X028301Y009434D01*
X028233Y009487D01*
X028167Y009544D01*
X028104Y009604D01*
X028044Y009667D01*
X027987Y009733D01*
X027934Y009801D01*
X027884Y009873D01*
X027837Y009946D01*
X027794Y010022D01*
X027755Y010099D01*
X027720Y010179D01*
X027689Y010260D01*
X027661Y010343D01*
X027638Y010426D01*
X027619Y010511D01*
X027604Y010597D01*
X027594Y010683D01*
X027587Y010770D01*
X027585Y010857D01*
X023278Y010069D02*
X023278Y011644D01*
X022491Y011644D01*
X022491Y011645D02*
X022450Y011647D01*
X022409Y011652D01*
X022369Y011661D01*
X022330Y011673D01*
X022292Y011689D01*
X022255Y011708D01*
X022220Y011730D01*
X022188Y011755D01*
X022157Y011783D01*
X022129Y011814D01*
X022104Y011846D01*
X022082Y011881D01*
X022063Y011918D01*
X022047Y011956D01*
X022035Y011995D01*
X022026Y012035D01*
X022021Y012076D01*
X022019Y012117D01*
X022018Y012117D02*
X022018Y013613D01*
X022016Y013652D01*
X022010Y013690D01*
X022001Y013727D01*
X021988Y013764D01*
X021971Y013799D01*
X021952Y013832D01*
X021929Y013863D01*
X021903Y013892D01*
X021874Y013918D01*
X021843Y013941D01*
X021810Y013960D01*
X021775Y013977D01*
X021738Y013990D01*
X021701Y013999D01*
X021663Y014005D01*
X021624Y014007D01*
X021624Y014006D02*
X015758Y014006D01*
X015705Y014004D01*
X015652Y013998D01*
X015599Y013989D01*
X015547Y013976D01*
X015497Y013959D01*
X015447Y013938D01*
X015400Y013915D01*
X015354Y013887D01*
X015310Y013857D01*
X015268Y013823D01*
X015229Y013787D01*
X015193Y013748D01*
X015159Y013706D01*
X015129Y013662D01*
X015101Y013616D01*
X015078Y013569D01*
X015057Y013519D01*
X015040Y013469D01*
X015027Y013417D01*
X015018Y013364D01*
X015012Y013311D01*
X015010Y013258D01*
X015010Y008455D01*
X015010Y008888D01*
X015010Y008455D02*
X015012Y008402D01*
X015018Y008349D01*
X015027Y008296D01*
X015040Y008244D01*
X015057Y008194D01*
X015078Y008144D01*
X015101Y008097D01*
X015129Y008051D01*
X015159Y008007D01*
X015193Y007965D01*
X015229Y007926D01*
X015268Y007890D01*
X015310Y007856D01*
X015354Y007826D01*
X015400Y007798D01*
X015447Y007775D01*
X015497Y007754D01*
X015547Y007737D01*
X015599Y007724D01*
X015652Y007715D01*
X015705Y007709D01*
X015758Y007707D01*
X021624Y007707D01*
X021663Y007709D01*
X021701Y007715D01*
X021738Y007724D01*
X021775Y007737D01*
X021810Y007754D01*
X021843Y007773D01*
X021874Y007796D01*
X021903Y007822D01*
X021929Y007851D01*
X021952Y007882D01*
X021971Y007915D01*
X021988Y007950D01*
X022001Y007987D01*
X022010Y008024D01*
X022016Y008062D01*
X022018Y008101D01*
X022018Y009597D01*
X022019Y009597D02*
X022021Y009638D01*
X022026Y009679D01*
X022035Y009719D01*
X022047Y009758D01*
X022063Y009796D01*
X022082Y009833D01*
X022104Y009868D01*
X022129Y009900D01*
X022157Y009931D01*
X022188Y009959D01*
X022220Y009984D01*
X022255Y010006D01*
X022292Y010025D01*
X022330Y010041D01*
X022369Y010053D01*
X022409Y010062D01*
X022450Y010067D01*
X022491Y010069D01*
X023278Y010069D01*
X018947Y009872D02*
X018947Y011841D01*
X017176Y010857D02*
X017178Y010926D01*
X017184Y010994D01*
X017194Y011062D01*
X017208Y011129D01*
X017226Y011196D01*
X017247Y011261D01*
X017273Y011325D01*
X017302Y011387D01*
X017334Y011447D01*
X017370Y011506D01*
X017410Y011562D01*
X017452Y011616D01*
X017498Y011667D01*
X017547Y011716D01*
X017598Y011762D01*
X017652Y011804D01*
X017708Y011844D01*
X017766Y011880D01*
X017827Y011912D01*
X017889Y011941D01*
X017953Y011967D01*
X018018Y011988D01*
X018085Y012006D01*
X018152Y012020D01*
X018220Y012030D01*
X018288Y012036D01*
X018357Y012038D01*
X018426Y012036D01*
X018494Y012030D01*
X018562Y012020D01*
X018629Y012006D01*
X018696Y011988D01*
X018761Y011967D01*
X018825Y011941D01*
X018887Y011912D01*
X018947Y011880D01*
X019006Y011844D01*
X019062Y011804D01*
X019116Y011762D01*
X019167Y011716D01*
X019216Y011667D01*
X019262Y011616D01*
X019304Y011562D01*
X019344Y011506D01*
X019380Y011447D01*
X019412Y011387D01*
X019441Y011325D01*
X019467Y011261D01*
X019488Y011196D01*
X019506Y011129D01*
X019520Y011062D01*
X019530Y010994D01*
X019536Y010926D01*
X019538Y010857D01*
X019536Y010788D01*
X019530Y010720D01*
X019520Y010652D01*
X019506Y010585D01*
X019488Y010518D01*
X019467Y010453D01*
X019441Y010389D01*
X019412Y010327D01*
X019380Y010266D01*
X019344Y010208D01*
X019304Y010152D01*
X019262Y010098D01*
X019216Y010047D01*
X019167Y009998D01*
X019116Y009952D01*
X019062Y009910D01*
X019006Y009870D01*
X018948Y009834D01*
X018887Y009802D01*
X018825Y009773D01*
X018761Y009747D01*
X018696Y009726D01*
X018629Y009708D01*
X018562Y009694D01*
X018494Y009684D01*
X018426Y009678D01*
X018357Y009676D01*
X018288Y009678D01*
X018220Y009684D01*
X018152Y009694D01*
X018085Y009708D01*
X018018Y009726D01*
X017953Y009747D01*
X017889Y009773D01*
X017827Y009802D01*
X017766Y009834D01*
X017708Y009870D01*
X017652Y009910D01*
X017598Y009952D01*
X017547Y009998D01*
X017498Y010047D01*
X017452Y010098D01*
X017410Y010152D01*
X017370Y010208D01*
X017334Y010266D01*
X017302Y010327D01*
X017273Y010389D01*
X017247Y010453D01*
X017226Y010518D01*
X017208Y010585D01*
X017194Y010652D01*
X017184Y010720D01*
X017178Y010788D01*
X017176Y010857D01*
X016585Y010857D02*
X016587Y010944D01*
X016594Y011031D01*
X016604Y011117D01*
X016619Y011203D01*
X016638Y011288D01*
X016661Y011371D01*
X016689Y011454D01*
X016720Y011535D01*
X016755Y011615D01*
X016794Y011692D01*
X016837Y011768D01*
X016884Y011841D01*
X016934Y011913D01*
X016987Y011981D01*
X017044Y012047D01*
X017104Y012110D01*
X017167Y012170D01*
X017233Y012227D01*
X017301Y012280D01*
X017373Y012330D01*
X017446Y012377D01*
X017522Y012420D01*
X017599Y012459D01*
X017679Y012494D01*
X017760Y012525D01*
X017843Y012553D01*
X017926Y012576D01*
X018011Y012595D01*
X018097Y012610D01*
X018183Y012620D01*
X018270Y012627D01*
X018357Y012629D01*
X018444Y012627D01*
X018531Y012620D01*
X018617Y012610D01*
X018703Y012595D01*
X018788Y012576D01*
X018871Y012553D01*
X018954Y012525D01*
X019035Y012494D01*
X019115Y012459D01*
X019192Y012420D01*
X019268Y012377D01*
X019341Y012330D01*
X019413Y012280D01*
X019481Y012227D01*
X019547Y012170D01*
X019610Y012110D01*
X019670Y012047D01*
X019727Y011981D01*
X019780Y011913D01*
X019830Y011841D01*
X019877Y011768D01*
X019920Y011692D01*
X019959Y011615D01*
X019994Y011535D01*
X020025Y011454D01*
X020053Y011371D01*
X020076Y011288D01*
X020095Y011203D01*
X020110Y011117D01*
X020120Y011031D01*
X020127Y010944D01*
X020129Y010857D01*
X020127Y010770D01*
X020120Y010683D01*
X020110Y010597D01*
X020095Y010511D01*
X020076Y010426D01*
X020053Y010343D01*
X020025Y010260D01*
X019994Y010179D01*
X019959Y010099D01*
X019920Y010022D01*
X019877Y009946D01*
X019830Y009873D01*
X019780Y009801D01*
X019727Y009733D01*
X019670Y009667D01*
X019610Y009604D01*
X019547Y009544D01*
X019481Y009487D01*
X019413Y009434D01*
X019341Y009384D01*
X019268Y009337D01*
X019192Y009294D01*
X019115Y009255D01*
X019035Y009220D01*
X018954Y009189D01*
X018871Y009161D01*
X018788Y009138D01*
X018703Y009119D01*
X018617Y009104D01*
X018531Y009094D01*
X018444Y009087D01*
X018357Y009085D01*
X018270Y009087D01*
X018183Y009094D01*
X018097Y009104D01*
X018011Y009119D01*
X017926Y009138D01*
X017843Y009161D01*
X017760Y009189D01*
X017679Y009220D01*
X017599Y009255D01*
X017522Y009294D01*
X017446Y009337D01*
X017373Y009384D01*
X017301Y009434D01*
X017233Y009487D01*
X017167Y009544D01*
X017104Y009604D01*
X017044Y009667D01*
X016987Y009733D01*
X016934Y009801D01*
X016884Y009873D01*
X016837Y009946D01*
X016794Y010022D01*
X016755Y010099D01*
X016720Y010179D01*
X016689Y010260D01*
X016661Y010343D01*
X016638Y010426D01*
X016619Y010511D01*
X016604Y010597D01*
X016594Y010683D01*
X016587Y010770D01*
X016585Y010857D01*
X012278Y010069D02*
X012278Y011644D01*
X011491Y011644D01*
X011491Y011645D02*
X011450Y011647D01*
X011409Y011652D01*
X011369Y011661D01*
X011330Y011673D01*
X011292Y011689D01*
X011255Y011708D01*
X011220Y011730D01*
X011188Y011755D01*
X011157Y011783D01*
X011129Y011814D01*
X011104Y011846D01*
X011082Y011881D01*
X011063Y011918D01*
X011047Y011956D01*
X011035Y011995D01*
X011026Y012035D01*
X011021Y012076D01*
X011019Y012117D01*
X011018Y012117D02*
X011018Y013613D01*
X011016Y013652D01*
X011010Y013690D01*
X011001Y013727D01*
X010988Y013764D01*
X010971Y013799D01*
X010952Y013832D01*
X010929Y013863D01*
X010903Y013892D01*
X010874Y013918D01*
X010843Y013941D01*
X010810Y013960D01*
X010775Y013977D01*
X010738Y013990D01*
X010701Y013999D01*
X010663Y014005D01*
X010624Y014007D01*
X010624Y014006D02*
X004758Y014006D01*
X004705Y014004D01*
X004652Y013998D01*
X004599Y013989D01*
X004547Y013976D01*
X004497Y013959D01*
X004447Y013938D01*
X004400Y013915D01*
X004354Y013887D01*
X004310Y013857D01*
X004268Y013823D01*
X004229Y013787D01*
X004193Y013748D01*
X004159Y013706D01*
X004129Y013662D01*
X004101Y013616D01*
X004078Y013569D01*
X004057Y013519D01*
X004040Y013469D01*
X004027Y013417D01*
X004018Y013364D01*
X004012Y013311D01*
X004010Y013258D01*
X004010Y008455D01*
X004010Y008888D01*
X004010Y008455D02*
X004012Y008402D01*
X004018Y008349D01*
X004027Y008296D01*
X004040Y008244D01*
X004057Y008194D01*
X004078Y008144D01*
X004101Y008097D01*
X004129Y008051D01*
X004159Y008007D01*
X004193Y007965D01*
X004229Y007926D01*
X004268Y007890D01*
X004310Y007856D01*
X004354Y007826D01*
X004400Y007798D01*
X004447Y007775D01*
X004497Y007754D01*
X004547Y007737D01*
X004599Y007724D01*
X004652Y007715D01*
X004705Y007709D01*
X004758Y007707D01*
X010624Y007707D01*
X010663Y007709D01*
X010701Y007715D01*
X010738Y007724D01*
X010775Y007737D01*
X010810Y007754D01*
X010843Y007773D01*
X010874Y007796D01*
X010903Y007822D01*
X010929Y007851D01*
X010952Y007882D01*
X010971Y007915D01*
X010988Y007950D01*
X011001Y007987D01*
X011010Y008024D01*
X011016Y008062D01*
X011018Y008101D01*
X011018Y009597D01*
X011019Y009597D02*
X011021Y009638D01*
X011026Y009679D01*
X011035Y009719D01*
X011047Y009758D01*
X011063Y009796D01*
X011082Y009833D01*
X011104Y009868D01*
X011129Y009900D01*
X011157Y009931D01*
X011188Y009959D01*
X011220Y009984D01*
X011255Y010006D01*
X011292Y010025D01*
X011330Y010041D01*
X011369Y010053D01*
X011409Y010062D01*
X011450Y010067D01*
X011491Y010069D01*
X012278Y010069D01*
X007947Y009872D02*
X007947Y011841D01*
X006176Y010857D02*
X006178Y010926D01*
X006184Y010994D01*
X006194Y011062D01*
X006208Y011129D01*
X006226Y011196D01*
X006247Y011261D01*
X006273Y011325D01*
X006302Y011387D01*
X006334Y011447D01*
X006370Y011506D01*
X006410Y011562D01*
X006452Y011616D01*
X006498Y011667D01*
X006547Y011716D01*
X006598Y011762D01*
X006652Y011804D01*
X006708Y011844D01*
X006766Y011880D01*
X006827Y011912D01*
X006889Y011941D01*
X006953Y011967D01*
X007018Y011988D01*
X007085Y012006D01*
X007152Y012020D01*
X007220Y012030D01*
X007288Y012036D01*
X007357Y012038D01*
X007426Y012036D01*
X007494Y012030D01*
X007562Y012020D01*
X007629Y012006D01*
X007696Y011988D01*
X007761Y011967D01*
X007825Y011941D01*
X007887Y011912D01*
X007947Y011880D01*
X008006Y011844D01*
X008062Y011804D01*
X008116Y011762D01*
X008167Y011716D01*
X008216Y011667D01*
X008262Y011616D01*
X008304Y011562D01*
X008344Y011506D01*
X008380Y011447D01*
X008412Y011387D01*
X008441Y011325D01*
X008467Y011261D01*
X008488Y011196D01*
X008506Y011129D01*
X008520Y011062D01*
X008530Y010994D01*
X008536Y010926D01*
X008538Y010857D01*
X008536Y010788D01*
X008530Y010720D01*
X008520Y010652D01*
X008506Y010585D01*
X008488Y010518D01*
X008467Y010453D01*
X008441Y010389D01*
X008412Y010327D01*
X008380Y010266D01*
X008344Y010208D01*
X008304Y010152D01*
X008262Y010098D01*
X008216Y010047D01*
X008167Y009998D01*
X008116Y009952D01*
X008062Y009910D01*
X008006Y009870D01*
X007948Y009834D01*
X007887Y009802D01*
X007825Y009773D01*
X007761Y009747D01*
X007696Y009726D01*
X007629Y009708D01*
X007562Y009694D01*
X007494Y009684D01*
X007426Y009678D01*
X007357Y009676D01*
X007288Y009678D01*
X007220Y009684D01*
X007152Y009694D01*
X007085Y009708D01*
X007018Y009726D01*
X006953Y009747D01*
X006889Y009773D01*
X006827Y009802D01*
X006766Y009834D01*
X006708Y009870D01*
X006652Y009910D01*
X006598Y009952D01*
X006547Y009998D01*
X006498Y010047D01*
X006452Y010098D01*
X006410Y010152D01*
X006370Y010208D01*
X006334Y010266D01*
X006302Y010327D01*
X006273Y010389D01*
X006247Y010453D01*
X006226Y010518D01*
X006208Y010585D01*
X006194Y010652D01*
X006184Y010720D01*
X006178Y010788D01*
X006176Y010857D01*
X005585Y010857D02*
X005587Y010944D01*
X005594Y011031D01*
X005604Y011117D01*
X005619Y011203D01*
X005638Y011288D01*
X005661Y011371D01*
X005689Y011454D01*
X005720Y011535D01*
X005755Y011615D01*
X005794Y011692D01*
X005837Y011768D01*
X005884Y011841D01*
X005934Y011913D01*
X005987Y011981D01*
X006044Y012047D01*
X006104Y012110D01*
X006167Y012170D01*
X006233Y012227D01*
X006301Y012280D01*
X006373Y012330D01*
X006446Y012377D01*
X006522Y012420D01*
X006599Y012459D01*
X006679Y012494D01*
X006760Y012525D01*
X006843Y012553D01*
X006926Y012576D01*
X007011Y012595D01*
X007097Y012610D01*
X007183Y012620D01*
X007270Y012627D01*
X007357Y012629D01*
X007444Y012627D01*
X007531Y012620D01*
X007617Y012610D01*
X007703Y012595D01*
X007788Y012576D01*
X007871Y012553D01*
X007954Y012525D01*
X008035Y012494D01*
X008115Y012459D01*
X008192Y012420D01*
X008268Y012377D01*
X008341Y012330D01*
X008413Y012280D01*
X008481Y012227D01*
X008547Y012170D01*
X008610Y012110D01*
X008670Y012047D01*
X008727Y011981D01*
X008780Y011913D01*
X008830Y011841D01*
X008877Y011768D01*
X008920Y011692D01*
X008959Y011615D01*
X008994Y011535D01*
X009025Y011454D01*
X009053Y011371D01*
X009076Y011288D01*
X009095Y011203D01*
X009110Y011117D01*
X009120Y011031D01*
X009127Y010944D01*
X009129Y010857D01*
X009127Y010770D01*
X009120Y010683D01*
X009110Y010597D01*
X009095Y010511D01*
X009076Y010426D01*
X009053Y010343D01*
X009025Y010260D01*
X008994Y010179D01*
X008959Y010099D01*
X008920Y010022D01*
X008877Y009946D01*
X008830Y009873D01*
X008780Y009801D01*
X008727Y009733D01*
X008670Y009667D01*
X008610Y009604D01*
X008547Y009544D01*
X008481Y009487D01*
X008413Y009434D01*
X008341Y009384D01*
X008268Y009337D01*
X008192Y009294D01*
X008115Y009255D01*
X008035Y009220D01*
X007954Y009189D01*
X007871Y009161D01*
X007788Y009138D01*
X007703Y009119D01*
X007617Y009104D01*
X007531Y009094D01*
X007444Y009087D01*
X007357Y009085D01*
X007270Y009087D01*
X007183Y009094D01*
X007097Y009104D01*
X007011Y009119D01*
X006926Y009138D01*
X006843Y009161D01*
X006760Y009189D01*
X006679Y009220D01*
X006599Y009255D01*
X006522Y009294D01*
X006446Y009337D01*
X006373Y009384D01*
X006301Y009434D01*
X006233Y009487D01*
X006167Y009544D01*
X006104Y009604D01*
X006044Y009667D01*
X005987Y009733D01*
X005934Y009801D01*
X005884Y009873D01*
X005837Y009946D01*
X005794Y010022D01*
X005755Y010099D01*
X005720Y010179D01*
X005689Y010260D01*
X005661Y010343D01*
X005638Y010426D01*
X005619Y010511D01*
X005604Y010597D01*
X005594Y010683D01*
X005587Y010770D01*
X005585Y010857D01*
X006943Y008337D02*
X007770Y008337D01*
X007770Y007550D01*
X006943Y007550D01*
X006943Y008337D01*
X006943Y013376D02*
X007770Y013376D01*
X007770Y014164D01*
X006943Y014164D01*
X006943Y013376D01*
X017943Y013376D02*
X018770Y013376D01*
X018770Y014164D01*
X017943Y014164D01*
X017943Y013376D01*
X017943Y008337D02*
X018770Y008337D01*
X018770Y007550D01*
X017943Y007550D01*
X017943Y008337D01*
X028943Y008337D02*
X028943Y007550D01*
X029770Y007550D01*
X029770Y008337D01*
X028943Y008337D01*
X028943Y013376D02*
X029770Y013376D01*
X029770Y014164D01*
X028943Y014164D01*
X028943Y013376D01*
X039943Y013376D02*
X040770Y013376D01*
X040770Y014164D01*
X039943Y014164D01*
X039943Y013376D01*
X050943Y013376D02*
X051770Y013376D01*
X051770Y014164D01*
X050943Y014164D01*
X050943Y013376D01*
X040770Y008337D02*
X039943Y008337D01*
X039943Y007550D01*
X040770Y007550D01*
X040770Y008337D01*
M02*
