G75*
G70*
%OFA0B0*%
%FSLAX24Y24*%
%IPPOS*%
%LPD*%
%AMOC8*
5,1,8,0,0,1.08239X$1,22.5*
%
%ADD10C,0.0140*%
%ADD11C,0.0110*%
%ADD12C,0.0600*%
%ADD13C,0.0104*%
%ADD14C,0.0520*%
%ADD15C,0.1417*%
%ADD16C,0.0827*%
%ADD17C,0.0866*%
%ADD18C,0.0500*%
%ADD19C,0.1000*%
%ADD20C,0.0320*%
D10*
X024190Y016520D02*
X024284Y016427D01*
X024471Y016427D01*
X024564Y016520D01*
X024377Y016707D02*
X024284Y016707D01*
X024190Y016614D01*
X024190Y016520D01*
X024284Y016707D02*
X024190Y016800D01*
X024190Y016894D01*
X024284Y016987D01*
X024471Y016987D01*
X024564Y016894D01*
X024835Y016894D02*
X024928Y016987D01*
X025209Y016987D01*
X025209Y016427D01*
X024928Y016427D01*
X024835Y016520D01*
X024835Y016894D01*
X025479Y016707D02*
X025853Y016707D01*
X026124Y016894D02*
X026498Y016520D01*
X026498Y016427D01*
X026769Y016520D02*
X026769Y016894D01*
X026862Y016987D01*
X027142Y016987D01*
X027142Y016427D01*
X026862Y016427D01*
X026769Y016520D01*
X027506Y016520D02*
X027506Y016987D01*
X027413Y016987D02*
X027600Y016987D01*
X027600Y017427D02*
X027506Y017520D01*
X027506Y017987D01*
X027413Y017987D02*
X027600Y017987D01*
X027600Y018427D02*
X027506Y018520D01*
X027506Y018987D01*
X027413Y018987D02*
X027600Y018987D01*
X027600Y019427D02*
X027506Y019520D01*
X027506Y019987D01*
X027413Y019987D02*
X027600Y019987D01*
X027142Y019987D02*
X026862Y019987D01*
X026769Y019894D01*
X026769Y019707D01*
X026862Y019614D01*
X027142Y019614D01*
X027142Y019427D02*
X027142Y019987D01*
X026498Y019800D02*
X026311Y019987D01*
X026311Y019427D01*
X026498Y019427D02*
X026124Y019427D01*
X026217Y018987D02*
X026124Y018894D01*
X026124Y018800D01*
X026217Y018707D01*
X026404Y018707D01*
X026498Y018800D01*
X026498Y018894D01*
X026404Y018987D01*
X026217Y018987D01*
X026217Y018707D02*
X026124Y018614D01*
X026124Y018520D01*
X026217Y018427D01*
X026404Y018427D01*
X026498Y018520D01*
X026498Y018614D01*
X026404Y018707D01*
X026769Y018520D02*
X026769Y018894D01*
X026862Y018987D01*
X027142Y018987D01*
X027142Y018427D01*
X026862Y018427D01*
X026769Y018520D01*
X025853Y018707D02*
X025479Y018707D01*
X025209Y018987D02*
X024928Y018987D01*
X024835Y018894D01*
X024835Y018520D01*
X024928Y018427D01*
X025209Y018427D01*
X025209Y018987D01*
X024564Y018894D02*
X024471Y018987D01*
X024284Y018987D01*
X024190Y018894D01*
X024190Y018800D01*
X024284Y018707D01*
X024190Y018614D01*
X024190Y018520D01*
X024284Y018427D01*
X024471Y018427D01*
X024564Y018520D01*
X024377Y018707D02*
X024284Y018707D01*
X024284Y017987D02*
X024471Y017987D01*
X024564Y017894D01*
X024835Y017894D02*
X024835Y017520D01*
X024928Y017427D01*
X025209Y017427D01*
X025209Y017987D01*
X024928Y017987D01*
X024835Y017894D01*
X024564Y017427D02*
X024190Y017800D01*
X024190Y017894D01*
X024284Y017987D01*
X024190Y017427D02*
X024564Y017427D01*
X025479Y017707D02*
X025853Y017707D01*
X026124Y017894D02*
X026498Y017520D01*
X026498Y017427D01*
X026769Y017520D02*
X026769Y017894D01*
X026862Y017987D01*
X027142Y017987D01*
X027142Y017427D01*
X026862Y017427D01*
X026769Y017520D01*
X026124Y017894D02*
X026124Y017987D01*
X026498Y017987D01*
X027600Y018427D02*
X027693Y018427D01*
X027787Y018520D01*
X027693Y019427D02*
X027600Y019427D01*
X027693Y019427D02*
X027787Y019520D01*
X027787Y017520D02*
X027693Y017427D01*
X027600Y017427D01*
X026498Y016987D02*
X026124Y016987D01*
X026124Y016894D01*
X027506Y016520D02*
X027600Y016427D01*
X027693Y016427D01*
X027787Y016520D01*
X023693Y024427D02*
X023506Y024427D01*
X023413Y024520D01*
X023142Y024520D02*
X023049Y024427D01*
X022862Y024427D01*
X022769Y024520D01*
X022769Y024894D01*
X022862Y024987D01*
X023049Y024987D01*
X023142Y024894D01*
X023142Y024520D01*
X023413Y024894D02*
X023506Y024987D01*
X023693Y024987D01*
X023787Y024894D01*
X023787Y024520D01*
X023693Y024427D01*
X022498Y024427D02*
X022498Y024987D01*
X022124Y024427D01*
X022124Y024987D01*
X021853Y024987D02*
X021479Y024987D01*
X021666Y024987D02*
X021666Y024427D01*
X021209Y024427D02*
X021209Y024987D01*
X020928Y024987D01*
X020835Y024894D01*
X020835Y024707D01*
X020928Y024614D01*
X021209Y024614D01*
X021022Y024614D02*
X020835Y024427D01*
X020564Y024520D02*
X020471Y024427D01*
X020284Y024427D01*
X020190Y024520D01*
X020190Y024894D01*
X020284Y024987D01*
X020471Y024987D01*
X020564Y024894D01*
X020564Y024520D01*
X019920Y024427D02*
X019920Y024987D01*
X019920Y024427D02*
X019546Y024427D01*
X011787Y024427D02*
X011506Y024427D01*
X011413Y024520D01*
X011413Y024894D01*
X011506Y024987D01*
X011787Y024987D01*
X011787Y024427D01*
X011142Y024427D02*
X010955Y024427D01*
X011049Y024427D02*
X011049Y024800D01*
X011142Y024800D01*
X011049Y024987D02*
X011049Y025081D01*
X010712Y024707D02*
X010712Y024520D01*
X010619Y024427D01*
X010432Y024427D01*
X010339Y024520D01*
X010339Y024707D01*
X010432Y024800D01*
X010619Y024800D01*
X010712Y024707D01*
X010068Y024707D02*
X010068Y024520D01*
X009975Y024427D01*
X009694Y024427D01*
X009694Y024987D01*
X009694Y024800D02*
X009975Y024800D01*
X010068Y024707D01*
X009423Y024707D02*
X009423Y024520D01*
X009330Y024427D01*
X009143Y024427D01*
X009050Y024614D02*
X009423Y024614D01*
X009423Y024707D02*
X009330Y024800D01*
X009143Y024800D01*
X009050Y024707D01*
X009050Y024614D01*
X008779Y024707D02*
X008686Y024800D01*
X008405Y024800D01*
X008499Y024614D02*
X008686Y024614D01*
X008779Y024707D01*
X008779Y024427D02*
X008499Y024427D01*
X008405Y024520D01*
X008499Y024614D01*
X008134Y024707D02*
X008134Y024800D01*
X008041Y024800D01*
X008041Y024707D01*
X008134Y024707D01*
X008134Y024520D02*
X008134Y024427D01*
X008041Y024427D01*
X008041Y024520D01*
X008134Y024520D01*
X007168Y024427D02*
X006794Y024707D01*
X007168Y024987D01*
X006523Y024987D02*
X006523Y024427D01*
X005600Y019487D02*
X005413Y019487D01*
X005506Y019487D02*
X005506Y019020D01*
X005600Y018927D01*
X005693Y018927D01*
X005787Y019020D01*
X005142Y018927D02*
X004862Y018927D01*
X004769Y019020D01*
X004769Y019394D01*
X004862Y019487D01*
X005142Y019487D01*
X005142Y018927D01*
X005142Y018487D02*
X004862Y018487D01*
X004769Y018394D01*
X004769Y018020D01*
X004862Y017927D01*
X005142Y017927D01*
X005142Y018487D01*
X005413Y018487D02*
X005600Y018487D01*
X005506Y018487D02*
X005506Y018020D01*
X005600Y017927D01*
X005693Y017927D01*
X005787Y018020D01*
X005600Y017487D02*
X005413Y017487D01*
X005506Y017487D02*
X005506Y017020D01*
X005600Y016927D01*
X005693Y016927D01*
X005787Y017020D01*
X005142Y016927D02*
X004862Y016927D01*
X004769Y017020D01*
X004769Y017394D01*
X004862Y017487D01*
X005142Y017487D01*
X005142Y016927D01*
X004498Y017020D02*
X004404Y016927D01*
X004217Y016927D01*
X004124Y017020D01*
X004124Y017207D01*
X004217Y017300D01*
X004311Y017300D01*
X004498Y017207D01*
X004498Y017487D01*
X004124Y017487D01*
X003853Y017207D02*
X003479Y017207D01*
X003209Y017487D02*
X002928Y017487D01*
X002835Y017394D01*
X002835Y017020D01*
X002928Y016927D01*
X003209Y016927D01*
X003209Y017487D01*
X002564Y017207D02*
X002284Y017207D01*
X002190Y017114D01*
X002190Y017020D01*
X002284Y016927D01*
X002471Y016927D01*
X002564Y017020D01*
X002564Y017207D01*
X002377Y017394D01*
X002190Y017487D01*
X002284Y017927D02*
X002471Y017927D01*
X002564Y018020D01*
X002190Y018394D01*
X002190Y018020D01*
X002284Y017927D01*
X002564Y018020D02*
X002564Y018394D01*
X002471Y018487D01*
X002284Y018487D01*
X002190Y018394D01*
X002835Y018394D02*
X002835Y018020D01*
X002928Y017927D01*
X003209Y017927D01*
X003209Y018487D01*
X002928Y018487D01*
X002835Y018394D01*
X003479Y018207D02*
X003853Y018207D01*
X004124Y018300D02*
X004217Y018207D01*
X004404Y018207D01*
X004498Y018300D01*
X004498Y018394D01*
X004404Y018487D01*
X004217Y018487D01*
X004124Y018394D01*
X004124Y018300D01*
X004217Y018207D02*
X004124Y018114D01*
X004124Y018020D01*
X004217Y017927D01*
X004404Y017927D01*
X004498Y018020D01*
X004498Y018114D01*
X004404Y018207D01*
X004404Y018927D02*
X004498Y019020D01*
X004404Y018927D02*
X004217Y018927D01*
X004124Y019020D01*
X004124Y019207D01*
X004217Y019300D01*
X004311Y019300D01*
X004498Y019207D01*
X004498Y019487D01*
X004124Y019487D01*
X003853Y019207D02*
X003479Y019207D01*
X003209Y019487D02*
X003209Y018927D01*
X002928Y018927D01*
X002835Y019020D01*
X002835Y019394D01*
X002928Y019487D01*
X003209Y019487D01*
X002564Y019207D02*
X002190Y019207D01*
X002284Y018927D02*
X002284Y019487D01*
X002564Y019207D01*
X034690Y024987D02*
X035064Y024987D01*
X034877Y024987D02*
X034877Y024427D01*
X035335Y024520D02*
X035428Y024427D01*
X035615Y024427D01*
X035709Y024520D01*
X035709Y024894D01*
X035615Y024987D01*
X035428Y024987D01*
X035335Y024894D01*
X035979Y024987D02*
X036353Y024987D01*
X036353Y024427D01*
X035979Y024427D01*
X036166Y024707D02*
X036353Y024707D01*
X036624Y024427D02*
X036998Y024427D01*
X036998Y024987D01*
X037269Y024987D02*
X037642Y024987D01*
X037642Y024427D01*
X037269Y024427D01*
X037455Y024707D02*
X037642Y024707D01*
X037913Y024614D02*
X038006Y024707D01*
X038193Y024707D01*
X038287Y024800D01*
X038287Y024894D01*
X038193Y024987D01*
X038006Y024987D01*
X037913Y024894D01*
X037913Y024614D02*
X037913Y024520D01*
X038006Y024427D01*
X038193Y024427D01*
X038287Y024520D01*
X048190Y022927D02*
X048564Y022927D01*
X048377Y022927D02*
X048377Y023487D01*
X048564Y023300D01*
X048835Y023394D02*
X048835Y023020D01*
X048928Y022927D01*
X049209Y022927D01*
X049209Y023487D01*
X048928Y023487D01*
X048835Y023394D01*
X049479Y023207D02*
X049853Y023207D01*
X050124Y023300D02*
X050124Y023394D01*
X050217Y023487D01*
X050404Y023487D01*
X050498Y023394D01*
X050498Y023300D01*
X050404Y023207D01*
X050217Y023207D01*
X050124Y023114D01*
X050124Y023020D01*
X050217Y022927D01*
X050404Y022927D01*
X050498Y023020D01*
X050498Y023114D01*
X050404Y023207D01*
X050217Y023207D02*
X050124Y023300D01*
X050769Y023394D02*
X050769Y023020D01*
X050862Y022927D01*
X051142Y022927D01*
X051142Y023487D01*
X050862Y023487D01*
X050769Y023394D01*
X051413Y023487D02*
X051600Y023487D01*
X051506Y023487D02*
X051506Y023020D01*
X051600Y022927D01*
X051693Y022927D01*
X051787Y023020D01*
X051600Y022487D02*
X051413Y022487D01*
X051506Y022487D02*
X051506Y022020D01*
X051600Y021927D01*
X051693Y021927D01*
X051787Y022020D01*
X051142Y021927D02*
X050862Y021927D01*
X050769Y022020D01*
X050769Y022394D01*
X050862Y022487D01*
X051142Y022487D01*
X051142Y021927D01*
X050498Y021927D02*
X050498Y022020D01*
X050124Y022394D01*
X050124Y022487D01*
X050498Y022487D01*
X049853Y022207D02*
X049479Y022207D01*
X049209Y022487D02*
X049209Y021927D01*
X048928Y021927D01*
X048835Y022020D01*
X048835Y022394D01*
X048928Y022487D01*
X049209Y022487D01*
X048564Y022207D02*
X048190Y022207D01*
X048284Y022487D02*
X048564Y022207D01*
X048284Y021927D02*
X048284Y022487D01*
X048190Y021487D02*
X048564Y021487D01*
X048564Y021207D01*
X048377Y021300D01*
X048284Y021300D01*
X048190Y021207D01*
X048190Y021020D01*
X048284Y020927D01*
X048471Y020927D01*
X048564Y021020D01*
X048835Y021020D02*
X048835Y021394D01*
X048928Y021487D01*
X049209Y021487D01*
X049209Y020927D01*
X048928Y020927D01*
X048835Y021020D01*
X049479Y021207D02*
X049853Y021207D01*
X050124Y021394D02*
X050498Y021020D01*
X050498Y020927D01*
X050769Y021020D02*
X050769Y021394D01*
X050862Y021487D01*
X051142Y021487D01*
X051142Y020927D01*
X050862Y020927D01*
X050769Y021020D01*
X051506Y021020D02*
X051506Y021487D01*
X051413Y021487D02*
X051600Y021487D01*
X050498Y021487D02*
X050124Y021487D01*
X050124Y021394D01*
X051506Y021020D02*
X051600Y020927D01*
X051693Y020927D01*
X051787Y021020D01*
X051600Y020487D02*
X051413Y020487D01*
X051506Y020487D02*
X051506Y020020D01*
X051600Y019927D01*
X051693Y019927D01*
X051787Y020020D01*
X051142Y019927D02*
X050862Y019927D01*
X050769Y020020D01*
X050769Y020394D01*
X050862Y020487D01*
X051142Y020487D01*
X051142Y019927D01*
X050498Y019927D02*
X050498Y020020D01*
X050124Y020394D01*
X050124Y020487D01*
X050498Y020487D01*
X049853Y020207D02*
X049479Y020207D01*
X049209Y020487D02*
X049209Y019927D01*
X048928Y019927D01*
X048835Y020020D01*
X048835Y020394D01*
X048928Y020487D01*
X049209Y020487D01*
X048564Y020207D02*
X048284Y020207D01*
X048190Y020114D01*
X048190Y020020D01*
X048284Y019927D01*
X048471Y019927D01*
X048564Y020020D01*
X048564Y020207D01*
X048377Y020394D01*
X048190Y020487D01*
X050124Y023927D02*
X050498Y023927D01*
X050124Y024300D01*
X050124Y024394D01*
X050217Y024487D01*
X050404Y024487D01*
X050498Y024394D01*
X050769Y024394D02*
X050769Y024207D01*
X050862Y024114D01*
X051142Y024114D01*
X051142Y023927D02*
X051142Y024487D01*
X050862Y024487D01*
X050769Y024394D01*
X051413Y024487D02*
X051600Y024487D01*
X051506Y024487D02*
X051506Y024020D01*
X051600Y023927D01*
X051693Y023927D01*
X051787Y024020D01*
D11*
X005802Y016010D02*
X005703Y015912D01*
X005605Y015912D01*
X005506Y016010D01*
X005506Y016502D01*
X005408Y016502D02*
X005605Y016502D01*
X005157Y016502D02*
X004862Y016502D01*
X004764Y016404D01*
X004764Y016010D01*
X004862Y015912D01*
X005157Y015912D01*
X005157Y016502D01*
X004513Y016404D02*
X004513Y016305D01*
X004414Y016207D01*
X004217Y016207D01*
X004119Y016109D01*
X004119Y016010D01*
X004217Y015912D01*
X004414Y015912D01*
X004513Y016010D01*
X004513Y016109D01*
X004414Y016207D01*
X004217Y016207D02*
X004119Y016305D01*
X004119Y016404D01*
X004217Y016502D01*
X004414Y016502D01*
X004513Y016404D01*
X003868Y016207D02*
X003474Y016207D01*
X003224Y016502D02*
X002928Y016502D01*
X002830Y016404D01*
X002830Y016010D01*
X002928Y015912D01*
X003224Y015912D01*
X003224Y016502D01*
X002579Y016502D02*
X002579Y016207D01*
X002382Y016305D01*
X002284Y016305D01*
X002185Y016207D01*
X002185Y016010D01*
X002284Y015912D01*
X002481Y015912D01*
X002579Y016010D01*
X002579Y016502D02*
X002185Y016502D01*
D12*
X007057Y016357D02*
X007657Y016357D01*
X007657Y017357D02*
X007057Y017357D01*
X007057Y018357D02*
X007657Y018357D01*
X007657Y019357D02*
X007057Y019357D01*
X011967Y019277D02*
X011967Y019877D01*
X013747Y019877D02*
X013747Y019277D01*
X013747Y021837D02*
X013747Y022437D01*
X011967Y022437D02*
X011967Y021837D01*
X015857Y023557D02*
X015857Y024157D01*
X016857Y024157D02*
X016857Y023557D01*
X017857Y023557D02*
X017857Y024157D01*
X035967Y022437D02*
X035967Y021837D01*
X037747Y021837D02*
X037747Y022437D01*
X039857Y023557D02*
X039857Y024157D01*
X040857Y024157D02*
X040857Y023557D01*
X041857Y023557D02*
X041857Y024157D01*
X042857Y024157D02*
X042857Y023557D01*
X037747Y019877D02*
X037747Y019277D01*
X035967Y019277D02*
X035967Y019877D01*
X032857Y002657D02*
X032857Y002057D01*
X031857Y002057D02*
X031857Y002657D01*
X030857Y002657D02*
X030857Y002057D01*
X029857Y002057D02*
X029857Y002657D01*
X028857Y002657D02*
X028857Y002057D01*
X027857Y002057D02*
X027857Y002657D01*
X026857Y002657D02*
X026857Y002057D01*
X025857Y002057D02*
X025857Y002657D01*
X024857Y002657D02*
X024857Y002057D01*
X023857Y002057D02*
X023857Y002657D01*
X022857Y002657D02*
X022857Y002057D01*
D13*
X017348Y020469D02*
X017296Y020417D01*
X017296Y020589D01*
X017417Y020710D01*
X017589Y020710D01*
X017710Y020589D01*
X017710Y020417D01*
X017589Y020296D01*
X017417Y020296D01*
X017296Y020417D01*
X017374Y020449D01*
X017374Y020557D01*
X017449Y020632D01*
X017557Y020632D01*
X017632Y020557D01*
X017632Y020449D01*
X017557Y020374D01*
X017449Y020374D01*
X017374Y020449D01*
X017452Y020482D01*
X017452Y020524D01*
X017482Y020554D01*
X017524Y020554D01*
X017554Y020524D01*
X017554Y020482D01*
X017524Y020452D01*
X017482Y020452D01*
X017452Y020482D01*
X018055Y021176D02*
X018003Y021124D01*
X018003Y021296D01*
X018124Y021417D01*
X018296Y021417D01*
X018417Y021296D01*
X018417Y021124D01*
X018296Y021003D01*
X018124Y021003D01*
X018003Y021124D01*
X018081Y021156D01*
X018081Y021264D01*
X018156Y021339D01*
X018264Y021339D01*
X018339Y021264D01*
X018339Y021156D01*
X018264Y021081D01*
X018156Y021081D01*
X018081Y021156D01*
X018159Y021189D01*
X018159Y021231D01*
X018189Y021261D01*
X018231Y021261D01*
X018261Y021231D01*
X018261Y021189D01*
X018231Y021159D01*
X018189Y021159D01*
X018159Y021189D01*
X016055Y021176D02*
X016003Y021124D01*
X016003Y021296D01*
X016124Y021417D01*
X016296Y021417D01*
X016417Y021296D01*
X016417Y021124D01*
X016296Y021003D01*
X016124Y021003D01*
X016003Y021124D01*
X016081Y021156D01*
X016081Y021264D01*
X016156Y021339D01*
X016264Y021339D01*
X016339Y021264D01*
X016339Y021156D01*
X016264Y021081D01*
X016156Y021081D01*
X016081Y021156D01*
X016159Y021189D01*
X016159Y021231D01*
X016189Y021261D01*
X016231Y021261D01*
X016261Y021231D01*
X016261Y021189D01*
X016231Y021159D01*
X016189Y021159D01*
X016159Y021189D01*
X015348Y020469D02*
X015296Y020417D01*
X015296Y020589D01*
X015417Y020710D01*
X015589Y020710D01*
X015710Y020589D01*
X015710Y020417D01*
X015589Y020296D01*
X015417Y020296D01*
X015296Y020417D01*
X015374Y020449D01*
X015374Y020557D01*
X015449Y020632D01*
X015557Y020632D01*
X015632Y020557D01*
X015632Y020449D01*
X015557Y020374D01*
X015449Y020374D01*
X015374Y020449D01*
X015452Y020482D01*
X015452Y020524D01*
X015482Y020554D01*
X015524Y020554D01*
X015554Y020524D01*
X015554Y020482D01*
X015524Y020452D01*
X015482Y020452D01*
X015452Y020482D01*
X039348Y020469D02*
X039296Y020417D01*
X039296Y020589D01*
X039417Y020710D01*
X039589Y020710D01*
X039710Y020589D01*
X039710Y020417D01*
X039589Y020296D01*
X039417Y020296D01*
X039296Y020417D01*
X039374Y020449D01*
X039374Y020557D01*
X039449Y020632D01*
X039557Y020632D01*
X039632Y020557D01*
X039632Y020449D01*
X039557Y020374D01*
X039449Y020374D01*
X039374Y020449D01*
X039452Y020482D01*
X039452Y020524D01*
X039482Y020554D01*
X039524Y020554D01*
X039554Y020524D01*
X039554Y020482D01*
X039524Y020452D01*
X039482Y020452D01*
X039452Y020482D01*
X040055Y021176D02*
X040003Y021124D01*
X040003Y021296D01*
X040124Y021417D01*
X040296Y021417D01*
X040417Y021296D01*
X040417Y021124D01*
X040296Y021003D01*
X040124Y021003D01*
X040003Y021124D01*
X040081Y021156D01*
X040081Y021264D01*
X040156Y021339D01*
X040264Y021339D01*
X040339Y021264D01*
X040339Y021156D01*
X040264Y021081D01*
X040156Y021081D01*
X040081Y021156D01*
X040159Y021189D01*
X040159Y021231D01*
X040189Y021261D01*
X040231Y021261D01*
X040261Y021231D01*
X040261Y021189D01*
X040231Y021159D01*
X040189Y021159D01*
X040159Y021189D01*
X042348Y020469D02*
X042296Y020417D01*
X042296Y020589D01*
X042417Y020710D01*
X042589Y020710D01*
X042710Y020589D01*
X042710Y020417D01*
X042589Y020296D01*
X042417Y020296D01*
X042296Y020417D01*
X042374Y020449D01*
X042374Y020557D01*
X042449Y020632D01*
X042557Y020632D01*
X042632Y020557D01*
X042632Y020449D01*
X042557Y020374D01*
X042449Y020374D01*
X042374Y020449D01*
X042452Y020482D01*
X042452Y020524D01*
X042482Y020554D01*
X042524Y020554D01*
X042554Y020524D01*
X042554Y020482D01*
X042524Y020452D01*
X042482Y020452D01*
X042452Y020482D01*
X043055Y021176D02*
X043003Y021124D01*
X043003Y021296D01*
X043124Y021417D01*
X043296Y021417D01*
X043417Y021296D01*
X043417Y021124D01*
X043296Y021003D01*
X043124Y021003D01*
X043003Y021124D01*
X043081Y021156D01*
X043081Y021264D01*
X043156Y021339D01*
X043264Y021339D01*
X043339Y021264D01*
X043339Y021156D01*
X043264Y021081D01*
X043156Y021081D01*
X043081Y021156D01*
X043159Y021189D01*
X043159Y021231D01*
X043189Y021261D01*
X043231Y021261D01*
X043261Y021231D01*
X043261Y021189D01*
X043231Y021159D01*
X043189Y021159D01*
X043159Y021189D01*
X045348Y020469D02*
X045296Y020417D01*
X045296Y020589D01*
X045417Y020710D01*
X045589Y020710D01*
X045710Y020589D01*
X045710Y020417D01*
X045589Y020296D01*
X045417Y020296D01*
X045296Y020417D01*
X045374Y020449D01*
X045374Y020557D01*
X045449Y020632D01*
X045557Y020632D01*
X045632Y020557D01*
X045632Y020449D01*
X045557Y020374D01*
X045449Y020374D01*
X045374Y020449D01*
X045452Y020482D01*
X045452Y020524D01*
X045482Y020554D01*
X045524Y020554D01*
X045554Y020524D01*
X045554Y020482D01*
X045524Y020452D01*
X045482Y020452D01*
X045452Y020482D01*
X046055Y021176D02*
X046003Y021124D01*
X046003Y021296D01*
X046124Y021417D01*
X046296Y021417D01*
X046417Y021296D01*
X046417Y021124D01*
X046296Y021003D01*
X046124Y021003D01*
X046003Y021124D01*
X046081Y021156D01*
X046081Y021264D01*
X046156Y021339D01*
X046264Y021339D01*
X046339Y021264D01*
X046339Y021156D01*
X046264Y021081D01*
X046156Y021081D01*
X046081Y021156D01*
X046159Y021189D01*
X046159Y021231D01*
X046189Y021261D01*
X046231Y021261D01*
X046261Y021231D01*
X046261Y021189D01*
X046231Y021159D01*
X046189Y021159D01*
X046159Y021189D01*
D14*
X013117Y017357D02*
X012597Y017357D01*
X010117Y017357D02*
X009597Y017357D01*
X010097Y022357D02*
X010617Y022357D01*
X007617Y022357D02*
X007097Y022357D01*
D15*
X007357Y013857D03*
X018357Y013857D03*
X029357Y013857D03*
X040357Y013857D03*
X051357Y013857D03*
X051357Y007857D03*
X040357Y007857D03*
X029357Y007857D03*
X018357Y007857D03*
X007357Y007857D03*
D16*
X011357Y008857D03*
X022357Y008857D03*
X033357Y008857D03*
X044357Y008857D03*
X055357Y008857D03*
D17*
X055357Y010857D03*
X055357Y012857D03*
X044357Y012857D03*
X044357Y010857D03*
X033357Y010857D03*
X033357Y012857D03*
X022357Y012857D03*
X022357Y010857D03*
X011357Y010857D03*
X011357Y012857D03*
D18*
X005687Y002526D02*
X005588Y002107D01*
X022207Y002107D01*
X022207Y002356D01*
X022307Y002356D01*
X022307Y002357D01*
X022207Y002357D01*
X022207Y002447D01*
X012542Y002447D01*
X012171Y002447D01*
X011812Y002543D01*
X011491Y002728D01*
X010491Y003728D01*
X010228Y003991D01*
X010043Y004312D01*
X009947Y004671D01*
X009947Y007972D01*
X009807Y008215D01*
X009693Y008638D01*
X009693Y009076D01*
X009807Y009499D01*
X010002Y009837D01*
X009788Y010207D01*
X009674Y010635D01*
X009674Y011078D01*
X009788Y011506D01*
X010010Y011890D01*
X010323Y012203D01*
X010703Y012423D01*
X010653Y012510D01*
X010614Y012604D01*
X010587Y012704D01*
X010574Y012805D01*
X010574Y012856D01*
X011356Y012856D01*
X011356Y012857D01*
X010574Y012857D01*
X010574Y012908D01*
X010587Y013010D01*
X010614Y013109D01*
X010653Y013204D01*
X010704Y013293D01*
X010767Y013374D01*
X010839Y013447D01*
X010921Y013509D01*
X011010Y013560D01*
X011104Y013600D01*
X011204Y013626D01*
X011305Y013640D01*
X011356Y013640D01*
X011356Y012857D01*
X011357Y012857D01*
X011357Y013640D01*
X011408Y013640D01*
X011510Y013626D01*
X011609Y013600D01*
X011704Y013560D01*
X011793Y013509D01*
X011874Y013447D01*
X011947Y013374D01*
X012009Y013293D01*
X012060Y013204D01*
X012100Y013109D01*
X012126Y013010D01*
X012140Y012908D01*
X012140Y012857D01*
X011357Y012857D01*
X011357Y012856D01*
X012140Y012856D01*
X012140Y012805D01*
X012126Y012704D01*
X012100Y012604D01*
X012060Y012510D01*
X012010Y012423D01*
X012390Y012203D01*
X012453Y012140D01*
X012722Y011985D01*
X012985Y011722D01*
X013985Y010722D01*
X014171Y010401D01*
X014267Y010042D01*
X014267Y009671D01*
X014267Y006441D01*
X014441Y006267D01*
X017193Y006267D01*
X017154Y006289D01*
X016789Y006654D01*
X016531Y007101D01*
X016398Y007599D01*
X016398Y008115D01*
X016531Y008613D01*
X016789Y009059D01*
X017154Y009424D01*
X017601Y009682D01*
X018099Y009815D01*
X018615Y009815D01*
X019113Y009682D01*
X019559Y009424D01*
X019924Y009059D01*
X020182Y008613D01*
X020315Y008115D01*
X020315Y007599D01*
X020182Y007101D01*
X019924Y006654D01*
X019559Y006289D01*
X019520Y006267D01*
X021453Y006267D01*
X021228Y006491D01*
X021043Y006812D01*
X020947Y007171D01*
X020947Y007542D01*
X020947Y007972D01*
X020807Y008215D01*
X020693Y008638D01*
X020693Y009076D01*
X020807Y009499D01*
X021002Y009837D01*
X020788Y010207D01*
X020674Y010635D01*
X020674Y011078D01*
X020788Y011506D01*
X021010Y011890D01*
X021323Y012203D01*
X021703Y012423D01*
X021653Y012510D01*
X021614Y012604D01*
X021587Y012704D01*
X021574Y012805D01*
X021574Y012856D01*
X022356Y012856D01*
X022356Y012857D01*
X021574Y012857D01*
X021574Y012908D01*
X021587Y013010D01*
X021614Y013109D01*
X021653Y013204D01*
X021704Y013293D01*
X021767Y013374D01*
X021839Y013447D01*
X021921Y013509D01*
X022010Y013560D01*
X022104Y013600D01*
X022204Y013626D01*
X022305Y013640D01*
X022356Y013640D01*
X022356Y012857D01*
X022357Y012857D01*
X022357Y013640D01*
X022408Y013640D01*
X022510Y013626D01*
X022609Y013600D01*
X022704Y013560D01*
X022793Y013509D01*
X022874Y013447D01*
X022947Y013374D01*
X023009Y013293D01*
X023060Y013204D01*
X023100Y013109D01*
X023126Y013010D01*
X023140Y012908D01*
X023140Y012857D01*
X022357Y012857D01*
X022357Y012856D01*
X023140Y012856D01*
X023140Y012805D01*
X023126Y012704D01*
X023100Y012604D01*
X023060Y012510D01*
X023010Y012423D01*
X023390Y012203D01*
X023453Y012140D01*
X023722Y011985D01*
X023985Y011722D01*
X024985Y010722D01*
X025171Y010401D01*
X025267Y010042D01*
X025267Y009671D01*
X025267Y007941D01*
X026447Y006761D01*
X026447Y008671D01*
X026447Y009042D01*
X026543Y009401D01*
X026728Y009722D01*
X027228Y010222D01*
X027228Y010222D01*
X027491Y010485D01*
X027812Y010671D01*
X028171Y010767D01*
X031674Y010767D01*
X031674Y011078D01*
X031788Y011506D01*
X032010Y011890D01*
X032323Y012203D01*
X032703Y012423D01*
X032653Y012510D01*
X032614Y012604D01*
X032587Y012704D01*
X032574Y012805D01*
X032574Y012856D01*
X033356Y012856D01*
X033356Y012857D01*
X032574Y012857D01*
X032574Y012908D01*
X032587Y013010D01*
X032614Y013109D01*
X032653Y013204D01*
X032704Y013293D01*
X032767Y013374D01*
X032839Y013447D01*
X032921Y013509D01*
X033010Y013560D01*
X033104Y013600D01*
X033204Y013626D01*
X033305Y013640D01*
X033356Y013640D01*
X033356Y012857D01*
X033357Y012857D01*
X034140Y012857D01*
X034140Y012908D01*
X034126Y013010D01*
X034100Y013109D01*
X034060Y013204D01*
X034009Y013293D01*
X033947Y013374D01*
X033874Y013447D01*
X033793Y013509D01*
X033704Y013560D01*
X033609Y013600D01*
X033510Y013626D01*
X033408Y013640D01*
X033357Y013640D01*
X033357Y012857D01*
X033357Y012856D01*
X034140Y012856D01*
X034140Y012805D01*
X034126Y012704D01*
X034100Y012604D01*
X034060Y012510D01*
X034010Y012423D01*
X034390Y012203D01*
X034453Y012140D01*
X034722Y011985D01*
X034985Y011722D01*
X035985Y010722D01*
X036171Y010401D01*
X036267Y010042D01*
X036267Y009671D01*
X036267Y006767D01*
X038724Y006767D01*
X038531Y007101D01*
X038398Y007599D01*
X038398Y008115D01*
X038531Y008613D01*
X038789Y009059D01*
X039154Y009424D01*
X039601Y009682D01*
X040099Y009815D01*
X040615Y009815D01*
X041113Y009682D01*
X041559Y009424D01*
X041924Y009059D01*
X042182Y008613D01*
X042315Y008115D01*
X042315Y007599D01*
X042182Y007101D01*
X041989Y006767D01*
X042773Y006767D01*
X042947Y006941D01*
X042947Y007972D01*
X042807Y008215D01*
X042693Y008638D01*
X042693Y009076D01*
X042807Y009499D01*
X043002Y009837D01*
X042788Y010207D01*
X042674Y010635D01*
X042674Y011078D01*
X042788Y011506D01*
X043010Y011890D01*
X043323Y012203D01*
X043703Y012423D01*
X043653Y012510D01*
X043614Y012604D01*
X043587Y012704D01*
X043574Y012805D01*
X043574Y012856D01*
X044356Y012856D01*
X044356Y012857D01*
X043574Y012857D01*
X043574Y012908D01*
X043587Y013010D01*
X043614Y013109D01*
X043653Y013204D01*
X043704Y013293D01*
X043767Y013374D01*
X043839Y013447D01*
X043921Y013509D01*
X044010Y013560D01*
X044104Y013600D01*
X044204Y013626D01*
X044305Y013640D01*
X044356Y013640D01*
X044356Y012857D01*
X044357Y012857D01*
X044357Y013640D01*
X044408Y013640D01*
X044510Y013626D01*
X044609Y013600D01*
X044704Y013560D01*
X044793Y013509D01*
X044874Y013447D01*
X044947Y013374D01*
X045009Y013293D01*
X045060Y013204D01*
X045100Y013109D01*
X045126Y013010D01*
X045140Y012908D01*
X045140Y012857D01*
X044357Y012857D01*
X044357Y012856D01*
X045140Y012856D01*
X045140Y012805D01*
X045126Y012704D01*
X045100Y012604D01*
X045060Y012510D01*
X045010Y012423D01*
X045390Y012203D01*
X045453Y012140D01*
X045722Y011985D01*
X045985Y011722D01*
X046985Y010722D01*
X047171Y010401D01*
X047267Y010042D01*
X047267Y009671D01*
X047267Y004767D01*
X049273Y004767D01*
X050561Y006055D01*
X050154Y006289D01*
X049789Y006654D01*
X049531Y007101D01*
X049398Y007599D01*
X049398Y008115D01*
X049531Y008613D01*
X049789Y009059D01*
X050154Y009424D01*
X050601Y009682D01*
X051099Y009815D01*
X051615Y009815D01*
X052113Y009682D01*
X052559Y009424D01*
X052924Y009059D01*
X053159Y008653D01*
X053734Y009228D01*
X053807Y009499D01*
X054002Y009837D01*
X053788Y010207D01*
X053674Y010635D01*
X053674Y011078D01*
X053788Y011506D01*
X054010Y011890D01*
X054323Y012203D01*
X054703Y012423D01*
X054653Y012510D01*
X054614Y012604D01*
X054587Y012704D01*
X054574Y012805D01*
X054574Y012856D01*
X055356Y012856D01*
X055356Y012857D01*
X054574Y012857D01*
X054574Y012908D01*
X054587Y013010D01*
X054614Y013109D01*
X054653Y013204D01*
X054704Y013293D01*
X054767Y013374D01*
X054839Y013447D01*
X054921Y013509D01*
X055010Y013560D01*
X055104Y013600D01*
X055204Y013626D01*
X055305Y013640D01*
X055356Y013640D01*
X055356Y012857D01*
X055357Y012857D01*
X055357Y013640D01*
X055408Y013640D01*
X055510Y013626D01*
X055609Y013600D01*
X055704Y013560D01*
X055793Y013509D01*
X055874Y013447D01*
X055947Y013374D01*
X056009Y013293D01*
X056060Y013204D01*
X056100Y013109D01*
X056126Y013010D01*
X056140Y012908D01*
X056140Y012857D01*
X055357Y012857D01*
X055357Y012856D01*
X056140Y012856D01*
X056140Y012805D01*
X056126Y012704D01*
X056100Y012604D01*
X056060Y012510D01*
X056010Y012423D01*
X056390Y012203D01*
X056453Y012140D01*
X056477Y012127D01*
X056477Y015357D01*
X052627Y015357D01*
X052924Y015059D01*
X053182Y014613D01*
X053315Y014115D01*
X053315Y013599D01*
X053182Y013101D01*
X052924Y012654D01*
X052559Y012289D01*
X052113Y012031D01*
X051615Y011898D01*
X051099Y011898D01*
X050601Y012031D01*
X050154Y012289D01*
X049789Y012654D01*
X049531Y013101D01*
X049398Y013599D01*
X049398Y014115D01*
X049531Y014613D01*
X049789Y015059D01*
X050087Y015357D01*
X041627Y015357D01*
X041924Y015059D01*
X042182Y014613D01*
X042315Y014115D01*
X042315Y013599D01*
X042182Y013101D01*
X041924Y012654D01*
X041559Y012289D01*
X041113Y012031D01*
X040615Y011898D01*
X040099Y011898D01*
X039601Y012031D01*
X039154Y012289D01*
X038789Y012654D01*
X038531Y013101D01*
X038398Y013599D01*
X038398Y014115D01*
X038531Y014613D01*
X038789Y015059D01*
X039087Y015357D01*
X030627Y015357D01*
X030924Y015059D01*
X031182Y014613D01*
X031315Y014115D01*
X031315Y013599D01*
X031182Y013101D01*
X030924Y012654D01*
X030559Y012289D01*
X030113Y012031D01*
X029615Y011898D01*
X029099Y011898D01*
X028601Y012031D01*
X028154Y012289D01*
X027789Y012654D01*
X027531Y013101D01*
X027398Y013599D01*
X027398Y014115D01*
X027531Y014613D01*
X027789Y015059D01*
X027837Y015107D01*
X027602Y015107D01*
X027426Y015107D01*
X027426Y015107D01*
X027371Y015121D01*
X027316Y015107D01*
X027036Y015107D01*
X026688Y015107D01*
X026680Y015109D01*
X026671Y015107D01*
X026324Y015107D01*
X025988Y015197D01*
X025853Y015275D01*
X025718Y015197D01*
X025382Y015107D01*
X025102Y015107D01*
X024755Y015107D01*
X024699Y015121D01*
X024644Y015107D01*
X024297Y015107D01*
X024110Y015107D01*
X023774Y015197D01*
X023497Y015357D01*
X019978Y015357D01*
X019802Y015181D01*
X019924Y015059D01*
X020182Y014613D01*
X020315Y014115D01*
X020315Y013599D01*
X020182Y013101D01*
X019924Y012654D01*
X019559Y012289D01*
X019113Y012031D01*
X018615Y011898D01*
X018099Y011898D01*
X017601Y012031D01*
X017154Y012289D01*
X016789Y012654D01*
X016531Y013101D01*
X016398Y013599D01*
X016398Y014115D01*
X016531Y014613D01*
X016672Y014857D01*
X009041Y014857D01*
X009182Y014613D01*
X009315Y014115D01*
X009315Y013599D01*
X009182Y013101D01*
X008924Y012654D01*
X008559Y012289D01*
X008113Y012031D01*
X007615Y011898D01*
X007099Y011898D01*
X006601Y012031D01*
X006154Y012289D01*
X005789Y012654D01*
X005531Y013101D01*
X005398Y013599D01*
X005398Y014115D01*
X005530Y014607D01*
X005433Y014607D01*
X005433Y014607D01*
X005381Y014621D01*
X005329Y014607D01*
X004864Y014607D01*
X004690Y014607D01*
X004690Y014607D01*
X004638Y014621D01*
X004586Y014607D01*
X004242Y014607D01*
X004216Y014607D01*
X004046Y014607D01*
X004046Y014607D01*
X004046Y014607D01*
X003916Y014641D01*
X003720Y014694D01*
X003395Y014607D01*
X002930Y014607D01*
X002757Y014607D01*
X002757Y014607D01*
X002756Y014607D01*
X002704Y014621D01*
X002652Y014607D01*
X002309Y014607D01*
X002282Y014607D01*
X002112Y014607D01*
X002112Y014607D01*
X002112Y014607D01*
X002107Y014608D01*
X002107Y005587D01*
X002362Y005663D01*
X003022Y005702D01*
X003674Y005587D01*
X004282Y005325D01*
X004812Y004930D01*
X005238Y004423D01*
X005535Y003831D01*
X005687Y003188D01*
X005687Y002526D01*
X005646Y002352D02*
X022207Y002352D01*
X021379Y006341D02*
X019611Y006341D01*
X020031Y006839D02*
X021036Y006839D01*
X020947Y007338D02*
X020245Y007338D01*
X020315Y007836D02*
X020947Y007836D01*
X020774Y008335D02*
X020256Y008335D01*
X020054Y008833D02*
X020693Y008833D01*
X020762Y009332D02*
X019651Y009332D01*
X020998Y009830D02*
X014267Y009830D01*
X014267Y009332D02*
X017062Y009332D01*
X016659Y008833D02*
X014267Y008833D01*
X014267Y008335D02*
X016457Y008335D01*
X016398Y007836D02*
X014267Y007836D01*
X014267Y007338D02*
X016468Y007338D01*
X016682Y006839D02*
X014267Y006839D01*
X014367Y006341D02*
X017103Y006341D01*
X010870Y003349D02*
X005649Y003349D01*
X005687Y002851D02*
X011368Y002851D01*
X010371Y003848D02*
X005526Y003848D01*
X005276Y004346D02*
X010034Y004346D01*
X009947Y004845D02*
X004884Y004845D01*
X004238Y005344D02*
X009947Y005344D01*
X009947Y005842D02*
X002107Y005842D01*
X002107Y006341D02*
X006103Y006341D01*
X006154Y006289D02*
X006601Y006031D01*
X007099Y005898D01*
X007615Y005898D01*
X008113Y006031D01*
X008559Y006289D01*
X008924Y006654D01*
X009182Y007101D01*
X009315Y007599D01*
X009315Y008115D01*
X009182Y008613D01*
X008924Y009059D01*
X008559Y009424D01*
X008113Y009682D01*
X007615Y009815D01*
X007099Y009815D01*
X006601Y009682D01*
X006154Y009424D01*
X005789Y009059D01*
X005531Y008613D01*
X005398Y008115D01*
X005398Y007599D01*
X005531Y007101D01*
X005789Y006654D01*
X006154Y006289D01*
X005682Y006839D02*
X002107Y006839D01*
X002107Y007338D02*
X005468Y007338D01*
X005398Y007836D02*
X002107Y007836D01*
X002107Y008335D02*
X005457Y008335D01*
X005659Y008833D02*
X002107Y008833D01*
X002107Y009332D02*
X006062Y009332D01*
X008651Y009332D02*
X009762Y009332D01*
X009693Y008833D02*
X009054Y008833D01*
X009256Y008335D02*
X009774Y008335D01*
X009947Y007836D02*
X009315Y007836D01*
X009245Y007338D02*
X009947Y007338D01*
X009947Y006839D02*
X009031Y006839D01*
X008611Y006341D02*
X009947Y006341D01*
X009998Y009830D02*
X002107Y009830D01*
X002107Y010329D02*
X009756Y010329D01*
X009674Y010828D02*
X002107Y010828D01*
X002107Y011326D02*
X009740Y011326D01*
X009972Y011825D02*
X002107Y011825D01*
X002107Y012323D02*
X006120Y012323D01*
X005693Y012822D02*
X002107Y012822D01*
X002107Y013320D02*
X005473Y013320D01*
X005398Y013819D02*
X002107Y013819D01*
X002107Y014317D02*
X005452Y014317D01*
X005433Y014607D02*
X005433Y014607D01*
X004690Y014607D02*
X004690Y014607D01*
X007357Y016357D02*
X018857Y016357D01*
X023357Y020857D01*
X036467Y020857D01*
X037747Y022137D01*
X035967Y022137D02*
X022637Y022137D01*
X017857Y017357D01*
X012857Y017357D01*
X009857Y017357D02*
X007357Y017357D01*
X007357Y018357D02*
X008357Y018357D01*
X010857Y020857D01*
X012857Y020857D01*
X013747Y021747D01*
X013747Y022137D01*
X011967Y022137D02*
X011747Y022357D01*
X010357Y022357D01*
X007357Y022357D02*
X007357Y019357D01*
X015503Y020503D02*
X017503Y020503D01*
X018210Y021210D02*
X018210Y023503D01*
X017857Y023857D01*
X016857Y023857D02*
X016857Y021857D01*
X016210Y021210D01*
X015503Y020503D02*
X015503Y023503D01*
X015857Y023857D01*
X019936Y015314D02*
X023570Y015314D01*
X020261Y014317D02*
X027452Y014317D01*
X027398Y013819D02*
X020315Y013819D01*
X020241Y013320D02*
X021725Y013320D01*
X022356Y013320D02*
X022357Y013320D01*
X022988Y013320D02*
X027473Y013320D01*
X027693Y012822D02*
X023140Y012822D01*
X023183Y012323D02*
X028120Y012323D01*
X030593Y012323D02*
X032531Y012323D01*
X032574Y012822D02*
X031021Y012822D01*
X031241Y013320D02*
X032725Y013320D01*
X033356Y013320D02*
X033357Y013320D01*
X033988Y013320D02*
X038473Y013320D01*
X038398Y013819D02*
X031315Y013819D01*
X031261Y014317D02*
X038452Y014317D01*
X038649Y014816D02*
X031065Y014816D01*
X030669Y015314D02*
X039044Y015314D01*
X041669Y015314D02*
X050044Y015314D01*
X049649Y014816D02*
X042065Y014816D01*
X042261Y014317D02*
X049452Y014317D01*
X049398Y013819D02*
X042315Y013819D01*
X042241Y013320D02*
X043725Y013320D01*
X044356Y013320D02*
X044357Y013320D01*
X044988Y013320D02*
X049473Y013320D01*
X049693Y012822D02*
X045140Y012822D01*
X045183Y012323D02*
X050120Y012323D01*
X052593Y012323D02*
X054531Y012323D01*
X054574Y012822D02*
X053021Y012822D01*
X053241Y013320D02*
X054725Y013320D01*
X055356Y013320D02*
X055357Y013320D01*
X055988Y013320D02*
X056477Y013320D01*
X056477Y012822D02*
X056140Y012822D01*
X056183Y012323D02*
X056477Y012323D01*
X053972Y011825D02*
X045883Y011825D01*
X046381Y011326D02*
X053740Y011326D01*
X053674Y010828D02*
X046880Y010828D01*
X047190Y010329D02*
X053756Y010329D01*
X053998Y009830D02*
X047267Y009830D01*
X047267Y009332D02*
X050062Y009332D01*
X049659Y008833D02*
X047267Y008833D01*
X047267Y008335D02*
X049457Y008335D01*
X049398Y007836D02*
X047267Y007836D01*
X047267Y007338D02*
X049468Y007338D01*
X049682Y006839D02*
X047267Y006839D01*
X047267Y006341D02*
X050103Y006341D01*
X050348Y005842D02*
X047267Y005842D01*
X047267Y005344D02*
X049850Y005344D01*
X049351Y004845D02*
X047267Y004845D01*
X042845Y006839D02*
X042031Y006839D01*
X042245Y007338D02*
X042947Y007338D01*
X042947Y007836D02*
X042315Y007836D01*
X042256Y008335D02*
X042774Y008335D01*
X042693Y008833D02*
X042054Y008833D01*
X041651Y009332D02*
X042762Y009332D01*
X042998Y009830D02*
X036267Y009830D01*
X036267Y009332D02*
X039062Y009332D01*
X038659Y008833D02*
X036267Y008833D01*
X036267Y008335D02*
X038457Y008335D01*
X038398Y007836D02*
X036267Y007836D01*
X036267Y007338D02*
X038468Y007338D01*
X038682Y006839D02*
X036267Y006839D01*
X036190Y010329D02*
X042756Y010329D01*
X042674Y010828D02*
X035880Y010828D01*
X035381Y011326D02*
X042740Y011326D01*
X042972Y011825D02*
X034883Y011825D01*
X034183Y012323D02*
X039120Y012323D01*
X038693Y012822D02*
X034140Y012822D01*
X031972Y011825D02*
X023883Y011825D01*
X024381Y011326D02*
X031740Y011326D01*
X031674Y010828D02*
X024880Y010828D01*
X025190Y010329D02*
X027335Y010329D01*
X026836Y009830D02*
X025267Y009830D01*
X025267Y009332D02*
X026524Y009332D01*
X026447Y008833D02*
X025267Y008833D01*
X025267Y008335D02*
X026447Y008335D01*
X026447Y007836D02*
X025371Y007836D01*
X025870Y007338D02*
X026447Y007338D01*
X026447Y006839D02*
X026368Y006839D01*
X020756Y010329D02*
X014190Y010329D01*
X013880Y010828D02*
X020674Y010828D01*
X020740Y011326D02*
X013381Y011326D01*
X012883Y011825D02*
X020972Y011825D01*
X021531Y012323D02*
X019593Y012323D01*
X020021Y012822D02*
X021574Y012822D01*
X017120Y012323D02*
X012183Y012323D01*
X012140Y012822D02*
X016693Y012822D01*
X016473Y013320D02*
X011988Y013320D01*
X011357Y013320D02*
X011356Y013320D01*
X010725Y013320D02*
X009241Y013320D01*
X009315Y013819D02*
X016398Y013819D01*
X016452Y014317D02*
X009261Y014317D01*
X009065Y014816D02*
X016649Y014816D01*
X020065Y014816D02*
X027649Y014816D01*
X027426Y015107D02*
X027426Y015107D01*
X039503Y020503D02*
X039503Y023503D01*
X039857Y023857D01*
X040857Y023857D02*
X040857Y021857D01*
X040210Y021210D01*
X039503Y020503D02*
X042503Y020503D01*
X045503Y020503D01*
X045503Y021210D02*
X042857Y023857D01*
X041857Y023857D02*
X041857Y022357D01*
X043003Y021210D01*
X043210Y021210D01*
X045503Y021210D02*
X046210Y021210D01*
X052669Y015314D02*
X056477Y015314D01*
X056477Y014816D02*
X053065Y014816D01*
X053261Y014317D02*
X056477Y014317D01*
X056477Y013819D02*
X053315Y013819D01*
X043574Y012822D02*
X042021Y012822D01*
X041593Y012323D02*
X043531Y012323D01*
X052651Y009332D02*
X053762Y009332D01*
X053339Y008833D02*
X053054Y008833D01*
X010574Y012822D02*
X009021Y012822D01*
X008593Y012323D02*
X010531Y012323D01*
D19*
X010857Y002357D02*
X022857Y002357D01*
D20*
X023857Y002357D02*
X023857Y002857D01*
X022857Y003857D01*
X012357Y003857D01*
X011357Y004857D01*
X011357Y008857D01*
X012857Y009857D02*
X011857Y010857D01*
X011357Y010857D01*
X012857Y009857D02*
X012857Y005857D01*
X013857Y004857D01*
X023357Y004857D01*
X024857Y003357D01*
X024857Y002357D01*
X025857Y002357D02*
X025857Y003857D01*
X022357Y007357D01*
X022357Y008857D01*
X023857Y009857D02*
X022857Y010857D01*
X022357Y010857D01*
X023857Y009857D02*
X023857Y007357D01*
X026857Y004357D01*
X026857Y002357D01*
X027857Y002357D02*
X027857Y008857D01*
X028357Y009357D01*
X032857Y009357D01*
X033357Y008857D01*
X034857Y009857D02*
X033857Y010857D01*
X033357Y010857D01*
X034857Y009857D02*
X034857Y006857D01*
X034357Y006357D01*
X030857Y006357D01*
X028857Y004357D01*
X028857Y002357D01*
X029857Y002357D02*
X029857Y003857D01*
X031357Y005357D01*
X043357Y005357D01*
X044357Y006357D01*
X044357Y008857D01*
X045857Y009857D02*
X044857Y010857D01*
X044357Y010857D01*
X045857Y009857D02*
X045857Y004857D01*
X045357Y004357D01*
X031857Y004357D01*
X030857Y003357D01*
X030857Y002357D01*
X031857Y002357D02*
X031857Y002857D01*
X032357Y003357D01*
X049857Y003357D01*
X055357Y008857D01*
X056857Y009857D02*
X055857Y010857D01*
X055357Y010857D01*
X056857Y009857D02*
X056857Y006857D01*
X052357Y002357D01*
X032857Y002357D01*
M02*
