%
M48
M72
T01C0.0320
T02C0.0400
T03C0.0472
T04C0.0827
T05C0.1181
%
T01
X9857Y17357
X12857Y17357
X15503Y20503
X16210Y21210
X17503Y20503
X18210Y21210
X10357Y22357
X7357Y22357
X39503Y20503
X40210Y21210
X42503Y20503
X43210Y21210
X45503Y20503
X46210Y21210
T02
X42857Y23857
X41857Y23857
X40857Y23857
X39857Y23857
X37747Y22137
X35967Y22137
X35967Y19577
X37747Y19577
X17857Y23857
X16857Y23857
X15857Y23857
X13747Y22137
X11967Y22137
X11967Y19577
X13747Y19577
X7357Y19357
X7357Y18357
X7357Y17357
X7357Y16357
X22857Y2357
X23857Y2357
X24857Y2357
X25857Y2357
X26857Y2357
X27857Y2357
X28857Y2357
X29857Y2357
X30857Y2357
X31857Y2357
X32857Y2357
T03
X33357Y8857
X33357Y10857
X33357Y12857
X22357Y12857
X22357Y10857
X22357Y8857
X11357Y8857
X11357Y10857
X11357Y12857
X44357Y12857
X44357Y10857
X44357Y8857
X55357Y8857
X55357Y10857
X55357Y12857
T04
X51357Y13857
X40357Y13857
X29357Y13857
X18357Y13857
X7357Y13857
X7357Y7857
X18357Y7857
X29357Y7857
X40357Y7857
X51357Y7857
T05
X2857Y2857
X2857Y23857
X55857Y23857
X55857Y2857
M30
