G75*
G70*
%OFA0B0*%
%FSLAX24Y24*%
%IPPOS*%
%LPD*%
%AMOC8*
5,1,8,0,0,1.08239X$1,22.5*
%
%ADD10C,0.0120*%
%ADD11C,0.0680*%
%ADD12C,0.1261*%
%ADD13C,0.0600*%
%ADD14R,0.0555X0.0555*%
D10*
X003335Y004652D02*
X003395Y004712D01*
X003395Y004514D01*
X003255Y004374D01*
X003057Y004374D01*
X002917Y004514D01*
X002917Y004712D01*
X003057Y004852D01*
X003255Y004852D01*
X003395Y004712D01*
X003305Y004675D01*
X003305Y004551D01*
X003218Y004464D01*
X003094Y004464D01*
X003007Y004551D01*
X003007Y004675D01*
X003094Y004762D01*
X003218Y004762D01*
X003305Y004675D01*
X003215Y004638D01*
X003215Y004588D01*
X003181Y004554D01*
X003131Y004554D01*
X003097Y004588D01*
X003097Y004638D01*
X003131Y004672D01*
X003181Y004672D01*
X003215Y004638D01*
X004042Y005359D02*
X004102Y005419D01*
X004102Y005221D01*
X003962Y005081D01*
X003764Y005081D01*
X003624Y005221D01*
X003624Y005419D01*
X003764Y005559D01*
X003962Y005559D01*
X004102Y005419D01*
X004012Y005382D01*
X004012Y005258D01*
X003925Y005171D01*
X003801Y005171D01*
X003714Y005258D01*
X003714Y005382D01*
X003801Y005469D01*
X003925Y005469D01*
X004012Y005382D01*
X003922Y005345D01*
X003922Y005295D01*
X003888Y005261D01*
X003838Y005261D01*
X003804Y005295D01*
X003804Y005345D01*
X003838Y005379D01*
X003888Y005379D01*
X003922Y005345D01*
X003213Y006523D02*
X003273Y006583D01*
X003273Y006385D01*
X003133Y006245D01*
X002935Y006245D01*
X002795Y006385D01*
X002795Y006583D01*
X002935Y006723D01*
X003133Y006723D01*
X003273Y006583D01*
X003183Y006546D01*
X003183Y006422D01*
X003096Y006335D01*
X002972Y006335D01*
X002885Y006422D01*
X002885Y006546D01*
X002972Y006633D01*
X003096Y006633D01*
X003183Y006546D01*
X003093Y006509D01*
X003093Y006459D01*
X003059Y006425D01*
X003009Y006425D01*
X002975Y006459D01*
X002975Y006509D01*
X003009Y006543D01*
X003059Y006543D01*
X003093Y006509D01*
X003920Y007230D02*
X003980Y007290D01*
X003980Y007092D01*
X003840Y006952D01*
X003642Y006952D01*
X003502Y007092D01*
X003502Y007290D01*
X003642Y007430D01*
X003840Y007430D01*
X003980Y007290D01*
X003890Y007253D01*
X003890Y007129D01*
X003803Y007042D01*
X003679Y007042D01*
X003592Y007129D01*
X003592Y007253D01*
X003679Y007340D01*
X003803Y007340D01*
X003890Y007253D01*
X003800Y007216D01*
X003800Y007166D01*
X003766Y007132D01*
X003716Y007132D01*
X003682Y007166D01*
X003682Y007216D01*
X003716Y007250D01*
X003766Y007250D01*
X003800Y007216D01*
X012688Y007548D02*
X012748Y007608D01*
X012748Y007410D01*
X012608Y007270D01*
X012410Y007270D01*
X012270Y007410D01*
X012270Y007608D01*
X012410Y007748D01*
X012608Y007748D01*
X012748Y007608D01*
X012658Y007571D01*
X012658Y007447D01*
X012571Y007360D01*
X012447Y007360D01*
X012360Y007447D01*
X012360Y007571D01*
X012447Y007658D01*
X012571Y007658D01*
X012658Y007571D01*
X012568Y007534D01*
X012568Y007484D01*
X012534Y007450D01*
X012484Y007450D01*
X012450Y007484D01*
X012450Y007534D01*
X012484Y007568D01*
X012534Y007568D01*
X012568Y007534D01*
X013395Y008255D02*
X013455Y008315D01*
X013455Y008117D01*
X013315Y007977D01*
X013117Y007977D01*
X012977Y008117D01*
X012977Y008315D01*
X013117Y008455D01*
X013315Y008455D01*
X013455Y008315D01*
X013365Y008278D01*
X013365Y008154D01*
X013278Y008067D01*
X013154Y008067D01*
X013067Y008154D01*
X013067Y008278D01*
X013154Y008365D01*
X013278Y008365D01*
X013365Y008278D01*
X013275Y008241D01*
X013275Y008191D01*
X013241Y008157D01*
X013191Y008157D01*
X013157Y008191D01*
X013157Y008241D01*
X013191Y008275D01*
X013241Y008275D01*
X013275Y008241D01*
X015688Y007548D02*
X015748Y007608D01*
X015748Y007410D01*
X015608Y007270D01*
X015410Y007270D01*
X015270Y007410D01*
X015270Y007608D01*
X015410Y007748D01*
X015608Y007748D01*
X015748Y007608D01*
X015658Y007571D01*
X015658Y007447D01*
X015571Y007360D01*
X015447Y007360D01*
X015360Y007447D01*
X015360Y007571D01*
X015447Y007658D01*
X015571Y007658D01*
X015658Y007571D01*
X015568Y007534D01*
X015568Y007484D01*
X015534Y007450D01*
X015484Y007450D01*
X015450Y007484D01*
X015450Y007534D01*
X015484Y007568D01*
X015534Y007568D01*
X015568Y007534D01*
X016395Y008255D02*
X016455Y008315D01*
X016455Y008117D01*
X016315Y007977D01*
X016117Y007977D01*
X015977Y008117D01*
X015977Y008315D01*
X016117Y008455D01*
X016315Y008455D01*
X016455Y008315D01*
X016365Y008278D01*
X016365Y008154D01*
X016278Y008067D01*
X016154Y008067D01*
X016067Y008154D01*
X016067Y008278D01*
X016154Y008365D01*
X016278Y008365D01*
X016365Y008278D01*
X016275Y008241D01*
X016275Y008191D01*
X016241Y008157D01*
X016191Y008157D01*
X016157Y008191D01*
X016157Y008241D01*
X016191Y008275D01*
X016241Y008275D01*
X016275Y008241D01*
X018688Y007548D02*
X018748Y007608D01*
X018748Y007410D01*
X018608Y007270D01*
X018410Y007270D01*
X018270Y007410D01*
X018270Y007608D01*
X018410Y007748D01*
X018608Y007748D01*
X018748Y007608D01*
X018658Y007571D01*
X018658Y007447D01*
X018571Y007360D01*
X018447Y007360D01*
X018360Y007447D01*
X018360Y007571D01*
X018447Y007658D01*
X018571Y007658D01*
X018658Y007571D01*
X018568Y007534D01*
X018568Y007484D01*
X018534Y007450D01*
X018484Y007450D01*
X018450Y007484D01*
X018450Y007534D01*
X018484Y007568D01*
X018534Y007568D01*
X018568Y007534D01*
X019395Y008255D02*
X019455Y008315D01*
X019455Y008117D01*
X019315Y007977D01*
X019117Y007977D01*
X018977Y008117D01*
X018977Y008315D01*
X019117Y008455D01*
X019315Y008455D01*
X019455Y008315D01*
X019365Y008278D01*
X019365Y008154D01*
X019278Y008067D01*
X019154Y008067D01*
X019067Y008154D01*
X019067Y008278D01*
X019154Y008365D01*
X019278Y008365D01*
X019365Y008278D01*
X019275Y008241D01*
X019275Y008191D01*
X019241Y008157D01*
X019191Y008157D01*
X019157Y008191D01*
X019157Y008241D01*
X019191Y008275D01*
X019241Y008275D01*
X019275Y008241D01*
X021688Y007548D02*
X021748Y007608D01*
X021748Y007410D01*
X021608Y007270D01*
X021410Y007270D01*
X021270Y007410D01*
X021270Y007608D01*
X021410Y007748D01*
X021608Y007748D01*
X021748Y007608D01*
X021658Y007571D01*
X021658Y007447D01*
X021571Y007360D01*
X021447Y007360D01*
X021360Y007447D01*
X021360Y007571D01*
X021447Y007658D01*
X021571Y007658D01*
X021658Y007571D01*
X021568Y007534D01*
X021568Y007484D01*
X021534Y007450D01*
X021484Y007450D01*
X021450Y007484D01*
X021450Y007534D01*
X021484Y007568D01*
X021534Y007568D01*
X021568Y007534D01*
X022395Y008255D02*
X022455Y008315D01*
X022455Y008117D01*
X022315Y007977D01*
X022117Y007977D01*
X021977Y008117D01*
X021977Y008315D01*
X022117Y008455D01*
X022315Y008455D01*
X022455Y008315D01*
X022365Y008278D01*
X022365Y008154D01*
X022278Y008067D01*
X022154Y008067D01*
X022067Y008154D01*
X022067Y008278D01*
X022154Y008365D01*
X022278Y008365D01*
X022365Y008278D01*
X022275Y008241D01*
X022275Y008191D01*
X022241Y008157D01*
X022191Y008157D01*
X022157Y008191D01*
X022157Y008241D01*
X022191Y008275D01*
X022241Y008275D01*
X022275Y008241D01*
X024688Y007548D02*
X024748Y007608D01*
X024748Y007410D01*
X024608Y007270D01*
X024410Y007270D01*
X024270Y007410D01*
X024270Y007608D01*
X024410Y007748D01*
X024608Y007748D01*
X024748Y007608D01*
X024658Y007571D01*
X024658Y007447D01*
X024571Y007360D01*
X024447Y007360D01*
X024360Y007447D01*
X024360Y007571D01*
X024447Y007658D01*
X024571Y007658D01*
X024658Y007571D01*
X024568Y007534D01*
X024568Y007484D01*
X024534Y007450D01*
X024484Y007450D01*
X024450Y007484D01*
X024450Y007534D01*
X024484Y007568D01*
X024534Y007568D01*
X024568Y007534D01*
X025395Y008255D02*
X025455Y008315D01*
X025455Y008117D01*
X025315Y007977D01*
X025117Y007977D01*
X024977Y008117D01*
X024977Y008315D01*
X025117Y008455D01*
X025315Y008455D01*
X025455Y008315D01*
X025365Y008278D01*
X025365Y008154D01*
X025278Y008067D01*
X025154Y008067D01*
X025067Y008154D01*
X025067Y008278D01*
X025154Y008365D01*
X025278Y008365D01*
X025365Y008278D01*
X025275Y008241D01*
X025275Y008191D01*
X025241Y008157D01*
X025191Y008157D01*
X025157Y008191D01*
X025157Y008241D01*
X025191Y008275D01*
X025241Y008275D01*
X025275Y008241D01*
X027688Y007548D02*
X027748Y007608D01*
X027748Y007410D01*
X027608Y007270D01*
X027410Y007270D01*
X027270Y007410D01*
X027270Y007608D01*
X027410Y007748D01*
X027608Y007748D01*
X027748Y007608D01*
X027658Y007571D01*
X027658Y007447D01*
X027571Y007360D01*
X027447Y007360D01*
X027360Y007447D01*
X027360Y007571D01*
X027447Y007658D01*
X027571Y007658D01*
X027658Y007571D01*
X027568Y007534D01*
X027568Y007484D01*
X027534Y007450D01*
X027484Y007450D01*
X027450Y007484D01*
X027450Y007534D01*
X027484Y007568D01*
X027534Y007568D01*
X027568Y007534D01*
X028395Y008255D02*
X028455Y008315D01*
X028455Y008117D01*
X028315Y007977D01*
X028117Y007977D01*
X027977Y008117D01*
X027977Y008315D01*
X028117Y008455D01*
X028315Y008455D01*
X028455Y008315D01*
X028365Y008278D01*
X028365Y008154D01*
X028278Y008067D01*
X028154Y008067D01*
X028067Y008154D01*
X028067Y008278D01*
X028154Y008365D01*
X028278Y008365D01*
X028365Y008278D01*
X028275Y008241D01*
X028275Y008191D01*
X028241Y008157D01*
X028191Y008157D01*
X028157Y008191D01*
X028157Y008241D01*
X028191Y008275D01*
X028241Y008275D01*
X028275Y008241D01*
X030688Y007548D02*
X030748Y007608D01*
X030748Y007410D01*
X030608Y007270D01*
X030410Y007270D01*
X030270Y007410D01*
X030270Y007608D01*
X030410Y007748D01*
X030608Y007748D01*
X030748Y007608D01*
X030658Y007571D01*
X030658Y007447D01*
X030571Y007360D01*
X030447Y007360D01*
X030360Y007447D01*
X030360Y007571D01*
X030447Y007658D01*
X030571Y007658D01*
X030658Y007571D01*
X030568Y007534D01*
X030568Y007484D01*
X030534Y007450D01*
X030484Y007450D01*
X030450Y007484D01*
X030450Y007534D01*
X030484Y007568D01*
X030534Y007568D01*
X030568Y007534D01*
X031395Y008255D02*
X031455Y008315D01*
X031455Y008117D01*
X031315Y007977D01*
X031117Y007977D01*
X030977Y008117D01*
X030977Y008315D01*
X031117Y008455D01*
X031315Y008455D01*
X031455Y008315D01*
X031365Y008278D01*
X031365Y008154D01*
X031278Y008067D01*
X031154Y008067D01*
X031067Y008154D01*
X031067Y008278D01*
X031154Y008365D01*
X031278Y008365D01*
X031365Y008278D01*
X031275Y008241D01*
X031275Y008191D01*
X031241Y008157D01*
X031191Y008157D01*
X031157Y008191D01*
X031157Y008241D01*
X031191Y008275D01*
X031241Y008275D01*
X031275Y008241D01*
X033688Y007548D02*
X033748Y007608D01*
X033748Y007410D01*
X033608Y007270D01*
X033410Y007270D01*
X033270Y007410D01*
X033270Y007608D01*
X033410Y007748D01*
X033608Y007748D01*
X033748Y007608D01*
X033658Y007571D01*
X033658Y007447D01*
X033571Y007360D01*
X033447Y007360D01*
X033360Y007447D01*
X033360Y007571D01*
X033447Y007658D01*
X033571Y007658D01*
X033658Y007571D01*
X033568Y007534D01*
X033568Y007484D01*
X033534Y007450D01*
X033484Y007450D01*
X033450Y007484D01*
X033450Y007534D01*
X033484Y007568D01*
X033534Y007568D01*
X033568Y007534D01*
X034395Y008255D02*
X034455Y008315D01*
X034455Y008117D01*
X034315Y007977D01*
X034117Y007977D01*
X033977Y008117D01*
X033977Y008315D01*
X034117Y008455D01*
X034315Y008455D01*
X034455Y008315D01*
X034365Y008278D01*
X034365Y008154D01*
X034278Y008067D01*
X034154Y008067D01*
X034067Y008154D01*
X034067Y008278D01*
X034154Y008365D01*
X034278Y008365D01*
X034365Y008278D01*
X034275Y008241D01*
X034275Y008191D01*
X034241Y008157D01*
X034191Y008157D01*
X034157Y008191D01*
X034157Y008241D01*
X034191Y008275D01*
X034241Y008275D01*
X034275Y008241D01*
X033688Y010548D02*
X033748Y010608D01*
X033748Y010410D01*
X033608Y010270D01*
X033410Y010270D01*
X033270Y010410D01*
X033270Y010608D01*
X033410Y010748D01*
X033608Y010748D01*
X033748Y010608D01*
X033658Y010571D01*
X033658Y010447D01*
X033571Y010360D01*
X033447Y010360D01*
X033360Y010447D01*
X033360Y010571D01*
X033447Y010658D01*
X033571Y010658D01*
X033658Y010571D01*
X033568Y010534D01*
X033568Y010484D01*
X033534Y010450D01*
X033484Y010450D01*
X033450Y010484D01*
X033450Y010534D01*
X033484Y010568D01*
X033534Y010568D01*
X033568Y010534D01*
X034395Y011255D02*
X034455Y011315D01*
X034455Y011117D01*
X034315Y010977D01*
X034117Y010977D01*
X033977Y011117D01*
X033977Y011315D01*
X034117Y011455D01*
X034315Y011455D01*
X034455Y011315D01*
X034365Y011278D01*
X034365Y011154D01*
X034278Y011067D01*
X034154Y011067D01*
X034067Y011154D01*
X034067Y011278D01*
X034154Y011365D01*
X034278Y011365D01*
X034365Y011278D01*
X034275Y011241D01*
X034275Y011191D01*
X034241Y011157D01*
X034191Y011157D01*
X034157Y011191D01*
X034157Y011241D01*
X034191Y011275D01*
X034241Y011275D01*
X034275Y011241D01*
X033688Y013548D02*
X033748Y013608D01*
X033748Y013410D01*
X033608Y013270D01*
X033410Y013270D01*
X033270Y013410D01*
X033270Y013608D01*
X033410Y013748D01*
X033608Y013748D01*
X033748Y013608D01*
X033658Y013571D01*
X033658Y013447D01*
X033571Y013360D01*
X033447Y013360D01*
X033360Y013447D01*
X033360Y013571D01*
X033447Y013658D01*
X033571Y013658D01*
X033658Y013571D01*
X033568Y013534D01*
X033568Y013484D01*
X033534Y013450D01*
X033484Y013450D01*
X033450Y013484D01*
X033450Y013534D01*
X033484Y013568D01*
X033534Y013568D01*
X033568Y013534D01*
X034395Y014255D02*
X034455Y014315D01*
X034455Y014117D01*
X034315Y013977D01*
X034117Y013977D01*
X033977Y014117D01*
X033977Y014315D01*
X034117Y014455D01*
X034315Y014455D01*
X034455Y014315D01*
X034365Y014278D01*
X034365Y014154D01*
X034278Y014067D01*
X034154Y014067D01*
X034067Y014154D01*
X034067Y014278D01*
X034154Y014365D01*
X034278Y014365D01*
X034365Y014278D01*
X034275Y014241D01*
X034275Y014191D01*
X034241Y014157D01*
X034191Y014157D01*
X034157Y014191D01*
X034157Y014241D01*
X034191Y014275D01*
X034241Y014275D01*
X034275Y014241D01*
X033688Y016548D02*
X033748Y016608D01*
X033748Y016410D01*
X033608Y016270D01*
X033410Y016270D01*
X033270Y016410D01*
X033270Y016608D01*
X033410Y016748D01*
X033608Y016748D01*
X033748Y016608D01*
X033658Y016571D01*
X033658Y016447D01*
X033571Y016360D01*
X033447Y016360D01*
X033360Y016447D01*
X033360Y016571D01*
X033447Y016658D01*
X033571Y016658D01*
X033658Y016571D01*
X033568Y016534D01*
X033568Y016484D01*
X033534Y016450D01*
X033484Y016450D01*
X033450Y016484D01*
X033450Y016534D01*
X033484Y016568D01*
X033534Y016568D01*
X033568Y016534D01*
X034395Y017255D02*
X034455Y017315D01*
X034455Y017117D01*
X034315Y016977D01*
X034117Y016977D01*
X033977Y017117D01*
X033977Y017315D01*
X034117Y017455D01*
X034315Y017455D01*
X034455Y017315D01*
X034365Y017278D01*
X034365Y017154D01*
X034278Y017067D01*
X034154Y017067D01*
X034067Y017154D01*
X034067Y017278D01*
X034154Y017365D01*
X034278Y017365D01*
X034365Y017278D01*
X034275Y017241D01*
X034275Y017191D01*
X034241Y017157D01*
X034191Y017157D01*
X034157Y017191D01*
X034157Y017241D01*
X034191Y017275D01*
X034241Y017275D01*
X034275Y017241D01*
X033688Y019548D02*
X033748Y019608D01*
X033748Y019410D01*
X033608Y019270D01*
X033410Y019270D01*
X033270Y019410D01*
X033270Y019608D01*
X033410Y019748D01*
X033608Y019748D01*
X033748Y019608D01*
X033658Y019571D01*
X033658Y019447D01*
X033571Y019360D01*
X033447Y019360D01*
X033360Y019447D01*
X033360Y019571D01*
X033447Y019658D01*
X033571Y019658D01*
X033658Y019571D01*
X033568Y019534D01*
X033568Y019484D01*
X033534Y019450D01*
X033484Y019450D01*
X033450Y019484D01*
X033450Y019534D01*
X033484Y019568D01*
X033534Y019568D01*
X033568Y019534D01*
X034395Y020255D02*
X034455Y020315D01*
X034455Y020117D01*
X034315Y019977D01*
X034117Y019977D01*
X033977Y020117D01*
X033977Y020315D01*
X034117Y020455D01*
X034315Y020455D01*
X034455Y020315D01*
X034365Y020278D01*
X034365Y020154D01*
X034278Y020067D01*
X034154Y020067D01*
X034067Y020154D01*
X034067Y020278D01*
X034154Y020365D01*
X034278Y020365D01*
X034365Y020278D01*
X034275Y020241D01*
X034275Y020191D01*
X034241Y020157D01*
X034191Y020157D01*
X034157Y020191D01*
X034157Y020241D01*
X034191Y020275D01*
X034241Y020275D01*
X034275Y020241D01*
X033688Y022548D02*
X033748Y022608D01*
X033748Y022410D01*
X033608Y022270D01*
X033410Y022270D01*
X033270Y022410D01*
X033270Y022608D01*
X033410Y022748D01*
X033608Y022748D01*
X033748Y022608D01*
X033658Y022571D01*
X033658Y022447D01*
X033571Y022360D01*
X033447Y022360D01*
X033360Y022447D01*
X033360Y022571D01*
X033447Y022658D01*
X033571Y022658D01*
X033658Y022571D01*
X033568Y022534D01*
X033568Y022484D01*
X033534Y022450D01*
X033484Y022450D01*
X033450Y022484D01*
X033450Y022534D01*
X033484Y022568D01*
X033534Y022568D01*
X033568Y022534D01*
X034395Y023255D02*
X034455Y023315D01*
X034455Y023117D01*
X034315Y022977D01*
X034117Y022977D01*
X033977Y023117D01*
X033977Y023315D01*
X034117Y023455D01*
X034315Y023455D01*
X034455Y023315D01*
X034365Y023278D01*
X034365Y023154D01*
X034278Y023067D01*
X034154Y023067D01*
X034067Y023154D01*
X034067Y023278D01*
X034154Y023365D01*
X034278Y023365D01*
X034365Y023278D01*
X034275Y023241D01*
X034275Y023191D01*
X034241Y023157D01*
X034191Y023157D01*
X034157Y023191D01*
X034157Y023241D01*
X034191Y023275D01*
X034241Y023275D01*
X034275Y023241D01*
X033688Y025548D02*
X033748Y025608D01*
X033748Y025410D01*
X033608Y025270D01*
X033410Y025270D01*
X033270Y025410D01*
X033270Y025608D01*
X033410Y025748D01*
X033608Y025748D01*
X033748Y025608D01*
X033658Y025571D01*
X033658Y025447D01*
X033571Y025360D01*
X033447Y025360D01*
X033360Y025447D01*
X033360Y025571D01*
X033447Y025658D01*
X033571Y025658D01*
X033658Y025571D01*
X033568Y025534D01*
X033568Y025484D01*
X033534Y025450D01*
X033484Y025450D01*
X033450Y025484D01*
X033450Y025534D01*
X033484Y025568D01*
X033534Y025568D01*
X033568Y025534D01*
X034395Y026255D02*
X034455Y026315D01*
X034455Y026117D01*
X034315Y025977D01*
X034117Y025977D01*
X033977Y026117D01*
X033977Y026315D01*
X034117Y026455D01*
X034315Y026455D01*
X034455Y026315D01*
X034365Y026278D01*
X034365Y026154D01*
X034278Y026067D01*
X034154Y026067D01*
X034067Y026154D01*
X034067Y026278D01*
X034154Y026365D01*
X034278Y026365D01*
X034365Y026278D01*
X034275Y026241D01*
X034275Y026191D01*
X034241Y026157D01*
X034191Y026157D01*
X034157Y026191D01*
X034157Y026241D01*
X034191Y026275D01*
X034241Y026275D01*
X034275Y026241D01*
X033688Y028548D02*
X033748Y028608D01*
X033748Y028410D01*
X033608Y028270D01*
X033410Y028270D01*
X033270Y028410D01*
X033270Y028608D01*
X033410Y028748D01*
X033608Y028748D01*
X033748Y028608D01*
X033658Y028571D01*
X033658Y028447D01*
X033571Y028360D01*
X033447Y028360D01*
X033360Y028447D01*
X033360Y028571D01*
X033447Y028658D01*
X033571Y028658D01*
X033658Y028571D01*
X033568Y028534D01*
X033568Y028484D01*
X033534Y028450D01*
X033484Y028450D01*
X033450Y028484D01*
X033450Y028534D01*
X033484Y028568D01*
X033534Y028568D01*
X033568Y028534D01*
X034395Y029255D02*
X034455Y029315D01*
X034455Y029117D01*
X034315Y028977D01*
X034117Y028977D01*
X033977Y029117D01*
X033977Y029315D01*
X034117Y029455D01*
X034315Y029455D01*
X034455Y029315D01*
X034365Y029278D01*
X034365Y029154D01*
X034278Y029067D01*
X034154Y029067D01*
X034067Y029154D01*
X034067Y029278D01*
X034154Y029365D01*
X034278Y029365D01*
X034365Y029278D01*
X034275Y029241D01*
X034275Y029191D01*
X034241Y029157D01*
X034191Y029157D01*
X034157Y029191D01*
X034157Y029241D01*
X034191Y029275D01*
X034241Y029275D01*
X034275Y029241D01*
X031395Y029255D02*
X031455Y029315D01*
X031455Y029117D01*
X031315Y028977D01*
X031117Y028977D01*
X030977Y029117D01*
X030977Y029315D01*
X031117Y029455D01*
X031315Y029455D01*
X031455Y029315D01*
X031365Y029278D01*
X031365Y029154D01*
X031278Y029067D01*
X031154Y029067D01*
X031067Y029154D01*
X031067Y029278D01*
X031154Y029365D01*
X031278Y029365D01*
X031365Y029278D01*
X031275Y029241D01*
X031275Y029191D01*
X031241Y029157D01*
X031191Y029157D01*
X031157Y029191D01*
X031157Y029241D01*
X031191Y029275D01*
X031241Y029275D01*
X031275Y029241D01*
X030688Y028548D02*
X030748Y028608D01*
X030748Y028410D01*
X030608Y028270D01*
X030410Y028270D01*
X030270Y028410D01*
X030270Y028608D01*
X030410Y028748D01*
X030608Y028748D01*
X030748Y028608D01*
X030658Y028571D01*
X030658Y028447D01*
X030571Y028360D01*
X030447Y028360D01*
X030360Y028447D01*
X030360Y028571D01*
X030447Y028658D01*
X030571Y028658D01*
X030658Y028571D01*
X030568Y028534D01*
X030568Y028484D01*
X030534Y028450D01*
X030484Y028450D01*
X030450Y028484D01*
X030450Y028534D01*
X030484Y028568D01*
X030534Y028568D01*
X030568Y028534D01*
X031395Y026255D02*
X031455Y026315D01*
X031455Y026117D01*
X031315Y025977D01*
X031117Y025977D01*
X030977Y026117D01*
X030977Y026315D01*
X031117Y026455D01*
X031315Y026455D01*
X031455Y026315D01*
X031365Y026278D01*
X031365Y026154D01*
X031278Y026067D01*
X031154Y026067D01*
X031067Y026154D01*
X031067Y026278D01*
X031154Y026365D01*
X031278Y026365D01*
X031365Y026278D01*
X031275Y026241D01*
X031275Y026191D01*
X031241Y026157D01*
X031191Y026157D01*
X031157Y026191D01*
X031157Y026241D01*
X031191Y026275D01*
X031241Y026275D01*
X031275Y026241D01*
X030688Y025548D02*
X030748Y025608D01*
X030748Y025410D01*
X030608Y025270D01*
X030410Y025270D01*
X030270Y025410D01*
X030270Y025608D01*
X030410Y025748D01*
X030608Y025748D01*
X030748Y025608D01*
X030658Y025571D01*
X030658Y025447D01*
X030571Y025360D01*
X030447Y025360D01*
X030360Y025447D01*
X030360Y025571D01*
X030447Y025658D01*
X030571Y025658D01*
X030658Y025571D01*
X030568Y025534D01*
X030568Y025484D01*
X030534Y025450D01*
X030484Y025450D01*
X030450Y025484D01*
X030450Y025534D01*
X030484Y025568D01*
X030534Y025568D01*
X030568Y025534D01*
X028395Y026255D02*
X028455Y026315D01*
X028455Y026117D01*
X028315Y025977D01*
X028117Y025977D01*
X027977Y026117D01*
X027977Y026315D01*
X028117Y026455D01*
X028315Y026455D01*
X028455Y026315D01*
X028365Y026278D01*
X028365Y026154D01*
X028278Y026067D01*
X028154Y026067D01*
X028067Y026154D01*
X028067Y026278D01*
X028154Y026365D01*
X028278Y026365D01*
X028365Y026278D01*
X028275Y026241D01*
X028275Y026191D01*
X028241Y026157D01*
X028191Y026157D01*
X028157Y026191D01*
X028157Y026241D01*
X028191Y026275D01*
X028241Y026275D01*
X028275Y026241D01*
X027688Y025548D02*
X027748Y025608D01*
X027748Y025410D01*
X027608Y025270D01*
X027410Y025270D01*
X027270Y025410D01*
X027270Y025608D01*
X027410Y025748D01*
X027608Y025748D01*
X027748Y025608D01*
X027658Y025571D01*
X027658Y025447D01*
X027571Y025360D01*
X027447Y025360D01*
X027360Y025447D01*
X027360Y025571D01*
X027447Y025658D01*
X027571Y025658D01*
X027658Y025571D01*
X027568Y025534D01*
X027568Y025484D01*
X027534Y025450D01*
X027484Y025450D01*
X027450Y025484D01*
X027450Y025534D01*
X027484Y025568D01*
X027534Y025568D01*
X027568Y025534D01*
X025395Y026255D02*
X025455Y026315D01*
X025455Y026117D01*
X025315Y025977D01*
X025117Y025977D01*
X024977Y026117D01*
X024977Y026315D01*
X025117Y026455D01*
X025315Y026455D01*
X025455Y026315D01*
X025365Y026278D01*
X025365Y026154D01*
X025278Y026067D01*
X025154Y026067D01*
X025067Y026154D01*
X025067Y026278D01*
X025154Y026365D01*
X025278Y026365D01*
X025365Y026278D01*
X025275Y026241D01*
X025275Y026191D01*
X025241Y026157D01*
X025191Y026157D01*
X025157Y026191D01*
X025157Y026241D01*
X025191Y026275D01*
X025241Y026275D01*
X025275Y026241D01*
X024688Y025548D02*
X024748Y025608D01*
X024748Y025410D01*
X024608Y025270D01*
X024410Y025270D01*
X024270Y025410D01*
X024270Y025608D01*
X024410Y025748D01*
X024608Y025748D01*
X024748Y025608D01*
X024658Y025571D01*
X024658Y025447D01*
X024571Y025360D01*
X024447Y025360D01*
X024360Y025447D01*
X024360Y025571D01*
X024447Y025658D01*
X024571Y025658D01*
X024658Y025571D01*
X024568Y025534D01*
X024568Y025484D01*
X024534Y025450D01*
X024484Y025450D01*
X024450Y025484D01*
X024450Y025534D01*
X024484Y025568D01*
X024534Y025568D01*
X024568Y025534D01*
X022395Y026255D02*
X022455Y026315D01*
X022455Y026117D01*
X022315Y025977D01*
X022117Y025977D01*
X021977Y026117D01*
X021977Y026315D01*
X022117Y026455D01*
X022315Y026455D01*
X022455Y026315D01*
X022365Y026278D01*
X022365Y026154D01*
X022278Y026067D01*
X022154Y026067D01*
X022067Y026154D01*
X022067Y026278D01*
X022154Y026365D01*
X022278Y026365D01*
X022365Y026278D01*
X022275Y026241D01*
X022275Y026191D01*
X022241Y026157D01*
X022191Y026157D01*
X022157Y026191D01*
X022157Y026241D01*
X022191Y026275D01*
X022241Y026275D01*
X022275Y026241D01*
X021688Y025548D02*
X021748Y025608D01*
X021748Y025410D01*
X021608Y025270D01*
X021410Y025270D01*
X021270Y025410D01*
X021270Y025608D01*
X021410Y025748D01*
X021608Y025748D01*
X021748Y025608D01*
X021658Y025571D01*
X021658Y025447D01*
X021571Y025360D01*
X021447Y025360D01*
X021360Y025447D01*
X021360Y025571D01*
X021447Y025658D01*
X021571Y025658D01*
X021658Y025571D01*
X021568Y025534D01*
X021568Y025484D01*
X021534Y025450D01*
X021484Y025450D01*
X021450Y025484D01*
X021450Y025534D01*
X021484Y025568D01*
X021534Y025568D01*
X021568Y025534D01*
X019395Y026255D02*
X019455Y026315D01*
X019455Y026117D01*
X019315Y025977D01*
X019117Y025977D01*
X018977Y026117D01*
X018977Y026315D01*
X019117Y026455D01*
X019315Y026455D01*
X019455Y026315D01*
X019365Y026278D01*
X019365Y026154D01*
X019278Y026067D01*
X019154Y026067D01*
X019067Y026154D01*
X019067Y026278D01*
X019154Y026365D01*
X019278Y026365D01*
X019365Y026278D01*
X019275Y026241D01*
X019275Y026191D01*
X019241Y026157D01*
X019191Y026157D01*
X019157Y026191D01*
X019157Y026241D01*
X019191Y026275D01*
X019241Y026275D01*
X019275Y026241D01*
X018688Y025548D02*
X018748Y025608D01*
X018748Y025410D01*
X018608Y025270D01*
X018410Y025270D01*
X018270Y025410D01*
X018270Y025608D01*
X018410Y025748D01*
X018608Y025748D01*
X018748Y025608D01*
X018658Y025571D01*
X018658Y025447D01*
X018571Y025360D01*
X018447Y025360D01*
X018360Y025447D01*
X018360Y025571D01*
X018447Y025658D01*
X018571Y025658D01*
X018658Y025571D01*
X018568Y025534D01*
X018568Y025484D01*
X018534Y025450D01*
X018484Y025450D01*
X018450Y025484D01*
X018450Y025534D01*
X018484Y025568D01*
X018534Y025568D01*
X018568Y025534D01*
X016395Y026255D02*
X016455Y026315D01*
X016455Y026117D01*
X016315Y025977D01*
X016117Y025977D01*
X015977Y026117D01*
X015977Y026315D01*
X016117Y026455D01*
X016315Y026455D01*
X016455Y026315D01*
X016365Y026278D01*
X016365Y026154D01*
X016278Y026067D01*
X016154Y026067D01*
X016067Y026154D01*
X016067Y026278D01*
X016154Y026365D01*
X016278Y026365D01*
X016365Y026278D01*
X016275Y026241D01*
X016275Y026191D01*
X016241Y026157D01*
X016191Y026157D01*
X016157Y026191D01*
X016157Y026241D01*
X016191Y026275D01*
X016241Y026275D01*
X016275Y026241D01*
X015688Y025548D02*
X015748Y025608D01*
X015748Y025410D01*
X015608Y025270D01*
X015410Y025270D01*
X015270Y025410D01*
X015270Y025608D01*
X015410Y025748D01*
X015608Y025748D01*
X015748Y025608D01*
X015658Y025571D01*
X015658Y025447D01*
X015571Y025360D01*
X015447Y025360D01*
X015360Y025447D01*
X015360Y025571D01*
X015447Y025658D01*
X015571Y025658D01*
X015658Y025571D01*
X015568Y025534D01*
X015568Y025484D01*
X015534Y025450D01*
X015484Y025450D01*
X015450Y025484D01*
X015450Y025534D01*
X015484Y025568D01*
X015534Y025568D01*
X015568Y025534D01*
X013395Y026255D02*
X013455Y026315D01*
X013455Y026117D01*
X013315Y025977D01*
X013117Y025977D01*
X012977Y026117D01*
X012977Y026315D01*
X013117Y026455D01*
X013315Y026455D01*
X013455Y026315D01*
X013365Y026278D01*
X013365Y026154D01*
X013278Y026067D01*
X013154Y026067D01*
X013067Y026154D01*
X013067Y026278D01*
X013154Y026365D01*
X013278Y026365D01*
X013365Y026278D01*
X013275Y026241D01*
X013275Y026191D01*
X013241Y026157D01*
X013191Y026157D01*
X013157Y026191D01*
X013157Y026241D01*
X013191Y026275D01*
X013241Y026275D01*
X013275Y026241D01*
X012688Y025548D02*
X012748Y025608D01*
X012748Y025410D01*
X012608Y025270D01*
X012410Y025270D01*
X012270Y025410D01*
X012270Y025608D01*
X012410Y025748D01*
X012608Y025748D01*
X012748Y025608D01*
X012658Y025571D01*
X012658Y025447D01*
X012571Y025360D01*
X012447Y025360D01*
X012360Y025447D01*
X012360Y025571D01*
X012447Y025658D01*
X012571Y025658D01*
X012658Y025571D01*
X012568Y025534D01*
X012568Y025484D01*
X012534Y025450D01*
X012484Y025450D01*
X012450Y025484D01*
X012450Y025534D01*
X012484Y025568D01*
X012534Y025568D01*
X012568Y025534D01*
X013395Y023255D02*
X013455Y023315D01*
X013455Y023117D01*
X013315Y022977D01*
X013117Y022977D01*
X012977Y023117D01*
X012977Y023315D01*
X013117Y023455D01*
X013315Y023455D01*
X013455Y023315D01*
X013365Y023278D01*
X013365Y023154D01*
X013278Y023067D01*
X013154Y023067D01*
X013067Y023154D01*
X013067Y023278D01*
X013154Y023365D01*
X013278Y023365D01*
X013365Y023278D01*
X013275Y023241D01*
X013275Y023191D01*
X013241Y023157D01*
X013191Y023157D01*
X013157Y023191D01*
X013157Y023241D01*
X013191Y023275D01*
X013241Y023275D01*
X013275Y023241D01*
X012688Y022548D02*
X012748Y022608D01*
X012748Y022410D01*
X012608Y022270D01*
X012410Y022270D01*
X012270Y022410D01*
X012270Y022608D01*
X012410Y022748D01*
X012608Y022748D01*
X012748Y022608D01*
X012658Y022571D01*
X012658Y022447D01*
X012571Y022360D01*
X012447Y022360D01*
X012360Y022447D01*
X012360Y022571D01*
X012447Y022658D01*
X012571Y022658D01*
X012658Y022571D01*
X012568Y022534D01*
X012568Y022484D01*
X012534Y022450D01*
X012484Y022450D01*
X012450Y022484D01*
X012450Y022534D01*
X012484Y022568D01*
X012534Y022568D01*
X012568Y022534D01*
X013395Y020255D02*
X013455Y020315D01*
X013455Y020117D01*
X013315Y019977D01*
X013117Y019977D01*
X012977Y020117D01*
X012977Y020315D01*
X013117Y020455D01*
X013315Y020455D01*
X013455Y020315D01*
X013365Y020278D01*
X013365Y020154D01*
X013278Y020067D01*
X013154Y020067D01*
X013067Y020154D01*
X013067Y020278D01*
X013154Y020365D01*
X013278Y020365D01*
X013365Y020278D01*
X013275Y020241D01*
X013275Y020191D01*
X013241Y020157D01*
X013191Y020157D01*
X013157Y020191D01*
X013157Y020241D01*
X013191Y020275D01*
X013241Y020275D01*
X013275Y020241D01*
X012688Y019548D02*
X012748Y019608D01*
X012748Y019410D01*
X012608Y019270D01*
X012410Y019270D01*
X012270Y019410D01*
X012270Y019608D01*
X012410Y019748D01*
X012608Y019748D01*
X012748Y019608D01*
X012658Y019571D01*
X012658Y019447D01*
X012571Y019360D01*
X012447Y019360D01*
X012360Y019447D01*
X012360Y019571D01*
X012447Y019658D01*
X012571Y019658D01*
X012658Y019571D01*
X012568Y019534D01*
X012568Y019484D01*
X012534Y019450D01*
X012484Y019450D01*
X012450Y019484D01*
X012450Y019534D01*
X012484Y019568D01*
X012534Y019568D01*
X012568Y019534D01*
X013395Y017255D02*
X013455Y017315D01*
X013455Y017117D01*
X013315Y016977D01*
X013117Y016977D01*
X012977Y017117D01*
X012977Y017315D01*
X013117Y017455D01*
X013315Y017455D01*
X013455Y017315D01*
X013365Y017278D01*
X013365Y017154D01*
X013278Y017067D01*
X013154Y017067D01*
X013067Y017154D01*
X013067Y017278D01*
X013154Y017365D01*
X013278Y017365D01*
X013365Y017278D01*
X013275Y017241D01*
X013275Y017191D01*
X013241Y017157D01*
X013191Y017157D01*
X013157Y017191D01*
X013157Y017241D01*
X013191Y017275D01*
X013241Y017275D01*
X013275Y017241D01*
X012688Y016548D02*
X012748Y016608D01*
X012748Y016410D01*
X012608Y016270D01*
X012410Y016270D01*
X012270Y016410D01*
X012270Y016608D01*
X012410Y016748D01*
X012608Y016748D01*
X012748Y016608D01*
X012658Y016571D01*
X012658Y016447D01*
X012571Y016360D01*
X012447Y016360D01*
X012360Y016447D01*
X012360Y016571D01*
X012447Y016658D01*
X012571Y016658D01*
X012658Y016571D01*
X012568Y016534D01*
X012568Y016484D01*
X012534Y016450D01*
X012484Y016450D01*
X012450Y016484D01*
X012450Y016534D01*
X012484Y016568D01*
X012534Y016568D01*
X012568Y016534D01*
X013395Y014255D02*
X013455Y014315D01*
X013455Y014117D01*
X013315Y013977D01*
X013117Y013977D01*
X012977Y014117D01*
X012977Y014315D01*
X013117Y014455D01*
X013315Y014455D01*
X013455Y014315D01*
X013365Y014278D01*
X013365Y014154D01*
X013278Y014067D01*
X013154Y014067D01*
X013067Y014154D01*
X013067Y014278D01*
X013154Y014365D01*
X013278Y014365D01*
X013365Y014278D01*
X013275Y014241D01*
X013275Y014191D01*
X013241Y014157D01*
X013191Y014157D01*
X013157Y014191D01*
X013157Y014241D01*
X013191Y014275D01*
X013241Y014275D01*
X013275Y014241D01*
X012688Y013548D02*
X012748Y013608D01*
X012748Y013410D01*
X012608Y013270D01*
X012410Y013270D01*
X012270Y013410D01*
X012270Y013608D01*
X012410Y013748D01*
X012608Y013748D01*
X012748Y013608D01*
X012658Y013571D01*
X012658Y013447D01*
X012571Y013360D01*
X012447Y013360D01*
X012360Y013447D01*
X012360Y013571D01*
X012447Y013658D01*
X012571Y013658D01*
X012658Y013571D01*
X012568Y013534D01*
X012568Y013484D01*
X012534Y013450D01*
X012484Y013450D01*
X012450Y013484D01*
X012450Y013534D01*
X012484Y013568D01*
X012534Y013568D01*
X012568Y013534D01*
X013395Y011255D02*
X013455Y011315D01*
X013455Y011117D01*
X013315Y010977D01*
X013117Y010977D01*
X012977Y011117D01*
X012977Y011315D01*
X013117Y011455D01*
X013315Y011455D01*
X013455Y011315D01*
X013365Y011278D01*
X013365Y011154D01*
X013278Y011067D01*
X013154Y011067D01*
X013067Y011154D01*
X013067Y011278D01*
X013154Y011365D01*
X013278Y011365D01*
X013365Y011278D01*
X013275Y011241D01*
X013275Y011191D01*
X013241Y011157D01*
X013191Y011157D01*
X013157Y011191D01*
X013157Y011241D01*
X013191Y011275D01*
X013241Y011275D01*
X013275Y011241D01*
X012688Y010548D02*
X012748Y010608D01*
X012748Y010410D01*
X012608Y010270D01*
X012410Y010270D01*
X012270Y010410D01*
X012270Y010608D01*
X012410Y010748D01*
X012608Y010748D01*
X012748Y010608D01*
X012658Y010571D01*
X012658Y010447D01*
X012571Y010360D01*
X012447Y010360D01*
X012360Y010447D01*
X012360Y010571D01*
X012447Y010658D01*
X012571Y010658D01*
X012658Y010571D01*
X012568Y010534D01*
X012568Y010484D01*
X012534Y010450D01*
X012484Y010450D01*
X012450Y010484D01*
X012450Y010534D01*
X012484Y010568D01*
X012534Y010568D01*
X012568Y010534D01*
X015688Y010548D02*
X015748Y010608D01*
X015748Y010410D01*
X015608Y010270D01*
X015410Y010270D01*
X015270Y010410D01*
X015270Y010608D01*
X015410Y010748D01*
X015608Y010748D01*
X015748Y010608D01*
X015658Y010571D01*
X015658Y010447D01*
X015571Y010360D01*
X015447Y010360D01*
X015360Y010447D01*
X015360Y010571D01*
X015447Y010658D01*
X015571Y010658D01*
X015658Y010571D01*
X015568Y010534D01*
X015568Y010484D01*
X015534Y010450D01*
X015484Y010450D01*
X015450Y010484D01*
X015450Y010534D01*
X015484Y010568D01*
X015534Y010568D01*
X015568Y010534D01*
X016395Y011255D02*
X016455Y011315D01*
X016455Y011117D01*
X016315Y010977D01*
X016117Y010977D01*
X015977Y011117D01*
X015977Y011315D01*
X016117Y011455D01*
X016315Y011455D01*
X016455Y011315D01*
X016365Y011278D01*
X016365Y011154D01*
X016278Y011067D01*
X016154Y011067D01*
X016067Y011154D01*
X016067Y011278D01*
X016154Y011365D01*
X016278Y011365D01*
X016365Y011278D01*
X016275Y011241D01*
X016275Y011191D01*
X016241Y011157D01*
X016191Y011157D01*
X016157Y011191D01*
X016157Y011241D01*
X016191Y011275D01*
X016241Y011275D01*
X016275Y011241D01*
X018688Y010548D02*
X018748Y010608D01*
X018748Y010410D01*
X018608Y010270D01*
X018410Y010270D01*
X018270Y010410D01*
X018270Y010608D01*
X018410Y010748D01*
X018608Y010748D01*
X018748Y010608D01*
X018658Y010571D01*
X018658Y010447D01*
X018571Y010360D01*
X018447Y010360D01*
X018360Y010447D01*
X018360Y010571D01*
X018447Y010658D01*
X018571Y010658D01*
X018658Y010571D01*
X018568Y010534D01*
X018568Y010484D01*
X018534Y010450D01*
X018484Y010450D01*
X018450Y010484D01*
X018450Y010534D01*
X018484Y010568D01*
X018534Y010568D01*
X018568Y010534D01*
X019395Y011255D02*
X019455Y011315D01*
X019455Y011117D01*
X019315Y010977D01*
X019117Y010977D01*
X018977Y011117D01*
X018977Y011315D01*
X019117Y011455D01*
X019315Y011455D01*
X019455Y011315D01*
X019365Y011278D01*
X019365Y011154D01*
X019278Y011067D01*
X019154Y011067D01*
X019067Y011154D01*
X019067Y011278D01*
X019154Y011365D01*
X019278Y011365D01*
X019365Y011278D01*
X019275Y011241D01*
X019275Y011191D01*
X019241Y011157D01*
X019191Y011157D01*
X019157Y011191D01*
X019157Y011241D01*
X019191Y011275D01*
X019241Y011275D01*
X019275Y011241D01*
X021688Y010548D02*
X021748Y010608D01*
X021748Y010410D01*
X021608Y010270D01*
X021410Y010270D01*
X021270Y010410D01*
X021270Y010608D01*
X021410Y010748D01*
X021608Y010748D01*
X021748Y010608D01*
X021658Y010571D01*
X021658Y010447D01*
X021571Y010360D01*
X021447Y010360D01*
X021360Y010447D01*
X021360Y010571D01*
X021447Y010658D01*
X021571Y010658D01*
X021658Y010571D01*
X021568Y010534D01*
X021568Y010484D01*
X021534Y010450D01*
X021484Y010450D01*
X021450Y010484D01*
X021450Y010534D01*
X021484Y010568D01*
X021534Y010568D01*
X021568Y010534D01*
X022395Y011255D02*
X022455Y011315D01*
X022455Y011117D01*
X022315Y010977D01*
X022117Y010977D01*
X021977Y011117D01*
X021977Y011315D01*
X022117Y011455D01*
X022315Y011455D01*
X022455Y011315D01*
X022365Y011278D01*
X022365Y011154D01*
X022278Y011067D01*
X022154Y011067D01*
X022067Y011154D01*
X022067Y011278D01*
X022154Y011365D01*
X022278Y011365D01*
X022365Y011278D01*
X022275Y011241D01*
X022275Y011191D01*
X022241Y011157D01*
X022191Y011157D01*
X022157Y011191D01*
X022157Y011241D01*
X022191Y011275D01*
X022241Y011275D01*
X022275Y011241D01*
X024688Y010548D02*
X024748Y010608D01*
X024748Y010410D01*
X024608Y010270D01*
X024410Y010270D01*
X024270Y010410D01*
X024270Y010608D01*
X024410Y010748D01*
X024608Y010748D01*
X024748Y010608D01*
X024658Y010571D01*
X024658Y010447D01*
X024571Y010360D01*
X024447Y010360D01*
X024360Y010447D01*
X024360Y010571D01*
X024447Y010658D01*
X024571Y010658D01*
X024658Y010571D01*
X024568Y010534D01*
X024568Y010484D01*
X024534Y010450D01*
X024484Y010450D01*
X024450Y010484D01*
X024450Y010534D01*
X024484Y010568D01*
X024534Y010568D01*
X024568Y010534D01*
X025395Y011255D02*
X025455Y011315D01*
X025455Y011117D01*
X025315Y010977D01*
X025117Y010977D01*
X024977Y011117D01*
X024977Y011315D01*
X025117Y011455D01*
X025315Y011455D01*
X025455Y011315D01*
X025365Y011278D01*
X025365Y011154D01*
X025278Y011067D01*
X025154Y011067D01*
X025067Y011154D01*
X025067Y011278D01*
X025154Y011365D01*
X025278Y011365D01*
X025365Y011278D01*
X025275Y011241D01*
X025275Y011191D01*
X025241Y011157D01*
X025191Y011157D01*
X025157Y011191D01*
X025157Y011241D01*
X025191Y011275D01*
X025241Y011275D01*
X025275Y011241D01*
X027688Y010548D02*
X027748Y010608D01*
X027748Y010410D01*
X027608Y010270D01*
X027410Y010270D01*
X027270Y010410D01*
X027270Y010608D01*
X027410Y010748D01*
X027608Y010748D01*
X027748Y010608D01*
X027658Y010571D01*
X027658Y010447D01*
X027571Y010360D01*
X027447Y010360D01*
X027360Y010447D01*
X027360Y010571D01*
X027447Y010658D01*
X027571Y010658D01*
X027658Y010571D01*
X027568Y010534D01*
X027568Y010484D01*
X027534Y010450D01*
X027484Y010450D01*
X027450Y010484D01*
X027450Y010534D01*
X027484Y010568D01*
X027534Y010568D01*
X027568Y010534D01*
X028395Y011255D02*
X028455Y011315D01*
X028455Y011117D01*
X028315Y010977D01*
X028117Y010977D01*
X027977Y011117D01*
X027977Y011315D01*
X028117Y011455D01*
X028315Y011455D01*
X028455Y011315D01*
X028365Y011278D01*
X028365Y011154D01*
X028278Y011067D01*
X028154Y011067D01*
X028067Y011154D01*
X028067Y011278D01*
X028154Y011365D01*
X028278Y011365D01*
X028365Y011278D01*
X028275Y011241D01*
X028275Y011191D01*
X028241Y011157D01*
X028191Y011157D01*
X028157Y011191D01*
X028157Y011241D01*
X028191Y011275D01*
X028241Y011275D01*
X028275Y011241D01*
X030688Y010548D02*
X030748Y010608D01*
X030748Y010410D01*
X030608Y010270D01*
X030410Y010270D01*
X030270Y010410D01*
X030270Y010608D01*
X030410Y010748D01*
X030608Y010748D01*
X030748Y010608D01*
X030658Y010571D01*
X030658Y010447D01*
X030571Y010360D01*
X030447Y010360D01*
X030360Y010447D01*
X030360Y010571D01*
X030447Y010658D01*
X030571Y010658D01*
X030658Y010571D01*
X030568Y010534D01*
X030568Y010484D01*
X030534Y010450D01*
X030484Y010450D01*
X030450Y010484D01*
X030450Y010534D01*
X030484Y010568D01*
X030534Y010568D01*
X030568Y010534D01*
X031395Y011255D02*
X031455Y011315D01*
X031455Y011117D01*
X031315Y010977D01*
X031117Y010977D01*
X030977Y011117D01*
X030977Y011315D01*
X031117Y011455D01*
X031315Y011455D01*
X031455Y011315D01*
X031365Y011278D01*
X031365Y011154D01*
X031278Y011067D01*
X031154Y011067D01*
X031067Y011154D01*
X031067Y011278D01*
X031154Y011365D01*
X031278Y011365D01*
X031365Y011278D01*
X031275Y011241D01*
X031275Y011191D01*
X031241Y011157D01*
X031191Y011157D01*
X031157Y011191D01*
X031157Y011241D01*
X031191Y011275D01*
X031241Y011275D01*
X031275Y011241D01*
X030688Y013548D02*
X030748Y013608D01*
X030748Y013410D01*
X030608Y013270D01*
X030410Y013270D01*
X030270Y013410D01*
X030270Y013608D01*
X030410Y013748D01*
X030608Y013748D01*
X030748Y013608D01*
X030658Y013571D01*
X030658Y013447D01*
X030571Y013360D01*
X030447Y013360D01*
X030360Y013447D01*
X030360Y013571D01*
X030447Y013658D01*
X030571Y013658D01*
X030658Y013571D01*
X030568Y013534D01*
X030568Y013484D01*
X030534Y013450D01*
X030484Y013450D01*
X030450Y013484D01*
X030450Y013534D01*
X030484Y013568D01*
X030534Y013568D01*
X030568Y013534D01*
X031395Y014255D02*
X031455Y014315D01*
X031455Y014117D01*
X031315Y013977D01*
X031117Y013977D01*
X030977Y014117D01*
X030977Y014315D01*
X031117Y014455D01*
X031315Y014455D01*
X031455Y014315D01*
X031365Y014278D01*
X031365Y014154D01*
X031278Y014067D01*
X031154Y014067D01*
X031067Y014154D01*
X031067Y014278D01*
X031154Y014365D01*
X031278Y014365D01*
X031365Y014278D01*
X031275Y014241D01*
X031275Y014191D01*
X031241Y014157D01*
X031191Y014157D01*
X031157Y014191D01*
X031157Y014241D01*
X031191Y014275D01*
X031241Y014275D01*
X031275Y014241D01*
X030688Y016548D02*
X030748Y016608D01*
X030748Y016410D01*
X030608Y016270D01*
X030410Y016270D01*
X030270Y016410D01*
X030270Y016608D01*
X030410Y016748D01*
X030608Y016748D01*
X030748Y016608D01*
X030658Y016571D01*
X030658Y016447D01*
X030571Y016360D01*
X030447Y016360D01*
X030360Y016447D01*
X030360Y016571D01*
X030447Y016658D01*
X030571Y016658D01*
X030658Y016571D01*
X030568Y016534D01*
X030568Y016484D01*
X030534Y016450D01*
X030484Y016450D01*
X030450Y016484D01*
X030450Y016534D01*
X030484Y016568D01*
X030534Y016568D01*
X030568Y016534D01*
X031395Y017255D02*
X031455Y017315D01*
X031455Y017117D01*
X031315Y016977D01*
X031117Y016977D01*
X030977Y017117D01*
X030977Y017315D01*
X031117Y017455D01*
X031315Y017455D01*
X031455Y017315D01*
X031365Y017278D01*
X031365Y017154D01*
X031278Y017067D01*
X031154Y017067D01*
X031067Y017154D01*
X031067Y017278D01*
X031154Y017365D01*
X031278Y017365D01*
X031365Y017278D01*
X031275Y017241D01*
X031275Y017191D01*
X031241Y017157D01*
X031191Y017157D01*
X031157Y017191D01*
X031157Y017241D01*
X031191Y017275D01*
X031241Y017275D01*
X031275Y017241D01*
X030688Y019548D02*
X030748Y019608D01*
X030748Y019410D01*
X030608Y019270D01*
X030410Y019270D01*
X030270Y019410D01*
X030270Y019608D01*
X030410Y019748D01*
X030608Y019748D01*
X030748Y019608D01*
X030658Y019571D01*
X030658Y019447D01*
X030571Y019360D01*
X030447Y019360D01*
X030360Y019447D01*
X030360Y019571D01*
X030447Y019658D01*
X030571Y019658D01*
X030658Y019571D01*
X030568Y019534D01*
X030568Y019484D01*
X030534Y019450D01*
X030484Y019450D01*
X030450Y019484D01*
X030450Y019534D01*
X030484Y019568D01*
X030534Y019568D01*
X030568Y019534D01*
X031395Y020255D02*
X031455Y020315D01*
X031455Y020117D01*
X031315Y019977D01*
X031117Y019977D01*
X030977Y020117D01*
X030977Y020315D01*
X031117Y020455D01*
X031315Y020455D01*
X031455Y020315D01*
X031365Y020278D01*
X031365Y020154D01*
X031278Y020067D01*
X031154Y020067D01*
X031067Y020154D01*
X031067Y020278D01*
X031154Y020365D01*
X031278Y020365D01*
X031365Y020278D01*
X031275Y020241D01*
X031275Y020191D01*
X031241Y020157D01*
X031191Y020157D01*
X031157Y020191D01*
X031157Y020241D01*
X031191Y020275D01*
X031241Y020275D01*
X031275Y020241D01*
X030688Y022548D02*
X030748Y022608D01*
X030748Y022410D01*
X030608Y022270D01*
X030410Y022270D01*
X030270Y022410D01*
X030270Y022608D01*
X030410Y022748D01*
X030608Y022748D01*
X030748Y022608D01*
X030658Y022571D01*
X030658Y022447D01*
X030571Y022360D01*
X030447Y022360D01*
X030360Y022447D01*
X030360Y022571D01*
X030447Y022658D01*
X030571Y022658D01*
X030658Y022571D01*
X030568Y022534D01*
X030568Y022484D01*
X030534Y022450D01*
X030484Y022450D01*
X030450Y022484D01*
X030450Y022534D01*
X030484Y022568D01*
X030534Y022568D01*
X030568Y022534D01*
X031395Y023255D02*
X031455Y023315D01*
X031455Y023117D01*
X031315Y022977D01*
X031117Y022977D01*
X030977Y023117D01*
X030977Y023315D01*
X031117Y023455D01*
X031315Y023455D01*
X031455Y023315D01*
X031365Y023278D01*
X031365Y023154D01*
X031278Y023067D01*
X031154Y023067D01*
X031067Y023154D01*
X031067Y023278D01*
X031154Y023365D01*
X031278Y023365D01*
X031365Y023278D01*
X031275Y023241D01*
X031275Y023191D01*
X031241Y023157D01*
X031191Y023157D01*
X031157Y023191D01*
X031157Y023241D01*
X031191Y023275D01*
X031241Y023275D01*
X031275Y023241D01*
X028395Y023255D02*
X028455Y023315D01*
X028455Y023117D01*
X028315Y022977D01*
X028117Y022977D01*
X027977Y023117D01*
X027977Y023315D01*
X028117Y023455D01*
X028315Y023455D01*
X028455Y023315D01*
X028365Y023278D01*
X028365Y023154D01*
X028278Y023067D01*
X028154Y023067D01*
X028067Y023154D01*
X028067Y023278D01*
X028154Y023365D01*
X028278Y023365D01*
X028365Y023278D01*
X028275Y023241D01*
X028275Y023191D01*
X028241Y023157D01*
X028191Y023157D01*
X028157Y023191D01*
X028157Y023241D01*
X028191Y023275D01*
X028241Y023275D01*
X028275Y023241D01*
X027688Y022548D02*
X027748Y022608D01*
X027748Y022410D01*
X027608Y022270D01*
X027410Y022270D01*
X027270Y022410D01*
X027270Y022608D01*
X027410Y022748D01*
X027608Y022748D01*
X027748Y022608D01*
X027658Y022571D01*
X027658Y022447D01*
X027571Y022360D01*
X027447Y022360D01*
X027360Y022447D01*
X027360Y022571D01*
X027447Y022658D01*
X027571Y022658D01*
X027658Y022571D01*
X027568Y022534D01*
X027568Y022484D01*
X027534Y022450D01*
X027484Y022450D01*
X027450Y022484D01*
X027450Y022534D01*
X027484Y022568D01*
X027534Y022568D01*
X027568Y022534D01*
X025395Y023255D02*
X025455Y023315D01*
X025455Y023117D01*
X025315Y022977D01*
X025117Y022977D01*
X024977Y023117D01*
X024977Y023315D01*
X025117Y023455D01*
X025315Y023455D01*
X025455Y023315D01*
X025365Y023278D01*
X025365Y023154D01*
X025278Y023067D01*
X025154Y023067D01*
X025067Y023154D01*
X025067Y023278D01*
X025154Y023365D01*
X025278Y023365D01*
X025365Y023278D01*
X025275Y023241D01*
X025275Y023191D01*
X025241Y023157D01*
X025191Y023157D01*
X025157Y023191D01*
X025157Y023241D01*
X025191Y023275D01*
X025241Y023275D01*
X025275Y023241D01*
X024688Y022548D02*
X024748Y022608D01*
X024748Y022410D01*
X024608Y022270D01*
X024410Y022270D01*
X024270Y022410D01*
X024270Y022608D01*
X024410Y022748D01*
X024608Y022748D01*
X024748Y022608D01*
X024658Y022571D01*
X024658Y022447D01*
X024571Y022360D01*
X024447Y022360D01*
X024360Y022447D01*
X024360Y022571D01*
X024447Y022658D01*
X024571Y022658D01*
X024658Y022571D01*
X024568Y022534D01*
X024568Y022484D01*
X024534Y022450D01*
X024484Y022450D01*
X024450Y022484D01*
X024450Y022534D01*
X024484Y022568D01*
X024534Y022568D01*
X024568Y022534D01*
X022395Y023255D02*
X022455Y023315D01*
X022455Y023117D01*
X022315Y022977D01*
X022117Y022977D01*
X021977Y023117D01*
X021977Y023315D01*
X022117Y023455D01*
X022315Y023455D01*
X022455Y023315D01*
X022365Y023278D01*
X022365Y023154D01*
X022278Y023067D01*
X022154Y023067D01*
X022067Y023154D01*
X022067Y023278D01*
X022154Y023365D01*
X022278Y023365D01*
X022365Y023278D01*
X022275Y023241D01*
X022275Y023191D01*
X022241Y023157D01*
X022191Y023157D01*
X022157Y023191D01*
X022157Y023241D01*
X022191Y023275D01*
X022241Y023275D01*
X022275Y023241D01*
X021688Y022548D02*
X021748Y022608D01*
X021748Y022410D01*
X021608Y022270D01*
X021410Y022270D01*
X021270Y022410D01*
X021270Y022608D01*
X021410Y022748D01*
X021608Y022748D01*
X021748Y022608D01*
X021658Y022571D01*
X021658Y022447D01*
X021571Y022360D01*
X021447Y022360D01*
X021360Y022447D01*
X021360Y022571D01*
X021447Y022658D01*
X021571Y022658D01*
X021658Y022571D01*
X021568Y022534D01*
X021568Y022484D01*
X021534Y022450D01*
X021484Y022450D01*
X021450Y022484D01*
X021450Y022534D01*
X021484Y022568D01*
X021534Y022568D01*
X021568Y022534D01*
X019395Y023255D02*
X019455Y023315D01*
X019455Y023117D01*
X019315Y022977D01*
X019117Y022977D01*
X018977Y023117D01*
X018977Y023315D01*
X019117Y023455D01*
X019315Y023455D01*
X019455Y023315D01*
X019365Y023278D01*
X019365Y023154D01*
X019278Y023067D01*
X019154Y023067D01*
X019067Y023154D01*
X019067Y023278D01*
X019154Y023365D01*
X019278Y023365D01*
X019365Y023278D01*
X019275Y023241D01*
X019275Y023191D01*
X019241Y023157D01*
X019191Y023157D01*
X019157Y023191D01*
X019157Y023241D01*
X019191Y023275D01*
X019241Y023275D01*
X019275Y023241D01*
X018688Y022548D02*
X018748Y022608D01*
X018748Y022410D01*
X018608Y022270D01*
X018410Y022270D01*
X018270Y022410D01*
X018270Y022608D01*
X018410Y022748D01*
X018608Y022748D01*
X018748Y022608D01*
X018658Y022571D01*
X018658Y022447D01*
X018571Y022360D01*
X018447Y022360D01*
X018360Y022447D01*
X018360Y022571D01*
X018447Y022658D01*
X018571Y022658D01*
X018658Y022571D01*
X018568Y022534D01*
X018568Y022484D01*
X018534Y022450D01*
X018484Y022450D01*
X018450Y022484D01*
X018450Y022534D01*
X018484Y022568D01*
X018534Y022568D01*
X018568Y022534D01*
X016395Y023255D02*
X016455Y023315D01*
X016455Y023117D01*
X016315Y022977D01*
X016117Y022977D01*
X015977Y023117D01*
X015977Y023315D01*
X016117Y023455D01*
X016315Y023455D01*
X016455Y023315D01*
X016365Y023278D01*
X016365Y023154D01*
X016278Y023067D01*
X016154Y023067D01*
X016067Y023154D01*
X016067Y023278D01*
X016154Y023365D01*
X016278Y023365D01*
X016365Y023278D01*
X016275Y023241D01*
X016275Y023191D01*
X016241Y023157D01*
X016191Y023157D01*
X016157Y023191D01*
X016157Y023241D01*
X016191Y023275D01*
X016241Y023275D01*
X016275Y023241D01*
X015688Y022548D02*
X015748Y022608D01*
X015748Y022410D01*
X015608Y022270D01*
X015410Y022270D01*
X015270Y022410D01*
X015270Y022608D01*
X015410Y022748D01*
X015608Y022748D01*
X015748Y022608D01*
X015658Y022571D01*
X015658Y022447D01*
X015571Y022360D01*
X015447Y022360D01*
X015360Y022447D01*
X015360Y022571D01*
X015447Y022658D01*
X015571Y022658D01*
X015658Y022571D01*
X015568Y022534D01*
X015568Y022484D01*
X015534Y022450D01*
X015484Y022450D01*
X015450Y022484D01*
X015450Y022534D01*
X015484Y022568D01*
X015534Y022568D01*
X015568Y022534D01*
X016395Y020255D02*
X016455Y020315D01*
X016455Y020117D01*
X016315Y019977D01*
X016117Y019977D01*
X015977Y020117D01*
X015977Y020315D01*
X016117Y020455D01*
X016315Y020455D01*
X016455Y020315D01*
X016365Y020278D01*
X016365Y020154D01*
X016278Y020067D01*
X016154Y020067D01*
X016067Y020154D01*
X016067Y020278D01*
X016154Y020365D01*
X016278Y020365D01*
X016365Y020278D01*
X016275Y020241D01*
X016275Y020191D01*
X016241Y020157D01*
X016191Y020157D01*
X016157Y020191D01*
X016157Y020241D01*
X016191Y020275D01*
X016241Y020275D01*
X016275Y020241D01*
X015688Y019548D02*
X015748Y019608D01*
X015748Y019410D01*
X015608Y019270D01*
X015410Y019270D01*
X015270Y019410D01*
X015270Y019608D01*
X015410Y019748D01*
X015608Y019748D01*
X015748Y019608D01*
X015658Y019571D01*
X015658Y019447D01*
X015571Y019360D01*
X015447Y019360D01*
X015360Y019447D01*
X015360Y019571D01*
X015447Y019658D01*
X015571Y019658D01*
X015658Y019571D01*
X015568Y019534D01*
X015568Y019484D01*
X015534Y019450D01*
X015484Y019450D01*
X015450Y019484D01*
X015450Y019534D01*
X015484Y019568D01*
X015534Y019568D01*
X015568Y019534D01*
X016395Y017255D02*
X016455Y017315D01*
X016455Y017117D01*
X016315Y016977D01*
X016117Y016977D01*
X015977Y017117D01*
X015977Y017315D01*
X016117Y017455D01*
X016315Y017455D01*
X016455Y017315D01*
X016365Y017278D01*
X016365Y017154D01*
X016278Y017067D01*
X016154Y017067D01*
X016067Y017154D01*
X016067Y017278D01*
X016154Y017365D01*
X016278Y017365D01*
X016365Y017278D01*
X016275Y017241D01*
X016275Y017191D01*
X016241Y017157D01*
X016191Y017157D01*
X016157Y017191D01*
X016157Y017241D01*
X016191Y017275D01*
X016241Y017275D01*
X016275Y017241D01*
X015688Y016548D02*
X015748Y016608D01*
X015748Y016410D01*
X015608Y016270D01*
X015410Y016270D01*
X015270Y016410D01*
X015270Y016608D01*
X015410Y016748D01*
X015608Y016748D01*
X015748Y016608D01*
X015658Y016571D01*
X015658Y016447D01*
X015571Y016360D01*
X015447Y016360D01*
X015360Y016447D01*
X015360Y016571D01*
X015447Y016658D01*
X015571Y016658D01*
X015658Y016571D01*
X015568Y016534D01*
X015568Y016484D01*
X015534Y016450D01*
X015484Y016450D01*
X015450Y016484D01*
X015450Y016534D01*
X015484Y016568D01*
X015534Y016568D01*
X015568Y016534D01*
X016395Y014255D02*
X016455Y014315D01*
X016455Y014117D01*
X016315Y013977D01*
X016117Y013977D01*
X015977Y014117D01*
X015977Y014315D01*
X016117Y014455D01*
X016315Y014455D01*
X016455Y014315D01*
X016365Y014278D01*
X016365Y014154D01*
X016278Y014067D01*
X016154Y014067D01*
X016067Y014154D01*
X016067Y014278D01*
X016154Y014365D01*
X016278Y014365D01*
X016365Y014278D01*
X016275Y014241D01*
X016275Y014191D01*
X016241Y014157D01*
X016191Y014157D01*
X016157Y014191D01*
X016157Y014241D01*
X016191Y014275D01*
X016241Y014275D01*
X016275Y014241D01*
X015688Y013548D02*
X015748Y013608D01*
X015748Y013410D01*
X015608Y013270D01*
X015410Y013270D01*
X015270Y013410D01*
X015270Y013608D01*
X015410Y013748D01*
X015608Y013748D01*
X015748Y013608D01*
X015658Y013571D01*
X015658Y013447D01*
X015571Y013360D01*
X015447Y013360D01*
X015360Y013447D01*
X015360Y013571D01*
X015447Y013658D01*
X015571Y013658D01*
X015658Y013571D01*
X015568Y013534D01*
X015568Y013484D01*
X015534Y013450D01*
X015484Y013450D01*
X015450Y013484D01*
X015450Y013534D01*
X015484Y013568D01*
X015534Y013568D01*
X015568Y013534D01*
X018688Y013548D02*
X018748Y013608D01*
X018748Y013410D01*
X018608Y013270D01*
X018410Y013270D01*
X018270Y013410D01*
X018270Y013608D01*
X018410Y013748D01*
X018608Y013748D01*
X018748Y013608D01*
X018658Y013571D01*
X018658Y013447D01*
X018571Y013360D01*
X018447Y013360D01*
X018360Y013447D01*
X018360Y013571D01*
X018447Y013658D01*
X018571Y013658D01*
X018658Y013571D01*
X018568Y013534D01*
X018568Y013484D01*
X018534Y013450D01*
X018484Y013450D01*
X018450Y013484D01*
X018450Y013534D01*
X018484Y013568D01*
X018534Y013568D01*
X018568Y013534D01*
X019395Y014255D02*
X019455Y014315D01*
X019455Y014117D01*
X019315Y013977D01*
X019117Y013977D01*
X018977Y014117D01*
X018977Y014315D01*
X019117Y014455D01*
X019315Y014455D01*
X019455Y014315D01*
X019365Y014278D01*
X019365Y014154D01*
X019278Y014067D01*
X019154Y014067D01*
X019067Y014154D01*
X019067Y014278D01*
X019154Y014365D01*
X019278Y014365D01*
X019365Y014278D01*
X019275Y014241D01*
X019275Y014191D01*
X019241Y014157D01*
X019191Y014157D01*
X019157Y014191D01*
X019157Y014241D01*
X019191Y014275D01*
X019241Y014275D01*
X019275Y014241D01*
X021688Y013548D02*
X021748Y013608D01*
X021748Y013410D01*
X021608Y013270D01*
X021410Y013270D01*
X021270Y013410D01*
X021270Y013608D01*
X021410Y013748D01*
X021608Y013748D01*
X021748Y013608D01*
X021658Y013571D01*
X021658Y013447D01*
X021571Y013360D01*
X021447Y013360D01*
X021360Y013447D01*
X021360Y013571D01*
X021447Y013658D01*
X021571Y013658D01*
X021658Y013571D01*
X021568Y013534D01*
X021568Y013484D01*
X021534Y013450D01*
X021484Y013450D01*
X021450Y013484D01*
X021450Y013534D01*
X021484Y013568D01*
X021534Y013568D01*
X021568Y013534D01*
X022395Y014255D02*
X022455Y014315D01*
X022455Y014117D01*
X022315Y013977D01*
X022117Y013977D01*
X021977Y014117D01*
X021977Y014315D01*
X022117Y014455D01*
X022315Y014455D01*
X022455Y014315D01*
X022365Y014278D01*
X022365Y014154D01*
X022278Y014067D01*
X022154Y014067D01*
X022067Y014154D01*
X022067Y014278D01*
X022154Y014365D01*
X022278Y014365D01*
X022365Y014278D01*
X022275Y014241D01*
X022275Y014191D01*
X022241Y014157D01*
X022191Y014157D01*
X022157Y014191D01*
X022157Y014241D01*
X022191Y014275D01*
X022241Y014275D01*
X022275Y014241D01*
X024688Y013548D02*
X024748Y013608D01*
X024748Y013410D01*
X024608Y013270D01*
X024410Y013270D01*
X024270Y013410D01*
X024270Y013608D01*
X024410Y013748D01*
X024608Y013748D01*
X024748Y013608D01*
X024658Y013571D01*
X024658Y013447D01*
X024571Y013360D01*
X024447Y013360D01*
X024360Y013447D01*
X024360Y013571D01*
X024447Y013658D01*
X024571Y013658D01*
X024658Y013571D01*
X024568Y013534D01*
X024568Y013484D01*
X024534Y013450D01*
X024484Y013450D01*
X024450Y013484D01*
X024450Y013534D01*
X024484Y013568D01*
X024534Y013568D01*
X024568Y013534D01*
X025395Y014255D02*
X025455Y014315D01*
X025455Y014117D01*
X025315Y013977D01*
X025117Y013977D01*
X024977Y014117D01*
X024977Y014315D01*
X025117Y014455D01*
X025315Y014455D01*
X025455Y014315D01*
X025365Y014278D01*
X025365Y014154D01*
X025278Y014067D01*
X025154Y014067D01*
X025067Y014154D01*
X025067Y014278D01*
X025154Y014365D01*
X025278Y014365D01*
X025365Y014278D01*
X025275Y014241D01*
X025275Y014191D01*
X025241Y014157D01*
X025191Y014157D01*
X025157Y014191D01*
X025157Y014241D01*
X025191Y014275D01*
X025241Y014275D01*
X025275Y014241D01*
X027688Y013548D02*
X027748Y013608D01*
X027748Y013410D01*
X027608Y013270D01*
X027410Y013270D01*
X027270Y013410D01*
X027270Y013608D01*
X027410Y013748D01*
X027608Y013748D01*
X027748Y013608D01*
X027658Y013571D01*
X027658Y013447D01*
X027571Y013360D01*
X027447Y013360D01*
X027360Y013447D01*
X027360Y013571D01*
X027447Y013658D01*
X027571Y013658D01*
X027658Y013571D01*
X027568Y013534D01*
X027568Y013484D01*
X027534Y013450D01*
X027484Y013450D01*
X027450Y013484D01*
X027450Y013534D01*
X027484Y013568D01*
X027534Y013568D01*
X027568Y013534D01*
X028395Y014255D02*
X028455Y014315D01*
X028455Y014117D01*
X028315Y013977D01*
X028117Y013977D01*
X027977Y014117D01*
X027977Y014315D01*
X028117Y014455D01*
X028315Y014455D01*
X028455Y014315D01*
X028365Y014278D01*
X028365Y014154D01*
X028278Y014067D01*
X028154Y014067D01*
X028067Y014154D01*
X028067Y014278D01*
X028154Y014365D01*
X028278Y014365D01*
X028365Y014278D01*
X028275Y014241D01*
X028275Y014191D01*
X028241Y014157D01*
X028191Y014157D01*
X028157Y014191D01*
X028157Y014241D01*
X028191Y014275D01*
X028241Y014275D01*
X028275Y014241D01*
X027688Y016548D02*
X027748Y016608D01*
X027748Y016410D01*
X027608Y016270D01*
X027410Y016270D01*
X027270Y016410D01*
X027270Y016608D01*
X027410Y016748D01*
X027608Y016748D01*
X027748Y016608D01*
X027658Y016571D01*
X027658Y016447D01*
X027571Y016360D01*
X027447Y016360D01*
X027360Y016447D01*
X027360Y016571D01*
X027447Y016658D01*
X027571Y016658D01*
X027658Y016571D01*
X027568Y016534D01*
X027568Y016484D01*
X027534Y016450D01*
X027484Y016450D01*
X027450Y016484D01*
X027450Y016534D01*
X027484Y016568D01*
X027534Y016568D01*
X027568Y016534D01*
X028395Y017255D02*
X028455Y017315D01*
X028455Y017117D01*
X028315Y016977D01*
X028117Y016977D01*
X027977Y017117D01*
X027977Y017315D01*
X028117Y017455D01*
X028315Y017455D01*
X028455Y017315D01*
X028365Y017278D01*
X028365Y017154D01*
X028278Y017067D01*
X028154Y017067D01*
X028067Y017154D01*
X028067Y017278D01*
X028154Y017365D01*
X028278Y017365D01*
X028365Y017278D01*
X028275Y017241D01*
X028275Y017191D01*
X028241Y017157D01*
X028191Y017157D01*
X028157Y017191D01*
X028157Y017241D01*
X028191Y017275D01*
X028241Y017275D01*
X028275Y017241D01*
X027688Y019548D02*
X027748Y019608D01*
X027748Y019410D01*
X027608Y019270D01*
X027410Y019270D01*
X027270Y019410D01*
X027270Y019608D01*
X027410Y019748D01*
X027608Y019748D01*
X027748Y019608D01*
X027658Y019571D01*
X027658Y019447D01*
X027571Y019360D01*
X027447Y019360D01*
X027360Y019447D01*
X027360Y019571D01*
X027447Y019658D01*
X027571Y019658D01*
X027658Y019571D01*
X027568Y019534D01*
X027568Y019484D01*
X027534Y019450D01*
X027484Y019450D01*
X027450Y019484D01*
X027450Y019534D01*
X027484Y019568D01*
X027534Y019568D01*
X027568Y019534D01*
X028395Y020255D02*
X028455Y020315D01*
X028455Y020117D01*
X028315Y019977D01*
X028117Y019977D01*
X027977Y020117D01*
X027977Y020315D01*
X028117Y020455D01*
X028315Y020455D01*
X028455Y020315D01*
X028365Y020278D01*
X028365Y020154D01*
X028278Y020067D01*
X028154Y020067D01*
X028067Y020154D01*
X028067Y020278D01*
X028154Y020365D01*
X028278Y020365D01*
X028365Y020278D01*
X028275Y020241D01*
X028275Y020191D01*
X028241Y020157D01*
X028191Y020157D01*
X028157Y020191D01*
X028157Y020241D01*
X028191Y020275D01*
X028241Y020275D01*
X028275Y020241D01*
X025395Y020255D02*
X025455Y020315D01*
X025455Y020117D01*
X025315Y019977D01*
X025117Y019977D01*
X024977Y020117D01*
X024977Y020315D01*
X025117Y020455D01*
X025315Y020455D01*
X025455Y020315D01*
X025365Y020278D01*
X025365Y020154D01*
X025278Y020067D01*
X025154Y020067D01*
X025067Y020154D01*
X025067Y020278D01*
X025154Y020365D01*
X025278Y020365D01*
X025365Y020278D01*
X025275Y020241D01*
X025275Y020191D01*
X025241Y020157D01*
X025191Y020157D01*
X025157Y020191D01*
X025157Y020241D01*
X025191Y020275D01*
X025241Y020275D01*
X025275Y020241D01*
X024688Y019548D02*
X024748Y019608D01*
X024748Y019410D01*
X024608Y019270D01*
X024410Y019270D01*
X024270Y019410D01*
X024270Y019608D01*
X024410Y019748D01*
X024608Y019748D01*
X024748Y019608D01*
X024658Y019571D01*
X024658Y019447D01*
X024571Y019360D01*
X024447Y019360D01*
X024360Y019447D01*
X024360Y019571D01*
X024447Y019658D01*
X024571Y019658D01*
X024658Y019571D01*
X024568Y019534D01*
X024568Y019484D01*
X024534Y019450D01*
X024484Y019450D01*
X024450Y019484D01*
X024450Y019534D01*
X024484Y019568D01*
X024534Y019568D01*
X024568Y019534D01*
X022395Y020255D02*
X022455Y020315D01*
X022455Y020117D01*
X022315Y019977D01*
X022117Y019977D01*
X021977Y020117D01*
X021977Y020315D01*
X022117Y020455D01*
X022315Y020455D01*
X022455Y020315D01*
X022365Y020278D01*
X022365Y020154D01*
X022278Y020067D01*
X022154Y020067D01*
X022067Y020154D01*
X022067Y020278D01*
X022154Y020365D01*
X022278Y020365D01*
X022365Y020278D01*
X022275Y020241D01*
X022275Y020191D01*
X022241Y020157D01*
X022191Y020157D01*
X022157Y020191D01*
X022157Y020241D01*
X022191Y020275D01*
X022241Y020275D01*
X022275Y020241D01*
X021688Y019548D02*
X021748Y019608D01*
X021748Y019410D01*
X021608Y019270D01*
X021410Y019270D01*
X021270Y019410D01*
X021270Y019608D01*
X021410Y019748D01*
X021608Y019748D01*
X021748Y019608D01*
X021658Y019571D01*
X021658Y019447D01*
X021571Y019360D01*
X021447Y019360D01*
X021360Y019447D01*
X021360Y019571D01*
X021447Y019658D01*
X021571Y019658D01*
X021658Y019571D01*
X021568Y019534D01*
X021568Y019484D01*
X021534Y019450D01*
X021484Y019450D01*
X021450Y019484D01*
X021450Y019534D01*
X021484Y019568D01*
X021534Y019568D01*
X021568Y019534D01*
X019395Y020255D02*
X019455Y020315D01*
X019455Y020117D01*
X019315Y019977D01*
X019117Y019977D01*
X018977Y020117D01*
X018977Y020315D01*
X019117Y020455D01*
X019315Y020455D01*
X019455Y020315D01*
X019365Y020278D01*
X019365Y020154D01*
X019278Y020067D01*
X019154Y020067D01*
X019067Y020154D01*
X019067Y020278D01*
X019154Y020365D01*
X019278Y020365D01*
X019365Y020278D01*
X019275Y020241D01*
X019275Y020191D01*
X019241Y020157D01*
X019191Y020157D01*
X019157Y020191D01*
X019157Y020241D01*
X019191Y020275D01*
X019241Y020275D01*
X019275Y020241D01*
X018688Y019548D02*
X018748Y019608D01*
X018748Y019410D01*
X018608Y019270D01*
X018410Y019270D01*
X018270Y019410D01*
X018270Y019608D01*
X018410Y019748D01*
X018608Y019748D01*
X018748Y019608D01*
X018658Y019571D01*
X018658Y019447D01*
X018571Y019360D01*
X018447Y019360D01*
X018360Y019447D01*
X018360Y019571D01*
X018447Y019658D01*
X018571Y019658D01*
X018658Y019571D01*
X018568Y019534D01*
X018568Y019484D01*
X018534Y019450D01*
X018484Y019450D01*
X018450Y019484D01*
X018450Y019534D01*
X018484Y019568D01*
X018534Y019568D01*
X018568Y019534D01*
X019395Y017255D02*
X019455Y017315D01*
X019455Y017117D01*
X019315Y016977D01*
X019117Y016977D01*
X018977Y017117D01*
X018977Y017315D01*
X019117Y017455D01*
X019315Y017455D01*
X019455Y017315D01*
X019365Y017278D01*
X019365Y017154D01*
X019278Y017067D01*
X019154Y017067D01*
X019067Y017154D01*
X019067Y017278D01*
X019154Y017365D01*
X019278Y017365D01*
X019365Y017278D01*
X019275Y017241D01*
X019275Y017191D01*
X019241Y017157D01*
X019191Y017157D01*
X019157Y017191D01*
X019157Y017241D01*
X019191Y017275D01*
X019241Y017275D01*
X019275Y017241D01*
X018688Y016548D02*
X018748Y016608D01*
X018748Y016410D01*
X018608Y016270D01*
X018410Y016270D01*
X018270Y016410D01*
X018270Y016608D01*
X018410Y016748D01*
X018608Y016748D01*
X018748Y016608D01*
X018658Y016571D01*
X018658Y016447D01*
X018571Y016360D01*
X018447Y016360D01*
X018360Y016447D01*
X018360Y016571D01*
X018447Y016658D01*
X018571Y016658D01*
X018658Y016571D01*
X018568Y016534D01*
X018568Y016484D01*
X018534Y016450D01*
X018484Y016450D01*
X018450Y016484D01*
X018450Y016534D01*
X018484Y016568D01*
X018534Y016568D01*
X018568Y016534D01*
X021688Y016548D02*
X021748Y016608D01*
X021748Y016410D01*
X021608Y016270D01*
X021410Y016270D01*
X021270Y016410D01*
X021270Y016608D01*
X021410Y016748D01*
X021608Y016748D01*
X021748Y016608D01*
X021658Y016571D01*
X021658Y016447D01*
X021571Y016360D01*
X021447Y016360D01*
X021360Y016447D01*
X021360Y016571D01*
X021447Y016658D01*
X021571Y016658D01*
X021658Y016571D01*
X021568Y016534D01*
X021568Y016484D01*
X021534Y016450D01*
X021484Y016450D01*
X021450Y016484D01*
X021450Y016534D01*
X021484Y016568D01*
X021534Y016568D01*
X021568Y016534D01*
X022395Y017255D02*
X022455Y017315D01*
X022455Y017117D01*
X022315Y016977D01*
X022117Y016977D01*
X021977Y017117D01*
X021977Y017315D01*
X022117Y017455D01*
X022315Y017455D01*
X022455Y017315D01*
X022365Y017278D01*
X022365Y017154D01*
X022278Y017067D01*
X022154Y017067D01*
X022067Y017154D01*
X022067Y017278D01*
X022154Y017365D01*
X022278Y017365D01*
X022365Y017278D01*
X022275Y017241D01*
X022275Y017191D01*
X022241Y017157D01*
X022191Y017157D01*
X022157Y017191D01*
X022157Y017241D01*
X022191Y017275D01*
X022241Y017275D01*
X022275Y017241D01*
X024688Y016548D02*
X024748Y016608D01*
X024748Y016410D01*
X024608Y016270D01*
X024410Y016270D01*
X024270Y016410D01*
X024270Y016608D01*
X024410Y016748D01*
X024608Y016748D01*
X024748Y016608D01*
X024658Y016571D01*
X024658Y016447D01*
X024571Y016360D01*
X024447Y016360D01*
X024360Y016447D01*
X024360Y016571D01*
X024447Y016658D01*
X024571Y016658D01*
X024658Y016571D01*
X024568Y016534D01*
X024568Y016484D01*
X024534Y016450D01*
X024484Y016450D01*
X024450Y016484D01*
X024450Y016534D01*
X024484Y016568D01*
X024534Y016568D01*
X024568Y016534D01*
X025395Y017255D02*
X025455Y017315D01*
X025455Y017117D01*
X025315Y016977D01*
X025117Y016977D01*
X024977Y017117D01*
X024977Y017315D01*
X025117Y017455D01*
X025315Y017455D01*
X025455Y017315D01*
X025365Y017278D01*
X025365Y017154D01*
X025278Y017067D01*
X025154Y017067D01*
X025067Y017154D01*
X025067Y017278D01*
X025154Y017365D01*
X025278Y017365D01*
X025365Y017278D01*
X025275Y017241D01*
X025275Y017191D01*
X025241Y017157D01*
X025191Y017157D01*
X025157Y017191D01*
X025157Y017241D01*
X025191Y017275D01*
X025241Y017275D01*
X025275Y017241D01*
X024688Y028548D02*
X024748Y028608D01*
X024748Y028410D01*
X024608Y028270D01*
X024410Y028270D01*
X024270Y028410D01*
X024270Y028608D01*
X024410Y028748D01*
X024608Y028748D01*
X024748Y028608D01*
X024658Y028571D01*
X024658Y028447D01*
X024571Y028360D01*
X024447Y028360D01*
X024360Y028447D01*
X024360Y028571D01*
X024447Y028658D01*
X024571Y028658D01*
X024658Y028571D01*
X024568Y028534D01*
X024568Y028484D01*
X024534Y028450D01*
X024484Y028450D01*
X024450Y028484D01*
X024450Y028534D01*
X024484Y028568D01*
X024534Y028568D01*
X024568Y028534D01*
X025395Y029255D02*
X025455Y029315D01*
X025455Y029117D01*
X025315Y028977D01*
X025117Y028977D01*
X024977Y029117D01*
X024977Y029315D01*
X025117Y029455D01*
X025315Y029455D01*
X025455Y029315D01*
X025365Y029278D01*
X025365Y029154D01*
X025278Y029067D01*
X025154Y029067D01*
X025067Y029154D01*
X025067Y029278D01*
X025154Y029365D01*
X025278Y029365D01*
X025365Y029278D01*
X025275Y029241D01*
X025275Y029191D01*
X025241Y029157D01*
X025191Y029157D01*
X025157Y029191D01*
X025157Y029241D01*
X025191Y029275D01*
X025241Y029275D01*
X025275Y029241D01*
X027688Y028548D02*
X027748Y028608D01*
X027748Y028410D01*
X027608Y028270D01*
X027410Y028270D01*
X027270Y028410D01*
X027270Y028608D01*
X027410Y028748D01*
X027608Y028748D01*
X027748Y028608D01*
X027658Y028571D01*
X027658Y028447D01*
X027571Y028360D01*
X027447Y028360D01*
X027360Y028447D01*
X027360Y028571D01*
X027447Y028658D01*
X027571Y028658D01*
X027658Y028571D01*
X027568Y028534D01*
X027568Y028484D01*
X027534Y028450D01*
X027484Y028450D01*
X027450Y028484D01*
X027450Y028534D01*
X027484Y028568D01*
X027534Y028568D01*
X027568Y028534D01*
X028395Y029255D02*
X028455Y029315D01*
X028455Y029117D01*
X028315Y028977D01*
X028117Y028977D01*
X027977Y029117D01*
X027977Y029315D01*
X028117Y029455D01*
X028315Y029455D01*
X028455Y029315D01*
X028365Y029278D01*
X028365Y029154D01*
X028278Y029067D01*
X028154Y029067D01*
X028067Y029154D01*
X028067Y029278D01*
X028154Y029365D01*
X028278Y029365D01*
X028365Y029278D01*
X028275Y029241D01*
X028275Y029191D01*
X028241Y029157D01*
X028191Y029157D01*
X028157Y029191D01*
X028157Y029241D01*
X028191Y029275D01*
X028241Y029275D01*
X028275Y029241D01*
X022395Y029255D02*
X022455Y029315D01*
X022455Y029117D01*
X022315Y028977D01*
X022117Y028977D01*
X021977Y029117D01*
X021977Y029315D01*
X022117Y029455D01*
X022315Y029455D01*
X022455Y029315D01*
X022365Y029278D01*
X022365Y029154D01*
X022278Y029067D01*
X022154Y029067D01*
X022067Y029154D01*
X022067Y029278D01*
X022154Y029365D01*
X022278Y029365D01*
X022365Y029278D01*
X022275Y029241D01*
X022275Y029191D01*
X022241Y029157D01*
X022191Y029157D01*
X022157Y029191D01*
X022157Y029241D01*
X022191Y029275D01*
X022241Y029275D01*
X022275Y029241D01*
X021688Y028548D02*
X021748Y028608D01*
X021748Y028410D01*
X021608Y028270D01*
X021410Y028270D01*
X021270Y028410D01*
X021270Y028608D01*
X021410Y028748D01*
X021608Y028748D01*
X021748Y028608D01*
X021658Y028571D01*
X021658Y028447D01*
X021571Y028360D01*
X021447Y028360D01*
X021360Y028447D01*
X021360Y028571D01*
X021447Y028658D01*
X021571Y028658D01*
X021658Y028571D01*
X021568Y028534D01*
X021568Y028484D01*
X021534Y028450D01*
X021484Y028450D01*
X021450Y028484D01*
X021450Y028534D01*
X021484Y028568D01*
X021534Y028568D01*
X021568Y028534D01*
X019395Y029255D02*
X019455Y029315D01*
X019455Y029117D01*
X019315Y028977D01*
X019117Y028977D01*
X018977Y029117D01*
X018977Y029315D01*
X019117Y029455D01*
X019315Y029455D01*
X019455Y029315D01*
X019365Y029278D01*
X019365Y029154D01*
X019278Y029067D01*
X019154Y029067D01*
X019067Y029154D01*
X019067Y029278D01*
X019154Y029365D01*
X019278Y029365D01*
X019365Y029278D01*
X019275Y029241D01*
X019275Y029191D01*
X019241Y029157D01*
X019191Y029157D01*
X019157Y029191D01*
X019157Y029241D01*
X019191Y029275D01*
X019241Y029275D01*
X019275Y029241D01*
X018688Y028548D02*
X018748Y028608D01*
X018748Y028410D01*
X018608Y028270D01*
X018410Y028270D01*
X018270Y028410D01*
X018270Y028608D01*
X018410Y028748D01*
X018608Y028748D01*
X018748Y028608D01*
X018658Y028571D01*
X018658Y028447D01*
X018571Y028360D01*
X018447Y028360D01*
X018360Y028447D01*
X018360Y028571D01*
X018447Y028658D01*
X018571Y028658D01*
X018658Y028571D01*
X018568Y028534D01*
X018568Y028484D01*
X018534Y028450D01*
X018484Y028450D01*
X018450Y028484D01*
X018450Y028534D01*
X018484Y028568D01*
X018534Y028568D01*
X018568Y028534D01*
X016395Y029255D02*
X016455Y029315D01*
X016455Y029117D01*
X016315Y028977D01*
X016117Y028977D01*
X015977Y029117D01*
X015977Y029315D01*
X016117Y029455D01*
X016315Y029455D01*
X016455Y029315D01*
X016365Y029278D01*
X016365Y029154D01*
X016278Y029067D01*
X016154Y029067D01*
X016067Y029154D01*
X016067Y029278D01*
X016154Y029365D01*
X016278Y029365D01*
X016365Y029278D01*
X016275Y029241D01*
X016275Y029191D01*
X016241Y029157D01*
X016191Y029157D01*
X016157Y029191D01*
X016157Y029241D01*
X016191Y029275D01*
X016241Y029275D01*
X016275Y029241D01*
X015688Y028548D02*
X015748Y028608D01*
X015748Y028410D01*
X015608Y028270D01*
X015410Y028270D01*
X015270Y028410D01*
X015270Y028608D01*
X015410Y028748D01*
X015608Y028748D01*
X015748Y028608D01*
X015658Y028571D01*
X015658Y028447D01*
X015571Y028360D01*
X015447Y028360D01*
X015360Y028447D01*
X015360Y028571D01*
X015447Y028658D01*
X015571Y028658D01*
X015658Y028571D01*
X015568Y028534D01*
X015568Y028484D01*
X015534Y028450D01*
X015484Y028450D01*
X015450Y028484D01*
X015450Y028534D01*
X015484Y028568D01*
X015534Y028568D01*
X015568Y028534D01*
X013395Y029255D02*
X013455Y029315D01*
X013455Y029117D01*
X013315Y028977D01*
X013117Y028977D01*
X012977Y029117D01*
X012977Y029315D01*
X013117Y029455D01*
X013315Y029455D01*
X013455Y029315D01*
X013365Y029278D01*
X013365Y029154D01*
X013278Y029067D01*
X013154Y029067D01*
X013067Y029154D01*
X013067Y029278D01*
X013154Y029365D01*
X013278Y029365D01*
X013365Y029278D01*
X013275Y029241D01*
X013275Y029191D01*
X013241Y029157D01*
X013191Y029157D01*
X013157Y029191D01*
X013157Y029241D01*
X013191Y029275D01*
X013241Y029275D01*
X013275Y029241D01*
X012688Y028548D02*
X012748Y028608D01*
X012748Y028410D01*
X012608Y028270D01*
X012410Y028270D01*
X012270Y028410D01*
X012270Y028608D01*
X012410Y028748D01*
X012608Y028748D01*
X012748Y028608D01*
X012658Y028571D01*
X012658Y028447D01*
X012571Y028360D01*
X012447Y028360D01*
X012360Y028447D01*
X012360Y028571D01*
X012447Y028658D01*
X012571Y028658D01*
X012658Y028571D01*
X012568Y028534D01*
X012568Y028484D01*
X012534Y028450D01*
X012484Y028450D01*
X012450Y028484D01*
X012450Y028534D01*
X012484Y028568D01*
X012534Y028568D01*
X012568Y028534D01*
D11*
X002363Y002163D02*
X002363Y001563D01*
X003363Y001563D02*
X003363Y002163D01*
X004363Y002163D02*
X004363Y001563D01*
X005363Y001563D02*
X005363Y002163D01*
X008283Y006973D02*
X008883Y006973D01*
X008883Y008753D02*
X008283Y008753D01*
X008283Y009973D02*
X008883Y009973D01*
X010843Y009973D02*
X011443Y009973D01*
X011443Y008753D02*
X010843Y008753D01*
X010843Y006973D02*
X011443Y006973D01*
X011973Y006443D02*
X011973Y005843D01*
X013753Y005843D02*
X013753Y006443D01*
X014973Y006443D02*
X014973Y005843D01*
X016753Y005843D02*
X016753Y006443D01*
X017973Y006443D02*
X017973Y005843D01*
X019753Y005843D02*
X019753Y006443D01*
X020973Y006443D02*
X020973Y005843D01*
X022753Y005843D02*
X022753Y006443D01*
X023973Y006443D02*
X023973Y005843D01*
X025753Y005843D02*
X025753Y006443D01*
X026973Y006443D02*
X026973Y005843D01*
X028753Y005843D02*
X028753Y006443D01*
X029973Y006443D02*
X029973Y005843D01*
X031753Y005843D02*
X031753Y006443D01*
X032973Y006443D02*
X032973Y005843D01*
X034753Y005843D02*
X034753Y006443D01*
X034753Y003883D02*
X034753Y003283D01*
X032973Y003283D02*
X032973Y003883D01*
X031753Y003883D02*
X031753Y003283D01*
X029973Y003283D02*
X029973Y003883D01*
X028753Y003883D02*
X028753Y003283D01*
X026973Y003283D02*
X026973Y003883D01*
X025753Y003883D02*
X025753Y003283D01*
X023973Y003283D02*
X023973Y003883D01*
X022753Y003883D02*
X022753Y003283D01*
X020973Y003283D02*
X020973Y003883D01*
X019753Y003883D02*
X019753Y003283D01*
X017973Y003283D02*
X017973Y003883D01*
X016753Y003883D02*
X016753Y003283D01*
X014973Y003283D02*
X014973Y003883D01*
X013753Y003883D02*
X013753Y003283D01*
X011973Y003283D02*
X011973Y003883D01*
X004943Y008473D02*
X004343Y008473D01*
X004343Y010253D02*
X004943Y010253D01*
X002383Y010253D02*
X001783Y010253D01*
X001783Y008473D02*
X002383Y008473D01*
X008283Y011753D02*
X008883Y011753D01*
X008883Y012973D02*
X008283Y012973D01*
X008283Y014753D02*
X008883Y014753D01*
X008883Y015973D02*
X008283Y015973D01*
X008283Y017753D02*
X008883Y017753D01*
X008883Y018973D02*
X008283Y018973D01*
X008283Y020753D02*
X008883Y020753D01*
X008883Y021973D02*
X008283Y021973D01*
X008283Y023753D02*
X008883Y023753D01*
X008883Y024973D02*
X008283Y024973D01*
X008283Y026753D02*
X008883Y026753D01*
X008883Y027973D02*
X008283Y027973D01*
X008283Y029753D02*
X008883Y029753D01*
X010843Y029753D02*
X011443Y029753D01*
X011443Y027973D02*
X010843Y027973D01*
X010843Y026753D02*
X011443Y026753D01*
X011443Y024973D02*
X010843Y024973D01*
X010843Y023753D02*
X011443Y023753D01*
X011443Y021973D02*
X010843Y021973D01*
X010843Y020753D02*
X011443Y020753D01*
X011443Y018973D02*
X010843Y018973D01*
X010843Y017753D02*
X011443Y017753D01*
X011443Y015973D02*
X010843Y015973D01*
X010843Y014753D02*
X011443Y014753D01*
X011443Y012973D02*
X010843Y012973D01*
X010843Y011753D02*
X011443Y011753D01*
X002663Y015863D02*
X002063Y015863D01*
X002063Y016863D02*
X002663Y016863D01*
X002663Y017863D02*
X002063Y017863D01*
X002063Y018863D02*
X002663Y018863D01*
X002663Y019863D02*
X002063Y019863D01*
X002063Y020863D02*
X002663Y020863D01*
X002663Y021863D02*
X002063Y021863D01*
X002063Y022863D02*
X002663Y022863D01*
X002863Y032063D02*
X002863Y032663D01*
X003863Y032663D02*
X003863Y032063D01*
X001863Y032063D02*
X001863Y032663D01*
X019863Y032663D02*
X019863Y032063D01*
X020863Y032063D02*
X020863Y032663D01*
X021863Y032663D02*
X021863Y032063D01*
X022863Y032063D02*
X022863Y032663D01*
X023863Y032663D02*
X023863Y032063D01*
X024863Y032063D02*
X024863Y032663D01*
X025863Y032663D02*
X025863Y032063D01*
X026863Y032063D02*
X026863Y032663D01*
X037063Y021863D02*
X037663Y021863D01*
X037663Y020863D02*
X037063Y020863D01*
X037063Y019863D02*
X037663Y019863D01*
X037663Y018863D02*
X037063Y018863D01*
X037063Y017863D02*
X037663Y017863D01*
X037663Y016863D02*
X037063Y016863D01*
X037063Y015863D02*
X037663Y015863D01*
X037663Y014863D02*
X037063Y014863D01*
D12*
X036863Y004863D03*
X009863Y004863D03*
X009863Y032363D03*
X036863Y032363D03*
D13*
X007107Y028618D02*
X006740Y028986D01*
X004986Y027740D02*
X004618Y028107D01*
X006740Y025986D02*
X007107Y025618D01*
X004986Y024740D02*
X004618Y025107D01*
X006740Y022986D02*
X007107Y022618D01*
X004986Y021740D02*
X004618Y022107D01*
X006740Y019986D02*
X007107Y019618D01*
X004986Y018740D02*
X004618Y019107D01*
X006740Y016986D02*
X007107Y016618D01*
X004986Y015740D02*
X004618Y016107D01*
X006740Y013986D02*
X007107Y013618D01*
X004986Y012740D02*
X004618Y013107D01*
X006740Y010986D02*
X007107Y010618D01*
X006863Y008123D02*
X006863Y007603D01*
X006863Y005123D02*
X006863Y004603D01*
X008603Y002363D02*
X009123Y002363D01*
X011603Y002363D02*
X012123Y002363D01*
X012123Y001363D02*
X011603Y001363D01*
X014603Y001363D02*
X015123Y001363D01*
X015123Y002363D02*
X014603Y002363D01*
X017603Y002363D02*
X018123Y002363D01*
X018123Y001363D02*
X017603Y001363D01*
X020603Y001363D02*
X021123Y001363D01*
X021123Y002363D02*
X020603Y002363D01*
X023603Y002363D02*
X024123Y002363D01*
X024123Y001363D02*
X023603Y001363D01*
X026603Y001363D02*
X027123Y001363D01*
X027123Y002363D02*
X026603Y002363D01*
X029603Y002363D02*
X030123Y002363D01*
X030123Y001363D02*
X029603Y001363D01*
X032603Y001363D02*
X033123Y001363D01*
X001363Y024603D02*
X001363Y025123D01*
X001363Y027603D02*
X001363Y028123D01*
X004618Y031107D02*
X004986Y030740D01*
D14*
X016363Y030363D03*
X017363Y027363D03*
X020363Y024363D03*
X023363Y021363D03*
X026363Y018363D03*
X029363Y015363D03*
X032363Y012363D03*
X035363Y009363D03*
M02*
