G75*
G70*
%OFA0B0*%
%FSLAX24Y24*%
%IPPOS*%
%LPD*%
%AMOC8*
5,1,8,0,0,1.08239X$1,22.5*
%
%ADD10C,0.0120*%
%ADD11C,0.0680*%
%ADD12C,0.1261*%
%ADD13R,0.0476X0.0476*%
D10*
X005434Y005286D02*
X005494Y005346D01*
X005494Y005148D01*
X005354Y005008D01*
X005156Y005008D01*
X005016Y005148D01*
X005016Y005346D01*
X005156Y005486D01*
X005354Y005486D01*
X005494Y005346D01*
X005404Y005309D01*
X005404Y005185D01*
X005317Y005098D01*
X005193Y005098D01*
X005106Y005185D01*
X005106Y005309D01*
X005193Y005396D01*
X005317Y005396D01*
X005404Y005309D01*
X005314Y005272D01*
X005314Y005222D01*
X005280Y005188D01*
X005230Y005188D01*
X005196Y005222D01*
X005196Y005272D01*
X005230Y005306D01*
X005280Y005306D01*
X005314Y005272D01*
X006141Y005993D02*
X006201Y006053D01*
X006201Y005855D01*
X006061Y005715D01*
X005863Y005715D01*
X005723Y005855D01*
X005723Y006053D01*
X005863Y006193D01*
X006061Y006193D01*
X006201Y006053D01*
X006111Y006016D01*
X006111Y005892D01*
X006024Y005805D01*
X005900Y005805D01*
X005813Y005892D01*
X005813Y006016D01*
X005900Y006103D01*
X006024Y006103D01*
X006111Y006016D01*
X006021Y005979D01*
X006021Y005929D01*
X005987Y005895D01*
X005937Y005895D01*
X005903Y005929D01*
X005903Y005979D01*
X005937Y006013D01*
X005987Y006013D01*
X006021Y005979D01*
X008434Y005286D02*
X008494Y005346D01*
X008494Y005148D01*
X008354Y005008D01*
X008156Y005008D01*
X008016Y005148D01*
X008016Y005346D01*
X008156Y005486D01*
X008354Y005486D01*
X008494Y005346D01*
X008404Y005309D01*
X008404Y005185D01*
X008317Y005098D01*
X008193Y005098D01*
X008106Y005185D01*
X008106Y005309D01*
X008193Y005396D01*
X008317Y005396D01*
X008404Y005309D01*
X008314Y005272D01*
X008314Y005222D01*
X008280Y005188D01*
X008230Y005188D01*
X008196Y005222D01*
X008196Y005272D01*
X008230Y005306D01*
X008280Y005306D01*
X008314Y005272D01*
X009141Y005993D02*
X009201Y006053D01*
X009201Y005855D01*
X009061Y005715D01*
X008863Y005715D01*
X008723Y005855D01*
X008723Y006053D01*
X008863Y006193D01*
X009061Y006193D01*
X009201Y006053D01*
X009111Y006016D01*
X009111Y005892D01*
X009024Y005805D01*
X008900Y005805D01*
X008813Y005892D01*
X008813Y006016D01*
X008900Y006103D01*
X009024Y006103D01*
X009111Y006016D01*
X009021Y005979D01*
X009021Y005929D01*
X008987Y005895D01*
X008937Y005895D01*
X008903Y005929D01*
X008903Y005979D01*
X008937Y006013D01*
X008987Y006013D01*
X009021Y005979D01*
X011434Y005286D02*
X011494Y005346D01*
X011494Y005148D01*
X011354Y005008D01*
X011156Y005008D01*
X011016Y005148D01*
X011016Y005346D01*
X011156Y005486D01*
X011354Y005486D01*
X011494Y005346D01*
X011404Y005309D01*
X011404Y005185D01*
X011317Y005098D01*
X011193Y005098D01*
X011106Y005185D01*
X011106Y005309D01*
X011193Y005396D01*
X011317Y005396D01*
X011404Y005309D01*
X011314Y005272D01*
X011314Y005222D01*
X011280Y005188D01*
X011230Y005188D01*
X011196Y005222D01*
X011196Y005272D01*
X011230Y005306D01*
X011280Y005306D01*
X011314Y005272D01*
X012141Y005993D02*
X012201Y006053D01*
X012201Y005855D01*
X012061Y005715D01*
X011863Y005715D01*
X011723Y005855D01*
X011723Y006053D01*
X011863Y006193D01*
X012061Y006193D01*
X012201Y006053D01*
X012111Y006016D01*
X012111Y005892D01*
X012024Y005805D01*
X011900Y005805D01*
X011813Y005892D01*
X011813Y006016D01*
X011900Y006103D01*
X012024Y006103D01*
X012111Y006016D01*
X012021Y005979D01*
X012021Y005929D01*
X011987Y005895D01*
X011937Y005895D01*
X011903Y005929D01*
X011903Y005979D01*
X011937Y006013D01*
X011987Y006013D01*
X012021Y005979D01*
X014434Y005286D02*
X014494Y005346D01*
X014494Y005148D01*
X014354Y005008D01*
X014156Y005008D01*
X014016Y005148D01*
X014016Y005346D01*
X014156Y005486D01*
X014354Y005486D01*
X014494Y005346D01*
X014404Y005309D01*
X014404Y005185D01*
X014317Y005098D01*
X014193Y005098D01*
X014106Y005185D01*
X014106Y005309D01*
X014193Y005396D01*
X014317Y005396D01*
X014404Y005309D01*
X014314Y005272D01*
X014314Y005222D01*
X014280Y005188D01*
X014230Y005188D01*
X014196Y005222D01*
X014196Y005272D01*
X014230Y005306D01*
X014280Y005306D01*
X014314Y005272D01*
X015141Y005993D02*
X015201Y006053D01*
X015201Y005855D01*
X015061Y005715D01*
X014863Y005715D01*
X014723Y005855D01*
X014723Y006053D01*
X014863Y006193D01*
X015061Y006193D01*
X015201Y006053D01*
X015111Y006016D01*
X015111Y005892D01*
X015024Y005805D01*
X014900Y005805D01*
X014813Y005892D01*
X014813Y006016D01*
X014900Y006103D01*
X015024Y006103D01*
X015111Y006016D01*
X015021Y005979D01*
X015021Y005929D01*
X014987Y005895D01*
X014937Y005895D01*
X014903Y005929D01*
X014903Y005979D01*
X014937Y006013D01*
X014987Y006013D01*
X015021Y005979D01*
X017434Y005286D02*
X017494Y005346D01*
X017494Y005148D01*
X017354Y005008D01*
X017156Y005008D01*
X017016Y005148D01*
X017016Y005346D01*
X017156Y005486D01*
X017354Y005486D01*
X017494Y005346D01*
X017404Y005309D01*
X017404Y005185D01*
X017317Y005098D01*
X017193Y005098D01*
X017106Y005185D01*
X017106Y005309D01*
X017193Y005396D01*
X017317Y005396D01*
X017404Y005309D01*
X017314Y005272D01*
X017314Y005222D01*
X017280Y005188D01*
X017230Y005188D01*
X017196Y005222D01*
X017196Y005272D01*
X017230Y005306D01*
X017280Y005306D01*
X017314Y005272D01*
X018141Y005993D02*
X018201Y006053D01*
X018201Y005855D01*
X018061Y005715D01*
X017863Y005715D01*
X017723Y005855D01*
X017723Y006053D01*
X017863Y006193D01*
X018061Y006193D01*
X018201Y006053D01*
X018111Y006016D01*
X018111Y005892D01*
X018024Y005805D01*
X017900Y005805D01*
X017813Y005892D01*
X017813Y006016D01*
X017900Y006103D01*
X018024Y006103D01*
X018111Y006016D01*
X018021Y005979D01*
X018021Y005929D01*
X017987Y005895D01*
X017937Y005895D01*
X017903Y005929D01*
X017903Y005979D01*
X017937Y006013D01*
X017987Y006013D01*
X018021Y005979D01*
X020434Y005286D02*
X020494Y005346D01*
X020494Y005148D01*
X020354Y005008D01*
X020156Y005008D01*
X020016Y005148D01*
X020016Y005346D01*
X020156Y005486D01*
X020354Y005486D01*
X020494Y005346D01*
X020404Y005309D01*
X020404Y005185D01*
X020317Y005098D01*
X020193Y005098D01*
X020106Y005185D01*
X020106Y005309D01*
X020193Y005396D01*
X020317Y005396D01*
X020404Y005309D01*
X020314Y005272D01*
X020314Y005222D01*
X020280Y005188D01*
X020230Y005188D01*
X020196Y005222D01*
X020196Y005272D01*
X020230Y005306D01*
X020280Y005306D01*
X020314Y005272D01*
X021141Y005993D02*
X021201Y006053D01*
X021201Y005855D01*
X021061Y005715D01*
X020863Y005715D01*
X020723Y005855D01*
X020723Y006053D01*
X020863Y006193D01*
X021061Y006193D01*
X021201Y006053D01*
X021111Y006016D01*
X021111Y005892D01*
X021024Y005805D01*
X020900Y005805D01*
X020813Y005892D01*
X020813Y006016D01*
X020900Y006103D01*
X021024Y006103D01*
X021111Y006016D01*
X021021Y005979D01*
X021021Y005929D01*
X020987Y005895D01*
X020937Y005895D01*
X020903Y005929D01*
X020903Y005979D01*
X020937Y006013D01*
X020987Y006013D01*
X021021Y005979D01*
X023434Y005286D02*
X023494Y005346D01*
X023494Y005148D01*
X023354Y005008D01*
X023156Y005008D01*
X023016Y005148D01*
X023016Y005346D01*
X023156Y005486D01*
X023354Y005486D01*
X023494Y005346D01*
X023404Y005309D01*
X023404Y005185D01*
X023317Y005098D01*
X023193Y005098D01*
X023106Y005185D01*
X023106Y005309D01*
X023193Y005396D01*
X023317Y005396D01*
X023404Y005309D01*
X023314Y005272D01*
X023314Y005222D01*
X023280Y005188D01*
X023230Y005188D01*
X023196Y005222D01*
X023196Y005272D01*
X023230Y005306D01*
X023280Y005306D01*
X023314Y005272D01*
X024141Y005993D02*
X024201Y006053D01*
X024201Y005855D01*
X024061Y005715D01*
X023863Y005715D01*
X023723Y005855D01*
X023723Y006053D01*
X023863Y006193D01*
X024061Y006193D01*
X024201Y006053D01*
X024111Y006016D01*
X024111Y005892D01*
X024024Y005805D01*
X023900Y005805D01*
X023813Y005892D01*
X023813Y006016D01*
X023900Y006103D01*
X024024Y006103D01*
X024111Y006016D01*
X024021Y005979D01*
X024021Y005929D01*
X023987Y005895D01*
X023937Y005895D01*
X023903Y005929D01*
X023903Y005979D01*
X023937Y006013D01*
X023987Y006013D01*
X024021Y005979D01*
X026434Y005286D02*
X026494Y005346D01*
X026494Y005148D01*
X026354Y005008D01*
X026156Y005008D01*
X026016Y005148D01*
X026016Y005346D01*
X026156Y005486D01*
X026354Y005486D01*
X026494Y005346D01*
X026404Y005309D01*
X026404Y005185D01*
X026317Y005098D01*
X026193Y005098D01*
X026106Y005185D01*
X026106Y005309D01*
X026193Y005396D01*
X026317Y005396D01*
X026404Y005309D01*
X026314Y005272D01*
X026314Y005222D01*
X026280Y005188D01*
X026230Y005188D01*
X026196Y005222D01*
X026196Y005272D01*
X026230Y005306D01*
X026280Y005306D01*
X026314Y005272D01*
X027141Y005993D02*
X027201Y006053D01*
X027201Y005855D01*
X027061Y005715D01*
X026863Y005715D01*
X026723Y005855D01*
X026723Y006053D01*
X026863Y006193D01*
X027061Y006193D01*
X027201Y006053D01*
X027111Y006016D01*
X027111Y005892D01*
X027024Y005805D01*
X026900Y005805D01*
X026813Y005892D01*
X026813Y006016D01*
X026900Y006103D01*
X027024Y006103D01*
X027111Y006016D01*
X027021Y005979D01*
X027021Y005929D01*
X026987Y005895D01*
X026937Y005895D01*
X026903Y005929D01*
X026903Y005979D01*
X026937Y006013D01*
X026987Y006013D01*
X027021Y005979D01*
X026434Y008286D02*
X026494Y008346D01*
X026494Y008148D01*
X026354Y008008D01*
X026156Y008008D01*
X026016Y008148D01*
X026016Y008346D01*
X026156Y008486D01*
X026354Y008486D01*
X026494Y008346D01*
X026404Y008309D01*
X026404Y008185D01*
X026317Y008098D01*
X026193Y008098D01*
X026106Y008185D01*
X026106Y008309D01*
X026193Y008396D01*
X026317Y008396D01*
X026404Y008309D01*
X026314Y008272D01*
X026314Y008222D01*
X026280Y008188D01*
X026230Y008188D01*
X026196Y008222D01*
X026196Y008272D01*
X026230Y008306D01*
X026280Y008306D01*
X026314Y008272D01*
X027141Y008993D02*
X027201Y009053D01*
X027201Y008855D01*
X027061Y008715D01*
X026863Y008715D01*
X026723Y008855D01*
X026723Y009053D01*
X026863Y009193D01*
X027061Y009193D01*
X027201Y009053D01*
X027111Y009016D01*
X027111Y008892D01*
X027024Y008805D01*
X026900Y008805D01*
X026813Y008892D01*
X026813Y009016D01*
X026900Y009103D01*
X027024Y009103D01*
X027111Y009016D01*
X027021Y008979D01*
X027021Y008929D01*
X026987Y008895D01*
X026937Y008895D01*
X026903Y008929D01*
X026903Y008979D01*
X026937Y009013D01*
X026987Y009013D01*
X027021Y008979D01*
X026434Y011286D02*
X026494Y011346D01*
X026494Y011148D01*
X026354Y011008D01*
X026156Y011008D01*
X026016Y011148D01*
X026016Y011346D01*
X026156Y011486D01*
X026354Y011486D01*
X026494Y011346D01*
X026404Y011309D01*
X026404Y011185D01*
X026317Y011098D01*
X026193Y011098D01*
X026106Y011185D01*
X026106Y011309D01*
X026193Y011396D01*
X026317Y011396D01*
X026404Y011309D01*
X026314Y011272D01*
X026314Y011222D01*
X026280Y011188D01*
X026230Y011188D01*
X026196Y011222D01*
X026196Y011272D01*
X026230Y011306D01*
X026280Y011306D01*
X026314Y011272D01*
X027141Y011993D02*
X027201Y012053D01*
X027201Y011855D01*
X027061Y011715D01*
X026863Y011715D01*
X026723Y011855D01*
X026723Y012053D01*
X026863Y012193D01*
X027061Y012193D01*
X027201Y012053D01*
X027111Y012016D01*
X027111Y011892D01*
X027024Y011805D01*
X026900Y011805D01*
X026813Y011892D01*
X026813Y012016D01*
X026900Y012103D01*
X027024Y012103D01*
X027111Y012016D01*
X027021Y011979D01*
X027021Y011929D01*
X026987Y011895D01*
X026937Y011895D01*
X026903Y011929D01*
X026903Y011979D01*
X026937Y012013D01*
X026987Y012013D01*
X027021Y011979D01*
X026434Y014286D02*
X026494Y014346D01*
X026494Y014148D01*
X026354Y014008D01*
X026156Y014008D01*
X026016Y014148D01*
X026016Y014346D01*
X026156Y014486D01*
X026354Y014486D01*
X026494Y014346D01*
X026404Y014309D01*
X026404Y014185D01*
X026317Y014098D01*
X026193Y014098D01*
X026106Y014185D01*
X026106Y014309D01*
X026193Y014396D01*
X026317Y014396D01*
X026404Y014309D01*
X026314Y014272D01*
X026314Y014222D01*
X026280Y014188D01*
X026230Y014188D01*
X026196Y014222D01*
X026196Y014272D01*
X026230Y014306D01*
X026280Y014306D01*
X026314Y014272D01*
X027141Y014993D02*
X027201Y015053D01*
X027201Y014855D01*
X027061Y014715D01*
X026863Y014715D01*
X026723Y014855D01*
X026723Y015053D01*
X026863Y015193D01*
X027061Y015193D01*
X027201Y015053D01*
X027111Y015016D01*
X027111Y014892D01*
X027024Y014805D01*
X026900Y014805D01*
X026813Y014892D01*
X026813Y015016D01*
X026900Y015103D01*
X027024Y015103D01*
X027111Y015016D01*
X027021Y014979D01*
X027021Y014929D01*
X026987Y014895D01*
X026937Y014895D01*
X026903Y014929D01*
X026903Y014979D01*
X026937Y015013D01*
X026987Y015013D01*
X027021Y014979D01*
X026434Y017286D02*
X026494Y017346D01*
X026494Y017148D01*
X026354Y017008D01*
X026156Y017008D01*
X026016Y017148D01*
X026016Y017346D01*
X026156Y017486D01*
X026354Y017486D01*
X026494Y017346D01*
X026404Y017309D01*
X026404Y017185D01*
X026317Y017098D01*
X026193Y017098D01*
X026106Y017185D01*
X026106Y017309D01*
X026193Y017396D01*
X026317Y017396D01*
X026404Y017309D01*
X026314Y017272D01*
X026314Y017222D01*
X026280Y017188D01*
X026230Y017188D01*
X026196Y017222D01*
X026196Y017272D01*
X026230Y017306D01*
X026280Y017306D01*
X026314Y017272D01*
X027141Y017993D02*
X027201Y018053D01*
X027201Y017855D01*
X027061Y017715D01*
X026863Y017715D01*
X026723Y017855D01*
X026723Y018053D01*
X026863Y018193D01*
X027061Y018193D01*
X027201Y018053D01*
X027111Y018016D01*
X027111Y017892D01*
X027024Y017805D01*
X026900Y017805D01*
X026813Y017892D01*
X026813Y018016D01*
X026900Y018103D01*
X027024Y018103D01*
X027111Y018016D01*
X027021Y017979D01*
X027021Y017929D01*
X026987Y017895D01*
X026937Y017895D01*
X026903Y017929D01*
X026903Y017979D01*
X026937Y018013D01*
X026987Y018013D01*
X027021Y017979D01*
X026434Y020286D02*
X026494Y020346D01*
X026494Y020148D01*
X026354Y020008D01*
X026156Y020008D01*
X026016Y020148D01*
X026016Y020346D01*
X026156Y020486D01*
X026354Y020486D01*
X026494Y020346D01*
X026404Y020309D01*
X026404Y020185D01*
X026317Y020098D01*
X026193Y020098D01*
X026106Y020185D01*
X026106Y020309D01*
X026193Y020396D01*
X026317Y020396D01*
X026404Y020309D01*
X026314Y020272D01*
X026314Y020222D01*
X026280Y020188D01*
X026230Y020188D01*
X026196Y020222D01*
X026196Y020272D01*
X026230Y020306D01*
X026280Y020306D01*
X026314Y020272D01*
X027141Y020993D02*
X027201Y021053D01*
X027201Y020855D01*
X027061Y020715D01*
X026863Y020715D01*
X026723Y020855D01*
X026723Y021053D01*
X026863Y021193D01*
X027061Y021193D01*
X027201Y021053D01*
X027111Y021016D01*
X027111Y020892D01*
X027024Y020805D01*
X026900Y020805D01*
X026813Y020892D01*
X026813Y021016D01*
X026900Y021103D01*
X027024Y021103D01*
X027111Y021016D01*
X027021Y020979D01*
X027021Y020929D01*
X026987Y020895D01*
X026937Y020895D01*
X026903Y020929D01*
X026903Y020979D01*
X026937Y021013D01*
X026987Y021013D01*
X027021Y020979D01*
X026434Y023286D02*
X026494Y023346D01*
X026494Y023148D01*
X026354Y023008D01*
X026156Y023008D01*
X026016Y023148D01*
X026016Y023346D01*
X026156Y023486D01*
X026354Y023486D01*
X026494Y023346D01*
X026404Y023309D01*
X026404Y023185D01*
X026317Y023098D01*
X026193Y023098D01*
X026106Y023185D01*
X026106Y023309D01*
X026193Y023396D01*
X026317Y023396D01*
X026404Y023309D01*
X026314Y023272D01*
X026314Y023222D01*
X026280Y023188D01*
X026230Y023188D01*
X026196Y023222D01*
X026196Y023272D01*
X026230Y023306D01*
X026280Y023306D01*
X026314Y023272D01*
X027141Y023993D02*
X027201Y024053D01*
X027201Y023855D01*
X027061Y023715D01*
X026863Y023715D01*
X026723Y023855D01*
X026723Y024053D01*
X026863Y024193D01*
X027061Y024193D01*
X027201Y024053D01*
X027111Y024016D01*
X027111Y023892D01*
X027024Y023805D01*
X026900Y023805D01*
X026813Y023892D01*
X026813Y024016D01*
X026900Y024103D01*
X027024Y024103D01*
X027111Y024016D01*
X027021Y023979D01*
X027021Y023929D01*
X026987Y023895D01*
X026937Y023895D01*
X026903Y023929D01*
X026903Y023979D01*
X026937Y024013D01*
X026987Y024013D01*
X027021Y023979D01*
X026434Y026286D02*
X026494Y026346D01*
X026494Y026148D01*
X026354Y026008D01*
X026156Y026008D01*
X026016Y026148D01*
X026016Y026346D01*
X026156Y026486D01*
X026354Y026486D01*
X026494Y026346D01*
X026404Y026309D01*
X026404Y026185D01*
X026317Y026098D01*
X026193Y026098D01*
X026106Y026185D01*
X026106Y026309D01*
X026193Y026396D01*
X026317Y026396D01*
X026404Y026309D01*
X026314Y026272D01*
X026314Y026222D01*
X026280Y026188D01*
X026230Y026188D01*
X026196Y026222D01*
X026196Y026272D01*
X026230Y026306D01*
X026280Y026306D01*
X026314Y026272D01*
X027141Y026993D02*
X027201Y027053D01*
X027201Y026855D01*
X027061Y026715D01*
X026863Y026715D01*
X026723Y026855D01*
X026723Y027053D01*
X026863Y027193D01*
X027061Y027193D01*
X027201Y027053D01*
X027111Y027016D01*
X027111Y026892D01*
X027024Y026805D01*
X026900Y026805D01*
X026813Y026892D01*
X026813Y027016D01*
X026900Y027103D01*
X027024Y027103D01*
X027111Y027016D01*
X027021Y026979D01*
X027021Y026929D01*
X026987Y026895D01*
X026937Y026895D01*
X026903Y026929D01*
X026903Y026979D01*
X026937Y027013D01*
X026987Y027013D01*
X027021Y026979D01*
X024141Y026993D02*
X024201Y027053D01*
X024201Y026855D01*
X024061Y026715D01*
X023863Y026715D01*
X023723Y026855D01*
X023723Y027053D01*
X023863Y027193D01*
X024061Y027193D01*
X024201Y027053D01*
X024111Y027016D01*
X024111Y026892D01*
X024024Y026805D01*
X023900Y026805D01*
X023813Y026892D01*
X023813Y027016D01*
X023900Y027103D01*
X024024Y027103D01*
X024111Y027016D01*
X024021Y026979D01*
X024021Y026929D01*
X023987Y026895D01*
X023937Y026895D01*
X023903Y026929D01*
X023903Y026979D01*
X023937Y027013D01*
X023987Y027013D01*
X024021Y026979D01*
X023434Y026286D02*
X023494Y026346D01*
X023494Y026148D01*
X023354Y026008D01*
X023156Y026008D01*
X023016Y026148D01*
X023016Y026346D01*
X023156Y026486D01*
X023354Y026486D01*
X023494Y026346D01*
X023404Y026309D01*
X023404Y026185D01*
X023317Y026098D01*
X023193Y026098D01*
X023106Y026185D01*
X023106Y026309D01*
X023193Y026396D01*
X023317Y026396D01*
X023404Y026309D01*
X023314Y026272D01*
X023314Y026222D01*
X023280Y026188D01*
X023230Y026188D01*
X023196Y026222D01*
X023196Y026272D01*
X023230Y026306D01*
X023280Y026306D01*
X023314Y026272D01*
X021141Y026993D02*
X021201Y027053D01*
X021201Y026855D01*
X021061Y026715D01*
X020863Y026715D01*
X020723Y026855D01*
X020723Y027053D01*
X020863Y027193D01*
X021061Y027193D01*
X021201Y027053D01*
X021111Y027016D01*
X021111Y026892D01*
X021024Y026805D01*
X020900Y026805D01*
X020813Y026892D01*
X020813Y027016D01*
X020900Y027103D01*
X021024Y027103D01*
X021111Y027016D01*
X021021Y026979D01*
X021021Y026929D01*
X020987Y026895D01*
X020937Y026895D01*
X020903Y026929D01*
X020903Y026979D01*
X020937Y027013D01*
X020987Y027013D01*
X021021Y026979D01*
X020434Y026286D02*
X020494Y026346D01*
X020494Y026148D01*
X020354Y026008D01*
X020156Y026008D01*
X020016Y026148D01*
X020016Y026346D01*
X020156Y026486D01*
X020354Y026486D01*
X020494Y026346D01*
X020404Y026309D01*
X020404Y026185D01*
X020317Y026098D01*
X020193Y026098D01*
X020106Y026185D01*
X020106Y026309D01*
X020193Y026396D01*
X020317Y026396D01*
X020404Y026309D01*
X020314Y026272D01*
X020314Y026222D01*
X020280Y026188D01*
X020230Y026188D01*
X020196Y026222D01*
X020196Y026272D01*
X020230Y026306D01*
X020280Y026306D01*
X020314Y026272D01*
X021141Y023993D02*
X021201Y024053D01*
X021201Y023855D01*
X021061Y023715D01*
X020863Y023715D01*
X020723Y023855D01*
X020723Y024053D01*
X020863Y024193D01*
X021061Y024193D01*
X021201Y024053D01*
X021111Y024016D01*
X021111Y023892D01*
X021024Y023805D01*
X020900Y023805D01*
X020813Y023892D01*
X020813Y024016D01*
X020900Y024103D01*
X021024Y024103D01*
X021111Y024016D01*
X021021Y023979D01*
X021021Y023929D01*
X020987Y023895D01*
X020937Y023895D01*
X020903Y023929D01*
X020903Y023979D01*
X020937Y024013D01*
X020987Y024013D01*
X021021Y023979D01*
X020434Y023286D02*
X020494Y023346D01*
X020494Y023148D01*
X020354Y023008D01*
X020156Y023008D01*
X020016Y023148D01*
X020016Y023346D01*
X020156Y023486D01*
X020354Y023486D01*
X020494Y023346D01*
X020404Y023309D01*
X020404Y023185D01*
X020317Y023098D01*
X020193Y023098D01*
X020106Y023185D01*
X020106Y023309D01*
X020193Y023396D01*
X020317Y023396D01*
X020404Y023309D01*
X020314Y023272D01*
X020314Y023222D01*
X020280Y023188D01*
X020230Y023188D01*
X020196Y023222D01*
X020196Y023272D01*
X020230Y023306D01*
X020280Y023306D01*
X020314Y023272D01*
X021141Y020993D02*
X021201Y021053D01*
X021201Y020855D01*
X021061Y020715D01*
X020863Y020715D01*
X020723Y020855D01*
X020723Y021053D01*
X020863Y021193D01*
X021061Y021193D01*
X021201Y021053D01*
X021111Y021016D01*
X021111Y020892D01*
X021024Y020805D01*
X020900Y020805D01*
X020813Y020892D01*
X020813Y021016D01*
X020900Y021103D01*
X021024Y021103D01*
X021111Y021016D01*
X021021Y020979D01*
X021021Y020929D01*
X020987Y020895D01*
X020937Y020895D01*
X020903Y020929D01*
X020903Y020979D01*
X020937Y021013D01*
X020987Y021013D01*
X021021Y020979D01*
X020434Y020286D02*
X020494Y020346D01*
X020494Y020148D01*
X020354Y020008D01*
X020156Y020008D01*
X020016Y020148D01*
X020016Y020346D01*
X020156Y020486D01*
X020354Y020486D01*
X020494Y020346D01*
X020404Y020309D01*
X020404Y020185D01*
X020317Y020098D01*
X020193Y020098D01*
X020106Y020185D01*
X020106Y020309D01*
X020193Y020396D01*
X020317Y020396D01*
X020404Y020309D01*
X020314Y020272D01*
X020314Y020222D01*
X020280Y020188D01*
X020230Y020188D01*
X020196Y020222D01*
X020196Y020272D01*
X020230Y020306D01*
X020280Y020306D01*
X020314Y020272D01*
X021141Y017993D02*
X021201Y018053D01*
X021201Y017855D01*
X021061Y017715D01*
X020863Y017715D01*
X020723Y017855D01*
X020723Y018053D01*
X020863Y018193D01*
X021061Y018193D01*
X021201Y018053D01*
X021111Y018016D01*
X021111Y017892D01*
X021024Y017805D01*
X020900Y017805D01*
X020813Y017892D01*
X020813Y018016D01*
X020900Y018103D01*
X021024Y018103D01*
X021111Y018016D01*
X021021Y017979D01*
X021021Y017929D01*
X020987Y017895D01*
X020937Y017895D01*
X020903Y017929D01*
X020903Y017979D01*
X020937Y018013D01*
X020987Y018013D01*
X021021Y017979D01*
X020434Y017286D02*
X020494Y017346D01*
X020494Y017148D01*
X020354Y017008D01*
X020156Y017008D01*
X020016Y017148D01*
X020016Y017346D01*
X020156Y017486D01*
X020354Y017486D01*
X020494Y017346D01*
X020404Y017309D01*
X020404Y017185D01*
X020317Y017098D01*
X020193Y017098D01*
X020106Y017185D01*
X020106Y017309D01*
X020193Y017396D01*
X020317Y017396D01*
X020404Y017309D01*
X020314Y017272D01*
X020314Y017222D01*
X020280Y017188D01*
X020230Y017188D01*
X020196Y017222D01*
X020196Y017272D01*
X020230Y017306D01*
X020280Y017306D01*
X020314Y017272D01*
X021141Y014993D02*
X021201Y015053D01*
X021201Y014855D01*
X021061Y014715D01*
X020863Y014715D01*
X020723Y014855D01*
X020723Y015053D01*
X020863Y015193D01*
X021061Y015193D01*
X021201Y015053D01*
X021111Y015016D01*
X021111Y014892D01*
X021024Y014805D01*
X020900Y014805D01*
X020813Y014892D01*
X020813Y015016D01*
X020900Y015103D01*
X021024Y015103D01*
X021111Y015016D01*
X021021Y014979D01*
X021021Y014929D01*
X020987Y014895D01*
X020937Y014895D01*
X020903Y014929D01*
X020903Y014979D01*
X020937Y015013D01*
X020987Y015013D01*
X021021Y014979D01*
X020434Y014286D02*
X020494Y014346D01*
X020494Y014148D01*
X020354Y014008D01*
X020156Y014008D01*
X020016Y014148D01*
X020016Y014346D01*
X020156Y014486D01*
X020354Y014486D01*
X020494Y014346D01*
X020404Y014309D01*
X020404Y014185D01*
X020317Y014098D01*
X020193Y014098D01*
X020106Y014185D01*
X020106Y014309D01*
X020193Y014396D01*
X020317Y014396D01*
X020404Y014309D01*
X020314Y014272D01*
X020314Y014222D01*
X020280Y014188D01*
X020230Y014188D01*
X020196Y014222D01*
X020196Y014272D01*
X020230Y014306D01*
X020280Y014306D01*
X020314Y014272D01*
X021141Y011993D02*
X021201Y012053D01*
X021201Y011855D01*
X021061Y011715D01*
X020863Y011715D01*
X020723Y011855D01*
X020723Y012053D01*
X020863Y012193D01*
X021061Y012193D01*
X021201Y012053D01*
X021111Y012016D01*
X021111Y011892D01*
X021024Y011805D01*
X020900Y011805D01*
X020813Y011892D01*
X020813Y012016D01*
X020900Y012103D01*
X021024Y012103D01*
X021111Y012016D01*
X021021Y011979D01*
X021021Y011929D01*
X020987Y011895D01*
X020937Y011895D01*
X020903Y011929D01*
X020903Y011979D01*
X020937Y012013D01*
X020987Y012013D01*
X021021Y011979D01*
X020434Y011286D02*
X020494Y011346D01*
X020494Y011148D01*
X020354Y011008D01*
X020156Y011008D01*
X020016Y011148D01*
X020016Y011346D01*
X020156Y011486D01*
X020354Y011486D01*
X020494Y011346D01*
X020404Y011309D01*
X020404Y011185D01*
X020317Y011098D01*
X020193Y011098D01*
X020106Y011185D01*
X020106Y011309D01*
X020193Y011396D01*
X020317Y011396D01*
X020404Y011309D01*
X020314Y011272D01*
X020314Y011222D01*
X020280Y011188D01*
X020230Y011188D01*
X020196Y011222D01*
X020196Y011272D01*
X020230Y011306D01*
X020280Y011306D01*
X020314Y011272D01*
X021141Y008993D02*
X021201Y009053D01*
X021201Y008855D01*
X021061Y008715D01*
X020863Y008715D01*
X020723Y008855D01*
X020723Y009053D01*
X020863Y009193D01*
X021061Y009193D01*
X021201Y009053D01*
X021111Y009016D01*
X021111Y008892D01*
X021024Y008805D01*
X020900Y008805D01*
X020813Y008892D01*
X020813Y009016D01*
X020900Y009103D01*
X021024Y009103D01*
X021111Y009016D01*
X021021Y008979D01*
X021021Y008929D01*
X020987Y008895D01*
X020937Y008895D01*
X020903Y008929D01*
X020903Y008979D01*
X020937Y009013D01*
X020987Y009013D01*
X021021Y008979D01*
X020434Y008286D02*
X020494Y008346D01*
X020494Y008148D01*
X020354Y008008D01*
X020156Y008008D01*
X020016Y008148D01*
X020016Y008346D01*
X020156Y008486D01*
X020354Y008486D01*
X020494Y008346D01*
X020404Y008309D01*
X020404Y008185D01*
X020317Y008098D01*
X020193Y008098D01*
X020106Y008185D01*
X020106Y008309D01*
X020193Y008396D01*
X020317Y008396D01*
X020404Y008309D01*
X020314Y008272D01*
X020314Y008222D01*
X020280Y008188D01*
X020230Y008188D01*
X020196Y008222D01*
X020196Y008272D01*
X020230Y008306D01*
X020280Y008306D01*
X020314Y008272D01*
X018141Y008993D02*
X018201Y009053D01*
X018201Y008855D01*
X018061Y008715D01*
X017863Y008715D01*
X017723Y008855D01*
X017723Y009053D01*
X017863Y009193D01*
X018061Y009193D01*
X018201Y009053D01*
X018111Y009016D01*
X018111Y008892D01*
X018024Y008805D01*
X017900Y008805D01*
X017813Y008892D01*
X017813Y009016D01*
X017900Y009103D01*
X018024Y009103D01*
X018111Y009016D01*
X018021Y008979D01*
X018021Y008929D01*
X017987Y008895D01*
X017937Y008895D01*
X017903Y008929D01*
X017903Y008979D01*
X017937Y009013D01*
X017987Y009013D01*
X018021Y008979D01*
X017434Y008286D02*
X017494Y008346D01*
X017494Y008148D01*
X017354Y008008D01*
X017156Y008008D01*
X017016Y008148D01*
X017016Y008346D01*
X017156Y008486D01*
X017354Y008486D01*
X017494Y008346D01*
X017404Y008309D01*
X017404Y008185D01*
X017317Y008098D01*
X017193Y008098D01*
X017106Y008185D01*
X017106Y008309D01*
X017193Y008396D01*
X017317Y008396D01*
X017404Y008309D01*
X017314Y008272D01*
X017314Y008222D01*
X017280Y008188D01*
X017230Y008188D01*
X017196Y008222D01*
X017196Y008272D01*
X017230Y008306D01*
X017280Y008306D01*
X017314Y008272D01*
X015141Y008993D02*
X015201Y009053D01*
X015201Y008855D01*
X015061Y008715D01*
X014863Y008715D01*
X014723Y008855D01*
X014723Y009053D01*
X014863Y009193D01*
X015061Y009193D01*
X015201Y009053D01*
X015111Y009016D01*
X015111Y008892D01*
X015024Y008805D01*
X014900Y008805D01*
X014813Y008892D01*
X014813Y009016D01*
X014900Y009103D01*
X015024Y009103D01*
X015111Y009016D01*
X015021Y008979D01*
X015021Y008929D01*
X014987Y008895D01*
X014937Y008895D01*
X014903Y008929D01*
X014903Y008979D01*
X014937Y009013D01*
X014987Y009013D01*
X015021Y008979D01*
X014434Y008286D02*
X014494Y008346D01*
X014494Y008148D01*
X014354Y008008D01*
X014156Y008008D01*
X014016Y008148D01*
X014016Y008346D01*
X014156Y008486D01*
X014354Y008486D01*
X014494Y008346D01*
X014404Y008309D01*
X014404Y008185D01*
X014317Y008098D01*
X014193Y008098D01*
X014106Y008185D01*
X014106Y008309D01*
X014193Y008396D01*
X014317Y008396D01*
X014404Y008309D01*
X014314Y008272D01*
X014314Y008222D01*
X014280Y008188D01*
X014230Y008188D01*
X014196Y008222D01*
X014196Y008272D01*
X014230Y008306D01*
X014280Y008306D01*
X014314Y008272D01*
X012141Y008993D02*
X012201Y009053D01*
X012201Y008855D01*
X012061Y008715D01*
X011863Y008715D01*
X011723Y008855D01*
X011723Y009053D01*
X011863Y009193D01*
X012061Y009193D01*
X012201Y009053D01*
X012111Y009016D01*
X012111Y008892D01*
X012024Y008805D01*
X011900Y008805D01*
X011813Y008892D01*
X011813Y009016D01*
X011900Y009103D01*
X012024Y009103D01*
X012111Y009016D01*
X012021Y008979D01*
X012021Y008929D01*
X011987Y008895D01*
X011937Y008895D01*
X011903Y008929D01*
X011903Y008979D01*
X011937Y009013D01*
X011987Y009013D01*
X012021Y008979D01*
X011434Y008286D02*
X011494Y008346D01*
X011494Y008148D01*
X011354Y008008D01*
X011156Y008008D01*
X011016Y008148D01*
X011016Y008346D01*
X011156Y008486D01*
X011354Y008486D01*
X011494Y008346D01*
X011404Y008309D01*
X011404Y008185D01*
X011317Y008098D01*
X011193Y008098D01*
X011106Y008185D01*
X011106Y008309D01*
X011193Y008396D01*
X011317Y008396D01*
X011404Y008309D01*
X011314Y008272D01*
X011314Y008222D01*
X011280Y008188D01*
X011230Y008188D01*
X011196Y008222D01*
X011196Y008272D01*
X011230Y008306D01*
X011280Y008306D01*
X011314Y008272D01*
X009141Y008993D02*
X009201Y009053D01*
X009201Y008855D01*
X009061Y008715D01*
X008863Y008715D01*
X008723Y008855D01*
X008723Y009053D01*
X008863Y009193D01*
X009061Y009193D01*
X009201Y009053D01*
X009111Y009016D01*
X009111Y008892D01*
X009024Y008805D01*
X008900Y008805D01*
X008813Y008892D01*
X008813Y009016D01*
X008900Y009103D01*
X009024Y009103D01*
X009111Y009016D01*
X009021Y008979D01*
X009021Y008929D01*
X008987Y008895D01*
X008937Y008895D01*
X008903Y008929D01*
X008903Y008979D01*
X008937Y009013D01*
X008987Y009013D01*
X009021Y008979D01*
X008434Y008286D02*
X008494Y008346D01*
X008494Y008148D01*
X008354Y008008D01*
X008156Y008008D01*
X008016Y008148D01*
X008016Y008346D01*
X008156Y008486D01*
X008354Y008486D01*
X008494Y008346D01*
X008404Y008309D01*
X008404Y008185D01*
X008317Y008098D01*
X008193Y008098D01*
X008106Y008185D01*
X008106Y008309D01*
X008193Y008396D01*
X008317Y008396D01*
X008404Y008309D01*
X008314Y008272D01*
X008314Y008222D01*
X008280Y008188D01*
X008230Y008188D01*
X008196Y008222D01*
X008196Y008272D01*
X008230Y008306D01*
X008280Y008306D01*
X008314Y008272D01*
X006141Y008993D02*
X006201Y009053D01*
X006201Y008855D01*
X006061Y008715D01*
X005863Y008715D01*
X005723Y008855D01*
X005723Y009053D01*
X005863Y009193D01*
X006061Y009193D01*
X006201Y009053D01*
X006111Y009016D01*
X006111Y008892D01*
X006024Y008805D01*
X005900Y008805D01*
X005813Y008892D01*
X005813Y009016D01*
X005900Y009103D01*
X006024Y009103D01*
X006111Y009016D01*
X006021Y008979D01*
X006021Y008929D01*
X005987Y008895D01*
X005937Y008895D01*
X005903Y008929D01*
X005903Y008979D01*
X005937Y009013D01*
X005987Y009013D01*
X006021Y008979D01*
X005434Y008286D02*
X005494Y008346D01*
X005494Y008148D01*
X005354Y008008D01*
X005156Y008008D01*
X005016Y008148D01*
X005016Y008346D01*
X005156Y008486D01*
X005354Y008486D01*
X005494Y008346D01*
X005404Y008309D01*
X005404Y008185D01*
X005317Y008098D01*
X005193Y008098D01*
X005106Y008185D01*
X005106Y008309D01*
X005193Y008396D01*
X005317Y008396D01*
X005404Y008309D01*
X005314Y008272D01*
X005314Y008222D01*
X005280Y008188D01*
X005230Y008188D01*
X005196Y008222D01*
X005196Y008272D01*
X005230Y008306D01*
X005280Y008306D01*
X005314Y008272D01*
X005434Y011286D02*
X005494Y011346D01*
X005494Y011148D01*
X005354Y011008D01*
X005156Y011008D01*
X005016Y011148D01*
X005016Y011346D01*
X005156Y011486D01*
X005354Y011486D01*
X005494Y011346D01*
X005404Y011309D01*
X005404Y011185D01*
X005317Y011098D01*
X005193Y011098D01*
X005106Y011185D01*
X005106Y011309D01*
X005193Y011396D01*
X005317Y011396D01*
X005404Y011309D01*
X005314Y011272D01*
X005314Y011222D01*
X005280Y011188D01*
X005230Y011188D01*
X005196Y011222D01*
X005196Y011272D01*
X005230Y011306D01*
X005280Y011306D01*
X005314Y011272D01*
X006141Y011993D02*
X006201Y012053D01*
X006201Y011855D01*
X006061Y011715D01*
X005863Y011715D01*
X005723Y011855D01*
X005723Y012053D01*
X005863Y012193D01*
X006061Y012193D01*
X006201Y012053D01*
X006111Y012016D01*
X006111Y011892D01*
X006024Y011805D01*
X005900Y011805D01*
X005813Y011892D01*
X005813Y012016D01*
X005900Y012103D01*
X006024Y012103D01*
X006111Y012016D01*
X006021Y011979D01*
X006021Y011929D01*
X005987Y011895D01*
X005937Y011895D01*
X005903Y011929D01*
X005903Y011979D01*
X005937Y012013D01*
X005987Y012013D01*
X006021Y011979D01*
X008434Y011286D02*
X008494Y011346D01*
X008494Y011148D01*
X008354Y011008D01*
X008156Y011008D01*
X008016Y011148D01*
X008016Y011346D01*
X008156Y011486D01*
X008354Y011486D01*
X008494Y011346D01*
X008404Y011309D01*
X008404Y011185D01*
X008317Y011098D01*
X008193Y011098D01*
X008106Y011185D01*
X008106Y011309D01*
X008193Y011396D01*
X008317Y011396D01*
X008404Y011309D01*
X008314Y011272D01*
X008314Y011222D01*
X008280Y011188D01*
X008230Y011188D01*
X008196Y011222D01*
X008196Y011272D01*
X008230Y011306D01*
X008280Y011306D01*
X008314Y011272D01*
X009141Y011993D02*
X009201Y012053D01*
X009201Y011855D01*
X009061Y011715D01*
X008863Y011715D01*
X008723Y011855D01*
X008723Y012053D01*
X008863Y012193D01*
X009061Y012193D01*
X009201Y012053D01*
X009111Y012016D01*
X009111Y011892D01*
X009024Y011805D01*
X008900Y011805D01*
X008813Y011892D01*
X008813Y012016D01*
X008900Y012103D01*
X009024Y012103D01*
X009111Y012016D01*
X009021Y011979D01*
X009021Y011929D01*
X008987Y011895D01*
X008937Y011895D01*
X008903Y011929D01*
X008903Y011979D01*
X008937Y012013D01*
X008987Y012013D01*
X009021Y011979D01*
X011434Y011286D02*
X011494Y011346D01*
X011494Y011148D01*
X011354Y011008D01*
X011156Y011008D01*
X011016Y011148D01*
X011016Y011346D01*
X011156Y011486D01*
X011354Y011486D01*
X011494Y011346D01*
X011404Y011309D01*
X011404Y011185D01*
X011317Y011098D01*
X011193Y011098D01*
X011106Y011185D01*
X011106Y011309D01*
X011193Y011396D01*
X011317Y011396D01*
X011404Y011309D01*
X011314Y011272D01*
X011314Y011222D01*
X011280Y011188D01*
X011230Y011188D01*
X011196Y011222D01*
X011196Y011272D01*
X011230Y011306D01*
X011280Y011306D01*
X011314Y011272D01*
X012141Y011993D02*
X012201Y012053D01*
X012201Y011855D01*
X012061Y011715D01*
X011863Y011715D01*
X011723Y011855D01*
X011723Y012053D01*
X011863Y012193D01*
X012061Y012193D01*
X012201Y012053D01*
X012111Y012016D01*
X012111Y011892D01*
X012024Y011805D01*
X011900Y011805D01*
X011813Y011892D01*
X011813Y012016D01*
X011900Y012103D01*
X012024Y012103D01*
X012111Y012016D01*
X012021Y011979D01*
X012021Y011929D01*
X011987Y011895D01*
X011937Y011895D01*
X011903Y011929D01*
X011903Y011979D01*
X011937Y012013D01*
X011987Y012013D01*
X012021Y011979D01*
X014434Y011286D02*
X014494Y011346D01*
X014494Y011148D01*
X014354Y011008D01*
X014156Y011008D01*
X014016Y011148D01*
X014016Y011346D01*
X014156Y011486D01*
X014354Y011486D01*
X014494Y011346D01*
X014404Y011309D01*
X014404Y011185D01*
X014317Y011098D01*
X014193Y011098D01*
X014106Y011185D01*
X014106Y011309D01*
X014193Y011396D01*
X014317Y011396D01*
X014404Y011309D01*
X014314Y011272D01*
X014314Y011222D01*
X014280Y011188D01*
X014230Y011188D01*
X014196Y011222D01*
X014196Y011272D01*
X014230Y011306D01*
X014280Y011306D01*
X014314Y011272D01*
X015141Y011993D02*
X015201Y012053D01*
X015201Y011855D01*
X015061Y011715D01*
X014863Y011715D01*
X014723Y011855D01*
X014723Y012053D01*
X014863Y012193D01*
X015061Y012193D01*
X015201Y012053D01*
X015111Y012016D01*
X015111Y011892D01*
X015024Y011805D01*
X014900Y011805D01*
X014813Y011892D01*
X014813Y012016D01*
X014900Y012103D01*
X015024Y012103D01*
X015111Y012016D01*
X015021Y011979D01*
X015021Y011929D01*
X014987Y011895D01*
X014937Y011895D01*
X014903Y011929D01*
X014903Y011979D01*
X014937Y012013D01*
X014987Y012013D01*
X015021Y011979D01*
X017434Y011286D02*
X017494Y011346D01*
X017494Y011148D01*
X017354Y011008D01*
X017156Y011008D01*
X017016Y011148D01*
X017016Y011346D01*
X017156Y011486D01*
X017354Y011486D01*
X017494Y011346D01*
X017404Y011309D01*
X017404Y011185D01*
X017317Y011098D01*
X017193Y011098D01*
X017106Y011185D01*
X017106Y011309D01*
X017193Y011396D01*
X017317Y011396D01*
X017404Y011309D01*
X017314Y011272D01*
X017314Y011222D01*
X017280Y011188D01*
X017230Y011188D01*
X017196Y011222D01*
X017196Y011272D01*
X017230Y011306D01*
X017280Y011306D01*
X017314Y011272D01*
X018141Y011993D02*
X018201Y012053D01*
X018201Y011855D01*
X018061Y011715D01*
X017863Y011715D01*
X017723Y011855D01*
X017723Y012053D01*
X017863Y012193D01*
X018061Y012193D01*
X018201Y012053D01*
X018111Y012016D01*
X018111Y011892D01*
X018024Y011805D01*
X017900Y011805D01*
X017813Y011892D01*
X017813Y012016D01*
X017900Y012103D01*
X018024Y012103D01*
X018111Y012016D01*
X018021Y011979D01*
X018021Y011929D01*
X017987Y011895D01*
X017937Y011895D01*
X017903Y011929D01*
X017903Y011979D01*
X017937Y012013D01*
X017987Y012013D01*
X018021Y011979D01*
X017434Y014286D02*
X017494Y014346D01*
X017494Y014148D01*
X017354Y014008D01*
X017156Y014008D01*
X017016Y014148D01*
X017016Y014346D01*
X017156Y014486D01*
X017354Y014486D01*
X017494Y014346D01*
X017404Y014309D01*
X017404Y014185D01*
X017317Y014098D01*
X017193Y014098D01*
X017106Y014185D01*
X017106Y014309D01*
X017193Y014396D01*
X017317Y014396D01*
X017404Y014309D01*
X017314Y014272D01*
X017314Y014222D01*
X017280Y014188D01*
X017230Y014188D01*
X017196Y014222D01*
X017196Y014272D01*
X017230Y014306D01*
X017280Y014306D01*
X017314Y014272D01*
X018141Y014993D02*
X018201Y015053D01*
X018201Y014855D01*
X018061Y014715D01*
X017863Y014715D01*
X017723Y014855D01*
X017723Y015053D01*
X017863Y015193D01*
X018061Y015193D01*
X018201Y015053D01*
X018111Y015016D01*
X018111Y014892D01*
X018024Y014805D01*
X017900Y014805D01*
X017813Y014892D01*
X017813Y015016D01*
X017900Y015103D01*
X018024Y015103D01*
X018111Y015016D01*
X018021Y014979D01*
X018021Y014929D01*
X017987Y014895D01*
X017937Y014895D01*
X017903Y014929D01*
X017903Y014979D01*
X017937Y015013D01*
X017987Y015013D01*
X018021Y014979D01*
X017434Y017286D02*
X017494Y017346D01*
X017494Y017148D01*
X017354Y017008D01*
X017156Y017008D01*
X017016Y017148D01*
X017016Y017346D01*
X017156Y017486D01*
X017354Y017486D01*
X017494Y017346D01*
X017404Y017309D01*
X017404Y017185D01*
X017317Y017098D01*
X017193Y017098D01*
X017106Y017185D01*
X017106Y017309D01*
X017193Y017396D01*
X017317Y017396D01*
X017404Y017309D01*
X017314Y017272D01*
X017314Y017222D01*
X017280Y017188D01*
X017230Y017188D01*
X017196Y017222D01*
X017196Y017272D01*
X017230Y017306D01*
X017280Y017306D01*
X017314Y017272D01*
X018141Y017993D02*
X018201Y018053D01*
X018201Y017855D01*
X018061Y017715D01*
X017863Y017715D01*
X017723Y017855D01*
X017723Y018053D01*
X017863Y018193D01*
X018061Y018193D01*
X018201Y018053D01*
X018111Y018016D01*
X018111Y017892D01*
X018024Y017805D01*
X017900Y017805D01*
X017813Y017892D01*
X017813Y018016D01*
X017900Y018103D01*
X018024Y018103D01*
X018111Y018016D01*
X018021Y017979D01*
X018021Y017929D01*
X017987Y017895D01*
X017937Y017895D01*
X017903Y017929D01*
X017903Y017979D01*
X017937Y018013D01*
X017987Y018013D01*
X018021Y017979D01*
X017434Y020286D02*
X017494Y020346D01*
X017494Y020148D01*
X017354Y020008D01*
X017156Y020008D01*
X017016Y020148D01*
X017016Y020346D01*
X017156Y020486D01*
X017354Y020486D01*
X017494Y020346D01*
X017404Y020309D01*
X017404Y020185D01*
X017317Y020098D01*
X017193Y020098D01*
X017106Y020185D01*
X017106Y020309D01*
X017193Y020396D01*
X017317Y020396D01*
X017404Y020309D01*
X017314Y020272D01*
X017314Y020222D01*
X017280Y020188D01*
X017230Y020188D01*
X017196Y020222D01*
X017196Y020272D01*
X017230Y020306D01*
X017280Y020306D01*
X017314Y020272D01*
X018141Y020993D02*
X018201Y021053D01*
X018201Y020855D01*
X018061Y020715D01*
X017863Y020715D01*
X017723Y020855D01*
X017723Y021053D01*
X017863Y021193D01*
X018061Y021193D01*
X018201Y021053D01*
X018111Y021016D01*
X018111Y020892D01*
X018024Y020805D01*
X017900Y020805D01*
X017813Y020892D01*
X017813Y021016D01*
X017900Y021103D01*
X018024Y021103D01*
X018111Y021016D01*
X018021Y020979D01*
X018021Y020929D01*
X017987Y020895D01*
X017937Y020895D01*
X017903Y020929D01*
X017903Y020979D01*
X017937Y021013D01*
X017987Y021013D01*
X018021Y020979D01*
X017434Y023286D02*
X017494Y023346D01*
X017494Y023148D01*
X017354Y023008D01*
X017156Y023008D01*
X017016Y023148D01*
X017016Y023346D01*
X017156Y023486D01*
X017354Y023486D01*
X017494Y023346D01*
X017404Y023309D01*
X017404Y023185D01*
X017317Y023098D01*
X017193Y023098D01*
X017106Y023185D01*
X017106Y023309D01*
X017193Y023396D01*
X017317Y023396D01*
X017404Y023309D01*
X017314Y023272D01*
X017314Y023222D01*
X017280Y023188D01*
X017230Y023188D01*
X017196Y023222D01*
X017196Y023272D01*
X017230Y023306D01*
X017280Y023306D01*
X017314Y023272D01*
X018141Y023993D02*
X018201Y024053D01*
X018201Y023855D01*
X018061Y023715D01*
X017863Y023715D01*
X017723Y023855D01*
X017723Y024053D01*
X017863Y024193D01*
X018061Y024193D01*
X018201Y024053D01*
X018111Y024016D01*
X018111Y023892D01*
X018024Y023805D01*
X017900Y023805D01*
X017813Y023892D01*
X017813Y024016D01*
X017900Y024103D01*
X018024Y024103D01*
X018111Y024016D01*
X018021Y023979D01*
X018021Y023929D01*
X017987Y023895D01*
X017937Y023895D01*
X017903Y023929D01*
X017903Y023979D01*
X017937Y024013D01*
X017987Y024013D01*
X018021Y023979D01*
X017434Y026286D02*
X017494Y026346D01*
X017494Y026148D01*
X017354Y026008D01*
X017156Y026008D01*
X017016Y026148D01*
X017016Y026346D01*
X017156Y026486D01*
X017354Y026486D01*
X017494Y026346D01*
X017404Y026309D01*
X017404Y026185D01*
X017317Y026098D01*
X017193Y026098D01*
X017106Y026185D01*
X017106Y026309D01*
X017193Y026396D01*
X017317Y026396D01*
X017404Y026309D01*
X017314Y026272D01*
X017314Y026222D01*
X017280Y026188D01*
X017230Y026188D01*
X017196Y026222D01*
X017196Y026272D01*
X017230Y026306D01*
X017280Y026306D01*
X017314Y026272D01*
X018141Y026993D02*
X018201Y027053D01*
X018201Y026855D01*
X018061Y026715D01*
X017863Y026715D01*
X017723Y026855D01*
X017723Y027053D01*
X017863Y027193D01*
X018061Y027193D01*
X018201Y027053D01*
X018111Y027016D01*
X018111Y026892D01*
X018024Y026805D01*
X017900Y026805D01*
X017813Y026892D01*
X017813Y027016D01*
X017900Y027103D01*
X018024Y027103D01*
X018111Y027016D01*
X018021Y026979D01*
X018021Y026929D01*
X017987Y026895D01*
X017937Y026895D01*
X017903Y026929D01*
X017903Y026979D01*
X017937Y027013D01*
X017987Y027013D01*
X018021Y026979D01*
X015141Y026993D02*
X015201Y027053D01*
X015201Y026855D01*
X015061Y026715D01*
X014863Y026715D01*
X014723Y026855D01*
X014723Y027053D01*
X014863Y027193D01*
X015061Y027193D01*
X015201Y027053D01*
X015111Y027016D01*
X015111Y026892D01*
X015024Y026805D01*
X014900Y026805D01*
X014813Y026892D01*
X014813Y027016D01*
X014900Y027103D01*
X015024Y027103D01*
X015111Y027016D01*
X015021Y026979D01*
X015021Y026929D01*
X014987Y026895D01*
X014937Y026895D01*
X014903Y026929D01*
X014903Y026979D01*
X014937Y027013D01*
X014987Y027013D01*
X015021Y026979D01*
X014434Y026286D02*
X014494Y026346D01*
X014494Y026148D01*
X014354Y026008D01*
X014156Y026008D01*
X014016Y026148D01*
X014016Y026346D01*
X014156Y026486D01*
X014354Y026486D01*
X014494Y026346D01*
X014404Y026309D01*
X014404Y026185D01*
X014317Y026098D01*
X014193Y026098D01*
X014106Y026185D01*
X014106Y026309D01*
X014193Y026396D01*
X014317Y026396D01*
X014404Y026309D01*
X014314Y026272D01*
X014314Y026222D01*
X014280Y026188D01*
X014230Y026188D01*
X014196Y026222D01*
X014196Y026272D01*
X014230Y026306D01*
X014280Y026306D01*
X014314Y026272D01*
X015141Y023993D02*
X015201Y024053D01*
X015201Y023855D01*
X015061Y023715D01*
X014863Y023715D01*
X014723Y023855D01*
X014723Y024053D01*
X014863Y024193D01*
X015061Y024193D01*
X015201Y024053D01*
X015111Y024016D01*
X015111Y023892D01*
X015024Y023805D01*
X014900Y023805D01*
X014813Y023892D01*
X014813Y024016D01*
X014900Y024103D01*
X015024Y024103D01*
X015111Y024016D01*
X015021Y023979D01*
X015021Y023929D01*
X014987Y023895D01*
X014937Y023895D01*
X014903Y023929D01*
X014903Y023979D01*
X014937Y024013D01*
X014987Y024013D01*
X015021Y023979D01*
X014434Y023286D02*
X014494Y023346D01*
X014494Y023148D01*
X014354Y023008D01*
X014156Y023008D01*
X014016Y023148D01*
X014016Y023346D01*
X014156Y023486D01*
X014354Y023486D01*
X014494Y023346D01*
X014404Y023309D01*
X014404Y023185D01*
X014317Y023098D01*
X014193Y023098D01*
X014106Y023185D01*
X014106Y023309D01*
X014193Y023396D01*
X014317Y023396D01*
X014404Y023309D01*
X014314Y023272D01*
X014314Y023222D01*
X014280Y023188D01*
X014230Y023188D01*
X014196Y023222D01*
X014196Y023272D01*
X014230Y023306D01*
X014280Y023306D01*
X014314Y023272D01*
X015141Y020993D02*
X015201Y021053D01*
X015201Y020855D01*
X015061Y020715D01*
X014863Y020715D01*
X014723Y020855D01*
X014723Y021053D01*
X014863Y021193D01*
X015061Y021193D01*
X015201Y021053D01*
X015111Y021016D01*
X015111Y020892D01*
X015024Y020805D01*
X014900Y020805D01*
X014813Y020892D01*
X014813Y021016D01*
X014900Y021103D01*
X015024Y021103D01*
X015111Y021016D01*
X015021Y020979D01*
X015021Y020929D01*
X014987Y020895D01*
X014937Y020895D01*
X014903Y020929D01*
X014903Y020979D01*
X014937Y021013D01*
X014987Y021013D01*
X015021Y020979D01*
X014434Y020286D02*
X014494Y020346D01*
X014494Y020148D01*
X014354Y020008D01*
X014156Y020008D01*
X014016Y020148D01*
X014016Y020346D01*
X014156Y020486D01*
X014354Y020486D01*
X014494Y020346D01*
X014404Y020309D01*
X014404Y020185D01*
X014317Y020098D01*
X014193Y020098D01*
X014106Y020185D01*
X014106Y020309D01*
X014193Y020396D01*
X014317Y020396D01*
X014404Y020309D01*
X014314Y020272D01*
X014314Y020222D01*
X014280Y020188D01*
X014230Y020188D01*
X014196Y020222D01*
X014196Y020272D01*
X014230Y020306D01*
X014280Y020306D01*
X014314Y020272D01*
X015141Y017993D02*
X015201Y018053D01*
X015201Y017855D01*
X015061Y017715D01*
X014863Y017715D01*
X014723Y017855D01*
X014723Y018053D01*
X014863Y018193D01*
X015061Y018193D01*
X015201Y018053D01*
X015111Y018016D01*
X015111Y017892D01*
X015024Y017805D01*
X014900Y017805D01*
X014813Y017892D01*
X014813Y018016D01*
X014900Y018103D01*
X015024Y018103D01*
X015111Y018016D01*
X015021Y017979D01*
X015021Y017929D01*
X014987Y017895D01*
X014937Y017895D01*
X014903Y017929D01*
X014903Y017979D01*
X014937Y018013D01*
X014987Y018013D01*
X015021Y017979D01*
X014434Y017286D02*
X014494Y017346D01*
X014494Y017148D01*
X014354Y017008D01*
X014156Y017008D01*
X014016Y017148D01*
X014016Y017346D01*
X014156Y017486D01*
X014354Y017486D01*
X014494Y017346D01*
X014404Y017309D01*
X014404Y017185D01*
X014317Y017098D01*
X014193Y017098D01*
X014106Y017185D01*
X014106Y017309D01*
X014193Y017396D01*
X014317Y017396D01*
X014404Y017309D01*
X014314Y017272D01*
X014314Y017222D01*
X014280Y017188D01*
X014230Y017188D01*
X014196Y017222D01*
X014196Y017272D01*
X014230Y017306D01*
X014280Y017306D01*
X014314Y017272D01*
X015141Y014993D02*
X015201Y015053D01*
X015201Y014855D01*
X015061Y014715D01*
X014863Y014715D01*
X014723Y014855D01*
X014723Y015053D01*
X014863Y015193D01*
X015061Y015193D01*
X015201Y015053D01*
X015111Y015016D01*
X015111Y014892D01*
X015024Y014805D01*
X014900Y014805D01*
X014813Y014892D01*
X014813Y015016D01*
X014900Y015103D01*
X015024Y015103D01*
X015111Y015016D01*
X015021Y014979D01*
X015021Y014929D01*
X014987Y014895D01*
X014937Y014895D01*
X014903Y014929D01*
X014903Y014979D01*
X014937Y015013D01*
X014987Y015013D01*
X015021Y014979D01*
X014434Y014286D02*
X014494Y014346D01*
X014494Y014148D01*
X014354Y014008D01*
X014156Y014008D01*
X014016Y014148D01*
X014016Y014346D01*
X014156Y014486D01*
X014354Y014486D01*
X014494Y014346D01*
X014404Y014309D01*
X014404Y014185D01*
X014317Y014098D01*
X014193Y014098D01*
X014106Y014185D01*
X014106Y014309D01*
X014193Y014396D01*
X014317Y014396D01*
X014404Y014309D01*
X014314Y014272D01*
X014314Y014222D01*
X014280Y014188D01*
X014230Y014188D01*
X014196Y014222D01*
X014196Y014272D01*
X014230Y014306D01*
X014280Y014306D01*
X014314Y014272D01*
X012141Y014993D02*
X012201Y015053D01*
X012201Y014855D01*
X012061Y014715D01*
X011863Y014715D01*
X011723Y014855D01*
X011723Y015053D01*
X011863Y015193D01*
X012061Y015193D01*
X012201Y015053D01*
X012111Y015016D01*
X012111Y014892D01*
X012024Y014805D01*
X011900Y014805D01*
X011813Y014892D01*
X011813Y015016D01*
X011900Y015103D01*
X012024Y015103D01*
X012111Y015016D01*
X012021Y014979D01*
X012021Y014929D01*
X011987Y014895D01*
X011937Y014895D01*
X011903Y014929D01*
X011903Y014979D01*
X011937Y015013D01*
X011987Y015013D01*
X012021Y014979D01*
X011434Y014286D02*
X011494Y014346D01*
X011494Y014148D01*
X011354Y014008D01*
X011156Y014008D01*
X011016Y014148D01*
X011016Y014346D01*
X011156Y014486D01*
X011354Y014486D01*
X011494Y014346D01*
X011404Y014309D01*
X011404Y014185D01*
X011317Y014098D01*
X011193Y014098D01*
X011106Y014185D01*
X011106Y014309D01*
X011193Y014396D01*
X011317Y014396D01*
X011404Y014309D01*
X011314Y014272D01*
X011314Y014222D01*
X011280Y014188D01*
X011230Y014188D01*
X011196Y014222D01*
X011196Y014272D01*
X011230Y014306D01*
X011280Y014306D01*
X011314Y014272D01*
X009141Y014993D02*
X009201Y015053D01*
X009201Y014855D01*
X009061Y014715D01*
X008863Y014715D01*
X008723Y014855D01*
X008723Y015053D01*
X008863Y015193D01*
X009061Y015193D01*
X009201Y015053D01*
X009111Y015016D01*
X009111Y014892D01*
X009024Y014805D01*
X008900Y014805D01*
X008813Y014892D01*
X008813Y015016D01*
X008900Y015103D01*
X009024Y015103D01*
X009111Y015016D01*
X009021Y014979D01*
X009021Y014929D01*
X008987Y014895D01*
X008937Y014895D01*
X008903Y014929D01*
X008903Y014979D01*
X008937Y015013D01*
X008987Y015013D01*
X009021Y014979D01*
X008434Y014286D02*
X008494Y014346D01*
X008494Y014148D01*
X008354Y014008D01*
X008156Y014008D01*
X008016Y014148D01*
X008016Y014346D01*
X008156Y014486D01*
X008354Y014486D01*
X008494Y014346D01*
X008404Y014309D01*
X008404Y014185D01*
X008317Y014098D01*
X008193Y014098D01*
X008106Y014185D01*
X008106Y014309D01*
X008193Y014396D01*
X008317Y014396D01*
X008404Y014309D01*
X008314Y014272D01*
X008314Y014222D01*
X008280Y014188D01*
X008230Y014188D01*
X008196Y014222D01*
X008196Y014272D01*
X008230Y014306D01*
X008280Y014306D01*
X008314Y014272D01*
X006141Y014993D02*
X006201Y015053D01*
X006201Y014855D01*
X006061Y014715D01*
X005863Y014715D01*
X005723Y014855D01*
X005723Y015053D01*
X005863Y015193D01*
X006061Y015193D01*
X006201Y015053D01*
X006111Y015016D01*
X006111Y014892D01*
X006024Y014805D01*
X005900Y014805D01*
X005813Y014892D01*
X005813Y015016D01*
X005900Y015103D01*
X006024Y015103D01*
X006111Y015016D01*
X006021Y014979D01*
X006021Y014929D01*
X005987Y014895D01*
X005937Y014895D01*
X005903Y014929D01*
X005903Y014979D01*
X005937Y015013D01*
X005987Y015013D01*
X006021Y014979D01*
X005434Y014286D02*
X005494Y014346D01*
X005494Y014148D01*
X005354Y014008D01*
X005156Y014008D01*
X005016Y014148D01*
X005016Y014346D01*
X005156Y014486D01*
X005354Y014486D01*
X005494Y014346D01*
X005404Y014309D01*
X005404Y014185D01*
X005317Y014098D01*
X005193Y014098D01*
X005106Y014185D01*
X005106Y014309D01*
X005193Y014396D01*
X005317Y014396D01*
X005404Y014309D01*
X005314Y014272D01*
X005314Y014222D01*
X005280Y014188D01*
X005230Y014188D01*
X005196Y014222D01*
X005196Y014272D01*
X005230Y014306D01*
X005280Y014306D01*
X005314Y014272D01*
X005434Y017286D02*
X005494Y017346D01*
X005494Y017148D01*
X005354Y017008D01*
X005156Y017008D01*
X005016Y017148D01*
X005016Y017346D01*
X005156Y017486D01*
X005354Y017486D01*
X005494Y017346D01*
X005404Y017309D01*
X005404Y017185D01*
X005317Y017098D01*
X005193Y017098D01*
X005106Y017185D01*
X005106Y017309D01*
X005193Y017396D01*
X005317Y017396D01*
X005404Y017309D01*
X005314Y017272D01*
X005314Y017222D01*
X005280Y017188D01*
X005230Y017188D01*
X005196Y017222D01*
X005196Y017272D01*
X005230Y017306D01*
X005280Y017306D01*
X005314Y017272D01*
X006141Y017993D02*
X006201Y018053D01*
X006201Y017855D01*
X006061Y017715D01*
X005863Y017715D01*
X005723Y017855D01*
X005723Y018053D01*
X005863Y018193D01*
X006061Y018193D01*
X006201Y018053D01*
X006111Y018016D01*
X006111Y017892D01*
X006024Y017805D01*
X005900Y017805D01*
X005813Y017892D01*
X005813Y018016D01*
X005900Y018103D01*
X006024Y018103D01*
X006111Y018016D01*
X006021Y017979D01*
X006021Y017929D01*
X005987Y017895D01*
X005937Y017895D01*
X005903Y017929D01*
X005903Y017979D01*
X005937Y018013D01*
X005987Y018013D01*
X006021Y017979D01*
X008434Y017286D02*
X008494Y017346D01*
X008494Y017148D01*
X008354Y017008D01*
X008156Y017008D01*
X008016Y017148D01*
X008016Y017346D01*
X008156Y017486D01*
X008354Y017486D01*
X008494Y017346D01*
X008404Y017309D01*
X008404Y017185D01*
X008317Y017098D01*
X008193Y017098D01*
X008106Y017185D01*
X008106Y017309D01*
X008193Y017396D01*
X008317Y017396D01*
X008404Y017309D01*
X008314Y017272D01*
X008314Y017222D01*
X008280Y017188D01*
X008230Y017188D01*
X008196Y017222D01*
X008196Y017272D01*
X008230Y017306D01*
X008280Y017306D01*
X008314Y017272D01*
X009141Y017993D02*
X009201Y018053D01*
X009201Y017855D01*
X009061Y017715D01*
X008863Y017715D01*
X008723Y017855D01*
X008723Y018053D01*
X008863Y018193D01*
X009061Y018193D01*
X009201Y018053D01*
X009111Y018016D01*
X009111Y017892D01*
X009024Y017805D01*
X008900Y017805D01*
X008813Y017892D01*
X008813Y018016D01*
X008900Y018103D01*
X009024Y018103D01*
X009111Y018016D01*
X009021Y017979D01*
X009021Y017929D01*
X008987Y017895D01*
X008937Y017895D01*
X008903Y017929D01*
X008903Y017979D01*
X008937Y018013D01*
X008987Y018013D01*
X009021Y017979D01*
X011434Y017286D02*
X011494Y017346D01*
X011494Y017148D01*
X011354Y017008D01*
X011156Y017008D01*
X011016Y017148D01*
X011016Y017346D01*
X011156Y017486D01*
X011354Y017486D01*
X011494Y017346D01*
X011404Y017309D01*
X011404Y017185D01*
X011317Y017098D01*
X011193Y017098D01*
X011106Y017185D01*
X011106Y017309D01*
X011193Y017396D01*
X011317Y017396D01*
X011404Y017309D01*
X011314Y017272D01*
X011314Y017222D01*
X011280Y017188D01*
X011230Y017188D01*
X011196Y017222D01*
X011196Y017272D01*
X011230Y017306D01*
X011280Y017306D01*
X011314Y017272D01*
X012141Y017993D02*
X012201Y018053D01*
X012201Y017855D01*
X012061Y017715D01*
X011863Y017715D01*
X011723Y017855D01*
X011723Y018053D01*
X011863Y018193D01*
X012061Y018193D01*
X012201Y018053D01*
X012111Y018016D01*
X012111Y017892D01*
X012024Y017805D01*
X011900Y017805D01*
X011813Y017892D01*
X011813Y018016D01*
X011900Y018103D01*
X012024Y018103D01*
X012111Y018016D01*
X012021Y017979D01*
X012021Y017929D01*
X011987Y017895D01*
X011937Y017895D01*
X011903Y017929D01*
X011903Y017979D01*
X011937Y018013D01*
X011987Y018013D01*
X012021Y017979D01*
X011434Y020286D02*
X011494Y020346D01*
X011494Y020148D01*
X011354Y020008D01*
X011156Y020008D01*
X011016Y020148D01*
X011016Y020346D01*
X011156Y020486D01*
X011354Y020486D01*
X011494Y020346D01*
X011404Y020309D01*
X011404Y020185D01*
X011317Y020098D01*
X011193Y020098D01*
X011106Y020185D01*
X011106Y020309D01*
X011193Y020396D01*
X011317Y020396D01*
X011404Y020309D01*
X011314Y020272D01*
X011314Y020222D01*
X011280Y020188D01*
X011230Y020188D01*
X011196Y020222D01*
X011196Y020272D01*
X011230Y020306D01*
X011280Y020306D01*
X011314Y020272D01*
X012141Y020993D02*
X012201Y021053D01*
X012201Y020855D01*
X012061Y020715D01*
X011863Y020715D01*
X011723Y020855D01*
X011723Y021053D01*
X011863Y021193D01*
X012061Y021193D01*
X012201Y021053D01*
X012111Y021016D01*
X012111Y020892D01*
X012024Y020805D01*
X011900Y020805D01*
X011813Y020892D01*
X011813Y021016D01*
X011900Y021103D01*
X012024Y021103D01*
X012111Y021016D01*
X012021Y020979D01*
X012021Y020929D01*
X011987Y020895D01*
X011937Y020895D01*
X011903Y020929D01*
X011903Y020979D01*
X011937Y021013D01*
X011987Y021013D01*
X012021Y020979D01*
X011434Y023286D02*
X011494Y023346D01*
X011494Y023148D01*
X011354Y023008D01*
X011156Y023008D01*
X011016Y023148D01*
X011016Y023346D01*
X011156Y023486D01*
X011354Y023486D01*
X011494Y023346D01*
X011404Y023309D01*
X011404Y023185D01*
X011317Y023098D01*
X011193Y023098D01*
X011106Y023185D01*
X011106Y023309D01*
X011193Y023396D01*
X011317Y023396D01*
X011404Y023309D01*
X011314Y023272D01*
X011314Y023222D01*
X011280Y023188D01*
X011230Y023188D01*
X011196Y023222D01*
X011196Y023272D01*
X011230Y023306D01*
X011280Y023306D01*
X011314Y023272D01*
X012141Y023993D02*
X012201Y024053D01*
X012201Y023855D01*
X012061Y023715D01*
X011863Y023715D01*
X011723Y023855D01*
X011723Y024053D01*
X011863Y024193D01*
X012061Y024193D01*
X012201Y024053D01*
X012111Y024016D01*
X012111Y023892D01*
X012024Y023805D01*
X011900Y023805D01*
X011813Y023892D01*
X011813Y024016D01*
X011900Y024103D01*
X012024Y024103D01*
X012111Y024016D01*
X012021Y023979D01*
X012021Y023929D01*
X011987Y023895D01*
X011937Y023895D01*
X011903Y023929D01*
X011903Y023979D01*
X011937Y024013D01*
X011987Y024013D01*
X012021Y023979D01*
X011434Y026286D02*
X011494Y026346D01*
X011494Y026148D01*
X011354Y026008D01*
X011156Y026008D01*
X011016Y026148D01*
X011016Y026346D01*
X011156Y026486D01*
X011354Y026486D01*
X011494Y026346D01*
X011404Y026309D01*
X011404Y026185D01*
X011317Y026098D01*
X011193Y026098D01*
X011106Y026185D01*
X011106Y026309D01*
X011193Y026396D01*
X011317Y026396D01*
X011404Y026309D01*
X011314Y026272D01*
X011314Y026222D01*
X011280Y026188D01*
X011230Y026188D01*
X011196Y026222D01*
X011196Y026272D01*
X011230Y026306D01*
X011280Y026306D01*
X011314Y026272D01*
X012141Y026993D02*
X012201Y027053D01*
X012201Y026855D01*
X012061Y026715D01*
X011863Y026715D01*
X011723Y026855D01*
X011723Y027053D01*
X011863Y027193D01*
X012061Y027193D01*
X012201Y027053D01*
X012111Y027016D01*
X012111Y026892D01*
X012024Y026805D01*
X011900Y026805D01*
X011813Y026892D01*
X011813Y027016D01*
X011900Y027103D01*
X012024Y027103D01*
X012111Y027016D01*
X012021Y026979D01*
X012021Y026929D01*
X011987Y026895D01*
X011937Y026895D01*
X011903Y026929D01*
X011903Y026979D01*
X011937Y027013D01*
X011987Y027013D01*
X012021Y026979D01*
X009141Y026993D02*
X009201Y027053D01*
X009201Y026855D01*
X009061Y026715D01*
X008863Y026715D01*
X008723Y026855D01*
X008723Y027053D01*
X008863Y027193D01*
X009061Y027193D01*
X009201Y027053D01*
X009111Y027016D01*
X009111Y026892D01*
X009024Y026805D01*
X008900Y026805D01*
X008813Y026892D01*
X008813Y027016D01*
X008900Y027103D01*
X009024Y027103D01*
X009111Y027016D01*
X009021Y026979D01*
X009021Y026929D01*
X008987Y026895D01*
X008937Y026895D01*
X008903Y026929D01*
X008903Y026979D01*
X008937Y027013D01*
X008987Y027013D01*
X009021Y026979D01*
X008434Y026286D02*
X008494Y026346D01*
X008494Y026148D01*
X008354Y026008D01*
X008156Y026008D01*
X008016Y026148D01*
X008016Y026346D01*
X008156Y026486D01*
X008354Y026486D01*
X008494Y026346D01*
X008404Y026309D01*
X008404Y026185D01*
X008317Y026098D01*
X008193Y026098D01*
X008106Y026185D01*
X008106Y026309D01*
X008193Y026396D01*
X008317Y026396D01*
X008404Y026309D01*
X008314Y026272D01*
X008314Y026222D01*
X008280Y026188D01*
X008230Y026188D01*
X008196Y026222D01*
X008196Y026272D01*
X008230Y026306D01*
X008280Y026306D01*
X008314Y026272D01*
X009141Y023993D02*
X009201Y024053D01*
X009201Y023855D01*
X009061Y023715D01*
X008863Y023715D01*
X008723Y023855D01*
X008723Y024053D01*
X008863Y024193D01*
X009061Y024193D01*
X009201Y024053D01*
X009111Y024016D01*
X009111Y023892D01*
X009024Y023805D01*
X008900Y023805D01*
X008813Y023892D01*
X008813Y024016D01*
X008900Y024103D01*
X009024Y024103D01*
X009111Y024016D01*
X009021Y023979D01*
X009021Y023929D01*
X008987Y023895D01*
X008937Y023895D01*
X008903Y023929D01*
X008903Y023979D01*
X008937Y024013D01*
X008987Y024013D01*
X009021Y023979D01*
X008434Y023286D02*
X008494Y023346D01*
X008494Y023148D01*
X008354Y023008D01*
X008156Y023008D01*
X008016Y023148D01*
X008016Y023346D01*
X008156Y023486D01*
X008354Y023486D01*
X008494Y023346D01*
X008404Y023309D01*
X008404Y023185D01*
X008317Y023098D01*
X008193Y023098D01*
X008106Y023185D01*
X008106Y023309D01*
X008193Y023396D01*
X008317Y023396D01*
X008404Y023309D01*
X008314Y023272D01*
X008314Y023222D01*
X008280Y023188D01*
X008230Y023188D01*
X008196Y023222D01*
X008196Y023272D01*
X008230Y023306D01*
X008280Y023306D01*
X008314Y023272D01*
X009141Y020993D02*
X009201Y021053D01*
X009201Y020855D01*
X009061Y020715D01*
X008863Y020715D01*
X008723Y020855D01*
X008723Y021053D01*
X008863Y021193D01*
X009061Y021193D01*
X009201Y021053D01*
X009111Y021016D01*
X009111Y020892D01*
X009024Y020805D01*
X008900Y020805D01*
X008813Y020892D01*
X008813Y021016D01*
X008900Y021103D01*
X009024Y021103D01*
X009111Y021016D01*
X009021Y020979D01*
X009021Y020929D01*
X008987Y020895D01*
X008937Y020895D01*
X008903Y020929D01*
X008903Y020979D01*
X008937Y021013D01*
X008987Y021013D01*
X009021Y020979D01*
X008434Y020286D02*
X008494Y020346D01*
X008494Y020148D01*
X008354Y020008D01*
X008156Y020008D01*
X008016Y020148D01*
X008016Y020346D01*
X008156Y020486D01*
X008354Y020486D01*
X008494Y020346D01*
X008404Y020309D01*
X008404Y020185D01*
X008317Y020098D01*
X008193Y020098D01*
X008106Y020185D01*
X008106Y020309D01*
X008193Y020396D01*
X008317Y020396D01*
X008404Y020309D01*
X008314Y020272D01*
X008314Y020222D01*
X008280Y020188D01*
X008230Y020188D01*
X008196Y020222D01*
X008196Y020272D01*
X008230Y020306D01*
X008280Y020306D01*
X008314Y020272D01*
X006141Y020993D02*
X006201Y021053D01*
X006201Y020855D01*
X006061Y020715D01*
X005863Y020715D01*
X005723Y020855D01*
X005723Y021053D01*
X005863Y021193D01*
X006061Y021193D01*
X006201Y021053D01*
X006111Y021016D01*
X006111Y020892D01*
X006024Y020805D01*
X005900Y020805D01*
X005813Y020892D01*
X005813Y021016D01*
X005900Y021103D01*
X006024Y021103D01*
X006111Y021016D01*
X006021Y020979D01*
X006021Y020929D01*
X005987Y020895D01*
X005937Y020895D01*
X005903Y020929D01*
X005903Y020979D01*
X005937Y021013D01*
X005987Y021013D01*
X006021Y020979D01*
X005434Y020286D02*
X005494Y020346D01*
X005494Y020148D01*
X005354Y020008D01*
X005156Y020008D01*
X005016Y020148D01*
X005016Y020346D01*
X005156Y020486D01*
X005354Y020486D01*
X005494Y020346D01*
X005404Y020309D01*
X005404Y020185D01*
X005317Y020098D01*
X005193Y020098D01*
X005106Y020185D01*
X005106Y020309D01*
X005193Y020396D01*
X005317Y020396D01*
X005404Y020309D01*
X005314Y020272D01*
X005314Y020222D01*
X005280Y020188D01*
X005230Y020188D01*
X005196Y020222D01*
X005196Y020272D01*
X005230Y020306D01*
X005280Y020306D01*
X005314Y020272D01*
X005434Y023286D02*
X005494Y023346D01*
X005494Y023148D01*
X005354Y023008D01*
X005156Y023008D01*
X005016Y023148D01*
X005016Y023346D01*
X005156Y023486D01*
X005354Y023486D01*
X005494Y023346D01*
X005404Y023309D01*
X005404Y023185D01*
X005317Y023098D01*
X005193Y023098D01*
X005106Y023185D01*
X005106Y023309D01*
X005193Y023396D01*
X005317Y023396D01*
X005404Y023309D01*
X005314Y023272D01*
X005314Y023222D01*
X005280Y023188D01*
X005230Y023188D01*
X005196Y023222D01*
X005196Y023272D01*
X005230Y023306D01*
X005280Y023306D01*
X005314Y023272D01*
X006141Y023993D02*
X006201Y024053D01*
X006201Y023855D01*
X006061Y023715D01*
X005863Y023715D01*
X005723Y023855D01*
X005723Y024053D01*
X005863Y024193D01*
X006061Y024193D01*
X006201Y024053D01*
X006111Y024016D01*
X006111Y023892D01*
X006024Y023805D01*
X005900Y023805D01*
X005813Y023892D01*
X005813Y024016D01*
X005900Y024103D01*
X006024Y024103D01*
X006111Y024016D01*
X006021Y023979D01*
X006021Y023929D01*
X005987Y023895D01*
X005937Y023895D01*
X005903Y023929D01*
X005903Y023979D01*
X005937Y024013D01*
X005987Y024013D01*
X006021Y023979D01*
X005434Y026286D02*
X005494Y026346D01*
X005494Y026148D01*
X005354Y026008D01*
X005156Y026008D01*
X005016Y026148D01*
X005016Y026346D01*
X005156Y026486D01*
X005354Y026486D01*
X005494Y026346D01*
X005404Y026309D01*
X005404Y026185D01*
X005317Y026098D01*
X005193Y026098D01*
X005106Y026185D01*
X005106Y026309D01*
X005193Y026396D01*
X005317Y026396D01*
X005404Y026309D01*
X005314Y026272D01*
X005314Y026222D01*
X005280Y026188D01*
X005230Y026188D01*
X005196Y026222D01*
X005196Y026272D01*
X005230Y026306D01*
X005280Y026306D01*
X005314Y026272D01*
X006141Y026993D02*
X006201Y027053D01*
X006201Y026855D01*
X006061Y026715D01*
X005863Y026715D01*
X005723Y026855D01*
X005723Y027053D01*
X005863Y027193D01*
X006061Y027193D01*
X006201Y027053D01*
X006111Y027016D01*
X006111Y026892D01*
X006024Y026805D01*
X005900Y026805D01*
X005813Y026892D01*
X005813Y027016D01*
X005900Y027103D01*
X006024Y027103D01*
X006111Y027016D01*
X006021Y026979D01*
X006021Y026929D01*
X005987Y026895D01*
X005937Y026895D01*
X005903Y026929D01*
X005903Y026979D01*
X005937Y027013D01*
X005987Y027013D01*
X006021Y026979D01*
X023434Y023286D02*
X023494Y023346D01*
X023494Y023148D01*
X023354Y023008D01*
X023156Y023008D01*
X023016Y023148D01*
X023016Y023346D01*
X023156Y023486D01*
X023354Y023486D01*
X023494Y023346D01*
X023404Y023309D01*
X023404Y023185D01*
X023317Y023098D01*
X023193Y023098D01*
X023106Y023185D01*
X023106Y023309D01*
X023193Y023396D01*
X023317Y023396D01*
X023404Y023309D01*
X023314Y023272D01*
X023314Y023222D01*
X023280Y023188D01*
X023230Y023188D01*
X023196Y023222D01*
X023196Y023272D01*
X023230Y023306D01*
X023280Y023306D01*
X023314Y023272D01*
X024141Y023993D02*
X024201Y024053D01*
X024201Y023855D01*
X024061Y023715D01*
X023863Y023715D01*
X023723Y023855D01*
X023723Y024053D01*
X023863Y024193D01*
X024061Y024193D01*
X024201Y024053D01*
X024111Y024016D01*
X024111Y023892D01*
X024024Y023805D01*
X023900Y023805D01*
X023813Y023892D01*
X023813Y024016D01*
X023900Y024103D01*
X024024Y024103D01*
X024111Y024016D01*
X024021Y023979D01*
X024021Y023929D01*
X023987Y023895D01*
X023937Y023895D01*
X023903Y023929D01*
X023903Y023979D01*
X023937Y024013D01*
X023987Y024013D01*
X024021Y023979D01*
X024141Y020993D02*
X024201Y021053D01*
X024201Y020855D01*
X024061Y020715D01*
X023863Y020715D01*
X023723Y020855D01*
X023723Y021053D01*
X023863Y021193D01*
X024061Y021193D01*
X024201Y021053D01*
X024111Y021016D01*
X024111Y020892D01*
X024024Y020805D01*
X023900Y020805D01*
X023813Y020892D01*
X023813Y021016D01*
X023900Y021103D01*
X024024Y021103D01*
X024111Y021016D01*
X024021Y020979D01*
X024021Y020929D01*
X023987Y020895D01*
X023937Y020895D01*
X023903Y020929D01*
X023903Y020979D01*
X023937Y021013D01*
X023987Y021013D01*
X024021Y020979D01*
X023434Y020286D02*
X023494Y020346D01*
X023494Y020148D01*
X023354Y020008D01*
X023156Y020008D01*
X023016Y020148D01*
X023016Y020346D01*
X023156Y020486D01*
X023354Y020486D01*
X023494Y020346D01*
X023404Y020309D01*
X023404Y020185D01*
X023317Y020098D01*
X023193Y020098D01*
X023106Y020185D01*
X023106Y020309D01*
X023193Y020396D01*
X023317Y020396D01*
X023404Y020309D01*
X023314Y020272D01*
X023314Y020222D01*
X023280Y020188D01*
X023230Y020188D01*
X023196Y020222D01*
X023196Y020272D01*
X023230Y020306D01*
X023280Y020306D01*
X023314Y020272D01*
X024141Y017993D02*
X024201Y018053D01*
X024201Y017855D01*
X024061Y017715D01*
X023863Y017715D01*
X023723Y017855D01*
X023723Y018053D01*
X023863Y018193D01*
X024061Y018193D01*
X024201Y018053D01*
X024111Y018016D01*
X024111Y017892D01*
X024024Y017805D01*
X023900Y017805D01*
X023813Y017892D01*
X023813Y018016D01*
X023900Y018103D01*
X024024Y018103D01*
X024111Y018016D01*
X024021Y017979D01*
X024021Y017929D01*
X023987Y017895D01*
X023937Y017895D01*
X023903Y017929D01*
X023903Y017979D01*
X023937Y018013D01*
X023987Y018013D01*
X024021Y017979D01*
X023434Y017286D02*
X023494Y017346D01*
X023494Y017148D01*
X023354Y017008D01*
X023156Y017008D01*
X023016Y017148D01*
X023016Y017346D01*
X023156Y017486D01*
X023354Y017486D01*
X023494Y017346D01*
X023404Y017309D01*
X023404Y017185D01*
X023317Y017098D01*
X023193Y017098D01*
X023106Y017185D01*
X023106Y017309D01*
X023193Y017396D01*
X023317Y017396D01*
X023404Y017309D01*
X023314Y017272D01*
X023314Y017222D01*
X023280Y017188D01*
X023230Y017188D01*
X023196Y017222D01*
X023196Y017272D01*
X023230Y017306D01*
X023280Y017306D01*
X023314Y017272D01*
X024141Y014993D02*
X024201Y015053D01*
X024201Y014855D01*
X024061Y014715D01*
X023863Y014715D01*
X023723Y014855D01*
X023723Y015053D01*
X023863Y015193D01*
X024061Y015193D01*
X024201Y015053D01*
X024111Y015016D01*
X024111Y014892D01*
X024024Y014805D01*
X023900Y014805D01*
X023813Y014892D01*
X023813Y015016D01*
X023900Y015103D01*
X024024Y015103D01*
X024111Y015016D01*
X024021Y014979D01*
X024021Y014929D01*
X023987Y014895D01*
X023937Y014895D01*
X023903Y014929D01*
X023903Y014979D01*
X023937Y015013D01*
X023987Y015013D01*
X024021Y014979D01*
X023434Y014286D02*
X023494Y014346D01*
X023494Y014148D01*
X023354Y014008D01*
X023156Y014008D01*
X023016Y014148D01*
X023016Y014346D01*
X023156Y014486D01*
X023354Y014486D01*
X023494Y014346D01*
X023404Y014309D01*
X023404Y014185D01*
X023317Y014098D01*
X023193Y014098D01*
X023106Y014185D01*
X023106Y014309D01*
X023193Y014396D01*
X023317Y014396D01*
X023404Y014309D01*
X023314Y014272D01*
X023314Y014222D01*
X023280Y014188D01*
X023230Y014188D01*
X023196Y014222D01*
X023196Y014272D01*
X023230Y014306D01*
X023280Y014306D01*
X023314Y014272D01*
X024141Y011993D02*
X024201Y012053D01*
X024201Y011855D01*
X024061Y011715D01*
X023863Y011715D01*
X023723Y011855D01*
X023723Y012053D01*
X023863Y012193D01*
X024061Y012193D01*
X024201Y012053D01*
X024111Y012016D01*
X024111Y011892D01*
X024024Y011805D01*
X023900Y011805D01*
X023813Y011892D01*
X023813Y012016D01*
X023900Y012103D01*
X024024Y012103D01*
X024111Y012016D01*
X024021Y011979D01*
X024021Y011929D01*
X023987Y011895D01*
X023937Y011895D01*
X023903Y011929D01*
X023903Y011979D01*
X023937Y012013D01*
X023987Y012013D01*
X024021Y011979D01*
X023434Y011286D02*
X023494Y011346D01*
X023494Y011148D01*
X023354Y011008D01*
X023156Y011008D01*
X023016Y011148D01*
X023016Y011346D01*
X023156Y011486D01*
X023354Y011486D01*
X023494Y011346D01*
X023404Y011309D01*
X023404Y011185D01*
X023317Y011098D01*
X023193Y011098D01*
X023106Y011185D01*
X023106Y011309D01*
X023193Y011396D01*
X023317Y011396D01*
X023404Y011309D01*
X023314Y011272D01*
X023314Y011222D01*
X023280Y011188D01*
X023230Y011188D01*
X023196Y011222D01*
X023196Y011272D01*
X023230Y011306D01*
X023280Y011306D01*
X023314Y011272D01*
X024141Y008993D02*
X024201Y009053D01*
X024201Y008855D01*
X024061Y008715D01*
X023863Y008715D01*
X023723Y008855D01*
X023723Y009053D01*
X023863Y009193D01*
X024061Y009193D01*
X024201Y009053D01*
X024111Y009016D01*
X024111Y008892D01*
X024024Y008805D01*
X023900Y008805D01*
X023813Y008892D01*
X023813Y009016D01*
X023900Y009103D01*
X024024Y009103D01*
X024111Y009016D01*
X024021Y008979D01*
X024021Y008929D01*
X023987Y008895D01*
X023937Y008895D01*
X023903Y008929D01*
X023903Y008979D01*
X023937Y009013D01*
X023987Y009013D01*
X024021Y008979D01*
X023434Y008286D02*
X023494Y008346D01*
X023494Y008148D01*
X023354Y008008D01*
X023156Y008008D01*
X023016Y008148D01*
X023016Y008346D01*
X023156Y008486D01*
X023354Y008486D01*
X023494Y008346D01*
X023404Y008309D01*
X023404Y008185D01*
X023317Y008098D01*
X023193Y008098D01*
X023106Y008185D01*
X023106Y008309D01*
X023193Y008396D01*
X023317Y008396D01*
X023404Y008309D01*
X023314Y008272D01*
X023314Y008222D01*
X023280Y008188D01*
X023230Y008188D01*
X023196Y008222D01*
X023196Y008272D01*
X023230Y008306D01*
X023280Y008306D01*
X023314Y008272D01*
D11*
X022719Y004181D02*
X022719Y003581D01*
X021499Y003581D02*
X021499Y004181D01*
X019719Y004181D02*
X019719Y003581D01*
X018499Y003581D02*
X018499Y004181D01*
X016719Y004181D02*
X016719Y003581D01*
X015499Y003581D02*
X015499Y004181D01*
X013719Y004181D02*
X013719Y003581D01*
X012499Y003581D02*
X012499Y004181D01*
X010719Y004181D02*
X010719Y003581D01*
X009499Y003581D02*
X009499Y004181D01*
X007719Y004181D02*
X007719Y003581D01*
X006499Y003581D02*
X006499Y004181D01*
X004719Y004181D02*
X004719Y003581D01*
X004189Y004711D02*
X003589Y004711D01*
X003589Y006491D02*
X004189Y006491D01*
X004189Y007711D02*
X003589Y007711D01*
X003589Y009491D02*
X004189Y009491D01*
X004189Y010711D02*
X003589Y010711D01*
X003589Y012491D02*
X004189Y012491D01*
X004189Y013711D02*
X003589Y013711D01*
X003589Y015491D02*
X004189Y015491D01*
X004189Y016711D02*
X003589Y016711D01*
X003589Y018491D02*
X004189Y018491D01*
X004189Y019711D02*
X003589Y019711D01*
X003589Y021491D02*
X004189Y021491D01*
X004189Y022711D02*
X003589Y022711D01*
X003589Y024491D02*
X004189Y024491D01*
X004189Y025711D02*
X003589Y025711D01*
X003589Y027491D02*
X004189Y027491D01*
X001629Y027491D02*
X001029Y027491D01*
X001029Y025711D02*
X001629Y025711D01*
X001629Y024491D02*
X001029Y024491D01*
X001029Y022711D02*
X001629Y022711D01*
X001629Y021491D02*
X001029Y021491D01*
X001029Y019711D02*
X001629Y019711D01*
X001629Y018491D02*
X001029Y018491D01*
X001029Y016711D02*
X001629Y016711D01*
X001629Y015491D02*
X001029Y015491D01*
X001029Y013711D02*
X001629Y013711D01*
X001629Y012491D02*
X001029Y012491D01*
X001029Y010711D02*
X001629Y010711D01*
X001629Y009491D02*
X001029Y009491D01*
X001029Y007711D02*
X001629Y007711D01*
X001629Y006491D02*
X001029Y006491D01*
X001029Y004711D02*
X001629Y004711D01*
X004719Y001621D02*
X004719Y001021D01*
X006499Y001021D02*
X006499Y001621D01*
X007719Y001621D02*
X007719Y001021D01*
X009499Y001021D02*
X009499Y001621D01*
X010719Y001621D02*
X010719Y001021D01*
X012499Y001021D02*
X012499Y001621D01*
X013719Y001621D02*
X013719Y001021D01*
X015499Y001021D02*
X015499Y001621D01*
X016719Y001621D02*
X016719Y001021D01*
X018499Y001021D02*
X018499Y001621D01*
X019719Y001621D02*
X019719Y001021D01*
X021499Y001021D02*
X021499Y001621D01*
X022719Y001621D02*
X022719Y001021D01*
X024499Y001021D02*
X024499Y001621D01*
X025719Y001621D02*
X025719Y001021D01*
X027499Y001021D02*
X027499Y001621D01*
X027499Y003581D02*
X027499Y004181D01*
X025719Y004181D02*
X025719Y003581D01*
X024499Y003581D02*
X024499Y004181D01*
X029309Y012101D02*
X029909Y012101D01*
X029909Y013101D02*
X029309Y013101D01*
X029309Y014101D02*
X029909Y014101D01*
X029909Y015101D02*
X029309Y015101D01*
X029309Y016101D02*
X029909Y016101D01*
X029909Y017101D02*
X029309Y017101D01*
X029309Y018101D02*
X029909Y018101D01*
X029909Y019101D02*
X029309Y019101D01*
X026109Y029801D02*
X026109Y030401D01*
X025109Y030401D02*
X025109Y029801D01*
X024109Y029801D02*
X024109Y030401D01*
X023109Y030401D02*
X023109Y029801D01*
X022109Y029801D02*
X022109Y030401D01*
X021109Y030401D02*
X021109Y029801D01*
X020109Y029801D02*
X020109Y030401D01*
X019109Y030401D02*
X019109Y029801D01*
X015109Y029801D02*
X015109Y030401D01*
X014109Y030401D02*
X014109Y029801D01*
X013109Y029801D02*
X013109Y030401D01*
X012109Y030401D02*
X012109Y029801D01*
X011109Y029801D02*
X011109Y030401D01*
X010109Y030401D02*
X010109Y029801D01*
X009109Y029801D02*
X009109Y030401D01*
X008109Y030401D02*
X008109Y029801D01*
D12*
X002609Y002601D03*
X002609Y029601D03*
X029609Y029601D03*
X029609Y002601D03*
D13*
X026609Y002601D03*
X023609Y002601D03*
X020609Y002601D03*
X017609Y002601D03*
X014609Y002601D03*
X011609Y002601D03*
X008609Y002601D03*
X005609Y002601D03*
X002609Y005601D03*
X002609Y008601D03*
X002609Y011601D03*
X002609Y014601D03*
X002609Y017601D03*
X002609Y020601D03*
X002609Y023601D03*
X002609Y026601D03*
X006609Y028351D03*
X007359Y025351D03*
X010359Y022351D03*
X013359Y019351D03*
X016359Y016351D03*
X019359Y013351D03*
X022359Y010351D03*
X025359Y007351D03*
X028359Y007351D03*
M02*
