%
M48
M72
T01C0.0315
T02C0.0320
T03C0.0400
T04C0.1181
%
T01
X23363Y21363
X26363Y18363
X29363Y15363
X32363Y12363
X35363Y9363
X20363Y24363
X17363Y27363
X16363Y30363
T02
X16216Y29216
X15509Y28509
X13216Y29216
X12509Y28509
X13216Y26216
X12509Y25509
X13216Y23216
X12509Y22509
X13216Y20216
X12509Y19509
X13216Y17216
X12509Y16509
X13216Y14216
X12509Y13509
X13216Y11216
X12509Y10509
X13216Y8216
X12509Y7509
X15509Y7509
X16216Y8216
X18509Y7509
X19216Y8216
X21509Y7509
X22216Y8216
X24509Y7509
X25216Y8216
X27509Y7509
X28216Y8216
X30509Y7509
X31216Y8216
X33509Y7509
X34216Y8216
X33509Y10509
X34216Y11216
X33509Y13509
X34216Y14216
X33509Y16509
X34216Y17216
X33509Y19509
X34216Y20216
X33509Y22509
X34216Y23216
X33509Y25509
X34216Y26216
X33509Y28509
X34216Y29216
X31216Y29216
X30509Y28509
X31216Y26216
X30509Y25509
X28216Y26216
X27509Y25509
X25216Y26216
X24509Y25509
X22216Y26216
X21509Y25509
X19216Y26216
X18509Y25509
X16216Y26216
X15509Y25509
X16216Y23216
X15509Y22509
X16216Y20216
X15509Y19509
X16216Y17216
X15509Y16509
X16216Y14216
X15509Y13509
X16216Y11216
X15509Y10509
X18509Y10509
X19216Y11216
X21509Y10509
X22216Y11216
X24509Y10509
X25216Y11216
X27509Y10509
X28216Y11216
X30509Y10509
X31216Y11216
X30509Y13509
X31216Y14216
X30509Y16509
X31216Y17216
X30509Y19509
X31216Y20216
X30509Y22509
X31216Y23216
X28216Y23216
X27509Y22509
X25216Y23216
X24509Y22509
X22216Y23216
X21509Y22509
X19216Y23216
X18509Y22509
X19216Y20216
X18509Y19509
X19216Y17216
X18509Y16509
X19216Y14216
X18509Y13509
X21509Y13509
X22216Y14216
X21509Y16509
X22216Y17216
X24509Y16509
X25216Y17216
X27509Y16509
X28216Y17216
X27509Y19509
X28216Y20216
X25216Y20216
X24509Y19509
X22216Y20216
X21509Y19509
X25216Y14216
X24509Y13509
X27509Y13509
X28216Y14216
X26863Y2363
X26863Y1363
X29863Y1363
X29863Y2363
X32863Y1363
X23863Y1363
X23863Y2363
X20863Y2363
X20863Y1363
X17863Y1363
X17863Y2363
X14863Y2363
X14863Y1363
X11863Y1363
X11863Y2363
X8863Y2363
X6863Y4863
X6863Y7863
X3741Y7191
X3034Y6484
X3863Y5320
X3156Y4613
X6923Y10802
X4802Y12923
X6923Y13802
X4802Y15923
X6923Y16802
X4802Y18923
X6923Y19802
X4802Y21923
X6923Y22802
X4802Y24923
X6923Y25802
X4802Y27923
X6923Y28802
X4802Y30923
X1363Y27863
X1363Y24863
X18509Y28509
X19216Y29216
X21509Y28509
X22216Y29216
X24509Y28509
X25216Y29216
X27509Y28509
X28216Y29216
T03
X2363Y1863
X3363Y1863
X4363Y1863
X5363Y1863
X8583Y6973
X8583Y8753
X8583Y9973
X8583Y11753
X8583Y12973
X8583Y14753
X8583Y15973
X8583Y17753
X8583Y18973
X8583Y20753
X8583Y21973
X8583Y23753
X8583Y24973
X8583Y26753
X8583Y27973
X8583Y29753
X11143Y29753
X11143Y27973
X11143Y26753
X11143Y24973
X11143Y23753
X11143Y21973
X11143Y20753
X11143Y18973
X11143Y17753
X11143Y15973
X11143Y14753
X11143Y12973
X11143Y11753
X11143Y9973
X11143Y8753
X11143Y6973
X11973Y6143
X13753Y6143
X14973Y6143
X16753Y6143
X17973Y6143
X19753Y6143
X20973Y6143
X22753Y6143
X23973Y6143
X25753Y6143
X26973Y6143
X28753Y6143
X29973Y6143
X31753Y6143
X32973Y6143
X34753Y6143
X34753Y3583
X32973Y3583
X31753Y3583
X29973Y3583
X28753Y3583
X26973Y3583
X25753Y3583
X23973Y3583
X22753Y3583
X20973Y3583
X19753Y3583
X17973Y3583
X16753Y3583
X14973Y3583
X13753Y3583
X11973Y3583
X4643Y8473
X4643Y10253
X2083Y10253
X2083Y8473
X2363Y15863
X2363Y16863
X2363Y17863
X2363Y18863
X2363Y19863
X2363Y20863
X2363Y21863
X2363Y22863
X2863Y32363
X3863Y32363
X1863Y32363
X19863Y32363
X20863Y32363
X21863Y32363
X22863Y32363
X23863Y32363
X24863Y32363
X25863Y32363
X26863Y32363
X37363Y21863
X37363Y20863
X37363Y19863
X37363Y18863
X37363Y17863
X37363Y16863
X37363Y15863
X37363Y14863
T04
X36863Y4863
X9863Y4863
X9863Y32363
X36863Y32363
M30
