%
M48
M72
T01C0.0315
T02C0.0320
T03C0.0400
T04C0.1181
%
T01
X19351Y18399
X16351Y21399
X13351Y24399
X10351Y27399
X7351Y30399
X22351Y15399
X25351Y12399
X28351Y9399
T02
X27204Y8252
X26497Y7545
X26851Y6399
X24204Y8252
X23497Y7545
X23851Y6399
X21204Y8252
X20497Y7545
X20851Y6399
X18204Y8252
X17497Y7545
X17851Y6399
X17851Y3399
X20851Y3399
X23851Y3399
X26851Y3399
X26497Y10545
X27204Y11252
X26497Y13545
X27204Y14252
X26497Y16545
X27204Y17252
X26497Y19545
X27204Y20252
X26497Y22545
X27204Y23252
X26497Y25545
X27204Y26252
X26497Y28545
X27204Y29252
X24204Y29252
X23497Y28545
X21204Y29252
X20497Y28545
X18204Y29252
X17497Y28545
X15204Y29252
X14497Y28545
X12204Y29252
X11497Y28545
X12204Y26252
X11497Y25545
X12204Y23252
X11497Y22545
X12204Y20252
X11497Y19545
X12204Y17252
X11497Y16545
X12204Y14252
X11497Y13545
X12204Y11252
X11497Y10545
X12204Y8252
X11497Y7545
X11851Y6399
X14497Y7545
X15204Y8252
X14851Y6399
X14851Y3399
X11851Y3399
X8851Y3399
X8851Y6399
X8497Y7545
X9204Y8252
X8497Y10545
X9204Y11252
X8497Y13545
X9204Y14252
X8497Y16545
X9204Y17252
X8497Y19545
X9204Y20252
X8497Y22545
X9204Y23252
X8497Y25545
X9204Y26252
X8497Y28545
X9204Y29252
X6204Y29252
X5497Y28545
X4351Y28899
X6204Y26252
X5497Y25545
X4351Y25899
X6204Y23252
X5497Y22545
X4351Y22899
X6204Y20252
X5497Y19545
X4351Y19899
X6204Y17252
X5497Y16545
X4351Y16899
X6204Y14252
X5497Y13545
X4351Y13899
X6204Y11252
X5497Y10545
X4351Y10899
X6204Y8252
X5497Y7545
X4351Y7899
X5851Y6399
X5851Y3399
X1351Y7899
X1351Y10899
X1351Y13899
X1351Y16899
X1351Y19899
X1351Y22899
X1351Y25899
X1351Y28899
X14497Y25545
X15204Y26252
X17497Y25545
X18204Y26252
X20497Y25545
X21204Y26252
X23497Y25545
X24204Y26252
X24204Y23252
X23497Y22545
X24204Y20252
X23497Y19545
X21204Y20252
X20497Y19545
X18204Y20252
X17497Y19545
X15204Y20252
X14497Y19545
X15204Y17252
X14497Y16545
X15204Y14252
X14497Y13545
X15204Y11252
X14497Y10545
X17497Y10545
X18204Y11252
X17497Y13545
X18204Y14252
X17497Y16545
X18204Y17252
X20497Y16545
X21204Y17252
X23497Y16545
X24204Y17252
X24204Y14252
X23497Y13545
X21204Y14252
X20497Y13545
X21204Y11252
X20497Y10545
X23497Y10545
X24204Y11252
X20497Y22545
X21204Y23252
X18204Y23252
X17497Y22545
X15204Y23252
X14497Y22545
T03
X14351Y32399
X15351Y32399
X13351Y32399
X12351Y32399
X11351Y32399
X10351Y32399
X9351Y32399
X8351Y32399
X7351Y32399
X6351Y32399
X4131Y29789
X4131Y28009
X4131Y26789
X4131Y25009
X4131Y23789
X4131Y22009
X4131Y20789
X4131Y19009
X4131Y17789
X4131Y16009
X4131Y14789
X4131Y13009
X4131Y11789
X4131Y10009
X4131Y8789
X4131Y7009
X4961Y6179
X6741Y6179
X7961Y6179
X9741Y6179
X10961Y6179
X12741Y6179
X13961Y6179
X15741Y6179
X16961Y6179
X18741Y6179
X19961Y6179
X21741Y6179
X22961Y6179
X24741Y6179
X25961Y6179
X27741Y6179
X27741Y3619
X25961Y3619
X24741Y3619
X22961Y3619
X21741Y3619
X19961Y3619
X18741Y3619
X16961Y3619
X15741Y3619
X13961Y3619
X12741Y3619
X10961Y3619
X9741Y3619
X7961Y3619
X6741Y3619
X4961Y3619
X1571Y7009
X1571Y8789
X1571Y10009
X1571Y11789
X1571Y13009
X1571Y14789
X1571Y16009
X1571Y17789
X1571Y19009
X1571Y20789
X1571Y22009
X1571Y23789
X1571Y25009
X1571Y26789
X1571Y28009
X1571Y29789
X19351Y32399
X20351Y32399
X21351Y32399
X22351Y32399
X23351Y32399
X24351Y32399
X25351Y32399
X26351Y32399
X30351Y21899
X30351Y20899
X30351Y19899
X30351Y18899
X30351Y17899
X30351Y16899
X30351Y15899
X30351Y14899
T04
X2851Y4899
X2851Y31899
X29851Y31899
X29851Y4899
M30
