G75*
G70*
%OFA0B0*%
%FSLAX24Y24*%
%IPPOS*%
%LPD*%
%AMOC8*
5,1,8,0,0,1.08239X$1,22.5*
%
%ADD10C,0.0000*%
%ADD11C,0.0104*%
%ADD12C,0.0600*%
%ADD13C,0.0520*%
%ADD14C,0.0160*%
%ADD15R,0.0475X0.0475*%
D10*
X000101Y002399D02*
X000101Y034145D01*
X031721Y034145D01*
X031721Y002399D01*
X000101Y002399D01*
X002260Y004899D02*
X002262Y004947D01*
X002268Y004995D01*
X002278Y005042D01*
X002291Y005088D01*
X002309Y005133D01*
X002329Y005177D01*
X002354Y005219D01*
X002382Y005258D01*
X002412Y005295D01*
X002446Y005329D01*
X002483Y005361D01*
X002521Y005390D01*
X002562Y005415D01*
X002605Y005437D01*
X002650Y005455D01*
X002696Y005469D01*
X002743Y005480D01*
X002791Y005487D01*
X002839Y005490D01*
X002887Y005489D01*
X002935Y005484D01*
X002983Y005475D01*
X003029Y005463D01*
X003074Y005446D01*
X003118Y005426D01*
X003160Y005403D01*
X003200Y005376D01*
X003238Y005346D01*
X003273Y005313D01*
X003305Y005277D01*
X003335Y005239D01*
X003361Y005198D01*
X003383Y005155D01*
X003403Y005111D01*
X003418Y005066D01*
X003430Y005019D01*
X003438Y004971D01*
X003442Y004923D01*
X003442Y004875D01*
X003438Y004827D01*
X003430Y004779D01*
X003418Y004732D01*
X003403Y004687D01*
X003383Y004643D01*
X003361Y004600D01*
X003335Y004559D01*
X003305Y004521D01*
X003273Y004485D01*
X003238Y004452D01*
X003200Y004422D01*
X003160Y004395D01*
X003118Y004372D01*
X003074Y004352D01*
X003029Y004335D01*
X002983Y004323D01*
X002935Y004314D01*
X002887Y004309D01*
X002839Y004308D01*
X002791Y004311D01*
X002743Y004318D01*
X002696Y004329D01*
X002650Y004343D01*
X002605Y004361D01*
X002562Y004383D01*
X002521Y004408D01*
X002483Y004437D01*
X002446Y004469D01*
X002412Y004503D01*
X002382Y004540D01*
X002354Y004579D01*
X002329Y004621D01*
X002309Y004665D01*
X002291Y004710D01*
X002278Y004756D01*
X002268Y004803D01*
X002262Y004851D01*
X002260Y004899D01*
X002260Y031899D02*
X002262Y031947D01*
X002268Y031995D01*
X002278Y032042D01*
X002291Y032088D01*
X002309Y032133D01*
X002329Y032177D01*
X002354Y032219D01*
X002382Y032258D01*
X002412Y032295D01*
X002446Y032329D01*
X002483Y032361D01*
X002521Y032390D01*
X002562Y032415D01*
X002605Y032437D01*
X002650Y032455D01*
X002696Y032469D01*
X002743Y032480D01*
X002791Y032487D01*
X002839Y032490D01*
X002887Y032489D01*
X002935Y032484D01*
X002983Y032475D01*
X003029Y032463D01*
X003074Y032446D01*
X003118Y032426D01*
X003160Y032403D01*
X003200Y032376D01*
X003238Y032346D01*
X003273Y032313D01*
X003305Y032277D01*
X003335Y032239D01*
X003361Y032198D01*
X003383Y032155D01*
X003403Y032111D01*
X003418Y032066D01*
X003430Y032019D01*
X003438Y031971D01*
X003442Y031923D01*
X003442Y031875D01*
X003438Y031827D01*
X003430Y031779D01*
X003418Y031732D01*
X003403Y031687D01*
X003383Y031643D01*
X003361Y031600D01*
X003335Y031559D01*
X003305Y031521D01*
X003273Y031485D01*
X003238Y031452D01*
X003200Y031422D01*
X003160Y031395D01*
X003118Y031372D01*
X003074Y031352D01*
X003029Y031335D01*
X002983Y031323D01*
X002935Y031314D01*
X002887Y031309D01*
X002839Y031308D01*
X002791Y031311D01*
X002743Y031318D01*
X002696Y031329D01*
X002650Y031343D01*
X002605Y031361D01*
X002562Y031383D01*
X002521Y031408D01*
X002483Y031437D01*
X002446Y031469D01*
X002412Y031503D01*
X002382Y031540D01*
X002354Y031579D01*
X002329Y031621D01*
X002309Y031665D01*
X002291Y031710D01*
X002278Y031756D01*
X002268Y031803D01*
X002262Y031851D01*
X002260Y031899D01*
X029260Y031899D02*
X029262Y031947D01*
X029268Y031995D01*
X029278Y032042D01*
X029291Y032088D01*
X029309Y032133D01*
X029329Y032177D01*
X029354Y032219D01*
X029382Y032258D01*
X029412Y032295D01*
X029446Y032329D01*
X029483Y032361D01*
X029521Y032390D01*
X029562Y032415D01*
X029605Y032437D01*
X029650Y032455D01*
X029696Y032469D01*
X029743Y032480D01*
X029791Y032487D01*
X029839Y032490D01*
X029887Y032489D01*
X029935Y032484D01*
X029983Y032475D01*
X030029Y032463D01*
X030074Y032446D01*
X030118Y032426D01*
X030160Y032403D01*
X030200Y032376D01*
X030238Y032346D01*
X030273Y032313D01*
X030305Y032277D01*
X030335Y032239D01*
X030361Y032198D01*
X030383Y032155D01*
X030403Y032111D01*
X030418Y032066D01*
X030430Y032019D01*
X030438Y031971D01*
X030442Y031923D01*
X030442Y031875D01*
X030438Y031827D01*
X030430Y031779D01*
X030418Y031732D01*
X030403Y031687D01*
X030383Y031643D01*
X030361Y031600D01*
X030335Y031559D01*
X030305Y031521D01*
X030273Y031485D01*
X030238Y031452D01*
X030200Y031422D01*
X030160Y031395D01*
X030118Y031372D01*
X030074Y031352D01*
X030029Y031335D01*
X029983Y031323D01*
X029935Y031314D01*
X029887Y031309D01*
X029839Y031308D01*
X029791Y031311D01*
X029743Y031318D01*
X029696Y031329D01*
X029650Y031343D01*
X029605Y031361D01*
X029562Y031383D01*
X029521Y031408D01*
X029483Y031437D01*
X029446Y031469D01*
X029412Y031503D01*
X029382Y031540D01*
X029354Y031579D01*
X029329Y031621D01*
X029309Y031665D01*
X029291Y031710D01*
X029278Y031756D01*
X029268Y031803D01*
X029262Y031851D01*
X029260Y031899D01*
X029260Y004899D02*
X029262Y004947D01*
X029268Y004995D01*
X029278Y005042D01*
X029291Y005088D01*
X029309Y005133D01*
X029329Y005177D01*
X029354Y005219D01*
X029382Y005258D01*
X029412Y005295D01*
X029446Y005329D01*
X029483Y005361D01*
X029521Y005390D01*
X029562Y005415D01*
X029605Y005437D01*
X029650Y005455D01*
X029696Y005469D01*
X029743Y005480D01*
X029791Y005487D01*
X029839Y005490D01*
X029887Y005489D01*
X029935Y005484D01*
X029983Y005475D01*
X030029Y005463D01*
X030074Y005446D01*
X030118Y005426D01*
X030160Y005403D01*
X030200Y005376D01*
X030238Y005346D01*
X030273Y005313D01*
X030305Y005277D01*
X030335Y005239D01*
X030361Y005198D01*
X030383Y005155D01*
X030403Y005111D01*
X030418Y005066D01*
X030430Y005019D01*
X030438Y004971D01*
X030442Y004923D01*
X030442Y004875D01*
X030438Y004827D01*
X030430Y004779D01*
X030418Y004732D01*
X030403Y004687D01*
X030383Y004643D01*
X030361Y004600D01*
X030335Y004559D01*
X030305Y004521D01*
X030273Y004485D01*
X030238Y004452D01*
X030200Y004422D01*
X030160Y004395D01*
X030118Y004372D01*
X030074Y004352D01*
X030029Y004335D01*
X029983Y004323D01*
X029935Y004314D01*
X029887Y004309D01*
X029839Y004308D01*
X029791Y004311D01*
X029743Y004318D01*
X029696Y004329D01*
X029650Y004343D01*
X029605Y004361D01*
X029562Y004383D01*
X029521Y004408D01*
X029483Y004437D01*
X029446Y004469D01*
X029412Y004503D01*
X029382Y004540D01*
X029354Y004579D01*
X029329Y004621D01*
X029309Y004665D01*
X029291Y004710D01*
X029278Y004756D01*
X029268Y004803D01*
X029262Y004851D01*
X029260Y004899D01*
D11*
X026652Y007579D02*
X026704Y007631D01*
X026704Y007459D01*
X026583Y007338D01*
X026411Y007338D01*
X026290Y007459D01*
X026290Y007631D01*
X026411Y007752D01*
X026583Y007752D01*
X026704Y007631D01*
X026626Y007599D01*
X026626Y007491D01*
X026551Y007416D01*
X026443Y007416D01*
X026368Y007491D01*
X026368Y007599D01*
X026443Y007674D01*
X026551Y007674D01*
X026626Y007599D01*
X026548Y007566D01*
X026548Y007524D01*
X026518Y007494D01*
X026476Y007494D01*
X026446Y007524D01*
X026446Y007566D01*
X026476Y007596D01*
X026518Y007596D01*
X026548Y007566D01*
X027359Y008286D02*
X027411Y008338D01*
X027411Y008166D01*
X027290Y008045D01*
X027118Y008045D01*
X026997Y008166D01*
X026997Y008338D01*
X027118Y008459D01*
X027290Y008459D01*
X027411Y008338D01*
X027333Y008306D01*
X027333Y008198D01*
X027258Y008123D01*
X027150Y008123D01*
X027075Y008198D01*
X027075Y008306D01*
X027150Y008381D01*
X027258Y008381D01*
X027333Y008306D01*
X027255Y008273D01*
X027255Y008231D01*
X027225Y008201D01*
X027183Y008201D01*
X027153Y008231D01*
X027153Y008273D01*
X027183Y008303D01*
X027225Y008303D01*
X027255Y008273D01*
X026652Y010579D02*
X026704Y010631D01*
X026704Y010459D01*
X026583Y010338D01*
X026411Y010338D01*
X026290Y010459D01*
X026290Y010631D01*
X026411Y010752D01*
X026583Y010752D01*
X026704Y010631D01*
X026626Y010599D01*
X026626Y010491D01*
X026551Y010416D01*
X026443Y010416D01*
X026368Y010491D01*
X026368Y010599D01*
X026443Y010674D01*
X026551Y010674D01*
X026626Y010599D01*
X026548Y010566D01*
X026548Y010524D01*
X026518Y010494D01*
X026476Y010494D01*
X026446Y010524D01*
X026446Y010566D01*
X026476Y010596D01*
X026518Y010596D01*
X026548Y010566D01*
X027359Y011286D02*
X027411Y011338D01*
X027411Y011166D01*
X027290Y011045D01*
X027118Y011045D01*
X026997Y011166D01*
X026997Y011338D01*
X027118Y011459D01*
X027290Y011459D01*
X027411Y011338D01*
X027333Y011306D01*
X027333Y011198D01*
X027258Y011123D01*
X027150Y011123D01*
X027075Y011198D01*
X027075Y011306D01*
X027150Y011381D01*
X027258Y011381D01*
X027333Y011306D01*
X027255Y011273D01*
X027255Y011231D01*
X027225Y011201D01*
X027183Y011201D01*
X027153Y011231D01*
X027153Y011273D01*
X027183Y011303D01*
X027225Y011303D01*
X027255Y011273D01*
X026652Y013579D02*
X026704Y013631D01*
X026704Y013459D01*
X026583Y013338D01*
X026411Y013338D01*
X026290Y013459D01*
X026290Y013631D01*
X026411Y013752D01*
X026583Y013752D01*
X026704Y013631D01*
X026626Y013599D01*
X026626Y013491D01*
X026551Y013416D01*
X026443Y013416D01*
X026368Y013491D01*
X026368Y013599D01*
X026443Y013674D01*
X026551Y013674D01*
X026626Y013599D01*
X026548Y013566D01*
X026548Y013524D01*
X026518Y013494D01*
X026476Y013494D01*
X026446Y013524D01*
X026446Y013566D01*
X026476Y013596D01*
X026518Y013596D01*
X026548Y013566D01*
X027359Y014286D02*
X027411Y014338D01*
X027411Y014166D01*
X027290Y014045D01*
X027118Y014045D01*
X026997Y014166D01*
X026997Y014338D01*
X027118Y014459D01*
X027290Y014459D01*
X027411Y014338D01*
X027333Y014306D01*
X027333Y014198D01*
X027258Y014123D01*
X027150Y014123D01*
X027075Y014198D01*
X027075Y014306D01*
X027150Y014381D01*
X027258Y014381D01*
X027333Y014306D01*
X027255Y014273D01*
X027255Y014231D01*
X027225Y014201D01*
X027183Y014201D01*
X027153Y014231D01*
X027153Y014273D01*
X027183Y014303D01*
X027225Y014303D01*
X027255Y014273D01*
X026652Y016579D02*
X026704Y016631D01*
X026704Y016459D01*
X026583Y016338D01*
X026411Y016338D01*
X026290Y016459D01*
X026290Y016631D01*
X026411Y016752D01*
X026583Y016752D01*
X026704Y016631D01*
X026626Y016599D01*
X026626Y016491D01*
X026551Y016416D01*
X026443Y016416D01*
X026368Y016491D01*
X026368Y016599D01*
X026443Y016674D01*
X026551Y016674D01*
X026626Y016599D01*
X026548Y016566D01*
X026548Y016524D01*
X026518Y016494D01*
X026476Y016494D01*
X026446Y016524D01*
X026446Y016566D01*
X026476Y016596D01*
X026518Y016596D01*
X026548Y016566D01*
X027359Y017286D02*
X027411Y017338D01*
X027411Y017166D01*
X027290Y017045D01*
X027118Y017045D01*
X026997Y017166D01*
X026997Y017338D01*
X027118Y017459D01*
X027290Y017459D01*
X027411Y017338D01*
X027333Y017306D01*
X027333Y017198D01*
X027258Y017123D01*
X027150Y017123D01*
X027075Y017198D01*
X027075Y017306D01*
X027150Y017381D01*
X027258Y017381D01*
X027333Y017306D01*
X027255Y017273D01*
X027255Y017231D01*
X027225Y017201D01*
X027183Y017201D01*
X027153Y017231D01*
X027153Y017273D01*
X027183Y017303D01*
X027225Y017303D01*
X027255Y017273D01*
X026652Y019579D02*
X026704Y019631D01*
X026704Y019459D01*
X026583Y019338D01*
X026411Y019338D01*
X026290Y019459D01*
X026290Y019631D01*
X026411Y019752D01*
X026583Y019752D01*
X026704Y019631D01*
X026626Y019599D01*
X026626Y019491D01*
X026551Y019416D01*
X026443Y019416D01*
X026368Y019491D01*
X026368Y019599D01*
X026443Y019674D01*
X026551Y019674D01*
X026626Y019599D01*
X026548Y019566D01*
X026548Y019524D01*
X026518Y019494D01*
X026476Y019494D01*
X026446Y019524D01*
X026446Y019566D01*
X026476Y019596D01*
X026518Y019596D01*
X026548Y019566D01*
X027359Y020286D02*
X027411Y020338D01*
X027411Y020166D01*
X027290Y020045D01*
X027118Y020045D01*
X026997Y020166D01*
X026997Y020338D01*
X027118Y020459D01*
X027290Y020459D01*
X027411Y020338D01*
X027333Y020306D01*
X027333Y020198D01*
X027258Y020123D01*
X027150Y020123D01*
X027075Y020198D01*
X027075Y020306D01*
X027150Y020381D01*
X027258Y020381D01*
X027333Y020306D01*
X027255Y020273D01*
X027255Y020231D01*
X027225Y020201D01*
X027183Y020201D01*
X027153Y020231D01*
X027153Y020273D01*
X027183Y020303D01*
X027225Y020303D01*
X027255Y020273D01*
X026652Y022579D02*
X026704Y022631D01*
X026704Y022459D01*
X026583Y022338D01*
X026411Y022338D01*
X026290Y022459D01*
X026290Y022631D01*
X026411Y022752D01*
X026583Y022752D01*
X026704Y022631D01*
X026626Y022599D01*
X026626Y022491D01*
X026551Y022416D01*
X026443Y022416D01*
X026368Y022491D01*
X026368Y022599D01*
X026443Y022674D01*
X026551Y022674D01*
X026626Y022599D01*
X026548Y022566D01*
X026548Y022524D01*
X026518Y022494D01*
X026476Y022494D01*
X026446Y022524D01*
X026446Y022566D01*
X026476Y022596D01*
X026518Y022596D01*
X026548Y022566D01*
X027359Y023286D02*
X027411Y023338D01*
X027411Y023166D01*
X027290Y023045D01*
X027118Y023045D01*
X026997Y023166D01*
X026997Y023338D01*
X027118Y023459D01*
X027290Y023459D01*
X027411Y023338D01*
X027333Y023306D01*
X027333Y023198D01*
X027258Y023123D01*
X027150Y023123D01*
X027075Y023198D01*
X027075Y023306D01*
X027150Y023381D01*
X027258Y023381D01*
X027333Y023306D01*
X027255Y023273D01*
X027255Y023231D01*
X027225Y023201D01*
X027183Y023201D01*
X027153Y023231D01*
X027153Y023273D01*
X027183Y023303D01*
X027225Y023303D01*
X027255Y023273D01*
X026652Y025579D02*
X026704Y025631D01*
X026704Y025459D01*
X026583Y025338D01*
X026411Y025338D01*
X026290Y025459D01*
X026290Y025631D01*
X026411Y025752D01*
X026583Y025752D01*
X026704Y025631D01*
X026626Y025599D01*
X026626Y025491D01*
X026551Y025416D01*
X026443Y025416D01*
X026368Y025491D01*
X026368Y025599D01*
X026443Y025674D01*
X026551Y025674D01*
X026626Y025599D01*
X026548Y025566D01*
X026548Y025524D01*
X026518Y025494D01*
X026476Y025494D01*
X026446Y025524D01*
X026446Y025566D01*
X026476Y025596D01*
X026518Y025596D01*
X026548Y025566D01*
X027359Y026286D02*
X027411Y026338D01*
X027411Y026166D01*
X027290Y026045D01*
X027118Y026045D01*
X026997Y026166D01*
X026997Y026338D01*
X027118Y026459D01*
X027290Y026459D01*
X027411Y026338D01*
X027333Y026306D01*
X027333Y026198D01*
X027258Y026123D01*
X027150Y026123D01*
X027075Y026198D01*
X027075Y026306D01*
X027150Y026381D01*
X027258Y026381D01*
X027333Y026306D01*
X027255Y026273D01*
X027255Y026231D01*
X027225Y026201D01*
X027183Y026201D01*
X027153Y026231D01*
X027153Y026273D01*
X027183Y026303D01*
X027225Y026303D01*
X027255Y026273D01*
X026652Y028579D02*
X026704Y028631D01*
X026704Y028459D01*
X026583Y028338D01*
X026411Y028338D01*
X026290Y028459D01*
X026290Y028631D01*
X026411Y028752D01*
X026583Y028752D01*
X026704Y028631D01*
X026626Y028599D01*
X026626Y028491D01*
X026551Y028416D01*
X026443Y028416D01*
X026368Y028491D01*
X026368Y028599D01*
X026443Y028674D01*
X026551Y028674D01*
X026626Y028599D01*
X026548Y028566D01*
X026548Y028524D01*
X026518Y028494D01*
X026476Y028494D01*
X026446Y028524D01*
X026446Y028566D01*
X026476Y028596D01*
X026518Y028596D01*
X026548Y028566D01*
X027359Y029286D02*
X027411Y029338D01*
X027411Y029166D01*
X027290Y029045D01*
X027118Y029045D01*
X026997Y029166D01*
X026997Y029338D01*
X027118Y029459D01*
X027290Y029459D01*
X027411Y029338D01*
X027333Y029306D01*
X027333Y029198D01*
X027258Y029123D01*
X027150Y029123D01*
X027075Y029198D01*
X027075Y029306D01*
X027150Y029381D01*
X027258Y029381D01*
X027333Y029306D01*
X027255Y029273D01*
X027255Y029231D01*
X027225Y029201D01*
X027183Y029201D01*
X027153Y029231D01*
X027153Y029273D01*
X027183Y029303D01*
X027225Y029303D01*
X027255Y029273D01*
X024359Y029286D02*
X024411Y029338D01*
X024411Y029166D01*
X024290Y029045D01*
X024118Y029045D01*
X023997Y029166D01*
X023997Y029338D01*
X024118Y029459D01*
X024290Y029459D01*
X024411Y029338D01*
X024333Y029306D01*
X024333Y029198D01*
X024258Y029123D01*
X024150Y029123D01*
X024075Y029198D01*
X024075Y029306D01*
X024150Y029381D01*
X024258Y029381D01*
X024333Y029306D01*
X024255Y029273D01*
X024255Y029231D01*
X024225Y029201D01*
X024183Y029201D01*
X024153Y029231D01*
X024153Y029273D01*
X024183Y029303D01*
X024225Y029303D01*
X024255Y029273D01*
X023652Y028579D02*
X023704Y028631D01*
X023704Y028459D01*
X023583Y028338D01*
X023411Y028338D01*
X023290Y028459D01*
X023290Y028631D01*
X023411Y028752D01*
X023583Y028752D01*
X023704Y028631D01*
X023626Y028599D01*
X023626Y028491D01*
X023551Y028416D01*
X023443Y028416D01*
X023368Y028491D01*
X023368Y028599D01*
X023443Y028674D01*
X023551Y028674D01*
X023626Y028599D01*
X023548Y028566D01*
X023548Y028524D01*
X023518Y028494D01*
X023476Y028494D01*
X023446Y028524D01*
X023446Y028566D01*
X023476Y028596D01*
X023518Y028596D01*
X023548Y028566D01*
X024359Y026286D02*
X024411Y026338D01*
X024411Y026166D01*
X024290Y026045D01*
X024118Y026045D01*
X023997Y026166D01*
X023997Y026338D01*
X024118Y026459D01*
X024290Y026459D01*
X024411Y026338D01*
X024333Y026306D01*
X024333Y026198D01*
X024258Y026123D01*
X024150Y026123D01*
X024075Y026198D01*
X024075Y026306D01*
X024150Y026381D01*
X024258Y026381D01*
X024333Y026306D01*
X024255Y026273D01*
X024255Y026231D01*
X024225Y026201D01*
X024183Y026201D01*
X024153Y026231D01*
X024153Y026273D01*
X024183Y026303D01*
X024225Y026303D01*
X024255Y026273D01*
X023652Y025579D02*
X023704Y025631D01*
X023704Y025459D01*
X023583Y025338D01*
X023411Y025338D01*
X023290Y025459D01*
X023290Y025631D01*
X023411Y025752D01*
X023583Y025752D01*
X023704Y025631D01*
X023626Y025599D01*
X023626Y025491D01*
X023551Y025416D01*
X023443Y025416D01*
X023368Y025491D01*
X023368Y025599D01*
X023443Y025674D01*
X023551Y025674D01*
X023626Y025599D01*
X023548Y025566D01*
X023548Y025524D01*
X023518Y025494D01*
X023476Y025494D01*
X023446Y025524D01*
X023446Y025566D01*
X023476Y025596D01*
X023518Y025596D01*
X023548Y025566D01*
X024359Y023286D02*
X024411Y023338D01*
X024411Y023166D01*
X024290Y023045D01*
X024118Y023045D01*
X023997Y023166D01*
X023997Y023338D01*
X024118Y023459D01*
X024290Y023459D01*
X024411Y023338D01*
X024333Y023306D01*
X024333Y023198D01*
X024258Y023123D01*
X024150Y023123D01*
X024075Y023198D01*
X024075Y023306D01*
X024150Y023381D01*
X024258Y023381D01*
X024333Y023306D01*
X024255Y023273D01*
X024255Y023231D01*
X024225Y023201D01*
X024183Y023201D01*
X024153Y023231D01*
X024153Y023273D01*
X024183Y023303D01*
X024225Y023303D01*
X024255Y023273D01*
X023652Y022579D02*
X023704Y022631D01*
X023704Y022459D01*
X023583Y022338D01*
X023411Y022338D01*
X023290Y022459D01*
X023290Y022631D01*
X023411Y022752D01*
X023583Y022752D01*
X023704Y022631D01*
X023626Y022599D01*
X023626Y022491D01*
X023551Y022416D01*
X023443Y022416D01*
X023368Y022491D01*
X023368Y022599D01*
X023443Y022674D01*
X023551Y022674D01*
X023626Y022599D01*
X023548Y022566D01*
X023548Y022524D01*
X023518Y022494D01*
X023476Y022494D01*
X023446Y022524D01*
X023446Y022566D01*
X023476Y022596D01*
X023518Y022596D01*
X023548Y022566D01*
X024359Y020286D02*
X024411Y020338D01*
X024411Y020166D01*
X024290Y020045D01*
X024118Y020045D01*
X023997Y020166D01*
X023997Y020338D01*
X024118Y020459D01*
X024290Y020459D01*
X024411Y020338D01*
X024333Y020306D01*
X024333Y020198D01*
X024258Y020123D01*
X024150Y020123D01*
X024075Y020198D01*
X024075Y020306D01*
X024150Y020381D01*
X024258Y020381D01*
X024333Y020306D01*
X024255Y020273D01*
X024255Y020231D01*
X024225Y020201D01*
X024183Y020201D01*
X024153Y020231D01*
X024153Y020273D01*
X024183Y020303D01*
X024225Y020303D01*
X024255Y020273D01*
X023652Y019579D02*
X023704Y019631D01*
X023704Y019459D01*
X023583Y019338D01*
X023411Y019338D01*
X023290Y019459D01*
X023290Y019631D01*
X023411Y019752D01*
X023583Y019752D01*
X023704Y019631D01*
X023626Y019599D01*
X023626Y019491D01*
X023551Y019416D01*
X023443Y019416D01*
X023368Y019491D01*
X023368Y019599D01*
X023443Y019674D01*
X023551Y019674D01*
X023626Y019599D01*
X023548Y019566D01*
X023548Y019524D01*
X023518Y019494D01*
X023476Y019494D01*
X023446Y019524D01*
X023446Y019566D01*
X023476Y019596D01*
X023518Y019596D01*
X023548Y019566D01*
X024359Y017286D02*
X024411Y017338D01*
X024411Y017166D01*
X024290Y017045D01*
X024118Y017045D01*
X023997Y017166D01*
X023997Y017338D01*
X024118Y017459D01*
X024290Y017459D01*
X024411Y017338D01*
X024333Y017306D01*
X024333Y017198D01*
X024258Y017123D01*
X024150Y017123D01*
X024075Y017198D01*
X024075Y017306D01*
X024150Y017381D01*
X024258Y017381D01*
X024333Y017306D01*
X024255Y017273D01*
X024255Y017231D01*
X024225Y017201D01*
X024183Y017201D01*
X024153Y017231D01*
X024153Y017273D01*
X024183Y017303D01*
X024225Y017303D01*
X024255Y017273D01*
X023652Y016579D02*
X023704Y016631D01*
X023704Y016459D01*
X023583Y016338D01*
X023411Y016338D01*
X023290Y016459D01*
X023290Y016631D01*
X023411Y016752D01*
X023583Y016752D01*
X023704Y016631D01*
X023626Y016599D01*
X023626Y016491D01*
X023551Y016416D01*
X023443Y016416D01*
X023368Y016491D01*
X023368Y016599D01*
X023443Y016674D01*
X023551Y016674D01*
X023626Y016599D01*
X023548Y016566D01*
X023548Y016524D01*
X023518Y016494D01*
X023476Y016494D01*
X023446Y016524D01*
X023446Y016566D01*
X023476Y016596D01*
X023518Y016596D01*
X023548Y016566D01*
X024359Y014286D02*
X024411Y014338D01*
X024411Y014166D01*
X024290Y014045D01*
X024118Y014045D01*
X023997Y014166D01*
X023997Y014338D01*
X024118Y014459D01*
X024290Y014459D01*
X024411Y014338D01*
X024333Y014306D01*
X024333Y014198D01*
X024258Y014123D01*
X024150Y014123D01*
X024075Y014198D01*
X024075Y014306D01*
X024150Y014381D01*
X024258Y014381D01*
X024333Y014306D01*
X024255Y014273D01*
X024255Y014231D01*
X024225Y014201D01*
X024183Y014201D01*
X024153Y014231D01*
X024153Y014273D01*
X024183Y014303D01*
X024225Y014303D01*
X024255Y014273D01*
X023652Y013579D02*
X023704Y013631D01*
X023704Y013459D01*
X023583Y013338D01*
X023411Y013338D01*
X023290Y013459D01*
X023290Y013631D01*
X023411Y013752D01*
X023583Y013752D01*
X023704Y013631D01*
X023626Y013599D01*
X023626Y013491D01*
X023551Y013416D01*
X023443Y013416D01*
X023368Y013491D01*
X023368Y013599D01*
X023443Y013674D01*
X023551Y013674D01*
X023626Y013599D01*
X023548Y013566D01*
X023548Y013524D01*
X023518Y013494D01*
X023476Y013494D01*
X023446Y013524D01*
X023446Y013566D01*
X023476Y013596D01*
X023518Y013596D01*
X023548Y013566D01*
X024359Y011286D02*
X024411Y011338D01*
X024411Y011166D01*
X024290Y011045D01*
X024118Y011045D01*
X023997Y011166D01*
X023997Y011338D01*
X024118Y011459D01*
X024290Y011459D01*
X024411Y011338D01*
X024333Y011306D01*
X024333Y011198D01*
X024258Y011123D01*
X024150Y011123D01*
X024075Y011198D01*
X024075Y011306D01*
X024150Y011381D01*
X024258Y011381D01*
X024333Y011306D01*
X024255Y011273D01*
X024255Y011231D01*
X024225Y011201D01*
X024183Y011201D01*
X024153Y011231D01*
X024153Y011273D01*
X024183Y011303D01*
X024225Y011303D01*
X024255Y011273D01*
X023652Y010579D02*
X023704Y010631D01*
X023704Y010459D01*
X023583Y010338D01*
X023411Y010338D01*
X023290Y010459D01*
X023290Y010631D01*
X023411Y010752D01*
X023583Y010752D01*
X023704Y010631D01*
X023626Y010599D01*
X023626Y010491D01*
X023551Y010416D01*
X023443Y010416D01*
X023368Y010491D01*
X023368Y010599D01*
X023443Y010674D01*
X023551Y010674D01*
X023626Y010599D01*
X023548Y010566D01*
X023548Y010524D01*
X023518Y010494D01*
X023476Y010494D01*
X023446Y010524D01*
X023446Y010566D01*
X023476Y010596D01*
X023518Y010596D01*
X023548Y010566D01*
X024359Y008286D02*
X024411Y008338D01*
X024411Y008166D01*
X024290Y008045D01*
X024118Y008045D01*
X023997Y008166D01*
X023997Y008338D01*
X024118Y008459D01*
X024290Y008459D01*
X024411Y008338D01*
X024333Y008306D01*
X024333Y008198D01*
X024258Y008123D01*
X024150Y008123D01*
X024075Y008198D01*
X024075Y008306D01*
X024150Y008381D01*
X024258Y008381D01*
X024333Y008306D01*
X024255Y008273D01*
X024255Y008231D01*
X024225Y008201D01*
X024183Y008201D01*
X024153Y008231D01*
X024153Y008273D01*
X024183Y008303D01*
X024225Y008303D01*
X024255Y008273D01*
X023652Y007579D02*
X023704Y007631D01*
X023704Y007459D01*
X023583Y007338D01*
X023411Y007338D01*
X023290Y007459D01*
X023290Y007631D01*
X023411Y007752D01*
X023583Y007752D01*
X023704Y007631D01*
X023626Y007599D01*
X023626Y007491D01*
X023551Y007416D01*
X023443Y007416D01*
X023368Y007491D01*
X023368Y007599D01*
X023443Y007674D01*
X023551Y007674D01*
X023626Y007599D01*
X023548Y007566D01*
X023548Y007524D01*
X023518Y007494D01*
X023476Y007494D01*
X023446Y007524D01*
X023446Y007566D01*
X023476Y007596D01*
X023518Y007596D01*
X023548Y007566D01*
X021359Y008286D02*
X021411Y008338D01*
X021411Y008166D01*
X021290Y008045D01*
X021118Y008045D01*
X020997Y008166D01*
X020997Y008338D01*
X021118Y008459D01*
X021290Y008459D01*
X021411Y008338D01*
X021333Y008306D01*
X021333Y008198D01*
X021258Y008123D01*
X021150Y008123D01*
X021075Y008198D01*
X021075Y008306D01*
X021150Y008381D01*
X021258Y008381D01*
X021333Y008306D01*
X021255Y008273D01*
X021255Y008231D01*
X021225Y008201D01*
X021183Y008201D01*
X021153Y008231D01*
X021153Y008273D01*
X021183Y008303D01*
X021225Y008303D01*
X021255Y008273D01*
X020652Y007579D02*
X020704Y007631D01*
X020704Y007459D01*
X020583Y007338D01*
X020411Y007338D01*
X020290Y007459D01*
X020290Y007631D01*
X020411Y007752D01*
X020583Y007752D01*
X020704Y007631D01*
X020626Y007599D01*
X020626Y007491D01*
X020551Y007416D01*
X020443Y007416D01*
X020368Y007491D01*
X020368Y007599D01*
X020443Y007674D01*
X020551Y007674D01*
X020626Y007599D01*
X020548Y007566D01*
X020548Y007524D01*
X020518Y007494D01*
X020476Y007494D01*
X020446Y007524D01*
X020446Y007566D01*
X020476Y007596D01*
X020518Y007596D01*
X020548Y007566D01*
X018359Y008286D02*
X018411Y008338D01*
X018411Y008166D01*
X018290Y008045D01*
X018118Y008045D01*
X017997Y008166D01*
X017997Y008338D01*
X018118Y008459D01*
X018290Y008459D01*
X018411Y008338D01*
X018333Y008306D01*
X018333Y008198D01*
X018258Y008123D01*
X018150Y008123D01*
X018075Y008198D01*
X018075Y008306D01*
X018150Y008381D01*
X018258Y008381D01*
X018333Y008306D01*
X018255Y008273D01*
X018255Y008231D01*
X018225Y008201D01*
X018183Y008201D01*
X018153Y008231D01*
X018153Y008273D01*
X018183Y008303D01*
X018225Y008303D01*
X018255Y008273D01*
X017652Y007579D02*
X017704Y007631D01*
X017704Y007459D01*
X017583Y007338D01*
X017411Y007338D01*
X017290Y007459D01*
X017290Y007631D01*
X017411Y007752D01*
X017583Y007752D01*
X017704Y007631D01*
X017626Y007599D01*
X017626Y007491D01*
X017551Y007416D01*
X017443Y007416D01*
X017368Y007491D01*
X017368Y007599D01*
X017443Y007674D01*
X017551Y007674D01*
X017626Y007599D01*
X017548Y007566D01*
X017548Y007524D01*
X017518Y007494D01*
X017476Y007494D01*
X017446Y007524D01*
X017446Y007566D01*
X017476Y007596D01*
X017518Y007596D01*
X017548Y007566D01*
X015359Y008286D02*
X015411Y008338D01*
X015411Y008166D01*
X015290Y008045D01*
X015118Y008045D01*
X014997Y008166D01*
X014997Y008338D01*
X015118Y008459D01*
X015290Y008459D01*
X015411Y008338D01*
X015333Y008306D01*
X015333Y008198D01*
X015258Y008123D01*
X015150Y008123D01*
X015075Y008198D01*
X015075Y008306D01*
X015150Y008381D01*
X015258Y008381D01*
X015333Y008306D01*
X015255Y008273D01*
X015255Y008231D01*
X015225Y008201D01*
X015183Y008201D01*
X015153Y008231D01*
X015153Y008273D01*
X015183Y008303D01*
X015225Y008303D01*
X015255Y008273D01*
X014652Y007579D02*
X014704Y007631D01*
X014704Y007459D01*
X014583Y007338D01*
X014411Y007338D01*
X014290Y007459D01*
X014290Y007631D01*
X014411Y007752D01*
X014583Y007752D01*
X014704Y007631D01*
X014626Y007599D01*
X014626Y007491D01*
X014551Y007416D01*
X014443Y007416D01*
X014368Y007491D01*
X014368Y007599D01*
X014443Y007674D01*
X014551Y007674D01*
X014626Y007599D01*
X014548Y007566D01*
X014548Y007524D01*
X014518Y007494D01*
X014476Y007494D01*
X014446Y007524D01*
X014446Y007566D01*
X014476Y007596D01*
X014518Y007596D01*
X014548Y007566D01*
X012359Y008286D02*
X012411Y008338D01*
X012411Y008166D01*
X012290Y008045D01*
X012118Y008045D01*
X011997Y008166D01*
X011997Y008338D01*
X012118Y008459D01*
X012290Y008459D01*
X012411Y008338D01*
X012333Y008306D01*
X012333Y008198D01*
X012258Y008123D01*
X012150Y008123D01*
X012075Y008198D01*
X012075Y008306D01*
X012150Y008381D01*
X012258Y008381D01*
X012333Y008306D01*
X012255Y008273D01*
X012255Y008231D01*
X012225Y008201D01*
X012183Y008201D01*
X012153Y008231D01*
X012153Y008273D01*
X012183Y008303D01*
X012225Y008303D01*
X012255Y008273D01*
X011652Y007579D02*
X011704Y007631D01*
X011704Y007459D01*
X011583Y007338D01*
X011411Y007338D01*
X011290Y007459D01*
X011290Y007631D01*
X011411Y007752D01*
X011583Y007752D01*
X011704Y007631D01*
X011626Y007599D01*
X011626Y007491D01*
X011551Y007416D01*
X011443Y007416D01*
X011368Y007491D01*
X011368Y007599D01*
X011443Y007674D01*
X011551Y007674D01*
X011626Y007599D01*
X011548Y007566D01*
X011548Y007524D01*
X011518Y007494D01*
X011476Y007494D01*
X011446Y007524D01*
X011446Y007566D01*
X011476Y007596D01*
X011518Y007596D01*
X011548Y007566D01*
X009359Y008286D02*
X009411Y008338D01*
X009411Y008166D01*
X009290Y008045D01*
X009118Y008045D01*
X008997Y008166D01*
X008997Y008338D01*
X009118Y008459D01*
X009290Y008459D01*
X009411Y008338D01*
X009333Y008306D01*
X009333Y008198D01*
X009258Y008123D01*
X009150Y008123D01*
X009075Y008198D01*
X009075Y008306D01*
X009150Y008381D01*
X009258Y008381D01*
X009333Y008306D01*
X009255Y008273D01*
X009255Y008231D01*
X009225Y008201D01*
X009183Y008201D01*
X009153Y008231D01*
X009153Y008273D01*
X009183Y008303D01*
X009225Y008303D01*
X009255Y008273D01*
X008652Y007579D02*
X008704Y007631D01*
X008704Y007459D01*
X008583Y007338D01*
X008411Y007338D01*
X008290Y007459D01*
X008290Y007631D01*
X008411Y007752D01*
X008583Y007752D01*
X008704Y007631D01*
X008626Y007599D01*
X008626Y007491D01*
X008551Y007416D01*
X008443Y007416D01*
X008368Y007491D01*
X008368Y007599D01*
X008443Y007674D01*
X008551Y007674D01*
X008626Y007599D01*
X008548Y007566D01*
X008548Y007524D01*
X008518Y007494D01*
X008476Y007494D01*
X008446Y007524D01*
X008446Y007566D01*
X008476Y007596D01*
X008518Y007596D01*
X008548Y007566D01*
X006359Y008286D02*
X006411Y008338D01*
X006411Y008166D01*
X006290Y008045D01*
X006118Y008045D01*
X005997Y008166D01*
X005997Y008338D01*
X006118Y008459D01*
X006290Y008459D01*
X006411Y008338D01*
X006333Y008306D01*
X006333Y008198D01*
X006258Y008123D01*
X006150Y008123D01*
X006075Y008198D01*
X006075Y008306D01*
X006150Y008381D01*
X006258Y008381D01*
X006333Y008306D01*
X006255Y008273D01*
X006255Y008231D01*
X006225Y008201D01*
X006183Y008201D01*
X006153Y008231D01*
X006153Y008273D01*
X006183Y008303D01*
X006225Y008303D01*
X006255Y008273D01*
X005652Y007579D02*
X005704Y007631D01*
X005704Y007459D01*
X005583Y007338D01*
X005411Y007338D01*
X005290Y007459D01*
X005290Y007631D01*
X005411Y007752D01*
X005583Y007752D01*
X005704Y007631D01*
X005626Y007599D01*
X005626Y007491D01*
X005551Y007416D01*
X005443Y007416D01*
X005368Y007491D01*
X005368Y007599D01*
X005443Y007674D01*
X005551Y007674D01*
X005626Y007599D01*
X005548Y007566D01*
X005548Y007524D01*
X005518Y007494D01*
X005476Y007494D01*
X005446Y007524D01*
X005446Y007566D01*
X005476Y007596D01*
X005518Y007596D01*
X005548Y007566D01*
X005652Y010579D02*
X005704Y010631D01*
X005704Y010459D01*
X005583Y010338D01*
X005411Y010338D01*
X005290Y010459D01*
X005290Y010631D01*
X005411Y010752D01*
X005583Y010752D01*
X005704Y010631D01*
X005626Y010599D01*
X005626Y010491D01*
X005551Y010416D01*
X005443Y010416D01*
X005368Y010491D01*
X005368Y010599D01*
X005443Y010674D01*
X005551Y010674D01*
X005626Y010599D01*
X005548Y010566D01*
X005548Y010524D01*
X005518Y010494D01*
X005476Y010494D01*
X005446Y010524D01*
X005446Y010566D01*
X005476Y010596D01*
X005518Y010596D01*
X005548Y010566D01*
X006359Y011286D02*
X006411Y011338D01*
X006411Y011166D01*
X006290Y011045D01*
X006118Y011045D01*
X005997Y011166D01*
X005997Y011338D01*
X006118Y011459D01*
X006290Y011459D01*
X006411Y011338D01*
X006333Y011306D01*
X006333Y011198D01*
X006258Y011123D01*
X006150Y011123D01*
X006075Y011198D01*
X006075Y011306D01*
X006150Y011381D01*
X006258Y011381D01*
X006333Y011306D01*
X006255Y011273D01*
X006255Y011231D01*
X006225Y011201D01*
X006183Y011201D01*
X006153Y011231D01*
X006153Y011273D01*
X006183Y011303D01*
X006225Y011303D01*
X006255Y011273D01*
X008652Y010579D02*
X008704Y010631D01*
X008704Y010459D01*
X008583Y010338D01*
X008411Y010338D01*
X008290Y010459D01*
X008290Y010631D01*
X008411Y010752D01*
X008583Y010752D01*
X008704Y010631D01*
X008626Y010599D01*
X008626Y010491D01*
X008551Y010416D01*
X008443Y010416D01*
X008368Y010491D01*
X008368Y010599D01*
X008443Y010674D01*
X008551Y010674D01*
X008626Y010599D01*
X008548Y010566D01*
X008548Y010524D01*
X008518Y010494D01*
X008476Y010494D01*
X008446Y010524D01*
X008446Y010566D01*
X008476Y010596D01*
X008518Y010596D01*
X008548Y010566D01*
X009359Y011286D02*
X009411Y011338D01*
X009411Y011166D01*
X009290Y011045D01*
X009118Y011045D01*
X008997Y011166D01*
X008997Y011338D01*
X009118Y011459D01*
X009290Y011459D01*
X009411Y011338D01*
X009333Y011306D01*
X009333Y011198D01*
X009258Y011123D01*
X009150Y011123D01*
X009075Y011198D01*
X009075Y011306D01*
X009150Y011381D01*
X009258Y011381D01*
X009333Y011306D01*
X009255Y011273D01*
X009255Y011231D01*
X009225Y011201D01*
X009183Y011201D01*
X009153Y011231D01*
X009153Y011273D01*
X009183Y011303D01*
X009225Y011303D01*
X009255Y011273D01*
X011652Y010579D02*
X011704Y010631D01*
X011704Y010459D01*
X011583Y010338D01*
X011411Y010338D01*
X011290Y010459D01*
X011290Y010631D01*
X011411Y010752D01*
X011583Y010752D01*
X011704Y010631D01*
X011626Y010599D01*
X011626Y010491D01*
X011551Y010416D01*
X011443Y010416D01*
X011368Y010491D01*
X011368Y010599D01*
X011443Y010674D01*
X011551Y010674D01*
X011626Y010599D01*
X011548Y010566D01*
X011548Y010524D01*
X011518Y010494D01*
X011476Y010494D01*
X011446Y010524D01*
X011446Y010566D01*
X011476Y010596D01*
X011518Y010596D01*
X011548Y010566D01*
X012359Y011286D02*
X012411Y011338D01*
X012411Y011166D01*
X012290Y011045D01*
X012118Y011045D01*
X011997Y011166D01*
X011997Y011338D01*
X012118Y011459D01*
X012290Y011459D01*
X012411Y011338D01*
X012333Y011306D01*
X012333Y011198D01*
X012258Y011123D01*
X012150Y011123D01*
X012075Y011198D01*
X012075Y011306D01*
X012150Y011381D01*
X012258Y011381D01*
X012333Y011306D01*
X012255Y011273D01*
X012255Y011231D01*
X012225Y011201D01*
X012183Y011201D01*
X012153Y011231D01*
X012153Y011273D01*
X012183Y011303D01*
X012225Y011303D01*
X012255Y011273D01*
X014652Y010579D02*
X014704Y010631D01*
X014704Y010459D01*
X014583Y010338D01*
X014411Y010338D01*
X014290Y010459D01*
X014290Y010631D01*
X014411Y010752D01*
X014583Y010752D01*
X014704Y010631D01*
X014626Y010599D01*
X014626Y010491D01*
X014551Y010416D01*
X014443Y010416D01*
X014368Y010491D01*
X014368Y010599D01*
X014443Y010674D01*
X014551Y010674D01*
X014626Y010599D01*
X014548Y010566D01*
X014548Y010524D01*
X014518Y010494D01*
X014476Y010494D01*
X014446Y010524D01*
X014446Y010566D01*
X014476Y010596D01*
X014518Y010596D01*
X014548Y010566D01*
X015359Y011286D02*
X015411Y011338D01*
X015411Y011166D01*
X015290Y011045D01*
X015118Y011045D01*
X014997Y011166D01*
X014997Y011338D01*
X015118Y011459D01*
X015290Y011459D01*
X015411Y011338D01*
X015333Y011306D01*
X015333Y011198D01*
X015258Y011123D01*
X015150Y011123D01*
X015075Y011198D01*
X015075Y011306D01*
X015150Y011381D01*
X015258Y011381D01*
X015333Y011306D01*
X015255Y011273D01*
X015255Y011231D01*
X015225Y011201D01*
X015183Y011201D01*
X015153Y011231D01*
X015153Y011273D01*
X015183Y011303D01*
X015225Y011303D01*
X015255Y011273D01*
X017652Y010579D02*
X017704Y010631D01*
X017704Y010459D01*
X017583Y010338D01*
X017411Y010338D01*
X017290Y010459D01*
X017290Y010631D01*
X017411Y010752D01*
X017583Y010752D01*
X017704Y010631D01*
X017626Y010599D01*
X017626Y010491D01*
X017551Y010416D01*
X017443Y010416D01*
X017368Y010491D01*
X017368Y010599D01*
X017443Y010674D01*
X017551Y010674D01*
X017626Y010599D01*
X017548Y010566D01*
X017548Y010524D01*
X017518Y010494D01*
X017476Y010494D01*
X017446Y010524D01*
X017446Y010566D01*
X017476Y010596D01*
X017518Y010596D01*
X017548Y010566D01*
X018359Y011286D02*
X018411Y011338D01*
X018411Y011166D01*
X018290Y011045D01*
X018118Y011045D01*
X017997Y011166D01*
X017997Y011338D01*
X018118Y011459D01*
X018290Y011459D01*
X018411Y011338D01*
X018333Y011306D01*
X018333Y011198D01*
X018258Y011123D01*
X018150Y011123D01*
X018075Y011198D01*
X018075Y011306D01*
X018150Y011381D01*
X018258Y011381D01*
X018333Y011306D01*
X018255Y011273D01*
X018255Y011231D01*
X018225Y011201D01*
X018183Y011201D01*
X018153Y011231D01*
X018153Y011273D01*
X018183Y011303D01*
X018225Y011303D01*
X018255Y011273D01*
X020652Y010579D02*
X020704Y010631D01*
X020704Y010459D01*
X020583Y010338D01*
X020411Y010338D01*
X020290Y010459D01*
X020290Y010631D01*
X020411Y010752D01*
X020583Y010752D01*
X020704Y010631D01*
X020626Y010599D01*
X020626Y010491D01*
X020551Y010416D01*
X020443Y010416D01*
X020368Y010491D01*
X020368Y010599D01*
X020443Y010674D01*
X020551Y010674D01*
X020626Y010599D01*
X020548Y010566D01*
X020548Y010524D01*
X020518Y010494D01*
X020476Y010494D01*
X020446Y010524D01*
X020446Y010566D01*
X020476Y010596D01*
X020518Y010596D01*
X020548Y010566D01*
X021359Y011286D02*
X021411Y011338D01*
X021411Y011166D01*
X021290Y011045D01*
X021118Y011045D01*
X020997Y011166D01*
X020997Y011338D01*
X021118Y011459D01*
X021290Y011459D01*
X021411Y011338D01*
X021333Y011306D01*
X021333Y011198D01*
X021258Y011123D01*
X021150Y011123D01*
X021075Y011198D01*
X021075Y011306D01*
X021150Y011381D01*
X021258Y011381D01*
X021333Y011306D01*
X021255Y011273D01*
X021255Y011231D01*
X021225Y011201D01*
X021183Y011201D01*
X021153Y011231D01*
X021153Y011273D01*
X021183Y011303D01*
X021225Y011303D01*
X021255Y011273D01*
X020652Y013579D02*
X020704Y013631D01*
X020704Y013459D01*
X020583Y013338D01*
X020411Y013338D01*
X020290Y013459D01*
X020290Y013631D01*
X020411Y013752D01*
X020583Y013752D01*
X020704Y013631D01*
X020626Y013599D01*
X020626Y013491D01*
X020551Y013416D01*
X020443Y013416D01*
X020368Y013491D01*
X020368Y013599D01*
X020443Y013674D01*
X020551Y013674D01*
X020626Y013599D01*
X020548Y013566D01*
X020548Y013524D01*
X020518Y013494D01*
X020476Y013494D01*
X020446Y013524D01*
X020446Y013566D01*
X020476Y013596D01*
X020518Y013596D01*
X020548Y013566D01*
X021359Y014286D02*
X021411Y014338D01*
X021411Y014166D01*
X021290Y014045D01*
X021118Y014045D01*
X020997Y014166D01*
X020997Y014338D01*
X021118Y014459D01*
X021290Y014459D01*
X021411Y014338D01*
X021333Y014306D01*
X021333Y014198D01*
X021258Y014123D01*
X021150Y014123D01*
X021075Y014198D01*
X021075Y014306D01*
X021150Y014381D01*
X021258Y014381D01*
X021333Y014306D01*
X021255Y014273D01*
X021255Y014231D01*
X021225Y014201D01*
X021183Y014201D01*
X021153Y014231D01*
X021153Y014273D01*
X021183Y014303D01*
X021225Y014303D01*
X021255Y014273D01*
X020652Y016579D02*
X020704Y016631D01*
X020704Y016459D01*
X020583Y016338D01*
X020411Y016338D01*
X020290Y016459D01*
X020290Y016631D01*
X020411Y016752D01*
X020583Y016752D01*
X020704Y016631D01*
X020626Y016599D01*
X020626Y016491D01*
X020551Y016416D01*
X020443Y016416D01*
X020368Y016491D01*
X020368Y016599D01*
X020443Y016674D01*
X020551Y016674D01*
X020626Y016599D01*
X020548Y016566D01*
X020548Y016524D01*
X020518Y016494D01*
X020476Y016494D01*
X020446Y016524D01*
X020446Y016566D01*
X020476Y016596D01*
X020518Y016596D01*
X020548Y016566D01*
X021359Y017286D02*
X021411Y017338D01*
X021411Y017166D01*
X021290Y017045D01*
X021118Y017045D01*
X020997Y017166D01*
X020997Y017338D01*
X021118Y017459D01*
X021290Y017459D01*
X021411Y017338D01*
X021333Y017306D01*
X021333Y017198D01*
X021258Y017123D01*
X021150Y017123D01*
X021075Y017198D01*
X021075Y017306D01*
X021150Y017381D01*
X021258Y017381D01*
X021333Y017306D01*
X021255Y017273D01*
X021255Y017231D01*
X021225Y017201D01*
X021183Y017201D01*
X021153Y017231D01*
X021153Y017273D01*
X021183Y017303D01*
X021225Y017303D01*
X021255Y017273D01*
X020652Y019579D02*
X020704Y019631D01*
X020704Y019459D01*
X020583Y019338D01*
X020411Y019338D01*
X020290Y019459D01*
X020290Y019631D01*
X020411Y019752D01*
X020583Y019752D01*
X020704Y019631D01*
X020626Y019599D01*
X020626Y019491D01*
X020551Y019416D01*
X020443Y019416D01*
X020368Y019491D01*
X020368Y019599D01*
X020443Y019674D01*
X020551Y019674D01*
X020626Y019599D01*
X020548Y019566D01*
X020548Y019524D01*
X020518Y019494D01*
X020476Y019494D01*
X020446Y019524D01*
X020446Y019566D01*
X020476Y019596D01*
X020518Y019596D01*
X020548Y019566D01*
X021359Y020286D02*
X021411Y020338D01*
X021411Y020166D01*
X021290Y020045D01*
X021118Y020045D01*
X020997Y020166D01*
X020997Y020338D01*
X021118Y020459D01*
X021290Y020459D01*
X021411Y020338D01*
X021333Y020306D01*
X021333Y020198D01*
X021258Y020123D01*
X021150Y020123D01*
X021075Y020198D01*
X021075Y020306D01*
X021150Y020381D01*
X021258Y020381D01*
X021333Y020306D01*
X021255Y020273D01*
X021255Y020231D01*
X021225Y020201D01*
X021183Y020201D01*
X021153Y020231D01*
X021153Y020273D01*
X021183Y020303D01*
X021225Y020303D01*
X021255Y020273D01*
X020652Y022579D02*
X020704Y022631D01*
X020704Y022459D01*
X020583Y022338D01*
X020411Y022338D01*
X020290Y022459D01*
X020290Y022631D01*
X020411Y022752D01*
X020583Y022752D01*
X020704Y022631D01*
X020626Y022599D01*
X020626Y022491D01*
X020551Y022416D01*
X020443Y022416D01*
X020368Y022491D01*
X020368Y022599D01*
X020443Y022674D01*
X020551Y022674D01*
X020626Y022599D01*
X020548Y022566D01*
X020548Y022524D01*
X020518Y022494D01*
X020476Y022494D01*
X020446Y022524D01*
X020446Y022566D01*
X020476Y022596D01*
X020518Y022596D01*
X020548Y022566D01*
X021359Y023286D02*
X021411Y023338D01*
X021411Y023166D01*
X021290Y023045D01*
X021118Y023045D01*
X020997Y023166D01*
X020997Y023338D01*
X021118Y023459D01*
X021290Y023459D01*
X021411Y023338D01*
X021333Y023306D01*
X021333Y023198D01*
X021258Y023123D01*
X021150Y023123D01*
X021075Y023198D01*
X021075Y023306D01*
X021150Y023381D01*
X021258Y023381D01*
X021333Y023306D01*
X021255Y023273D01*
X021255Y023231D01*
X021225Y023201D01*
X021183Y023201D01*
X021153Y023231D01*
X021153Y023273D01*
X021183Y023303D01*
X021225Y023303D01*
X021255Y023273D01*
X020652Y025579D02*
X020704Y025631D01*
X020704Y025459D01*
X020583Y025338D01*
X020411Y025338D01*
X020290Y025459D01*
X020290Y025631D01*
X020411Y025752D01*
X020583Y025752D01*
X020704Y025631D01*
X020626Y025599D01*
X020626Y025491D01*
X020551Y025416D01*
X020443Y025416D01*
X020368Y025491D01*
X020368Y025599D01*
X020443Y025674D01*
X020551Y025674D01*
X020626Y025599D01*
X020548Y025566D01*
X020548Y025524D01*
X020518Y025494D01*
X020476Y025494D01*
X020446Y025524D01*
X020446Y025566D01*
X020476Y025596D01*
X020518Y025596D01*
X020548Y025566D01*
X021359Y026286D02*
X021411Y026338D01*
X021411Y026166D01*
X021290Y026045D01*
X021118Y026045D01*
X020997Y026166D01*
X020997Y026338D01*
X021118Y026459D01*
X021290Y026459D01*
X021411Y026338D01*
X021333Y026306D01*
X021333Y026198D01*
X021258Y026123D01*
X021150Y026123D01*
X021075Y026198D01*
X021075Y026306D01*
X021150Y026381D01*
X021258Y026381D01*
X021333Y026306D01*
X021255Y026273D01*
X021255Y026231D01*
X021225Y026201D01*
X021183Y026201D01*
X021153Y026231D01*
X021153Y026273D01*
X021183Y026303D01*
X021225Y026303D01*
X021255Y026273D01*
X020652Y028579D02*
X020704Y028631D01*
X020704Y028459D01*
X020583Y028338D01*
X020411Y028338D01*
X020290Y028459D01*
X020290Y028631D01*
X020411Y028752D01*
X020583Y028752D01*
X020704Y028631D01*
X020626Y028599D01*
X020626Y028491D01*
X020551Y028416D01*
X020443Y028416D01*
X020368Y028491D01*
X020368Y028599D01*
X020443Y028674D01*
X020551Y028674D01*
X020626Y028599D01*
X020548Y028566D01*
X020548Y028524D01*
X020518Y028494D01*
X020476Y028494D01*
X020446Y028524D01*
X020446Y028566D01*
X020476Y028596D01*
X020518Y028596D01*
X020548Y028566D01*
X021359Y029286D02*
X021411Y029338D01*
X021411Y029166D01*
X021290Y029045D01*
X021118Y029045D01*
X020997Y029166D01*
X020997Y029338D01*
X021118Y029459D01*
X021290Y029459D01*
X021411Y029338D01*
X021333Y029306D01*
X021333Y029198D01*
X021258Y029123D01*
X021150Y029123D01*
X021075Y029198D01*
X021075Y029306D01*
X021150Y029381D01*
X021258Y029381D01*
X021333Y029306D01*
X021255Y029273D01*
X021255Y029231D01*
X021225Y029201D01*
X021183Y029201D01*
X021153Y029231D01*
X021153Y029273D01*
X021183Y029303D01*
X021225Y029303D01*
X021255Y029273D01*
X018359Y029286D02*
X018411Y029338D01*
X018411Y029166D01*
X018290Y029045D01*
X018118Y029045D01*
X017997Y029166D01*
X017997Y029338D01*
X018118Y029459D01*
X018290Y029459D01*
X018411Y029338D01*
X018333Y029306D01*
X018333Y029198D01*
X018258Y029123D01*
X018150Y029123D01*
X018075Y029198D01*
X018075Y029306D01*
X018150Y029381D01*
X018258Y029381D01*
X018333Y029306D01*
X018255Y029273D01*
X018255Y029231D01*
X018225Y029201D01*
X018183Y029201D01*
X018153Y029231D01*
X018153Y029273D01*
X018183Y029303D01*
X018225Y029303D01*
X018255Y029273D01*
X017652Y028579D02*
X017704Y028631D01*
X017704Y028459D01*
X017583Y028338D01*
X017411Y028338D01*
X017290Y028459D01*
X017290Y028631D01*
X017411Y028752D01*
X017583Y028752D01*
X017704Y028631D01*
X017626Y028599D01*
X017626Y028491D01*
X017551Y028416D01*
X017443Y028416D01*
X017368Y028491D01*
X017368Y028599D01*
X017443Y028674D01*
X017551Y028674D01*
X017626Y028599D01*
X017548Y028566D01*
X017548Y028524D01*
X017518Y028494D01*
X017476Y028494D01*
X017446Y028524D01*
X017446Y028566D01*
X017476Y028596D01*
X017518Y028596D01*
X017548Y028566D01*
X018359Y026286D02*
X018411Y026338D01*
X018411Y026166D01*
X018290Y026045D01*
X018118Y026045D01*
X017997Y026166D01*
X017997Y026338D01*
X018118Y026459D01*
X018290Y026459D01*
X018411Y026338D01*
X018333Y026306D01*
X018333Y026198D01*
X018258Y026123D01*
X018150Y026123D01*
X018075Y026198D01*
X018075Y026306D01*
X018150Y026381D01*
X018258Y026381D01*
X018333Y026306D01*
X018255Y026273D01*
X018255Y026231D01*
X018225Y026201D01*
X018183Y026201D01*
X018153Y026231D01*
X018153Y026273D01*
X018183Y026303D01*
X018225Y026303D01*
X018255Y026273D01*
X017652Y025579D02*
X017704Y025631D01*
X017704Y025459D01*
X017583Y025338D01*
X017411Y025338D01*
X017290Y025459D01*
X017290Y025631D01*
X017411Y025752D01*
X017583Y025752D01*
X017704Y025631D01*
X017626Y025599D01*
X017626Y025491D01*
X017551Y025416D01*
X017443Y025416D01*
X017368Y025491D01*
X017368Y025599D01*
X017443Y025674D01*
X017551Y025674D01*
X017626Y025599D01*
X017548Y025566D01*
X017548Y025524D01*
X017518Y025494D01*
X017476Y025494D01*
X017446Y025524D01*
X017446Y025566D01*
X017476Y025596D01*
X017518Y025596D01*
X017548Y025566D01*
X018359Y023286D02*
X018411Y023338D01*
X018411Y023166D01*
X018290Y023045D01*
X018118Y023045D01*
X017997Y023166D01*
X017997Y023338D01*
X018118Y023459D01*
X018290Y023459D01*
X018411Y023338D01*
X018333Y023306D01*
X018333Y023198D01*
X018258Y023123D01*
X018150Y023123D01*
X018075Y023198D01*
X018075Y023306D01*
X018150Y023381D01*
X018258Y023381D01*
X018333Y023306D01*
X018255Y023273D01*
X018255Y023231D01*
X018225Y023201D01*
X018183Y023201D01*
X018153Y023231D01*
X018153Y023273D01*
X018183Y023303D01*
X018225Y023303D01*
X018255Y023273D01*
X017652Y022579D02*
X017704Y022631D01*
X017704Y022459D01*
X017583Y022338D01*
X017411Y022338D01*
X017290Y022459D01*
X017290Y022631D01*
X017411Y022752D01*
X017583Y022752D01*
X017704Y022631D01*
X017626Y022599D01*
X017626Y022491D01*
X017551Y022416D01*
X017443Y022416D01*
X017368Y022491D01*
X017368Y022599D01*
X017443Y022674D01*
X017551Y022674D01*
X017626Y022599D01*
X017548Y022566D01*
X017548Y022524D01*
X017518Y022494D01*
X017476Y022494D01*
X017446Y022524D01*
X017446Y022566D01*
X017476Y022596D01*
X017518Y022596D01*
X017548Y022566D01*
X018359Y020286D02*
X018411Y020338D01*
X018411Y020166D01*
X018290Y020045D01*
X018118Y020045D01*
X017997Y020166D01*
X017997Y020338D01*
X018118Y020459D01*
X018290Y020459D01*
X018411Y020338D01*
X018333Y020306D01*
X018333Y020198D01*
X018258Y020123D01*
X018150Y020123D01*
X018075Y020198D01*
X018075Y020306D01*
X018150Y020381D01*
X018258Y020381D01*
X018333Y020306D01*
X018255Y020273D01*
X018255Y020231D01*
X018225Y020201D01*
X018183Y020201D01*
X018153Y020231D01*
X018153Y020273D01*
X018183Y020303D01*
X018225Y020303D01*
X018255Y020273D01*
X017652Y019579D02*
X017704Y019631D01*
X017704Y019459D01*
X017583Y019338D01*
X017411Y019338D01*
X017290Y019459D01*
X017290Y019631D01*
X017411Y019752D01*
X017583Y019752D01*
X017704Y019631D01*
X017626Y019599D01*
X017626Y019491D01*
X017551Y019416D01*
X017443Y019416D01*
X017368Y019491D01*
X017368Y019599D01*
X017443Y019674D01*
X017551Y019674D01*
X017626Y019599D01*
X017548Y019566D01*
X017548Y019524D01*
X017518Y019494D01*
X017476Y019494D01*
X017446Y019524D01*
X017446Y019566D01*
X017476Y019596D01*
X017518Y019596D01*
X017548Y019566D01*
X018359Y017286D02*
X018411Y017338D01*
X018411Y017166D01*
X018290Y017045D01*
X018118Y017045D01*
X017997Y017166D01*
X017997Y017338D01*
X018118Y017459D01*
X018290Y017459D01*
X018411Y017338D01*
X018333Y017306D01*
X018333Y017198D01*
X018258Y017123D01*
X018150Y017123D01*
X018075Y017198D01*
X018075Y017306D01*
X018150Y017381D01*
X018258Y017381D01*
X018333Y017306D01*
X018255Y017273D01*
X018255Y017231D01*
X018225Y017201D01*
X018183Y017201D01*
X018153Y017231D01*
X018153Y017273D01*
X018183Y017303D01*
X018225Y017303D01*
X018255Y017273D01*
X017652Y016579D02*
X017704Y016631D01*
X017704Y016459D01*
X017583Y016338D01*
X017411Y016338D01*
X017290Y016459D01*
X017290Y016631D01*
X017411Y016752D01*
X017583Y016752D01*
X017704Y016631D01*
X017626Y016599D01*
X017626Y016491D01*
X017551Y016416D01*
X017443Y016416D01*
X017368Y016491D01*
X017368Y016599D01*
X017443Y016674D01*
X017551Y016674D01*
X017626Y016599D01*
X017548Y016566D01*
X017548Y016524D01*
X017518Y016494D01*
X017476Y016494D01*
X017446Y016524D01*
X017446Y016566D01*
X017476Y016596D01*
X017518Y016596D01*
X017548Y016566D01*
X018359Y014286D02*
X018411Y014338D01*
X018411Y014166D01*
X018290Y014045D01*
X018118Y014045D01*
X017997Y014166D01*
X017997Y014338D01*
X018118Y014459D01*
X018290Y014459D01*
X018411Y014338D01*
X018333Y014306D01*
X018333Y014198D01*
X018258Y014123D01*
X018150Y014123D01*
X018075Y014198D01*
X018075Y014306D01*
X018150Y014381D01*
X018258Y014381D01*
X018333Y014306D01*
X018255Y014273D01*
X018255Y014231D01*
X018225Y014201D01*
X018183Y014201D01*
X018153Y014231D01*
X018153Y014273D01*
X018183Y014303D01*
X018225Y014303D01*
X018255Y014273D01*
X017652Y013579D02*
X017704Y013631D01*
X017704Y013459D01*
X017583Y013338D01*
X017411Y013338D01*
X017290Y013459D01*
X017290Y013631D01*
X017411Y013752D01*
X017583Y013752D01*
X017704Y013631D01*
X017626Y013599D01*
X017626Y013491D01*
X017551Y013416D01*
X017443Y013416D01*
X017368Y013491D01*
X017368Y013599D01*
X017443Y013674D01*
X017551Y013674D01*
X017626Y013599D01*
X017548Y013566D01*
X017548Y013524D01*
X017518Y013494D01*
X017476Y013494D01*
X017446Y013524D01*
X017446Y013566D01*
X017476Y013596D01*
X017518Y013596D01*
X017548Y013566D01*
X015359Y014286D02*
X015411Y014338D01*
X015411Y014166D01*
X015290Y014045D01*
X015118Y014045D01*
X014997Y014166D01*
X014997Y014338D01*
X015118Y014459D01*
X015290Y014459D01*
X015411Y014338D01*
X015333Y014306D01*
X015333Y014198D01*
X015258Y014123D01*
X015150Y014123D01*
X015075Y014198D01*
X015075Y014306D01*
X015150Y014381D01*
X015258Y014381D01*
X015333Y014306D01*
X015255Y014273D01*
X015255Y014231D01*
X015225Y014201D01*
X015183Y014201D01*
X015153Y014231D01*
X015153Y014273D01*
X015183Y014303D01*
X015225Y014303D01*
X015255Y014273D01*
X014652Y013579D02*
X014704Y013631D01*
X014704Y013459D01*
X014583Y013338D01*
X014411Y013338D01*
X014290Y013459D01*
X014290Y013631D01*
X014411Y013752D01*
X014583Y013752D01*
X014704Y013631D01*
X014626Y013599D01*
X014626Y013491D01*
X014551Y013416D01*
X014443Y013416D01*
X014368Y013491D01*
X014368Y013599D01*
X014443Y013674D01*
X014551Y013674D01*
X014626Y013599D01*
X014548Y013566D01*
X014548Y013524D01*
X014518Y013494D01*
X014476Y013494D01*
X014446Y013524D01*
X014446Y013566D01*
X014476Y013596D01*
X014518Y013596D01*
X014548Y013566D01*
X012359Y014286D02*
X012411Y014338D01*
X012411Y014166D01*
X012290Y014045D01*
X012118Y014045D01*
X011997Y014166D01*
X011997Y014338D01*
X012118Y014459D01*
X012290Y014459D01*
X012411Y014338D01*
X012333Y014306D01*
X012333Y014198D01*
X012258Y014123D01*
X012150Y014123D01*
X012075Y014198D01*
X012075Y014306D01*
X012150Y014381D01*
X012258Y014381D01*
X012333Y014306D01*
X012255Y014273D01*
X012255Y014231D01*
X012225Y014201D01*
X012183Y014201D01*
X012153Y014231D01*
X012153Y014273D01*
X012183Y014303D01*
X012225Y014303D01*
X012255Y014273D01*
X011652Y013579D02*
X011704Y013631D01*
X011704Y013459D01*
X011583Y013338D01*
X011411Y013338D01*
X011290Y013459D01*
X011290Y013631D01*
X011411Y013752D01*
X011583Y013752D01*
X011704Y013631D01*
X011626Y013599D01*
X011626Y013491D01*
X011551Y013416D01*
X011443Y013416D01*
X011368Y013491D01*
X011368Y013599D01*
X011443Y013674D01*
X011551Y013674D01*
X011626Y013599D01*
X011548Y013566D01*
X011548Y013524D01*
X011518Y013494D01*
X011476Y013494D01*
X011446Y013524D01*
X011446Y013566D01*
X011476Y013596D01*
X011518Y013596D01*
X011548Y013566D01*
X009359Y014286D02*
X009411Y014338D01*
X009411Y014166D01*
X009290Y014045D01*
X009118Y014045D01*
X008997Y014166D01*
X008997Y014338D01*
X009118Y014459D01*
X009290Y014459D01*
X009411Y014338D01*
X009333Y014306D01*
X009333Y014198D01*
X009258Y014123D01*
X009150Y014123D01*
X009075Y014198D01*
X009075Y014306D01*
X009150Y014381D01*
X009258Y014381D01*
X009333Y014306D01*
X009255Y014273D01*
X009255Y014231D01*
X009225Y014201D01*
X009183Y014201D01*
X009153Y014231D01*
X009153Y014273D01*
X009183Y014303D01*
X009225Y014303D01*
X009255Y014273D01*
X008652Y013579D02*
X008704Y013631D01*
X008704Y013459D01*
X008583Y013338D01*
X008411Y013338D01*
X008290Y013459D01*
X008290Y013631D01*
X008411Y013752D01*
X008583Y013752D01*
X008704Y013631D01*
X008626Y013599D01*
X008626Y013491D01*
X008551Y013416D01*
X008443Y013416D01*
X008368Y013491D01*
X008368Y013599D01*
X008443Y013674D01*
X008551Y013674D01*
X008626Y013599D01*
X008548Y013566D01*
X008548Y013524D01*
X008518Y013494D01*
X008476Y013494D01*
X008446Y013524D01*
X008446Y013566D01*
X008476Y013596D01*
X008518Y013596D01*
X008548Y013566D01*
X006359Y014286D02*
X006411Y014338D01*
X006411Y014166D01*
X006290Y014045D01*
X006118Y014045D01*
X005997Y014166D01*
X005997Y014338D01*
X006118Y014459D01*
X006290Y014459D01*
X006411Y014338D01*
X006333Y014306D01*
X006333Y014198D01*
X006258Y014123D01*
X006150Y014123D01*
X006075Y014198D01*
X006075Y014306D01*
X006150Y014381D01*
X006258Y014381D01*
X006333Y014306D01*
X006255Y014273D01*
X006255Y014231D01*
X006225Y014201D01*
X006183Y014201D01*
X006153Y014231D01*
X006153Y014273D01*
X006183Y014303D01*
X006225Y014303D01*
X006255Y014273D01*
X005652Y013579D02*
X005704Y013631D01*
X005704Y013459D01*
X005583Y013338D01*
X005411Y013338D01*
X005290Y013459D01*
X005290Y013631D01*
X005411Y013752D01*
X005583Y013752D01*
X005704Y013631D01*
X005626Y013599D01*
X005626Y013491D01*
X005551Y013416D01*
X005443Y013416D01*
X005368Y013491D01*
X005368Y013599D01*
X005443Y013674D01*
X005551Y013674D01*
X005626Y013599D01*
X005548Y013566D01*
X005548Y013524D01*
X005518Y013494D01*
X005476Y013494D01*
X005446Y013524D01*
X005446Y013566D01*
X005476Y013596D01*
X005518Y013596D01*
X005548Y013566D01*
X005652Y016579D02*
X005704Y016631D01*
X005704Y016459D01*
X005583Y016338D01*
X005411Y016338D01*
X005290Y016459D01*
X005290Y016631D01*
X005411Y016752D01*
X005583Y016752D01*
X005704Y016631D01*
X005626Y016599D01*
X005626Y016491D01*
X005551Y016416D01*
X005443Y016416D01*
X005368Y016491D01*
X005368Y016599D01*
X005443Y016674D01*
X005551Y016674D01*
X005626Y016599D01*
X005548Y016566D01*
X005548Y016524D01*
X005518Y016494D01*
X005476Y016494D01*
X005446Y016524D01*
X005446Y016566D01*
X005476Y016596D01*
X005518Y016596D01*
X005548Y016566D01*
X006359Y017286D02*
X006411Y017338D01*
X006411Y017166D01*
X006290Y017045D01*
X006118Y017045D01*
X005997Y017166D01*
X005997Y017338D01*
X006118Y017459D01*
X006290Y017459D01*
X006411Y017338D01*
X006333Y017306D01*
X006333Y017198D01*
X006258Y017123D01*
X006150Y017123D01*
X006075Y017198D01*
X006075Y017306D01*
X006150Y017381D01*
X006258Y017381D01*
X006333Y017306D01*
X006255Y017273D01*
X006255Y017231D01*
X006225Y017201D01*
X006183Y017201D01*
X006153Y017231D01*
X006153Y017273D01*
X006183Y017303D01*
X006225Y017303D01*
X006255Y017273D01*
X008652Y016579D02*
X008704Y016631D01*
X008704Y016459D01*
X008583Y016338D01*
X008411Y016338D01*
X008290Y016459D01*
X008290Y016631D01*
X008411Y016752D01*
X008583Y016752D01*
X008704Y016631D01*
X008626Y016599D01*
X008626Y016491D01*
X008551Y016416D01*
X008443Y016416D01*
X008368Y016491D01*
X008368Y016599D01*
X008443Y016674D01*
X008551Y016674D01*
X008626Y016599D01*
X008548Y016566D01*
X008548Y016524D01*
X008518Y016494D01*
X008476Y016494D01*
X008446Y016524D01*
X008446Y016566D01*
X008476Y016596D01*
X008518Y016596D01*
X008548Y016566D01*
X009359Y017286D02*
X009411Y017338D01*
X009411Y017166D01*
X009290Y017045D01*
X009118Y017045D01*
X008997Y017166D01*
X008997Y017338D01*
X009118Y017459D01*
X009290Y017459D01*
X009411Y017338D01*
X009333Y017306D01*
X009333Y017198D01*
X009258Y017123D01*
X009150Y017123D01*
X009075Y017198D01*
X009075Y017306D01*
X009150Y017381D01*
X009258Y017381D01*
X009333Y017306D01*
X009255Y017273D01*
X009255Y017231D01*
X009225Y017201D01*
X009183Y017201D01*
X009153Y017231D01*
X009153Y017273D01*
X009183Y017303D01*
X009225Y017303D01*
X009255Y017273D01*
X011652Y016579D02*
X011704Y016631D01*
X011704Y016459D01*
X011583Y016338D01*
X011411Y016338D01*
X011290Y016459D01*
X011290Y016631D01*
X011411Y016752D01*
X011583Y016752D01*
X011704Y016631D01*
X011626Y016599D01*
X011626Y016491D01*
X011551Y016416D01*
X011443Y016416D01*
X011368Y016491D01*
X011368Y016599D01*
X011443Y016674D01*
X011551Y016674D01*
X011626Y016599D01*
X011548Y016566D01*
X011548Y016524D01*
X011518Y016494D01*
X011476Y016494D01*
X011446Y016524D01*
X011446Y016566D01*
X011476Y016596D01*
X011518Y016596D01*
X011548Y016566D01*
X012359Y017286D02*
X012411Y017338D01*
X012411Y017166D01*
X012290Y017045D01*
X012118Y017045D01*
X011997Y017166D01*
X011997Y017338D01*
X012118Y017459D01*
X012290Y017459D01*
X012411Y017338D01*
X012333Y017306D01*
X012333Y017198D01*
X012258Y017123D01*
X012150Y017123D01*
X012075Y017198D01*
X012075Y017306D01*
X012150Y017381D01*
X012258Y017381D01*
X012333Y017306D01*
X012255Y017273D01*
X012255Y017231D01*
X012225Y017201D01*
X012183Y017201D01*
X012153Y017231D01*
X012153Y017273D01*
X012183Y017303D01*
X012225Y017303D01*
X012255Y017273D01*
X014652Y016579D02*
X014704Y016631D01*
X014704Y016459D01*
X014583Y016338D01*
X014411Y016338D01*
X014290Y016459D01*
X014290Y016631D01*
X014411Y016752D01*
X014583Y016752D01*
X014704Y016631D01*
X014626Y016599D01*
X014626Y016491D01*
X014551Y016416D01*
X014443Y016416D01*
X014368Y016491D01*
X014368Y016599D01*
X014443Y016674D01*
X014551Y016674D01*
X014626Y016599D01*
X014548Y016566D01*
X014548Y016524D01*
X014518Y016494D01*
X014476Y016494D01*
X014446Y016524D01*
X014446Y016566D01*
X014476Y016596D01*
X014518Y016596D01*
X014548Y016566D01*
X015359Y017286D02*
X015411Y017338D01*
X015411Y017166D01*
X015290Y017045D01*
X015118Y017045D01*
X014997Y017166D01*
X014997Y017338D01*
X015118Y017459D01*
X015290Y017459D01*
X015411Y017338D01*
X015333Y017306D01*
X015333Y017198D01*
X015258Y017123D01*
X015150Y017123D01*
X015075Y017198D01*
X015075Y017306D01*
X015150Y017381D01*
X015258Y017381D01*
X015333Y017306D01*
X015255Y017273D01*
X015255Y017231D01*
X015225Y017201D01*
X015183Y017201D01*
X015153Y017231D01*
X015153Y017273D01*
X015183Y017303D01*
X015225Y017303D01*
X015255Y017273D01*
X014652Y019579D02*
X014704Y019631D01*
X014704Y019459D01*
X014583Y019338D01*
X014411Y019338D01*
X014290Y019459D01*
X014290Y019631D01*
X014411Y019752D01*
X014583Y019752D01*
X014704Y019631D01*
X014626Y019599D01*
X014626Y019491D01*
X014551Y019416D01*
X014443Y019416D01*
X014368Y019491D01*
X014368Y019599D01*
X014443Y019674D01*
X014551Y019674D01*
X014626Y019599D01*
X014548Y019566D01*
X014548Y019524D01*
X014518Y019494D01*
X014476Y019494D01*
X014446Y019524D01*
X014446Y019566D01*
X014476Y019596D01*
X014518Y019596D01*
X014548Y019566D01*
X015359Y020286D02*
X015411Y020338D01*
X015411Y020166D01*
X015290Y020045D01*
X015118Y020045D01*
X014997Y020166D01*
X014997Y020338D01*
X015118Y020459D01*
X015290Y020459D01*
X015411Y020338D01*
X015333Y020306D01*
X015333Y020198D01*
X015258Y020123D01*
X015150Y020123D01*
X015075Y020198D01*
X015075Y020306D01*
X015150Y020381D01*
X015258Y020381D01*
X015333Y020306D01*
X015255Y020273D01*
X015255Y020231D01*
X015225Y020201D01*
X015183Y020201D01*
X015153Y020231D01*
X015153Y020273D01*
X015183Y020303D01*
X015225Y020303D01*
X015255Y020273D01*
X014652Y022579D02*
X014704Y022631D01*
X014704Y022459D01*
X014583Y022338D01*
X014411Y022338D01*
X014290Y022459D01*
X014290Y022631D01*
X014411Y022752D01*
X014583Y022752D01*
X014704Y022631D01*
X014626Y022599D01*
X014626Y022491D01*
X014551Y022416D01*
X014443Y022416D01*
X014368Y022491D01*
X014368Y022599D01*
X014443Y022674D01*
X014551Y022674D01*
X014626Y022599D01*
X014548Y022566D01*
X014548Y022524D01*
X014518Y022494D01*
X014476Y022494D01*
X014446Y022524D01*
X014446Y022566D01*
X014476Y022596D01*
X014518Y022596D01*
X014548Y022566D01*
X015359Y023286D02*
X015411Y023338D01*
X015411Y023166D01*
X015290Y023045D01*
X015118Y023045D01*
X014997Y023166D01*
X014997Y023338D01*
X015118Y023459D01*
X015290Y023459D01*
X015411Y023338D01*
X015333Y023306D01*
X015333Y023198D01*
X015258Y023123D01*
X015150Y023123D01*
X015075Y023198D01*
X015075Y023306D01*
X015150Y023381D01*
X015258Y023381D01*
X015333Y023306D01*
X015255Y023273D01*
X015255Y023231D01*
X015225Y023201D01*
X015183Y023201D01*
X015153Y023231D01*
X015153Y023273D01*
X015183Y023303D01*
X015225Y023303D01*
X015255Y023273D01*
X014652Y025579D02*
X014704Y025631D01*
X014704Y025459D01*
X014583Y025338D01*
X014411Y025338D01*
X014290Y025459D01*
X014290Y025631D01*
X014411Y025752D01*
X014583Y025752D01*
X014704Y025631D01*
X014626Y025599D01*
X014626Y025491D01*
X014551Y025416D01*
X014443Y025416D01*
X014368Y025491D01*
X014368Y025599D01*
X014443Y025674D01*
X014551Y025674D01*
X014626Y025599D01*
X014548Y025566D01*
X014548Y025524D01*
X014518Y025494D01*
X014476Y025494D01*
X014446Y025524D01*
X014446Y025566D01*
X014476Y025596D01*
X014518Y025596D01*
X014548Y025566D01*
X015359Y026286D02*
X015411Y026338D01*
X015411Y026166D01*
X015290Y026045D01*
X015118Y026045D01*
X014997Y026166D01*
X014997Y026338D01*
X015118Y026459D01*
X015290Y026459D01*
X015411Y026338D01*
X015333Y026306D01*
X015333Y026198D01*
X015258Y026123D01*
X015150Y026123D01*
X015075Y026198D01*
X015075Y026306D01*
X015150Y026381D01*
X015258Y026381D01*
X015333Y026306D01*
X015255Y026273D01*
X015255Y026231D01*
X015225Y026201D01*
X015183Y026201D01*
X015153Y026231D01*
X015153Y026273D01*
X015183Y026303D01*
X015225Y026303D01*
X015255Y026273D01*
X014652Y028579D02*
X014704Y028631D01*
X014704Y028459D01*
X014583Y028338D01*
X014411Y028338D01*
X014290Y028459D01*
X014290Y028631D01*
X014411Y028752D01*
X014583Y028752D01*
X014704Y028631D01*
X014626Y028599D01*
X014626Y028491D01*
X014551Y028416D01*
X014443Y028416D01*
X014368Y028491D01*
X014368Y028599D01*
X014443Y028674D01*
X014551Y028674D01*
X014626Y028599D01*
X014548Y028566D01*
X014548Y028524D01*
X014518Y028494D01*
X014476Y028494D01*
X014446Y028524D01*
X014446Y028566D01*
X014476Y028596D01*
X014518Y028596D01*
X014548Y028566D01*
X015359Y029286D02*
X015411Y029338D01*
X015411Y029166D01*
X015290Y029045D01*
X015118Y029045D01*
X014997Y029166D01*
X014997Y029338D01*
X015118Y029459D01*
X015290Y029459D01*
X015411Y029338D01*
X015333Y029306D01*
X015333Y029198D01*
X015258Y029123D01*
X015150Y029123D01*
X015075Y029198D01*
X015075Y029306D01*
X015150Y029381D01*
X015258Y029381D01*
X015333Y029306D01*
X015255Y029273D01*
X015255Y029231D01*
X015225Y029201D01*
X015183Y029201D01*
X015153Y029231D01*
X015153Y029273D01*
X015183Y029303D01*
X015225Y029303D01*
X015255Y029273D01*
X012359Y029286D02*
X012411Y029338D01*
X012411Y029166D01*
X012290Y029045D01*
X012118Y029045D01*
X011997Y029166D01*
X011997Y029338D01*
X012118Y029459D01*
X012290Y029459D01*
X012411Y029338D01*
X012333Y029306D01*
X012333Y029198D01*
X012258Y029123D01*
X012150Y029123D01*
X012075Y029198D01*
X012075Y029306D01*
X012150Y029381D01*
X012258Y029381D01*
X012333Y029306D01*
X012255Y029273D01*
X012255Y029231D01*
X012225Y029201D01*
X012183Y029201D01*
X012153Y029231D01*
X012153Y029273D01*
X012183Y029303D01*
X012225Y029303D01*
X012255Y029273D01*
X011652Y028579D02*
X011704Y028631D01*
X011704Y028459D01*
X011583Y028338D01*
X011411Y028338D01*
X011290Y028459D01*
X011290Y028631D01*
X011411Y028752D01*
X011583Y028752D01*
X011704Y028631D01*
X011626Y028599D01*
X011626Y028491D01*
X011551Y028416D01*
X011443Y028416D01*
X011368Y028491D01*
X011368Y028599D01*
X011443Y028674D01*
X011551Y028674D01*
X011626Y028599D01*
X011548Y028566D01*
X011548Y028524D01*
X011518Y028494D01*
X011476Y028494D01*
X011446Y028524D01*
X011446Y028566D01*
X011476Y028596D01*
X011518Y028596D01*
X011548Y028566D01*
X012359Y026286D02*
X012411Y026338D01*
X012411Y026166D01*
X012290Y026045D01*
X012118Y026045D01*
X011997Y026166D01*
X011997Y026338D01*
X012118Y026459D01*
X012290Y026459D01*
X012411Y026338D01*
X012333Y026306D01*
X012333Y026198D01*
X012258Y026123D01*
X012150Y026123D01*
X012075Y026198D01*
X012075Y026306D01*
X012150Y026381D01*
X012258Y026381D01*
X012333Y026306D01*
X012255Y026273D01*
X012255Y026231D01*
X012225Y026201D01*
X012183Y026201D01*
X012153Y026231D01*
X012153Y026273D01*
X012183Y026303D01*
X012225Y026303D01*
X012255Y026273D01*
X011652Y025579D02*
X011704Y025631D01*
X011704Y025459D01*
X011583Y025338D01*
X011411Y025338D01*
X011290Y025459D01*
X011290Y025631D01*
X011411Y025752D01*
X011583Y025752D01*
X011704Y025631D01*
X011626Y025599D01*
X011626Y025491D01*
X011551Y025416D01*
X011443Y025416D01*
X011368Y025491D01*
X011368Y025599D01*
X011443Y025674D01*
X011551Y025674D01*
X011626Y025599D01*
X011548Y025566D01*
X011548Y025524D01*
X011518Y025494D01*
X011476Y025494D01*
X011446Y025524D01*
X011446Y025566D01*
X011476Y025596D01*
X011518Y025596D01*
X011548Y025566D01*
X012359Y023286D02*
X012411Y023338D01*
X012411Y023166D01*
X012290Y023045D01*
X012118Y023045D01*
X011997Y023166D01*
X011997Y023338D01*
X012118Y023459D01*
X012290Y023459D01*
X012411Y023338D01*
X012333Y023306D01*
X012333Y023198D01*
X012258Y023123D01*
X012150Y023123D01*
X012075Y023198D01*
X012075Y023306D01*
X012150Y023381D01*
X012258Y023381D01*
X012333Y023306D01*
X012255Y023273D01*
X012255Y023231D01*
X012225Y023201D01*
X012183Y023201D01*
X012153Y023231D01*
X012153Y023273D01*
X012183Y023303D01*
X012225Y023303D01*
X012255Y023273D01*
X011652Y022579D02*
X011704Y022631D01*
X011704Y022459D01*
X011583Y022338D01*
X011411Y022338D01*
X011290Y022459D01*
X011290Y022631D01*
X011411Y022752D01*
X011583Y022752D01*
X011704Y022631D01*
X011626Y022599D01*
X011626Y022491D01*
X011551Y022416D01*
X011443Y022416D01*
X011368Y022491D01*
X011368Y022599D01*
X011443Y022674D01*
X011551Y022674D01*
X011626Y022599D01*
X011548Y022566D01*
X011548Y022524D01*
X011518Y022494D01*
X011476Y022494D01*
X011446Y022524D01*
X011446Y022566D01*
X011476Y022596D01*
X011518Y022596D01*
X011548Y022566D01*
X012359Y020286D02*
X012411Y020338D01*
X012411Y020166D01*
X012290Y020045D01*
X012118Y020045D01*
X011997Y020166D01*
X011997Y020338D01*
X012118Y020459D01*
X012290Y020459D01*
X012411Y020338D01*
X012333Y020306D01*
X012333Y020198D01*
X012258Y020123D01*
X012150Y020123D01*
X012075Y020198D01*
X012075Y020306D01*
X012150Y020381D01*
X012258Y020381D01*
X012333Y020306D01*
X012255Y020273D01*
X012255Y020231D01*
X012225Y020201D01*
X012183Y020201D01*
X012153Y020231D01*
X012153Y020273D01*
X012183Y020303D01*
X012225Y020303D01*
X012255Y020273D01*
X011652Y019579D02*
X011704Y019631D01*
X011704Y019459D01*
X011583Y019338D01*
X011411Y019338D01*
X011290Y019459D01*
X011290Y019631D01*
X011411Y019752D01*
X011583Y019752D01*
X011704Y019631D01*
X011626Y019599D01*
X011626Y019491D01*
X011551Y019416D01*
X011443Y019416D01*
X011368Y019491D01*
X011368Y019599D01*
X011443Y019674D01*
X011551Y019674D01*
X011626Y019599D01*
X011548Y019566D01*
X011548Y019524D01*
X011518Y019494D01*
X011476Y019494D01*
X011446Y019524D01*
X011446Y019566D01*
X011476Y019596D01*
X011518Y019596D01*
X011548Y019566D01*
X009359Y020286D02*
X009411Y020338D01*
X009411Y020166D01*
X009290Y020045D01*
X009118Y020045D01*
X008997Y020166D01*
X008997Y020338D01*
X009118Y020459D01*
X009290Y020459D01*
X009411Y020338D01*
X009333Y020306D01*
X009333Y020198D01*
X009258Y020123D01*
X009150Y020123D01*
X009075Y020198D01*
X009075Y020306D01*
X009150Y020381D01*
X009258Y020381D01*
X009333Y020306D01*
X009255Y020273D01*
X009255Y020231D01*
X009225Y020201D01*
X009183Y020201D01*
X009153Y020231D01*
X009153Y020273D01*
X009183Y020303D01*
X009225Y020303D01*
X009255Y020273D01*
X008652Y019579D02*
X008704Y019631D01*
X008704Y019459D01*
X008583Y019338D01*
X008411Y019338D01*
X008290Y019459D01*
X008290Y019631D01*
X008411Y019752D01*
X008583Y019752D01*
X008704Y019631D01*
X008626Y019599D01*
X008626Y019491D01*
X008551Y019416D01*
X008443Y019416D01*
X008368Y019491D01*
X008368Y019599D01*
X008443Y019674D01*
X008551Y019674D01*
X008626Y019599D01*
X008548Y019566D01*
X008548Y019524D01*
X008518Y019494D01*
X008476Y019494D01*
X008446Y019524D01*
X008446Y019566D01*
X008476Y019596D01*
X008518Y019596D01*
X008548Y019566D01*
X006359Y020286D02*
X006411Y020338D01*
X006411Y020166D01*
X006290Y020045D01*
X006118Y020045D01*
X005997Y020166D01*
X005997Y020338D01*
X006118Y020459D01*
X006290Y020459D01*
X006411Y020338D01*
X006333Y020306D01*
X006333Y020198D01*
X006258Y020123D01*
X006150Y020123D01*
X006075Y020198D01*
X006075Y020306D01*
X006150Y020381D01*
X006258Y020381D01*
X006333Y020306D01*
X006255Y020273D01*
X006255Y020231D01*
X006225Y020201D01*
X006183Y020201D01*
X006153Y020231D01*
X006153Y020273D01*
X006183Y020303D01*
X006225Y020303D01*
X006255Y020273D01*
X005652Y019579D02*
X005704Y019631D01*
X005704Y019459D01*
X005583Y019338D01*
X005411Y019338D01*
X005290Y019459D01*
X005290Y019631D01*
X005411Y019752D01*
X005583Y019752D01*
X005704Y019631D01*
X005626Y019599D01*
X005626Y019491D01*
X005551Y019416D01*
X005443Y019416D01*
X005368Y019491D01*
X005368Y019599D01*
X005443Y019674D01*
X005551Y019674D01*
X005626Y019599D01*
X005548Y019566D01*
X005548Y019524D01*
X005518Y019494D01*
X005476Y019494D01*
X005446Y019524D01*
X005446Y019566D01*
X005476Y019596D01*
X005518Y019596D01*
X005548Y019566D01*
X005652Y022579D02*
X005704Y022631D01*
X005704Y022459D01*
X005583Y022338D01*
X005411Y022338D01*
X005290Y022459D01*
X005290Y022631D01*
X005411Y022752D01*
X005583Y022752D01*
X005704Y022631D01*
X005626Y022599D01*
X005626Y022491D01*
X005551Y022416D01*
X005443Y022416D01*
X005368Y022491D01*
X005368Y022599D01*
X005443Y022674D01*
X005551Y022674D01*
X005626Y022599D01*
X005548Y022566D01*
X005548Y022524D01*
X005518Y022494D01*
X005476Y022494D01*
X005446Y022524D01*
X005446Y022566D01*
X005476Y022596D01*
X005518Y022596D01*
X005548Y022566D01*
X006359Y023286D02*
X006411Y023338D01*
X006411Y023166D01*
X006290Y023045D01*
X006118Y023045D01*
X005997Y023166D01*
X005997Y023338D01*
X006118Y023459D01*
X006290Y023459D01*
X006411Y023338D01*
X006333Y023306D01*
X006333Y023198D01*
X006258Y023123D01*
X006150Y023123D01*
X006075Y023198D01*
X006075Y023306D01*
X006150Y023381D01*
X006258Y023381D01*
X006333Y023306D01*
X006255Y023273D01*
X006255Y023231D01*
X006225Y023201D01*
X006183Y023201D01*
X006153Y023231D01*
X006153Y023273D01*
X006183Y023303D01*
X006225Y023303D01*
X006255Y023273D01*
X008652Y022579D02*
X008704Y022631D01*
X008704Y022459D01*
X008583Y022338D01*
X008411Y022338D01*
X008290Y022459D01*
X008290Y022631D01*
X008411Y022752D01*
X008583Y022752D01*
X008704Y022631D01*
X008626Y022599D01*
X008626Y022491D01*
X008551Y022416D01*
X008443Y022416D01*
X008368Y022491D01*
X008368Y022599D01*
X008443Y022674D01*
X008551Y022674D01*
X008626Y022599D01*
X008548Y022566D01*
X008548Y022524D01*
X008518Y022494D01*
X008476Y022494D01*
X008446Y022524D01*
X008446Y022566D01*
X008476Y022596D01*
X008518Y022596D01*
X008548Y022566D01*
X009359Y023286D02*
X009411Y023338D01*
X009411Y023166D01*
X009290Y023045D01*
X009118Y023045D01*
X008997Y023166D01*
X008997Y023338D01*
X009118Y023459D01*
X009290Y023459D01*
X009411Y023338D01*
X009333Y023306D01*
X009333Y023198D01*
X009258Y023123D01*
X009150Y023123D01*
X009075Y023198D01*
X009075Y023306D01*
X009150Y023381D01*
X009258Y023381D01*
X009333Y023306D01*
X009255Y023273D01*
X009255Y023231D01*
X009225Y023201D01*
X009183Y023201D01*
X009153Y023231D01*
X009153Y023273D01*
X009183Y023303D01*
X009225Y023303D01*
X009255Y023273D01*
X008652Y025579D02*
X008704Y025631D01*
X008704Y025459D01*
X008583Y025338D01*
X008411Y025338D01*
X008290Y025459D01*
X008290Y025631D01*
X008411Y025752D01*
X008583Y025752D01*
X008704Y025631D01*
X008626Y025599D01*
X008626Y025491D01*
X008551Y025416D01*
X008443Y025416D01*
X008368Y025491D01*
X008368Y025599D01*
X008443Y025674D01*
X008551Y025674D01*
X008626Y025599D01*
X008548Y025566D01*
X008548Y025524D01*
X008518Y025494D01*
X008476Y025494D01*
X008446Y025524D01*
X008446Y025566D01*
X008476Y025596D01*
X008518Y025596D01*
X008548Y025566D01*
X009359Y026286D02*
X009411Y026338D01*
X009411Y026166D01*
X009290Y026045D01*
X009118Y026045D01*
X008997Y026166D01*
X008997Y026338D01*
X009118Y026459D01*
X009290Y026459D01*
X009411Y026338D01*
X009333Y026306D01*
X009333Y026198D01*
X009258Y026123D01*
X009150Y026123D01*
X009075Y026198D01*
X009075Y026306D01*
X009150Y026381D01*
X009258Y026381D01*
X009333Y026306D01*
X009255Y026273D01*
X009255Y026231D01*
X009225Y026201D01*
X009183Y026201D01*
X009153Y026231D01*
X009153Y026273D01*
X009183Y026303D01*
X009225Y026303D01*
X009255Y026273D01*
X008652Y028579D02*
X008704Y028631D01*
X008704Y028459D01*
X008583Y028338D01*
X008411Y028338D01*
X008290Y028459D01*
X008290Y028631D01*
X008411Y028752D01*
X008583Y028752D01*
X008704Y028631D01*
X008626Y028599D01*
X008626Y028491D01*
X008551Y028416D01*
X008443Y028416D01*
X008368Y028491D01*
X008368Y028599D01*
X008443Y028674D01*
X008551Y028674D01*
X008626Y028599D01*
X008548Y028566D01*
X008548Y028524D01*
X008518Y028494D01*
X008476Y028494D01*
X008446Y028524D01*
X008446Y028566D01*
X008476Y028596D01*
X008518Y028596D01*
X008548Y028566D01*
X009359Y029286D02*
X009411Y029338D01*
X009411Y029166D01*
X009290Y029045D01*
X009118Y029045D01*
X008997Y029166D01*
X008997Y029338D01*
X009118Y029459D01*
X009290Y029459D01*
X009411Y029338D01*
X009333Y029306D01*
X009333Y029198D01*
X009258Y029123D01*
X009150Y029123D01*
X009075Y029198D01*
X009075Y029306D01*
X009150Y029381D01*
X009258Y029381D01*
X009333Y029306D01*
X009255Y029273D01*
X009255Y029231D01*
X009225Y029201D01*
X009183Y029201D01*
X009153Y029231D01*
X009153Y029273D01*
X009183Y029303D01*
X009225Y029303D01*
X009255Y029273D01*
X006359Y029286D02*
X006411Y029338D01*
X006411Y029166D01*
X006290Y029045D01*
X006118Y029045D01*
X005997Y029166D01*
X005997Y029338D01*
X006118Y029459D01*
X006290Y029459D01*
X006411Y029338D01*
X006333Y029306D01*
X006333Y029198D01*
X006258Y029123D01*
X006150Y029123D01*
X006075Y029198D01*
X006075Y029306D01*
X006150Y029381D01*
X006258Y029381D01*
X006333Y029306D01*
X006255Y029273D01*
X006255Y029231D01*
X006225Y029201D01*
X006183Y029201D01*
X006153Y029231D01*
X006153Y029273D01*
X006183Y029303D01*
X006225Y029303D01*
X006255Y029273D01*
X005652Y028579D02*
X005704Y028631D01*
X005704Y028459D01*
X005583Y028338D01*
X005411Y028338D01*
X005290Y028459D01*
X005290Y028631D01*
X005411Y028752D01*
X005583Y028752D01*
X005704Y028631D01*
X005626Y028599D01*
X005626Y028491D01*
X005551Y028416D01*
X005443Y028416D01*
X005368Y028491D01*
X005368Y028599D01*
X005443Y028674D01*
X005551Y028674D01*
X005626Y028599D01*
X005548Y028566D01*
X005548Y028524D01*
X005518Y028494D01*
X005476Y028494D01*
X005446Y028524D01*
X005446Y028566D01*
X005476Y028596D01*
X005518Y028596D01*
X005548Y028566D01*
X006359Y026286D02*
X006411Y026338D01*
X006411Y026166D01*
X006290Y026045D01*
X006118Y026045D01*
X005997Y026166D01*
X005997Y026338D01*
X006118Y026459D01*
X006290Y026459D01*
X006411Y026338D01*
X006333Y026306D01*
X006333Y026198D01*
X006258Y026123D01*
X006150Y026123D01*
X006075Y026198D01*
X006075Y026306D01*
X006150Y026381D01*
X006258Y026381D01*
X006333Y026306D01*
X006255Y026273D01*
X006255Y026231D01*
X006225Y026201D01*
X006183Y026201D01*
X006153Y026231D01*
X006153Y026273D01*
X006183Y026303D01*
X006225Y026303D01*
X006255Y026273D01*
X005652Y025579D02*
X005704Y025631D01*
X005704Y025459D01*
X005583Y025338D01*
X005411Y025338D01*
X005290Y025459D01*
X005290Y025631D01*
X005411Y025752D01*
X005583Y025752D01*
X005704Y025631D01*
X005626Y025599D01*
X005626Y025491D01*
X005551Y025416D01*
X005443Y025416D01*
X005368Y025491D01*
X005368Y025599D01*
X005443Y025674D01*
X005551Y025674D01*
X005626Y025599D01*
X005548Y025566D01*
X005548Y025524D01*
X005518Y025494D01*
X005476Y025494D01*
X005446Y025524D01*
X005446Y025566D01*
X005476Y025596D01*
X005518Y025596D01*
X005548Y025566D01*
D12*
X004431Y025009D02*
X003831Y025009D01*
X003831Y023789D02*
X004431Y023789D01*
X004431Y022009D02*
X003831Y022009D01*
X003831Y020789D02*
X004431Y020789D01*
X004431Y019009D02*
X003831Y019009D01*
X003831Y017789D02*
X004431Y017789D01*
X004431Y016009D02*
X003831Y016009D01*
X003831Y014789D02*
X004431Y014789D01*
X004431Y013009D02*
X003831Y013009D01*
X003831Y011789D02*
X004431Y011789D01*
X004431Y010009D02*
X003831Y010009D01*
X003831Y008789D02*
X004431Y008789D01*
X004431Y007009D02*
X003831Y007009D01*
X004961Y006479D02*
X004961Y005879D01*
X006741Y005879D02*
X006741Y006479D01*
X007961Y006479D02*
X007961Y005879D01*
X009741Y005879D02*
X009741Y006479D01*
X010961Y006479D02*
X010961Y005879D01*
X012741Y005879D02*
X012741Y006479D01*
X013961Y006479D02*
X013961Y005879D01*
X015741Y005879D02*
X015741Y006479D01*
X016961Y006479D02*
X016961Y005879D01*
X018741Y005879D02*
X018741Y006479D01*
X019961Y006479D02*
X019961Y005879D01*
X021741Y005879D02*
X021741Y006479D01*
X022961Y006479D02*
X022961Y005879D01*
X024741Y005879D02*
X024741Y006479D01*
X025961Y006479D02*
X025961Y005879D01*
X027741Y005879D02*
X027741Y006479D01*
X027741Y003919D02*
X027741Y003319D01*
X025961Y003319D02*
X025961Y003919D01*
X024741Y003919D02*
X024741Y003319D01*
X022961Y003319D02*
X022961Y003919D01*
X021741Y003919D02*
X021741Y003319D01*
X019961Y003319D02*
X019961Y003919D01*
X018741Y003919D02*
X018741Y003319D01*
X016961Y003319D02*
X016961Y003919D01*
X015741Y003919D02*
X015741Y003319D01*
X013961Y003319D02*
X013961Y003919D01*
X012741Y003919D02*
X012741Y003319D01*
X010961Y003319D02*
X010961Y003919D01*
X009741Y003919D02*
X009741Y003319D01*
X007961Y003319D02*
X007961Y003919D01*
X006741Y003919D02*
X006741Y003319D01*
X004961Y003319D02*
X004961Y003919D01*
X001871Y007009D02*
X001271Y007009D01*
X001271Y008789D02*
X001871Y008789D01*
X001871Y010009D02*
X001271Y010009D01*
X001271Y011789D02*
X001871Y011789D01*
X001871Y013009D02*
X001271Y013009D01*
X001271Y014789D02*
X001871Y014789D01*
X001871Y016009D02*
X001271Y016009D01*
X001271Y017789D02*
X001871Y017789D01*
X001871Y019009D02*
X001271Y019009D01*
X001271Y020789D02*
X001871Y020789D01*
X001871Y022009D02*
X001271Y022009D01*
X001271Y023789D02*
X001871Y023789D01*
X001871Y025009D02*
X001271Y025009D01*
X001271Y026789D02*
X001871Y026789D01*
X001871Y028009D02*
X001271Y028009D01*
X001271Y029789D02*
X001871Y029789D01*
X003831Y029789D02*
X004431Y029789D01*
X004431Y028009D02*
X003831Y028009D01*
X003831Y026789D02*
X004431Y026789D01*
X006351Y032099D02*
X006351Y032699D01*
X007351Y032699D02*
X007351Y032099D01*
X008351Y032099D02*
X008351Y032699D01*
X009351Y032699D02*
X009351Y032099D01*
X010351Y032099D02*
X010351Y032699D01*
X011351Y032699D02*
X011351Y032099D01*
X012351Y032099D02*
X012351Y032699D01*
X013351Y032699D02*
X013351Y032099D01*
X014351Y032099D02*
X014351Y032699D01*
X015351Y032699D02*
X015351Y032099D01*
X019351Y032099D02*
X019351Y032699D01*
X020351Y032699D02*
X020351Y032099D01*
X021351Y032099D02*
X021351Y032699D01*
X022351Y032699D02*
X022351Y032099D01*
X023351Y032099D02*
X023351Y032699D01*
X024351Y032699D02*
X024351Y032099D01*
X025351Y032099D02*
X025351Y032699D01*
X026351Y032699D02*
X026351Y032099D01*
X030051Y021899D02*
X030651Y021899D01*
X030651Y020899D02*
X030051Y020899D01*
X030051Y019899D02*
X030651Y019899D01*
X030651Y018899D02*
X030051Y018899D01*
X030051Y017899D02*
X030651Y017899D01*
X030651Y016899D02*
X030051Y016899D01*
X030051Y015899D02*
X030651Y015899D01*
X030651Y014899D02*
X030051Y014899D01*
D13*
X026851Y006659D02*
X026851Y006139D01*
X026851Y003659D02*
X026851Y003139D01*
X023851Y003139D02*
X023851Y003659D01*
X023851Y006139D02*
X023851Y006659D01*
X020851Y006659D02*
X020851Y006139D01*
X020851Y003659D02*
X020851Y003139D01*
X017851Y003139D02*
X017851Y003659D01*
X017851Y006139D02*
X017851Y006659D01*
X014851Y006659D02*
X014851Y006139D01*
X014851Y003659D02*
X014851Y003139D01*
X011851Y003139D02*
X011851Y003659D01*
X011851Y006139D02*
X011851Y006659D01*
X008851Y006659D02*
X008851Y006139D01*
X008851Y003659D02*
X008851Y003139D01*
X005851Y003139D02*
X005851Y003659D01*
X005851Y006139D02*
X005851Y006659D01*
X004611Y007899D02*
X004091Y007899D01*
X001611Y007899D02*
X001091Y007899D01*
X001091Y010899D02*
X001611Y010899D01*
X004091Y010899D02*
X004611Y010899D01*
X004611Y013899D02*
X004091Y013899D01*
X001611Y013899D02*
X001091Y013899D01*
X001091Y016899D02*
X001611Y016899D01*
X004091Y016899D02*
X004611Y016899D01*
X004611Y019899D02*
X004091Y019899D01*
X001611Y019899D02*
X001091Y019899D01*
X001091Y022899D02*
X001611Y022899D01*
X004091Y022899D02*
X004611Y022899D01*
X004611Y025899D02*
X004091Y025899D01*
X001611Y025899D02*
X001091Y025899D01*
X001091Y028899D02*
X001611Y028899D01*
X004091Y028899D02*
X004611Y028899D01*
D14*
X005497Y028545D02*
X008497Y028545D01*
X011497Y028545D01*
X014497Y028545D01*
X017497Y028545D01*
X020497Y028545D01*
X023497Y028545D01*
X026497Y028545D01*
X029704Y028545D01*
X030351Y027899D01*
X030351Y021899D01*
X030351Y020899D02*
X029351Y020899D01*
X028851Y021399D01*
X028851Y024899D01*
X028204Y025545D01*
X026497Y025545D01*
X023497Y025545D01*
X020497Y025545D01*
X017497Y025545D01*
X014497Y025545D01*
X011497Y025545D01*
X008497Y025545D01*
X005497Y025545D01*
X002851Y024399D02*
X013351Y024399D01*
X014497Y022545D02*
X011497Y022545D01*
X008497Y022545D01*
X005497Y022545D01*
X005497Y019545D02*
X008497Y019545D01*
X011497Y019545D01*
X014497Y019545D01*
X017497Y019545D01*
X020497Y019545D01*
X023497Y019545D01*
X026497Y019545D01*
X027144Y018899D01*
X030351Y018899D01*
X030351Y019899D02*
X029144Y019899D01*
X026497Y022545D01*
X023497Y022545D01*
X020497Y022545D01*
X017497Y022545D01*
X014497Y022545D01*
X016351Y021399D02*
X002351Y021399D01*
X001741Y020789D01*
X001571Y020789D01*
X002351Y018399D02*
X019351Y018399D01*
X020497Y016545D02*
X023497Y016545D01*
X026497Y016545D01*
X027497Y016545D01*
X028851Y017899D01*
X030351Y017899D01*
X030351Y016899D02*
X029351Y016899D01*
X028851Y016399D01*
X028851Y014899D01*
X027497Y013545D01*
X026497Y013545D01*
X023497Y013545D01*
X020497Y013545D01*
X017497Y013545D01*
X014497Y013545D01*
X011497Y013545D01*
X008497Y013545D01*
X005497Y013545D01*
X005497Y010545D02*
X008497Y010545D01*
X011497Y010545D01*
X014497Y010545D01*
X017497Y010545D01*
X020497Y010545D01*
X023497Y010545D01*
X026497Y010545D01*
X027997Y010545D01*
X029351Y011899D01*
X029351Y015399D01*
X029851Y015899D01*
X030351Y015899D01*
X030351Y014899D02*
X030351Y008399D01*
X029497Y007545D01*
X026497Y007545D01*
X023497Y007545D01*
X020497Y007545D01*
X017497Y007545D01*
X014497Y007545D01*
X011497Y007545D01*
X008497Y007545D01*
X005497Y007545D01*
X005851Y006399D02*
X005851Y005899D01*
X006601Y005149D01*
X009351Y005149D01*
X008851Y005649D01*
X008851Y006399D01*
X009351Y005149D02*
X012351Y005149D01*
X011851Y005649D01*
X011851Y006399D01*
X012351Y005149D02*
X015351Y005149D01*
X014851Y005649D01*
X014851Y006399D01*
X015351Y005149D02*
X018351Y005149D01*
X017851Y005649D01*
X017851Y006399D01*
X018351Y005149D02*
X021351Y005149D01*
X020851Y005649D01*
X020851Y006399D01*
X021351Y005149D02*
X024351Y005149D01*
X023851Y005649D01*
X023851Y006399D01*
X024351Y005149D02*
X026101Y005149D01*
X026851Y005899D01*
X026851Y006399D01*
X028351Y009399D02*
X002351Y009399D01*
X001741Y008789D01*
X001571Y008789D01*
X001571Y011789D02*
X001741Y011789D01*
X002351Y012399D01*
X025351Y012399D01*
X022351Y015399D02*
X002351Y015399D01*
X001741Y014789D01*
X001571Y014789D01*
X001571Y017789D02*
X001741Y017789D01*
X002351Y018399D01*
X005497Y016545D02*
X008497Y016545D01*
X011497Y016545D01*
X014497Y016545D01*
X017497Y016545D01*
X020497Y016545D01*
X026497Y022545D02*
X026704Y022545D01*
X027204Y029252D02*
X027204Y030545D01*
X026351Y031399D01*
X026351Y032399D01*
X025351Y032399D02*
X025351Y031399D01*
X024204Y030252D01*
X024204Y029252D01*
X022204Y029252D02*
X024351Y031399D01*
X024351Y032399D01*
X023351Y032399D02*
X023351Y031399D01*
X021851Y029899D01*
X018351Y029899D01*
X018204Y029752D01*
X018204Y029252D01*
X016851Y030399D02*
X021351Y030399D01*
X022351Y031399D01*
X022351Y032399D01*
X021351Y032399D02*
X021351Y031399D01*
X020851Y030899D01*
X016851Y030899D01*
X016351Y030399D01*
X012851Y030399D01*
X012204Y029752D01*
X012204Y029252D01*
X010351Y030899D02*
X016351Y030899D01*
X016851Y031399D01*
X019851Y031399D01*
X020351Y031899D01*
X020351Y032399D01*
X019351Y032399D02*
X016851Y032399D01*
X015851Y031399D01*
X009351Y031399D01*
X007204Y029252D01*
X006204Y029252D01*
X009204Y029252D02*
X009204Y029752D01*
X010351Y030899D01*
X008351Y032399D02*
X008351Y032899D01*
X007601Y033649D01*
X001601Y033649D01*
X000851Y032899D01*
X000851Y030399D01*
X001461Y029789D01*
X001571Y029789D01*
X002181Y027399D02*
X001571Y026789D01*
X002181Y027399D02*
X010351Y027399D01*
X015204Y029252D02*
X015204Y029752D01*
X015351Y029899D01*
X016351Y029899D01*
X016851Y030399D01*
X021204Y029252D02*
X022204Y029252D01*
X002851Y024399D02*
X002241Y023789D01*
X001571Y023789D01*
D15*
X007351Y030399D03*
X010351Y027399D03*
X013351Y024399D03*
X016351Y021399D03*
X019351Y018399D03*
X022351Y015399D03*
X025351Y012399D03*
X028351Y009399D03*
M02*
