G75*
G70*
%OFA0B0*%
%FSLAX24Y24*%
%IPPOS*%
%LPD*%
%AMOC8*
5,1,8,0,0,1.08239X$1,22.5*
%
%ADD10C,0.0060*%
%ADD11C,0.0100*%
%ADD12C,0.0050*%
%ADD13C,0.0020*%
%ADD14C,0.0080*%
D10*
X001259Y002601D02*
X001261Y002674D01*
X001267Y002747D01*
X001277Y002819D01*
X001291Y002891D01*
X001308Y002962D01*
X001330Y003032D01*
X001355Y003101D01*
X001384Y003168D01*
X001416Y003233D01*
X001452Y003297D01*
X001492Y003359D01*
X001534Y003418D01*
X001580Y003475D01*
X001629Y003529D01*
X001681Y003581D01*
X001735Y003630D01*
X001792Y003676D01*
X001851Y003718D01*
X001913Y003758D01*
X001977Y003794D01*
X002042Y003826D01*
X002109Y003855D01*
X002178Y003880D01*
X002248Y003902D01*
X002319Y003919D01*
X002391Y003933D01*
X002463Y003943D01*
X002536Y003949D01*
X002609Y003951D01*
X002682Y003949D01*
X002755Y003943D01*
X002827Y003933D01*
X002899Y003919D01*
X002970Y003902D01*
X003040Y003880D01*
X003109Y003855D01*
X003176Y003826D01*
X003241Y003794D01*
X003305Y003758D01*
X003367Y003718D01*
X003426Y003676D01*
X003483Y003630D01*
X003537Y003581D01*
X003589Y003529D01*
X003638Y003475D01*
X003684Y003418D01*
X003726Y003359D01*
X003766Y003297D01*
X003802Y003233D01*
X003834Y003168D01*
X003863Y003101D01*
X003888Y003032D01*
X003910Y002962D01*
X003927Y002891D01*
X003941Y002819D01*
X003951Y002747D01*
X003957Y002674D01*
X003959Y002601D01*
X003957Y002528D01*
X003951Y002455D01*
X003941Y002383D01*
X003927Y002311D01*
X003910Y002240D01*
X003888Y002170D01*
X003863Y002101D01*
X003834Y002034D01*
X003802Y001969D01*
X003766Y001905D01*
X003726Y001843D01*
X003684Y001784D01*
X003638Y001727D01*
X003589Y001673D01*
X003537Y001621D01*
X003483Y001572D01*
X003426Y001526D01*
X003367Y001484D01*
X003305Y001444D01*
X003241Y001408D01*
X003176Y001376D01*
X003109Y001347D01*
X003040Y001322D01*
X002970Y001300D01*
X002899Y001283D01*
X002827Y001269D01*
X002755Y001259D01*
X002682Y001253D01*
X002609Y001251D01*
X002536Y001253D01*
X002463Y001259D01*
X002391Y001269D01*
X002319Y001283D01*
X002248Y001300D01*
X002178Y001322D01*
X002109Y001347D01*
X002042Y001376D01*
X001977Y001408D01*
X001913Y001444D01*
X001851Y001484D01*
X001792Y001526D01*
X001735Y001572D01*
X001681Y001621D01*
X001629Y001673D01*
X001580Y001727D01*
X001534Y001784D01*
X001492Y001843D01*
X001452Y001905D01*
X001416Y001969D01*
X001384Y002034D01*
X001355Y002101D01*
X001330Y002170D01*
X001308Y002240D01*
X001291Y002311D01*
X001277Y002383D01*
X001267Y002455D01*
X001261Y002528D01*
X001259Y002601D01*
X001759Y004401D02*
X002109Y004401D01*
X003109Y004401D01*
X003459Y004401D01*
X003809Y005201D02*
X003809Y005301D01*
X003909Y005301D01*
X003909Y005901D01*
X003809Y005901D01*
X003809Y006001D01*
X003459Y006801D02*
X003109Y006801D01*
X002159Y006801D01*
X001759Y006801D01*
X001759Y007401D02*
X002109Y007401D01*
X003109Y007401D01*
X003459Y007401D01*
X003809Y008201D02*
X003809Y008301D01*
X003909Y008301D01*
X003909Y008901D01*
X003809Y008901D01*
X003809Y009001D01*
X003459Y009801D02*
X003109Y009801D01*
X002159Y009801D01*
X001759Y009801D01*
X001759Y010401D02*
X002109Y010401D01*
X003109Y010401D01*
X003459Y010401D01*
X003809Y011201D02*
X003809Y011301D01*
X003909Y011301D01*
X003909Y011901D01*
X003809Y011901D01*
X003809Y012001D01*
X003459Y012801D02*
X003109Y012801D01*
X002159Y012801D01*
X001759Y012801D01*
X001759Y013401D02*
X002109Y013401D01*
X003109Y013401D01*
X003459Y013401D01*
X003809Y014201D02*
X003809Y014301D01*
X003909Y014301D01*
X003909Y014901D01*
X003809Y014901D01*
X003809Y015001D01*
X003459Y015801D02*
X003109Y015801D01*
X002159Y015801D01*
X001759Y015801D01*
X001759Y016401D02*
X002109Y016401D01*
X003109Y016401D01*
X003459Y016401D01*
X003809Y017201D02*
X003809Y017301D01*
X003909Y017301D01*
X003909Y017901D01*
X003809Y017901D01*
X003809Y018001D01*
X003459Y018801D02*
X003109Y018801D01*
X002159Y018801D01*
X001759Y018801D01*
X001759Y019401D02*
X002109Y019401D01*
X003109Y019401D01*
X003459Y019401D01*
X003809Y020201D02*
X003809Y020301D01*
X003909Y020301D01*
X003909Y020901D01*
X003809Y020901D01*
X003809Y021001D01*
X003459Y021801D02*
X003109Y021801D01*
X002159Y021801D01*
X001759Y021801D01*
X001759Y022401D02*
X002109Y022401D01*
X003109Y022401D01*
X003459Y022401D01*
X003809Y023201D02*
X003809Y023301D01*
X003909Y023301D01*
X003909Y023901D01*
X003809Y023901D01*
X003809Y024001D01*
X003459Y024801D02*
X003109Y024801D01*
X002159Y024801D01*
X001759Y024801D01*
X001759Y025401D02*
X002109Y025401D01*
X003109Y025401D01*
X003459Y025401D01*
X003809Y026201D02*
X003809Y026301D01*
X003909Y026301D01*
X003909Y026901D01*
X003809Y026901D01*
X003809Y027001D01*
X003459Y027801D02*
X003109Y027801D01*
X002159Y027801D01*
X001759Y027801D01*
X001409Y027001D02*
X001409Y026901D01*
X001309Y026901D01*
X001309Y026301D01*
X001409Y026301D01*
X001409Y026201D01*
X002509Y026601D02*
X002511Y026621D01*
X002517Y026639D01*
X002526Y026657D01*
X002538Y026672D01*
X002553Y026684D01*
X002571Y026693D01*
X002589Y026699D01*
X002609Y026701D01*
X002629Y026699D01*
X002647Y026693D01*
X002665Y026684D01*
X002680Y026672D01*
X002692Y026657D01*
X002701Y026639D01*
X002707Y026621D01*
X002709Y026601D01*
X002707Y026581D01*
X002701Y026563D01*
X002692Y026545D01*
X002680Y026530D01*
X002665Y026518D01*
X002647Y026509D01*
X002629Y026503D01*
X002609Y026501D01*
X002589Y026503D01*
X002571Y026509D01*
X002553Y026518D01*
X002538Y026530D01*
X002526Y026545D01*
X002517Y026563D01*
X002511Y026581D01*
X002509Y026601D01*
X001909Y026601D02*
X001911Y026653D01*
X001917Y026705D01*
X001927Y026757D01*
X001940Y026807D01*
X001957Y026857D01*
X001978Y026905D01*
X002003Y026951D01*
X002031Y026995D01*
X002062Y027037D01*
X002096Y027077D01*
X002133Y027114D01*
X002173Y027148D01*
X002215Y027179D01*
X002259Y027207D01*
X002305Y027232D01*
X002353Y027253D01*
X002403Y027270D01*
X002453Y027283D01*
X002505Y027293D01*
X002557Y027299D01*
X002609Y027301D01*
X002661Y027299D01*
X002713Y027293D01*
X002765Y027283D01*
X002815Y027270D01*
X002865Y027253D01*
X002913Y027232D01*
X002959Y027207D01*
X003003Y027179D01*
X003045Y027148D01*
X003085Y027114D01*
X003122Y027077D01*
X003156Y027037D01*
X003187Y026995D01*
X003215Y026951D01*
X003240Y026905D01*
X003261Y026857D01*
X003278Y026807D01*
X003291Y026757D01*
X003301Y026705D01*
X003307Y026653D01*
X003309Y026601D01*
X003307Y026549D01*
X003301Y026497D01*
X003291Y026445D01*
X003278Y026395D01*
X003261Y026345D01*
X003240Y026297D01*
X003215Y026251D01*
X003187Y026207D01*
X003156Y026165D01*
X003122Y026125D01*
X003085Y026088D01*
X003045Y026054D01*
X003003Y026023D01*
X002959Y025995D01*
X002913Y025970D01*
X002865Y025949D01*
X002815Y025932D01*
X002765Y025919D01*
X002713Y025909D01*
X002661Y025903D01*
X002609Y025901D01*
X002557Y025903D01*
X002505Y025909D01*
X002453Y025919D01*
X002403Y025932D01*
X002353Y025949D01*
X002305Y025970D01*
X002259Y025995D01*
X002215Y026023D01*
X002173Y026054D01*
X002133Y026088D01*
X002096Y026125D01*
X002062Y026165D01*
X002031Y026207D01*
X002003Y026251D01*
X001978Y026297D01*
X001957Y026345D01*
X001940Y026395D01*
X001927Y026445D01*
X001917Y026497D01*
X001911Y026549D01*
X001909Y026601D01*
X001409Y024001D02*
X001409Y023901D01*
X001309Y023901D01*
X001309Y023301D01*
X001409Y023301D01*
X001409Y023201D01*
X002509Y023601D02*
X002511Y023621D01*
X002517Y023639D01*
X002526Y023657D01*
X002538Y023672D01*
X002553Y023684D01*
X002571Y023693D01*
X002589Y023699D01*
X002609Y023701D01*
X002629Y023699D01*
X002647Y023693D01*
X002665Y023684D01*
X002680Y023672D01*
X002692Y023657D01*
X002701Y023639D01*
X002707Y023621D01*
X002709Y023601D01*
X002707Y023581D01*
X002701Y023563D01*
X002692Y023545D01*
X002680Y023530D01*
X002665Y023518D01*
X002647Y023509D01*
X002629Y023503D01*
X002609Y023501D01*
X002589Y023503D01*
X002571Y023509D01*
X002553Y023518D01*
X002538Y023530D01*
X002526Y023545D01*
X002517Y023563D01*
X002511Y023581D01*
X002509Y023601D01*
X001909Y023601D02*
X001911Y023653D01*
X001917Y023705D01*
X001927Y023757D01*
X001940Y023807D01*
X001957Y023857D01*
X001978Y023905D01*
X002003Y023951D01*
X002031Y023995D01*
X002062Y024037D01*
X002096Y024077D01*
X002133Y024114D01*
X002173Y024148D01*
X002215Y024179D01*
X002259Y024207D01*
X002305Y024232D01*
X002353Y024253D01*
X002403Y024270D01*
X002453Y024283D01*
X002505Y024293D01*
X002557Y024299D01*
X002609Y024301D01*
X002661Y024299D01*
X002713Y024293D01*
X002765Y024283D01*
X002815Y024270D01*
X002865Y024253D01*
X002913Y024232D01*
X002959Y024207D01*
X003003Y024179D01*
X003045Y024148D01*
X003085Y024114D01*
X003122Y024077D01*
X003156Y024037D01*
X003187Y023995D01*
X003215Y023951D01*
X003240Y023905D01*
X003261Y023857D01*
X003278Y023807D01*
X003291Y023757D01*
X003301Y023705D01*
X003307Y023653D01*
X003309Y023601D01*
X003307Y023549D01*
X003301Y023497D01*
X003291Y023445D01*
X003278Y023395D01*
X003261Y023345D01*
X003240Y023297D01*
X003215Y023251D01*
X003187Y023207D01*
X003156Y023165D01*
X003122Y023125D01*
X003085Y023088D01*
X003045Y023054D01*
X003003Y023023D01*
X002959Y022995D01*
X002913Y022970D01*
X002865Y022949D01*
X002815Y022932D01*
X002765Y022919D01*
X002713Y022909D01*
X002661Y022903D01*
X002609Y022901D01*
X002557Y022903D01*
X002505Y022909D01*
X002453Y022919D01*
X002403Y022932D01*
X002353Y022949D01*
X002305Y022970D01*
X002259Y022995D01*
X002215Y023023D01*
X002173Y023054D01*
X002133Y023088D01*
X002096Y023125D01*
X002062Y023165D01*
X002031Y023207D01*
X002003Y023251D01*
X001978Y023297D01*
X001957Y023345D01*
X001940Y023395D01*
X001927Y023445D01*
X001917Y023497D01*
X001911Y023549D01*
X001909Y023601D01*
X001409Y021001D02*
X001409Y020901D01*
X001309Y020901D01*
X001309Y020301D01*
X001409Y020301D01*
X001409Y020201D01*
X002509Y020601D02*
X002511Y020621D01*
X002517Y020639D01*
X002526Y020657D01*
X002538Y020672D01*
X002553Y020684D01*
X002571Y020693D01*
X002589Y020699D01*
X002609Y020701D01*
X002629Y020699D01*
X002647Y020693D01*
X002665Y020684D01*
X002680Y020672D01*
X002692Y020657D01*
X002701Y020639D01*
X002707Y020621D01*
X002709Y020601D01*
X002707Y020581D01*
X002701Y020563D01*
X002692Y020545D01*
X002680Y020530D01*
X002665Y020518D01*
X002647Y020509D01*
X002629Y020503D01*
X002609Y020501D01*
X002589Y020503D01*
X002571Y020509D01*
X002553Y020518D01*
X002538Y020530D01*
X002526Y020545D01*
X002517Y020563D01*
X002511Y020581D01*
X002509Y020601D01*
X001909Y020601D02*
X001911Y020653D01*
X001917Y020705D01*
X001927Y020757D01*
X001940Y020807D01*
X001957Y020857D01*
X001978Y020905D01*
X002003Y020951D01*
X002031Y020995D01*
X002062Y021037D01*
X002096Y021077D01*
X002133Y021114D01*
X002173Y021148D01*
X002215Y021179D01*
X002259Y021207D01*
X002305Y021232D01*
X002353Y021253D01*
X002403Y021270D01*
X002453Y021283D01*
X002505Y021293D01*
X002557Y021299D01*
X002609Y021301D01*
X002661Y021299D01*
X002713Y021293D01*
X002765Y021283D01*
X002815Y021270D01*
X002865Y021253D01*
X002913Y021232D01*
X002959Y021207D01*
X003003Y021179D01*
X003045Y021148D01*
X003085Y021114D01*
X003122Y021077D01*
X003156Y021037D01*
X003187Y020995D01*
X003215Y020951D01*
X003240Y020905D01*
X003261Y020857D01*
X003278Y020807D01*
X003291Y020757D01*
X003301Y020705D01*
X003307Y020653D01*
X003309Y020601D01*
X003307Y020549D01*
X003301Y020497D01*
X003291Y020445D01*
X003278Y020395D01*
X003261Y020345D01*
X003240Y020297D01*
X003215Y020251D01*
X003187Y020207D01*
X003156Y020165D01*
X003122Y020125D01*
X003085Y020088D01*
X003045Y020054D01*
X003003Y020023D01*
X002959Y019995D01*
X002913Y019970D01*
X002865Y019949D01*
X002815Y019932D01*
X002765Y019919D01*
X002713Y019909D01*
X002661Y019903D01*
X002609Y019901D01*
X002557Y019903D01*
X002505Y019909D01*
X002453Y019919D01*
X002403Y019932D01*
X002353Y019949D01*
X002305Y019970D01*
X002259Y019995D01*
X002215Y020023D01*
X002173Y020054D01*
X002133Y020088D01*
X002096Y020125D01*
X002062Y020165D01*
X002031Y020207D01*
X002003Y020251D01*
X001978Y020297D01*
X001957Y020345D01*
X001940Y020395D01*
X001927Y020445D01*
X001917Y020497D01*
X001911Y020549D01*
X001909Y020601D01*
X001409Y018001D02*
X001409Y017901D01*
X001309Y017901D01*
X001309Y017301D01*
X001409Y017301D01*
X001409Y017201D01*
X002509Y017601D02*
X002511Y017621D01*
X002517Y017639D01*
X002526Y017657D01*
X002538Y017672D01*
X002553Y017684D01*
X002571Y017693D01*
X002589Y017699D01*
X002609Y017701D01*
X002629Y017699D01*
X002647Y017693D01*
X002665Y017684D01*
X002680Y017672D01*
X002692Y017657D01*
X002701Y017639D01*
X002707Y017621D01*
X002709Y017601D01*
X002707Y017581D01*
X002701Y017563D01*
X002692Y017545D01*
X002680Y017530D01*
X002665Y017518D01*
X002647Y017509D01*
X002629Y017503D01*
X002609Y017501D01*
X002589Y017503D01*
X002571Y017509D01*
X002553Y017518D01*
X002538Y017530D01*
X002526Y017545D01*
X002517Y017563D01*
X002511Y017581D01*
X002509Y017601D01*
X001909Y017601D02*
X001911Y017653D01*
X001917Y017705D01*
X001927Y017757D01*
X001940Y017807D01*
X001957Y017857D01*
X001978Y017905D01*
X002003Y017951D01*
X002031Y017995D01*
X002062Y018037D01*
X002096Y018077D01*
X002133Y018114D01*
X002173Y018148D01*
X002215Y018179D01*
X002259Y018207D01*
X002305Y018232D01*
X002353Y018253D01*
X002403Y018270D01*
X002453Y018283D01*
X002505Y018293D01*
X002557Y018299D01*
X002609Y018301D01*
X002661Y018299D01*
X002713Y018293D01*
X002765Y018283D01*
X002815Y018270D01*
X002865Y018253D01*
X002913Y018232D01*
X002959Y018207D01*
X003003Y018179D01*
X003045Y018148D01*
X003085Y018114D01*
X003122Y018077D01*
X003156Y018037D01*
X003187Y017995D01*
X003215Y017951D01*
X003240Y017905D01*
X003261Y017857D01*
X003278Y017807D01*
X003291Y017757D01*
X003301Y017705D01*
X003307Y017653D01*
X003309Y017601D01*
X003307Y017549D01*
X003301Y017497D01*
X003291Y017445D01*
X003278Y017395D01*
X003261Y017345D01*
X003240Y017297D01*
X003215Y017251D01*
X003187Y017207D01*
X003156Y017165D01*
X003122Y017125D01*
X003085Y017088D01*
X003045Y017054D01*
X003003Y017023D01*
X002959Y016995D01*
X002913Y016970D01*
X002865Y016949D01*
X002815Y016932D01*
X002765Y016919D01*
X002713Y016909D01*
X002661Y016903D01*
X002609Y016901D01*
X002557Y016903D01*
X002505Y016909D01*
X002453Y016919D01*
X002403Y016932D01*
X002353Y016949D01*
X002305Y016970D01*
X002259Y016995D01*
X002215Y017023D01*
X002173Y017054D01*
X002133Y017088D01*
X002096Y017125D01*
X002062Y017165D01*
X002031Y017207D01*
X002003Y017251D01*
X001978Y017297D01*
X001957Y017345D01*
X001940Y017395D01*
X001927Y017445D01*
X001917Y017497D01*
X001911Y017549D01*
X001909Y017601D01*
X001409Y015001D02*
X001409Y014901D01*
X001309Y014901D01*
X001309Y014301D01*
X001409Y014301D01*
X001409Y014201D01*
X002509Y014601D02*
X002511Y014621D01*
X002517Y014639D01*
X002526Y014657D01*
X002538Y014672D01*
X002553Y014684D01*
X002571Y014693D01*
X002589Y014699D01*
X002609Y014701D01*
X002629Y014699D01*
X002647Y014693D01*
X002665Y014684D01*
X002680Y014672D01*
X002692Y014657D01*
X002701Y014639D01*
X002707Y014621D01*
X002709Y014601D01*
X002707Y014581D01*
X002701Y014563D01*
X002692Y014545D01*
X002680Y014530D01*
X002665Y014518D01*
X002647Y014509D01*
X002629Y014503D01*
X002609Y014501D01*
X002589Y014503D01*
X002571Y014509D01*
X002553Y014518D01*
X002538Y014530D01*
X002526Y014545D01*
X002517Y014563D01*
X002511Y014581D01*
X002509Y014601D01*
X001909Y014601D02*
X001911Y014653D01*
X001917Y014705D01*
X001927Y014757D01*
X001940Y014807D01*
X001957Y014857D01*
X001978Y014905D01*
X002003Y014951D01*
X002031Y014995D01*
X002062Y015037D01*
X002096Y015077D01*
X002133Y015114D01*
X002173Y015148D01*
X002215Y015179D01*
X002259Y015207D01*
X002305Y015232D01*
X002353Y015253D01*
X002403Y015270D01*
X002453Y015283D01*
X002505Y015293D01*
X002557Y015299D01*
X002609Y015301D01*
X002661Y015299D01*
X002713Y015293D01*
X002765Y015283D01*
X002815Y015270D01*
X002865Y015253D01*
X002913Y015232D01*
X002959Y015207D01*
X003003Y015179D01*
X003045Y015148D01*
X003085Y015114D01*
X003122Y015077D01*
X003156Y015037D01*
X003187Y014995D01*
X003215Y014951D01*
X003240Y014905D01*
X003261Y014857D01*
X003278Y014807D01*
X003291Y014757D01*
X003301Y014705D01*
X003307Y014653D01*
X003309Y014601D01*
X003307Y014549D01*
X003301Y014497D01*
X003291Y014445D01*
X003278Y014395D01*
X003261Y014345D01*
X003240Y014297D01*
X003215Y014251D01*
X003187Y014207D01*
X003156Y014165D01*
X003122Y014125D01*
X003085Y014088D01*
X003045Y014054D01*
X003003Y014023D01*
X002959Y013995D01*
X002913Y013970D01*
X002865Y013949D01*
X002815Y013932D01*
X002765Y013919D01*
X002713Y013909D01*
X002661Y013903D01*
X002609Y013901D01*
X002557Y013903D01*
X002505Y013909D01*
X002453Y013919D01*
X002403Y013932D01*
X002353Y013949D01*
X002305Y013970D01*
X002259Y013995D01*
X002215Y014023D01*
X002173Y014054D01*
X002133Y014088D01*
X002096Y014125D01*
X002062Y014165D01*
X002031Y014207D01*
X002003Y014251D01*
X001978Y014297D01*
X001957Y014345D01*
X001940Y014395D01*
X001927Y014445D01*
X001917Y014497D01*
X001911Y014549D01*
X001909Y014601D01*
X001409Y012001D02*
X001409Y011901D01*
X001309Y011901D01*
X001309Y011301D01*
X001409Y011301D01*
X001409Y011201D01*
X002509Y011601D02*
X002511Y011621D01*
X002517Y011639D01*
X002526Y011657D01*
X002538Y011672D01*
X002553Y011684D01*
X002571Y011693D01*
X002589Y011699D01*
X002609Y011701D01*
X002629Y011699D01*
X002647Y011693D01*
X002665Y011684D01*
X002680Y011672D01*
X002692Y011657D01*
X002701Y011639D01*
X002707Y011621D01*
X002709Y011601D01*
X002707Y011581D01*
X002701Y011563D01*
X002692Y011545D01*
X002680Y011530D01*
X002665Y011518D01*
X002647Y011509D01*
X002629Y011503D01*
X002609Y011501D01*
X002589Y011503D01*
X002571Y011509D01*
X002553Y011518D01*
X002538Y011530D01*
X002526Y011545D01*
X002517Y011563D01*
X002511Y011581D01*
X002509Y011601D01*
X001909Y011601D02*
X001911Y011653D01*
X001917Y011705D01*
X001927Y011757D01*
X001940Y011807D01*
X001957Y011857D01*
X001978Y011905D01*
X002003Y011951D01*
X002031Y011995D01*
X002062Y012037D01*
X002096Y012077D01*
X002133Y012114D01*
X002173Y012148D01*
X002215Y012179D01*
X002259Y012207D01*
X002305Y012232D01*
X002353Y012253D01*
X002403Y012270D01*
X002453Y012283D01*
X002505Y012293D01*
X002557Y012299D01*
X002609Y012301D01*
X002661Y012299D01*
X002713Y012293D01*
X002765Y012283D01*
X002815Y012270D01*
X002865Y012253D01*
X002913Y012232D01*
X002959Y012207D01*
X003003Y012179D01*
X003045Y012148D01*
X003085Y012114D01*
X003122Y012077D01*
X003156Y012037D01*
X003187Y011995D01*
X003215Y011951D01*
X003240Y011905D01*
X003261Y011857D01*
X003278Y011807D01*
X003291Y011757D01*
X003301Y011705D01*
X003307Y011653D01*
X003309Y011601D01*
X003307Y011549D01*
X003301Y011497D01*
X003291Y011445D01*
X003278Y011395D01*
X003261Y011345D01*
X003240Y011297D01*
X003215Y011251D01*
X003187Y011207D01*
X003156Y011165D01*
X003122Y011125D01*
X003085Y011088D01*
X003045Y011054D01*
X003003Y011023D01*
X002959Y010995D01*
X002913Y010970D01*
X002865Y010949D01*
X002815Y010932D01*
X002765Y010919D01*
X002713Y010909D01*
X002661Y010903D01*
X002609Y010901D01*
X002557Y010903D01*
X002505Y010909D01*
X002453Y010919D01*
X002403Y010932D01*
X002353Y010949D01*
X002305Y010970D01*
X002259Y010995D01*
X002215Y011023D01*
X002173Y011054D01*
X002133Y011088D01*
X002096Y011125D01*
X002062Y011165D01*
X002031Y011207D01*
X002003Y011251D01*
X001978Y011297D01*
X001957Y011345D01*
X001940Y011395D01*
X001927Y011445D01*
X001917Y011497D01*
X001911Y011549D01*
X001909Y011601D01*
X001409Y009001D02*
X001409Y008901D01*
X001309Y008901D01*
X001309Y008301D01*
X001409Y008301D01*
X001409Y008201D01*
X002509Y008601D02*
X002511Y008621D01*
X002517Y008639D01*
X002526Y008657D01*
X002538Y008672D01*
X002553Y008684D01*
X002571Y008693D01*
X002589Y008699D01*
X002609Y008701D01*
X002629Y008699D01*
X002647Y008693D01*
X002665Y008684D01*
X002680Y008672D01*
X002692Y008657D01*
X002701Y008639D01*
X002707Y008621D01*
X002709Y008601D01*
X002707Y008581D01*
X002701Y008563D01*
X002692Y008545D01*
X002680Y008530D01*
X002665Y008518D01*
X002647Y008509D01*
X002629Y008503D01*
X002609Y008501D01*
X002589Y008503D01*
X002571Y008509D01*
X002553Y008518D01*
X002538Y008530D01*
X002526Y008545D01*
X002517Y008563D01*
X002511Y008581D01*
X002509Y008601D01*
X001909Y008601D02*
X001911Y008653D01*
X001917Y008705D01*
X001927Y008757D01*
X001940Y008807D01*
X001957Y008857D01*
X001978Y008905D01*
X002003Y008951D01*
X002031Y008995D01*
X002062Y009037D01*
X002096Y009077D01*
X002133Y009114D01*
X002173Y009148D01*
X002215Y009179D01*
X002259Y009207D01*
X002305Y009232D01*
X002353Y009253D01*
X002403Y009270D01*
X002453Y009283D01*
X002505Y009293D01*
X002557Y009299D01*
X002609Y009301D01*
X002661Y009299D01*
X002713Y009293D01*
X002765Y009283D01*
X002815Y009270D01*
X002865Y009253D01*
X002913Y009232D01*
X002959Y009207D01*
X003003Y009179D01*
X003045Y009148D01*
X003085Y009114D01*
X003122Y009077D01*
X003156Y009037D01*
X003187Y008995D01*
X003215Y008951D01*
X003240Y008905D01*
X003261Y008857D01*
X003278Y008807D01*
X003291Y008757D01*
X003301Y008705D01*
X003307Y008653D01*
X003309Y008601D01*
X003307Y008549D01*
X003301Y008497D01*
X003291Y008445D01*
X003278Y008395D01*
X003261Y008345D01*
X003240Y008297D01*
X003215Y008251D01*
X003187Y008207D01*
X003156Y008165D01*
X003122Y008125D01*
X003085Y008088D01*
X003045Y008054D01*
X003003Y008023D01*
X002959Y007995D01*
X002913Y007970D01*
X002865Y007949D01*
X002815Y007932D01*
X002765Y007919D01*
X002713Y007909D01*
X002661Y007903D01*
X002609Y007901D01*
X002557Y007903D01*
X002505Y007909D01*
X002453Y007919D01*
X002403Y007932D01*
X002353Y007949D01*
X002305Y007970D01*
X002259Y007995D01*
X002215Y008023D01*
X002173Y008054D01*
X002133Y008088D01*
X002096Y008125D01*
X002062Y008165D01*
X002031Y008207D01*
X002003Y008251D01*
X001978Y008297D01*
X001957Y008345D01*
X001940Y008395D01*
X001927Y008445D01*
X001917Y008497D01*
X001911Y008549D01*
X001909Y008601D01*
X001409Y006001D02*
X001409Y005901D01*
X001309Y005901D01*
X001309Y005301D01*
X001409Y005301D01*
X001409Y005201D01*
X002509Y005601D02*
X002511Y005621D01*
X002517Y005639D01*
X002526Y005657D01*
X002538Y005672D01*
X002553Y005684D01*
X002571Y005693D01*
X002589Y005699D01*
X002609Y005701D01*
X002629Y005699D01*
X002647Y005693D01*
X002665Y005684D01*
X002680Y005672D01*
X002692Y005657D01*
X002701Y005639D01*
X002707Y005621D01*
X002709Y005601D01*
X002707Y005581D01*
X002701Y005563D01*
X002692Y005545D01*
X002680Y005530D01*
X002665Y005518D01*
X002647Y005509D01*
X002629Y005503D01*
X002609Y005501D01*
X002589Y005503D01*
X002571Y005509D01*
X002553Y005518D01*
X002538Y005530D01*
X002526Y005545D01*
X002517Y005563D01*
X002511Y005581D01*
X002509Y005601D01*
X001909Y005601D02*
X001911Y005653D01*
X001917Y005705D01*
X001927Y005757D01*
X001940Y005807D01*
X001957Y005857D01*
X001978Y005905D01*
X002003Y005951D01*
X002031Y005995D01*
X002062Y006037D01*
X002096Y006077D01*
X002133Y006114D01*
X002173Y006148D01*
X002215Y006179D01*
X002259Y006207D01*
X002305Y006232D01*
X002353Y006253D01*
X002403Y006270D01*
X002453Y006283D01*
X002505Y006293D01*
X002557Y006299D01*
X002609Y006301D01*
X002661Y006299D01*
X002713Y006293D01*
X002765Y006283D01*
X002815Y006270D01*
X002865Y006253D01*
X002913Y006232D01*
X002959Y006207D01*
X003003Y006179D01*
X003045Y006148D01*
X003085Y006114D01*
X003122Y006077D01*
X003156Y006037D01*
X003187Y005995D01*
X003215Y005951D01*
X003240Y005905D01*
X003261Y005857D01*
X003278Y005807D01*
X003291Y005757D01*
X003301Y005705D01*
X003307Y005653D01*
X003309Y005601D01*
X003307Y005549D01*
X003301Y005497D01*
X003291Y005445D01*
X003278Y005395D01*
X003261Y005345D01*
X003240Y005297D01*
X003215Y005251D01*
X003187Y005207D01*
X003156Y005165D01*
X003122Y005125D01*
X003085Y005088D01*
X003045Y005054D01*
X003003Y005023D01*
X002959Y004995D01*
X002913Y004970D01*
X002865Y004949D01*
X002815Y004932D01*
X002765Y004919D01*
X002713Y004909D01*
X002661Y004903D01*
X002609Y004901D01*
X002557Y004903D01*
X002505Y004909D01*
X002453Y004919D01*
X002403Y004932D01*
X002353Y004949D01*
X002305Y004970D01*
X002259Y004995D01*
X002215Y005023D01*
X002173Y005054D01*
X002133Y005088D01*
X002096Y005125D01*
X002062Y005165D01*
X002031Y005207D01*
X002003Y005251D01*
X001978Y005297D01*
X001957Y005345D01*
X001940Y005395D01*
X001927Y005445D01*
X001917Y005497D01*
X001911Y005549D01*
X001909Y005601D01*
X004409Y003451D02*
X004409Y003101D01*
X004409Y002151D01*
X004409Y001751D01*
X005209Y001401D02*
X005309Y001401D01*
X005309Y001301D01*
X005909Y001301D01*
X005909Y001401D01*
X006009Y001401D01*
X006809Y001751D02*
X006809Y002101D01*
X006809Y003101D01*
X006809Y003451D01*
X007409Y003451D02*
X007409Y003101D01*
X007409Y002151D01*
X007409Y001751D01*
X008209Y001401D02*
X008309Y001401D01*
X008309Y001301D01*
X008909Y001301D01*
X008909Y001401D01*
X009009Y001401D01*
X009809Y001751D02*
X009809Y002101D01*
X009809Y003101D01*
X009809Y003451D01*
X010409Y003451D02*
X010409Y003101D01*
X010409Y002151D01*
X010409Y001751D01*
X011209Y001401D02*
X011309Y001401D01*
X011309Y001301D01*
X011909Y001301D01*
X011909Y001401D01*
X012009Y001401D01*
X012809Y001751D02*
X012809Y002101D01*
X012809Y003101D01*
X012809Y003451D01*
X013409Y003451D02*
X013409Y003101D01*
X013409Y002151D01*
X013409Y001751D01*
X014209Y001401D02*
X014309Y001401D01*
X014309Y001301D01*
X014909Y001301D01*
X014909Y001401D01*
X015009Y001401D01*
X015809Y001751D02*
X015809Y002101D01*
X015809Y003101D01*
X015809Y003451D01*
X016409Y003451D02*
X016409Y003101D01*
X016409Y002151D01*
X016409Y001751D01*
X017209Y001401D02*
X017309Y001401D01*
X017309Y001301D01*
X017909Y001301D01*
X017909Y001401D01*
X018009Y001401D01*
X018809Y001751D02*
X018809Y002101D01*
X018809Y003101D01*
X018809Y003451D01*
X019409Y003451D02*
X019409Y003101D01*
X019409Y002151D01*
X019409Y001751D01*
X020209Y001401D02*
X020309Y001401D01*
X020309Y001301D01*
X020909Y001301D01*
X020909Y001401D01*
X021009Y001401D01*
X021809Y001751D02*
X021809Y002101D01*
X021809Y003101D01*
X021809Y003451D01*
X022409Y003451D02*
X022409Y003101D01*
X022409Y002151D01*
X022409Y001751D01*
X023209Y001401D02*
X023309Y001401D01*
X023309Y001301D01*
X023909Y001301D01*
X023909Y001401D01*
X024009Y001401D01*
X024809Y001751D02*
X024809Y002101D01*
X024809Y003101D01*
X024809Y003451D01*
X025409Y003451D02*
X025409Y003101D01*
X025409Y002151D01*
X025409Y001751D01*
X026209Y001401D02*
X026309Y001401D01*
X026309Y001301D01*
X026909Y001301D01*
X026909Y001401D01*
X027009Y001401D01*
X027809Y001751D02*
X027809Y002101D01*
X027809Y003101D01*
X027809Y003451D01*
X027009Y003801D02*
X026909Y003801D01*
X026909Y003901D01*
X026309Y003901D01*
X026309Y003801D01*
X026209Y003801D01*
X026509Y002601D02*
X026511Y002621D01*
X026517Y002639D01*
X026526Y002657D01*
X026538Y002672D01*
X026553Y002684D01*
X026571Y002693D01*
X026589Y002699D01*
X026609Y002701D01*
X026629Y002699D01*
X026647Y002693D01*
X026665Y002684D01*
X026680Y002672D01*
X026692Y002657D01*
X026701Y002639D01*
X026707Y002621D01*
X026709Y002601D01*
X026707Y002581D01*
X026701Y002563D01*
X026692Y002545D01*
X026680Y002530D01*
X026665Y002518D01*
X026647Y002509D01*
X026629Y002503D01*
X026609Y002501D01*
X026589Y002503D01*
X026571Y002509D01*
X026553Y002518D01*
X026538Y002530D01*
X026526Y002545D01*
X026517Y002563D01*
X026511Y002581D01*
X026509Y002601D01*
X025909Y002601D02*
X025911Y002653D01*
X025917Y002705D01*
X025927Y002757D01*
X025940Y002807D01*
X025957Y002857D01*
X025978Y002905D01*
X026003Y002951D01*
X026031Y002995D01*
X026062Y003037D01*
X026096Y003077D01*
X026133Y003114D01*
X026173Y003148D01*
X026215Y003179D01*
X026259Y003207D01*
X026305Y003232D01*
X026353Y003253D01*
X026403Y003270D01*
X026453Y003283D01*
X026505Y003293D01*
X026557Y003299D01*
X026609Y003301D01*
X026661Y003299D01*
X026713Y003293D01*
X026765Y003283D01*
X026815Y003270D01*
X026865Y003253D01*
X026913Y003232D01*
X026959Y003207D01*
X027003Y003179D01*
X027045Y003148D01*
X027085Y003114D01*
X027122Y003077D01*
X027156Y003037D01*
X027187Y002995D01*
X027215Y002951D01*
X027240Y002905D01*
X027261Y002857D01*
X027278Y002807D01*
X027291Y002757D01*
X027301Y002705D01*
X027307Y002653D01*
X027309Y002601D01*
X027307Y002549D01*
X027301Y002497D01*
X027291Y002445D01*
X027278Y002395D01*
X027261Y002345D01*
X027240Y002297D01*
X027215Y002251D01*
X027187Y002207D01*
X027156Y002165D01*
X027122Y002125D01*
X027085Y002088D01*
X027045Y002054D01*
X027003Y002023D01*
X026959Y001995D01*
X026913Y001970D01*
X026865Y001949D01*
X026815Y001932D01*
X026765Y001919D01*
X026713Y001909D01*
X026661Y001903D01*
X026609Y001901D01*
X026557Y001903D01*
X026505Y001909D01*
X026453Y001919D01*
X026403Y001932D01*
X026353Y001949D01*
X026305Y001970D01*
X026259Y001995D01*
X026215Y002023D01*
X026173Y002054D01*
X026133Y002088D01*
X026096Y002125D01*
X026062Y002165D01*
X026031Y002207D01*
X026003Y002251D01*
X025978Y002297D01*
X025957Y002345D01*
X025940Y002395D01*
X025927Y002445D01*
X025917Y002497D01*
X025911Y002549D01*
X025909Y002601D01*
X024009Y003801D02*
X023909Y003801D01*
X023909Y003901D01*
X023309Y003901D01*
X023309Y003801D01*
X023209Y003801D01*
X023509Y002601D02*
X023511Y002621D01*
X023517Y002639D01*
X023526Y002657D01*
X023538Y002672D01*
X023553Y002684D01*
X023571Y002693D01*
X023589Y002699D01*
X023609Y002701D01*
X023629Y002699D01*
X023647Y002693D01*
X023665Y002684D01*
X023680Y002672D01*
X023692Y002657D01*
X023701Y002639D01*
X023707Y002621D01*
X023709Y002601D01*
X023707Y002581D01*
X023701Y002563D01*
X023692Y002545D01*
X023680Y002530D01*
X023665Y002518D01*
X023647Y002509D01*
X023629Y002503D01*
X023609Y002501D01*
X023589Y002503D01*
X023571Y002509D01*
X023553Y002518D01*
X023538Y002530D01*
X023526Y002545D01*
X023517Y002563D01*
X023511Y002581D01*
X023509Y002601D01*
X022909Y002601D02*
X022911Y002653D01*
X022917Y002705D01*
X022927Y002757D01*
X022940Y002807D01*
X022957Y002857D01*
X022978Y002905D01*
X023003Y002951D01*
X023031Y002995D01*
X023062Y003037D01*
X023096Y003077D01*
X023133Y003114D01*
X023173Y003148D01*
X023215Y003179D01*
X023259Y003207D01*
X023305Y003232D01*
X023353Y003253D01*
X023403Y003270D01*
X023453Y003283D01*
X023505Y003293D01*
X023557Y003299D01*
X023609Y003301D01*
X023661Y003299D01*
X023713Y003293D01*
X023765Y003283D01*
X023815Y003270D01*
X023865Y003253D01*
X023913Y003232D01*
X023959Y003207D01*
X024003Y003179D01*
X024045Y003148D01*
X024085Y003114D01*
X024122Y003077D01*
X024156Y003037D01*
X024187Y002995D01*
X024215Y002951D01*
X024240Y002905D01*
X024261Y002857D01*
X024278Y002807D01*
X024291Y002757D01*
X024301Y002705D01*
X024307Y002653D01*
X024309Y002601D01*
X024307Y002549D01*
X024301Y002497D01*
X024291Y002445D01*
X024278Y002395D01*
X024261Y002345D01*
X024240Y002297D01*
X024215Y002251D01*
X024187Y002207D01*
X024156Y002165D01*
X024122Y002125D01*
X024085Y002088D01*
X024045Y002054D01*
X024003Y002023D01*
X023959Y001995D01*
X023913Y001970D01*
X023865Y001949D01*
X023815Y001932D01*
X023765Y001919D01*
X023713Y001909D01*
X023661Y001903D01*
X023609Y001901D01*
X023557Y001903D01*
X023505Y001909D01*
X023453Y001919D01*
X023403Y001932D01*
X023353Y001949D01*
X023305Y001970D01*
X023259Y001995D01*
X023215Y002023D01*
X023173Y002054D01*
X023133Y002088D01*
X023096Y002125D01*
X023062Y002165D01*
X023031Y002207D01*
X023003Y002251D01*
X022978Y002297D01*
X022957Y002345D01*
X022940Y002395D01*
X022927Y002445D01*
X022917Y002497D01*
X022911Y002549D01*
X022909Y002601D01*
X021009Y003801D02*
X020909Y003801D01*
X020909Y003901D01*
X020309Y003901D01*
X020309Y003801D01*
X020209Y003801D01*
X020509Y002601D02*
X020511Y002621D01*
X020517Y002639D01*
X020526Y002657D01*
X020538Y002672D01*
X020553Y002684D01*
X020571Y002693D01*
X020589Y002699D01*
X020609Y002701D01*
X020629Y002699D01*
X020647Y002693D01*
X020665Y002684D01*
X020680Y002672D01*
X020692Y002657D01*
X020701Y002639D01*
X020707Y002621D01*
X020709Y002601D01*
X020707Y002581D01*
X020701Y002563D01*
X020692Y002545D01*
X020680Y002530D01*
X020665Y002518D01*
X020647Y002509D01*
X020629Y002503D01*
X020609Y002501D01*
X020589Y002503D01*
X020571Y002509D01*
X020553Y002518D01*
X020538Y002530D01*
X020526Y002545D01*
X020517Y002563D01*
X020511Y002581D01*
X020509Y002601D01*
X019909Y002601D02*
X019911Y002653D01*
X019917Y002705D01*
X019927Y002757D01*
X019940Y002807D01*
X019957Y002857D01*
X019978Y002905D01*
X020003Y002951D01*
X020031Y002995D01*
X020062Y003037D01*
X020096Y003077D01*
X020133Y003114D01*
X020173Y003148D01*
X020215Y003179D01*
X020259Y003207D01*
X020305Y003232D01*
X020353Y003253D01*
X020403Y003270D01*
X020453Y003283D01*
X020505Y003293D01*
X020557Y003299D01*
X020609Y003301D01*
X020661Y003299D01*
X020713Y003293D01*
X020765Y003283D01*
X020815Y003270D01*
X020865Y003253D01*
X020913Y003232D01*
X020959Y003207D01*
X021003Y003179D01*
X021045Y003148D01*
X021085Y003114D01*
X021122Y003077D01*
X021156Y003037D01*
X021187Y002995D01*
X021215Y002951D01*
X021240Y002905D01*
X021261Y002857D01*
X021278Y002807D01*
X021291Y002757D01*
X021301Y002705D01*
X021307Y002653D01*
X021309Y002601D01*
X021307Y002549D01*
X021301Y002497D01*
X021291Y002445D01*
X021278Y002395D01*
X021261Y002345D01*
X021240Y002297D01*
X021215Y002251D01*
X021187Y002207D01*
X021156Y002165D01*
X021122Y002125D01*
X021085Y002088D01*
X021045Y002054D01*
X021003Y002023D01*
X020959Y001995D01*
X020913Y001970D01*
X020865Y001949D01*
X020815Y001932D01*
X020765Y001919D01*
X020713Y001909D01*
X020661Y001903D01*
X020609Y001901D01*
X020557Y001903D01*
X020505Y001909D01*
X020453Y001919D01*
X020403Y001932D01*
X020353Y001949D01*
X020305Y001970D01*
X020259Y001995D01*
X020215Y002023D01*
X020173Y002054D01*
X020133Y002088D01*
X020096Y002125D01*
X020062Y002165D01*
X020031Y002207D01*
X020003Y002251D01*
X019978Y002297D01*
X019957Y002345D01*
X019940Y002395D01*
X019927Y002445D01*
X019917Y002497D01*
X019911Y002549D01*
X019909Y002601D01*
X018009Y003801D02*
X017909Y003801D01*
X017909Y003901D01*
X017309Y003901D01*
X017309Y003801D01*
X017209Y003801D01*
X017509Y002601D02*
X017511Y002621D01*
X017517Y002639D01*
X017526Y002657D01*
X017538Y002672D01*
X017553Y002684D01*
X017571Y002693D01*
X017589Y002699D01*
X017609Y002701D01*
X017629Y002699D01*
X017647Y002693D01*
X017665Y002684D01*
X017680Y002672D01*
X017692Y002657D01*
X017701Y002639D01*
X017707Y002621D01*
X017709Y002601D01*
X017707Y002581D01*
X017701Y002563D01*
X017692Y002545D01*
X017680Y002530D01*
X017665Y002518D01*
X017647Y002509D01*
X017629Y002503D01*
X017609Y002501D01*
X017589Y002503D01*
X017571Y002509D01*
X017553Y002518D01*
X017538Y002530D01*
X017526Y002545D01*
X017517Y002563D01*
X017511Y002581D01*
X017509Y002601D01*
X016909Y002601D02*
X016911Y002653D01*
X016917Y002705D01*
X016927Y002757D01*
X016940Y002807D01*
X016957Y002857D01*
X016978Y002905D01*
X017003Y002951D01*
X017031Y002995D01*
X017062Y003037D01*
X017096Y003077D01*
X017133Y003114D01*
X017173Y003148D01*
X017215Y003179D01*
X017259Y003207D01*
X017305Y003232D01*
X017353Y003253D01*
X017403Y003270D01*
X017453Y003283D01*
X017505Y003293D01*
X017557Y003299D01*
X017609Y003301D01*
X017661Y003299D01*
X017713Y003293D01*
X017765Y003283D01*
X017815Y003270D01*
X017865Y003253D01*
X017913Y003232D01*
X017959Y003207D01*
X018003Y003179D01*
X018045Y003148D01*
X018085Y003114D01*
X018122Y003077D01*
X018156Y003037D01*
X018187Y002995D01*
X018215Y002951D01*
X018240Y002905D01*
X018261Y002857D01*
X018278Y002807D01*
X018291Y002757D01*
X018301Y002705D01*
X018307Y002653D01*
X018309Y002601D01*
X018307Y002549D01*
X018301Y002497D01*
X018291Y002445D01*
X018278Y002395D01*
X018261Y002345D01*
X018240Y002297D01*
X018215Y002251D01*
X018187Y002207D01*
X018156Y002165D01*
X018122Y002125D01*
X018085Y002088D01*
X018045Y002054D01*
X018003Y002023D01*
X017959Y001995D01*
X017913Y001970D01*
X017865Y001949D01*
X017815Y001932D01*
X017765Y001919D01*
X017713Y001909D01*
X017661Y001903D01*
X017609Y001901D01*
X017557Y001903D01*
X017505Y001909D01*
X017453Y001919D01*
X017403Y001932D01*
X017353Y001949D01*
X017305Y001970D01*
X017259Y001995D01*
X017215Y002023D01*
X017173Y002054D01*
X017133Y002088D01*
X017096Y002125D01*
X017062Y002165D01*
X017031Y002207D01*
X017003Y002251D01*
X016978Y002297D01*
X016957Y002345D01*
X016940Y002395D01*
X016927Y002445D01*
X016917Y002497D01*
X016911Y002549D01*
X016909Y002601D01*
X015009Y003801D02*
X014909Y003801D01*
X014909Y003901D01*
X014309Y003901D01*
X014309Y003801D01*
X014209Y003801D01*
X014509Y002601D02*
X014511Y002621D01*
X014517Y002639D01*
X014526Y002657D01*
X014538Y002672D01*
X014553Y002684D01*
X014571Y002693D01*
X014589Y002699D01*
X014609Y002701D01*
X014629Y002699D01*
X014647Y002693D01*
X014665Y002684D01*
X014680Y002672D01*
X014692Y002657D01*
X014701Y002639D01*
X014707Y002621D01*
X014709Y002601D01*
X014707Y002581D01*
X014701Y002563D01*
X014692Y002545D01*
X014680Y002530D01*
X014665Y002518D01*
X014647Y002509D01*
X014629Y002503D01*
X014609Y002501D01*
X014589Y002503D01*
X014571Y002509D01*
X014553Y002518D01*
X014538Y002530D01*
X014526Y002545D01*
X014517Y002563D01*
X014511Y002581D01*
X014509Y002601D01*
X013909Y002601D02*
X013911Y002653D01*
X013917Y002705D01*
X013927Y002757D01*
X013940Y002807D01*
X013957Y002857D01*
X013978Y002905D01*
X014003Y002951D01*
X014031Y002995D01*
X014062Y003037D01*
X014096Y003077D01*
X014133Y003114D01*
X014173Y003148D01*
X014215Y003179D01*
X014259Y003207D01*
X014305Y003232D01*
X014353Y003253D01*
X014403Y003270D01*
X014453Y003283D01*
X014505Y003293D01*
X014557Y003299D01*
X014609Y003301D01*
X014661Y003299D01*
X014713Y003293D01*
X014765Y003283D01*
X014815Y003270D01*
X014865Y003253D01*
X014913Y003232D01*
X014959Y003207D01*
X015003Y003179D01*
X015045Y003148D01*
X015085Y003114D01*
X015122Y003077D01*
X015156Y003037D01*
X015187Y002995D01*
X015215Y002951D01*
X015240Y002905D01*
X015261Y002857D01*
X015278Y002807D01*
X015291Y002757D01*
X015301Y002705D01*
X015307Y002653D01*
X015309Y002601D01*
X015307Y002549D01*
X015301Y002497D01*
X015291Y002445D01*
X015278Y002395D01*
X015261Y002345D01*
X015240Y002297D01*
X015215Y002251D01*
X015187Y002207D01*
X015156Y002165D01*
X015122Y002125D01*
X015085Y002088D01*
X015045Y002054D01*
X015003Y002023D01*
X014959Y001995D01*
X014913Y001970D01*
X014865Y001949D01*
X014815Y001932D01*
X014765Y001919D01*
X014713Y001909D01*
X014661Y001903D01*
X014609Y001901D01*
X014557Y001903D01*
X014505Y001909D01*
X014453Y001919D01*
X014403Y001932D01*
X014353Y001949D01*
X014305Y001970D01*
X014259Y001995D01*
X014215Y002023D01*
X014173Y002054D01*
X014133Y002088D01*
X014096Y002125D01*
X014062Y002165D01*
X014031Y002207D01*
X014003Y002251D01*
X013978Y002297D01*
X013957Y002345D01*
X013940Y002395D01*
X013927Y002445D01*
X013917Y002497D01*
X013911Y002549D01*
X013909Y002601D01*
X012009Y003801D02*
X011909Y003801D01*
X011909Y003901D01*
X011309Y003901D01*
X011309Y003801D01*
X011209Y003801D01*
X011509Y002601D02*
X011511Y002621D01*
X011517Y002639D01*
X011526Y002657D01*
X011538Y002672D01*
X011553Y002684D01*
X011571Y002693D01*
X011589Y002699D01*
X011609Y002701D01*
X011629Y002699D01*
X011647Y002693D01*
X011665Y002684D01*
X011680Y002672D01*
X011692Y002657D01*
X011701Y002639D01*
X011707Y002621D01*
X011709Y002601D01*
X011707Y002581D01*
X011701Y002563D01*
X011692Y002545D01*
X011680Y002530D01*
X011665Y002518D01*
X011647Y002509D01*
X011629Y002503D01*
X011609Y002501D01*
X011589Y002503D01*
X011571Y002509D01*
X011553Y002518D01*
X011538Y002530D01*
X011526Y002545D01*
X011517Y002563D01*
X011511Y002581D01*
X011509Y002601D01*
X010909Y002601D02*
X010911Y002653D01*
X010917Y002705D01*
X010927Y002757D01*
X010940Y002807D01*
X010957Y002857D01*
X010978Y002905D01*
X011003Y002951D01*
X011031Y002995D01*
X011062Y003037D01*
X011096Y003077D01*
X011133Y003114D01*
X011173Y003148D01*
X011215Y003179D01*
X011259Y003207D01*
X011305Y003232D01*
X011353Y003253D01*
X011403Y003270D01*
X011453Y003283D01*
X011505Y003293D01*
X011557Y003299D01*
X011609Y003301D01*
X011661Y003299D01*
X011713Y003293D01*
X011765Y003283D01*
X011815Y003270D01*
X011865Y003253D01*
X011913Y003232D01*
X011959Y003207D01*
X012003Y003179D01*
X012045Y003148D01*
X012085Y003114D01*
X012122Y003077D01*
X012156Y003037D01*
X012187Y002995D01*
X012215Y002951D01*
X012240Y002905D01*
X012261Y002857D01*
X012278Y002807D01*
X012291Y002757D01*
X012301Y002705D01*
X012307Y002653D01*
X012309Y002601D01*
X012307Y002549D01*
X012301Y002497D01*
X012291Y002445D01*
X012278Y002395D01*
X012261Y002345D01*
X012240Y002297D01*
X012215Y002251D01*
X012187Y002207D01*
X012156Y002165D01*
X012122Y002125D01*
X012085Y002088D01*
X012045Y002054D01*
X012003Y002023D01*
X011959Y001995D01*
X011913Y001970D01*
X011865Y001949D01*
X011815Y001932D01*
X011765Y001919D01*
X011713Y001909D01*
X011661Y001903D01*
X011609Y001901D01*
X011557Y001903D01*
X011505Y001909D01*
X011453Y001919D01*
X011403Y001932D01*
X011353Y001949D01*
X011305Y001970D01*
X011259Y001995D01*
X011215Y002023D01*
X011173Y002054D01*
X011133Y002088D01*
X011096Y002125D01*
X011062Y002165D01*
X011031Y002207D01*
X011003Y002251D01*
X010978Y002297D01*
X010957Y002345D01*
X010940Y002395D01*
X010927Y002445D01*
X010917Y002497D01*
X010911Y002549D01*
X010909Y002601D01*
X009009Y003801D02*
X008909Y003801D01*
X008909Y003901D01*
X008309Y003901D01*
X008309Y003801D01*
X008209Y003801D01*
X008509Y002601D02*
X008511Y002621D01*
X008517Y002639D01*
X008526Y002657D01*
X008538Y002672D01*
X008553Y002684D01*
X008571Y002693D01*
X008589Y002699D01*
X008609Y002701D01*
X008629Y002699D01*
X008647Y002693D01*
X008665Y002684D01*
X008680Y002672D01*
X008692Y002657D01*
X008701Y002639D01*
X008707Y002621D01*
X008709Y002601D01*
X008707Y002581D01*
X008701Y002563D01*
X008692Y002545D01*
X008680Y002530D01*
X008665Y002518D01*
X008647Y002509D01*
X008629Y002503D01*
X008609Y002501D01*
X008589Y002503D01*
X008571Y002509D01*
X008553Y002518D01*
X008538Y002530D01*
X008526Y002545D01*
X008517Y002563D01*
X008511Y002581D01*
X008509Y002601D01*
X007909Y002601D02*
X007911Y002653D01*
X007917Y002705D01*
X007927Y002757D01*
X007940Y002807D01*
X007957Y002857D01*
X007978Y002905D01*
X008003Y002951D01*
X008031Y002995D01*
X008062Y003037D01*
X008096Y003077D01*
X008133Y003114D01*
X008173Y003148D01*
X008215Y003179D01*
X008259Y003207D01*
X008305Y003232D01*
X008353Y003253D01*
X008403Y003270D01*
X008453Y003283D01*
X008505Y003293D01*
X008557Y003299D01*
X008609Y003301D01*
X008661Y003299D01*
X008713Y003293D01*
X008765Y003283D01*
X008815Y003270D01*
X008865Y003253D01*
X008913Y003232D01*
X008959Y003207D01*
X009003Y003179D01*
X009045Y003148D01*
X009085Y003114D01*
X009122Y003077D01*
X009156Y003037D01*
X009187Y002995D01*
X009215Y002951D01*
X009240Y002905D01*
X009261Y002857D01*
X009278Y002807D01*
X009291Y002757D01*
X009301Y002705D01*
X009307Y002653D01*
X009309Y002601D01*
X009307Y002549D01*
X009301Y002497D01*
X009291Y002445D01*
X009278Y002395D01*
X009261Y002345D01*
X009240Y002297D01*
X009215Y002251D01*
X009187Y002207D01*
X009156Y002165D01*
X009122Y002125D01*
X009085Y002088D01*
X009045Y002054D01*
X009003Y002023D01*
X008959Y001995D01*
X008913Y001970D01*
X008865Y001949D01*
X008815Y001932D01*
X008765Y001919D01*
X008713Y001909D01*
X008661Y001903D01*
X008609Y001901D01*
X008557Y001903D01*
X008505Y001909D01*
X008453Y001919D01*
X008403Y001932D01*
X008353Y001949D01*
X008305Y001970D01*
X008259Y001995D01*
X008215Y002023D01*
X008173Y002054D01*
X008133Y002088D01*
X008096Y002125D01*
X008062Y002165D01*
X008031Y002207D01*
X008003Y002251D01*
X007978Y002297D01*
X007957Y002345D01*
X007940Y002395D01*
X007927Y002445D01*
X007917Y002497D01*
X007911Y002549D01*
X007909Y002601D01*
X006009Y003801D02*
X005909Y003801D01*
X005909Y003901D01*
X005309Y003901D01*
X005309Y003801D01*
X005209Y003801D01*
X005509Y002601D02*
X005511Y002621D01*
X005517Y002639D01*
X005526Y002657D01*
X005538Y002672D01*
X005553Y002684D01*
X005571Y002693D01*
X005589Y002699D01*
X005609Y002701D01*
X005629Y002699D01*
X005647Y002693D01*
X005665Y002684D01*
X005680Y002672D01*
X005692Y002657D01*
X005701Y002639D01*
X005707Y002621D01*
X005709Y002601D01*
X005707Y002581D01*
X005701Y002563D01*
X005692Y002545D01*
X005680Y002530D01*
X005665Y002518D01*
X005647Y002509D01*
X005629Y002503D01*
X005609Y002501D01*
X005589Y002503D01*
X005571Y002509D01*
X005553Y002518D01*
X005538Y002530D01*
X005526Y002545D01*
X005517Y002563D01*
X005511Y002581D01*
X005509Y002601D01*
X004909Y002601D02*
X004911Y002653D01*
X004917Y002705D01*
X004927Y002757D01*
X004940Y002807D01*
X004957Y002857D01*
X004978Y002905D01*
X005003Y002951D01*
X005031Y002995D01*
X005062Y003037D01*
X005096Y003077D01*
X005133Y003114D01*
X005173Y003148D01*
X005215Y003179D01*
X005259Y003207D01*
X005305Y003232D01*
X005353Y003253D01*
X005403Y003270D01*
X005453Y003283D01*
X005505Y003293D01*
X005557Y003299D01*
X005609Y003301D01*
X005661Y003299D01*
X005713Y003293D01*
X005765Y003283D01*
X005815Y003270D01*
X005865Y003253D01*
X005913Y003232D01*
X005959Y003207D01*
X006003Y003179D01*
X006045Y003148D01*
X006085Y003114D01*
X006122Y003077D01*
X006156Y003037D01*
X006187Y002995D01*
X006215Y002951D01*
X006240Y002905D01*
X006261Y002857D01*
X006278Y002807D01*
X006291Y002757D01*
X006301Y002705D01*
X006307Y002653D01*
X006309Y002601D01*
X006307Y002549D01*
X006301Y002497D01*
X006291Y002445D01*
X006278Y002395D01*
X006261Y002345D01*
X006240Y002297D01*
X006215Y002251D01*
X006187Y002207D01*
X006156Y002165D01*
X006122Y002125D01*
X006085Y002088D01*
X006045Y002054D01*
X006003Y002023D01*
X005959Y001995D01*
X005913Y001970D01*
X005865Y001949D01*
X005815Y001932D01*
X005765Y001919D01*
X005713Y001909D01*
X005661Y001903D01*
X005609Y001901D01*
X005557Y001903D01*
X005505Y001909D01*
X005453Y001919D01*
X005403Y001932D01*
X005353Y001949D01*
X005305Y001970D01*
X005259Y001995D01*
X005215Y002023D01*
X005173Y002054D01*
X005133Y002088D01*
X005096Y002125D01*
X005062Y002165D01*
X005031Y002207D01*
X005003Y002251D01*
X004978Y002297D01*
X004957Y002345D01*
X004940Y002395D01*
X004927Y002445D01*
X004917Y002497D01*
X004911Y002549D01*
X004909Y002601D01*
X006033Y005177D02*
X006064Y005210D01*
X006092Y005246D01*
X006118Y005283D01*
X006141Y005323D01*
X006160Y005364D01*
X006177Y005406D01*
X006190Y005450D01*
X006199Y005494D01*
X006206Y005539D01*
X006209Y005585D01*
X006208Y005630D01*
X006204Y005675D01*
X005185Y006025D02*
X005153Y005991D01*
X005124Y005955D01*
X005099Y005916D01*
X005076Y005876D01*
X005056Y005834D01*
X005040Y005791D01*
X005027Y005746D01*
X005017Y005701D01*
X005011Y005655D01*
X005009Y005609D01*
X005010Y005562D01*
X005015Y005516D01*
X005535Y005006D02*
X005580Y005002D01*
X005625Y005001D01*
X005671Y005004D01*
X005716Y005011D01*
X005760Y005020D01*
X005804Y005033D01*
X005846Y005050D01*
X005887Y005069D01*
X005927Y005092D01*
X005964Y005118D01*
X006000Y005146D01*
X006033Y005177D01*
X005708Y006193D02*
X005661Y006199D01*
X005613Y006201D01*
X005566Y006199D01*
X005518Y006194D01*
X005472Y006185D01*
X005426Y006172D01*
X005381Y006156D01*
X005338Y006136D01*
X005297Y006113D01*
X005257Y006087D01*
X005220Y006058D01*
X005185Y006025D01*
X005535Y008006D02*
X005580Y008002D01*
X005625Y008001D01*
X005671Y008004D01*
X005716Y008011D01*
X005760Y008020D01*
X005804Y008033D01*
X005846Y008050D01*
X005887Y008069D01*
X005927Y008092D01*
X005964Y008118D01*
X006000Y008146D01*
X006033Y008177D01*
X006064Y008210D01*
X006092Y008246D01*
X006118Y008283D01*
X006141Y008323D01*
X006160Y008364D01*
X006177Y008406D01*
X006190Y008450D01*
X006199Y008494D01*
X006206Y008539D01*
X006209Y008585D01*
X006208Y008630D01*
X006204Y008675D01*
X005185Y009025D02*
X005153Y008991D01*
X005124Y008955D01*
X005099Y008916D01*
X005076Y008876D01*
X005056Y008834D01*
X005040Y008791D01*
X005027Y008746D01*
X005017Y008701D01*
X005011Y008655D01*
X005009Y008609D01*
X005010Y008562D01*
X005015Y008516D01*
X005185Y009025D02*
X005220Y009058D01*
X005257Y009087D01*
X005297Y009113D01*
X005338Y009136D01*
X005381Y009156D01*
X005426Y009172D01*
X005472Y009185D01*
X005518Y009194D01*
X005566Y009199D01*
X005613Y009201D01*
X005661Y009199D01*
X005708Y009193D01*
X006033Y011177D02*
X006064Y011210D01*
X006092Y011246D01*
X006118Y011283D01*
X006141Y011323D01*
X006160Y011364D01*
X006177Y011406D01*
X006190Y011450D01*
X006199Y011494D01*
X006206Y011539D01*
X006209Y011585D01*
X006208Y011630D01*
X006204Y011675D01*
X005185Y012025D02*
X005153Y011991D01*
X005124Y011955D01*
X005099Y011916D01*
X005076Y011876D01*
X005056Y011834D01*
X005040Y011791D01*
X005027Y011746D01*
X005017Y011701D01*
X005011Y011655D01*
X005009Y011609D01*
X005010Y011562D01*
X005015Y011516D01*
X005535Y011006D02*
X005580Y011002D01*
X005625Y011001D01*
X005671Y011004D01*
X005716Y011011D01*
X005760Y011020D01*
X005804Y011033D01*
X005846Y011050D01*
X005887Y011069D01*
X005927Y011092D01*
X005964Y011118D01*
X006000Y011146D01*
X006033Y011177D01*
X005708Y012193D02*
X005661Y012199D01*
X005613Y012201D01*
X005566Y012199D01*
X005518Y012194D01*
X005472Y012185D01*
X005426Y012172D01*
X005381Y012156D01*
X005338Y012136D01*
X005297Y012113D01*
X005257Y012087D01*
X005220Y012058D01*
X005185Y012025D01*
X005535Y014006D02*
X005580Y014002D01*
X005625Y014001D01*
X005671Y014004D01*
X005716Y014011D01*
X005760Y014020D01*
X005804Y014033D01*
X005846Y014050D01*
X005887Y014069D01*
X005927Y014092D01*
X005964Y014118D01*
X006000Y014146D01*
X006033Y014177D01*
X006064Y014210D01*
X006092Y014246D01*
X006118Y014283D01*
X006141Y014323D01*
X006160Y014364D01*
X006177Y014406D01*
X006190Y014450D01*
X006199Y014494D01*
X006206Y014539D01*
X006209Y014585D01*
X006208Y014630D01*
X006204Y014675D01*
X005185Y015025D02*
X005153Y014991D01*
X005124Y014955D01*
X005099Y014916D01*
X005076Y014876D01*
X005056Y014834D01*
X005040Y014791D01*
X005027Y014746D01*
X005017Y014701D01*
X005011Y014655D01*
X005009Y014609D01*
X005010Y014562D01*
X005015Y014516D01*
X005185Y015025D02*
X005220Y015058D01*
X005257Y015087D01*
X005297Y015113D01*
X005338Y015136D01*
X005381Y015156D01*
X005426Y015172D01*
X005472Y015185D01*
X005518Y015194D01*
X005566Y015199D01*
X005613Y015201D01*
X005661Y015199D01*
X005708Y015193D01*
X006033Y017177D02*
X006064Y017210D01*
X006092Y017246D01*
X006118Y017283D01*
X006141Y017323D01*
X006160Y017364D01*
X006177Y017406D01*
X006190Y017450D01*
X006199Y017494D01*
X006206Y017539D01*
X006209Y017585D01*
X006208Y017630D01*
X006204Y017675D01*
X005185Y018025D02*
X005153Y017991D01*
X005124Y017955D01*
X005099Y017916D01*
X005076Y017876D01*
X005056Y017834D01*
X005040Y017791D01*
X005027Y017746D01*
X005017Y017701D01*
X005011Y017655D01*
X005009Y017609D01*
X005010Y017562D01*
X005015Y017516D01*
X005535Y017006D02*
X005580Y017002D01*
X005625Y017001D01*
X005671Y017004D01*
X005716Y017011D01*
X005760Y017020D01*
X005804Y017033D01*
X005846Y017050D01*
X005887Y017069D01*
X005927Y017092D01*
X005964Y017118D01*
X006000Y017146D01*
X006033Y017177D01*
X005708Y018193D02*
X005661Y018199D01*
X005613Y018201D01*
X005566Y018199D01*
X005518Y018194D01*
X005472Y018185D01*
X005426Y018172D01*
X005381Y018156D01*
X005338Y018136D01*
X005297Y018113D01*
X005257Y018087D01*
X005220Y018058D01*
X005185Y018025D01*
X005535Y020006D02*
X005580Y020002D01*
X005625Y020001D01*
X005671Y020004D01*
X005716Y020011D01*
X005760Y020020D01*
X005804Y020033D01*
X005846Y020050D01*
X005887Y020069D01*
X005927Y020092D01*
X005964Y020118D01*
X006000Y020146D01*
X006033Y020177D01*
X006064Y020210D01*
X006092Y020246D01*
X006118Y020283D01*
X006141Y020323D01*
X006160Y020364D01*
X006177Y020406D01*
X006190Y020450D01*
X006199Y020494D01*
X006206Y020539D01*
X006209Y020585D01*
X006208Y020630D01*
X006204Y020675D01*
X005185Y021025D02*
X005153Y020991D01*
X005124Y020955D01*
X005099Y020916D01*
X005076Y020876D01*
X005056Y020834D01*
X005040Y020791D01*
X005027Y020746D01*
X005017Y020701D01*
X005011Y020655D01*
X005009Y020609D01*
X005010Y020562D01*
X005015Y020516D01*
X005185Y021025D02*
X005220Y021058D01*
X005257Y021087D01*
X005297Y021113D01*
X005338Y021136D01*
X005381Y021156D01*
X005426Y021172D01*
X005472Y021185D01*
X005518Y021194D01*
X005566Y021199D01*
X005613Y021201D01*
X005661Y021199D01*
X005708Y021193D01*
X006033Y023177D02*
X006064Y023210D01*
X006092Y023246D01*
X006118Y023283D01*
X006141Y023323D01*
X006160Y023364D01*
X006177Y023406D01*
X006190Y023450D01*
X006199Y023494D01*
X006206Y023539D01*
X006209Y023585D01*
X006208Y023630D01*
X006204Y023675D01*
X005185Y024025D02*
X005153Y023991D01*
X005124Y023955D01*
X005099Y023916D01*
X005076Y023876D01*
X005056Y023834D01*
X005040Y023791D01*
X005027Y023746D01*
X005017Y023701D01*
X005011Y023655D01*
X005009Y023609D01*
X005010Y023562D01*
X005015Y023516D01*
X005535Y023006D02*
X005580Y023002D01*
X005625Y023001D01*
X005671Y023004D01*
X005716Y023011D01*
X005760Y023020D01*
X005804Y023033D01*
X005846Y023050D01*
X005887Y023069D01*
X005927Y023092D01*
X005964Y023118D01*
X006000Y023146D01*
X006033Y023177D01*
X005708Y024193D02*
X005661Y024199D01*
X005613Y024201D01*
X005566Y024199D01*
X005518Y024194D01*
X005472Y024185D01*
X005426Y024172D01*
X005381Y024156D01*
X005338Y024136D01*
X005297Y024113D01*
X005257Y024087D01*
X005220Y024058D01*
X005185Y024025D01*
X005535Y026006D02*
X005580Y026002D01*
X005625Y026001D01*
X005671Y026004D01*
X005716Y026011D01*
X005760Y026020D01*
X005804Y026033D01*
X005846Y026050D01*
X005887Y026069D01*
X005927Y026092D01*
X005964Y026118D01*
X006000Y026146D01*
X006033Y026177D01*
X006064Y026210D01*
X006092Y026246D01*
X006118Y026283D01*
X006141Y026323D01*
X006160Y026364D01*
X006177Y026406D01*
X006190Y026450D01*
X006199Y026494D01*
X006206Y026539D01*
X006209Y026585D01*
X006208Y026630D01*
X006204Y026675D01*
X005185Y027025D02*
X005153Y026991D01*
X005124Y026955D01*
X005099Y026916D01*
X005076Y026876D01*
X005056Y026834D01*
X005040Y026791D01*
X005027Y026746D01*
X005017Y026701D01*
X005011Y026655D01*
X005009Y026609D01*
X005010Y026562D01*
X005015Y026516D01*
X005185Y027025D02*
X005220Y027058D01*
X005257Y027087D01*
X005297Y027113D01*
X005338Y027136D01*
X005381Y027156D01*
X005426Y027172D01*
X005472Y027185D01*
X005518Y027194D01*
X005566Y027199D01*
X005613Y027201D01*
X005661Y027199D01*
X005708Y027193D01*
X007859Y029601D02*
X007609Y029851D01*
X007609Y030351D01*
X007859Y030601D01*
X008359Y030601D01*
X008609Y030351D01*
X008859Y030601D01*
X009359Y030601D01*
X009609Y030351D01*
X009859Y030601D01*
X010359Y030601D01*
X010609Y030351D01*
X010859Y030601D01*
X011359Y030601D01*
X011609Y030351D01*
X011859Y030601D01*
X012359Y030601D01*
X012609Y030351D01*
X012859Y030601D01*
X013359Y030601D01*
X013609Y030351D01*
X013859Y030601D01*
X014359Y030601D01*
X014609Y030351D01*
X014859Y030601D01*
X015359Y030601D01*
X015609Y030351D01*
X015609Y029851D01*
X015359Y029601D01*
X014859Y029601D01*
X014609Y029851D01*
X014359Y029601D01*
X013859Y029601D01*
X013609Y029851D01*
X013609Y030351D01*
X013609Y029851D02*
X013359Y029601D01*
X012859Y029601D01*
X012609Y029851D01*
X012359Y029601D01*
X011859Y029601D01*
X011609Y029851D01*
X011359Y029601D01*
X010859Y029601D01*
X010609Y029851D01*
X010609Y030351D01*
X010609Y029851D02*
X010359Y029601D01*
X009859Y029601D01*
X009609Y029851D01*
X009359Y029601D01*
X008859Y029601D01*
X008609Y029851D01*
X008359Y029601D01*
X007859Y029601D01*
X008609Y029851D02*
X008609Y030351D01*
X009609Y030351D02*
X009609Y029851D01*
X011609Y029851D02*
X011609Y030351D01*
X012609Y030351D02*
X012609Y029851D01*
X014609Y029851D02*
X014609Y030351D01*
X015033Y026177D02*
X015000Y026146D01*
X014964Y026118D01*
X014927Y026092D01*
X014887Y026069D01*
X014846Y026050D01*
X014804Y026033D01*
X014760Y026020D01*
X014716Y026011D01*
X014671Y026004D01*
X014625Y026001D01*
X014580Y026002D01*
X014535Y026006D01*
X015033Y026177D02*
X015064Y026210D01*
X015092Y026246D01*
X015118Y026283D01*
X015141Y026323D01*
X015160Y026364D01*
X015177Y026406D01*
X015190Y026450D01*
X015199Y026494D01*
X015206Y026539D01*
X015209Y026585D01*
X015208Y026630D01*
X015204Y026675D01*
X014185Y027025D02*
X014153Y026991D01*
X014124Y026955D01*
X014099Y026916D01*
X014076Y026876D01*
X014056Y026834D01*
X014040Y026791D01*
X014027Y026746D01*
X014017Y026701D01*
X014011Y026655D01*
X014009Y026609D01*
X014010Y026562D01*
X014015Y026516D01*
X014185Y027025D02*
X014220Y027058D01*
X014257Y027087D01*
X014297Y027113D01*
X014338Y027136D01*
X014381Y027156D01*
X014426Y027172D01*
X014472Y027185D01*
X014518Y027194D01*
X014566Y027199D01*
X014613Y027201D01*
X014661Y027199D01*
X014708Y027193D01*
X017535Y026006D02*
X017580Y026002D01*
X017625Y026001D01*
X017671Y026004D01*
X017716Y026011D01*
X017760Y026020D01*
X017804Y026033D01*
X017846Y026050D01*
X017887Y026069D01*
X017927Y026092D01*
X017964Y026118D01*
X018000Y026146D01*
X018033Y026177D01*
X018064Y026210D01*
X018092Y026246D01*
X018118Y026283D01*
X018141Y026323D01*
X018160Y026364D01*
X018177Y026406D01*
X018190Y026450D01*
X018199Y026494D01*
X018206Y026539D01*
X018209Y026585D01*
X018208Y026630D01*
X018204Y026675D01*
X017185Y027025D02*
X017153Y026991D01*
X017124Y026955D01*
X017099Y026916D01*
X017076Y026876D01*
X017056Y026834D01*
X017040Y026791D01*
X017027Y026746D01*
X017017Y026701D01*
X017011Y026655D01*
X017009Y026609D01*
X017010Y026562D01*
X017015Y026516D01*
X017185Y027025D02*
X017220Y027058D01*
X017257Y027087D01*
X017297Y027113D01*
X017338Y027136D01*
X017381Y027156D01*
X017426Y027172D01*
X017472Y027185D01*
X017518Y027194D01*
X017566Y027199D01*
X017613Y027201D01*
X017661Y027199D01*
X017708Y027193D01*
X018859Y029601D02*
X019359Y029601D01*
X019609Y029851D01*
X019859Y029601D01*
X020359Y029601D01*
X020609Y029851D01*
X020859Y029601D01*
X021359Y029601D01*
X021609Y029851D01*
X021859Y029601D01*
X022359Y029601D01*
X022609Y029851D01*
X022859Y029601D01*
X023359Y029601D01*
X023609Y029851D01*
X023859Y029601D01*
X024359Y029601D01*
X024609Y029851D01*
X024859Y029601D01*
X025359Y029601D01*
X025609Y029851D01*
X025859Y029601D01*
X026359Y029601D01*
X026609Y029851D01*
X026609Y030351D01*
X026359Y030601D01*
X025859Y030601D01*
X025609Y030351D01*
X025359Y030601D01*
X024859Y030601D01*
X024609Y030351D01*
X024359Y030601D01*
X023859Y030601D01*
X023609Y030351D01*
X023359Y030601D01*
X022859Y030601D01*
X022609Y030351D01*
X022359Y030601D01*
X021859Y030601D01*
X021609Y030351D01*
X021359Y030601D01*
X020859Y030601D01*
X020609Y030351D01*
X020359Y030601D01*
X019859Y030601D01*
X019609Y030351D01*
X019359Y030601D01*
X018859Y030601D01*
X018609Y030351D01*
X018609Y029851D01*
X018859Y029601D01*
X020535Y026006D02*
X020580Y026002D01*
X020625Y026001D01*
X020671Y026004D01*
X020716Y026011D01*
X020760Y026020D01*
X020804Y026033D01*
X020846Y026050D01*
X020887Y026069D01*
X020927Y026092D01*
X020964Y026118D01*
X021000Y026146D01*
X021033Y026177D01*
X021064Y026210D01*
X021092Y026246D01*
X021118Y026283D01*
X021141Y026323D01*
X021160Y026364D01*
X021177Y026406D01*
X021190Y026450D01*
X021199Y026494D01*
X021206Y026539D01*
X021209Y026585D01*
X021208Y026630D01*
X021204Y026675D01*
X020185Y027025D02*
X020153Y026991D01*
X020124Y026955D01*
X020099Y026916D01*
X020076Y026876D01*
X020056Y026834D01*
X020040Y026791D01*
X020027Y026746D01*
X020017Y026701D01*
X020011Y026655D01*
X020009Y026609D01*
X020010Y026562D01*
X020015Y026516D01*
X020185Y027025D02*
X020220Y027058D01*
X020257Y027087D01*
X020297Y027113D01*
X020338Y027136D01*
X020381Y027156D01*
X020426Y027172D01*
X020472Y027185D01*
X020518Y027194D01*
X020566Y027199D01*
X020613Y027201D01*
X020661Y027199D01*
X020708Y027193D01*
X023535Y026006D02*
X023580Y026002D01*
X023625Y026001D01*
X023671Y026004D01*
X023716Y026011D01*
X023760Y026020D01*
X023804Y026033D01*
X023846Y026050D01*
X023887Y026069D01*
X023927Y026092D01*
X023964Y026118D01*
X024000Y026146D01*
X024033Y026177D01*
X024064Y026210D01*
X024092Y026246D01*
X024118Y026283D01*
X024141Y026323D01*
X024160Y026364D01*
X024177Y026406D01*
X024190Y026450D01*
X024199Y026494D01*
X024206Y026539D01*
X024209Y026585D01*
X024208Y026630D01*
X024204Y026675D01*
X023185Y027025D02*
X023153Y026991D01*
X023124Y026955D01*
X023099Y026916D01*
X023076Y026876D01*
X023056Y026834D01*
X023040Y026791D01*
X023027Y026746D01*
X023017Y026701D01*
X023011Y026655D01*
X023009Y026609D01*
X023010Y026562D01*
X023015Y026516D01*
X023185Y027025D02*
X023220Y027058D01*
X023257Y027087D01*
X023297Y027113D01*
X023338Y027136D01*
X023381Y027156D01*
X023426Y027172D01*
X023472Y027185D01*
X023518Y027194D01*
X023566Y027199D01*
X023613Y027201D01*
X023661Y027199D01*
X023708Y027193D01*
X026535Y026006D02*
X026580Y026002D01*
X026625Y026001D01*
X026671Y026004D01*
X026716Y026011D01*
X026760Y026020D01*
X026804Y026033D01*
X026846Y026050D01*
X026887Y026069D01*
X026927Y026092D01*
X026964Y026118D01*
X027000Y026146D01*
X027033Y026177D01*
X027064Y026210D01*
X027092Y026246D01*
X027118Y026283D01*
X027141Y026323D01*
X027160Y026364D01*
X027177Y026406D01*
X027190Y026450D01*
X027199Y026494D01*
X027206Y026539D01*
X027209Y026585D01*
X027208Y026630D01*
X027204Y026675D01*
X026185Y027025D02*
X026153Y026991D01*
X026124Y026955D01*
X026099Y026916D01*
X026076Y026876D01*
X026056Y026834D01*
X026040Y026791D01*
X026027Y026746D01*
X026017Y026701D01*
X026011Y026655D01*
X026009Y026609D01*
X026010Y026562D01*
X026015Y026516D01*
X026185Y027025D02*
X026220Y027058D01*
X026257Y027087D01*
X026297Y027113D01*
X026338Y027136D01*
X026381Y027156D01*
X026426Y027172D01*
X026472Y027185D01*
X026518Y027194D01*
X026566Y027199D01*
X026613Y027201D01*
X026661Y027199D01*
X026708Y027193D01*
X028259Y029601D02*
X028261Y029674D01*
X028267Y029747D01*
X028277Y029819D01*
X028291Y029891D01*
X028308Y029962D01*
X028330Y030032D01*
X028355Y030101D01*
X028384Y030168D01*
X028416Y030233D01*
X028452Y030297D01*
X028492Y030359D01*
X028534Y030418D01*
X028580Y030475D01*
X028629Y030529D01*
X028681Y030581D01*
X028735Y030630D01*
X028792Y030676D01*
X028851Y030718D01*
X028913Y030758D01*
X028977Y030794D01*
X029042Y030826D01*
X029109Y030855D01*
X029178Y030880D01*
X029248Y030902D01*
X029319Y030919D01*
X029391Y030933D01*
X029463Y030943D01*
X029536Y030949D01*
X029609Y030951D01*
X029682Y030949D01*
X029755Y030943D01*
X029827Y030933D01*
X029899Y030919D01*
X029970Y030902D01*
X030040Y030880D01*
X030109Y030855D01*
X030176Y030826D01*
X030241Y030794D01*
X030305Y030758D01*
X030367Y030718D01*
X030426Y030676D01*
X030483Y030630D01*
X030537Y030581D01*
X030589Y030529D01*
X030638Y030475D01*
X030684Y030418D01*
X030726Y030359D01*
X030766Y030297D01*
X030802Y030233D01*
X030834Y030168D01*
X030863Y030101D01*
X030888Y030032D01*
X030910Y029962D01*
X030927Y029891D01*
X030941Y029819D01*
X030951Y029747D01*
X030957Y029674D01*
X030959Y029601D01*
X030957Y029528D01*
X030951Y029455D01*
X030941Y029383D01*
X030927Y029311D01*
X030910Y029240D01*
X030888Y029170D01*
X030863Y029101D01*
X030834Y029034D01*
X030802Y028969D01*
X030766Y028905D01*
X030726Y028843D01*
X030684Y028784D01*
X030638Y028727D01*
X030589Y028673D01*
X030537Y028621D01*
X030483Y028572D01*
X030426Y028526D01*
X030367Y028484D01*
X030305Y028444D01*
X030241Y028408D01*
X030176Y028376D01*
X030109Y028347D01*
X030040Y028322D01*
X029970Y028300D01*
X029899Y028283D01*
X029827Y028269D01*
X029755Y028259D01*
X029682Y028253D01*
X029609Y028251D01*
X029536Y028253D01*
X029463Y028259D01*
X029391Y028269D01*
X029319Y028283D01*
X029248Y028300D01*
X029178Y028322D01*
X029109Y028347D01*
X029042Y028376D01*
X028977Y028408D01*
X028913Y028444D01*
X028851Y028484D01*
X028792Y028526D01*
X028735Y028572D01*
X028681Y028621D01*
X028629Y028673D01*
X028580Y028727D01*
X028534Y028784D01*
X028492Y028843D01*
X028452Y028905D01*
X028416Y028969D01*
X028384Y029034D01*
X028355Y029101D01*
X028330Y029170D01*
X028308Y029240D01*
X028291Y029311D01*
X028277Y029383D01*
X028267Y029455D01*
X028261Y029528D01*
X028259Y029601D01*
X027033Y023177D02*
X027000Y023146D01*
X026964Y023118D01*
X026927Y023092D01*
X026887Y023069D01*
X026846Y023050D01*
X026804Y023033D01*
X026760Y023020D01*
X026716Y023011D01*
X026671Y023004D01*
X026625Y023001D01*
X026580Y023002D01*
X026535Y023006D01*
X027033Y023177D02*
X027064Y023210D01*
X027092Y023246D01*
X027118Y023283D01*
X027141Y023323D01*
X027160Y023364D01*
X027177Y023406D01*
X027190Y023450D01*
X027199Y023494D01*
X027206Y023539D01*
X027209Y023585D01*
X027208Y023630D01*
X027204Y023675D01*
X026185Y024025D02*
X026153Y023991D01*
X026124Y023955D01*
X026099Y023916D01*
X026076Y023876D01*
X026056Y023834D01*
X026040Y023791D01*
X026027Y023746D01*
X026017Y023701D01*
X026011Y023655D01*
X026009Y023609D01*
X026010Y023562D01*
X026015Y023516D01*
X026185Y024025D02*
X026220Y024058D01*
X026257Y024087D01*
X026297Y024113D01*
X026338Y024136D01*
X026381Y024156D01*
X026426Y024172D01*
X026472Y024185D01*
X026518Y024194D01*
X026566Y024199D01*
X026613Y024201D01*
X026661Y024199D01*
X026708Y024193D01*
X024204Y023675D02*
X024208Y023630D01*
X024209Y023585D01*
X024206Y023539D01*
X024199Y023494D01*
X024190Y023450D01*
X024177Y023406D01*
X024160Y023364D01*
X024141Y023323D01*
X024118Y023283D01*
X024092Y023246D01*
X024064Y023210D01*
X024033Y023177D01*
X024000Y023146D01*
X023964Y023118D01*
X023927Y023092D01*
X023887Y023069D01*
X023846Y023050D01*
X023804Y023033D01*
X023760Y023020D01*
X023716Y023011D01*
X023671Y023004D01*
X023625Y023001D01*
X023580Y023002D01*
X023535Y023006D01*
X023015Y023516D02*
X023010Y023562D01*
X023009Y023609D01*
X023011Y023655D01*
X023017Y023701D01*
X023027Y023746D01*
X023040Y023791D01*
X023056Y023834D01*
X023076Y023876D01*
X023099Y023916D01*
X023124Y023955D01*
X023153Y023991D01*
X023185Y024025D01*
X023220Y024058D01*
X023257Y024087D01*
X023297Y024113D01*
X023338Y024136D01*
X023381Y024156D01*
X023426Y024172D01*
X023472Y024185D01*
X023518Y024194D01*
X023566Y024199D01*
X023613Y024201D01*
X023661Y024199D01*
X023708Y024193D01*
X021204Y023675D02*
X021208Y023630D01*
X021209Y023585D01*
X021206Y023539D01*
X021199Y023494D01*
X021190Y023450D01*
X021177Y023406D01*
X021160Y023364D01*
X021141Y023323D01*
X021118Y023283D01*
X021092Y023246D01*
X021064Y023210D01*
X021033Y023177D01*
X021000Y023146D01*
X020964Y023118D01*
X020927Y023092D01*
X020887Y023069D01*
X020846Y023050D01*
X020804Y023033D01*
X020760Y023020D01*
X020716Y023011D01*
X020671Y023004D01*
X020625Y023001D01*
X020580Y023002D01*
X020535Y023006D01*
X020015Y023516D02*
X020010Y023562D01*
X020009Y023609D01*
X020011Y023655D01*
X020017Y023701D01*
X020027Y023746D01*
X020040Y023791D01*
X020056Y023834D01*
X020076Y023876D01*
X020099Y023916D01*
X020124Y023955D01*
X020153Y023991D01*
X020185Y024025D01*
X020220Y024058D01*
X020257Y024087D01*
X020297Y024113D01*
X020338Y024136D01*
X020381Y024156D01*
X020426Y024172D01*
X020472Y024185D01*
X020518Y024194D01*
X020566Y024199D01*
X020613Y024201D01*
X020661Y024199D01*
X020708Y024193D01*
X018204Y023675D02*
X018208Y023630D01*
X018209Y023585D01*
X018206Y023539D01*
X018199Y023494D01*
X018190Y023450D01*
X018177Y023406D01*
X018160Y023364D01*
X018141Y023323D01*
X018118Y023283D01*
X018092Y023246D01*
X018064Y023210D01*
X018033Y023177D01*
X018000Y023146D01*
X017964Y023118D01*
X017927Y023092D01*
X017887Y023069D01*
X017846Y023050D01*
X017804Y023033D01*
X017760Y023020D01*
X017716Y023011D01*
X017671Y023004D01*
X017625Y023001D01*
X017580Y023002D01*
X017535Y023006D01*
X017015Y023516D02*
X017010Y023562D01*
X017009Y023609D01*
X017011Y023655D01*
X017017Y023701D01*
X017027Y023746D01*
X017040Y023791D01*
X017056Y023834D01*
X017076Y023876D01*
X017099Y023916D01*
X017124Y023955D01*
X017153Y023991D01*
X017185Y024025D01*
X017220Y024058D01*
X017257Y024087D01*
X017297Y024113D01*
X017338Y024136D01*
X017381Y024156D01*
X017426Y024172D01*
X017472Y024185D01*
X017518Y024194D01*
X017566Y024199D01*
X017613Y024201D01*
X017661Y024199D01*
X017708Y024193D01*
X015204Y023675D02*
X015208Y023630D01*
X015209Y023585D01*
X015206Y023539D01*
X015199Y023494D01*
X015190Y023450D01*
X015177Y023406D01*
X015160Y023364D01*
X015141Y023323D01*
X015118Y023283D01*
X015092Y023246D01*
X015064Y023210D01*
X015033Y023177D01*
X015000Y023146D01*
X014964Y023118D01*
X014927Y023092D01*
X014887Y023069D01*
X014846Y023050D01*
X014804Y023033D01*
X014760Y023020D01*
X014716Y023011D01*
X014671Y023004D01*
X014625Y023001D01*
X014580Y023002D01*
X014535Y023006D01*
X014015Y023516D02*
X014010Y023562D01*
X014009Y023609D01*
X014011Y023655D01*
X014017Y023701D01*
X014027Y023746D01*
X014040Y023791D01*
X014056Y023834D01*
X014076Y023876D01*
X014099Y023916D01*
X014124Y023955D01*
X014153Y023991D01*
X014185Y024025D01*
X014220Y024058D01*
X014257Y024087D01*
X014297Y024113D01*
X014338Y024136D01*
X014381Y024156D01*
X014426Y024172D01*
X014472Y024185D01*
X014518Y024194D01*
X014566Y024199D01*
X014613Y024201D01*
X014661Y024199D01*
X014708Y024193D01*
X012204Y023675D02*
X012208Y023630D01*
X012209Y023585D01*
X012206Y023539D01*
X012199Y023494D01*
X012190Y023450D01*
X012177Y023406D01*
X012160Y023364D01*
X012141Y023323D01*
X012118Y023283D01*
X012092Y023246D01*
X012064Y023210D01*
X012033Y023177D01*
X012000Y023146D01*
X011964Y023118D01*
X011927Y023092D01*
X011887Y023069D01*
X011846Y023050D01*
X011804Y023033D01*
X011760Y023020D01*
X011716Y023011D01*
X011671Y023004D01*
X011625Y023001D01*
X011580Y023002D01*
X011535Y023006D01*
X011015Y023516D02*
X011010Y023562D01*
X011009Y023609D01*
X011011Y023655D01*
X011017Y023701D01*
X011027Y023746D01*
X011040Y023791D01*
X011056Y023834D01*
X011076Y023876D01*
X011099Y023916D01*
X011124Y023955D01*
X011153Y023991D01*
X011185Y024025D01*
X011220Y024058D01*
X011257Y024087D01*
X011297Y024113D01*
X011338Y024136D01*
X011381Y024156D01*
X011426Y024172D01*
X011472Y024185D01*
X011518Y024194D01*
X011566Y024199D01*
X011613Y024201D01*
X011661Y024199D01*
X011708Y024193D01*
X012033Y026177D02*
X012064Y026210D01*
X012092Y026246D01*
X012118Y026283D01*
X012141Y026323D01*
X012160Y026364D01*
X012177Y026406D01*
X012190Y026450D01*
X012199Y026494D01*
X012206Y026539D01*
X012209Y026585D01*
X012208Y026630D01*
X012204Y026675D01*
X011185Y027025D02*
X011153Y026991D01*
X011124Y026955D01*
X011099Y026916D01*
X011076Y026876D01*
X011056Y026834D01*
X011040Y026791D01*
X011027Y026746D01*
X011017Y026701D01*
X011011Y026655D01*
X011009Y026609D01*
X011010Y026562D01*
X011015Y026516D01*
X011535Y026006D02*
X011580Y026002D01*
X011625Y026001D01*
X011671Y026004D01*
X011716Y026011D01*
X011760Y026020D01*
X011804Y026033D01*
X011846Y026050D01*
X011887Y026069D01*
X011927Y026092D01*
X011964Y026118D01*
X012000Y026146D01*
X012033Y026177D01*
X011708Y027193D02*
X011661Y027199D01*
X011613Y027201D01*
X011566Y027199D01*
X011518Y027194D01*
X011472Y027185D01*
X011426Y027172D01*
X011381Y027156D01*
X011338Y027136D01*
X011297Y027113D01*
X011257Y027087D01*
X011220Y027058D01*
X011185Y027025D01*
X009204Y026675D02*
X009208Y026630D01*
X009209Y026585D01*
X009206Y026539D01*
X009199Y026494D01*
X009190Y026450D01*
X009177Y026406D01*
X009160Y026364D01*
X009141Y026323D01*
X009118Y026283D01*
X009092Y026246D01*
X009064Y026210D01*
X009033Y026177D01*
X009000Y026146D01*
X008964Y026118D01*
X008927Y026092D01*
X008887Y026069D01*
X008846Y026050D01*
X008804Y026033D01*
X008760Y026020D01*
X008716Y026011D01*
X008671Y026004D01*
X008625Y026001D01*
X008580Y026002D01*
X008535Y026006D01*
X008015Y026516D02*
X008010Y026562D01*
X008009Y026609D01*
X008011Y026655D01*
X008017Y026701D01*
X008027Y026746D01*
X008040Y026791D01*
X008056Y026834D01*
X008076Y026876D01*
X008099Y026916D01*
X008124Y026955D01*
X008153Y026991D01*
X008185Y027025D01*
X008220Y027058D01*
X008257Y027087D01*
X008297Y027113D01*
X008338Y027136D01*
X008381Y027156D01*
X008426Y027172D01*
X008472Y027185D01*
X008518Y027194D01*
X008566Y027199D01*
X008613Y027201D01*
X008661Y027199D01*
X008708Y027193D01*
X009033Y023177D02*
X009000Y023146D01*
X008964Y023118D01*
X008927Y023092D01*
X008887Y023069D01*
X008846Y023050D01*
X008804Y023033D01*
X008760Y023020D01*
X008716Y023011D01*
X008671Y023004D01*
X008625Y023001D01*
X008580Y023002D01*
X008535Y023006D01*
X009033Y023177D02*
X009064Y023210D01*
X009092Y023246D01*
X009118Y023283D01*
X009141Y023323D01*
X009160Y023364D01*
X009177Y023406D01*
X009190Y023450D01*
X009199Y023494D01*
X009206Y023539D01*
X009209Y023585D01*
X009208Y023630D01*
X009204Y023675D01*
X008185Y024025D02*
X008153Y023991D01*
X008124Y023955D01*
X008099Y023916D01*
X008076Y023876D01*
X008056Y023834D01*
X008040Y023791D01*
X008027Y023746D01*
X008017Y023701D01*
X008011Y023655D01*
X008009Y023609D01*
X008010Y023562D01*
X008015Y023516D01*
X008185Y024025D02*
X008220Y024058D01*
X008257Y024087D01*
X008297Y024113D01*
X008338Y024136D01*
X008381Y024156D01*
X008426Y024172D01*
X008472Y024185D01*
X008518Y024194D01*
X008566Y024199D01*
X008613Y024201D01*
X008661Y024199D01*
X008708Y024193D01*
X009033Y020177D02*
X009000Y020146D01*
X008964Y020118D01*
X008927Y020092D01*
X008887Y020069D01*
X008846Y020050D01*
X008804Y020033D01*
X008760Y020020D01*
X008716Y020011D01*
X008671Y020004D01*
X008625Y020001D01*
X008580Y020002D01*
X008535Y020006D01*
X009033Y020177D02*
X009064Y020210D01*
X009092Y020246D01*
X009118Y020283D01*
X009141Y020323D01*
X009160Y020364D01*
X009177Y020406D01*
X009190Y020450D01*
X009199Y020494D01*
X009206Y020539D01*
X009209Y020585D01*
X009208Y020630D01*
X009204Y020675D01*
X008185Y021025D02*
X008153Y020991D01*
X008124Y020955D01*
X008099Y020916D01*
X008076Y020876D01*
X008056Y020834D01*
X008040Y020791D01*
X008027Y020746D01*
X008017Y020701D01*
X008011Y020655D01*
X008009Y020609D01*
X008010Y020562D01*
X008015Y020516D01*
X008185Y021025D02*
X008220Y021058D01*
X008257Y021087D01*
X008297Y021113D01*
X008338Y021136D01*
X008381Y021156D01*
X008426Y021172D01*
X008472Y021185D01*
X008518Y021194D01*
X008566Y021199D01*
X008613Y021201D01*
X008661Y021199D01*
X008708Y021193D01*
X011535Y020006D02*
X011580Y020002D01*
X011625Y020001D01*
X011671Y020004D01*
X011716Y020011D01*
X011760Y020020D01*
X011804Y020033D01*
X011846Y020050D01*
X011887Y020069D01*
X011927Y020092D01*
X011964Y020118D01*
X012000Y020146D01*
X012033Y020177D01*
X012064Y020210D01*
X012092Y020246D01*
X012118Y020283D01*
X012141Y020323D01*
X012160Y020364D01*
X012177Y020406D01*
X012190Y020450D01*
X012199Y020494D01*
X012206Y020539D01*
X012209Y020585D01*
X012208Y020630D01*
X012204Y020675D01*
X011185Y021025D02*
X011153Y020991D01*
X011124Y020955D01*
X011099Y020916D01*
X011076Y020876D01*
X011056Y020834D01*
X011040Y020791D01*
X011027Y020746D01*
X011017Y020701D01*
X011011Y020655D01*
X011009Y020609D01*
X011010Y020562D01*
X011015Y020516D01*
X011185Y021025D02*
X011220Y021058D01*
X011257Y021087D01*
X011297Y021113D01*
X011338Y021136D01*
X011381Y021156D01*
X011426Y021172D01*
X011472Y021185D01*
X011518Y021194D01*
X011566Y021199D01*
X011613Y021201D01*
X011661Y021199D01*
X011708Y021193D01*
X014535Y020006D02*
X014580Y020002D01*
X014625Y020001D01*
X014671Y020004D01*
X014716Y020011D01*
X014760Y020020D01*
X014804Y020033D01*
X014846Y020050D01*
X014887Y020069D01*
X014927Y020092D01*
X014964Y020118D01*
X015000Y020146D01*
X015033Y020177D01*
X015064Y020210D01*
X015092Y020246D01*
X015118Y020283D01*
X015141Y020323D01*
X015160Y020364D01*
X015177Y020406D01*
X015190Y020450D01*
X015199Y020494D01*
X015206Y020539D01*
X015209Y020585D01*
X015208Y020630D01*
X015204Y020675D01*
X014185Y021025D02*
X014153Y020991D01*
X014124Y020955D01*
X014099Y020916D01*
X014076Y020876D01*
X014056Y020834D01*
X014040Y020791D01*
X014027Y020746D01*
X014017Y020701D01*
X014011Y020655D01*
X014009Y020609D01*
X014010Y020562D01*
X014015Y020516D01*
X014185Y021025D02*
X014220Y021058D01*
X014257Y021087D01*
X014297Y021113D01*
X014338Y021136D01*
X014381Y021156D01*
X014426Y021172D01*
X014472Y021185D01*
X014518Y021194D01*
X014566Y021199D01*
X014613Y021201D01*
X014661Y021199D01*
X014708Y021193D01*
X017535Y020006D02*
X017580Y020002D01*
X017625Y020001D01*
X017671Y020004D01*
X017716Y020011D01*
X017760Y020020D01*
X017804Y020033D01*
X017846Y020050D01*
X017887Y020069D01*
X017927Y020092D01*
X017964Y020118D01*
X018000Y020146D01*
X018033Y020177D01*
X018064Y020210D01*
X018092Y020246D01*
X018118Y020283D01*
X018141Y020323D01*
X018160Y020364D01*
X018177Y020406D01*
X018190Y020450D01*
X018199Y020494D01*
X018206Y020539D01*
X018209Y020585D01*
X018208Y020630D01*
X018204Y020675D01*
X017185Y021025D02*
X017153Y020991D01*
X017124Y020955D01*
X017099Y020916D01*
X017076Y020876D01*
X017056Y020834D01*
X017040Y020791D01*
X017027Y020746D01*
X017017Y020701D01*
X017011Y020655D01*
X017009Y020609D01*
X017010Y020562D01*
X017015Y020516D01*
X017185Y021025D02*
X017220Y021058D01*
X017257Y021087D01*
X017297Y021113D01*
X017338Y021136D01*
X017381Y021156D01*
X017426Y021172D01*
X017472Y021185D01*
X017518Y021194D01*
X017566Y021199D01*
X017613Y021201D01*
X017661Y021199D01*
X017708Y021193D01*
X020535Y020006D02*
X020580Y020002D01*
X020625Y020001D01*
X020671Y020004D01*
X020716Y020011D01*
X020760Y020020D01*
X020804Y020033D01*
X020846Y020050D01*
X020887Y020069D01*
X020927Y020092D01*
X020964Y020118D01*
X021000Y020146D01*
X021033Y020177D01*
X021064Y020210D01*
X021092Y020246D01*
X021118Y020283D01*
X021141Y020323D01*
X021160Y020364D01*
X021177Y020406D01*
X021190Y020450D01*
X021199Y020494D01*
X021206Y020539D01*
X021209Y020585D01*
X021208Y020630D01*
X021204Y020675D01*
X020185Y021025D02*
X020153Y020991D01*
X020124Y020955D01*
X020099Y020916D01*
X020076Y020876D01*
X020056Y020834D01*
X020040Y020791D01*
X020027Y020746D01*
X020017Y020701D01*
X020011Y020655D01*
X020009Y020609D01*
X020010Y020562D01*
X020015Y020516D01*
X020185Y021025D02*
X020220Y021058D01*
X020257Y021087D01*
X020297Y021113D01*
X020338Y021136D01*
X020381Y021156D01*
X020426Y021172D01*
X020472Y021185D01*
X020518Y021194D01*
X020566Y021199D01*
X020613Y021201D01*
X020661Y021199D01*
X020708Y021193D01*
X023535Y020006D02*
X023580Y020002D01*
X023625Y020001D01*
X023671Y020004D01*
X023716Y020011D01*
X023760Y020020D01*
X023804Y020033D01*
X023846Y020050D01*
X023887Y020069D01*
X023927Y020092D01*
X023964Y020118D01*
X024000Y020146D01*
X024033Y020177D01*
X024064Y020210D01*
X024092Y020246D01*
X024118Y020283D01*
X024141Y020323D01*
X024160Y020364D01*
X024177Y020406D01*
X024190Y020450D01*
X024199Y020494D01*
X024206Y020539D01*
X024209Y020585D01*
X024208Y020630D01*
X024204Y020675D01*
X023185Y021025D02*
X023153Y020991D01*
X023124Y020955D01*
X023099Y020916D01*
X023076Y020876D01*
X023056Y020834D01*
X023040Y020791D01*
X023027Y020746D01*
X023017Y020701D01*
X023011Y020655D01*
X023009Y020609D01*
X023010Y020562D01*
X023015Y020516D01*
X023185Y021025D02*
X023220Y021058D01*
X023257Y021087D01*
X023297Y021113D01*
X023338Y021136D01*
X023381Y021156D01*
X023426Y021172D01*
X023472Y021185D01*
X023518Y021194D01*
X023566Y021199D01*
X023613Y021201D01*
X023661Y021199D01*
X023708Y021193D01*
X026535Y020006D02*
X026580Y020002D01*
X026625Y020001D01*
X026671Y020004D01*
X026716Y020011D01*
X026760Y020020D01*
X026804Y020033D01*
X026846Y020050D01*
X026887Y020069D01*
X026927Y020092D01*
X026964Y020118D01*
X027000Y020146D01*
X027033Y020177D01*
X027064Y020210D01*
X027092Y020246D01*
X027118Y020283D01*
X027141Y020323D01*
X027160Y020364D01*
X027177Y020406D01*
X027190Y020450D01*
X027199Y020494D01*
X027206Y020539D01*
X027209Y020585D01*
X027208Y020630D01*
X027204Y020675D01*
X026185Y021025D02*
X026153Y020991D01*
X026124Y020955D01*
X026099Y020916D01*
X026076Y020876D01*
X026056Y020834D01*
X026040Y020791D01*
X026027Y020746D01*
X026017Y020701D01*
X026011Y020655D01*
X026009Y020609D01*
X026010Y020562D01*
X026015Y020516D01*
X026185Y021025D02*
X026220Y021058D01*
X026257Y021087D01*
X026297Y021113D01*
X026338Y021136D01*
X026381Y021156D01*
X026426Y021172D01*
X026472Y021185D01*
X026518Y021194D01*
X026566Y021199D01*
X026613Y021201D01*
X026661Y021199D01*
X026708Y021193D01*
X029109Y019351D02*
X029109Y018851D01*
X029359Y018601D01*
X029109Y018351D01*
X029109Y017851D01*
X029359Y017601D01*
X029109Y017351D01*
X029109Y016851D01*
X029359Y016601D01*
X029109Y016351D01*
X029109Y015851D01*
X029359Y015601D01*
X029109Y015351D01*
X029109Y014851D01*
X029359Y014601D01*
X029109Y014351D01*
X029109Y013851D01*
X029359Y013601D01*
X029109Y013351D01*
X029109Y012851D01*
X029359Y012601D01*
X029109Y012351D01*
X029109Y011851D01*
X029359Y011601D01*
X029859Y011601D01*
X030109Y011851D01*
X030109Y012351D01*
X029859Y012601D01*
X030109Y012851D01*
X030109Y013351D01*
X029859Y013601D01*
X030109Y013851D01*
X030109Y014351D01*
X029859Y014601D01*
X030109Y014851D01*
X030109Y015351D01*
X029859Y015601D01*
X030109Y015851D01*
X030109Y016351D01*
X029859Y016601D01*
X030109Y016851D01*
X030109Y017351D01*
X029859Y017601D01*
X030109Y017851D01*
X030109Y018351D01*
X029859Y018601D01*
X030109Y018851D01*
X030109Y019351D01*
X029859Y019601D01*
X029359Y019601D01*
X029109Y019351D01*
X026185Y018025D02*
X026153Y017991D01*
X026124Y017955D01*
X026099Y017916D01*
X026076Y017876D01*
X026056Y017834D01*
X026040Y017791D01*
X026027Y017746D01*
X026017Y017701D01*
X026011Y017655D01*
X026009Y017609D01*
X026010Y017562D01*
X026015Y017516D01*
X026535Y017006D02*
X026580Y017002D01*
X026625Y017001D01*
X026671Y017004D01*
X026716Y017011D01*
X026760Y017020D01*
X026804Y017033D01*
X026846Y017050D01*
X026887Y017069D01*
X026927Y017092D01*
X026964Y017118D01*
X027000Y017146D01*
X027033Y017177D01*
X027064Y017210D01*
X027092Y017246D01*
X027118Y017283D01*
X027141Y017323D01*
X027160Y017364D01*
X027177Y017406D01*
X027190Y017450D01*
X027199Y017494D01*
X027206Y017539D01*
X027209Y017585D01*
X027208Y017630D01*
X027204Y017675D01*
X026708Y018193D02*
X026661Y018199D01*
X026613Y018201D01*
X026566Y018199D01*
X026518Y018194D01*
X026472Y018185D01*
X026426Y018172D01*
X026381Y018156D01*
X026338Y018136D01*
X026297Y018113D01*
X026257Y018087D01*
X026220Y018058D01*
X026185Y018025D01*
X024204Y017675D02*
X024208Y017630D01*
X024209Y017585D01*
X024206Y017539D01*
X024199Y017494D01*
X024190Y017450D01*
X024177Y017406D01*
X024160Y017364D01*
X024141Y017323D01*
X024118Y017283D01*
X024092Y017246D01*
X024064Y017210D01*
X024033Y017177D01*
X024000Y017146D01*
X023964Y017118D01*
X023927Y017092D01*
X023887Y017069D01*
X023846Y017050D01*
X023804Y017033D01*
X023760Y017020D01*
X023716Y017011D01*
X023671Y017004D01*
X023625Y017001D01*
X023580Y017002D01*
X023535Y017006D01*
X023015Y017516D02*
X023010Y017562D01*
X023009Y017609D01*
X023011Y017655D01*
X023017Y017701D01*
X023027Y017746D01*
X023040Y017791D01*
X023056Y017834D01*
X023076Y017876D01*
X023099Y017916D01*
X023124Y017955D01*
X023153Y017991D01*
X023185Y018025D01*
X023220Y018058D01*
X023257Y018087D01*
X023297Y018113D01*
X023338Y018136D01*
X023381Y018156D01*
X023426Y018172D01*
X023472Y018185D01*
X023518Y018194D01*
X023566Y018199D01*
X023613Y018201D01*
X023661Y018199D01*
X023708Y018193D01*
X021204Y017675D02*
X021208Y017630D01*
X021209Y017585D01*
X021206Y017539D01*
X021199Y017494D01*
X021190Y017450D01*
X021177Y017406D01*
X021160Y017364D01*
X021141Y017323D01*
X021118Y017283D01*
X021092Y017246D01*
X021064Y017210D01*
X021033Y017177D01*
X021000Y017146D01*
X020964Y017118D01*
X020927Y017092D01*
X020887Y017069D01*
X020846Y017050D01*
X020804Y017033D01*
X020760Y017020D01*
X020716Y017011D01*
X020671Y017004D01*
X020625Y017001D01*
X020580Y017002D01*
X020535Y017006D01*
X020015Y017516D02*
X020010Y017562D01*
X020009Y017609D01*
X020011Y017655D01*
X020017Y017701D01*
X020027Y017746D01*
X020040Y017791D01*
X020056Y017834D01*
X020076Y017876D01*
X020099Y017916D01*
X020124Y017955D01*
X020153Y017991D01*
X020185Y018025D01*
X020220Y018058D01*
X020257Y018087D01*
X020297Y018113D01*
X020338Y018136D01*
X020381Y018156D01*
X020426Y018172D01*
X020472Y018185D01*
X020518Y018194D01*
X020566Y018199D01*
X020613Y018201D01*
X020661Y018199D01*
X020708Y018193D01*
X018204Y017675D02*
X018208Y017630D01*
X018209Y017585D01*
X018206Y017539D01*
X018199Y017494D01*
X018190Y017450D01*
X018177Y017406D01*
X018160Y017364D01*
X018141Y017323D01*
X018118Y017283D01*
X018092Y017246D01*
X018064Y017210D01*
X018033Y017177D01*
X018000Y017146D01*
X017964Y017118D01*
X017927Y017092D01*
X017887Y017069D01*
X017846Y017050D01*
X017804Y017033D01*
X017760Y017020D01*
X017716Y017011D01*
X017671Y017004D01*
X017625Y017001D01*
X017580Y017002D01*
X017535Y017006D01*
X017015Y017516D02*
X017010Y017562D01*
X017009Y017609D01*
X017011Y017655D01*
X017017Y017701D01*
X017027Y017746D01*
X017040Y017791D01*
X017056Y017834D01*
X017076Y017876D01*
X017099Y017916D01*
X017124Y017955D01*
X017153Y017991D01*
X017185Y018025D01*
X017220Y018058D01*
X017257Y018087D01*
X017297Y018113D01*
X017338Y018136D01*
X017381Y018156D01*
X017426Y018172D01*
X017472Y018185D01*
X017518Y018194D01*
X017566Y018199D01*
X017613Y018201D01*
X017661Y018199D01*
X017708Y018193D01*
X015204Y017675D02*
X015208Y017630D01*
X015209Y017585D01*
X015206Y017539D01*
X015199Y017494D01*
X015190Y017450D01*
X015177Y017406D01*
X015160Y017364D01*
X015141Y017323D01*
X015118Y017283D01*
X015092Y017246D01*
X015064Y017210D01*
X015033Y017177D01*
X015000Y017146D01*
X014964Y017118D01*
X014927Y017092D01*
X014887Y017069D01*
X014846Y017050D01*
X014804Y017033D01*
X014760Y017020D01*
X014716Y017011D01*
X014671Y017004D01*
X014625Y017001D01*
X014580Y017002D01*
X014535Y017006D01*
X014015Y017516D02*
X014010Y017562D01*
X014009Y017609D01*
X014011Y017655D01*
X014017Y017701D01*
X014027Y017746D01*
X014040Y017791D01*
X014056Y017834D01*
X014076Y017876D01*
X014099Y017916D01*
X014124Y017955D01*
X014153Y017991D01*
X014185Y018025D01*
X014220Y018058D01*
X014257Y018087D01*
X014297Y018113D01*
X014338Y018136D01*
X014381Y018156D01*
X014426Y018172D01*
X014472Y018185D01*
X014518Y018194D01*
X014566Y018199D01*
X014613Y018201D01*
X014661Y018199D01*
X014708Y018193D01*
X012204Y017675D02*
X012208Y017630D01*
X012209Y017585D01*
X012206Y017539D01*
X012199Y017494D01*
X012190Y017450D01*
X012177Y017406D01*
X012160Y017364D01*
X012141Y017323D01*
X012118Y017283D01*
X012092Y017246D01*
X012064Y017210D01*
X012033Y017177D01*
X012000Y017146D01*
X011964Y017118D01*
X011927Y017092D01*
X011887Y017069D01*
X011846Y017050D01*
X011804Y017033D01*
X011760Y017020D01*
X011716Y017011D01*
X011671Y017004D01*
X011625Y017001D01*
X011580Y017002D01*
X011535Y017006D01*
X011015Y017516D02*
X011010Y017562D01*
X011009Y017609D01*
X011011Y017655D01*
X011017Y017701D01*
X011027Y017746D01*
X011040Y017791D01*
X011056Y017834D01*
X011076Y017876D01*
X011099Y017916D01*
X011124Y017955D01*
X011153Y017991D01*
X011185Y018025D01*
X011220Y018058D01*
X011257Y018087D01*
X011297Y018113D01*
X011338Y018136D01*
X011381Y018156D01*
X011426Y018172D01*
X011472Y018185D01*
X011518Y018194D01*
X011566Y018199D01*
X011613Y018201D01*
X011661Y018199D01*
X011708Y018193D01*
X009204Y017675D02*
X009208Y017630D01*
X009209Y017585D01*
X009206Y017539D01*
X009199Y017494D01*
X009190Y017450D01*
X009177Y017406D01*
X009160Y017364D01*
X009141Y017323D01*
X009118Y017283D01*
X009092Y017246D01*
X009064Y017210D01*
X009033Y017177D01*
X009000Y017146D01*
X008964Y017118D01*
X008927Y017092D01*
X008887Y017069D01*
X008846Y017050D01*
X008804Y017033D01*
X008760Y017020D01*
X008716Y017011D01*
X008671Y017004D01*
X008625Y017001D01*
X008580Y017002D01*
X008535Y017006D01*
X008015Y017516D02*
X008010Y017562D01*
X008009Y017609D01*
X008011Y017655D01*
X008017Y017701D01*
X008027Y017746D01*
X008040Y017791D01*
X008056Y017834D01*
X008076Y017876D01*
X008099Y017916D01*
X008124Y017955D01*
X008153Y017991D01*
X008185Y018025D01*
X008220Y018058D01*
X008257Y018087D01*
X008297Y018113D01*
X008338Y018136D01*
X008381Y018156D01*
X008426Y018172D01*
X008472Y018185D01*
X008518Y018194D01*
X008566Y018199D01*
X008613Y018201D01*
X008661Y018199D01*
X008708Y018193D01*
X009033Y014177D02*
X009000Y014146D01*
X008964Y014118D01*
X008927Y014092D01*
X008887Y014069D01*
X008846Y014050D01*
X008804Y014033D01*
X008760Y014020D01*
X008716Y014011D01*
X008671Y014004D01*
X008625Y014001D01*
X008580Y014002D01*
X008535Y014006D01*
X009033Y014177D02*
X009064Y014210D01*
X009092Y014246D01*
X009118Y014283D01*
X009141Y014323D01*
X009160Y014364D01*
X009177Y014406D01*
X009190Y014450D01*
X009199Y014494D01*
X009206Y014539D01*
X009209Y014585D01*
X009208Y014630D01*
X009204Y014675D01*
X008185Y015025D02*
X008153Y014991D01*
X008124Y014955D01*
X008099Y014916D01*
X008076Y014876D01*
X008056Y014834D01*
X008040Y014791D01*
X008027Y014746D01*
X008017Y014701D01*
X008011Y014655D01*
X008009Y014609D01*
X008010Y014562D01*
X008015Y014516D01*
X008185Y015025D02*
X008220Y015058D01*
X008257Y015087D01*
X008297Y015113D01*
X008338Y015136D01*
X008381Y015156D01*
X008426Y015172D01*
X008472Y015185D01*
X008518Y015194D01*
X008566Y015199D01*
X008613Y015201D01*
X008661Y015199D01*
X008708Y015193D01*
X011535Y014006D02*
X011580Y014002D01*
X011625Y014001D01*
X011671Y014004D01*
X011716Y014011D01*
X011760Y014020D01*
X011804Y014033D01*
X011846Y014050D01*
X011887Y014069D01*
X011927Y014092D01*
X011964Y014118D01*
X012000Y014146D01*
X012033Y014177D01*
X012064Y014210D01*
X012092Y014246D01*
X012118Y014283D01*
X012141Y014323D01*
X012160Y014364D01*
X012177Y014406D01*
X012190Y014450D01*
X012199Y014494D01*
X012206Y014539D01*
X012209Y014585D01*
X012208Y014630D01*
X012204Y014675D01*
X011185Y015025D02*
X011153Y014991D01*
X011124Y014955D01*
X011099Y014916D01*
X011076Y014876D01*
X011056Y014834D01*
X011040Y014791D01*
X011027Y014746D01*
X011017Y014701D01*
X011011Y014655D01*
X011009Y014609D01*
X011010Y014562D01*
X011015Y014516D01*
X011185Y015025D02*
X011220Y015058D01*
X011257Y015087D01*
X011297Y015113D01*
X011338Y015136D01*
X011381Y015156D01*
X011426Y015172D01*
X011472Y015185D01*
X011518Y015194D01*
X011566Y015199D01*
X011613Y015201D01*
X011661Y015199D01*
X011708Y015193D01*
X014535Y014006D02*
X014580Y014002D01*
X014625Y014001D01*
X014671Y014004D01*
X014716Y014011D01*
X014760Y014020D01*
X014804Y014033D01*
X014846Y014050D01*
X014887Y014069D01*
X014927Y014092D01*
X014964Y014118D01*
X015000Y014146D01*
X015033Y014177D01*
X015064Y014210D01*
X015092Y014246D01*
X015118Y014283D01*
X015141Y014323D01*
X015160Y014364D01*
X015177Y014406D01*
X015190Y014450D01*
X015199Y014494D01*
X015206Y014539D01*
X015209Y014585D01*
X015208Y014630D01*
X015204Y014675D01*
X014185Y015025D02*
X014153Y014991D01*
X014124Y014955D01*
X014099Y014916D01*
X014076Y014876D01*
X014056Y014834D01*
X014040Y014791D01*
X014027Y014746D01*
X014017Y014701D01*
X014011Y014655D01*
X014009Y014609D01*
X014010Y014562D01*
X014015Y014516D01*
X014185Y015025D02*
X014220Y015058D01*
X014257Y015087D01*
X014297Y015113D01*
X014338Y015136D01*
X014381Y015156D01*
X014426Y015172D01*
X014472Y015185D01*
X014518Y015194D01*
X014566Y015199D01*
X014613Y015201D01*
X014661Y015199D01*
X014708Y015193D01*
X017535Y014006D02*
X017580Y014002D01*
X017625Y014001D01*
X017671Y014004D01*
X017716Y014011D01*
X017760Y014020D01*
X017804Y014033D01*
X017846Y014050D01*
X017887Y014069D01*
X017927Y014092D01*
X017964Y014118D01*
X018000Y014146D01*
X018033Y014177D01*
X018064Y014210D01*
X018092Y014246D01*
X018118Y014283D01*
X018141Y014323D01*
X018160Y014364D01*
X018177Y014406D01*
X018190Y014450D01*
X018199Y014494D01*
X018206Y014539D01*
X018209Y014585D01*
X018208Y014630D01*
X018204Y014675D01*
X017185Y015025D02*
X017153Y014991D01*
X017124Y014955D01*
X017099Y014916D01*
X017076Y014876D01*
X017056Y014834D01*
X017040Y014791D01*
X017027Y014746D01*
X017017Y014701D01*
X017011Y014655D01*
X017009Y014609D01*
X017010Y014562D01*
X017015Y014516D01*
X017185Y015025D02*
X017220Y015058D01*
X017257Y015087D01*
X017297Y015113D01*
X017338Y015136D01*
X017381Y015156D01*
X017426Y015172D01*
X017472Y015185D01*
X017518Y015194D01*
X017566Y015199D01*
X017613Y015201D01*
X017661Y015199D01*
X017708Y015193D01*
X020535Y014006D02*
X020580Y014002D01*
X020625Y014001D01*
X020671Y014004D01*
X020716Y014011D01*
X020760Y014020D01*
X020804Y014033D01*
X020846Y014050D01*
X020887Y014069D01*
X020927Y014092D01*
X020964Y014118D01*
X021000Y014146D01*
X021033Y014177D01*
X021064Y014210D01*
X021092Y014246D01*
X021118Y014283D01*
X021141Y014323D01*
X021160Y014364D01*
X021177Y014406D01*
X021190Y014450D01*
X021199Y014494D01*
X021206Y014539D01*
X021209Y014585D01*
X021208Y014630D01*
X021204Y014675D01*
X020185Y015025D02*
X020153Y014991D01*
X020124Y014955D01*
X020099Y014916D01*
X020076Y014876D01*
X020056Y014834D01*
X020040Y014791D01*
X020027Y014746D01*
X020017Y014701D01*
X020011Y014655D01*
X020009Y014609D01*
X020010Y014562D01*
X020015Y014516D01*
X020185Y015025D02*
X020220Y015058D01*
X020257Y015087D01*
X020297Y015113D01*
X020338Y015136D01*
X020381Y015156D01*
X020426Y015172D01*
X020472Y015185D01*
X020518Y015194D01*
X020566Y015199D01*
X020613Y015201D01*
X020661Y015199D01*
X020708Y015193D01*
X023535Y014006D02*
X023580Y014002D01*
X023625Y014001D01*
X023671Y014004D01*
X023716Y014011D01*
X023760Y014020D01*
X023804Y014033D01*
X023846Y014050D01*
X023887Y014069D01*
X023927Y014092D01*
X023964Y014118D01*
X024000Y014146D01*
X024033Y014177D01*
X024064Y014210D01*
X024092Y014246D01*
X024118Y014283D01*
X024141Y014323D01*
X024160Y014364D01*
X024177Y014406D01*
X024190Y014450D01*
X024199Y014494D01*
X024206Y014539D01*
X024209Y014585D01*
X024208Y014630D01*
X024204Y014675D01*
X023185Y015025D02*
X023153Y014991D01*
X023124Y014955D01*
X023099Y014916D01*
X023076Y014876D01*
X023056Y014834D01*
X023040Y014791D01*
X023027Y014746D01*
X023017Y014701D01*
X023011Y014655D01*
X023009Y014609D01*
X023010Y014562D01*
X023015Y014516D01*
X023185Y015025D02*
X023220Y015058D01*
X023257Y015087D01*
X023297Y015113D01*
X023338Y015136D01*
X023381Y015156D01*
X023426Y015172D01*
X023472Y015185D01*
X023518Y015194D01*
X023566Y015199D01*
X023613Y015201D01*
X023661Y015199D01*
X023708Y015193D01*
X026535Y014006D02*
X026580Y014002D01*
X026625Y014001D01*
X026671Y014004D01*
X026716Y014011D01*
X026760Y014020D01*
X026804Y014033D01*
X026846Y014050D01*
X026887Y014069D01*
X026927Y014092D01*
X026964Y014118D01*
X027000Y014146D01*
X027033Y014177D01*
X027064Y014210D01*
X027092Y014246D01*
X027118Y014283D01*
X027141Y014323D01*
X027160Y014364D01*
X027177Y014406D01*
X027190Y014450D01*
X027199Y014494D01*
X027206Y014539D01*
X027209Y014585D01*
X027208Y014630D01*
X027204Y014675D01*
X026185Y015025D02*
X026153Y014991D01*
X026124Y014955D01*
X026099Y014916D01*
X026076Y014876D01*
X026056Y014834D01*
X026040Y014791D01*
X026027Y014746D01*
X026017Y014701D01*
X026011Y014655D01*
X026009Y014609D01*
X026010Y014562D01*
X026015Y014516D01*
X026185Y015025D02*
X026220Y015058D01*
X026257Y015087D01*
X026297Y015113D01*
X026338Y015136D01*
X026381Y015156D01*
X026426Y015172D01*
X026472Y015185D01*
X026518Y015194D01*
X026566Y015199D01*
X026613Y015201D01*
X026661Y015199D01*
X026708Y015193D01*
X027033Y011177D02*
X027000Y011146D01*
X026964Y011118D01*
X026927Y011092D01*
X026887Y011069D01*
X026846Y011050D01*
X026804Y011033D01*
X026760Y011020D01*
X026716Y011011D01*
X026671Y011004D01*
X026625Y011001D01*
X026580Y011002D01*
X026535Y011006D01*
X027033Y011177D02*
X027064Y011210D01*
X027092Y011246D01*
X027118Y011283D01*
X027141Y011323D01*
X027160Y011364D01*
X027177Y011406D01*
X027190Y011450D01*
X027199Y011494D01*
X027206Y011539D01*
X027209Y011585D01*
X027208Y011630D01*
X027204Y011675D01*
X026185Y012025D02*
X026153Y011991D01*
X026124Y011955D01*
X026099Y011916D01*
X026076Y011876D01*
X026056Y011834D01*
X026040Y011791D01*
X026027Y011746D01*
X026017Y011701D01*
X026011Y011655D01*
X026009Y011609D01*
X026010Y011562D01*
X026015Y011516D01*
X026185Y012025D02*
X026220Y012058D01*
X026257Y012087D01*
X026297Y012113D01*
X026338Y012136D01*
X026381Y012156D01*
X026426Y012172D01*
X026472Y012185D01*
X026518Y012194D01*
X026566Y012199D01*
X026613Y012201D01*
X026661Y012199D01*
X026708Y012193D01*
X024204Y011675D02*
X024208Y011630D01*
X024209Y011585D01*
X024206Y011539D01*
X024199Y011494D01*
X024190Y011450D01*
X024177Y011406D01*
X024160Y011364D01*
X024141Y011323D01*
X024118Y011283D01*
X024092Y011246D01*
X024064Y011210D01*
X024033Y011177D01*
X024000Y011146D01*
X023964Y011118D01*
X023927Y011092D01*
X023887Y011069D01*
X023846Y011050D01*
X023804Y011033D01*
X023760Y011020D01*
X023716Y011011D01*
X023671Y011004D01*
X023625Y011001D01*
X023580Y011002D01*
X023535Y011006D01*
X023015Y011516D02*
X023010Y011562D01*
X023009Y011609D01*
X023011Y011655D01*
X023017Y011701D01*
X023027Y011746D01*
X023040Y011791D01*
X023056Y011834D01*
X023076Y011876D01*
X023099Y011916D01*
X023124Y011955D01*
X023153Y011991D01*
X023185Y012025D01*
X023220Y012058D01*
X023257Y012087D01*
X023297Y012113D01*
X023338Y012136D01*
X023381Y012156D01*
X023426Y012172D01*
X023472Y012185D01*
X023518Y012194D01*
X023566Y012199D01*
X023613Y012201D01*
X023661Y012199D01*
X023708Y012193D01*
X021204Y011675D02*
X021208Y011630D01*
X021209Y011585D01*
X021206Y011539D01*
X021199Y011494D01*
X021190Y011450D01*
X021177Y011406D01*
X021160Y011364D01*
X021141Y011323D01*
X021118Y011283D01*
X021092Y011246D01*
X021064Y011210D01*
X021033Y011177D01*
X021000Y011146D01*
X020964Y011118D01*
X020927Y011092D01*
X020887Y011069D01*
X020846Y011050D01*
X020804Y011033D01*
X020760Y011020D01*
X020716Y011011D01*
X020671Y011004D01*
X020625Y011001D01*
X020580Y011002D01*
X020535Y011006D01*
X020015Y011516D02*
X020010Y011562D01*
X020009Y011609D01*
X020011Y011655D01*
X020017Y011701D01*
X020027Y011746D01*
X020040Y011791D01*
X020056Y011834D01*
X020076Y011876D01*
X020099Y011916D01*
X020124Y011955D01*
X020153Y011991D01*
X020185Y012025D01*
X020220Y012058D01*
X020257Y012087D01*
X020297Y012113D01*
X020338Y012136D01*
X020381Y012156D01*
X020426Y012172D01*
X020472Y012185D01*
X020518Y012194D01*
X020566Y012199D01*
X020613Y012201D01*
X020661Y012199D01*
X020708Y012193D01*
X018204Y011675D02*
X018208Y011630D01*
X018209Y011585D01*
X018206Y011539D01*
X018199Y011494D01*
X018190Y011450D01*
X018177Y011406D01*
X018160Y011364D01*
X018141Y011323D01*
X018118Y011283D01*
X018092Y011246D01*
X018064Y011210D01*
X018033Y011177D01*
X018000Y011146D01*
X017964Y011118D01*
X017927Y011092D01*
X017887Y011069D01*
X017846Y011050D01*
X017804Y011033D01*
X017760Y011020D01*
X017716Y011011D01*
X017671Y011004D01*
X017625Y011001D01*
X017580Y011002D01*
X017535Y011006D01*
X017015Y011516D02*
X017010Y011562D01*
X017009Y011609D01*
X017011Y011655D01*
X017017Y011701D01*
X017027Y011746D01*
X017040Y011791D01*
X017056Y011834D01*
X017076Y011876D01*
X017099Y011916D01*
X017124Y011955D01*
X017153Y011991D01*
X017185Y012025D01*
X017220Y012058D01*
X017257Y012087D01*
X017297Y012113D01*
X017338Y012136D01*
X017381Y012156D01*
X017426Y012172D01*
X017472Y012185D01*
X017518Y012194D01*
X017566Y012199D01*
X017613Y012201D01*
X017661Y012199D01*
X017708Y012193D01*
X015204Y011675D02*
X015208Y011630D01*
X015209Y011585D01*
X015206Y011539D01*
X015199Y011494D01*
X015190Y011450D01*
X015177Y011406D01*
X015160Y011364D01*
X015141Y011323D01*
X015118Y011283D01*
X015092Y011246D01*
X015064Y011210D01*
X015033Y011177D01*
X015000Y011146D01*
X014964Y011118D01*
X014927Y011092D01*
X014887Y011069D01*
X014846Y011050D01*
X014804Y011033D01*
X014760Y011020D01*
X014716Y011011D01*
X014671Y011004D01*
X014625Y011001D01*
X014580Y011002D01*
X014535Y011006D01*
X014015Y011516D02*
X014010Y011562D01*
X014009Y011609D01*
X014011Y011655D01*
X014017Y011701D01*
X014027Y011746D01*
X014040Y011791D01*
X014056Y011834D01*
X014076Y011876D01*
X014099Y011916D01*
X014124Y011955D01*
X014153Y011991D01*
X014185Y012025D01*
X014220Y012058D01*
X014257Y012087D01*
X014297Y012113D01*
X014338Y012136D01*
X014381Y012156D01*
X014426Y012172D01*
X014472Y012185D01*
X014518Y012194D01*
X014566Y012199D01*
X014613Y012201D01*
X014661Y012199D01*
X014708Y012193D01*
X012204Y011675D02*
X012208Y011630D01*
X012209Y011585D01*
X012206Y011539D01*
X012199Y011494D01*
X012190Y011450D01*
X012177Y011406D01*
X012160Y011364D01*
X012141Y011323D01*
X012118Y011283D01*
X012092Y011246D01*
X012064Y011210D01*
X012033Y011177D01*
X012000Y011146D01*
X011964Y011118D01*
X011927Y011092D01*
X011887Y011069D01*
X011846Y011050D01*
X011804Y011033D01*
X011760Y011020D01*
X011716Y011011D01*
X011671Y011004D01*
X011625Y011001D01*
X011580Y011002D01*
X011535Y011006D01*
X011015Y011516D02*
X011010Y011562D01*
X011009Y011609D01*
X011011Y011655D01*
X011017Y011701D01*
X011027Y011746D01*
X011040Y011791D01*
X011056Y011834D01*
X011076Y011876D01*
X011099Y011916D01*
X011124Y011955D01*
X011153Y011991D01*
X011185Y012025D01*
X011220Y012058D01*
X011257Y012087D01*
X011297Y012113D01*
X011338Y012136D01*
X011381Y012156D01*
X011426Y012172D01*
X011472Y012185D01*
X011518Y012194D01*
X011566Y012199D01*
X011613Y012201D01*
X011661Y012199D01*
X011708Y012193D01*
X009204Y011675D02*
X009208Y011630D01*
X009209Y011585D01*
X009206Y011539D01*
X009199Y011494D01*
X009190Y011450D01*
X009177Y011406D01*
X009160Y011364D01*
X009141Y011323D01*
X009118Y011283D01*
X009092Y011246D01*
X009064Y011210D01*
X009033Y011177D01*
X009000Y011146D01*
X008964Y011118D01*
X008927Y011092D01*
X008887Y011069D01*
X008846Y011050D01*
X008804Y011033D01*
X008760Y011020D01*
X008716Y011011D01*
X008671Y011004D01*
X008625Y011001D01*
X008580Y011002D01*
X008535Y011006D01*
X008015Y011516D02*
X008010Y011562D01*
X008009Y011609D01*
X008011Y011655D01*
X008017Y011701D01*
X008027Y011746D01*
X008040Y011791D01*
X008056Y011834D01*
X008076Y011876D01*
X008099Y011916D01*
X008124Y011955D01*
X008153Y011991D01*
X008185Y012025D01*
X008220Y012058D01*
X008257Y012087D01*
X008297Y012113D01*
X008338Y012136D01*
X008381Y012156D01*
X008426Y012172D01*
X008472Y012185D01*
X008518Y012194D01*
X008566Y012199D01*
X008613Y012201D01*
X008661Y012199D01*
X008708Y012193D01*
X009033Y008177D02*
X009000Y008146D01*
X008964Y008118D01*
X008927Y008092D01*
X008887Y008069D01*
X008846Y008050D01*
X008804Y008033D01*
X008760Y008020D01*
X008716Y008011D01*
X008671Y008004D01*
X008625Y008001D01*
X008580Y008002D01*
X008535Y008006D01*
X009033Y008177D02*
X009064Y008210D01*
X009092Y008246D01*
X009118Y008283D01*
X009141Y008323D01*
X009160Y008364D01*
X009177Y008406D01*
X009190Y008450D01*
X009199Y008494D01*
X009206Y008539D01*
X009209Y008585D01*
X009208Y008630D01*
X009204Y008675D01*
X008185Y009025D02*
X008153Y008991D01*
X008124Y008955D01*
X008099Y008916D01*
X008076Y008876D01*
X008056Y008834D01*
X008040Y008791D01*
X008027Y008746D01*
X008017Y008701D01*
X008011Y008655D01*
X008009Y008609D01*
X008010Y008562D01*
X008015Y008516D01*
X008185Y009025D02*
X008220Y009058D01*
X008257Y009087D01*
X008297Y009113D01*
X008338Y009136D01*
X008381Y009156D01*
X008426Y009172D01*
X008472Y009185D01*
X008518Y009194D01*
X008566Y009199D01*
X008613Y009201D01*
X008661Y009199D01*
X008708Y009193D01*
X011535Y008006D02*
X011580Y008002D01*
X011625Y008001D01*
X011671Y008004D01*
X011716Y008011D01*
X011760Y008020D01*
X011804Y008033D01*
X011846Y008050D01*
X011887Y008069D01*
X011927Y008092D01*
X011964Y008118D01*
X012000Y008146D01*
X012033Y008177D01*
X012064Y008210D01*
X012092Y008246D01*
X012118Y008283D01*
X012141Y008323D01*
X012160Y008364D01*
X012177Y008406D01*
X012190Y008450D01*
X012199Y008494D01*
X012206Y008539D01*
X012209Y008585D01*
X012208Y008630D01*
X012204Y008675D01*
X011185Y009025D02*
X011153Y008991D01*
X011124Y008955D01*
X011099Y008916D01*
X011076Y008876D01*
X011056Y008834D01*
X011040Y008791D01*
X011027Y008746D01*
X011017Y008701D01*
X011011Y008655D01*
X011009Y008609D01*
X011010Y008562D01*
X011015Y008516D01*
X011185Y009025D02*
X011220Y009058D01*
X011257Y009087D01*
X011297Y009113D01*
X011338Y009136D01*
X011381Y009156D01*
X011426Y009172D01*
X011472Y009185D01*
X011518Y009194D01*
X011566Y009199D01*
X011613Y009201D01*
X011661Y009199D01*
X011708Y009193D01*
X014535Y008006D02*
X014580Y008002D01*
X014625Y008001D01*
X014671Y008004D01*
X014716Y008011D01*
X014760Y008020D01*
X014804Y008033D01*
X014846Y008050D01*
X014887Y008069D01*
X014927Y008092D01*
X014964Y008118D01*
X015000Y008146D01*
X015033Y008177D01*
X015064Y008210D01*
X015092Y008246D01*
X015118Y008283D01*
X015141Y008323D01*
X015160Y008364D01*
X015177Y008406D01*
X015190Y008450D01*
X015199Y008494D01*
X015206Y008539D01*
X015209Y008585D01*
X015208Y008630D01*
X015204Y008675D01*
X014185Y009025D02*
X014153Y008991D01*
X014124Y008955D01*
X014099Y008916D01*
X014076Y008876D01*
X014056Y008834D01*
X014040Y008791D01*
X014027Y008746D01*
X014017Y008701D01*
X014011Y008655D01*
X014009Y008609D01*
X014010Y008562D01*
X014015Y008516D01*
X014185Y009025D02*
X014220Y009058D01*
X014257Y009087D01*
X014297Y009113D01*
X014338Y009136D01*
X014381Y009156D01*
X014426Y009172D01*
X014472Y009185D01*
X014518Y009194D01*
X014566Y009199D01*
X014613Y009201D01*
X014661Y009199D01*
X014708Y009193D01*
X017535Y008006D02*
X017580Y008002D01*
X017625Y008001D01*
X017671Y008004D01*
X017716Y008011D01*
X017760Y008020D01*
X017804Y008033D01*
X017846Y008050D01*
X017887Y008069D01*
X017927Y008092D01*
X017964Y008118D01*
X018000Y008146D01*
X018033Y008177D01*
X018064Y008210D01*
X018092Y008246D01*
X018118Y008283D01*
X018141Y008323D01*
X018160Y008364D01*
X018177Y008406D01*
X018190Y008450D01*
X018199Y008494D01*
X018206Y008539D01*
X018209Y008585D01*
X018208Y008630D01*
X018204Y008675D01*
X017185Y009025D02*
X017153Y008991D01*
X017124Y008955D01*
X017099Y008916D01*
X017076Y008876D01*
X017056Y008834D01*
X017040Y008791D01*
X017027Y008746D01*
X017017Y008701D01*
X017011Y008655D01*
X017009Y008609D01*
X017010Y008562D01*
X017015Y008516D01*
X017185Y009025D02*
X017220Y009058D01*
X017257Y009087D01*
X017297Y009113D01*
X017338Y009136D01*
X017381Y009156D01*
X017426Y009172D01*
X017472Y009185D01*
X017518Y009194D01*
X017566Y009199D01*
X017613Y009201D01*
X017661Y009199D01*
X017708Y009193D01*
X020535Y008006D02*
X020580Y008002D01*
X020625Y008001D01*
X020671Y008004D01*
X020716Y008011D01*
X020760Y008020D01*
X020804Y008033D01*
X020846Y008050D01*
X020887Y008069D01*
X020927Y008092D01*
X020964Y008118D01*
X021000Y008146D01*
X021033Y008177D01*
X021064Y008210D01*
X021092Y008246D01*
X021118Y008283D01*
X021141Y008323D01*
X021160Y008364D01*
X021177Y008406D01*
X021190Y008450D01*
X021199Y008494D01*
X021206Y008539D01*
X021209Y008585D01*
X021208Y008630D01*
X021204Y008675D01*
X020185Y009025D02*
X020153Y008991D01*
X020124Y008955D01*
X020099Y008916D01*
X020076Y008876D01*
X020056Y008834D01*
X020040Y008791D01*
X020027Y008746D01*
X020017Y008701D01*
X020011Y008655D01*
X020009Y008609D01*
X020010Y008562D01*
X020015Y008516D01*
X020185Y009025D02*
X020220Y009058D01*
X020257Y009087D01*
X020297Y009113D01*
X020338Y009136D01*
X020381Y009156D01*
X020426Y009172D01*
X020472Y009185D01*
X020518Y009194D01*
X020566Y009199D01*
X020613Y009201D01*
X020661Y009199D01*
X020708Y009193D01*
X023535Y008006D02*
X023580Y008002D01*
X023625Y008001D01*
X023671Y008004D01*
X023716Y008011D01*
X023760Y008020D01*
X023804Y008033D01*
X023846Y008050D01*
X023887Y008069D01*
X023927Y008092D01*
X023964Y008118D01*
X024000Y008146D01*
X024033Y008177D01*
X024064Y008210D01*
X024092Y008246D01*
X024118Y008283D01*
X024141Y008323D01*
X024160Y008364D01*
X024177Y008406D01*
X024190Y008450D01*
X024199Y008494D01*
X024206Y008539D01*
X024209Y008585D01*
X024208Y008630D01*
X024204Y008675D01*
X023185Y009025D02*
X023153Y008991D01*
X023124Y008955D01*
X023099Y008916D01*
X023076Y008876D01*
X023056Y008834D01*
X023040Y008791D01*
X023027Y008746D01*
X023017Y008701D01*
X023011Y008655D01*
X023009Y008609D01*
X023010Y008562D01*
X023015Y008516D01*
X023185Y009025D02*
X023220Y009058D01*
X023257Y009087D01*
X023297Y009113D01*
X023338Y009136D01*
X023381Y009156D01*
X023426Y009172D01*
X023472Y009185D01*
X023518Y009194D01*
X023566Y009199D01*
X023613Y009201D01*
X023661Y009199D01*
X023708Y009193D01*
X026535Y008006D02*
X026580Y008002D01*
X026625Y008001D01*
X026671Y008004D01*
X026716Y008011D01*
X026760Y008020D01*
X026804Y008033D01*
X026846Y008050D01*
X026887Y008069D01*
X026927Y008092D01*
X026964Y008118D01*
X027000Y008146D01*
X027033Y008177D01*
X027064Y008210D01*
X027092Y008246D01*
X027118Y008283D01*
X027141Y008323D01*
X027160Y008364D01*
X027177Y008406D01*
X027190Y008450D01*
X027199Y008494D01*
X027206Y008539D01*
X027209Y008585D01*
X027208Y008630D01*
X027204Y008675D01*
X026185Y009025D02*
X026153Y008991D01*
X026124Y008955D01*
X026099Y008916D01*
X026076Y008876D01*
X026056Y008834D01*
X026040Y008791D01*
X026027Y008746D01*
X026017Y008701D01*
X026011Y008655D01*
X026009Y008609D01*
X026010Y008562D01*
X026015Y008516D01*
X026185Y009025D02*
X026220Y009058D01*
X026257Y009087D01*
X026297Y009113D01*
X026338Y009136D01*
X026381Y009156D01*
X026426Y009172D01*
X026472Y009185D01*
X026518Y009194D01*
X026566Y009199D01*
X026613Y009201D01*
X026661Y009199D01*
X026708Y009193D01*
X027033Y005177D02*
X027000Y005146D01*
X026964Y005118D01*
X026927Y005092D01*
X026887Y005069D01*
X026846Y005050D01*
X026804Y005033D01*
X026760Y005020D01*
X026716Y005011D01*
X026671Y005004D01*
X026625Y005001D01*
X026580Y005002D01*
X026535Y005006D01*
X027033Y005177D02*
X027064Y005210D01*
X027092Y005246D01*
X027118Y005283D01*
X027141Y005323D01*
X027160Y005364D01*
X027177Y005406D01*
X027190Y005450D01*
X027199Y005494D01*
X027206Y005539D01*
X027209Y005585D01*
X027208Y005630D01*
X027204Y005675D01*
X026185Y006025D02*
X026153Y005991D01*
X026124Y005955D01*
X026099Y005916D01*
X026076Y005876D01*
X026056Y005834D01*
X026040Y005791D01*
X026027Y005746D01*
X026017Y005701D01*
X026011Y005655D01*
X026009Y005609D01*
X026010Y005562D01*
X026015Y005516D01*
X026185Y006025D02*
X026220Y006058D01*
X026257Y006087D01*
X026297Y006113D01*
X026338Y006136D01*
X026381Y006156D01*
X026426Y006172D01*
X026472Y006185D01*
X026518Y006194D01*
X026566Y006199D01*
X026613Y006201D01*
X026661Y006199D01*
X026708Y006193D01*
X024204Y005675D02*
X024208Y005630D01*
X024209Y005585D01*
X024206Y005539D01*
X024199Y005494D01*
X024190Y005450D01*
X024177Y005406D01*
X024160Y005364D01*
X024141Y005323D01*
X024118Y005283D01*
X024092Y005246D01*
X024064Y005210D01*
X024033Y005177D01*
X024000Y005146D01*
X023964Y005118D01*
X023927Y005092D01*
X023887Y005069D01*
X023846Y005050D01*
X023804Y005033D01*
X023760Y005020D01*
X023716Y005011D01*
X023671Y005004D01*
X023625Y005001D01*
X023580Y005002D01*
X023535Y005006D01*
X023015Y005516D02*
X023010Y005562D01*
X023009Y005609D01*
X023011Y005655D01*
X023017Y005701D01*
X023027Y005746D01*
X023040Y005791D01*
X023056Y005834D01*
X023076Y005876D01*
X023099Y005916D01*
X023124Y005955D01*
X023153Y005991D01*
X023185Y006025D01*
X023220Y006058D01*
X023257Y006087D01*
X023297Y006113D01*
X023338Y006136D01*
X023381Y006156D01*
X023426Y006172D01*
X023472Y006185D01*
X023518Y006194D01*
X023566Y006199D01*
X023613Y006201D01*
X023661Y006199D01*
X023708Y006193D01*
X021204Y005675D02*
X021208Y005630D01*
X021209Y005585D01*
X021206Y005539D01*
X021199Y005494D01*
X021190Y005450D01*
X021177Y005406D01*
X021160Y005364D01*
X021141Y005323D01*
X021118Y005283D01*
X021092Y005246D01*
X021064Y005210D01*
X021033Y005177D01*
X021000Y005146D01*
X020964Y005118D01*
X020927Y005092D01*
X020887Y005069D01*
X020846Y005050D01*
X020804Y005033D01*
X020760Y005020D01*
X020716Y005011D01*
X020671Y005004D01*
X020625Y005001D01*
X020580Y005002D01*
X020535Y005006D01*
X020015Y005516D02*
X020010Y005562D01*
X020009Y005609D01*
X020011Y005655D01*
X020017Y005701D01*
X020027Y005746D01*
X020040Y005791D01*
X020056Y005834D01*
X020076Y005876D01*
X020099Y005916D01*
X020124Y005955D01*
X020153Y005991D01*
X020185Y006025D01*
X020220Y006058D01*
X020257Y006087D01*
X020297Y006113D01*
X020338Y006136D01*
X020381Y006156D01*
X020426Y006172D01*
X020472Y006185D01*
X020518Y006194D01*
X020566Y006199D01*
X020613Y006201D01*
X020661Y006199D01*
X020708Y006193D01*
X018204Y005675D02*
X018208Y005630D01*
X018209Y005585D01*
X018206Y005539D01*
X018199Y005494D01*
X018190Y005450D01*
X018177Y005406D01*
X018160Y005364D01*
X018141Y005323D01*
X018118Y005283D01*
X018092Y005246D01*
X018064Y005210D01*
X018033Y005177D01*
X018000Y005146D01*
X017964Y005118D01*
X017927Y005092D01*
X017887Y005069D01*
X017846Y005050D01*
X017804Y005033D01*
X017760Y005020D01*
X017716Y005011D01*
X017671Y005004D01*
X017625Y005001D01*
X017580Y005002D01*
X017535Y005006D01*
X017015Y005516D02*
X017010Y005562D01*
X017009Y005609D01*
X017011Y005655D01*
X017017Y005701D01*
X017027Y005746D01*
X017040Y005791D01*
X017056Y005834D01*
X017076Y005876D01*
X017099Y005916D01*
X017124Y005955D01*
X017153Y005991D01*
X017185Y006025D01*
X017220Y006058D01*
X017257Y006087D01*
X017297Y006113D01*
X017338Y006136D01*
X017381Y006156D01*
X017426Y006172D01*
X017472Y006185D01*
X017518Y006194D01*
X017566Y006199D01*
X017613Y006201D01*
X017661Y006199D01*
X017708Y006193D01*
X015204Y005675D02*
X015208Y005630D01*
X015209Y005585D01*
X015206Y005539D01*
X015199Y005494D01*
X015190Y005450D01*
X015177Y005406D01*
X015160Y005364D01*
X015141Y005323D01*
X015118Y005283D01*
X015092Y005246D01*
X015064Y005210D01*
X015033Y005177D01*
X015000Y005146D01*
X014964Y005118D01*
X014927Y005092D01*
X014887Y005069D01*
X014846Y005050D01*
X014804Y005033D01*
X014760Y005020D01*
X014716Y005011D01*
X014671Y005004D01*
X014625Y005001D01*
X014580Y005002D01*
X014535Y005006D01*
X014015Y005516D02*
X014010Y005562D01*
X014009Y005609D01*
X014011Y005655D01*
X014017Y005701D01*
X014027Y005746D01*
X014040Y005791D01*
X014056Y005834D01*
X014076Y005876D01*
X014099Y005916D01*
X014124Y005955D01*
X014153Y005991D01*
X014185Y006025D01*
X014220Y006058D01*
X014257Y006087D01*
X014297Y006113D01*
X014338Y006136D01*
X014381Y006156D01*
X014426Y006172D01*
X014472Y006185D01*
X014518Y006194D01*
X014566Y006199D01*
X014613Y006201D01*
X014661Y006199D01*
X014708Y006193D01*
X012204Y005675D02*
X012208Y005630D01*
X012209Y005585D01*
X012206Y005539D01*
X012199Y005494D01*
X012190Y005450D01*
X012177Y005406D01*
X012160Y005364D01*
X012141Y005323D01*
X012118Y005283D01*
X012092Y005246D01*
X012064Y005210D01*
X012033Y005177D01*
X012000Y005146D01*
X011964Y005118D01*
X011927Y005092D01*
X011887Y005069D01*
X011846Y005050D01*
X011804Y005033D01*
X011760Y005020D01*
X011716Y005011D01*
X011671Y005004D01*
X011625Y005001D01*
X011580Y005002D01*
X011535Y005006D01*
X011015Y005516D02*
X011010Y005562D01*
X011009Y005609D01*
X011011Y005655D01*
X011017Y005701D01*
X011027Y005746D01*
X011040Y005791D01*
X011056Y005834D01*
X011076Y005876D01*
X011099Y005916D01*
X011124Y005955D01*
X011153Y005991D01*
X011185Y006025D01*
X011220Y006058D01*
X011257Y006087D01*
X011297Y006113D01*
X011338Y006136D01*
X011381Y006156D01*
X011426Y006172D01*
X011472Y006185D01*
X011518Y006194D01*
X011566Y006199D01*
X011613Y006201D01*
X011661Y006199D01*
X011708Y006193D01*
X009204Y005675D02*
X009208Y005630D01*
X009209Y005585D01*
X009206Y005539D01*
X009199Y005494D01*
X009190Y005450D01*
X009177Y005406D01*
X009160Y005364D01*
X009141Y005323D01*
X009118Y005283D01*
X009092Y005246D01*
X009064Y005210D01*
X009033Y005177D01*
X009000Y005146D01*
X008964Y005118D01*
X008927Y005092D01*
X008887Y005069D01*
X008846Y005050D01*
X008804Y005033D01*
X008760Y005020D01*
X008716Y005011D01*
X008671Y005004D01*
X008625Y005001D01*
X008580Y005002D01*
X008535Y005006D01*
X008015Y005516D02*
X008010Y005562D01*
X008009Y005609D01*
X008011Y005655D01*
X008017Y005701D01*
X008027Y005746D01*
X008040Y005791D01*
X008056Y005834D01*
X008076Y005876D01*
X008099Y005916D01*
X008124Y005955D01*
X008153Y005991D01*
X008185Y006025D01*
X008220Y006058D01*
X008257Y006087D01*
X008297Y006113D01*
X008338Y006136D01*
X008381Y006156D01*
X008426Y006172D01*
X008472Y006185D01*
X008518Y006194D01*
X008566Y006199D01*
X008613Y006201D01*
X008661Y006199D01*
X008708Y006193D01*
X028259Y002601D02*
X028261Y002674D01*
X028267Y002747D01*
X028277Y002819D01*
X028291Y002891D01*
X028308Y002962D01*
X028330Y003032D01*
X028355Y003101D01*
X028384Y003168D01*
X028416Y003233D01*
X028452Y003297D01*
X028492Y003359D01*
X028534Y003418D01*
X028580Y003475D01*
X028629Y003529D01*
X028681Y003581D01*
X028735Y003630D01*
X028792Y003676D01*
X028851Y003718D01*
X028913Y003758D01*
X028977Y003794D01*
X029042Y003826D01*
X029109Y003855D01*
X029178Y003880D01*
X029248Y003902D01*
X029319Y003919D01*
X029391Y003933D01*
X029463Y003943D01*
X029536Y003949D01*
X029609Y003951D01*
X029682Y003949D01*
X029755Y003943D01*
X029827Y003933D01*
X029899Y003919D01*
X029970Y003902D01*
X030040Y003880D01*
X030109Y003855D01*
X030176Y003826D01*
X030241Y003794D01*
X030305Y003758D01*
X030367Y003718D01*
X030426Y003676D01*
X030483Y003630D01*
X030537Y003581D01*
X030589Y003529D01*
X030638Y003475D01*
X030684Y003418D01*
X030726Y003359D01*
X030766Y003297D01*
X030802Y003233D01*
X030834Y003168D01*
X030863Y003101D01*
X030888Y003032D01*
X030910Y002962D01*
X030927Y002891D01*
X030941Y002819D01*
X030951Y002747D01*
X030957Y002674D01*
X030959Y002601D01*
X030957Y002528D01*
X030951Y002455D01*
X030941Y002383D01*
X030927Y002311D01*
X030910Y002240D01*
X030888Y002170D01*
X030863Y002101D01*
X030834Y002034D01*
X030802Y001969D01*
X030766Y001905D01*
X030726Y001843D01*
X030684Y001784D01*
X030638Y001727D01*
X030589Y001673D01*
X030537Y001621D01*
X030483Y001572D01*
X030426Y001526D01*
X030367Y001484D01*
X030305Y001444D01*
X030241Y001408D01*
X030176Y001376D01*
X030109Y001347D01*
X030040Y001322D01*
X029970Y001300D01*
X029899Y001283D01*
X029827Y001269D01*
X029755Y001259D01*
X029682Y001253D01*
X029609Y001251D01*
X029536Y001253D01*
X029463Y001259D01*
X029391Y001269D01*
X029319Y001283D01*
X029248Y001300D01*
X029178Y001322D01*
X029109Y001347D01*
X029042Y001376D01*
X028977Y001408D01*
X028913Y001444D01*
X028851Y001484D01*
X028792Y001526D01*
X028735Y001572D01*
X028681Y001621D01*
X028629Y001673D01*
X028580Y001727D01*
X028534Y001784D01*
X028492Y001843D01*
X028452Y001905D01*
X028416Y001969D01*
X028384Y002034D01*
X028355Y002101D01*
X028330Y002170D01*
X028308Y002240D01*
X028291Y002311D01*
X028277Y002383D01*
X028267Y002455D01*
X028261Y002528D01*
X028259Y002601D01*
X001259Y029601D02*
X001261Y029674D01*
X001267Y029747D01*
X001277Y029819D01*
X001291Y029891D01*
X001308Y029962D01*
X001330Y030032D01*
X001355Y030101D01*
X001384Y030168D01*
X001416Y030233D01*
X001452Y030297D01*
X001492Y030359D01*
X001534Y030418D01*
X001580Y030475D01*
X001629Y030529D01*
X001681Y030581D01*
X001735Y030630D01*
X001792Y030676D01*
X001851Y030718D01*
X001913Y030758D01*
X001977Y030794D01*
X002042Y030826D01*
X002109Y030855D01*
X002178Y030880D01*
X002248Y030902D01*
X002319Y030919D01*
X002391Y030933D01*
X002463Y030943D01*
X002536Y030949D01*
X002609Y030951D01*
X002682Y030949D01*
X002755Y030943D01*
X002827Y030933D01*
X002899Y030919D01*
X002970Y030902D01*
X003040Y030880D01*
X003109Y030855D01*
X003176Y030826D01*
X003241Y030794D01*
X003305Y030758D01*
X003367Y030718D01*
X003426Y030676D01*
X003483Y030630D01*
X003537Y030581D01*
X003589Y030529D01*
X003638Y030475D01*
X003684Y030418D01*
X003726Y030359D01*
X003766Y030297D01*
X003802Y030233D01*
X003834Y030168D01*
X003863Y030101D01*
X003888Y030032D01*
X003910Y029962D01*
X003927Y029891D01*
X003941Y029819D01*
X003951Y029747D01*
X003957Y029674D01*
X003959Y029601D01*
X003957Y029528D01*
X003951Y029455D01*
X003941Y029383D01*
X003927Y029311D01*
X003910Y029240D01*
X003888Y029170D01*
X003863Y029101D01*
X003834Y029034D01*
X003802Y028969D01*
X003766Y028905D01*
X003726Y028843D01*
X003684Y028784D01*
X003638Y028727D01*
X003589Y028673D01*
X003537Y028621D01*
X003483Y028572D01*
X003426Y028526D01*
X003367Y028484D01*
X003305Y028444D01*
X003241Y028408D01*
X003176Y028376D01*
X003109Y028347D01*
X003040Y028322D01*
X002970Y028300D01*
X002899Y028283D01*
X002827Y028269D01*
X002755Y028259D01*
X002682Y028253D01*
X002609Y028251D01*
X002536Y028253D01*
X002463Y028259D01*
X002391Y028269D01*
X002319Y028283D01*
X002248Y028300D01*
X002178Y028322D01*
X002109Y028347D01*
X002042Y028376D01*
X001977Y028408D01*
X001913Y028444D01*
X001851Y028484D01*
X001792Y028526D01*
X001735Y028572D01*
X001681Y028621D01*
X001629Y028673D01*
X001580Y028727D01*
X001534Y028784D01*
X001492Y028843D01*
X001452Y028905D01*
X001416Y028969D01*
X001384Y029034D01*
X001355Y029101D01*
X001330Y029170D01*
X001308Y029240D01*
X001291Y029311D01*
X001277Y029383D01*
X001267Y029455D01*
X001261Y029528D01*
X001259Y029601D01*
D11*
X005043Y027167D02*
X005083Y027203D01*
X005124Y027238D01*
X005168Y027269D01*
X005214Y027297D01*
X005262Y027322D01*
X005311Y027344D01*
X005362Y027362D01*
X005414Y027377D01*
X005467Y027388D01*
X005520Y027396D01*
X005574Y027400D01*
X005628Y027401D01*
X005681Y027398D01*
X006406Y026667D02*
X006409Y026614D01*
X006408Y026561D01*
X006404Y026507D01*
X006395Y026455D01*
X006384Y026402D01*
X006369Y026351D01*
X006351Y026301D01*
X006329Y026252D01*
X006304Y026205D01*
X006276Y026159D01*
X006245Y026116D01*
X006211Y026074D01*
X006175Y026035D01*
X006134Y025997D01*
X006090Y025962D01*
X006044Y025930D01*
X005996Y025901D01*
X005946Y025875D01*
X005894Y025854D01*
X005841Y025835D01*
X005787Y025821D01*
X005732Y025811D01*
X005676Y025804D01*
X005620Y025801D01*
X005564Y025802D01*
X005508Y025807D01*
X005453Y025816D01*
X005399Y025829D01*
X004844Y026368D02*
X004830Y026420D01*
X004819Y026473D01*
X004812Y026527D01*
X004809Y026581D01*
X004810Y026635D01*
X004814Y026689D01*
X004822Y026742D01*
X004833Y026795D01*
X004848Y026847D01*
X004866Y026898D01*
X004888Y026947D01*
X004913Y026995D01*
X004941Y027041D01*
X004972Y027085D01*
X005006Y027127D01*
X005043Y027167D01*
X008399Y025829D02*
X008453Y025816D01*
X008508Y025807D01*
X008564Y025802D01*
X008620Y025801D01*
X008676Y025804D01*
X008732Y025811D01*
X008787Y025821D01*
X008841Y025835D01*
X008894Y025854D01*
X008946Y025875D01*
X008996Y025901D01*
X009044Y025930D01*
X009090Y025962D01*
X009134Y025997D01*
X009175Y026035D01*
X009211Y026074D01*
X009245Y026116D01*
X009276Y026159D01*
X009304Y026205D01*
X009329Y026252D01*
X009351Y026301D01*
X009369Y026351D01*
X009384Y026402D01*
X009395Y026455D01*
X009404Y026507D01*
X009408Y026561D01*
X009409Y026614D01*
X009406Y026667D01*
X008043Y027167D02*
X008006Y027127D01*
X007972Y027085D01*
X007941Y027041D01*
X007913Y026995D01*
X007888Y026947D01*
X007866Y026898D01*
X007848Y026847D01*
X007833Y026795D01*
X007822Y026742D01*
X007814Y026689D01*
X007810Y026635D01*
X007809Y026581D01*
X007812Y026527D01*
X007819Y026473D01*
X007830Y026420D01*
X007844Y026368D01*
X008043Y027167D02*
X008083Y027203D01*
X008124Y027238D01*
X008168Y027269D01*
X008214Y027297D01*
X008262Y027322D01*
X008311Y027344D01*
X008362Y027362D01*
X008414Y027377D01*
X008467Y027388D01*
X008520Y027396D01*
X008574Y027400D01*
X008628Y027401D01*
X008681Y027398D01*
X011399Y025829D02*
X011453Y025816D01*
X011508Y025807D01*
X011564Y025802D01*
X011620Y025801D01*
X011676Y025804D01*
X011732Y025811D01*
X011787Y025821D01*
X011841Y025835D01*
X011894Y025854D01*
X011946Y025875D01*
X011996Y025901D01*
X012044Y025930D01*
X012090Y025962D01*
X012134Y025997D01*
X012175Y026035D01*
X012211Y026074D01*
X012245Y026116D01*
X012276Y026159D01*
X012304Y026205D01*
X012329Y026252D01*
X012351Y026301D01*
X012369Y026351D01*
X012384Y026402D01*
X012395Y026455D01*
X012404Y026507D01*
X012408Y026561D01*
X012409Y026614D01*
X012406Y026667D01*
X011043Y027167D02*
X011006Y027127D01*
X010972Y027085D01*
X010941Y027041D01*
X010913Y026995D01*
X010888Y026947D01*
X010866Y026898D01*
X010848Y026847D01*
X010833Y026795D01*
X010822Y026742D01*
X010814Y026689D01*
X010810Y026635D01*
X010809Y026581D01*
X010812Y026527D01*
X010819Y026473D01*
X010830Y026420D01*
X010844Y026368D01*
X011043Y027167D02*
X011083Y027203D01*
X011124Y027238D01*
X011168Y027269D01*
X011214Y027297D01*
X011262Y027322D01*
X011311Y027344D01*
X011362Y027362D01*
X011414Y027377D01*
X011467Y027388D01*
X011520Y027396D01*
X011574Y027400D01*
X011628Y027401D01*
X011681Y027398D01*
X014399Y025829D02*
X014453Y025816D01*
X014508Y025807D01*
X014564Y025802D01*
X014620Y025801D01*
X014676Y025804D01*
X014732Y025811D01*
X014787Y025821D01*
X014841Y025835D01*
X014894Y025854D01*
X014946Y025875D01*
X014996Y025901D01*
X015044Y025930D01*
X015090Y025962D01*
X015134Y025997D01*
X015175Y026035D01*
X015211Y026074D01*
X015245Y026116D01*
X015276Y026159D01*
X015304Y026205D01*
X015329Y026252D01*
X015351Y026301D01*
X015369Y026351D01*
X015384Y026402D01*
X015395Y026455D01*
X015404Y026507D01*
X015408Y026561D01*
X015409Y026614D01*
X015406Y026667D01*
X014043Y027167D02*
X014006Y027127D01*
X013972Y027085D01*
X013941Y027041D01*
X013913Y026995D01*
X013888Y026947D01*
X013866Y026898D01*
X013848Y026847D01*
X013833Y026795D01*
X013822Y026742D01*
X013814Y026689D01*
X013810Y026635D01*
X013809Y026581D01*
X013812Y026527D01*
X013819Y026473D01*
X013830Y026420D01*
X013844Y026368D01*
X014043Y027167D02*
X014083Y027203D01*
X014124Y027238D01*
X014168Y027269D01*
X014214Y027297D01*
X014262Y027322D01*
X014311Y027344D01*
X014362Y027362D01*
X014414Y027377D01*
X014467Y027388D01*
X014520Y027396D01*
X014574Y027400D01*
X014628Y027401D01*
X014681Y027398D01*
X017399Y025829D02*
X017453Y025816D01*
X017508Y025807D01*
X017564Y025802D01*
X017620Y025801D01*
X017676Y025804D01*
X017732Y025811D01*
X017787Y025821D01*
X017841Y025835D01*
X017894Y025854D01*
X017946Y025875D01*
X017996Y025901D01*
X018044Y025930D01*
X018090Y025962D01*
X018134Y025997D01*
X018175Y026035D01*
X018211Y026074D01*
X018245Y026116D01*
X018276Y026159D01*
X018304Y026205D01*
X018329Y026252D01*
X018351Y026301D01*
X018369Y026351D01*
X018384Y026402D01*
X018395Y026455D01*
X018404Y026507D01*
X018408Y026561D01*
X018409Y026614D01*
X018406Y026667D01*
X017043Y027167D02*
X017006Y027127D01*
X016972Y027085D01*
X016941Y027041D01*
X016913Y026995D01*
X016888Y026947D01*
X016866Y026898D01*
X016848Y026847D01*
X016833Y026795D01*
X016822Y026742D01*
X016814Y026689D01*
X016810Y026635D01*
X016809Y026581D01*
X016812Y026527D01*
X016819Y026473D01*
X016830Y026420D01*
X016844Y026368D01*
X017043Y027167D02*
X017083Y027203D01*
X017124Y027238D01*
X017168Y027269D01*
X017214Y027297D01*
X017262Y027322D01*
X017311Y027344D01*
X017362Y027362D01*
X017414Y027377D01*
X017467Y027388D01*
X017520Y027396D01*
X017574Y027400D01*
X017628Y027401D01*
X017681Y027398D01*
X020399Y025829D02*
X020453Y025816D01*
X020508Y025807D01*
X020564Y025802D01*
X020620Y025801D01*
X020676Y025804D01*
X020732Y025811D01*
X020787Y025821D01*
X020841Y025835D01*
X020894Y025854D01*
X020946Y025875D01*
X020996Y025901D01*
X021044Y025930D01*
X021090Y025962D01*
X021134Y025997D01*
X021175Y026035D01*
X021211Y026074D01*
X021245Y026116D01*
X021276Y026159D01*
X021304Y026205D01*
X021329Y026252D01*
X021351Y026301D01*
X021369Y026351D01*
X021384Y026402D01*
X021395Y026455D01*
X021404Y026507D01*
X021408Y026561D01*
X021409Y026614D01*
X021406Y026667D01*
X020043Y027167D02*
X020006Y027127D01*
X019972Y027085D01*
X019941Y027041D01*
X019913Y026995D01*
X019888Y026947D01*
X019866Y026898D01*
X019848Y026847D01*
X019833Y026795D01*
X019822Y026742D01*
X019814Y026689D01*
X019810Y026635D01*
X019809Y026581D01*
X019812Y026527D01*
X019819Y026473D01*
X019830Y026420D01*
X019844Y026368D01*
X020043Y027167D02*
X020083Y027203D01*
X020124Y027238D01*
X020168Y027269D01*
X020214Y027297D01*
X020262Y027322D01*
X020311Y027344D01*
X020362Y027362D01*
X020414Y027377D01*
X020467Y027388D01*
X020520Y027396D01*
X020574Y027400D01*
X020628Y027401D01*
X020681Y027398D01*
X023399Y025829D02*
X023453Y025816D01*
X023508Y025807D01*
X023564Y025802D01*
X023620Y025801D01*
X023676Y025804D01*
X023732Y025811D01*
X023787Y025821D01*
X023841Y025835D01*
X023894Y025854D01*
X023946Y025875D01*
X023996Y025901D01*
X024044Y025930D01*
X024090Y025962D01*
X024134Y025997D01*
X024175Y026035D01*
X024211Y026074D01*
X024245Y026116D01*
X024276Y026159D01*
X024304Y026205D01*
X024329Y026252D01*
X024351Y026301D01*
X024369Y026351D01*
X024384Y026402D01*
X024395Y026455D01*
X024404Y026507D01*
X024408Y026561D01*
X024409Y026614D01*
X024406Y026667D01*
X023043Y027167D02*
X023006Y027127D01*
X022972Y027085D01*
X022941Y027041D01*
X022913Y026995D01*
X022888Y026947D01*
X022866Y026898D01*
X022848Y026847D01*
X022833Y026795D01*
X022822Y026742D01*
X022814Y026689D01*
X022810Y026635D01*
X022809Y026581D01*
X022812Y026527D01*
X022819Y026473D01*
X022830Y026420D01*
X022844Y026368D01*
X023043Y027167D02*
X023083Y027203D01*
X023124Y027238D01*
X023168Y027269D01*
X023214Y027297D01*
X023262Y027322D01*
X023311Y027344D01*
X023362Y027362D01*
X023414Y027377D01*
X023467Y027388D01*
X023520Y027396D01*
X023574Y027400D01*
X023628Y027401D01*
X023681Y027398D01*
X026399Y025829D02*
X026453Y025816D01*
X026508Y025807D01*
X026564Y025802D01*
X026620Y025801D01*
X026676Y025804D01*
X026732Y025811D01*
X026787Y025821D01*
X026841Y025835D01*
X026894Y025854D01*
X026946Y025875D01*
X026996Y025901D01*
X027044Y025930D01*
X027090Y025962D01*
X027134Y025997D01*
X027175Y026035D01*
X027211Y026074D01*
X027245Y026116D01*
X027276Y026159D01*
X027304Y026205D01*
X027329Y026252D01*
X027351Y026301D01*
X027369Y026351D01*
X027384Y026402D01*
X027395Y026455D01*
X027404Y026507D01*
X027408Y026561D01*
X027409Y026614D01*
X027406Y026667D01*
X026043Y027167D02*
X026006Y027127D01*
X025972Y027085D01*
X025941Y027041D01*
X025913Y026995D01*
X025888Y026947D01*
X025866Y026898D01*
X025848Y026847D01*
X025833Y026795D01*
X025822Y026742D01*
X025814Y026689D01*
X025810Y026635D01*
X025809Y026581D01*
X025812Y026527D01*
X025819Y026473D01*
X025830Y026420D01*
X025844Y026368D01*
X026043Y027167D02*
X026083Y027203D01*
X026124Y027238D01*
X026168Y027269D01*
X026214Y027297D01*
X026262Y027322D01*
X026311Y027344D01*
X026362Y027362D01*
X026414Y027377D01*
X026467Y027388D01*
X026520Y027396D01*
X026574Y027400D01*
X026628Y027401D01*
X026681Y027398D01*
X027406Y023667D02*
X027409Y023614D01*
X027408Y023561D01*
X027404Y023507D01*
X027395Y023455D01*
X027384Y023402D01*
X027369Y023351D01*
X027351Y023301D01*
X027329Y023252D01*
X027304Y023205D01*
X027276Y023159D01*
X027245Y023116D01*
X027211Y023074D01*
X027175Y023035D01*
X027134Y022997D01*
X027090Y022962D01*
X027044Y022930D01*
X026996Y022901D01*
X026946Y022875D01*
X026894Y022854D01*
X026841Y022835D01*
X026787Y022821D01*
X026732Y022811D01*
X026676Y022804D01*
X026620Y022801D01*
X026564Y022802D01*
X026508Y022807D01*
X026453Y022816D01*
X026399Y022829D01*
X025844Y023368D02*
X025830Y023420D01*
X025819Y023473D01*
X025812Y023527D01*
X025809Y023581D01*
X025810Y023635D01*
X025814Y023689D01*
X025822Y023742D01*
X025833Y023795D01*
X025848Y023847D01*
X025866Y023898D01*
X025888Y023947D01*
X025913Y023995D01*
X025941Y024041D01*
X025972Y024085D01*
X026006Y024127D01*
X026043Y024167D01*
X026083Y024203D01*
X026124Y024238D01*
X026168Y024269D01*
X026214Y024297D01*
X026262Y024322D01*
X026311Y024344D01*
X026362Y024362D01*
X026414Y024377D01*
X026467Y024388D01*
X026520Y024396D01*
X026574Y024400D01*
X026628Y024401D01*
X026681Y024398D01*
X024406Y023667D02*
X024409Y023614D01*
X024408Y023561D01*
X024404Y023507D01*
X024395Y023455D01*
X024384Y023402D01*
X024369Y023351D01*
X024351Y023301D01*
X024329Y023252D01*
X024304Y023205D01*
X024276Y023159D01*
X024245Y023116D01*
X024211Y023074D01*
X024175Y023035D01*
X024134Y022997D01*
X024090Y022962D01*
X024044Y022930D01*
X023996Y022901D01*
X023946Y022875D01*
X023894Y022854D01*
X023841Y022835D01*
X023787Y022821D01*
X023732Y022811D01*
X023676Y022804D01*
X023620Y022801D01*
X023564Y022802D01*
X023508Y022807D01*
X023453Y022816D01*
X023399Y022829D01*
X022844Y023368D02*
X022830Y023420D01*
X022819Y023473D01*
X022812Y023527D01*
X022809Y023581D01*
X022810Y023635D01*
X022814Y023689D01*
X022822Y023742D01*
X022833Y023795D01*
X022848Y023847D01*
X022866Y023898D01*
X022888Y023947D01*
X022913Y023995D01*
X022941Y024041D01*
X022972Y024085D01*
X023006Y024127D01*
X023043Y024167D01*
X023083Y024203D01*
X023124Y024238D01*
X023168Y024269D01*
X023214Y024297D01*
X023262Y024322D01*
X023311Y024344D01*
X023362Y024362D01*
X023414Y024377D01*
X023467Y024388D01*
X023520Y024396D01*
X023574Y024400D01*
X023628Y024401D01*
X023681Y024398D01*
X021406Y023667D02*
X021409Y023614D01*
X021408Y023561D01*
X021404Y023507D01*
X021395Y023455D01*
X021384Y023402D01*
X021369Y023351D01*
X021351Y023301D01*
X021329Y023252D01*
X021304Y023205D01*
X021276Y023159D01*
X021245Y023116D01*
X021211Y023074D01*
X021175Y023035D01*
X021134Y022997D01*
X021090Y022962D01*
X021044Y022930D01*
X020996Y022901D01*
X020946Y022875D01*
X020894Y022854D01*
X020841Y022835D01*
X020787Y022821D01*
X020732Y022811D01*
X020676Y022804D01*
X020620Y022801D01*
X020564Y022802D01*
X020508Y022807D01*
X020453Y022816D01*
X020399Y022829D01*
X019844Y023368D02*
X019830Y023420D01*
X019819Y023473D01*
X019812Y023527D01*
X019809Y023581D01*
X019810Y023635D01*
X019814Y023689D01*
X019822Y023742D01*
X019833Y023795D01*
X019848Y023847D01*
X019866Y023898D01*
X019888Y023947D01*
X019913Y023995D01*
X019941Y024041D01*
X019972Y024085D01*
X020006Y024127D01*
X020043Y024167D01*
X020083Y024203D01*
X020124Y024238D01*
X020168Y024269D01*
X020214Y024297D01*
X020262Y024322D01*
X020311Y024344D01*
X020362Y024362D01*
X020414Y024377D01*
X020467Y024388D01*
X020520Y024396D01*
X020574Y024400D01*
X020628Y024401D01*
X020681Y024398D01*
X018406Y023667D02*
X018409Y023614D01*
X018408Y023561D01*
X018404Y023507D01*
X018395Y023455D01*
X018384Y023402D01*
X018369Y023351D01*
X018351Y023301D01*
X018329Y023252D01*
X018304Y023205D01*
X018276Y023159D01*
X018245Y023116D01*
X018211Y023074D01*
X018175Y023035D01*
X018134Y022997D01*
X018090Y022962D01*
X018044Y022930D01*
X017996Y022901D01*
X017946Y022875D01*
X017894Y022854D01*
X017841Y022835D01*
X017787Y022821D01*
X017732Y022811D01*
X017676Y022804D01*
X017620Y022801D01*
X017564Y022802D01*
X017508Y022807D01*
X017453Y022816D01*
X017399Y022829D01*
X016844Y023368D02*
X016830Y023420D01*
X016819Y023473D01*
X016812Y023527D01*
X016809Y023581D01*
X016810Y023635D01*
X016814Y023689D01*
X016822Y023742D01*
X016833Y023795D01*
X016848Y023847D01*
X016866Y023898D01*
X016888Y023947D01*
X016913Y023995D01*
X016941Y024041D01*
X016972Y024085D01*
X017006Y024127D01*
X017043Y024167D01*
X017083Y024203D01*
X017124Y024238D01*
X017168Y024269D01*
X017214Y024297D01*
X017262Y024322D01*
X017311Y024344D01*
X017362Y024362D01*
X017414Y024377D01*
X017467Y024388D01*
X017520Y024396D01*
X017574Y024400D01*
X017628Y024401D01*
X017681Y024398D01*
X015406Y023667D02*
X015409Y023614D01*
X015408Y023561D01*
X015404Y023507D01*
X015395Y023455D01*
X015384Y023402D01*
X015369Y023351D01*
X015351Y023301D01*
X015329Y023252D01*
X015304Y023205D01*
X015276Y023159D01*
X015245Y023116D01*
X015211Y023074D01*
X015175Y023035D01*
X015134Y022997D01*
X015090Y022962D01*
X015044Y022930D01*
X014996Y022901D01*
X014946Y022875D01*
X014894Y022854D01*
X014841Y022835D01*
X014787Y022821D01*
X014732Y022811D01*
X014676Y022804D01*
X014620Y022801D01*
X014564Y022802D01*
X014508Y022807D01*
X014453Y022816D01*
X014399Y022829D01*
X013844Y023368D02*
X013830Y023420D01*
X013819Y023473D01*
X013812Y023527D01*
X013809Y023581D01*
X013810Y023635D01*
X013814Y023689D01*
X013822Y023742D01*
X013833Y023795D01*
X013848Y023847D01*
X013866Y023898D01*
X013888Y023947D01*
X013913Y023995D01*
X013941Y024041D01*
X013972Y024085D01*
X014006Y024127D01*
X014043Y024167D01*
X014083Y024203D01*
X014124Y024238D01*
X014168Y024269D01*
X014214Y024297D01*
X014262Y024322D01*
X014311Y024344D01*
X014362Y024362D01*
X014414Y024377D01*
X014467Y024388D01*
X014520Y024396D01*
X014574Y024400D01*
X014628Y024401D01*
X014681Y024398D01*
X012406Y023667D02*
X012409Y023614D01*
X012408Y023561D01*
X012404Y023507D01*
X012395Y023455D01*
X012384Y023402D01*
X012369Y023351D01*
X012351Y023301D01*
X012329Y023252D01*
X012304Y023205D01*
X012276Y023159D01*
X012245Y023116D01*
X012211Y023074D01*
X012175Y023035D01*
X012134Y022997D01*
X012090Y022962D01*
X012044Y022930D01*
X011996Y022901D01*
X011946Y022875D01*
X011894Y022854D01*
X011841Y022835D01*
X011787Y022821D01*
X011732Y022811D01*
X011676Y022804D01*
X011620Y022801D01*
X011564Y022802D01*
X011508Y022807D01*
X011453Y022816D01*
X011399Y022829D01*
X010844Y023368D02*
X010830Y023420D01*
X010819Y023473D01*
X010812Y023527D01*
X010809Y023581D01*
X010810Y023635D01*
X010814Y023689D01*
X010822Y023742D01*
X010833Y023795D01*
X010848Y023847D01*
X010866Y023898D01*
X010888Y023947D01*
X010913Y023995D01*
X010941Y024041D01*
X010972Y024085D01*
X011006Y024127D01*
X011043Y024167D01*
X011083Y024203D01*
X011124Y024238D01*
X011168Y024269D01*
X011214Y024297D01*
X011262Y024322D01*
X011311Y024344D01*
X011362Y024362D01*
X011414Y024377D01*
X011467Y024388D01*
X011520Y024396D01*
X011574Y024400D01*
X011628Y024401D01*
X011681Y024398D01*
X009406Y023667D02*
X009409Y023614D01*
X009408Y023561D01*
X009404Y023507D01*
X009395Y023455D01*
X009384Y023402D01*
X009369Y023351D01*
X009351Y023301D01*
X009329Y023252D01*
X009304Y023205D01*
X009276Y023159D01*
X009245Y023116D01*
X009211Y023074D01*
X009175Y023035D01*
X009134Y022997D01*
X009090Y022962D01*
X009044Y022930D01*
X008996Y022901D01*
X008946Y022875D01*
X008894Y022854D01*
X008841Y022835D01*
X008787Y022821D01*
X008732Y022811D01*
X008676Y022804D01*
X008620Y022801D01*
X008564Y022802D01*
X008508Y022807D01*
X008453Y022816D01*
X008399Y022829D01*
X007844Y023368D02*
X007830Y023420D01*
X007819Y023473D01*
X007812Y023527D01*
X007809Y023581D01*
X007810Y023635D01*
X007814Y023689D01*
X007822Y023742D01*
X007833Y023795D01*
X007848Y023847D01*
X007866Y023898D01*
X007888Y023947D01*
X007913Y023995D01*
X007941Y024041D01*
X007972Y024085D01*
X008006Y024127D01*
X008043Y024167D01*
X008083Y024203D01*
X008124Y024238D01*
X008168Y024269D01*
X008214Y024297D01*
X008262Y024322D01*
X008311Y024344D01*
X008362Y024362D01*
X008414Y024377D01*
X008467Y024388D01*
X008520Y024396D01*
X008574Y024400D01*
X008628Y024401D01*
X008681Y024398D01*
X006406Y023667D02*
X006409Y023614D01*
X006408Y023561D01*
X006404Y023507D01*
X006395Y023455D01*
X006384Y023402D01*
X006369Y023351D01*
X006351Y023301D01*
X006329Y023252D01*
X006304Y023205D01*
X006276Y023159D01*
X006245Y023116D01*
X006211Y023074D01*
X006175Y023035D01*
X006134Y022997D01*
X006090Y022962D01*
X006044Y022930D01*
X005996Y022901D01*
X005946Y022875D01*
X005894Y022854D01*
X005841Y022835D01*
X005787Y022821D01*
X005732Y022811D01*
X005676Y022804D01*
X005620Y022801D01*
X005564Y022802D01*
X005508Y022807D01*
X005453Y022816D01*
X005399Y022829D01*
X004844Y023368D02*
X004830Y023420D01*
X004819Y023473D01*
X004812Y023527D01*
X004809Y023581D01*
X004810Y023635D01*
X004814Y023689D01*
X004822Y023742D01*
X004833Y023795D01*
X004848Y023847D01*
X004866Y023898D01*
X004888Y023947D01*
X004913Y023995D01*
X004941Y024041D01*
X004972Y024085D01*
X005006Y024127D01*
X005043Y024167D01*
X005083Y024203D01*
X005124Y024238D01*
X005168Y024269D01*
X005214Y024297D01*
X005262Y024322D01*
X005311Y024344D01*
X005362Y024362D01*
X005414Y024377D01*
X005467Y024388D01*
X005520Y024396D01*
X005574Y024400D01*
X005628Y024401D01*
X005681Y024398D01*
X006406Y020667D02*
X006409Y020614D01*
X006408Y020561D01*
X006404Y020507D01*
X006395Y020455D01*
X006384Y020402D01*
X006369Y020351D01*
X006351Y020301D01*
X006329Y020252D01*
X006304Y020205D01*
X006276Y020159D01*
X006245Y020116D01*
X006211Y020074D01*
X006175Y020035D01*
X006134Y019997D01*
X006090Y019962D01*
X006044Y019930D01*
X005996Y019901D01*
X005946Y019875D01*
X005894Y019854D01*
X005841Y019835D01*
X005787Y019821D01*
X005732Y019811D01*
X005676Y019804D01*
X005620Y019801D01*
X005564Y019802D01*
X005508Y019807D01*
X005453Y019816D01*
X005399Y019829D01*
X004844Y020368D02*
X004830Y020420D01*
X004819Y020473D01*
X004812Y020527D01*
X004809Y020581D01*
X004810Y020635D01*
X004814Y020689D01*
X004822Y020742D01*
X004833Y020795D01*
X004848Y020847D01*
X004866Y020898D01*
X004888Y020947D01*
X004913Y020995D01*
X004941Y021041D01*
X004972Y021085D01*
X005006Y021127D01*
X005043Y021167D01*
X005083Y021203D01*
X005124Y021238D01*
X005168Y021269D01*
X005214Y021297D01*
X005262Y021322D01*
X005311Y021344D01*
X005362Y021362D01*
X005414Y021377D01*
X005467Y021388D01*
X005520Y021396D01*
X005574Y021400D01*
X005628Y021401D01*
X005681Y021398D01*
X008399Y019829D02*
X008453Y019816D01*
X008508Y019807D01*
X008564Y019802D01*
X008620Y019801D01*
X008676Y019804D01*
X008732Y019811D01*
X008787Y019821D01*
X008841Y019835D01*
X008894Y019854D01*
X008946Y019875D01*
X008996Y019901D01*
X009044Y019930D01*
X009090Y019962D01*
X009134Y019997D01*
X009175Y020035D01*
X009211Y020074D01*
X009245Y020116D01*
X009276Y020159D01*
X009304Y020205D01*
X009329Y020252D01*
X009351Y020301D01*
X009369Y020351D01*
X009384Y020402D01*
X009395Y020455D01*
X009404Y020507D01*
X009408Y020561D01*
X009409Y020614D01*
X009406Y020667D01*
X008043Y021167D02*
X008006Y021127D01*
X007972Y021085D01*
X007941Y021041D01*
X007913Y020995D01*
X007888Y020947D01*
X007866Y020898D01*
X007848Y020847D01*
X007833Y020795D01*
X007822Y020742D01*
X007814Y020689D01*
X007810Y020635D01*
X007809Y020581D01*
X007812Y020527D01*
X007819Y020473D01*
X007830Y020420D01*
X007844Y020368D01*
X008043Y021167D02*
X008083Y021203D01*
X008124Y021238D01*
X008168Y021269D01*
X008214Y021297D01*
X008262Y021322D01*
X008311Y021344D01*
X008362Y021362D01*
X008414Y021377D01*
X008467Y021388D01*
X008520Y021396D01*
X008574Y021400D01*
X008628Y021401D01*
X008681Y021398D01*
X011399Y019829D02*
X011453Y019816D01*
X011508Y019807D01*
X011564Y019802D01*
X011620Y019801D01*
X011676Y019804D01*
X011732Y019811D01*
X011787Y019821D01*
X011841Y019835D01*
X011894Y019854D01*
X011946Y019875D01*
X011996Y019901D01*
X012044Y019930D01*
X012090Y019962D01*
X012134Y019997D01*
X012175Y020035D01*
X012211Y020074D01*
X012245Y020116D01*
X012276Y020159D01*
X012304Y020205D01*
X012329Y020252D01*
X012351Y020301D01*
X012369Y020351D01*
X012384Y020402D01*
X012395Y020455D01*
X012404Y020507D01*
X012408Y020561D01*
X012409Y020614D01*
X012406Y020667D01*
X011043Y021167D02*
X011006Y021127D01*
X010972Y021085D01*
X010941Y021041D01*
X010913Y020995D01*
X010888Y020947D01*
X010866Y020898D01*
X010848Y020847D01*
X010833Y020795D01*
X010822Y020742D01*
X010814Y020689D01*
X010810Y020635D01*
X010809Y020581D01*
X010812Y020527D01*
X010819Y020473D01*
X010830Y020420D01*
X010844Y020368D01*
X011043Y021167D02*
X011083Y021203D01*
X011124Y021238D01*
X011168Y021269D01*
X011214Y021297D01*
X011262Y021322D01*
X011311Y021344D01*
X011362Y021362D01*
X011414Y021377D01*
X011467Y021388D01*
X011520Y021396D01*
X011574Y021400D01*
X011628Y021401D01*
X011681Y021398D01*
X014399Y019829D02*
X014453Y019816D01*
X014508Y019807D01*
X014564Y019802D01*
X014620Y019801D01*
X014676Y019804D01*
X014732Y019811D01*
X014787Y019821D01*
X014841Y019835D01*
X014894Y019854D01*
X014946Y019875D01*
X014996Y019901D01*
X015044Y019930D01*
X015090Y019962D01*
X015134Y019997D01*
X015175Y020035D01*
X015211Y020074D01*
X015245Y020116D01*
X015276Y020159D01*
X015304Y020205D01*
X015329Y020252D01*
X015351Y020301D01*
X015369Y020351D01*
X015384Y020402D01*
X015395Y020455D01*
X015404Y020507D01*
X015408Y020561D01*
X015409Y020614D01*
X015406Y020667D01*
X014043Y021167D02*
X014006Y021127D01*
X013972Y021085D01*
X013941Y021041D01*
X013913Y020995D01*
X013888Y020947D01*
X013866Y020898D01*
X013848Y020847D01*
X013833Y020795D01*
X013822Y020742D01*
X013814Y020689D01*
X013810Y020635D01*
X013809Y020581D01*
X013812Y020527D01*
X013819Y020473D01*
X013830Y020420D01*
X013844Y020368D01*
X014043Y021167D02*
X014083Y021203D01*
X014124Y021238D01*
X014168Y021269D01*
X014214Y021297D01*
X014262Y021322D01*
X014311Y021344D01*
X014362Y021362D01*
X014414Y021377D01*
X014467Y021388D01*
X014520Y021396D01*
X014574Y021400D01*
X014628Y021401D01*
X014681Y021398D01*
X017399Y019829D02*
X017453Y019816D01*
X017508Y019807D01*
X017564Y019802D01*
X017620Y019801D01*
X017676Y019804D01*
X017732Y019811D01*
X017787Y019821D01*
X017841Y019835D01*
X017894Y019854D01*
X017946Y019875D01*
X017996Y019901D01*
X018044Y019930D01*
X018090Y019962D01*
X018134Y019997D01*
X018175Y020035D01*
X018211Y020074D01*
X018245Y020116D01*
X018276Y020159D01*
X018304Y020205D01*
X018329Y020252D01*
X018351Y020301D01*
X018369Y020351D01*
X018384Y020402D01*
X018395Y020455D01*
X018404Y020507D01*
X018408Y020561D01*
X018409Y020614D01*
X018406Y020667D01*
X017043Y021167D02*
X017006Y021127D01*
X016972Y021085D01*
X016941Y021041D01*
X016913Y020995D01*
X016888Y020947D01*
X016866Y020898D01*
X016848Y020847D01*
X016833Y020795D01*
X016822Y020742D01*
X016814Y020689D01*
X016810Y020635D01*
X016809Y020581D01*
X016812Y020527D01*
X016819Y020473D01*
X016830Y020420D01*
X016844Y020368D01*
X017043Y021167D02*
X017083Y021203D01*
X017124Y021238D01*
X017168Y021269D01*
X017214Y021297D01*
X017262Y021322D01*
X017311Y021344D01*
X017362Y021362D01*
X017414Y021377D01*
X017467Y021388D01*
X017520Y021396D01*
X017574Y021400D01*
X017628Y021401D01*
X017681Y021398D01*
X020399Y019829D02*
X020453Y019816D01*
X020508Y019807D01*
X020564Y019802D01*
X020620Y019801D01*
X020676Y019804D01*
X020732Y019811D01*
X020787Y019821D01*
X020841Y019835D01*
X020894Y019854D01*
X020946Y019875D01*
X020996Y019901D01*
X021044Y019930D01*
X021090Y019962D01*
X021134Y019997D01*
X021175Y020035D01*
X021211Y020074D01*
X021245Y020116D01*
X021276Y020159D01*
X021304Y020205D01*
X021329Y020252D01*
X021351Y020301D01*
X021369Y020351D01*
X021384Y020402D01*
X021395Y020455D01*
X021404Y020507D01*
X021408Y020561D01*
X021409Y020614D01*
X021406Y020667D01*
X020043Y021167D02*
X020006Y021127D01*
X019972Y021085D01*
X019941Y021041D01*
X019913Y020995D01*
X019888Y020947D01*
X019866Y020898D01*
X019848Y020847D01*
X019833Y020795D01*
X019822Y020742D01*
X019814Y020689D01*
X019810Y020635D01*
X019809Y020581D01*
X019812Y020527D01*
X019819Y020473D01*
X019830Y020420D01*
X019844Y020368D01*
X020043Y021167D02*
X020083Y021203D01*
X020124Y021238D01*
X020168Y021269D01*
X020214Y021297D01*
X020262Y021322D01*
X020311Y021344D01*
X020362Y021362D01*
X020414Y021377D01*
X020467Y021388D01*
X020520Y021396D01*
X020574Y021400D01*
X020628Y021401D01*
X020681Y021398D01*
X023399Y019829D02*
X023453Y019816D01*
X023508Y019807D01*
X023564Y019802D01*
X023620Y019801D01*
X023676Y019804D01*
X023732Y019811D01*
X023787Y019821D01*
X023841Y019835D01*
X023894Y019854D01*
X023946Y019875D01*
X023996Y019901D01*
X024044Y019930D01*
X024090Y019962D01*
X024134Y019997D01*
X024175Y020035D01*
X024211Y020074D01*
X024245Y020116D01*
X024276Y020159D01*
X024304Y020205D01*
X024329Y020252D01*
X024351Y020301D01*
X024369Y020351D01*
X024384Y020402D01*
X024395Y020455D01*
X024404Y020507D01*
X024408Y020561D01*
X024409Y020614D01*
X024406Y020667D01*
X023043Y021167D02*
X023006Y021127D01*
X022972Y021085D01*
X022941Y021041D01*
X022913Y020995D01*
X022888Y020947D01*
X022866Y020898D01*
X022848Y020847D01*
X022833Y020795D01*
X022822Y020742D01*
X022814Y020689D01*
X022810Y020635D01*
X022809Y020581D01*
X022812Y020527D01*
X022819Y020473D01*
X022830Y020420D01*
X022844Y020368D01*
X023043Y021167D02*
X023083Y021203D01*
X023124Y021238D01*
X023168Y021269D01*
X023214Y021297D01*
X023262Y021322D01*
X023311Y021344D01*
X023362Y021362D01*
X023414Y021377D01*
X023467Y021388D01*
X023520Y021396D01*
X023574Y021400D01*
X023628Y021401D01*
X023681Y021398D01*
X026399Y019829D02*
X026453Y019816D01*
X026508Y019807D01*
X026564Y019802D01*
X026620Y019801D01*
X026676Y019804D01*
X026732Y019811D01*
X026787Y019821D01*
X026841Y019835D01*
X026894Y019854D01*
X026946Y019875D01*
X026996Y019901D01*
X027044Y019930D01*
X027090Y019962D01*
X027134Y019997D01*
X027175Y020035D01*
X027211Y020074D01*
X027245Y020116D01*
X027276Y020159D01*
X027304Y020205D01*
X027329Y020252D01*
X027351Y020301D01*
X027369Y020351D01*
X027384Y020402D01*
X027395Y020455D01*
X027404Y020507D01*
X027408Y020561D01*
X027409Y020614D01*
X027406Y020667D01*
X026043Y021167D02*
X026006Y021127D01*
X025972Y021085D01*
X025941Y021041D01*
X025913Y020995D01*
X025888Y020947D01*
X025866Y020898D01*
X025848Y020847D01*
X025833Y020795D01*
X025822Y020742D01*
X025814Y020689D01*
X025810Y020635D01*
X025809Y020581D01*
X025812Y020527D01*
X025819Y020473D01*
X025830Y020420D01*
X025844Y020368D01*
X026043Y021167D02*
X026083Y021203D01*
X026124Y021238D01*
X026168Y021269D01*
X026214Y021297D01*
X026262Y021322D01*
X026311Y021344D01*
X026362Y021362D01*
X026414Y021377D01*
X026467Y021388D01*
X026520Y021396D01*
X026574Y021400D01*
X026628Y021401D01*
X026681Y021398D01*
X027406Y017667D02*
X027409Y017614D01*
X027408Y017561D01*
X027404Y017507D01*
X027395Y017455D01*
X027384Y017402D01*
X027369Y017351D01*
X027351Y017301D01*
X027329Y017252D01*
X027304Y017205D01*
X027276Y017159D01*
X027245Y017116D01*
X027211Y017074D01*
X027175Y017035D01*
X027134Y016997D01*
X027090Y016962D01*
X027044Y016930D01*
X026996Y016901D01*
X026946Y016875D01*
X026894Y016854D01*
X026841Y016835D01*
X026787Y016821D01*
X026732Y016811D01*
X026676Y016804D01*
X026620Y016801D01*
X026564Y016802D01*
X026508Y016807D01*
X026453Y016816D01*
X026399Y016829D01*
X025844Y017368D02*
X025830Y017420D01*
X025819Y017473D01*
X025812Y017527D01*
X025809Y017581D01*
X025810Y017635D01*
X025814Y017689D01*
X025822Y017742D01*
X025833Y017795D01*
X025848Y017847D01*
X025866Y017898D01*
X025888Y017947D01*
X025913Y017995D01*
X025941Y018041D01*
X025972Y018085D01*
X026006Y018127D01*
X026043Y018167D01*
X026083Y018203D01*
X026124Y018238D01*
X026168Y018269D01*
X026214Y018297D01*
X026262Y018322D01*
X026311Y018344D01*
X026362Y018362D01*
X026414Y018377D01*
X026467Y018388D01*
X026520Y018396D01*
X026574Y018400D01*
X026628Y018401D01*
X026681Y018398D01*
X024406Y017667D02*
X024409Y017614D01*
X024408Y017561D01*
X024404Y017507D01*
X024395Y017455D01*
X024384Y017402D01*
X024369Y017351D01*
X024351Y017301D01*
X024329Y017252D01*
X024304Y017205D01*
X024276Y017159D01*
X024245Y017116D01*
X024211Y017074D01*
X024175Y017035D01*
X024134Y016997D01*
X024090Y016962D01*
X024044Y016930D01*
X023996Y016901D01*
X023946Y016875D01*
X023894Y016854D01*
X023841Y016835D01*
X023787Y016821D01*
X023732Y016811D01*
X023676Y016804D01*
X023620Y016801D01*
X023564Y016802D01*
X023508Y016807D01*
X023453Y016816D01*
X023399Y016829D01*
X022844Y017368D02*
X022830Y017420D01*
X022819Y017473D01*
X022812Y017527D01*
X022809Y017581D01*
X022810Y017635D01*
X022814Y017689D01*
X022822Y017742D01*
X022833Y017795D01*
X022848Y017847D01*
X022866Y017898D01*
X022888Y017947D01*
X022913Y017995D01*
X022941Y018041D01*
X022972Y018085D01*
X023006Y018127D01*
X023043Y018167D01*
X023083Y018203D01*
X023124Y018238D01*
X023168Y018269D01*
X023214Y018297D01*
X023262Y018322D01*
X023311Y018344D01*
X023362Y018362D01*
X023414Y018377D01*
X023467Y018388D01*
X023520Y018396D01*
X023574Y018400D01*
X023628Y018401D01*
X023681Y018398D01*
X021406Y017667D02*
X021409Y017614D01*
X021408Y017561D01*
X021404Y017507D01*
X021395Y017455D01*
X021384Y017402D01*
X021369Y017351D01*
X021351Y017301D01*
X021329Y017252D01*
X021304Y017205D01*
X021276Y017159D01*
X021245Y017116D01*
X021211Y017074D01*
X021175Y017035D01*
X021134Y016997D01*
X021090Y016962D01*
X021044Y016930D01*
X020996Y016901D01*
X020946Y016875D01*
X020894Y016854D01*
X020841Y016835D01*
X020787Y016821D01*
X020732Y016811D01*
X020676Y016804D01*
X020620Y016801D01*
X020564Y016802D01*
X020508Y016807D01*
X020453Y016816D01*
X020399Y016829D01*
X019844Y017368D02*
X019830Y017420D01*
X019819Y017473D01*
X019812Y017527D01*
X019809Y017581D01*
X019810Y017635D01*
X019814Y017689D01*
X019822Y017742D01*
X019833Y017795D01*
X019848Y017847D01*
X019866Y017898D01*
X019888Y017947D01*
X019913Y017995D01*
X019941Y018041D01*
X019972Y018085D01*
X020006Y018127D01*
X020043Y018167D01*
X020083Y018203D01*
X020124Y018238D01*
X020168Y018269D01*
X020214Y018297D01*
X020262Y018322D01*
X020311Y018344D01*
X020362Y018362D01*
X020414Y018377D01*
X020467Y018388D01*
X020520Y018396D01*
X020574Y018400D01*
X020628Y018401D01*
X020681Y018398D01*
X018406Y017667D02*
X018409Y017614D01*
X018408Y017561D01*
X018404Y017507D01*
X018395Y017455D01*
X018384Y017402D01*
X018369Y017351D01*
X018351Y017301D01*
X018329Y017252D01*
X018304Y017205D01*
X018276Y017159D01*
X018245Y017116D01*
X018211Y017074D01*
X018175Y017035D01*
X018134Y016997D01*
X018090Y016962D01*
X018044Y016930D01*
X017996Y016901D01*
X017946Y016875D01*
X017894Y016854D01*
X017841Y016835D01*
X017787Y016821D01*
X017732Y016811D01*
X017676Y016804D01*
X017620Y016801D01*
X017564Y016802D01*
X017508Y016807D01*
X017453Y016816D01*
X017399Y016829D01*
X016844Y017368D02*
X016830Y017420D01*
X016819Y017473D01*
X016812Y017527D01*
X016809Y017581D01*
X016810Y017635D01*
X016814Y017689D01*
X016822Y017742D01*
X016833Y017795D01*
X016848Y017847D01*
X016866Y017898D01*
X016888Y017947D01*
X016913Y017995D01*
X016941Y018041D01*
X016972Y018085D01*
X017006Y018127D01*
X017043Y018167D01*
X017083Y018203D01*
X017124Y018238D01*
X017168Y018269D01*
X017214Y018297D01*
X017262Y018322D01*
X017311Y018344D01*
X017362Y018362D01*
X017414Y018377D01*
X017467Y018388D01*
X017520Y018396D01*
X017574Y018400D01*
X017628Y018401D01*
X017681Y018398D01*
X015406Y017667D02*
X015409Y017614D01*
X015408Y017561D01*
X015404Y017507D01*
X015395Y017455D01*
X015384Y017402D01*
X015369Y017351D01*
X015351Y017301D01*
X015329Y017252D01*
X015304Y017205D01*
X015276Y017159D01*
X015245Y017116D01*
X015211Y017074D01*
X015175Y017035D01*
X015134Y016997D01*
X015090Y016962D01*
X015044Y016930D01*
X014996Y016901D01*
X014946Y016875D01*
X014894Y016854D01*
X014841Y016835D01*
X014787Y016821D01*
X014732Y016811D01*
X014676Y016804D01*
X014620Y016801D01*
X014564Y016802D01*
X014508Y016807D01*
X014453Y016816D01*
X014399Y016829D01*
X013844Y017368D02*
X013830Y017420D01*
X013819Y017473D01*
X013812Y017527D01*
X013809Y017581D01*
X013810Y017635D01*
X013814Y017689D01*
X013822Y017742D01*
X013833Y017795D01*
X013848Y017847D01*
X013866Y017898D01*
X013888Y017947D01*
X013913Y017995D01*
X013941Y018041D01*
X013972Y018085D01*
X014006Y018127D01*
X014043Y018167D01*
X014083Y018203D01*
X014124Y018238D01*
X014168Y018269D01*
X014214Y018297D01*
X014262Y018322D01*
X014311Y018344D01*
X014362Y018362D01*
X014414Y018377D01*
X014467Y018388D01*
X014520Y018396D01*
X014574Y018400D01*
X014628Y018401D01*
X014681Y018398D01*
X012406Y017667D02*
X012409Y017614D01*
X012408Y017561D01*
X012404Y017507D01*
X012395Y017455D01*
X012384Y017402D01*
X012369Y017351D01*
X012351Y017301D01*
X012329Y017252D01*
X012304Y017205D01*
X012276Y017159D01*
X012245Y017116D01*
X012211Y017074D01*
X012175Y017035D01*
X012134Y016997D01*
X012090Y016962D01*
X012044Y016930D01*
X011996Y016901D01*
X011946Y016875D01*
X011894Y016854D01*
X011841Y016835D01*
X011787Y016821D01*
X011732Y016811D01*
X011676Y016804D01*
X011620Y016801D01*
X011564Y016802D01*
X011508Y016807D01*
X011453Y016816D01*
X011399Y016829D01*
X010844Y017368D02*
X010830Y017420D01*
X010819Y017473D01*
X010812Y017527D01*
X010809Y017581D01*
X010810Y017635D01*
X010814Y017689D01*
X010822Y017742D01*
X010833Y017795D01*
X010848Y017847D01*
X010866Y017898D01*
X010888Y017947D01*
X010913Y017995D01*
X010941Y018041D01*
X010972Y018085D01*
X011006Y018127D01*
X011043Y018167D01*
X011083Y018203D01*
X011124Y018238D01*
X011168Y018269D01*
X011214Y018297D01*
X011262Y018322D01*
X011311Y018344D01*
X011362Y018362D01*
X011414Y018377D01*
X011467Y018388D01*
X011520Y018396D01*
X011574Y018400D01*
X011628Y018401D01*
X011681Y018398D01*
X009406Y017667D02*
X009409Y017614D01*
X009408Y017561D01*
X009404Y017507D01*
X009395Y017455D01*
X009384Y017402D01*
X009369Y017351D01*
X009351Y017301D01*
X009329Y017252D01*
X009304Y017205D01*
X009276Y017159D01*
X009245Y017116D01*
X009211Y017074D01*
X009175Y017035D01*
X009134Y016997D01*
X009090Y016962D01*
X009044Y016930D01*
X008996Y016901D01*
X008946Y016875D01*
X008894Y016854D01*
X008841Y016835D01*
X008787Y016821D01*
X008732Y016811D01*
X008676Y016804D01*
X008620Y016801D01*
X008564Y016802D01*
X008508Y016807D01*
X008453Y016816D01*
X008399Y016829D01*
X007844Y017368D02*
X007830Y017420D01*
X007819Y017473D01*
X007812Y017527D01*
X007809Y017581D01*
X007810Y017635D01*
X007814Y017689D01*
X007822Y017742D01*
X007833Y017795D01*
X007848Y017847D01*
X007866Y017898D01*
X007888Y017947D01*
X007913Y017995D01*
X007941Y018041D01*
X007972Y018085D01*
X008006Y018127D01*
X008043Y018167D01*
X008083Y018203D01*
X008124Y018238D01*
X008168Y018269D01*
X008214Y018297D01*
X008262Y018322D01*
X008311Y018344D01*
X008362Y018362D01*
X008414Y018377D01*
X008467Y018388D01*
X008520Y018396D01*
X008574Y018400D01*
X008628Y018401D01*
X008681Y018398D01*
X006406Y017667D02*
X006409Y017614D01*
X006408Y017561D01*
X006404Y017507D01*
X006395Y017455D01*
X006384Y017402D01*
X006369Y017351D01*
X006351Y017301D01*
X006329Y017252D01*
X006304Y017205D01*
X006276Y017159D01*
X006245Y017116D01*
X006211Y017074D01*
X006175Y017035D01*
X006134Y016997D01*
X006090Y016962D01*
X006044Y016930D01*
X005996Y016901D01*
X005946Y016875D01*
X005894Y016854D01*
X005841Y016835D01*
X005787Y016821D01*
X005732Y016811D01*
X005676Y016804D01*
X005620Y016801D01*
X005564Y016802D01*
X005508Y016807D01*
X005453Y016816D01*
X005399Y016829D01*
X004844Y017368D02*
X004830Y017420D01*
X004819Y017473D01*
X004812Y017527D01*
X004809Y017581D01*
X004810Y017635D01*
X004814Y017689D01*
X004822Y017742D01*
X004833Y017795D01*
X004848Y017847D01*
X004866Y017898D01*
X004888Y017947D01*
X004913Y017995D01*
X004941Y018041D01*
X004972Y018085D01*
X005006Y018127D01*
X005043Y018167D01*
X005083Y018203D01*
X005124Y018238D01*
X005168Y018269D01*
X005214Y018297D01*
X005262Y018322D01*
X005311Y018344D01*
X005362Y018362D01*
X005414Y018377D01*
X005467Y018388D01*
X005520Y018396D01*
X005574Y018400D01*
X005628Y018401D01*
X005681Y018398D01*
X006406Y014667D02*
X006409Y014614D01*
X006408Y014561D01*
X006404Y014507D01*
X006395Y014455D01*
X006384Y014402D01*
X006369Y014351D01*
X006351Y014301D01*
X006329Y014252D01*
X006304Y014205D01*
X006276Y014159D01*
X006245Y014116D01*
X006211Y014074D01*
X006175Y014035D01*
X006134Y013997D01*
X006090Y013962D01*
X006044Y013930D01*
X005996Y013901D01*
X005946Y013875D01*
X005894Y013854D01*
X005841Y013835D01*
X005787Y013821D01*
X005732Y013811D01*
X005676Y013804D01*
X005620Y013801D01*
X005564Y013802D01*
X005508Y013807D01*
X005453Y013816D01*
X005399Y013829D01*
X004844Y014368D02*
X004830Y014420D01*
X004819Y014473D01*
X004812Y014527D01*
X004809Y014581D01*
X004810Y014635D01*
X004814Y014689D01*
X004822Y014742D01*
X004833Y014795D01*
X004848Y014847D01*
X004866Y014898D01*
X004888Y014947D01*
X004913Y014995D01*
X004941Y015041D01*
X004972Y015085D01*
X005006Y015127D01*
X005043Y015167D01*
X005083Y015203D01*
X005124Y015238D01*
X005168Y015269D01*
X005214Y015297D01*
X005262Y015322D01*
X005311Y015344D01*
X005362Y015362D01*
X005414Y015377D01*
X005467Y015388D01*
X005520Y015396D01*
X005574Y015400D01*
X005628Y015401D01*
X005681Y015398D01*
X008399Y013829D02*
X008453Y013816D01*
X008508Y013807D01*
X008564Y013802D01*
X008620Y013801D01*
X008676Y013804D01*
X008732Y013811D01*
X008787Y013821D01*
X008841Y013835D01*
X008894Y013854D01*
X008946Y013875D01*
X008996Y013901D01*
X009044Y013930D01*
X009090Y013962D01*
X009134Y013997D01*
X009175Y014035D01*
X009211Y014074D01*
X009245Y014116D01*
X009276Y014159D01*
X009304Y014205D01*
X009329Y014252D01*
X009351Y014301D01*
X009369Y014351D01*
X009384Y014402D01*
X009395Y014455D01*
X009404Y014507D01*
X009408Y014561D01*
X009409Y014614D01*
X009406Y014667D01*
X008043Y015167D02*
X008006Y015127D01*
X007972Y015085D01*
X007941Y015041D01*
X007913Y014995D01*
X007888Y014947D01*
X007866Y014898D01*
X007848Y014847D01*
X007833Y014795D01*
X007822Y014742D01*
X007814Y014689D01*
X007810Y014635D01*
X007809Y014581D01*
X007812Y014527D01*
X007819Y014473D01*
X007830Y014420D01*
X007844Y014368D01*
X008043Y015167D02*
X008083Y015203D01*
X008124Y015238D01*
X008168Y015269D01*
X008214Y015297D01*
X008262Y015322D01*
X008311Y015344D01*
X008362Y015362D01*
X008414Y015377D01*
X008467Y015388D01*
X008520Y015396D01*
X008574Y015400D01*
X008628Y015401D01*
X008681Y015398D01*
X011399Y013829D02*
X011453Y013816D01*
X011508Y013807D01*
X011564Y013802D01*
X011620Y013801D01*
X011676Y013804D01*
X011732Y013811D01*
X011787Y013821D01*
X011841Y013835D01*
X011894Y013854D01*
X011946Y013875D01*
X011996Y013901D01*
X012044Y013930D01*
X012090Y013962D01*
X012134Y013997D01*
X012175Y014035D01*
X012211Y014074D01*
X012245Y014116D01*
X012276Y014159D01*
X012304Y014205D01*
X012329Y014252D01*
X012351Y014301D01*
X012369Y014351D01*
X012384Y014402D01*
X012395Y014455D01*
X012404Y014507D01*
X012408Y014561D01*
X012409Y014614D01*
X012406Y014667D01*
X011043Y015167D02*
X011006Y015127D01*
X010972Y015085D01*
X010941Y015041D01*
X010913Y014995D01*
X010888Y014947D01*
X010866Y014898D01*
X010848Y014847D01*
X010833Y014795D01*
X010822Y014742D01*
X010814Y014689D01*
X010810Y014635D01*
X010809Y014581D01*
X010812Y014527D01*
X010819Y014473D01*
X010830Y014420D01*
X010844Y014368D01*
X011043Y015167D02*
X011083Y015203D01*
X011124Y015238D01*
X011168Y015269D01*
X011214Y015297D01*
X011262Y015322D01*
X011311Y015344D01*
X011362Y015362D01*
X011414Y015377D01*
X011467Y015388D01*
X011520Y015396D01*
X011574Y015400D01*
X011628Y015401D01*
X011681Y015398D01*
X014399Y013829D02*
X014453Y013816D01*
X014508Y013807D01*
X014564Y013802D01*
X014620Y013801D01*
X014676Y013804D01*
X014732Y013811D01*
X014787Y013821D01*
X014841Y013835D01*
X014894Y013854D01*
X014946Y013875D01*
X014996Y013901D01*
X015044Y013930D01*
X015090Y013962D01*
X015134Y013997D01*
X015175Y014035D01*
X015211Y014074D01*
X015245Y014116D01*
X015276Y014159D01*
X015304Y014205D01*
X015329Y014252D01*
X015351Y014301D01*
X015369Y014351D01*
X015384Y014402D01*
X015395Y014455D01*
X015404Y014507D01*
X015408Y014561D01*
X015409Y014614D01*
X015406Y014667D01*
X014043Y015167D02*
X014006Y015127D01*
X013972Y015085D01*
X013941Y015041D01*
X013913Y014995D01*
X013888Y014947D01*
X013866Y014898D01*
X013848Y014847D01*
X013833Y014795D01*
X013822Y014742D01*
X013814Y014689D01*
X013810Y014635D01*
X013809Y014581D01*
X013812Y014527D01*
X013819Y014473D01*
X013830Y014420D01*
X013844Y014368D01*
X014043Y015167D02*
X014083Y015203D01*
X014124Y015238D01*
X014168Y015269D01*
X014214Y015297D01*
X014262Y015322D01*
X014311Y015344D01*
X014362Y015362D01*
X014414Y015377D01*
X014467Y015388D01*
X014520Y015396D01*
X014574Y015400D01*
X014628Y015401D01*
X014681Y015398D01*
X017399Y013829D02*
X017453Y013816D01*
X017508Y013807D01*
X017564Y013802D01*
X017620Y013801D01*
X017676Y013804D01*
X017732Y013811D01*
X017787Y013821D01*
X017841Y013835D01*
X017894Y013854D01*
X017946Y013875D01*
X017996Y013901D01*
X018044Y013930D01*
X018090Y013962D01*
X018134Y013997D01*
X018175Y014035D01*
X018211Y014074D01*
X018245Y014116D01*
X018276Y014159D01*
X018304Y014205D01*
X018329Y014252D01*
X018351Y014301D01*
X018369Y014351D01*
X018384Y014402D01*
X018395Y014455D01*
X018404Y014507D01*
X018408Y014561D01*
X018409Y014614D01*
X018406Y014667D01*
X017043Y015167D02*
X017006Y015127D01*
X016972Y015085D01*
X016941Y015041D01*
X016913Y014995D01*
X016888Y014947D01*
X016866Y014898D01*
X016848Y014847D01*
X016833Y014795D01*
X016822Y014742D01*
X016814Y014689D01*
X016810Y014635D01*
X016809Y014581D01*
X016812Y014527D01*
X016819Y014473D01*
X016830Y014420D01*
X016844Y014368D01*
X017043Y015167D02*
X017083Y015203D01*
X017124Y015238D01*
X017168Y015269D01*
X017214Y015297D01*
X017262Y015322D01*
X017311Y015344D01*
X017362Y015362D01*
X017414Y015377D01*
X017467Y015388D01*
X017520Y015396D01*
X017574Y015400D01*
X017628Y015401D01*
X017681Y015398D01*
X020399Y013829D02*
X020453Y013816D01*
X020508Y013807D01*
X020564Y013802D01*
X020620Y013801D01*
X020676Y013804D01*
X020732Y013811D01*
X020787Y013821D01*
X020841Y013835D01*
X020894Y013854D01*
X020946Y013875D01*
X020996Y013901D01*
X021044Y013930D01*
X021090Y013962D01*
X021134Y013997D01*
X021175Y014035D01*
X021211Y014074D01*
X021245Y014116D01*
X021276Y014159D01*
X021304Y014205D01*
X021329Y014252D01*
X021351Y014301D01*
X021369Y014351D01*
X021384Y014402D01*
X021395Y014455D01*
X021404Y014507D01*
X021408Y014561D01*
X021409Y014614D01*
X021406Y014667D01*
X020043Y015167D02*
X020006Y015127D01*
X019972Y015085D01*
X019941Y015041D01*
X019913Y014995D01*
X019888Y014947D01*
X019866Y014898D01*
X019848Y014847D01*
X019833Y014795D01*
X019822Y014742D01*
X019814Y014689D01*
X019810Y014635D01*
X019809Y014581D01*
X019812Y014527D01*
X019819Y014473D01*
X019830Y014420D01*
X019844Y014368D01*
X020043Y015167D02*
X020083Y015203D01*
X020124Y015238D01*
X020168Y015269D01*
X020214Y015297D01*
X020262Y015322D01*
X020311Y015344D01*
X020362Y015362D01*
X020414Y015377D01*
X020467Y015388D01*
X020520Y015396D01*
X020574Y015400D01*
X020628Y015401D01*
X020681Y015398D01*
X023399Y013829D02*
X023453Y013816D01*
X023508Y013807D01*
X023564Y013802D01*
X023620Y013801D01*
X023676Y013804D01*
X023732Y013811D01*
X023787Y013821D01*
X023841Y013835D01*
X023894Y013854D01*
X023946Y013875D01*
X023996Y013901D01*
X024044Y013930D01*
X024090Y013962D01*
X024134Y013997D01*
X024175Y014035D01*
X024211Y014074D01*
X024245Y014116D01*
X024276Y014159D01*
X024304Y014205D01*
X024329Y014252D01*
X024351Y014301D01*
X024369Y014351D01*
X024384Y014402D01*
X024395Y014455D01*
X024404Y014507D01*
X024408Y014561D01*
X024409Y014614D01*
X024406Y014667D01*
X023043Y015167D02*
X023006Y015127D01*
X022972Y015085D01*
X022941Y015041D01*
X022913Y014995D01*
X022888Y014947D01*
X022866Y014898D01*
X022848Y014847D01*
X022833Y014795D01*
X022822Y014742D01*
X022814Y014689D01*
X022810Y014635D01*
X022809Y014581D01*
X022812Y014527D01*
X022819Y014473D01*
X022830Y014420D01*
X022844Y014368D01*
X023043Y015167D02*
X023083Y015203D01*
X023124Y015238D01*
X023168Y015269D01*
X023214Y015297D01*
X023262Y015322D01*
X023311Y015344D01*
X023362Y015362D01*
X023414Y015377D01*
X023467Y015388D01*
X023520Y015396D01*
X023574Y015400D01*
X023628Y015401D01*
X023681Y015398D01*
X026399Y013829D02*
X026453Y013816D01*
X026508Y013807D01*
X026564Y013802D01*
X026620Y013801D01*
X026676Y013804D01*
X026732Y013811D01*
X026787Y013821D01*
X026841Y013835D01*
X026894Y013854D01*
X026946Y013875D01*
X026996Y013901D01*
X027044Y013930D01*
X027090Y013962D01*
X027134Y013997D01*
X027175Y014035D01*
X027211Y014074D01*
X027245Y014116D01*
X027276Y014159D01*
X027304Y014205D01*
X027329Y014252D01*
X027351Y014301D01*
X027369Y014351D01*
X027384Y014402D01*
X027395Y014455D01*
X027404Y014507D01*
X027408Y014561D01*
X027409Y014614D01*
X027406Y014667D01*
X026043Y015167D02*
X026006Y015127D01*
X025972Y015085D01*
X025941Y015041D01*
X025913Y014995D01*
X025888Y014947D01*
X025866Y014898D01*
X025848Y014847D01*
X025833Y014795D01*
X025822Y014742D01*
X025814Y014689D01*
X025810Y014635D01*
X025809Y014581D01*
X025812Y014527D01*
X025819Y014473D01*
X025830Y014420D01*
X025844Y014368D01*
X026043Y015167D02*
X026083Y015203D01*
X026124Y015238D01*
X026168Y015269D01*
X026214Y015297D01*
X026262Y015322D01*
X026311Y015344D01*
X026362Y015362D01*
X026414Y015377D01*
X026467Y015388D01*
X026520Y015396D01*
X026574Y015400D01*
X026628Y015401D01*
X026681Y015398D01*
X027406Y011667D02*
X027409Y011614D01*
X027408Y011561D01*
X027404Y011507D01*
X027395Y011455D01*
X027384Y011402D01*
X027369Y011351D01*
X027351Y011301D01*
X027329Y011252D01*
X027304Y011205D01*
X027276Y011159D01*
X027245Y011116D01*
X027211Y011074D01*
X027175Y011035D01*
X027134Y010997D01*
X027090Y010962D01*
X027044Y010930D01*
X026996Y010901D01*
X026946Y010875D01*
X026894Y010854D01*
X026841Y010835D01*
X026787Y010821D01*
X026732Y010811D01*
X026676Y010804D01*
X026620Y010801D01*
X026564Y010802D01*
X026508Y010807D01*
X026453Y010816D01*
X026399Y010829D01*
X025844Y011368D02*
X025830Y011420D01*
X025819Y011473D01*
X025812Y011527D01*
X025809Y011581D01*
X025810Y011635D01*
X025814Y011689D01*
X025822Y011742D01*
X025833Y011795D01*
X025848Y011847D01*
X025866Y011898D01*
X025888Y011947D01*
X025913Y011995D01*
X025941Y012041D01*
X025972Y012085D01*
X026006Y012127D01*
X026043Y012167D01*
X026083Y012203D01*
X026124Y012238D01*
X026168Y012269D01*
X026214Y012297D01*
X026262Y012322D01*
X026311Y012344D01*
X026362Y012362D01*
X026414Y012377D01*
X026467Y012388D01*
X026520Y012396D01*
X026574Y012400D01*
X026628Y012401D01*
X026681Y012398D01*
X024406Y011667D02*
X024409Y011614D01*
X024408Y011561D01*
X024404Y011507D01*
X024395Y011455D01*
X024384Y011402D01*
X024369Y011351D01*
X024351Y011301D01*
X024329Y011252D01*
X024304Y011205D01*
X024276Y011159D01*
X024245Y011116D01*
X024211Y011074D01*
X024175Y011035D01*
X024134Y010997D01*
X024090Y010962D01*
X024044Y010930D01*
X023996Y010901D01*
X023946Y010875D01*
X023894Y010854D01*
X023841Y010835D01*
X023787Y010821D01*
X023732Y010811D01*
X023676Y010804D01*
X023620Y010801D01*
X023564Y010802D01*
X023508Y010807D01*
X023453Y010816D01*
X023399Y010829D01*
X022844Y011368D02*
X022830Y011420D01*
X022819Y011473D01*
X022812Y011527D01*
X022809Y011581D01*
X022810Y011635D01*
X022814Y011689D01*
X022822Y011742D01*
X022833Y011795D01*
X022848Y011847D01*
X022866Y011898D01*
X022888Y011947D01*
X022913Y011995D01*
X022941Y012041D01*
X022972Y012085D01*
X023006Y012127D01*
X023043Y012167D01*
X023083Y012203D01*
X023124Y012238D01*
X023168Y012269D01*
X023214Y012297D01*
X023262Y012322D01*
X023311Y012344D01*
X023362Y012362D01*
X023414Y012377D01*
X023467Y012388D01*
X023520Y012396D01*
X023574Y012400D01*
X023628Y012401D01*
X023681Y012398D01*
X021406Y011667D02*
X021409Y011614D01*
X021408Y011561D01*
X021404Y011507D01*
X021395Y011455D01*
X021384Y011402D01*
X021369Y011351D01*
X021351Y011301D01*
X021329Y011252D01*
X021304Y011205D01*
X021276Y011159D01*
X021245Y011116D01*
X021211Y011074D01*
X021175Y011035D01*
X021134Y010997D01*
X021090Y010962D01*
X021044Y010930D01*
X020996Y010901D01*
X020946Y010875D01*
X020894Y010854D01*
X020841Y010835D01*
X020787Y010821D01*
X020732Y010811D01*
X020676Y010804D01*
X020620Y010801D01*
X020564Y010802D01*
X020508Y010807D01*
X020453Y010816D01*
X020399Y010829D01*
X019844Y011368D02*
X019830Y011420D01*
X019819Y011473D01*
X019812Y011527D01*
X019809Y011581D01*
X019810Y011635D01*
X019814Y011689D01*
X019822Y011742D01*
X019833Y011795D01*
X019848Y011847D01*
X019866Y011898D01*
X019888Y011947D01*
X019913Y011995D01*
X019941Y012041D01*
X019972Y012085D01*
X020006Y012127D01*
X020043Y012167D01*
X020083Y012203D01*
X020124Y012238D01*
X020168Y012269D01*
X020214Y012297D01*
X020262Y012322D01*
X020311Y012344D01*
X020362Y012362D01*
X020414Y012377D01*
X020467Y012388D01*
X020520Y012396D01*
X020574Y012400D01*
X020628Y012401D01*
X020681Y012398D01*
X018406Y011667D02*
X018409Y011614D01*
X018408Y011561D01*
X018404Y011507D01*
X018395Y011455D01*
X018384Y011402D01*
X018369Y011351D01*
X018351Y011301D01*
X018329Y011252D01*
X018304Y011205D01*
X018276Y011159D01*
X018245Y011116D01*
X018211Y011074D01*
X018175Y011035D01*
X018134Y010997D01*
X018090Y010962D01*
X018044Y010930D01*
X017996Y010901D01*
X017946Y010875D01*
X017894Y010854D01*
X017841Y010835D01*
X017787Y010821D01*
X017732Y010811D01*
X017676Y010804D01*
X017620Y010801D01*
X017564Y010802D01*
X017508Y010807D01*
X017453Y010816D01*
X017399Y010829D01*
X016844Y011368D02*
X016830Y011420D01*
X016819Y011473D01*
X016812Y011527D01*
X016809Y011581D01*
X016810Y011635D01*
X016814Y011689D01*
X016822Y011742D01*
X016833Y011795D01*
X016848Y011847D01*
X016866Y011898D01*
X016888Y011947D01*
X016913Y011995D01*
X016941Y012041D01*
X016972Y012085D01*
X017006Y012127D01*
X017043Y012167D01*
X017083Y012203D01*
X017124Y012238D01*
X017168Y012269D01*
X017214Y012297D01*
X017262Y012322D01*
X017311Y012344D01*
X017362Y012362D01*
X017414Y012377D01*
X017467Y012388D01*
X017520Y012396D01*
X017574Y012400D01*
X017628Y012401D01*
X017681Y012398D01*
X015406Y011667D02*
X015409Y011614D01*
X015408Y011561D01*
X015404Y011507D01*
X015395Y011455D01*
X015384Y011402D01*
X015369Y011351D01*
X015351Y011301D01*
X015329Y011252D01*
X015304Y011205D01*
X015276Y011159D01*
X015245Y011116D01*
X015211Y011074D01*
X015175Y011035D01*
X015134Y010997D01*
X015090Y010962D01*
X015044Y010930D01*
X014996Y010901D01*
X014946Y010875D01*
X014894Y010854D01*
X014841Y010835D01*
X014787Y010821D01*
X014732Y010811D01*
X014676Y010804D01*
X014620Y010801D01*
X014564Y010802D01*
X014508Y010807D01*
X014453Y010816D01*
X014399Y010829D01*
X013844Y011368D02*
X013830Y011420D01*
X013819Y011473D01*
X013812Y011527D01*
X013809Y011581D01*
X013810Y011635D01*
X013814Y011689D01*
X013822Y011742D01*
X013833Y011795D01*
X013848Y011847D01*
X013866Y011898D01*
X013888Y011947D01*
X013913Y011995D01*
X013941Y012041D01*
X013972Y012085D01*
X014006Y012127D01*
X014043Y012167D01*
X014083Y012203D01*
X014124Y012238D01*
X014168Y012269D01*
X014214Y012297D01*
X014262Y012322D01*
X014311Y012344D01*
X014362Y012362D01*
X014414Y012377D01*
X014467Y012388D01*
X014520Y012396D01*
X014574Y012400D01*
X014628Y012401D01*
X014681Y012398D01*
X012406Y011667D02*
X012409Y011614D01*
X012408Y011561D01*
X012404Y011507D01*
X012395Y011455D01*
X012384Y011402D01*
X012369Y011351D01*
X012351Y011301D01*
X012329Y011252D01*
X012304Y011205D01*
X012276Y011159D01*
X012245Y011116D01*
X012211Y011074D01*
X012175Y011035D01*
X012134Y010997D01*
X012090Y010962D01*
X012044Y010930D01*
X011996Y010901D01*
X011946Y010875D01*
X011894Y010854D01*
X011841Y010835D01*
X011787Y010821D01*
X011732Y010811D01*
X011676Y010804D01*
X011620Y010801D01*
X011564Y010802D01*
X011508Y010807D01*
X011453Y010816D01*
X011399Y010829D01*
X010844Y011368D02*
X010830Y011420D01*
X010819Y011473D01*
X010812Y011527D01*
X010809Y011581D01*
X010810Y011635D01*
X010814Y011689D01*
X010822Y011742D01*
X010833Y011795D01*
X010848Y011847D01*
X010866Y011898D01*
X010888Y011947D01*
X010913Y011995D01*
X010941Y012041D01*
X010972Y012085D01*
X011006Y012127D01*
X011043Y012167D01*
X011083Y012203D01*
X011124Y012238D01*
X011168Y012269D01*
X011214Y012297D01*
X011262Y012322D01*
X011311Y012344D01*
X011362Y012362D01*
X011414Y012377D01*
X011467Y012388D01*
X011520Y012396D01*
X011574Y012400D01*
X011628Y012401D01*
X011681Y012398D01*
X009406Y011667D02*
X009409Y011614D01*
X009408Y011561D01*
X009404Y011507D01*
X009395Y011455D01*
X009384Y011402D01*
X009369Y011351D01*
X009351Y011301D01*
X009329Y011252D01*
X009304Y011205D01*
X009276Y011159D01*
X009245Y011116D01*
X009211Y011074D01*
X009175Y011035D01*
X009134Y010997D01*
X009090Y010962D01*
X009044Y010930D01*
X008996Y010901D01*
X008946Y010875D01*
X008894Y010854D01*
X008841Y010835D01*
X008787Y010821D01*
X008732Y010811D01*
X008676Y010804D01*
X008620Y010801D01*
X008564Y010802D01*
X008508Y010807D01*
X008453Y010816D01*
X008399Y010829D01*
X007844Y011368D02*
X007830Y011420D01*
X007819Y011473D01*
X007812Y011527D01*
X007809Y011581D01*
X007810Y011635D01*
X007814Y011689D01*
X007822Y011742D01*
X007833Y011795D01*
X007848Y011847D01*
X007866Y011898D01*
X007888Y011947D01*
X007913Y011995D01*
X007941Y012041D01*
X007972Y012085D01*
X008006Y012127D01*
X008043Y012167D01*
X008083Y012203D01*
X008124Y012238D01*
X008168Y012269D01*
X008214Y012297D01*
X008262Y012322D01*
X008311Y012344D01*
X008362Y012362D01*
X008414Y012377D01*
X008467Y012388D01*
X008520Y012396D01*
X008574Y012400D01*
X008628Y012401D01*
X008681Y012398D01*
X006406Y011667D02*
X006409Y011614D01*
X006408Y011561D01*
X006404Y011507D01*
X006395Y011455D01*
X006384Y011402D01*
X006369Y011351D01*
X006351Y011301D01*
X006329Y011252D01*
X006304Y011205D01*
X006276Y011159D01*
X006245Y011116D01*
X006211Y011074D01*
X006175Y011035D01*
X006134Y010997D01*
X006090Y010962D01*
X006044Y010930D01*
X005996Y010901D01*
X005946Y010875D01*
X005894Y010854D01*
X005841Y010835D01*
X005787Y010821D01*
X005732Y010811D01*
X005676Y010804D01*
X005620Y010801D01*
X005564Y010802D01*
X005508Y010807D01*
X005453Y010816D01*
X005399Y010829D01*
X004844Y011368D02*
X004830Y011420D01*
X004819Y011473D01*
X004812Y011527D01*
X004809Y011581D01*
X004810Y011635D01*
X004814Y011689D01*
X004822Y011742D01*
X004833Y011795D01*
X004848Y011847D01*
X004866Y011898D01*
X004888Y011947D01*
X004913Y011995D01*
X004941Y012041D01*
X004972Y012085D01*
X005006Y012127D01*
X005043Y012167D01*
X005083Y012203D01*
X005124Y012238D01*
X005168Y012269D01*
X005214Y012297D01*
X005262Y012322D01*
X005311Y012344D01*
X005362Y012362D01*
X005414Y012377D01*
X005467Y012388D01*
X005520Y012396D01*
X005574Y012400D01*
X005628Y012401D01*
X005681Y012398D01*
X006406Y008667D02*
X006409Y008614D01*
X006408Y008561D01*
X006404Y008507D01*
X006395Y008455D01*
X006384Y008402D01*
X006369Y008351D01*
X006351Y008301D01*
X006329Y008252D01*
X006304Y008205D01*
X006276Y008159D01*
X006245Y008116D01*
X006211Y008074D01*
X006175Y008035D01*
X006134Y007997D01*
X006090Y007962D01*
X006044Y007930D01*
X005996Y007901D01*
X005946Y007875D01*
X005894Y007854D01*
X005841Y007835D01*
X005787Y007821D01*
X005732Y007811D01*
X005676Y007804D01*
X005620Y007801D01*
X005564Y007802D01*
X005508Y007807D01*
X005453Y007816D01*
X005399Y007829D01*
X004844Y008368D02*
X004830Y008420D01*
X004819Y008473D01*
X004812Y008527D01*
X004809Y008581D01*
X004810Y008635D01*
X004814Y008689D01*
X004822Y008742D01*
X004833Y008795D01*
X004848Y008847D01*
X004866Y008898D01*
X004888Y008947D01*
X004913Y008995D01*
X004941Y009041D01*
X004972Y009085D01*
X005006Y009127D01*
X005043Y009167D01*
X005083Y009203D01*
X005124Y009238D01*
X005168Y009269D01*
X005214Y009297D01*
X005262Y009322D01*
X005311Y009344D01*
X005362Y009362D01*
X005414Y009377D01*
X005467Y009388D01*
X005520Y009396D01*
X005574Y009400D01*
X005628Y009401D01*
X005681Y009398D01*
X008399Y007829D02*
X008453Y007816D01*
X008508Y007807D01*
X008564Y007802D01*
X008620Y007801D01*
X008676Y007804D01*
X008732Y007811D01*
X008787Y007821D01*
X008841Y007835D01*
X008894Y007854D01*
X008946Y007875D01*
X008996Y007901D01*
X009044Y007930D01*
X009090Y007962D01*
X009134Y007997D01*
X009175Y008035D01*
X009211Y008074D01*
X009245Y008116D01*
X009276Y008159D01*
X009304Y008205D01*
X009329Y008252D01*
X009351Y008301D01*
X009369Y008351D01*
X009384Y008402D01*
X009395Y008455D01*
X009404Y008507D01*
X009408Y008561D01*
X009409Y008614D01*
X009406Y008667D01*
X008043Y009167D02*
X008006Y009127D01*
X007972Y009085D01*
X007941Y009041D01*
X007913Y008995D01*
X007888Y008947D01*
X007866Y008898D01*
X007848Y008847D01*
X007833Y008795D01*
X007822Y008742D01*
X007814Y008689D01*
X007810Y008635D01*
X007809Y008581D01*
X007812Y008527D01*
X007819Y008473D01*
X007830Y008420D01*
X007844Y008368D01*
X008043Y009167D02*
X008083Y009203D01*
X008124Y009238D01*
X008168Y009269D01*
X008214Y009297D01*
X008262Y009322D01*
X008311Y009344D01*
X008362Y009362D01*
X008414Y009377D01*
X008467Y009388D01*
X008520Y009396D01*
X008574Y009400D01*
X008628Y009401D01*
X008681Y009398D01*
X011399Y007829D02*
X011453Y007816D01*
X011508Y007807D01*
X011564Y007802D01*
X011620Y007801D01*
X011676Y007804D01*
X011732Y007811D01*
X011787Y007821D01*
X011841Y007835D01*
X011894Y007854D01*
X011946Y007875D01*
X011996Y007901D01*
X012044Y007930D01*
X012090Y007962D01*
X012134Y007997D01*
X012175Y008035D01*
X012211Y008074D01*
X012245Y008116D01*
X012276Y008159D01*
X012304Y008205D01*
X012329Y008252D01*
X012351Y008301D01*
X012369Y008351D01*
X012384Y008402D01*
X012395Y008455D01*
X012404Y008507D01*
X012408Y008561D01*
X012409Y008614D01*
X012406Y008667D01*
X011043Y009167D02*
X011006Y009127D01*
X010972Y009085D01*
X010941Y009041D01*
X010913Y008995D01*
X010888Y008947D01*
X010866Y008898D01*
X010848Y008847D01*
X010833Y008795D01*
X010822Y008742D01*
X010814Y008689D01*
X010810Y008635D01*
X010809Y008581D01*
X010812Y008527D01*
X010819Y008473D01*
X010830Y008420D01*
X010844Y008368D01*
X011043Y009167D02*
X011083Y009203D01*
X011124Y009238D01*
X011168Y009269D01*
X011214Y009297D01*
X011262Y009322D01*
X011311Y009344D01*
X011362Y009362D01*
X011414Y009377D01*
X011467Y009388D01*
X011520Y009396D01*
X011574Y009400D01*
X011628Y009401D01*
X011681Y009398D01*
X014399Y007829D02*
X014453Y007816D01*
X014508Y007807D01*
X014564Y007802D01*
X014620Y007801D01*
X014676Y007804D01*
X014732Y007811D01*
X014787Y007821D01*
X014841Y007835D01*
X014894Y007854D01*
X014946Y007875D01*
X014996Y007901D01*
X015044Y007930D01*
X015090Y007962D01*
X015134Y007997D01*
X015175Y008035D01*
X015211Y008074D01*
X015245Y008116D01*
X015276Y008159D01*
X015304Y008205D01*
X015329Y008252D01*
X015351Y008301D01*
X015369Y008351D01*
X015384Y008402D01*
X015395Y008455D01*
X015404Y008507D01*
X015408Y008561D01*
X015409Y008614D01*
X015406Y008667D01*
X014043Y009167D02*
X014006Y009127D01*
X013972Y009085D01*
X013941Y009041D01*
X013913Y008995D01*
X013888Y008947D01*
X013866Y008898D01*
X013848Y008847D01*
X013833Y008795D01*
X013822Y008742D01*
X013814Y008689D01*
X013810Y008635D01*
X013809Y008581D01*
X013812Y008527D01*
X013819Y008473D01*
X013830Y008420D01*
X013844Y008368D01*
X014043Y009167D02*
X014083Y009203D01*
X014124Y009238D01*
X014168Y009269D01*
X014214Y009297D01*
X014262Y009322D01*
X014311Y009344D01*
X014362Y009362D01*
X014414Y009377D01*
X014467Y009388D01*
X014520Y009396D01*
X014574Y009400D01*
X014628Y009401D01*
X014681Y009398D01*
X017399Y007829D02*
X017453Y007816D01*
X017508Y007807D01*
X017564Y007802D01*
X017620Y007801D01*
X017676Y007804D01*
X017732Y007811D01*
X017787Y007821D01*
X017841Y007835D01*
X017894Y007854D01*
X017946Y007875D01*
X017996Y007901D01*
X018044Y007930D01*
X018090Y007962D01*
X018134Y007997D01*
X018175Y008035D01*
X018211Y008074D01*
X018245Y008116D01*
X018276Y008159D01*
X018304Y008205D01*
X018329Y008252D01*
X018351Y008301D01*
X018369Y008351D01*
X018384Y008402D01*
X018395Y008455D01*
X018404Y008507D01*
X018408Y008561D01*
X018409Y008614D01*
X018406Y008667D01*
X017043Y009167D02*
X017006Y009127D01*
X016972Y009085D01*
X016941Y009041D01*
X016913Y008995D01*
X016888Y008947D01*
X016866Y008898D01*
X016848Y008847D01*
X016833Y008795D01*
X016822Y008742D01*
X016814Y008689D01*
X016810Y008635D01*
X016809Y008581D01*
X016812Y008527D01*
X016819Y008473D01*
X016830Y008420D01*
X016844Y008368D01*
X017043Y009167D02*
X017083Y009203D01*
X017124Y009238D01*
X017168Y009269D01*
X017214Y009297D01*
X017262Y009322D01*
X017311Y009344D01*
X017362Y009362D01*
X017414Y009377D01*
X017467Y009388D01*
X017520Y009396D01*
X017574Y009400D01*
X017628Y009401D01*
X017681Y009398D01*
X020399Y007829D02*
X020453Y007816D01*
X020508Y007807D01*
X020564Y007802D01*
X020620Y007801D01*
X020676Y007804D01*
X020732Y007811D01*
X020787Y007821D01*
X020841Y007835D01*
X020894Y007854D01*
X020946Y007875D01*
X020996Y007901D01*
X021044Y007930D01*
X021090Y007962D01*
X021134Y007997D01*
X021175Y008035D01*
X021211Y008074D01*
X021245Y008116D01*
X021276Y008159D01*
X021304Y008205D01*
X021329Y008252D01*
X021351Y008301D01*
X021369Y008351D01*
X021384Y008402D01*
X021395Y008455D01*
X021404Y008507D01*
X021408Y008561D01*
X021409Y008614D01*
X021406Y008667D01*
X020043Y009167D02*
X020006Y009127D01*
X019972Y009085D01*
X019941Y009041D01*
X019913Y008995D01*
X019888Y008947D01*
X019866Y008898D01*
X019848Y008847D01*
X019833Y008795D01*
X019822Y008742D01*
X019814Y008689D01*
X019810Y008635D01*
X019809Y008581D01*
X019812Y008527D01*
X019819Y008473D01*
X019830Y008420D01*
X019844Y008368D01*
X020043Y009167D02*
X020083Y009203D01*
X020124Y009238D01*
X020168Y009269D01*
X020214Y009297D01*
X020262Y009322D01*
X020311Y009344D01*
X020362Y009362D01*
X020414Y009377D01*
X020467Y009388D01*
X020520Y009396D01*
X020574Y009400D01*
X020628Y009401D01*
X020681Y009398D01*
X023399Y007829D02*
X023453Y007816D01*
X023508Y007807D01*
X023564Y007802D01*
X023620Y007801D01*
X023676Y007804D01*
X023732Y007811D01*
X023787Y007821D01*
X023841Y007835D01*
X023894Y007854D01*
X023946Y007875D01*
X023996Y007901D01*
X024044Y007930D01*
X024090Y007962D01*
X024134Y007997D01*
X024175Y008035D01*
X024211Y008074D01*
X024245Y008116D01*
X024276Y008159D01*
X024304Y008205D01*
X024329Y008252D01*
X024351Y008301D01*
X024369Y008351D01*
X024384Y008402D01*
X024395Y008455D01*
X024404Y008507D01*
X024408Y008561D01*
X024409Y008614D01*
X024406Y008667D01*
X023043Y009167D02*
X023006Y009127D01*
X022972Y009085D01*
X022941Y009041D01*
X022913Y008995D01*
X022888Y008947D01*
X022866Y008898D01*
X022848Y008847D01*
X022833Y008795D01*
X022822Y008742D01*
X022814Y008689D01*
X022810Y008635D01*
X022809Y008581D01*
X022812Y008527D01*
X022819Y008473D01*
X022830Y008420D01*
X022844Y008368D01*
X023043Y009167D02*
X023083Y009203D01*
X023124Y009238D01*
X023168Y009269D01*
X023214Y009297D01*
X023262Y009322D01*
X023311Y009344D01*
X023362Y009362D01*
X023414Y009377D01*
X023467Y009388D01*
X023520Y009396D01*
X023574Y009400D01*
X023628Y009401D01*
X023681Y009398D01*
X026399Y007829D02*
X026453Y007816D01*
X026508Y007807D01*
X026564Y007802D01*
X026620Y007801D01*
X026676Y007804D01*
X026732Y007811D01*
X026787Y007821D01*
X026841Y007835D01*
X026894Y007854D01*
X026946Y007875D01*
X026996Y007901D01*
X027044Y007930D01*
X027090Y007962D01*
X027134Y007997D01*
X027175Y008035D01*
X027211Y008074D01*
X027245Y008116D01*
X027276Y008159D01*
X027304Y008205D01*
X027329Y008252D01*
X027351Y008301D01*
X027369Y008351D01*
X027384Y008402D01*
X027395Y008455D01*
X027404Y008507D01*
X027408Y008561D01*
X027409Y008614D01*
X027406Y008667D01*
X026043Y009167D02*
X026006Y009127D01*
X025972Y009085D01*
X025941Y009041D01*
X025913Y008995D01*
X025888Y008947D01*
X025866Y008898D01*
X025848Y008847D01*
X025833Y008795D01*
X025822Y008742D01*
X025814Y008689D01*
X025810Y008635D01*
X025809Y008581D01*
X025812Y008527D01*
X025819Y008473D01*
X025830Y008420D01*
X025844Y008368D01*
X026043Y009167D02*
X026083Y009203D01*
X026124Y009238D01*
X026168Y009269D01*
X026214Y009297D01*
X026262Y009322D01*
X026311Y009344D01*
X026362Y009362D01*
X026414Y009377D01*
X026467Y009388D01*
X026520Y009396D01*
X026574Y009400D01*
X026628Y009401D01*
X026681Y009398D01*
X027406Y005667D02*
X027409Y005614D01*
X027408Y005561D01*
X027404Y005507D01*
X027395Y005455D01*
X027384Y005402D01*
X027369Y005351D01*
X027351Y005301D01*
X027329Y005252D01*
X027304Y005205D01*
X027276Y005159D01*
X027245Y005116D01*
X027211Y005074D01*
X027175Y005035D01*
X027134Y004997D01*
X027090Y004962D01*
X027044Y004930D01*
X026996Y004901D01*
X026946Y004875D01*
X026894Y004854D01*
X026841Y004835D01*
X026787Y004821D01*
X026732Y004811D01*
X026676Y004804D01*
X026620Y004801D01*
X026564Y004802D01*
X026508Y004807D01*
X026453Y004816D01*
X026399Y004829D01*
X025844Y005368D02*
X025830Y005420D01*
X025819Y005473D01*
X025812Y005527D01*
X025809Y005581D01*
X025810Y005635D01*
X025814Y005689D01*
X025822Y005742D01*
X025833Y005795D01*
X025848Y005847D01*
X025866Y005898D01*
X025888Y005947D01*
X025913Y005995D01*
X025941Y006041D01*
X025972Y006085D01*
X026006Y006127D01*
X026043Y006167D01*
X026083Y006203D01*
X026124Y006238D01*
X026168Y006269D01*
X026214Y006297D01*
X026262Y006322D01*
X026311Y006344D01*
X026362Y006362D01*
X026414Y006377D01*
X026467Y006388D01*
X026520Y006396D01*
X026574Y006400D01*
X026628Y006401D01*
X026681Y006398D01*
X024406Y005667D02*
X024409Y005614D01*
X024408Y005561D01*
X024404Y005507D01*
X024395Y005455D01*
X024384Y005402D01*
X024369Y005351D01*
X024351Y005301D01*
X024329Y005252D01*
X024304Y005205D01*
X024276Y005159D01*
X024245Y005116D01*
X024211Y005074D01*
X024175Y005035D01*
X024134Y004997D01*
X024090Y004962D01*
X024044Y004930D01*
X023996Y004901D01*
X023946Y004875D01*
X023894Y004854D01*
X023841Y004835D01*
X023787Y004821D01*
X023732Y004811D01*
X023676Y004804D01*
X023620Y004801D01*
X023564Y004802D01*
X023508Y004807D01*
X023453Y004816D01*
X023399Y004829D01*
X022844Y005368D02*
X022830Y005420D01*
X022819Y005473D01*
X022812Y005527D01*
X022809Y005581D01*
X022810Y005635D01*
X022814Y005689D01*
X022822Y005742D01*
X022833Y005795D01*
X022848Y005847D01*
X022866Y005898D01*
X022888Y005947D01*
X022913Y005995D01*
X022941Y006041D01*
X022972Y006085D01*
X023006Y006127D01*
X023043Y006167D01*
X023083Y006203D01*
X023124Y006238D01*
X023168Y006269D01*
X023214Y006297D01*
X023262Y006322D01*
X023311Y006344D01*
X023362Y006362D01*
X023414Y006377D01*
X023467Y006388D01*
X023520Y006396D01*
X023574Y006400D01*
X023628Y006401D01*
X023681Y006398D01*
X021406Y005667D02*
X021409Y005614D01*
X021408Y005561D01*
X021404Y005507D01*
X021395Y005455D01*
X021384Y005402D01*
X021369Y005351D01*
X021351Y005301D01*
X021329Y005252D01*
X021304Y005205D01*
X021276Y005159D01*
X021245Y005116D01*
X021211Y005074D01*
X021175Y005035D01*
X021134Y004997D01*
X021090Y004962D01*
X021044Y004930D01*
X020996Y004901D01*
X020946Y004875D01*
X020894Y004854D01*
X020841Y004835D01*
X020787Y004821D01*
X020732Y004811D01*
X020676Y004804D01*
X020620Y004801D01*
X020564Y004802D01*
X020508Y004807D01*
X020453Y004816D01*
X020399Y004829D01*
X019844Y005368D02*
X019830Y005420D01*
X019819Y005473D01*
X019812Y005527D01*
X019809Y005581D01*
X019810Y005635D01*
X019814Y005689D01*
X019822Y005742D01*
X019833Y005795D01*
X019848Y005847D01*
X019866Y005898D01*
X019888Y005947D01*
X019913Y005995D01*
X019941Y006041D01*
X019972Y006085D01*
X020006Y006127D01*
X020043Y006167D01*
X020083Y006203D01*
X020124Y006238D01*
X020168Y006269D01*
X020214Y006297D01*
X020262Y006322D01*
X020311Y006344D01*
X020362Y006362D01*
X020414Y006377D01*
X020467Y006388D01*
X020520Y006396D01*
X020574Y006400D01*
X020628Y006401D01*
X020681Y006398D01*
X018406Y005667D02*
X018409Y005614D01*
X018408Y005561D01*
X018404Y005507D01*
X018395Y005455D01*
X018384Y005402D01*
X018369Y005351D01*
X018351Y005301D01*
X018329Y005252D01*
X018304Y005205D01*
X018276Y005159D01*
X018245Y005116D01*
X018211Y005074D01*
X018175Y005035D01*
X018134Y004997D01*
X018090Y004962D01*
X018044Y004930D01*
X017996Y004901D01*
X017946Y004875D01*
X017894Y004854D01*
X017841Y004835D01*
X017787Y004821D01*
X017732Y004811D01*
X017676Y004804D01*
X017620Y004801D01*
X017564Y004802D01*
X017508Y004807D01*
X017453Y004816D01*
X017399Y004829D01*
X016844Y005368D02*
X016830Y005420D01*
X016819Y005473D01*
X016812Y005527D01*
X016809Y005581D01*
X016810Y005635D01*
X016814Y005689D01*
X016822Y005742D01*
X016833Y005795D01*
X016848Y005847D01*
X016866Y005898D01*
X016888Y005947D01*
X016913Y005995D01*
X016941Y006041D01*
X016972Y006085D01*
X017006Y006127D01*
X017043Y006167D01*
X017083Y006203D01*
X017124Y006238D01*
X017168Y006269D01*
X017214Y006297D01*
X017262Y006322D01*
X017311Y006344D01*
X017362Y006362D01*
X017414Y006377D01*
X017467Y006388D01*
X017520Y006396D01*
X017574Y006400D01*
X017628Y006401D01*
X017681Y006398D01*
X015406Y005667D02*
X015409Y005614D01*
X015408Y005561D01*
X015404Y005507D01*
X015395Y005455D01*
X015384Y005402D01*
X015369Y005351D01*
X015351Y005301D01*
X015329Y005252D01*
X015304Y005205D01*
X015276Y005159D01*
X015245Y005116D01*
X015211Y005074D01*
X015175Y005035D01*
X015134Y004997D01*
X015090Y004962D01*
X015044Y004930D01*
X014996Y004901D01*
X014946Y004875D01*
X014894Y004854D01*
X014841Y004835D01*
X014787Y004821D01*
X014732Y004811D01*
X014676Y004804D01*
X014620Y004801D01*
X014564Y004802D01*
X014508Y004807D01*
X014453Y004816D01*
X014399Y004829D01*
X013844Y005368D02*
X013830Y005420D01*
X013819Y005473D01*
X013812Y005527D01*
X013809Y005581D01*
X013810Y005635D01*
X013814Y005689D01*
X013822Y005742D01*
X013833Y005795D01*
X013848Y005847D01*
X013866Y005898D01*
X013888Y005947D01*
X013913Y005995D01*
X013941Y006041D01*
X013972Y006085D01*
X014006Y006127D01*
X014043Y006167D01*
X014083Y006203D01*
X014124Y006238D01*
X014168Y006269D01*
X014214Y006297D01*
X014262Y006322D01*
X014311Y006344D01*
X014362Y006362D01*
X014414Y006377D01*
X014467Y006388D01*
X014520Y006396D01*
X014574Y006400D01*
X014628Y006401D01*
X014681Y006398D01*
X012406Y005667D02*
X012409Y005614D01*
X012408Y005561D01*
X012404Y005507D01*
X012395Y005455D01*
X012384Y005402D01*
X012369Y005351D01*
X012351Y005301D01*
X012329Y005252D01*
X012304Y005205D01*
X012276Y005159D01*
X012245Y005116D01*
X012211Y005074D01*
X012175Y005035D01*
X012134Y004997D01*
X012090Y004962D01*
X012044Y004930D01*
X011996Y004901D01*
X011946Y004875D01*
X011894Y004854D01*
X011841Y004835D01*
X011787Y004821D01*
X011732Y004811D01*
X011676Y004804D01*
X011620Y004801D01*
X011564Y004802D01*
X011508Y004807D01*
X011453Y004816D01*
X011399Y004829D01*
X010844Y005368D02*
X010830Y005420D01*
X010819Y005473D01*
X010812Y005527D01*
X010809Y005581D01*
X010810Y005635D01*
X010814Y005689D01*
X010822Y005742D01*
X010833Y005795D01*
X010848Y005847D01*
X010866Y005898D01*
X010888Y005947D01*
X010913Y005995D01*
X010941Y006041D01*
X010972Y006085D01*
X011006Y006127D01*
X011043Y006167D01*
X011083Y006203D01*
X011124Y006238D01*
X011168Y006269D01*
X011214Y006297D01*
X011262Y006322D01*
X011311Y006344D01*
X011362Y006362D01*
X011414Y006377D01*
X011467Y006388D01*
X011520Y006396D01*
X011574Y006400D01*
X011628Y006401D01*
X011681Y006398D01*
X009406Y005667D02*
X009409Y005614D01*
X009408Y005561D01*
X009404Y005507D01*
X009395Y005455D01*
X009384Y005402D01*
X009369Y005351D01*
X009351Y005301D01*
X009329Y005252D01*
X009304Y005205D01*
X009276Y005159D01*
X009245Y005116D01*
X009211Y005074D01*
X009175Y005035D01*
X009134Y004997D01*
X009090Y004962D01*
X009044Y004930D01*
X008996Y004901D01*
X008946Y004875D01*
X008894Y004854D01*
X008841Y004835D01*
X008787Y004821D01*
X008732Y004811D01*
X008676Y004804D01*
X008620Y004801D01*
X008564Y004802D01*
X008508Y004807D01*
X008453Y004816D01*
X008399Y004829D01*
X007844Y005368D02*
X007830Y005420D01*
X007819Y005473D01*
X007812Y005527D01*
X007809Y005581D01*
X007810Y005635D01*
X007814Y005689D01*
X007822Y005742D01*
X007833Y005795D01*
X007848Y005847D01*
X007866Y005898D01*
X007888Y005947D01*
X007913Y005995D01*
X007941Y006041D01*
X007972Y006085D01*
X008006Y006127D01*
X008043Y006167D01*
X008083Y006203D01*
X008124Y006238D01*
X008168Y006269D01*
X008214Y006297D01*
X008262Y006322D01*
X008311Y006344D01*
X008362Y006362D01*
X008414Y006377D01*
X008467Y006388D01*
X008520Y006396D01*
X008574Y006400D01*
X008628Y006401D01*
X008681Y006398D01*
X006406Y005667D02*
X006409Y005614D01*
X006408Y005561D01*
X006404Y005507D01*
X006395Y005455D01*
X006384Y005402D01*
X006369Y005351D01*
X006351Y005301D01*
X006329Y005252D01*
X006304Y005205D01*
X006276Y005159D01*
X006245Y005116D01*
X006211Y005074D01*
X006175Y005035D01*
X006134Y004997D01*
X006090Y004962D01*
X006044Y004930D01*
X005996Y004901D01*
X005946Y004875D01*
X005894Y004854D01*
X005841Y004835D01*
X005787Y004821D01*
X005732Y004811D01*
X005676Y004804D01*
X005620Y004801D01*
X005564Y004802D01*
X005508Y004807D01*
X005453Y004816D01*
X005399Y004829D01*
X004844Y005368D02*
X004830Y005420D01*
X004819Y005473D01*
X004812Y005527D01*
X004809Y005581D01*
X004810Y005635D01*
X004814Y005689D01*
X004822Y005742D01*
X004833Y005795D01*
X004848Y005847D01*
X004866Y005898D01*
X004888Y005947D01*
X004913Y005995D01*
X004941Y006041D01*
X004972Y006085D01*
X005006Y006127D01*
X005043Y006167D01*
X005083Y006203D01*
X005124Y006238D01*
X005168Y006269D01*
X005214Y006297D01*
X005262Y006322D01*
X005311Y006344D01*
X005362Y006362D01*
X005414Y006377D01*
X005467Y006388D01*
X005520Y006396D01*
X005574Y006400D01*
X005628Y006401D01*
X005681Y006398D01*
D12*
X018934Y028976D02*
X019234Y028976D01*
X019084Y028976D02*
X019084Y029426D01*
X018934Y029276D01*
X025884Y030851D02*
X025884Y030926D01*
X025959Y031001D01*
X026109Y031001D01*
X026184Y030926D01*
X026184Y030851D01*
X026109Y030776D01*
X025959Y030776D01*
X025884Y030851D01*
X025959Y031001D02*
X025884Y031076D01*
X025884Y031151D01*
X025959Y031226D01*
X026109Y031226D01*
X026184Y031151D01*
X026184Y031076D01*
X026109Y031001D01*
X028934Y019166D02*
X028934Y018865D01*
X028934Y019016D02*
X028484Y019016D01*
X028634Y018865D01*
X030359Y012216D02*
X030284Y012141D01*
X030284Y011990D01*
X030359Y011915D01*
X030434Y011915D01*
X030509Y011990D01*
X030509Y012141D01*
X030584Y012216D01*
X030659Y012216D01*
X030734Y012141D01*
X030734Y011990D01*
X030659Y011915D01*
X030584Y011915D01*
X030509Y011990D01*
X030509Y012141D02*
X030434Y012216D01*
X030359Y012216D01*
D13*
X027809Y003101D02*
X027709Y003101D01*
X027709Y002101D01*
X027809Y002101D01*
X025509Y002151D02*
X025409Y002151D01*
X025509Y002151D02*
X025509Y003101D01*
X025409Y003101D01*
X024809Y003101D02*
X024709Y003101D01*
X024709Y002101D01*
X024809Y002101D01*
X022509Y002151D02*
X022409Y002151D01*
X022509Y002151D02*
X022509Y003101D01*
X022409Y003101D01*
X021809Y003101D02*
X021709Y003101D01*
X021709Y002101D01*
X021809Y002101D01*
X019509Y002151D02*
X019409Y002151D01*
X019509Y002151D02*
X019509Y003101D01*
X019409Y003101D01*
X018809Y003101D02*
X018709Y003101D01*
X018709Y002101D01*
X018809Y002101D01*
X016509Y002151D02*
X016409Y002151D01*
X016509Y002151D02*
X016509Y003101D01*
X016409Y003101D01*
X015809Y003101D02*
X015709Y003101D01*
X015709Y002101D01*
X015809Y002101D01*
X013509Y002151D02*
X013409Y002151D01*
X013509Y002151D02*
X013509Y003101D01*
X013409Y003101D01*
X012809Y003101D02*
X012709Y003101D01*
X012709Y002101D01*
X012809Y002101D01*
X010509Y002151D02*
X010409Y002151D01*
X010509Y002151D02*
X010509Y003101D01*
X010409Y003101D01*
X009809Y003101D02*
X009709Y003101D01*
X009709Y002101D01*
X009809Y002101D01*
X007509Y002151D02*
X007409Y002151D01*
X007509Y002151D02*
X007509Y003101D01*
X007409Y003101D01*
X006809Y003101D02*
X006709Y003101D01*
X006709Y002101D01*
X006809Y002101D01*
X004509Y002151D02*
X004409Y002151D01*
X004509Y002151D02*
X004509Y003101D01*
X004409Y003101D01*
X003109Y004401D02*
X003109Y004501D01*
X002109Y004501D01*
X002109Y004401D01*
X002159Y006701D02*
X002159Y006801D01*
X002159Y006701D02*
X003109Y006701D01*
X003109Y006801D01*
X003109Y007401D02*
X003109Y007501D01*
X002109Y007501D01*
X002109Y007401D01*
X002159Y009701D02*
X002159Y009801D01*
X002159Y009701D02*
X003109Y009701D01*
X003109Y009801D01*
X003109Y010401D02*
X003109Y010501D01*
X002109Y010501D01*
X002109Y010401D01*
X002159Y012701D02*
X002159Y012801D01*
X002159Y012701D02*
X003109Y012701D01*
X003109Y012801D01*
X003109Y013401D02*
X003109Y013501D01*
X002109Y013501D01*
X002109Y013401D01*
X002159Y015701D02*
X002159Y015801D01*
X002159Y015701D02*
X003109Y015701D01*
X003109Y015801D01*
X003109Y016401D02*
X003109Y016501D01*
X002109Y016501D01*
X002109Y016401D01*
X002159Y018701D02*
X002159Y018801D01*
X002159Y018701D02*
X003109Y018701D01*
X003109Y018801D01*
X003109Y019401D02*
X003109Y019501D01*
X002109Y019501D01*
X002109Y019401D01*
X002159Y021701D02*
X002159Y021801D01*
X002159Y021701D02*
X003109Y021701D01*
X003109Y021801D01*
X003109Y022401D02*
X003109Y022501D01*
X002109Y022501D01*
X002109Y022401D01*
X002159Y024701D02*
X002159Y024801D01*
X002159Y024701D02*
X003109Y024701D01*
X003109Y024801D01*
X003109Y025401D02*
X003109Y025501D01*
X002109Y025501D01*
X002109Y025401D01*
X002159Y027701D02*
X002159Y027801D01*
X002159Y027701D02*
X003109Y027701D01*
X003109Y027801D01*
D14*
X001979Y002601D02*
X001981Y002651D01*
X001987Y002701D01*
X001997Y002750D01*
X002011Y002798D01*
X002028Y002845D01*
X002049Y002890D01*
X002074Y002934D01*
X002102Y002975D01*
X002134Y003014D01*
X002168Y003051D01*
X002205Y003085D01*
X002245Y003115D01*
X002287Y003142D01*
X002331Y003166D01*
X002377Y003187D01*
X002424Y003203D01*
X002472Y003216D01*
X002522Y003225D01*
X002571Y003230D01*
X002622Y003231D01*
X002672Y003228D01*
X002721Y003221D01*
X002770Y003210D01*
X002818Y003195D01*
X002864Y003177D01*
X002909Y003155D01*
X002952Y003129D01*
X002993Y003100D01*
X003032Y003068D01*
X003068Y003033D01*
X003100Y002995D01*
X003130Y002955D01*
X003157Y002912D01*
X003180Y002868D01*
X003199Y002822D01*
X003215Y002774D01*
X003227Y002725D01*
X003235Y002676D01*
X003239Y002626D01*
X003239Y002576D01*
X003235Y002526D01*
X003227Y002477D01*
X003215Y002428D01*
X003199Y002380D01*
X003180Y002334D01*
X003157Y002290D01*
X003130Y002247D01*
X003100Y002207D01*
X003068Y002169D01*
X003032Y002134D01*
X002993Y002102D01*
X002952Y002073D01*
X002909Y002047D01*
X002864Y002025D01*
X002818Y002007D01*
X002770Y001992D01*
X002721Y001981D01*
X002672Y001974D01*
X002622Y001971D01*
X002571Y001972D01*
X002522Y001977D01*
X002472Y001986D01*
X002424Y001999D01*
X002377Y002015D01*
X002331Y002036D01*
X002287Y002060D01*
X002245Y002087D01*
X002205Y002117D01*
X002168Y002151D01*
X002134Y002188D01*
X002102Y002227D01*
X002074Y002268D01*
X002049Y002312D01*
X002028Y002357D01*
X002011Y002404D01*
X001997Y002452D01*
X001987Y002501D01*
X001981Y002551D01*
X001979Y002601D01*
X001979Y029601D02*
X001981Y029651D01*
X001987Y029701D01*
X001997Y029750D01*
X002011Y029798D01*
X002028Y029845D01*
X002049Y029890D01*
X002074Y029934D01*
X002102Y029975D01*
X002134Y030014D01*
X002168Y030051D01*
X002205Y030085D01*
X002245Y030115D01*
X002287Y030142D01*
X002331Y030166D01*
X002377Y030187D01*
X002424Y030203D01*
X002472Y030216D01*
X002522Y030225D01*
X002571Y030230D01*
X002622Y030231D01*
X002672Y030228D01*
X002721Y030221D01*
X002770Y030210D01*
X002818Y030195D01*
X002864Y030177D01*
X002909Y030155D01*
X002952Y030129D01*
X002993Y030100D01*
X003032Y030068D01*
X003068Y030033D01*
X003100Y029995D01*
X003130Y029955D01*
X003157Y029912D01*
X003180Y029868D01*
X003199Y029822D01*
X003215Y029774D01*
X003227Y029725D01*
X003235Y029676D01*
X003239Y029626D01*
X003239Y029576D01*
X003235Y029526D01*
X003227Y029477D01*
X003215Y029428D01*
X003199Y029380D01*
X003180Y029334D01*
X003157Y029290D01*
X003130Y029247D01*
X003100Y029207D01*
X003068Y029169D01*
X003032Y029134D01*
X002993Y029102D01*
X002952Y029073D01*
X002909Y029047D01*
X002864Y029025D01*
X002818Y029007D01*
X002770Y028992D01*
X002721Y028981D01*
X002672Y028974D01*
X002622Y028971D01*
X002571Y028972D01*
X002522Y028977D01*
X002472Y028986D01*
X002424Y028999D01*
X002377Y029015D01*
X002331Y029036D01*
X002287Y029060D01*
X002245Y029087D01*
X002205Y029117D01*
X002168Y029151D01*
X002134Y029188D01*
X002102Y029227D01*
X002074Y029268D01*
X002049Y029312D01*
X002028Y029357D01*
X002011Y029404D01*
X001997Y029452D01*
X001987Y029501D01*
X001981Y029551D01*
X001979Y029601D01*
X028979Y029601D02*
X028981Y029651D01*
X028987Y029701D01*
X028997Y029750D01*
X029011Y029798D01*
X029028Y029845D01*
X029049Y029890D01*
X029074Y029934D01*
X029102Y029975D01*
X029134Y030014D01*
X029168Y030051D01*
X029205Y030085D01*
X029245Y030115D01*
X029287Y030142D01*
X029331Y030166D01*
X029377Y030187D01*
X029424Y030203D01*
X029472Y030216D01*
X029522Y030225D01*
X029571Y030230D01*
X029622Y030231D01*
X029672Y030228D01*
X029721Y030221D01*
X029770Y030210D01*
X029818Y030195D01*
X029864Y030177D01*
X029909Y030155D01*
X029952Y030129D01*
X029993Y030100D01*
X030032Y030068D01*
X030068Y030033D01*
X030100Y029995D01*
X030130Y029955D01*
X030157Y029912D01*
X030180Y029868D01*
X030199Y029822D01*
X030215Y029774D01*
X030227Y029725D01*
X030235Y029676D01*
X030239Y029626D01*
X030239Y029576D01*
X030235Y029526D01*
X030227Y029477D01*
X030215Y029428D01*
X030199Y029380D01*
X030180Y029334D01*
X030157Y029290D01*
X030130Y029247D01*
X030100Y029207D01*
X030068Y029169D01*
X030032Y029134D01*
X029993Y029102D01*
X029952Y029073D01*
X029909Y029047D01*
X029864Y029025D01*
X029818Y029007D01*
X029770Y028992D01*
X029721Y028981D01*
X029672Y028974D01*
X029622Y028971D01*
X029571Y028972D01*
X029522Y028977D01*
X029472Y028986D01*
X029424Y028999D01*
X029377Y029015D01*
X029331Y029036D01*
X029287Y029060D01*
X029245Y029087D01*
X029205Y029117D01*
X029168Y029151D01*
X029134Y029188D01*
X029102Y029227D01*
X029074Y029268D01*
X029049Y029312D01*
X029028Y029357D01*
X029011Y029404D01*
X028997Y029452D01*
X028987Y029501D01*
X028981Y029551D01*
X028979Y029601D01*
X028979Y002601D02*
X028981Y002651D01*
X028987Y002701D01*
X028997Y002750D01*
X029011Y002798D01*
X029028Y002845D01*
X029049Y002890D01*
X029074Y002934D01*
X029102Y002975D01*
X029134Y003014D01*
X029168Y003051D01*
X029205Y003085D01*
X029245Y003115D01*
X029287Y003142D01*
X029331Y003166D01*
X029377Y003187D01*
X029424Y003203D01*
X029472Y003216D01*
X029522Y003225D01*
X029571Y003230D01*
X029622Y003231D01*
X029672Y003228D01*
X029721Y003221D01*
X029770Y003210D01*
X029818Y003195D01*
X029864Y003177D01*
X029909Y003155D01*
X029952Y003129D01*
X029993Y003100D01*
X030032Y003068D01*
X030068Y003033D01*
X030100Y002995D01*
X030130Y002955D01*
X030157Y002912D01*
X030180Y002868D01*
X030199Y002822D01*
X030215Y002774D01*
X030227Y002725D01*
X030235Y002676D01*
X030239Y002626D01*
X030239Y002576D01*
X030235Y002526D01*
X030227Y002477D01*
X030215Y002428D01*
X030199Y002380D01*
X030180Y002334D01*
X030157Y002290D01*
X030130Y002247D01*
X030100Y002207D01*
X030068Y002169D01*
X030032Y002134D01*
X029993Y002102D01*
X029952Y002073D01*
X029909Y002047D01*
X029864Y002025D01*
X029818Y002007D01*
X029770Y001992D01*
X029721Y001981D01*
X029672Y001974D01*
X029622Y001971D01*
X029571Y001972D01*
X029522Y001977D01*
X029472Y001986D01*
X029424Y001999D01*
X029377Y002015D01*
X029331Y002036D01*
X029287Y002060D01*
X029245Y002087D01*
X029205Y002117D01*
X029168Y002151D01*
X029134Y002188D01*
X029102Y002227D01*
X029074Y002268D01*
X029049Y002312D01*
X029028Y002357D01*
X029011Y002404D01*
X028997Y002452D01*
X028987Y002501D01*
X028981Y002551D01*
X028979Y002601D01*
M02*
