%
M48
M72
T01C0.0236
T02C0.0320
T03C0.0400
T04C0.1181
%
T01
X2609Y5601
X2609Y8601
X2609Y11601
X2609Y14601
X2609Y17601
X2609Y20601
X2609Y23601
X2609Y26601
X6609Y28351
X7359Y25351
X10359Y22351
X13359Y19351
X16359Y16351
X19359Y13351
X22359Y10351
X25359Y7351
X28359Y7351
X26609Y2601
X23609Y2601
X20609Y2601
X17609Y2601
X14609Y2601
X11609Y2601
X8609Y2601
X5609Y2601
T02
X5255Y5247
X5962Y5954
X5255Y8247
X5962Y8954
X5255Y11247
X5962Y11954
X5255Y14247
X5962Y14954
X5255Y17247
X5962Y17954
X5255Y20247
X5962Y20954
X5255Y23247
X5962Y23954
X5255Y26247
X5962Y26954
X8255Y26247
X8962Y26954
X11255Y26247
X11962Y26954
X14255Y26247
X14962Y26954
X17255Y26247
X17962Y26954
X20255Y26247
X20962Y26954
X23255Y26247
X23962Y26954
X26255Y26247
X26962Y26954
X26962Y23954
X26255Y23247
X26962Y20954
X26255Y20247
X26962Y17954
X26255Y17247
X26962Y14954
X26255Y14247
X26962Y11954
X26255Y11247
X26962Y8954
X26255Y8247
X26962Y5954
X26255Y5247
X23962Y5954
X23255Y5247
X20962Y5954
X20255Y5247
X17962Y5954
X17255Y5247
X14962Y5954
X14255Y5247
X11962Y5954
X11255Y5247
X8962Y5954
X8255Y5247
X8255Y8247
X8962Y8954
X8255Y11247
X8962Y11954
X8255Y14247
X8962Y14954
X8255Y17247
X8962Y17954
X8255Y20247
X8962Y20954
X8255Y23247
X8962Y23954
X11255Y23247
X11962Y23954
X14255Y23247
X14962Y23954
X17255Y23247
X17962Y23954
X20255Y23247
X20962Y23954
X23255Y23247
X23962Y23954
X23962Y20954
X23255Y20247
X20962Y20954
X20255Y20247
X20962Y17954
X20255Y17247
X20962Y14954
X20255Y14247
X20962Y11954
X20255Y11247
X20962Y8954
X20255Y8247
X17962Y8954
X17255Y8247
X14962Y8954
X14255Y8247
X11962Y8954
X11255Y8247
X11255Y11247
X11962Y11954
X11255Y14247
X11962Y14954
X11255Y17247
X11962Y17954
X11255Y20247
X11962Y20954
X14255Y20247
X14962Y20954
X17255Y20247
X17962Y20954
X17962Y17954
X17255Y17247
X14962Y17954
X14255Y17247
X14962Y14954
X14255Y14247
X14962Y11954
X14255Y11247
X17255Y11247
X17962Y11954
X17255Y14247
X17962Y14954
X23255Y14247
X23962Y14954
X23255Y17247
X23962Y17954
X23962Y11954
X23255Y11247
X23962Y8954
X23255Y8247
T03
X22719Y3881
X21499Y3881
X19719Y3881
X18499Y3881
X16719Y3881
X15499Y3881
X13719Y3881
X12499Y3881
X10719Y3881
X9499Y3881
X7719Y3881
X6499Y3881
X4719Y3881
X3889Y4711
X3889Y6491
X3889Y7711
X3889Y9491
X3889Y10711
X3889Y12491
X3889Y13711
X3889Y15491
X3889Y16711
X3889Y18491
X3889Y19711
X3889Y21491
X3889Y22711
X3889Y24491
X3889Y25711
X3889Y27491
X1329Y27491
X1329Y25711
X1329Y24491
X1329Y22711
X1329Y21491
X1329Y19711
X1329Y18491
X1329Y16711
X1329Y15491
X1329Y13711
X1329Y12491
X1329Y10711
X1329Y9491
X1329Y7711
X1329Y6491
X1329Y4711
X4719Y1321
X6499Y1321
X7719Y1321
X9499Y1321
X10719Y1321
X12499Y1321
X13719Y1321
X15499Y1321
X16719Y1321
X18499Y1321
X19719Y1321
X21499Y1321
X22719Y1321
X24499Y1321
X25719Y1321
X27499Y1321
X27499Y3881
X25719Y3881
X24499Y3881
X29609Y12101
X29609Y13101
X29609Y14101
X29609Y15101
X29609Y16101
X29609Y17101
X29609Y18101
X29609Y19101
X26109Y30101
X25109Y30101
X24109Y30101
X23109Y30101
X22109Y30101
X21109Y30101
X20109Y30101
X19109Y30101
X15109Y30101
X14109Y30101
X13109Y30101
X12109Y30101
X11109Y30101
X10109Y30101
X9109Y30101
X8109Y30101
T04
X2609Y2601
X2609Y29601
X29609Y29601
X29609Y2601
M30
