G75*
G70*
%OFA0B0*%
%FSLAX24Y24*%
%IPPOS*%
%LPD*%
%AMOC8*
5,1,8,0,0,1.08239X$1,22.5*
%
%ADD10C,0.0060*%
%ADD11C,0.0020*%
%ADD12C,0.0050*%
%ADD13R,0.0200X0.0800*%
%ADD14R,0.0250X0.0200*%
%ADD15C,0.0080*%
D10*
X004351Y001613D02*
X004601Y001363D01*
X005101Y001363D01*
X005351Y001613D01*
X005601Y001363D01*
X006101Y001363D01*
X006351Y001613D01*
X006351Y002113D01*
X006101Y002363D01*
X005601Y002363D01*
X005351Y002113D01*
X005351Y001613D01*
X005351Y002113D02*
X005101Y002363D01*
X004601Y002363D01*
X004351Y002113D01*
X004351Y001613D01*
X006351Y001613D02*
X006601Y001363D01*
X007101Y001363D01*
X007351Y001613D01*
X007601Y001363D01*
X008101Y001363D01*
X008351Y001613D01*
X008601Y001363D01*
X009101Y001363D01*
X009351Y001613D01*
X009351Y002113D01*
X009101Y002363D01*
X008601Y002363D01*
X008351Y002113D01*
X008351Y001613D01*
X007351Y001613D02*
X007351Y002113D01*
X007601Y002363D01*
X008101Y002363D01*
X008351Y002113D01*
X007351Y002113D02*
X007101Y002363D01*
X006601Y002363D01*
X006351Y002113D01*
X009351Y002113D02*
X009601Y002363D01*
X010101Y002363D01*
X010351Y002113D01*
X010601Y002363D01*
X011101Y002363D01*
X011351Y002113D01*
X011601Y002363D01*
X012101Y002363D01*
X012351Y002113D01*
X012351Y001613D01*
X012101Y001363D01*
X011601Y001363D01*
X011351Y001613D01*
X011101Y001363D01*
X010601Y001363D01*
X010351Y001613D01*
X010101Y001363D01*
X009601Y001363D01*
X009351Y001613D01*
X010351Y001613D02*
X010351Y002113D01*
X011351Y002113D02*
X011351Y001613D01*
X013451Y002113D02*
X013453Y002180D01*
X013459Y002248D01*
X013469Y002315D01*
X013483Y002381D01*
X013500Y002446D01*
X013522Y002510D01*
X013547Y002573D01*
X013576Y002634D01*
X013608Y002693D01*
X013644Y002750D01*
X013683Y002805D01*
X013725Y002858D01*
X013770Y002908D01*
X013818Y002955D01*
X013869Y003000D01*
X013922Y003041D01*
X013978Y003080D01*
X014036Y003115D01*
X014096Y003146D01*
X014157Y003174D01*
X014220Y003198D01*
X014284Y003219D01*
X014350Y003235D01*
X014416Y003248D01*
X014483Y003257D01*
X014550Y003262D01*
X014618Y003263D01*
X014685Y003260D01*
X014752Y003253D01*
X014819Y003242D01*
X014885Y003227D01*
X014950Y003209D01*
X015014Y003186D01*
X015076Y003160D01*
X015137Y003131D01*
X015195Y003097D01*
X015252Y003061D01*
X015307Y003021D01*
X015359Y002978D01*
X015408Y002932D01*
X015455Y002883D01*
X015499Y002832D01*
X015539Y002778D01*
X015577Y002722D01*
X015611Y002663D01*
X015641Y002603D01*
X015668Y002541D01*
X015692Y002478D01*
X015711Y002413D01*
X015727Y002348D01*
X015739Y002281D01*
X015747Y002214D01*
X015751Y002147D01*
X015751Y002079D01*
X015747Y002012D01*
X015739Y001945D01*
X015727Y001878D01*
X015711Y001813D01*
X015692Y001748D01*
X015668Y001685D01*
X015641Y001623D01*
X015611Y001563D01*
X015577Y001504D01*
X015539Y001448D01*
X015499Y001394D01*
X015455Y001343D01*
X015408Y001294D01*
X015359Y001248D01*
X015307Y001205D01*
X015252Y001165D01*
X015195Y001129D01*
X015137Y001095D01*
X015076Y001066D01*
X015014Y001040D01*
X014950Y001017D01*
X014885Y000999D01*
X014819Y000984D01*
X014752Y000973D01*
X014685Y000966D01*
X014618Y000963D01*
X014550Y000964D01*
X014483Y000969D01*
X014416Y000978D01*
X014350Y000991D01*
X014284Y001007D01*
X014220Y001028D01*
X014157Y001052D01*
X014096Y001080D01*
X014036Y001111D01*
X013978Y001146D01*
X013922Y001185D01*
X013869Y001226D01*
X013818Y001271D01*
X013770Y001318D01*
X013725Y001368D01*
X013683Y001421D01*
X013644Y001476D01*
X013608Y001533D01*
X013576Y001592D01*
X013547Y001653D01*
X013522Y001716D01*
X013500Y001780D01*
X013483Y001845D01*
X013469Y001911D01*
X013459Y001978D01*
X013453Y002046D01*
X013451Y002113D01*
X017451Y001663D02*
X017451Y001063D01*
X017453Y001046D01*
X017457Y001029D01*
X017464Y001013D01*
X017474Y000999D01*
X017487Y000986D01*
X017501Y000976D01*
X017517Y000969D01*
X017534Y000965D01*
X017551Y000963D01*
X019151Y000963D01*
X019168Y000965D01*
X019185Y000969D01*
X019201Y000976D01*
X019215Y000986D01*
X019228Y000999D01*
X019238Y001013D01*
X019245Y001029D01*
X019249Y001046D01*
X019251Y001063D01*
X019251Y001663D01*
X019249Y001680D01*
X019245Y001697D01*
X019238Y001713D01*
X019228Y001727D01*
X019215Y001740D01*
X019201Y001750D01*
X019185Y001757D01*
X019168Y001761D01*
X019151Y001763D01*
X017551Y001763D01*
X017534Y001761D01*
X017517Y001757D01*
X017501Y001750D01*
X017487Y001740D01*
X017474Y001727D01*
X017464Y001713D01*
X017457Y001697D01*
X017453Y001680D01*
X017451Y001663D01*
X018101Y001363D02*
X018351Y001363D01*
X018351Y001113D01*
X018351Y001363D02*
X018351Y001613D01*
X018351Y001363D02*
X018751Y001613D01*
X018751Y001113D01*
X018351Y001363D01*
X018951Y001363D01*
X020251Y001913D02*
X020601Y001913D01*
X021551Y001913D01*
X021951Y001913D01*
X023451Y001663D02*
X023451Y001063D01*
X023453Y001046D01*
X023457Y001029D01*
X023464Y001013D01*
X023474Y000999D01*
X023487Y000986D01*
X023501Y000976D01*
X023517Y000969D01*
X023534Y000965D01*
X023551Y000963D01*
X025151Y000963D01*
X025168Y000965D01*
X025185Y000969D01*
X025201Y000976D01*
X025215Y000986D01*
X025228Y000999D01*
X025238Y001013D01*
X025245Y001029D01*
X025249Y001046D01*
X025251Y001063D01*
X025251Y001663D01*
X025249Y001680D01*
X025245Y001697D01*
X025238Y001713D01*
X025228Y001727D01*
X025215Y001740D01*
X025201Y001750D01*
X025185Y001757D01*
X025168Y001761D01*
X025151Y001763D01*
X023551Y001763D01*
X023534Y001761D01*
X023517Y001757D01*
X023501Y001750D01*
X023487Y001740D01*
X023474Y001727D01*
X023464Y001713D01*
X023457Y001697D01*
X023453Y001680D01*
X023451Y001663D01*
X024101Y001363D02*
X024351Y001363D01*
X024351Y001113D01*
X024351Y001363D02*
X024351Y001613D01*
X024351Y001363D02*
X024751Y001613D01*
X024751Y001113D01*
X024351Y001363D01*
X024951Y001363D01*
X026251Y001913D02*
X026601Y001913D01*
X027551Y001913D01*
X027951Y001913D01*
X028301Y002713D02*
X028301Y002813D01*
X028401Y002813D01*
X028401Y003413D01*
X028301Y003413D01*
X028301Y003513D01*
X027001Y003113D02*
X027003Y003133D01*
X027009Y003151D01*
X027018Y003169D01*
X027030Y003184D01*
X027045Y003196D01*
X027063Y003205D01*
X027081Y003211D01*
X027101Y003213D01*
X027121Y003211D01*
X027139Y003205D01*
X027157Y003196D01*
X027172Y003184D01*
X027184Y003169D01*
X027193Y003151D01*
X027199Y003133D01*
X027201Y003113D01*
X027199Y003093D01*
X027193Y003075D01*
X027184Y003057D01*
X027172Y003042D01*
X027157Y003030D01*
X027139Y003021D01*
X027121Y003015D01*
X027101Y003013D01*
X027081Y003015D01*
X027063Y003021D01*
X027045Y003030D01*
X027030Y003042D01*
X027018Y003057D01*
X027009Y003075D01*
X027003Y003093D01*
X027001Y003113D01*
X026401Y003113D02*
X026403Y003165D01*
X026409Y003217D01*
X026419Y003269D01*
X026432Y003319D01*
X026449Y003369D01*
X026470Y003417D01*
X026495Y003463D01*
X026523Y003507D01*
X026554Y003549D01*
X026588Y003589D01*
X026625Y003626D01*
X026665Y003660D01*
X026707Y003691D01*
X026751Y003719D01*
X026797Y003744D01*
X026845Y003765D01*
X026895Y003782D01*
X026945Y003795D01*
X026997Y003805D01*
X027049Y003811D01*
X027101Y003813D01*
X027153Y003811D01*
X027205Y003805D01*
X027257Y003795D01*
X027307Y003782D01*
X027357Y003765D01*
X027405Y003744D01*
X027451Y003719D01*
X027495Y003691D01*
X027537Y003660D01*
X027577Y003626D01*
X027614Y003589D01*
X027648Y003549D01*
X027679Y003507D01*
X027707Y003463D01*
X027732Y003417D01*
X027753Y003369D01*
X027770Y003319D01*
X027783Y003269D01*
X027793Y003217D01*
X027799Y003165D01*
X027801Y003113D01*
X027799Y003061D01*
X027793Y003009D01*
X027783Y002957D01*
X027770Y002907D01*
X027753Y002857D01*
X027732Y002809D01*
X027707Y002763D01*
X027679Y002719D01*
X027648Y002677D01*
X027614Y002637D01*
X027577Y002600D01*
X027537Y002566D01*
X027495Y002535D01*
X027451Y002507D01*
X027405Y002482D01*
X027357Y002461D01*
X027307Y002444D01*
X027257Y002431D01*
X027205Y002421D01*
X027153Y002415D01*
X027101Y002413D01*
X027049Y002415D01*
X026997Y002421D01*
X026945Y002431D01*
X026895Y002444D01*
X026845Y002461D01*
X026797Y002482D01*
X026751Y002507D01*
X026707Y002535D01*
X026665Y002566D01*
X026625Y002600D01*
X026588Y002637D01*
X026554Y002677D01*
X026523Y002719D01*
X026495Y002763D01*
X026470Y002809D01*
X026449Y002857D01*
X026432Y002907D01*
X026419Y002957D01*
X026409Y003009D01*
X026403Y003061D01*
X026401Y003113D01*
X025901Y003413D02*
X025801Y003413D01*
X025801Y002813D01*
X025901Y002813D01*
X025901Y002713D01*
X025901Y003413D02*
X025901Y003513D01*
X026251Y004313D02*
X026601Y004313D01*
X027601Y004313D01*
X027951Y004313D01*
X031801Y003413D02*
X031801Y002813D01*
X031901Y002813D01*
X031901Y002713D01*
X033001Y003113D02*
X033003Y003133D01*
X033009Y003151D01*
X033018Y003169D01*
X033030Y003184D01*
X033045Y003196D01*
X033063Y003205D01*
X033081Y003211D01*
X033101Y003213D01*
X033121Y003211D01*
X033139Y003205D01*
X033157Y003196D01*
X033172Y003184D01*
X033184Y003169D01*
X033193Y003151D01*
X033199Y003133D01*
X033201Y003113D01*
X033199Y003093D01*
X033193Y003075D01*
X033184Y003057D01*
X033172Y003042D01*
X033157Y003030D01*
X033139Y003021D01*
X033121Y003015D01*
X033101Y003013D01*
X033081Y003015D01*
X033063Y003021D01*
X033045Y003030D01*
X033030Y003042D01*
X033018Y003057D01*
X033009Y003075D01*
X033003Y003093D01*
X033001Y003113D01*
X032401Y003113D02*
X032403Y003165D01*
X032409Y003217D01*
X032419Y003269D01*
X032432Y003319D01*
X032449Y003369D01*
X032470Y003417D01*
X032495Y003463D01*
X032523Y003507D01*
X032554Y003549D01*
X032588Y003589D01*
X032625Y003626D01*
X032665Y003660D01*
X032707Y003691D01*
X032751Y003719D01*
X032797Y003744D01*
X032845Y003765D01*
X032895Y003782D01*
X032945Y003795D01*
X032997Y003805D01*
X033049Y003811D01*
X033101Y003813D01*
X033153Y003811D01*
X033205Y003805D01*
X033257Y003795D01*
X033307Y003782D01*
X033357Y003765D01*
X033405Y003744D01*
X033451Y003719D01*
X033495Y003691D01*
X033537Y003660D01*
X033577Y003626D01*
X033614Y003589D01*
X033648Y003549D01*
X033679Y003507D01*
X033707Y003463D01*
X033732Y003417D01*
X033753Y003369D01*
X033770Y003319D01*
X033783Y003269D01*
X033793Y003217D01*
X033799Y003165D01*
X033801Y003113D01*
X033799Y003061D01*
X033793Y003009D01*
X033783Y002957D01*
X033770Y002907D01*
X033753Y002857D01*
X033732Y002809D01*
X033707Y002763D01*
X033679Y002719D01*
X033648Y002677D01*
X033614Y002637D01*
X033577Y002600D01*
X033537Y002566D01*
X033495Y002535D01*
X033451Y002507D01*
X033405Y002482D01*
X033357Y002461D01*
X033307Y002444D01*
X033257Y002431D01*
X033205Y002421D01*
X033153Y002415D01*
X033101Y002413D01*
X033049Y002415D01*
X032997Y002421D01*
X032945Y002431D01*
X032895Y002444D01*
X032845Y002461D01*
X032797Y002482D01*
X032751Y002507D01*
X032707Y002535D01*
X032665Y002566D01*
X032625Y002600D01*
X032588Y002637D01*
X032554Y002677D01*
X032523Y002719D01*
X032495Y002763D01*
X032470Y002809D01*
X032449Y002857D01*
X032432Y002907D01*
X032419Y002957D01*
X032409Y003009D01*
X032403Y003061D01*
X032401Y003113D01*
X031901Y003413D02*
X031901Y003513D01*
X031901Y003413D02*
X031801Y003413D01*
X032251Y004313D02*
X032601Y004313D01*
X033601Y004313D01*
X033951Y004313D01*
X034301Y003513D02*
X034301Y003413D01*
X034401Y003413D01*
X034401Y002813D01*
X034301Y002813D01*
X034301Y002713D01*
X033951Y001913D02*
X033551Y001913D01*
X032601Y001913D01*
X032251Y001913D01*
X031251Y001663D02*
X031251Y001063D01*
X031249Y001046D01*
X031245Y001029D01*
X031238Y001013D01*
X031228Y000999D01*
X031215Y000986D01*
X031201Y000976D01*
X031185Y000969D01*
X031168Y000965D01*
X031151Y000963D01*
X029551Y000963D01*
X029534Y000965D01*
X029517Y000969D01*
X029501Y000976D01*
X029487Y000986D01*
X029474Y000999D01*
X029464Y001013D01*
X029457Y001029D01*
X029453Y001046D01*
X029451Y001063D01*
X029451Y001663D01*
X029453Y001680D01*
X029457Y001697D01*
X029464Y001713D01*
X029474Y001727D01*
X029487Y001740D01*
X029501Y001750D01*
X029517Y001757D01*
X029534Y001761D01*
X029551Y001763D01*
X031151Y001763D01*
X031168Y001761D01*
X031185Y001757D01*
X031201Y001750D01*
X031215Y001740D01*
X031228Y001727D01*
X031238Y001713D01*
X031245Y001697D01*
X031249Y001680D01*
X031251Y001663D01*
X030951Y001363D02*
X030351Y001363D01*
X030351Y001113D01*
X030351Y001363D02*
X030751Y001113D01*
X030751Y001613D01*
X030351Y001363D01*
X030351Y001613D01*
X030351Y001363D02*
X030101Y001363D01*
X035451Y001663D02*
X035451Y001063D01*
X035453Y001046D01*
X035457Y001029D01*
X035464Y001013D01*
X035474Y000999D01*
X035487Y000986D01*
X035501Y000976D01*
X035517Y000969D01*
X035534Y000965D01*
X035551Y000963D01*
X037151Y000963D01*
X037168Y000965D01*
X037185Y000969D01*
X037201Y000976D01*
X037215Y000986D01*
X037228Y000999D01*
X037238Y001013D01*
X037245Y001029D01*
X037249Y001046D01*
X037251Y001063D01*
X037251Y001663D01*
X037249Y001680D01*
X037245Y001697D01*
X037238Y001713D01*
X037228Y001727D01*
X037215Y001740D01*
X037201Y001750D01*
X037185Y001757D01*
X037168Y001761D01*
X037151Y001763D01*
X035551Y001763D01*
X035534Y001761D01*
X035517Y001757D01*
X035501Y001750D01*
X035487Y001740D01*
X035474Y001727D01*
X035464Y001713D01*
X035457Y001697D01*
X035453Y001680D01*
X035451Y001663D01*
X036101Y001363D02*
X036351Y001363D01*
X036351Y001113D01*
X036351Y001363D02*
X036351Y001613D01*
X036351Y001363D02*
X036751Y001613D01*
X036751Y001113D01*
X036351Y001363D01*
X036951Y001363D01*
X038251Y001913D02*
X038601Y001913D01*
X039551Y001913D01*
X039951Y001913D01*
X040301Y002713D02*
X040301Y002813D01*
X040401Y002813D01*
X040401Y003413D01*
X040301Y003413D01*
X040301Y003513D01*
X039001Y003113D02*
X039003Y003133D01*
X039009Y003151D01*
X039018Y003169D01*
X039030Y003184D01*
X039045Y003196D01*
X039063Y003205D01*
X039081Y003211D01*
X039101Y003213D01*
X039121Y003211D01*
X039139Y003205D01*
X039157Y003196D01*
X039172Y003184D01*
X039184Y003169D01*
X039193Y003151D01*
X039199Y003133D01*
X039201Y003113D01*
X039199Y003093D01*
X039193Y003075D01*
X039184Y003057D01*
X039172Y003042D01*
X039157Y003030D01*
X039139Y003021D01*
X039121Y003015D01*
X039101Y003013D01*
X039081Y003015D01*
X039063Y003021D01*
X039045Y003030D01*
X039030Y003042D01*
X039018Y003057D01*
X039009Y003075D01*
X039003Y003093D01*
X039001Y003113D01*
X038401Y003113D02*
X038403Y003165D01*
X038409Y003217D01*
X038419Y003269D01*
X038432Y003319D01*
X038449Y003369D01*
X038470Y003417D01*
X038495Y003463D01*
X038523Y003507D01*
X038554Y003549D01*
X038588Y003589D01*
X038625Y003626D01*
X038665Y003660D01*
X038707Y003691D01*
X038751Y003719D01*
X038797Y003744D01*
X038845Y003765D01*
X038895Y003782D01*
X038945Y003795D01*
X038997Y003805D01*
X039049Y003811D01*
X039101Y003813D01*
X039153Y003811D01*
X039205Y003805D01*
X039257Y003795D01*
X039307Y003782D01*
X039357Y003765D01*
X039405Y003744D01*
X039451Y003719D01*
X039495Y003691D01*
X039537Y003660D01*
X039577Y003626D01*
X039614Y003589D01*
X039648Y003549D01*
X039679Y003507D01*
X039707Y003463D01*
X039732Y003417D01*
X039753Y003369D01*
X039770Y003319D01*
X039783Y003269D01*
X039793Y003217D01*
X039799Y003165D01*
X039801Y003113D01*
X039799Y003061D01*
X039793Y003009D01*
X039783Y002957D01*
X039770Y002907D01*
X039753Y002857D01*
X039732Y002809D01*
X039707Y002763D01*
X039679Y002719D01*
X039648Y002677D01*
X039614Y002637D01*
X039577Y002600D01*
X039537Y002566D01*
X039495Y002535D01*
X039451Y002507D01*
X039405Y002482D01*
X039357Y002461D01*
X039307Y002444D01*
X039257Y002431D01*
X039205Y002421D01*
X039153Y002415D01*
X039101Y002413D01*
X039049Y002415D01*
X038997Y002421D01*
X038945Y002431D01*
X038895Y002444D01*
X038845Y002461D01*
X038797Y002482D01*
X038751Y002507D01*
X038707Y002535D01*
X038665Y002566D01*
X038625Y002600D01*
X038588Y002637D01*
X038554Y002677D01*
X038523Y002719D01*
X038495Y002763D01*
X038470Y002809D01*
X038449Y002857D01*
X038432Y002907D01*
X038419Y002957D01*
X038409Y003009D01*
X038403Y003061D01*
X038401Y003113D01*
X037901Y003413D02*
X037901Y003513D01*
X037901Y003413D02*
X037801Y003413D01*
X037801Y002813D01*
X037901Y002813D01*
X037901Y002713D01*
X038251Y004313D02*
X038601Y004313D01*
X039601Y004313D01*
X039951Y004313D01*
X044051Y003413D02*
X044051Y002813D01*
X044151Y002813D01*
X044151Y002713D01*
X045251Y003113D02*
X045253Y003133D01*
X045259Y003151D01*
X045268Y003169D01*
X045280Y003184D01*
X045295Y003196D01*
X045313Y003205D01*
X045331Y003211D01*
X045351Y003213D01*
X045371Y003211D01*
X045389Y003205D01*
X045407Y003196D01*
X045422Y003184D01*
X045434Y003169D01*
X045443Y003151D01*
X045449Y003133D01*
X045451Y003113D01*
X045449Y003093D01*
X045443Y003075D01*
X045434Y003057D01*
X045422Y003042D01*
X045407Y003030D01*
X045389Y003021D01*
X045371Y003015D01*
X045351Y003013D01*
X045331Y003015D01*
X045313Y003021D01*
X045295Y003030D01*
X045280Y003042D01*
X045268Y003057D01*
X045259Y003075D01*
X045253Y003093D01*
X045251Y003113D01*
X044651Y003113D02*
X044653Y003165D01*
X044659Y003217D01*
X044669Y003269D01*
X044682Y003319D01*
X044699Y003369D01*
X044720Y003417D01*
X044745Y003463D01*
X044773Y003507D01*
X044804Y003549D01*
X044838Y003589D01*
X044875Y003626D01*
X044915Y003660D01*
X044957Y003691D01*
X045001Y003719D01*
X045047Y003744D01*
X045095Y003765D01*
X045145Y003782D01*
X045195Y003795D01*
X045247Y003805D01*
X045299Y003811D01*
X045351Y003813D01*
X045403Y003811D01*
X045455Y003805D01*
X045507Y003795D01*
X045557Y003782D01*
X045607Y003765D01*
X045655Y003744D01*
X045701Y003719D01*
X045745Y003691D01*
X045787Y003660D01*
X045827Y003626D01*
X045864Y003589D01*
X045898Y003549D01*
X045929Y003507D01*
X045957Y003463D01*
X045982Y003417D01*
X046003Y003369D01*
X046020Y003319D01*
X046033Y003269D01*
X046043Y003217D01*
X046049Y003165D01*
X046051Y003113D01*
X046049Y003061D01*
X046043Y003009D01*
X046033Y002957D01*
X046020Y002907D01*
X046003Y002857D01*
X045982Y002809D01*
X045957Y002763D01*
X045929Y002719D01*
X045898Y002677D01*
X045864Y002637D01*
X045827Y002600D01*
X045787Y002566D01*
X045745Y002535D01*
X045701Y002507D01*
X045655Y002482D01*
X045607Y002461D01*
X045557Y002444D01*
X045507Y002431D01*
X045455Y002421D01*
X045403Y002415D01*
X045351Y002413D01*
X045299Y002415D01*
X045247Y002421D01*
X045195Y002431D01*
X045145Y002444D01*
X045095Y002461D01*
X045047Y002482D01*
X045001Y002507D01*
X044957Y002535D01*
X044915Y002566D01*
X044875Y002600D01*
X044838Y002637D01*
X044804Y002677D01*
X044773Y002719D01*
X044745Y002763D01*
X044720Y002809D01*
X044699Y002857D01*
X044682Y002907D01*
X044669Y002957D01*
X044659Y003009D01*
X044653Y003061D01*
X044651Y003113D01*
X044151Y003413D02*
X044151Y003513D01*
X044151Y003413D02*
X044051Y003413D01*
X044501Y004313D02*
X044851Y004313D01*
X045851Y004313D01*
X046201Y004313D01*
X046551Y003513D02*
X046551Y003413D01*
X046651Y003413D01*
X046651Y002813D01*
X046551Y002813D01*
X046551Y002713D01*
X046201Y001913D02*
X045801Y001913D01*
X044851Y001913D01*
X044501Y001913D01*
X043501Y001663D02*
X043501Y001063D01*
X043499Y001046D01*
X043495Y001029D01*
X043488Y001013D01*
X043478Y000999D01*
X043465Y000986D01*
X043451Y000976D01*
X043435Y000969D01*
X043418Y000965D01*
X043401Y000963D01*
X041801Y000963D01*
X041784Y000965D01*
X041767Y000969D01*
X041751Y000976D01*
X041737Y000986D01*
X041724Y000999D01*
X041714Y001013D01*
X041707Y001029D01*
X041703Y001046D01*
X041701Y001063D01*
X041701Y001663D01*
X041703Y001680D01*
X041707Y001697D01*
X041714Y001713D01*
X041724Y001727D01*
X041737Y001740D01*
X041751Y001750D01*
X041767Y001757D01*
X041784Y001761D01*
X041801Y001763D01*
X043401Y001763D01*
X043418Y001761D01*
X043435Y001757D01*
X043451Y001750D01*
X043465Y001740D01*
X043478Y001727D01*
X043488Y001713D01*
X043495Y001697D01*
X043499Y001680D01*
X043501Y001663D01*
X043201Y001363D02*
X042601Y001363D01*
X042601Y001113D01*
X042601Y001363D02*
X042601Y001613D01*
X042601Y001363D02*
X043001Y001613D01*
X043001Y001113D01*
X042601Y001363D01*
X042351Y001363D01*
X049701Y002113D02*
X049703Y002180D01*
X049709Y002248D01*
X049719Y002315D01*
X049733Y002381D01*
X049750Y002446D01*
X049772Y002510D01*
X049797Y002573D01*
X049826Y002634D01*
X049858Y002693D01*
X049894Y002750D01*
X049933Y002805D01*
X049975Y002858D01*
X050020Y002908D01*
X050068Y002955D01*
X050119Y003000D01*
X050172Y003041D01*
X050228Y003080D01*
X050286Y003115D01*
X050346Y003146D01*
X050407Y003174D01*
X050470Y003198D01*
X050534Y003219D01*
X050600Y003235D01*
X050666Y003248D01*
X050733Y003257D01*
X050800Y003262D01*
X050868Y003263D01*
X050935Y003260D01*
X051002Y003253D01*
X051069Y003242D01*
X051135Y003227D01*
X051200Y003209D01*
X051264Y003186D01*
X051326Y003160D01*
X051387Y003131D01*
X051445Y003097D01*
X051502Y003061D01*
X051557Y003021D01*
X051609Y002978D01*
X051658Y002932D01*
X051705Y002883D01*
X051749Y002832D01*
X051789Y002778D01*
X051827Y002722D01*
X051861Y002663D01*
X051891Y002603D01*
X051918Y002541D01*
X051942Y002478D01*
X051961Y002413D01*
X051977Y002348D01*
X051989Y002281D01*
X051997Y002214D01*
X052001Y002147D01*
X052001Y002079D01*
X051997Y002012D01*
X051989Y001945D01*
X051977Y001878D01*
X051961Y001813D01*
X051942Y001748D01*
X051918Y001685D01*
X051891Y001623D01*
X051861Y001563D01*
X051827Y001504D01*
X051789Y001448D01*
X051749Y001394D01*
X051705Y001343D01*
X051658Y001294D01*
X051609Y001248D01*
X051557Y001205D01*
X051502Y001165D01*
X051445Y001129D01*
X051387Y001095D01*
X051326Y001066D01*
X051264Y001040D01*
X051200Y001017D01*
X051135Y000999D01*
X051069Y000984D01*
X051002Y000973D01*
X050935Y000966D01*
X050868Y000963D01*
X050800Y000964D01*
X050733Y000969D01*
X050666Y000978D01*
X050600Y000991D01*
X050534Y001007D01*
X050470Y001028D01*
X050407Y001052D01*
X050346Y001080D01*
X050286Y001111D01*
X050228Y001146D01*
X050172Y001185D01*
X050119Y001226D01*
X050068Y001271D01*
X050020Y001318D01*
X049975Y001368D01*
X049933Y001421D01*
X049894Y001476D01*
X049858Y001533D01*
X049826Y001592D01*
X049797Y001653D01*
X049772Y001716D01*
X049750Y001780D01*
X049733Y001845D01*
X049719Y001911D01*
X049709Y001978D01*
X049703Y002046D01*
X049701Y002113D01*
X052751Y002363D02*
X052753Y002436D01*
X052759Y002509D01*
X052769Y002581D01*
X052783Y002653D01*
X052800Y002724D01*
X052822Y002794D01*
X052847Y002863D01*
X052876Y002930D01*
X052908Y002995D01*
X052944Y003059D01*
X052984Y003121D01*
X053026Y003180D01*
X053072Y003237D01*
X053121Y003291D01*
X053173Y003343D01*
X053227Y003392D01*
X053284Y003438D01*
X053343Y003480D01*
X053405Y003520D01*
X053469Y003556D01*
X053534Y003588D01*
X053601Y003617D01*
X053670Y003642D01*
X053740Y003664D01*
X053811Y003681D01*
X053883Y003695D01*
X053955Y003705D01*
X054028Y003711D01*
X054101Y003713D01*
X054174Y003711D01*
X054247Y003705D01*
X054319Y003695D01*
X054391Y003681D01*
X054462Y003664D01*
X054532Y003642D01*
X054601Y003617D01*
X054668Y003588D01*
X054733Y003556D01*
X054797Y003520D01*
X054859Y003480D01*
X054918Y003438D01*
X054975Y003392D01*
X055029Y003343D01*
X055081Y003291D01*
X055130Y003237D01*
X055176Y003180D01*
X055218Y003121D01*
X055258Y003059D01*
X055294Y002995D01*
X055326Y002930D01*
X055355Y002863D01*
X055380Y002794D01*
X055402Y002724D01*
X055419Y002653D01*
X055433Y002581D01*
X055443Y002509D01*
X055449Y002436D01*
X055451Y002363D01*
X055449Y002290D01*
X055443Y002217D01*
X055433Y002145D01*
X055419Y002073D01*
X055402Y002002D01*
X055380Y001932D01*
X055355Y001863D01*
X055326Y001796D01*
X055294Y001731D01*
X055258Y001667D01*
X055218Y001605D01*
X055176Y001546D01*
X055130Y001489D01*
X055081Y001435D01*
X055029Y001383D01*
X054975Y001334D01*
X054918Y001288D01*
X054859Y001246D01*
X054797Y001206D01*
X054733Y001170D01*
X054668Y001138D01*
X054601Y001109D01*
X054532Y001084D01*
X054462Y001062D01*
X054391Y001045D01*
X054319Y001031D01*
X054247Y001021D01*
X054174Y001015D01*
X054101Y001013D01*
X054028Y001015D01*
X053955Y001021D01*
X053883Y001031D01*
X053811Y001045D01*
X053740Y001062D01*
X053670Y001084D01*
X053601Y001109D01*
X053534Y001138D01*
X053469Y001170D01*
X053405Y001206D01*
X053343Y001246D01*
X053284Y001288D01*
X053227Y001334D01*
X053173Y001383D01*
X053121Y001435D01*
X053072Y001489D01*
X053026Y001546D01*
X052984Y001605D01*
X052944Y001667D01*
X052908Y001731D01*
X052876Y001796D01*
X052847Y001863D01*
X052822Y001932D01*
X052800Y002002D01*
X052783Y002073D01*
X052769Y002145D01*
X052759Y002217D01*
X052753Y002290D01*
X052751Y002363D01*
X022401Y002813D02*
X022401Y003413D01*
X022301Y003413D01*
X022301Y003513D01*
X021001Y003113D02*
X021003Y003133D01*
X021009Y003151D01*
X021018Y003169D01*
X021030Y003184D01*
X021045Y003196D01*
X021063Y003205D01*
X021081Y003211D01*
X021101Y003213D01*
X021121Y003211D01*
X021139Y003205D01*
X021157Y003196D01*
X021172Y003184D01*
X021184Y003169D01*
X021193Y003151D01*
X021199Y003133D01*
X021201Y003113D01*
X021199Y003093D01*
X021193Y003075D01*
X021184Y003057D01*
X021172Y003042D01*
X021157Y003030D01*
X021139Y003021D01*
X021121Y003015D01*
X021101Y003013D01*
X021081Y003015D01*
X021063Y003021D01*
X021045Y003030D01*
X021030Y003042D01*
X021018Y003057D01*
X021009Y003075D01*
X021003Y003093D01*
X021001Y003113D01*
X020401Y003113D02*
X020403Y003165D01*
X020409Y003217D01*
X020419Y003269D01*
X020432Y003319D01*
X020449Y003369D01*
X020470Y003417D01*
X020495Y003463D01*
X020523Y003507D01*
X020554Y003549D01*
X020588Y003589D01*
X020625Y003626D01*
X020665Y003660D01*
X020707Y003691D01*
X020751Y003719D01*
X020797Y003744D01*
X020845Y003765D01*
X020895Y003782D01*
X020945Y003795D01*
X020997Y003805D01*
X021049Y003811D01*
X021101Y003813D01*
X021153Y003811D01*
X021205Y003805D01*
X021257Y003795D01*
X021307Y003782D01*
X021357Y003765D01*
X021405Y003744D01*
X021451Y003719D01*
X021495Y003691D01*
X021537Y003660D01*
X021577Y003626D01*
X021614Y003589D01*
X021648Y003549D01*
X021679Y003507D01*
X021707Y003463D01*
X021732Y003417D01*
X021753Y003369D01*
X021770Y003319D01*
X021783Y003269D01*
X021793Y003217D01*
X021799Y003165D01*
X021801Y003113D01*
X021799Y003061D01*
X021793Y003009D01*
X021783Y002957D01*
X021770Y002907D01*
X021753Y002857D01*
X021732Y002809D01*
X021707Y002763D01*
X021679Y002719D01*
X021648Y002677D01*
X021614Y002637D01*
X021577Y002600D01*
X021537Y002566D01*
X021495Y002535D01*
X021451Y002507D01*
X021405Y002482D01*
X021357Y002461D01*
X021307Y002444D01*
X021257Y002431D01*
X021205Y002421D01*
X021153Y002415D01*
X021101Y002413D01*
X021049Y002415D01*
X020997Y002421D01*
X020945Y002431D01*
X020895Y002444D01*
X020845Y002461D01*
X020797Y002482D01*
X020751Y002507D01*
X020707Y002535D01*
X020665Y002566D01*
X020625Y002600D01*
X020588Y002637D01*
X020554Y002677D01*
X020523Y002719D01*
X020495Y002763D01*
X020470Y002809D01*
X020449Y002857D01*
X020432Y002907D01*
X020419Y002957D01*
X020409Y003009D01*
X020403Y003061D01*
X020401Y003113D01*
X019901Y003413D02*
X019901Y003513D01*
X019901Y003413D02*
X019801Y003413D01*
X019801Y002813D01*
X019901Y002813D01*
X019901Y002713D01*
X022301Y002713D02*
X022301Y002813D01*
X022401Y002813D01*
X021951Y004313D02*
X021601Y004313D01*
X020601Y004313D01*
X020251Y004313D01*
X011501Y006813D02*
X011501Y007413D01*
X011499Y007430D01*
X011495Y007447D01*
X011488Y007463D01*
X011478Y007477D01*
X011465Y007490D01*
X011451Y007500D01*
X011435Y007507D01*
X011418Y007511D01*
X011401Y007513D01*
X009801Y007513D01*
X009784Y007511D01*
X009767Y007507D01*
X009751Y007500D01*
X009737Y007490D01*
X009724Y007477D01*
X009714Y007463D01*
X009707Y007447D01*
X009703Y007430D01*
X009701Y007413D01*
X009701Y006813D01*
X009703Y006796D01*
X009707Y006779D01*
X009714Y006763D01*
X009724Y006749D01*
X009737Y006736D01*
X009751Y006726D01*
X009767Y006719D01*
X009784Y006715D01*
X009801Y006713D01*
X011401Y006713D01*
X011418Y006715D01*
X011435Y006719D01*
X011451Y006726D01*
X011465Y006736D01*
X011478Y006749D01*
X011488Y006763D01*
X011495Y006779D01*
X011499Y006796D01*
X011501Y006813D01*
X011201Y007113D02*
X010601Y007113D01*
X010601Y006863D01*
X010601Y007113D02*
X010601Y007363D01*
X010601Y007113D02*
X011001Y007363D01*
X011001Y006863D01*
X010601Y007113D01*
X010351Y007113D01*
X010801Y008313D02*
X011401Y008313D01*
X011401Y008413D01*
X011501Y008413D01*
X010801Y008413D02*
X010701Y008413D01*
X010801Y008413D02*
X010801Y008313D01*
X009901Y008763D02*
X009901Y009113D01*
X009901Y010113D01*
X009901Y010463D01*
X010701Y010813D02*
X010801Y010813D01*
X010801Y010913D01*
X011401Y010913D01*
X011401Y010813D01*
X011501Y010813D01*
X012301Y010463D02*
X012301Y010063D01*
X012301Y009113D01*
X012301Y008763D01*
X011001Y009613D02*
X011003Y009633D01*
X011009Y009651D01*
X011018Y009669D01*
X011030Y009684D01*
X011045Y009696D01*
X011063Y009705D01*
X011081Y009711D01*
X011101Y009713D01*
X011121Y009711D01*
X011139Y009705D01*
X011157Y009696D01*
X011172Y009684D01*
X011184Y009669D01*
X011193Y009651D01*
X011199Y009633D01*
X011201Y009613D01*
X011199Y009593D01*
X011193Y009575D01*
X011184Y009557D01*
X011172Y009542D01*
X011157Y009530D01*
X011139Y009521D01*
X011121Y009515D01*
X011101Y009513D01*
X011081Y009515D01*
X011063Y009521D01*
X011045Y009530D01*
X011030Y009542D01*
X011018Y009557D01*
X011009Y009575D01*
X011003Y009593D01*
X011001Y009613D01*
X010401Y009613D02*
X010403Y009665D01*
X010409Y009717D01*
X010419Y009769D01*
X010432Y009819D01*
X010449Y009869D01*
X010470Y009917D01*
X010495Y009963D01*
X010523Y010007D01*
X010554Y010049D01*
X010588Y010089D01*
X010625Y010126D01*
X010665Y010160D01*
X010707Y010191D01*
X010751Y010219D01*
X010797Y010244D01*
X010845Y010265D01*
X010895Y010282D01*
X010945Y010295D01*
X010997Y010305D01*
X011049Y010311D01*
X011101Y010313D01*
X011153Y010311D01*
X011205Y010305D01*
X011257Y010295D01*
X011307Y010282D01*
X011357Y010265D01*
X011405Y010244D01*
X011451Y010219D01*
X011495Y010191D01*
X011537Y010160D01*
X011577Y010126D01*
X011614Y010089D01*
X011648Y010049D01*
X011679Y010007D01*
X011707Y009963D01*
X011732Y009917D01*
X011753Y009869D01*
X011770Y009819D01*
X011783Y009769D01*
X011793Y009717D01*
X011799Y009665D01*
X011801Y009613D01*
X011799Y009561D01*
X011793Y009509D01*
X011783Y009457D01*
X011770Y009407D01*
X011753Y009357D01*
X011732Y009309D01*
X011707Y009263D01*
X011679Y009219D01*
X011648Y009177D01*
X011614Y009137D01*
X011577Y009100D01*
X011537Y009066D01*
X011495Y009035D01*
X011451Y009007D01*
X011405Y008982D01*
X011357Y008961D01*
X011307Y008944D01*
X011257Y008931D01*
X011205Y008921D01*
X011153Y008915D01*
X011101Y008913D01*
X011049Y008915D01*
X010997Y008921D01*
X010945Y008931D01*
X010895Y008944D01*
X010845Y008961D01*
X010797Y008982D01*
X010751Y009007D01*
X010707Y009035D01*
X010665Y009066D01*
X010625Y009100D01*
X010588Y009137D01*
X010554Y009177D01*
X010523Y009219D01*
X010495Y009263D01*
X010470Y009309D01*
X010449Y009357D01*
X010432Y009407D01*
X010419Y009457D01*
X010409Y009509D01*
X010403Y009561D01*
X010401Y009613D01*
X009801Y013713D02*
X011401Y013713D01*
X011418Y013715D01*
X011435Y013719D01*
X011451Y013726D01*
X011465Y013736D01*
X011478Y013749D01*
X011488Y013763D01*
X011495Y013779D01*
X011499Y013796D01*
X011501Y013813D01*
X011501Y014413D01*
X011499Y014430D01*
X011495Y014447D01*
X011488Y014463D01*
X011478Y014477D01*
X011465Y014490D01*
X011451Y014500D01*
X011435Y014507D01*
X011418Y014511D01*
X011401Y014513D01*
X009801Y014513D01*
X009784Y014511D01*
X009767Y014507D01*
X009751Y014500D01*
X009737Y014490D01*
X009724Y014477D01*
X009714Y014463D01*
X009707Y014447D01*
X009703Y014430D01*
X009701Y014413D01*
X009701Y013813D01*
X009703Y013796D01*
X009707Y013779D01*
X009714Y013763D01*
X009724Y013749D01*
X009737Y013736D01*
X009751Y013726D01*
X009767Y013719D01*
X009784Y013715D01*
X009801Y013713D01*
X010601Y013863D02*
X010601Y014113D01*
X010601Y014363D01*
X010601Y014113D02*
X011001Y014363D01*
X011001Y013863D01*
X010601Y014113D01*
X011201Y014113D01*
X010601Y014113D02*
X010351Y014113D01*
X010801Y015313D02*
X011401Y015313D01*
X011401Y015413D01*
X011501Y015413D01*
X010801Y015413D02*
X010801Y015313D01*
X010801Y015413D02*
X010701Y015413D01*
X009901Y015763D02*
X009901Y016113D01*
X009901Y017113D01*
X009901Y017463D01*
X010701Y017813D02*
X010801Y017813D01*
X010801Y017913D01*
X011401Y017913D01*
X011401Y017813D01*
X011501Y017813D01*
X012301Y017463D02*
X012301Y017063D01*
X012301Y016113D01*
X012301Y015763D01*
X011001Y016613D02*
X011003Y016633D01*
X011009Y016651D01*
X011018Y016669D01*
X011030Y016684D01*
X011045Y016696D01*
X011063Y016705D01*
X011081Y016711D01*
X011101Y016713D01*
X011121Y016711D01*
X011139Y016705D01*
X011157Y016696D01*
X011172Y016684D01*
X011184Y016669D01*
X011193Y016651D01*
X011199Y016633D01*
X011201Y016613D01*
X011199Y016593D01*
X011193Y016575D01*
X011184Y016557D01*
X011172Y016542D01*
X011157Y016530D01*
X011139Y016521D01*
X011121Y016515D01*
X011101Y016513D01*
X011081Y016515D01*
X011063Y016521D01*
X011045Y016530D01*
X011030Y016542D01*
X011018Y016557D01*
X011009Y016575D01*
X011003Y016593D01*
X011001Y016613D01*
X010401Y016613D02*
X010403Y016665D01*
X010409Y016717D01*
X010419Y016769D01*
X010432Y016819D01*
X010449Y016869D01*
X010470Y016917D01*
X010495Y016963D01*
X010523Y017007D01*
X010554Y017049D01*
X010588Y017089D01*
X010625Y017126D01*
X010665Y017160D01*
X010707Y017191D01*
X010751Y017219D01*
X010797Y017244D01*
X010845Y017265D01*
X010895Y017282D01*
X010945Y017295D01*
X010997Y017305D01*
X011049Y017311D01*
X011101Y017313D01*
X011153Y017311D01*
X011205Y017305D01*
X011257Y017295D01*
X011307Y017282D01*
X011357Y017265D01*
X011405Y017244D01*
X011451Y017219D01*
X011495Y017191D01*
X011537Y017160D01*
X011577Y017126D01*
X011614Y017089D01*
X011648Y017049D01*
X011679Y017007D01*
X011707Y016963D01*
X011732Y016917D01*
X011753Y016869D01*
X011770Y016819D01*
X011783Y016769D01*
X011793Y016717D01*
X011799Y016665D01*
X011801Y016613D01*
X011799Y016561D01*
X011793Y016509D01*
X011783Y016457D01*
X011770Y016407D01*
X011753Y016357D01*
X011732Y016309D01*
X011707Y016263D01*
X011679Y016219D01*
X011648Y016177D01*
X011614Y016137D01*
X011577Y016100D01*
X011537Y016066D01*
X011495Y016035D01*
X011451Y016007D01*
X011405Y015982D01*
X011357Y015961D01*
X011307Y015944D01*
X011257Y015931D01*
X011205Y015921D01*
X011153Y015915D01*
X011101Y015913D01*
X011049Y015915D01*
X010997Y015921D01*
X010945Y015931D01*
X010895Y015944D01*
X010845Y015961D01*
X010797Y015982D01*
X010751Y016007D01*
X010707Y016035D01*
X010665Y016066D01*
X010625Y016100D01*
X010588Y016137D01*
X010554Y016177D01*
X010523Y016219D01*
X010495Y016263D01*
X010470Y016309D01*
X010449Y016357D01*
X010432Y016407D01*
X010419Y016457D01*
X010409Y016509D01*
X010403Y016561D01*
X010401Y016613D01*
X006351Y018113D02*
X006101Y017863D01*
X005601Y017863D01*
X005351Y018113D01*
X005101Y017863D01*
X004601Y017863D01*
X004351Y018113D01*
X004101Y017863D01*
X003601Y017863D01*
X003351Y018113D01*
X003351Y018613D01*
X003601Y018863D01*
X004101Y018863D01*
X004351Y018613D01*
X004601Y018863D01*
X005101Y018863D01*
X005351Y018613D01*
X005601Y018863D01*
X006101Y018863D01*
X006351Y018613D01*
X006351Y018113D01*
X005351Y018113D02*
X005351Y018613D01*
X004351Y018613D02*
X004351Y018113D01*
X000751Y023363D02*
X000753Y023436D01*
X000759Y023509D01*
X000769Y023581D01*
X000783Y023653D01*
X000800Y023724D01*
X000822Y023794D01*
X000847Y023863D01*
X000876Y023930D01*
X000908Y023995D01*
X000944Y024059D01*
X000984Y024121D01*
X001026Y024180D01*
X001072Y024237D01*
X001121Y024291D01*
X001173Y024343D01*
X001227Y024392D01*
X001284Y024438D01*
X001343Y024480D01*
X001405Y024520D01*
X001469Y024556D01*
X001534Y024588D01*
X001601Y024617D01*
X001670Y024642D01*
X001740Y024664D01*
X001811Y024681D01*
X001883Y024695D01*
X001955Y024705D01*
X002028Y024711D01*
X002101Y024713D01*
X002174Y024711D01*
X002247Y024705D01*
X002319Y024695D01*
X002391Y024681D01*
X002462Y024664D01*
X002532Y024642D01*
X002601Y024617D01*
X002668Y024588D01*
X002733Y024556D01*
X002797Y024520D01*
X002859Y024480D01*
X002918Y024438D01*
X002975Y024392D01*
X003029Y024343D01*
X003081Y024291D01*
X003130Y024237D01*
X003176Y024180D01*
X003218Y024121D01*
X003258Y024059D01*
X003294Y023995D01*
X003326Y023930D01*
X003355Y023863D01*
X003380Y023794D01*
X003402Y023724D01*
X003419Y023653D01*
X003433Y023581D01*
X003443Y023509D01*
X003449Y023436D01*
X003451Y023363D01*
X003449Y023290D01*
X003443Y023217D01*
X003433Y023145D01*
X003419Y023073D01*
X003402Y023002D01*
X003380Y022932D01*
X003355Y022863D01*
X003326Y022796D01*
X003294Y022731D01*
X003258Y022667D01*
X003218Y022605D01*
X003176Y022546D01*
X003130Y022489D01*
X003081Y022435D01*
X003029Y022383D01*
X002975Y022334D01*
X002918Y022288D01*
X002859Y022246D01*
X002797Y022206D01*
X002733Y022170D01*
X002668Y022138D01*
X002601Y022109D01*
X002532Y022084D01*
X002462Y022062D01*
X002391Y022045D01*
X002319Y022031D01*
X002247Y022021D01*
X002174Y022015D01*
X002101Y022013D01*
X002028Y022015D01*
X001955Y022021D01*
X001883Y022031D01*
X001811Y022045D01*
X001740Y022062D01*
X001670Y022084D01*
X001601Y022109D01*
X001534Y022138D01*
X001469Y022170D01*
X001405Y022206D01*
X001343Y022246D01*
X001284Y022288D01*
X001227Y022334D01*
X001173Y022383D01*
X001121Y022435D01*
X001072Y022489D01*
X001026Y022546D01*
X000984Y022605D01*
X000944Y022667D01*
X000908Y022731D01*
X000876Y022796D01*
X000847Y022863D01*
X000822Y022932D01*
X000800Y023002D01*
X000783Y023073D01*
X000769Y023145D01*
X000759Y023217D01*
X000753Y023290D01*
X000751Y023363D01*
X013701Y023613D02*
X013703Y023680D01*
X013709Y023748D01*
X013719Y023815D01*
X013733Y023881D01*
X013750Y023946D01*
X013772Y024010D01*
X013797Y024073D01*
X013826Y024134D01*
X013858Y024193D01*
X013894Y024250D01*
X013933Y024305D01*
X013975Y024358D01*
X014020Y024408D01*
X014068Y024455D01*
X014119Y024500D01*
X014172Y024541D01*
X014228Y024580D01*
X014286Y024615D01*
X014346Y024646D01*
X014407Y024674D01*
X014470Y024698D01*
X014534Y024719D01*
X014600Y024735D01*
X014666Y024748D01*
X014733Y024757D01*
X014800Y024762D01*
X014868Y024763D01*
X014935Y024760D01*
X015002Y024753D01*
X015069Y024742D01*
X015135Y024727D01*
X015200Y024709D01*
X015264Y024686D01*
X015326Y024660D01*
X015387Y024631D01*
X015445Y024597D01*
X015502Y024561D01*
X015557Y024521D01*
X015609Y024478D01*
X015658Y024432D01*
X015705Y024383D01*
X015749Y024332D01*
X015789Y024278D01*
X015827Y024222D01*
X015861Y024163D01*
X015891Y024103D01*
X015918Y024041D01*
X015942Y023978D01*
X015961Y023913D01*
X015977Y023848D01*
X015989Y023781D01*
X015997Y023714D01*
X016001Y023647D01*
X016001Y023579D01*
X015997Y023512D01*
X015989Y023445D01*
X015977Y023378D01*
X015961Y023313D01*
X015942Y023248D01*
X015918Y023185D01*
X015891Y023123D01*
X015861Y023063D01*
X015827Y023004D01*
X015789Y022948D01*
X015749Y022894D01*
X015705Y022843D01*
X015658Y022794D01*
X015609Y022748D01*
X015557Y022705D01*
X015502Y022665D01*
X015445Y022629D01*
X015387Y022595D01*
X015326Y022566D01*
X015264Y022540D01*
X015200Y022517D01*
X015135Y022499D01*
X015069Y022484D01*
X015002Y022473D01*
X014935Y022466D01*
X014868Y022463D01*
X014800Y022464D01*
X014733Y022469D01*
X014666Y022478D01*
X014600Y022491D01*
X014534Y022507D01*
X014470Y022528D01*
X014407Y022552D01*
X014346Y022580D01*
X014286Y022611D01*
X014228Y022646D01*
X014172Y022685D01*
X014119Y022726D01*
X014068Y022771D01*
X014020Y022818D01*
X013975Y022868D01*
X013933Y022921D01*
X013894Y022976D01*
X013858Y023033D01*
X013826Y023092D01*
X013797Y023153D01*
X013772Y023216D01*
X013750Y023280D01*
X013733Y023345D01*
X013719Y023411D01*
X013709Y023478D01*
X013703Y023546D01*
X013701Y023613D01*
X022801Y022913D02*
X022801Y022313D01*
X022901Y022313D01*
X022901Y022213D01*
X024001Y022613D02*
X024003Y022633D01*
X024009Y022651D01*
X024018Y022669D01*
X024030Y022684D01*
X024045Y022696D01*
X024063Y022705D01*
X024081Y022711D01*
X024101Y022713D01*
X024121Y022711D01*
X024139Y022705D01*
X024157Y022696D01*
X024172Y022684D01*
X024184Y022669D01*
X024193Y022651D01*
X024199Y022633D01*
X024201Y022613D01*
X024199Y022593D01*
X024193Y022575D01*
X024184Y022557D01*
X024172Y022542D01*
X024157Y022530D01*
X024139Y022521D01*
X024121Y022515D01*
X024101Y022513D01*
X024081Y022515D01*
X024063Y022521D01*
X024045Y022530D01*
X024030Y022542D01*
X024018Y022557D01*
X024009Y022575D01*
X024003Y022593D01*
X024001Y022613D01*
X023401Y022613D02*
X023403Y022665D01*
X023409Y022717D01*
X023419Y022769D01*
X023432Y022819D01*
X023449Y022869D01*
X023470Y022917D01*
X023495Y022963D01*
X023523Y023007D01*
X023554Y023049D01*
X023588Y023089D01*
X023625Y023126D01*
X023665Y023160D01*
X023707Y023191D01*
X023751Y023219D01*
X023797Y023244D01*
X023845Y023265D01*
X023895Y023282D01*
X023945Y023295D01*
X023997Y023305D01*
X024049Y023311D01*
X024101Y023313D01*
X024153Y023311D01*
X024205Y023305D01*
X024257Y023295D01*
X024307Y023282D01*
X024357Y023265D01*
X024405Y023244D01*
X024451Y023219D01*
X024495Y023191D01*
X024537Y023160D01*
X024577Y023126D01*
X024614Y023089D01*
X024648Y023049D01*
X024679Y023007D01*
X024707Y022963D01*
X024732Y022917D01*
X024753Y022869D01*
X024770Y022819D01*
X024783Y022769D01*
X024793Y022717D01*
X024799Y022665D01*
X024801Y022613D01*
X024799Y022561D01*
X024793Y022509D01*
X024783Y022457D01*
X024770Y022407D01*
X024753Y022357D01*
X024732Y022309D01*
X024707Y022263D01*
X024679Y022219D01*
X024648Y022177D01*
X024614Y022137D01*
X024577Y022100D01*
X024537Y022066D01*
X024495Y022035D01*
X024451Y022007D01*
X024405Y021982D01*
X024357Y021961D01*
X024307Y021944D01*
X024257Y021931D01*
X024205Y021921D01*
X024153Y021915D01*
X024101Y021913D01*
X024049Y021915D01*
X023997Y021921D01*
X023945Y021931D01*
X023895Y021944D01*
X023845Y021961D01*
X023797Y021982D01*
X023751Y022007D01*
X023707Y022035D01*
X023665Y022066D01*
X023625Y022100D01*
X023588Y022137D01*
X023554Y022177D01*
X023523Y022219D01*
X023495Y022263D01*
X023470Y022309D01*
X023449Y022357D01*
X023432Y022407D01*
X023419Y022457D01*
X023409Y022509D01*
X023403Y022561D01*
X023401Y022613D01*
X022901Y022913D02*
X022901Y023013D01*
X022901Y022913D02*
X022801Y022913D01*
X023251Y023813D02*
X023651Y023813D01*
X024601Y023813D01*
X024951Y023813D01*
X024751Y024063D02*
X024751Y024663D01*
X024749Y024680D01*
X024745Y024697D01*
X024738Y024713D01*
X024728Y024727D01*
X024715Y024740D01*
X024701Y024750D01*
X024685Y024757D01*
X024668Y024761D01*
X024651Y024763D01*
X023051Y024763D01*
X023034Y024761D01*
X023017Y024757D01*
X023001Y024750D01*
X022987Y024740D01*
X022974Y024727D01*
X022964Y024713D01*
X022957Y024697D01*
X022953Y024680D01*
X022951Y024663D01*
X022951Y024063D01*
X022953Y024046D01*
X022957Y024029D01*
X022964Y024013D01*
X022974Y023999D01*
X022987Y023986D01*
X023001Y023976D01*
X023017Y023969D01*
X023034Y023965D01*
X023051Y023963D01*
X024651Y023963D01*
X024668Y023965D01*
X024685Y023969D01*
X024701Y023976D01*
X024715Y023986D01*
X024728Y023999D01*
X024738Y024013D01*
X024745Y024029D01*
X024749Y024046D01*
X024751Y024063D01*
X024251Y024113D02*
X023851Y024363D01*
X023851Y024113D01*
X023851Y024363D02*
X023601Y024363D01*
X023851Y024363D02*
X023851Y024613D01*
X023851Y024363D02*
X024251Y024613D01*
X024251Y024113D01*
X024451Y024363D02*
X023851Y024363D01*
X025301Y023013D02*
X025301Y022913D01*
X025401Y022913D01*
X025401Y022313D01*
X025301Y022313D01*
X025301Y022213D01*
X024951Y021413D02*
X024601Y021413D01*
X023601Y021413D01*
X023251Y021413D01*
X028801Y022313D02*
X028901Y022313D01*
X028901Y022213D01*
X028801Y022313D02*
X028801Y022913D01*
X028901Y022913D01*
X028901Y023013D01*
X030001Y022613D02*
X030003Y022633D01*
X030009Y022651D01*
X030018Y022669D01*
X030030Y022684D01*
X030045Y022696D01*
X030063Y022705D01*
X030081Y022711D01*
X030101Y022713D01*
X030121Y022711D01*
X030139Y022705D01*
X030157Y022696D01*
X030172Y022684D01*
X030184Y022669D01*
X030193Y022651D01*
X030199Y022633D01*
X030201Y022613D01*
X030199Y022593D01*
X030193Y022575D01*
X030184Y022557D01*
X030172Y022542D01*
X030157Y022530D01*
X030139Y022521D01*
X030121Y022515D01*
X030101Y022513D01*
X030081Y022515D01*
X030063Y022521D01*
X030045Y022530D01*
X030030Y022542D01*
X030018Y022557D01*
X030009Y022575D01*
X030003Y022593D01*
X030001Y022613D01*
X029401Y022613D02*
X029403Y022665D01*
X029409Y022717D01*
X029419Y022769D01*
X029432Y022819D01*
X029449Y022869D01*
X029470Y022917D01*
X029495Y022963D01*
X029523Y023007D01*
X029554Y023049D01*
X029588Y023089D01*
X029625Y023126D01*
X029665Y023160D01*
X029707Y023191D01*
X029751Y023219D01*
X029797Y023244D01*
X029845Y023265D01*
X029895Y023282D01*
X029945Y023295D01*
X029997Y023305D01*
X030049Y023311D01*
X030101Y023313D01*
X030153Y023311D01*
X030205Y023305D01*
X030257Y023295D01*
X030307Y023282D01*
X030357Y023265D01*
X030405Y023244D01*
X030451Y023219D01*
X030495Y023191D01*
X030537Y023160D01*
X030577Y023126D01*
X030614Y023089D01*
X030648Y023049D01*
X030679Y023007D01*
X030707Y022963D01*
X030732Y022917D01*
X030753Y022869D01*
X030770Y022819D01*
X030783Y022769D01*
X030793Y022717D01*
X030799Y022665D01*
X030801Y022613D01*
X030799Y022561D01*
X030793Y022509D01*
X030783Y022457D01*
X030770Y022407D01*
X030753Y022357D01*
X030732Y022309D01*
X030707Y022263D01*
X030679Y022219D01*
X030648Y022177D01*
X030614Y022137D01*
X030577Y022100D01*
X030537Y022066D01*
X030495Y022035D01*
X030451Y022007D01*
X030405Y021982D01*
X030357Y021961D01*
X030307Y021944D01*
X030257Y021931D01*
X030205Y021921D01*
X030153Y021915D01*
X030101Y021913D01*
X030049Y021915D01*
X029997Y021921D01*
X029945Y021931D01*
X029895Y021944D01*
X029845Y021961D01*
X029797Y021982D01*
X029751Y022007D01*
X029707Y022035D01*
X029665Y022066D01*
X029625Y022100D01*
X029588Y022137D01*
X029554Y022177D01*
X029523Y022219D01*
X029495Y022263D01*
X029470Y022309D01*
X029449Y022357D01*
X029432Y022407D01*
X029419Y022457D01*
X029409Y022509D01*
X029403Y022561D01*
X029401Y022613D01*
X031301Y022913D02*
X031301Y023013D01*
X031301Y022913D02*
X031401Y022913D01*
X031401Y022313D01*
X031301Y022313D01*
X031301Y022213D01*
X030951Y021413D02*
X030601Y021413D01*
X029601Y021413D01*
X029251Y021413D01*
X029251Y023813D02*
X029651Y023813D01*
X030601Y023813D01*
X030951Y023813D01*
X030751Y024063D02*
X030751Y024663D01*
X030749Y024680D01*
X030745Y024697D01*
X030738Y024713D01*
X030728Y024727D01*
X030715Y024740D01*
X030701Y024750D01*
X030685Y024757D01*
X030668Y024761D01*
X030651Y024763D01*
X029051Y024763D01*
X029034Y024761D01*
X029017Y024757D01*
X029001Y024750D01*
X028987Y024740D01*
X028974Y024727D01*
X028964Y024713D01*
X028957Y024697D01*
X028953Y024680D01*
X028951Y024663D01*
X028951Y024063D01*
X028953Y024046D01*
X028957Y024029D01*
X028964Y024013D01*
X028974Y023999D01*
X028987Y023986D01*
X029001Y023976D01*
X029017Y023969D01*
X029034Y023965D01*
X029051Y023963D01*
X030651Y023963D01*
X030668Y023965D01*
X030685Y023969D01*
X030701Y023976D01*
X030715Y023986D01*
X030728Y023999D01*
X030738Y024013D01*
X030745Y024029D01*
X030749Y024046D01*
X030751Y024063D01*
X030251Y024113D02*
X029851Y024363D01*
X029851Y024113D01*
X029851Y024363D02*
X029601Y024363D01*
X029851Y024363D02*
X029851Y024613D01*
X029851Y024363D02*
X030251Y024613D01*
X030251Y024113D01*
X030451Y024363D02*
X029851Y024363D01*
X034801Y022913D02*
X034801Y022313D01*
X034901Y022313D01*
X034901Y022213D01*
X036001Y022613D02*
X036003Y022633D01*
X036009Y022651D01*
X036018Y022669D01*
X036030Y022684D01*
X036045Y022696D01*
X036063Y022705D01*
X036081Y022711D01*
X036101Y022713D01*
X036121Y022711D01*
X036139Y022705D01*
X036157Y022696D01*
X036172Y022684D01*
X036184Y022669D01*
X036193Y022651D01*
X036199Y022633D01*
X036201Y022613D01*
X036199Y022593D01*
X036193Y022575D01*
X036184Y022557D01*
X036172Y022542D01*
X036157Y022530D01*
X036139Y022521D01*
X036121Y022515D01*
X036101Y022513D01*
X036081Y022515D01*
X036063Y022521D01*
X036045Y022530D01*
X036030Y022542D01*
X036018Y022557D01*
X036009Y022575D01*
X036003Y022593D01*
X036001Y022613D01*
X035401Y022613D02*
X035403Y022665D01*
X035409Y022717D01*
X035419Y022769D01*
X035432Y022819D01*
X035449Y022869D01*
X035470Y022917D01*
X035495Y022963D01*
X035523Y023007D01*
X035554Y023049D01*
X035588Y023089D01*
X035625Y023126D01*
X035665Y023160D01*
X035707Y023191D01*
X035751Y023219D01*
X035797Y023244D01*
X035845Y023265D01*
X035895Y023282D01*
X035945Y023295D01*
X035997Y023305D01*
X036049Y023311D01*
X036101Y023313D01*
X036153Y023311D01*
X036205Y023305D01*
X036257Y023295D01*
X036307Y023282D01*
X036357Y023265D01*
X036405Y023244D01*
X036451Y023219D01*
X036495Y023191D01*
X036537Y023160D01*
X036577Y023126D01*
X036614Y023089D01*
X036648Y023049D01*
X036679Y023007D01*
X036707Y022963D01*
X036732Y022917D01*
X036753Y022869D01*
X036770Y022819D01*
X036783Y022769D01*
X036793Y022717D01*
X036799Y022665D01*
X036801Y022613D01*
X036799Y022561D01*
X036793Y022509D01*
X036783Y022457D01*
X036770Y022407D01*
X036753Y022357D01*
X036732Y022309D01*
X036707Y022263D01*
X036679Y022219D01*
X036648Y022177D01*
X036614Y022137D01*
X036577Y022100D01*
X036537Y022066D01*
X036495Y022035D01*
X036451Y022007D01*
X036405Y021982D01*
X036357Y021961D01*
X036307Y021944D01*
X036257Y021931D01*
X036205Y021921D01*
X036153Y021915D01*
X036101Y021913D01*
X036049Y021915D01*
X035997Y021921D01*
X035945Y021931D01*
X035895Y021944D01*
X035845Y021961D01*
X035797Y021982D01*
X035751Y022007D01*
X035707Y022035D01*
X035665Y022066D01*
X035625Y022100D01*
X035588Y022137D01*
X035554Y022177D01*
X035523Y022219D01*
X035495Y022263D01*
X035470Y022309D01*
X035449Y022357D01*
X035432Y022407D01*
X035419Y022457D01*
X035409Y022509D01*
X035403Y022561D01*
X035401Y022613D01*
X034901Y022913D02*
X034801Y022913D01*
X034901Y022913D02*
X034901Y023013D01*
X035251Y023813D02*
X035651Y023813D01*
X036601Y023813D01*
X036951Y023813D01*
X036751Y024063D02*
X036751Y024663D01*
X036749Y024680D01*
X036745Y024697D01*
X036738Y024713D01*
X036728Y024727D01*
X036715Y024740D01*
X036701Y024750D01*
X036685Y024757D01*
X036668Y024761D01*
X036651Y024763D01*
X035051Y024763D01*
X035034Y024761D01*
X035017Y024757D01*
X035001Y024750D01*
X034987Y024740D01*
X034974Y024727D01*
X034964Y024713D01*
X034957Y024697D01*
X034953Y024680D01*
X034951Y024663D01*
X034951Y024063D01*
X034953Y024046D01*
X034957Y024029D01*
X034964Y024013D01*
X034974Y023999D01*
X034987Y023986D01*
X035001Y023976D01*
X035017Y023969D01*
X035034Y023965D01*
X035051Y023963D01*
X036651Y023963D01*
X036668Y023965D01*
X036685Y023969D01*
X036701Y023976D01*
X036715Y023986D01*
X036728Y023999D01*
X036738Y024013D01*
X036745Y024029D01*
X036749Y024046D01*
X036751Y024063D01*
X036251Y024113D02*
X035851Y024363D01*
X035851Y024113D01*
X035851Y024363D02*
X035851Y024613D01*
X035851Y024363D02*
X036251Y024613D01*
X036251Y024113D01*
X036451Y024363D02*
X035851Y024363D01*
X035601Y024363D01*
X037301Y023013D02*
X037301Y022913D01*
X037401Y022913D01*
X037401Y022313D01*
X037301Y022313D01*
X037301Y022213D01*
X036951Y021413D02*
X036601Y021413D01*
X035601Y021413D01*
X035251Y021413D01*
X041051Y022313D02*
X041151Y022313D01*
X041151Y022213D01*
X041051Y022313D02*
X041051Y022913D01*
X041151Y022913D01*
X041151Y023013D01*
X042251Y022613D02*
X042253Y022633D01*
X042259Y022651D01*
X042268Y022669D01*
X042280Y022684D01*
X042295Y022696D01*
X042313Y022705D01*
X042331Y022711D01*
X042351Y022713D01*
X042371Y022711D01*
X042389Y022705D01*
X042407Y022696D01*
X042422Y022684D01*
X042434Y022669D01*
X042443Y022651D01*
X042449Y022633D01*
X042451Y022613D01*
X042449Y022593D01*
X042443Y022575D01*
X042434Y022557D01*
X042422Y022542D01*
X042407Y022530D01*
X042389Y022521D01*
X042371Y022515D01*
X042351Y022513D01*
X042331Y022515D01*
X042313Y022521D01*
X042295Y022530D01*
X042280Y022542D01*
X042268Y022557D01*
X042259Y022575D01*
X042253Y022593D01*
X042251Y022613D01*
X041651Y022613D02*
X041653Y022665D01*
X041659Y022717D01*
X041669Y022769D01*
X041682Y022819D01*
X041699Y022869D01*
X041720Y022917D01*
X041745Y022963D01*
X041773Y023007D01*
X041804Y023049D01*
X041838Y023089D01*
X041875Y023126D01*
X041915Y023160D01*
X041957Y023191D01*
X042001Y023219D01*
X042047Y023244D01*
X042095Y023265D01*
X042145Y023282D01*
X042195Y023295D01*
X042247Y023305D01*
X042299Y023311D01*
X042351Y023313D01*
X042403Y023311D01*
X042455Y023305D01*
X042507Y023295D01*
X042557Y023282D01*
X042607Y023265D01*
X042655Y023244D01*
X042701Y023219D01*
X042745Y023191D01*
X042787Y023160D01*
X042827Y023126D01*
X042864Y023089D01*
X042898Y023049D01*
X042929Y023007D01*
X042957Y022963D01*
X042982Y022917D01*
X043003Y022869D01*
X043020Y022819D01*
X043033Y022769D01*
X043043Y022717D01*
X043049Y022665D01*
X043051Y022613D01*
X043049Y022561D01*
X043043Y022509D01*
X043033Y022457D01*
X043020Y022407D01*
X043003Y022357D01*
X042982Y022309D01*
X042957Y022263D01*
X042929Y022219D01*
X042898Y022177D01*
X042864Y022137D01*
X042827Y022100D01*
X042787Y022066D01*
X042745Y022035D01*
X042701Y022007D01*
X042655Y021982D01*
X042607Y021961D01*
X042557Y021944D01*
X042507Y021931D01*
X042455Y021921D01*
X042403Y021915D01*
X042351Y021913D01*
X042299Y021915D01*
X042247Y021921D01*
X042195Y021931D01*
X042145Y021944D01*
X042095Y021961D01*
X042047Y021982D01*
X042001Y022007D01*
X041957Y022035D01*
X041915Y022066D01*
X041875Y022100D01*
X041838Y022137D01*
X041804Y022177D01*
X041773Y022219D01*
X041745Y022263D01*
X041720Y022309D01*
X041699Y022357D01*
X041682Y022407D01*
X041669Y022457D01*
X041659Y022509D01*
X041653Y022561D01*
X041651Y022613D01*
X043551Y022913D02*
X043551Y023013D01*
X043551Y022913D02*
X043651Y022913D01*
X043651Y022313D01*
X043551Y022313D01*
X043551Y022213D01*
X043201Y021413D02*
X042851Y021413D01*
X041851Y021413D01*
X041501Y021413D01*
X041501Y023813D02*
X041901Y023813D01*
X042851Y023813D01*
X043201Y023813D01*
X043001Y024063D02*
X043001Y024663D01*
X042999Y024680D01*
X042995Y024697D01*
X042988Y024713D01*
X042978Y024727D01*
X042965Y024740D01*
X042951Y024750D01*
X042935Y024757D01*
X042918Y024761D01*
X042901Y024763D01*
X041301Y024763D01*
X041284Y024761D01*
X041267Y024757D01*
X041251Y024750D01*
X041237Y024740D01*
X041224Y024727D01*
X041214Y024713D01*
X041207Y024697D01*
X041203Y024680D01*
X041201Y024663D01*
X041201Y024063D01*
X041203Y024046D01*
X041207Y024029D01*
X041214Y024013D01*
X041224Y023999D01*
X041237Y023986D01*
X041251Y023976D01*
X041267Y023969D01*
X041284Y023965D01*
X041301Y023963D01*
X042901Y023963D01*
X042918Y023965D01*
X042935Y023969D01*
X042951Y023976D01*
X042965Y023986D01*
X042978Y023999D01*
X042988Y024013D01*
X042995Y024029D01*
X042999Y024046D01*
X043001Y024063D01*
X042501Y024113D02*
X042101Y024363D01*
X042101Y024113D01*
X042101Y024363D02*
X042101Y024613D01*
X042101Y024363D02*
X042501Y024613D01*
X042501Y024113D01*
X042701Y024363D02*
X042101Y024363D01*
X041851Y024363D01*
X049701Y023613D02*
X049703Y023680D01*
X049709Y023748D01*
X049719Y023815D01*
X049733Y023881D01*
X049750Y023946D01*
X049772Y024010D01*
X049797Y024073D01*
X049826Y024134D01*
X049858Y024193D01*
X049894Y024250D01*
X049933Y024305D01*
X049975Y024358D01*
X050020Y024408D01*
X050068Y024455D01*
X050119Y024500D01*
X050172Y024541D01*
X050228Y024580D01*
X050286Y024615D01*
X050346Y024646D01*
X050407Y024674D01*
X050470Y024698D01*
X050534Y024719D01*
X050600Y024735D01*
X050666Y024748D01*
X050733Y024757D01*
X050800Y024762D01*
X050868Y024763D01*
X050935Y024760D01*
X051002Y024753D01*
X051069Y024742D01*
X051135Y024727D01*
X051200Y024709D01*
X051264Y024686D01*
X051326Y024660D01*
X051387Y024631D01*
X051445Y024597D01*
X051502Y024561D01*
X051557Y024521D01*
X051609Y024478D01*
X051658Y024432D01*
X051705Y024383D01*
X051749Y024332D01*
X051789Y024278D01*
X051827Y024222D01*
X051861Y024163D01*
X051891Y024103D01*
X051918Y024041D01*
X051942Y023978D01*
X051961Y023913D01*
X051977Y023848D01*
X051989Y023781D01*
X051997Y023714D01*
X052001Y023647D01*
X052001Y023579D01*
X051997Y023512D01*
X051989Y023445D01*
X051977Y023378D01*
X051961Y023313D01*
X051942Y023248D01*
X051918Y023185D01*
X051891Y023123D01*
X051861Y023063D01*
X051827Y023004D01*
X051789Y022948D01*
X051749Y022894D01*
X051705Y022843D01*
X051658Y022794D01*
X051609Y022748D01*
X051557Y022705D01*
X051502Y022665D01*
X051445Y022629D01*
X051387Y022595D01*
X051326Y022566D01*
X051264Y022540D01*
X051200Y022517D01*
X051135Y022499D01*
X051069Y022484D01*
X051002Y022473D01*
X050935Y022466D01*
X050868Y022463D01*
X050800Y022464D01*
X050733Y022469D01*
X050666Y022478D01*
X050600Y022491D01*
X050534Y022507D01*
X050470Y022528D01*
X050407Y022552D01*
X050346Y022580D01*
X050286Y022611D01*
X050228Y022646D01*
X050172Y022685D01*
X050119Y022726D01*
X050068Y022771D01*
X050020Y022818D01*
X049975Y022868D01*
X049933Y022921D01*
X049894Y022976D01*
X049858Y023033D01*
X049826Y023092D01*
X049797Y023153D01*
X049772Y023216D01*
X049750Y023280D01*
X049733Y023345D01*
X049719Y023411D01*
X049709Y023478D01*
X049703Y023546D01*
X049701Y023613D01*
X052751Y023363D02*
X052753Y023436D01*
X052759Y023509D01*
X052769Y023581D01*
X052783Y023653D01*
X052800Y023724D01*
X052822Y023794D01*
X052847Y023863D01*
X052876Y023930D01*
X052908Y023995D01*
X052944Y024059D01*
X052984Y024121D01*
X053026Y024180D01*
X053072Y024237D01*
X053121Y024291D01*
X053173Y024343D01*
X053227Y024392D01*
X053284Y024438D01*
X053343Y024480D01*
X053405Y024520D01*
X053469Y024556D01*
X053534Y024588D01*
X053601Y024617D01*
X053670Y024642D01*
X053740Y024664D01*
X053811Y024681D01*
X053883Y024695D01*
X053955Y024705D01*
X054028Y024711D01*
X054101Y024713D01*
X054174Y024711D01*
X054247Y024705D01*
X054319Y024695D01*
X054391Y024681D01*
X054462Y024664D01*
X054532Y024642D01*
X054601Y024617D01*
X054668Y024588D01*
X054733Y024556D01*
X054797Y024520D01*
X054859Y024480D01*
X054918Y024438D01*
X054975Y024392D01*
X055029Y024343D01*
X055081Y024291D01*
X055130Y024237D01*
X055176Y024180D01*
X055218Y024121D01*
X055258Y024059D01*
X055294Y023995D01*
X055326Y023930D01*
X055355Y023863D01*
X055380Y023794D01*
X055402Y023724D01*
X055419Y023653D01*
X055433Y023581D01*
X055443Y023509D01*
X055449Y023436D01*
X055451Y023363D01*
X055449Y023290D01*
X055443Y023217D01*
X055433Y023145D01*
X055419Y023073D01*
X055402Y023002D01*
X055380Y022932D01*
X055355Y022863D01*
X055326Y022796D01*
X055294Y022731D01*
X055258Y022667D01*
X055218Y022605D01*
X055176Y022546D01*
X055130Y022489D01*
X055081Y022435D01*
X055029Y022383D01*
X054975Y022334D01*
X054918Y022288D01*
X054859Y022246D01*
X054797Y022206D01*
X054733Y022170D01*
X054668Y022138D01*
X054601Y022109D01*
X054532Y022084D01*
X054462Y022062D01*
X054391Y022045D01*
X054319Y022031D01*
X054247Y022021D01*
X054174Y022015D01*
X054101Y022013D01*
X054028Y022015D01*
X053955Y022021D01*
X053883Y022031D01*
X053811Y022045D01*
X053740Y022062D01*
X053670Y022084D01*
X053601Y022109D01*
X053534Y022138D01*
X053469Y022170D01*
X053405Y022206D01*
X053343Y022246D01*
X053284Y022288D01*
X053227Y022334D01*
X053173Y022383D01*
X053121Y022435D01*
X053072Y022489D01*
X053026Y022546D01*
X052984Y022605D01*
X052944Y022667D01*
X052908Y022731D01*
X052876Y022796D01*
X052847Y022863D01*
X052822Y022932D01*
X052800Y023002D01*
X052783Y023073D01*
X052769Y023145D01*
X052759Y023217D01*
X052753Y023290D01*
X052751Y023363D01*
X000751Y002363D02*
X000753Y002436D01*
X000759Y002509D01*
X000769Y002581D01*
X000783Y002653D01*
X000800Y002724D01*
X000822Y002794D01*
X000847Y002863D01*
X000876Y002930D01*
X000908Y002995D01*
X000944Y003059D01*
X000984Y003121D01*
X001026Y003180D01*
X001072Y003237D01*
X001121Y003291D01*
X001173Y003343D01*
X001227Y003392D01*
X001284Y003438D01*
X001343Y003480D01*
X001405Y003520D01*
X001469Y003556D01*
X001534Y003588D01*
X001601Y003617D01*
X001670Y003642D01*
X001740Y003664D01*
X001811Y003681D01*
X001883Y003695D01*
X001955Y003705D01*
X002028Y003711D01*
X002101Y003713D01*
X002174Y003711D01*
X002247Y003705D01*
X002319Y003695D01*
X002391Y003681D01*
X002462Y003664D01*
X002532Y003642D01*
X002601Y003617D01*
X002668Y003588D01*
X002733Y003556D01*
X002797Y003520D01*
X002859Y003480D01*
X002918Y003438D01*
X002975Y003392D01*
X003029Y003343D01*
X003081Y003291D01*
X003130Y003237D01*
X003176Y003180D01*
X003218Y003121D01*
X003258Y003059D01*
X003294Y002995D01*
X003326Y002930D01*
X003355Y002863D01*
X003380Y002794D01*
X003402Y002724D01*
X003419Y002653D01*
X003433Y002581D01*
X003443Y002509D01*
X003449Y002436D01*
X003451Y002363D01*
X003449Y002290D01*
X003443Y002217D01*
X003433Y002145D01*
X003419Y002073D01*
X003402Y002002D01*
X003380Y001932D01*
X003355Y001863D01*
X003326Y001796D01*
X003294Y001731D01*
X003258Y001667D01*
X003218Y001605D01*
X003176Y001546D01*
X003130Y001489D01*
X003081Y001435D01*
X003029Y001383D01*
X002975Y001334D01*
X002918Y001288D01*
X002859Y001246D01*
X002797Y001206D01*
X002733Y001170D01*
X002668Y001138D01*
X002601Y001109D01*
X002532Y001084D01*
X002462Y001062D01*
X002391Y001045D01*
X002319Y001031D01*
X002247Y001021D01*
X002174Y001015D01*
X002101Y001013D01*
X002028Y001015D01*
X001955Y001021D01*
X001883Y001031D01*
X001811Y001045D01*
X001740Y001062D01*
X001670Y001084D01*
X001601Y001109D01*
X001534Y001138D01*
X001469Y001170D01*
X001405Y001206D01*
X001343Y001246D01*
X001284Y001288D01*
X001227Y001334D01*
X001173Y001383D01*
X001121Y001435D01*
X001072Y001489D01*
X001026Y001546D01*
X000984Y001605D01*
X000944Y001667D01*
X000908Y001731D01*
X000876Y001796D01*
X000847Y001863D01*
X000822Y001932D01*
X000800Y002002D01*
X000783Y002073D01*
X000769Y002145D01*
X000759Y002217D01*
X000753Y002290D01*
X000751Y002363D01*
D11*
X009901Y009113D02*
X010001Y009113D01*
X010001Y010113D01*
X009901Y010113D01*
X012201Y010063D02*
X012201Y009113D01*
X012301Y009113D01*
X012301Y010063D02*
X012201Y010063D01*
X012201Y016113D02*
X012301Y016113D01*
X012201Y016113D02*
X012201Y017063D01*
X012301Y017063D01*
X010001Y017113D02*
X010001Y016113D01*
X009901Y016113D01*
X009901Y017113D02*
X010001Y017113D01*
X023601Y021413D02*
X023601Y021513D01*
X024601Y021513D01*
X024601Y021413D01*
X024601Y023713D02*
X023651Y023713D01*
X023651Y023813D01*
X024601Y023813D02*
X024601Y023713D01*
X029651Y023713D02*
X029651Y023813D01*
X029651Y023713D02*
X030601Y023713D01*
X030601Y023813D01*
X030601Y021513D02*
X029601Y021513D01*
X029601Y021413D01*
X030601Y021413D02*
X030601Y021513D01*
X035601Y021513D02*
X035601Y021413D01*
X035601Y021513D02*
X036601Y021513D01*
X036601Y021413D01*
X036601Y023713D02*
X035651Y023713D01*
X035651Y023813D01*
X036601Y023813D02*
X036601Y023713D01*
X041901Y023713D02*
X041901Y023813D01*
X041901Y023713D02*
X042851Y023713D01*
X042851Y023813D01*
X042851Y021513D02*
X041851Y021513D01*
X041851Y021413D01*
X042851Y021413D02*
X042851Y021513D01*
X044851Y004313D02*
X044851Y004213D01*
X045851Y004213D01*
X045851Y004313D01*
X045801Y002013D02*
X044851Y002013D01*
X044851Y001913D01*
X045801Y001913D02*
X045801Y002013D01*
X039551Y002013D02*
X039551Y001913D01*
X039551Y002013D02*
X038601Y002013D01*
X038601Y001913D01*
X038601Y004213D02*
X039601Y004213D01*
X039601Y004313D01*
X038601Y004313D02*
X038601Y004213D01*
X033601Y004213D02*
X033601Y004313D01*
X033601Y004213D02*
X032601Y004213D01*
X032601Y004313D01*
X032601Y002013D02*
X032601Y001913D01*
X032601Y002013D02*
X033551Y002013D01*
X033551Y001913D01*
X027551Y002013D02*
X027551Y001913D01*
X027551Y002013D02*
X026601Y002013D01*
X026601Y001913D01*
X026601Y004213D02*
X027601Y004213D01*
X027601Y004313D01*
X026601Y004313D02*
X026601Y004213D01*
X021601Y004213D02*
X021601Y004313D01*
X021601Y004213D02*
X020601Y004213D01*
X020601Y004313D01*
X020601Y002013D02*
X020601Y001913D01*
X020601Y002013D02*
X021551Y002013D01*
X021551Y001913D01*
D12*
X006111Y009451D02*
X006070Y009449D01*
X006029Y009444D01*
X005989Y009435D01*
X005950Y009423D01*
X005912Y009407D01*
X005875Y009388D01*
X005840Y009366D01*
X005808Y009341D01*
X005777Y009313D01*
X005749Y009282D01*
X005724Y009250D01*
X005702Y009215D01*
X005683Y009178D01*
X005667Y009140D01*
X005655Y009101D01*
X005646Y009061D01*
X005641Y009020D01*
X005639Y008979D01*
X005638Y008979D02*
X005638Y008192D01*
X004063Y008192D01*
X004063Y008979D01*
X004061Y009020D01*
X004056Y009061D01*
X004047Y009101D01*
X004035Y009140D01*
X004019Y009178D01*
X004000Y009215D01*
X003978Y009250D01*
X003953Y009282D01*
X003925Y009313D01*
X003894Y009341D01*
X003862Y009366D01*
X003827Y009388D01*
X003790Y009407D01*
X003752Y009423D01*
X003713Y009435D01*
X003673Y009444D01*
X003632Y009449D01*
X003591Y009451D01*
X002095Y009451D01*
X002056Y009453D01*
X002018Y009459D01*
X001981Y009468D01*
X001944Y009481D01*
X001909Y009498D01*
X001876Y009517D01*
X001845Y009540D01*
X001816Y009566D01*
X001790Y009595D01*
X001767Y009626D01*
X001748Y009659D01*
X001731Y009694D01*
X001718Y009731D01*
X001709Y009768D01*
X001703Y009806D01*
X001701Y009845D01*
X001701Y015711D01*
X001703Y015764D01*
X001709Y015817D01*
X001718Y015870D01*
X001731Y015922D01*
X001748Y015972D01*
X001769Y016022D01*
X001792Y016069D01*
X001820Y016115D01*
X001850Y016159D01*
X001884Y016201D01*
X001920Y016240D01*
X001959Y016276D01*
X002001Y016310D01*
X002045Y016340D01*
X002091Y016368D01*
X002138Y016391D01*
X002188Y016412D01*
X002238Y016429D01*
X002290Y016442D01*
X002343Y016451D01*
X002396Y016457D01*
X002449Y016459D01*
X002882Y016459D01*
X002449Y016459D02*
X007252Y016459D01*
X007305Y016457D01*
X007358Y016451D01*
X007411Y016442D01*
X007463Y016429D01*
X007513Y016412D01*
X007563Y016391D01*
X007610Y016368D01*
X007656Y016340D01*
X007700Y016310D01*
X007742Y016276D01*
X007781Y016240D01*
X007817Y016201D01*
X007851Y016159D01*
X007881Y016115D01*
X007909Y016069D01*
X007932Y016022D01*
X007953Y015972D01*
X007970Y015922D01*
X007983Y015870D01*
X007992Y015817D01*
X007998Y015764D01*
X008000Y015711D01*
X008000Y009845D01*
X008001Y009845D02*
X007999Y009806D01*
X007993Y009768D01*
X007984Y009731D01*
X007971Y009694D01*
X007954Y009659D01*
X007935Y009626D01*
X007912Y009595D01*
X007886Y009566D01*
X007857Y009540D01*
X007826Y009517D01*
X007793Y009498D01*
X007758Y009481D01*
X007721Y009468D01*
X007684Y009459D01*
X007646Y009453D01*
X007607Y009451D01*
X006111Y009451D01*
X005835Y012522D02*
X003867Y012522D01*
X002331Y012699D02*
X001544Y012699D01*
X001544Y013526D01*
X002331Y013526D01*
X002331Y012699D01*
X003670Y013113D02*
X003672Y013182D01*
X003678Y013250D01*
X003688Y013318D01*
X003702Y013385D01*
X003720Y013452D01*
X003741Y013517D01*
X003767Y013581D01*
X003796Y013643D01*
X003828Y013703D01*
X003864Y013762D01*
X003904Y013818D01*
X003946Y013872D01*
X003992Y013923D01*
X004041Y013972D01*
X004092Y014018D01*
X004146Y014060D01*
X004202Y014100D01*
X004260Y014136D01*
X004321Y014168D01*
X004383Y014197D01*
X004447Y014223D01*
X004512Y014244D01*
X004579Y014262D01*
X004646Y014276D01*
X004714Y014286D01*
X004782Y014292D01*
X004851Y014294D01*
X004920Y014292D01*
X004988Y014286D01*
X005056Y014276D01*
X005123Y014262D01*
X005190Y014244D01*
X005255Y014223D01*
X005319Y014197D01*
X005381Y014168D01*
X005441Y014136D01*
X005500Y014100D01*
X005556Y014060D01*
X005610Y014018D01*
X005661Y013972D01*
X005710Y013923D01*
X005756Y013872D01*
X005798Y013818D01*
X005838Y013762D01*
X005874Y013703D01*
X005906Y013643D01*
X005935Y013581D01*
X005961Y013517D01*
X005982Y013452D01*
X006000Y013385D01*
X006014Y013318D01*
X006024Y013250D01*
X006030Y013182D01*
X006032Y013113D01*
X006030Y013044D01*
X006024Y012976D01*
X006014Y012908D01*
X006000Y012841D01*
X005982Y012774D01*
X005961Y012709D01*
X005935Y012645D01*
X005906Y012583D01*
X005874Y012522D01*
X005838Y012464D01*
X005798Y012408D01*
X005756Y012354D01*
X005710Y012303D01*
X005661Y012254D01*
X005610Y012208D01*
X005556Y012166D01*
X005500Y012126D01*
X005442Y012090D01*
X005381Y012058D01*
X005319Y012029D01*
X005255Y012003D01*
X005190Y011982D01*
X005123Y011964D01*
X005056Y011950D01*
X004988Y011940D01*
X004920Y011934D01*
X004851Y011932D01*
X004782Y011934D01*
X004714Y011940D01*
X004646Y011950D01*
X004579Y011964D01*
X004512Y011982D01*
X004447Y012003D01*
X004383Y012029D01*
X004321Y012058D01*
X004260Y012090D01*
X004202Y012126D01*
X004146Y012166D01*
X004092Y012208D01*
X004041Y012254D01*
X003992Y012303D01*
X003946Y012354D01*
X003904Y012408D01*
X003864Y012464D01*
X003828Y012522D01*
X003796Y012583D01*
X003767Y012645D01*
X003741Y012709D01*
X003720Y012774D01*
X003702Y012841D01*
X003688Y012908D01*
X003678Y012976D01*
X003672Y013044D01*
X003670Y013113D01*
X003079Y013113D02*
X003081Y013200D01*
X003088Y013287D01*
X003098Y013373D01*
X003113Y013459D01*
X003132Y013544D01*
X003155Y013627D01*
X003183Y013710D01*
X003214Y013791D01*
X003249Y013871D01*
X003288Y013948D01*
X003331Y014024D01*
X003378Y014097D01*
X003428Y014169D01*
X003481Y014237D01*
X003538Y014303D01*
X003598Y014366D01*
X003661Y014426D01*
X003727Y014483D01*
X003795Y014536D01*
X003867Y014586D01*
X003940Y014633D01*
X004016Y014676D01*
X004093Y014715D01*
X004173Y014750D01*
X004254Y014781D01*
X004337Y014809D01*
X004420Y014832D01*
X004505Y014851D01*
X004591Y014866D01*
X004677Y014876D01*
X004764Y014883D01*
X004851Y014885D01*
X004938Y014883D01*
X005025Y014876D01*
X005111Y014866D01*
X005197Y014851D01*
X005282Y014832D01*
X005365Y014809D01*
X005448Y014781D01*
X005529Y014750D01*
X005609Y014715D01*
X005686Y014676D01*
X005762Y014633D01*
X005835Y014586D01*
X005907Y014536D01*
X005975Y014483D01*
X006041Y014426D01*
X006104Y014366D01*
X006164Y014303D01*
X006221Y014237D01*
X006274Y014169D01*
X006324Y014097D01*
X006371Y014024D01*
X006414Y013948D01*
X006453Y013871D01*
X006488Y013791D01*
X006519Y013710D01*
X006547Y013627D01*
X006570Y013544D01*
X006589Y013459D01*
X006604Y013373D01*
X006614Y013287D01*
X006621Y013200D01*
X006623Y013113D01*
X006621Y013026D01*
X006614Y012939D01*
X006604Y012853D01*
X006589Y012767D01*
X006570Y012682D01*
X006547Y012599D01*
X006519Y012516D01*
X006488Y012435D01*
X006453Y012355D01*
X006414Y012278D01*
X006371Y012202D01*
X006324Y012129D01*
X006274Y012057D01*
X006221Y011989D01*
X006164Y011923D01*
X006104Y011860D01*
X006041Y011800D01*
X005975Y011743D01*
X005907Y011690D01*
X005835Y011640D01*
X005762Y011593D01*
X005686Y011550D01*
X005609Y011511D01*
X005529Y011476D01*
X005448Y011445D01*
X005365Y011417D01*
X005282Y011394D01*
X005197Y011375D01*
X005111Y011360D01*
X005025Y011350D01*
X004938Y011343D01*
X004851Y011341D01*
X004764Y011343D01*
X004677Y011350D01*
X004591Y011360D01*
X004505Y011375D01*
X004420Y011394D01*
X004337Y011417D01*
X004254Y011445D01*
X004173Y011476D01*
X004093Y011511D01*
X004016Y011550D01*
X003940Y011593D01*
X003867Y011640D01*
X003795Y011690D01*
X003727Y011743D01*
X003661Y011800D01*
X003598Y011860D01*
X003538Y011923D01*
X003481Y011989D01*
X003428Y012057D01*
X003378Y012129D01*
X003331Y012202D01*
X003288Y012278D01*
X003249Y012355D01*
X003214Y012435D01*
X003183Y012516D01*
X003155Y012599D01*
X003132Y012682D01*
X003113Y012767D01*
X003098Y012853D01*
X003088Y012939D01*
X003081Y013026D01*
X003079Y013113D01*
X007370Y012699D02*
X008158Y012699D01*
X008158Y013526D01*
X007370Y013526D01*
X007370Y012699D01*
D13*
X009951Y014113D03*
X009951Y007113D03*
X017701Y001363D03*
X023701Y001363D03*
X029701Y001363D03*
X035701Y001363D03*
X041951Y001363D03*
X041451Y024363D03*
X035201Y024363D03*
X029201Y024363D03*
X023201Y024363D03*
D14*
X022826Y024363D03*
X024876Y024363D03*
X028826Y024363D03*
X030876Y024363D03*
X034826Y024363D03*
X036876Y024363D03*
X041076Y024363D03*
X043126Y024363D03*
X011626Y014113D03*
X009576Y014113D03*
X009576Y007113D03*
X011626Y007113D03*
X017326Y001363D03*
X019376Y001363D03*
X023326Y001363D03*
X025376Y001363D03*
X029326Y001363D03*
X031376Y001363D03*
X035326Y001363D03*
X037376Y001363D03*
X041576Y001363D03*
X043626Y001363D03*
D15*
X050260Y002113D02*
X050262Y002161D01*
X050268Y002209D01*
X050278Y002256D01*
X050291Y002302D01*
X050309Y002347D01*
X050329Y002391D01*
X050354Y002433D01*
X050382Y002472D01*
X050412Y002509D01*
X050446Y002543D01*
X050483Y002575D01*
X050521Y002604D01*
X050562Y002629D01*
X050605Y002651D01*
X050650Y002669D01*
X050696Y002683D01*
X050743Y002694D01*
X050791Y002701D01*
X050839Y002704D01*
X050887Y002703D01*
X050935Y002698D01*
X050983Y002689D01*
X051029Y002677D01*
X051074Y002660D01*
X051118Y002640D01*
X051160Y002617D01*
X051200Y002590D01*
X051238Y002560D01*
X051273Y002527D01*
X051305Y002491D01*
X051335Y002453D01*
X051361Y002412D01*
X051383Y002369D01*
X051403Y002325D01*
X051418Y002280D01*
X051430Y002233D01*
X051438Y002185D01*
X051442Y002137D01*
X051442Y002089D01*
X051438Y002041D01*
X051430Y001993D01*
X051418Y001946D01*
X051403Y001901D01*
X051383Y001857D01*
X051361Y001814D01*
X051335Y001773D01*
X051305Y001735D01*
X051273Y001699D01*
X051238Y001666D01*
X051200Y001636D01*
X051160Y001609D01*
X051118Y001586D01*
X051074Y001566D01*
X051029Y001549D01*
X050983Y001537D01*
X050935Y001528D01*
X050887Y001523D01*
X050839Y001522D01*
X050791Y001525D01*
X050743Y001532D01*
X050696Y001543D01*
X050650Y001557D01*
X050605Y001575D01*
X050562Y001597D01*
X050521Y001622D01*
X050483Y001651D01*
X050446Y001683D01*
X050412Y001717D01*
X050382Y001754D01*
X050354Y001793D01*
X050329Y001835D01*
X050309Y001879D01*
X050291Y001924D01*
X050278Y001970D01*
X050268Y002017D01*
X050262Y002065D01*
X050260Y002113D01*
X053471Y002363D02*
X053473Y002413D01*
X053479Y002463D01*
X053489Y002512D01*
X053503Y002560D01*
X053520Y002607D01*
X053541Y002652D01*
X053566Y002696D01*
X053594Y002737D01*
X053626Y002776D01*
X053660Y002813D01*
X053697Y002847D01*
X053737Y002877D01*
X053779Y002904D01*
X053823Y002928D01*
X053869Y002949D01*
X053916Y002965D01*
X053964Y002978D01*
X054014Y002987D01*
X054063Y002992D01*
X054114Y002993D01*
X054164Y002990D01*
X054213Y002983D01*
X054262Y002972D01*
X054310Y002957D01*
X054356Y002939D01*
X054401Y002917D01*
X054444Y002891D01*
X054485Y002862D01*
X054524Y002830D01*
X054560Y002795D01*
X054592Y002757D01*
X054622Y002717D01*
X054649Y002674D01*
X054672Y002630D01*
X054691Y002584D01*
X054707Y002536D01*
X054719Y002487D01*
X054727Y002438D01*
X054731Y002388D01*
X054731Y002338D01*
X054727Y002288D01*
X054719Y002239D01*
X054707Y002190D01*
X054691Y002142D01*
X054672Y002096D01*
X054649Y002052D01*
X054622Y002009D01*
X054592Y001969D01*
X054560Y001931D01*
X054524Y001896D01*
X054485Y001864D01*
X054444Y001835D01*
X054401Y001809D01*
X054356Y001787D01*
X054310Y001769D01*
X054262Y001754D01*
X054213Y001743D01*
X054164Y001736D01*
X054114Y001733D01*
X054063Y001734D01*
X054014Y001739D01*
X053964Y001748D01*
X053916Y001761D01*
X053869Y001777D01*
X053823Y001798D01*
X053779Y001822D01*
X053737Y001849D01*
X053697Y001879D01*
X053660Y001913D01*
X053626Y001950D01*
X053594Y001989D01*
X053566Y002030D01*
X053541Y002074D01*
X053520Y002119D01*
X053503Y002166D01*
X053489Y002214D01*
X053479Y002263D01*
X053473Y002313D01*
X053471Y002363D01*
X014010Y002113D02*
X014012Y002161D01*
X014018Y002209D01*
X014028Y002256D01*
X014041Y002302D01*
X014059Y002347D01*
X014079Y002391D01*
X014104Y002433D01*
X014132Y002472D01*
X014162Y002509D01*
X014196Y002543D01*
X014233Y002575D01*
X014271Y002604D01*
X014312Y002629D01*
X014355Y002651D01*
X014400Y002669D01*
X014446Y002683D01*
X014493Y002694D01*
X014541Y002701D01*
X014589Y002704D01*
X014637Y002703D01*
X014685Y002698D01*
X014733Y002689D01*
X014779Y002677D01*
X014824Y002660D01*
X014868Y002640D01*
X014910Y002617D01*
X014950Y002590D01*
X014988Y002560D01*
X015023Y002527D01*
X015055Y002491D01*
X015085Y002453D01*
X015111Y002412D01*
X015133Y002369D01*
X015153Y002325D01*
X015168Y002280D01*
X015180Y002233D01*
X015188Y002185D01*
X015192Y002137D01*
X015192Y002089D01*
X015188Y002041D01*
X015180Y001993D01*
X015168Y001946D01*
X015153Y001901D01*
X015133Y001857D01*
X015111Y001814D01*
X015085Y001773D01*
X015055Y001735D01*
X015023Y001699D01*
X014988Y001666D01*
X014950Y001636D01*
X014910Y001609D01*
X014868Y001586D01*
X014824Y001566D01*
X014779Y001549D01*
X014733Y001537D01*
X014685Y001528D01*
X014637Y001523D01*
X014589Y001522D01*
X014541Y001525D01*
X014493Y001532D01*
X014446Y001543D01*
X014400Y001557D01*
X014355Y001575D01*
X014312Y001597D01*
X014271Y001622D01*
X014233Y001651D01*
X014196Y001683D01*
X014162Y001717D01*
X014132Y001754D01*
X014104Y001793D01*
X014079Y001835D01*
X014059Y001879D01*
X014041Y001924D01*
X014028Y001970D01*
X014018Y002017D01*
X014012Y002065D01*
X014010Y002113D01*
X001471Y002363D02*
X001473Y002413D01*
X001479Y002463D01*
X001489Y002512D01*
X001503Y002560D01*
X001520Y002607D01*
X001541Y002652D01*
X001566Y002696D01*
X001594Y002737D01*
X001626Y002776D01*
X001660Y002813D01*
X001697Y002847D01*
X001737Y002877D01*
X001779Y002904D01*
X001823Y002928D01*
X001869Y002949D01*
X001916Y002965D01*
X001964Y002978D01*
X002014Y002987D01*
X002063Y002992D01*
X002114Y002993D01*
X002164Y002990D01*
X002213Y002983D01*
X002262Y002972D01*
X002310Y002957D01*
X002356Y002939D01*
X002401Y002917D01*
X002444Y002891D01*
X002485Y002862D01*
X002524Y002830D01*
X002560Y002795D01*
X002592Y002757D01*
X002622Y002717D01*
X002649Y002674D01*
X002672Y002630D01*
X002691Y002584D01*
X002707Y002536D01*
X002719Y002487D01*
X002727Y002438D01*
X002731Y002388D01*
X002731Y002338D01*
X002727Y002288D01*
X002719Y002239D01*
X002707Y002190D01*
X002691Y002142D01*
X002672Y002096D01*
X002649Y002052D01*
X002622Y002009D01*
X002592Y001969D01*
X002560Y001931D01*
X002524Y001896D01*
X002485Y001864D01*
X002444Y001835D01*
X002401Y001809D01*
X002356Y001787D01*
X002310Y001769D01*
X002262Y001754D01*
X002213Y001743D01*
X002164Y001736D01*
X002114Y001733D01*
X002063Y001734D01*
X002014Y001739D01*
X001964Y001748D01*
X001916Y001761D01*
X001869Y001777D01*
X001823Y001798D01*
X001779Y001822D01*
X001737Y001849D01*
X001697Y001879D01*
X001660Y001913D01*
X001626Y001950D01*
X001594Y001989D01*
X001566Y002030D01*
X001541Y002074D01*
X001520Y002119D01*
X001503Y002166D01*
X001489Y002214D01*
X001479Y002263D01*
X001473Y002313D01*
X001471Y002363D01*
X001471Y023363D02*
X001473Y023413D01*
X001479Y023463D01*
X001489Y023512D01*
X001503Y023560D01*
X001520Y023607D01*
X001541Y023652D01*
X001566Y023696D01*
X001594Y023737D01*
X001626Y023776D01*
X001660Y023813D01*
X001697Y023847D01*
X001737Y023877D01*
X001779Y023904D01*
X001823Y023928D01*
X001869Y023949D01*
X001916Y023965D01*
X001964Y023978D01*
X002014Y023987D01*
X002063Y023992D01*
X002114Y023993D01*
X002164Y023990D01*
X002213Y023983D01*
X002262Y023972D01*
X002310Y023957D01*
X002356Y023939D01*
X002401Y023917D01*
X002444Y023891D01*
X002485Y023862D01*
X002524Y023830D01*
X002560Y023795D01*
X002592Y023757D01*
X002622Y023717D01*
X002649Y023674D01*
X002672Y023630D01*
X002691Y023584D01*
X002707Y023536D01*
X002719Y023487D01*
X002727Y023438D01*
X002731Y023388D01*
X002731Y023338D01*
X002727Y023288D01*
X002719Y023239D01*
X002707Y023190D01*
X002691Y023142D01*
X002672Y023096D01*
X002649Y023052D01*
X002622Y023009D01*
X002592Y022969D01*
X002560Y022931D01*
X002524Y022896D01*
X002485Y022864D01*
X002444Y022835D01*
X002401Y022809D01*
X002356Y022787D01*
X002310Y022769D01*
X002262Y022754D01*
X002213Y022743D01*
X002164Y022736D01*
X002114Y022733D01*
X002063Y022734D01*
X002014Y022739D01*
X001964Y022748D01*
X001916Y022761D01*
X001869Y022777D01*
X001823Y022798D01*
X001779Y022822D01*
X001737Y022849D01*
X001697Y022879D01*
X001660Y022913D01*
X001626Y022950D01*
X001594Y022989D01*
X001566Y023030D01*
X001541Y023074D01*
X001520Y023119D01*
X001503Y023166D01*
X001489Y023214D01*
X001479Y023263D01*
X001473Y023313D01*
X001471Y023363D01*
X014260Y023613D02*
X014262Y023661D01*
X014268Y023709D01*
X014278Y023756D01*
X014291Y023802D01*
X014309Y023847D01*
X014329Y023891D01*
X014354Y023933D01*
X014382Y023972D01*
X014412Y024009D01*
X014446Y024043D01*
X014483Y024075D01*
X014521Y024104D01*
X014562Y024129D01*
X014605Y024151D01*
X014650Y024169D01*
X014696Y024183D01*
X014743Y024194D01*
X014791Y024201D01*
X014839Y024204D01*
X014887Y024203D01*
X014935Y024198D01*
X014983Y024189D01*
X015029Y024177D01*
X015074Y024160D01*
X015118Y024140D01*
X015160Y024117D01*
X015200Y024090D01*
X015238Y024060D01*
X015273Y024027D01*
X015305Y023991D01*
X015335Y023953D01*
X015361Y023912D01*
X015383Y023869D01*
X015403Y023825D01*
X015418Y023780D01*
X015430Y023733D01*
X015438Y023685D01*
X015442Y023637D01*
X015442Y023589D01*
X015438Y023541D01*
X015430Y023493D01*
X015418Y023446D01*
X015403Y023401D01*
X015383Y023357D01*
X015361Y023314D01*
X015335Y023273D01*
X015305Y023235D01*
X015273Y023199D01*
X015238Y023166D01*
X015200Y023136D01*
X015160Y023109D01*
X015118Y023086D01*
X015074Y023066D01*
X015029Y023049D01*
X014983Y023037D01*
X014935Y023028D01*
X014887Y023023D01*
X014839Y023022D01*
X014791Y023025D01*
X014743Y023032D01*
X014696Y023043D01*
X014650Y023057D01*
X014605Y023075D01*
X014562Y023097D01*
X014521Y023122D01*
X014483Y023151D01*
X014446Y023183D01*
X014412Y023217D01*
X014382Y023254D01*
X014354Y023293D01*
X014329Y023335D01*
X014309Y023379D01*
X014291Y023424D01*
X014278Y023470D01*
X014268Y023517D01*
X014262Y023565D01*
X014260Y023613D01*
X050260Y023613D02*
X050262Y023661D01*
X050268Y023709D01*
X050278Y023756D01*
X050291Y023802D01*
X050309Y023847D01*
X050329Y023891D01*
X050354Y023933D01*
X050382Y023972D01*
X050412Y024009D01*
X050446Y024043D01*
X050483Y024075D01*
X050521Y024104D01*
X050562Y024129D01*
X050605Y024151D01*
X050650Y024169D01*
X050696Y024183D01*
X050743Y024194D01*
X050791Y024201D01*
X050839Y024204D01*
X050887Y024203D01*
X050935Y024198D01*
X050983Y024189D01*
X051029Y024177D01*
X051074Y024160D01*
X051118Y024140D01*
X051160Y024117D01*
X051200Y024090D01*
X051238Y024060D01*
X051273Y024027D01*
X051305Y023991D01*
X051335Y023953D01*
X051361Y023912D01*
X051383Y023869D01*
X051403Y023825D01*
X051418Y023780D01*
X051430Y023733D01*
X051438Y023685D01*
X051442Y023637D01*
X051442Y023589D01*
X051438Y023541D01*
X051430Y023493D01*
X051418Y023446D01*
X051403Y023401D01*
X051383Y023357D01*
X051361Y023314D01*
X051335Y023273D01*
X051305Y023235D01*
X051273Y023199D01*
X051238Y023166D01*
X051200Y023136D01*
X051160Y023109D01*
X051118Y023086D01*
X051074Y023066D01*
X051029Y023049D01*
X050983Y023037D01*
X050935Y023028D01*
X050887Y023023D01*
X050839Y023022D01*
X050791Y023025D01*
X050743Y023032D01*
X050696Y023043D01*
X050650Y023057D01*
X050605Y023075D01*
X050562Y023097D01*
X050521Y023122D01*
X050483Y023151D01*
X050446Y023183D01*
X050412Y023217D01*
X050382Y023254D01*
X050354Y023293D01*
X050329Y023335D01*
X050309Y023379D01*
X050291Y023424D01*
X050278Y023470D01*
X050268Y023517D01*
X050262Y023565D01*
X050260Y023613D01*
X053471Y023363D02*
X053473Y023413D01*
X053479Y023463D01*
X053489Y023512D01*
X053503Y023560D01*
X053520Y023607D01*
X053541Y023652D01*
X053566Y023696D01*
X053594Y023737D01*
X053626Y023776D01*
X053660Y023813D01*
X053697Y023847D01*
X053737Y023877D01*
X053779Y023904D01*
X053823Y023928D01*
X053869Y023949D01*
X053916Y023965D01*
X053964Y023978D01*
X054014Y023987D01*
X054063Y023992D01*
X054114Y023993D01*
X054164Y023990D01*
X054213Y023983D01*
X054262Y023972D01*
X054310Y023957D01*
X054356Y023939D01*
X054401Y023917D01*
X054444Y023891D01*
X054485Y023862D01*
X054524Y023830D01*
X054560Y023795D01*
X054592Y023757D01*
X054622Y023717D01*
X054649Y023674D01*
X054672Y023630D01*
X054691Y023584D01*
X054707Y023536D01*
X054719Y023487D01*
X054727Y023438D01*
X054731Y023388D01*
X054731Y023338D01*
X054727Y023288D01*
X054719Y023239D01*
X054707Y023190D01*
X054691Y023142D01*
X054672Y023096D01*
X054649Y023052D01*
X054622Y023009D01*
X054592Y022969D01*
X054560Y022931D01*
X054524Y022896D01*
X054485Y022864D01*
X054444Y022835D01*
X054401Y022809D01*
X054356Y022787D01*
X054310Y022769D01*
X054262Y022754D01*
X054213Y022743D01*
X054164Y022736D01*
X054114Y022733D01*
X054063Y022734D01*
X054014Y022739D01*
X053964Y022748D01*
X053916Y022761D01*
X053869Y022777D01*
X053823Y022798D01*
X053779Y022822D01*
X053737Y022849D01*
X053697Y022879D01*
X053660Y022913D01*
X053626Y022950D01*
X053594Y022989D01*
X053566Y023030D01*
X053541Y023074D01*
X053520Y023119D01*
X053503Y023166D01*
X053489Y023214D01*
X053479Y023263D01*
X053473Y023313D01*
X053471Y023363D01*
M02*
