%
M48
M72
T01C0.0236
T02C0.0320
T03C0.0400
T04C0.0472
T05C0.0827
T06C0.1102
T07C0.1181
%
T01
X8351Y2863
X9351Y2863
X8351Y4613
X36101Y4238
X36101Y3613
X42226Y3613
X42226Y4238
X48351Y3863
T02
X44101Y1363
X41101Y1363
X37851Y1363
X34851Y1363
X31851Y1363
X28851Y1363
X25851Y1363
X22851Y1363
X19851Y1363
X16851Y1363
X12101Y7113
X9101Y7113
X9101Y14113
X12101Y14113
X22351Y24363
X25351Y24363
X28351Y24363
X31351Y24363
X34351Y24363
X37351Y24363
X40601Y24363
X43601Y24363
T03
X4851Y1863
X5851Y1863
X6851Y1863
X7851Y1863
X8851Y1863
X9851Y1863
X10851Y1863
X11851Y1863
X19821Y2223
X22381Y2223
X25821Y2223
X28381Y2223
X31821Y2223
X34381Y2223
X37821Y2223
X40381Y2223
X40381Y4003
X37821Y4003
X34381Y4003
X31821Y4003
X28381Y4003
X25821Y4003
X22381Y4003
X19821Y4003
X11991Y8333
X10211Y8333
X10211Y10893
X11991Y10893
X11991Y15333
X10211Y15333
X10211Y17893
X11991Y17893
X5851Y18363
X4851Y18363
X3851Y18363
X22821Y21723
X25381Y21723
X28821Y21723
X31381Y21723
X34821Y21723
X37381Y21723
X37381Y23503
X34821Y23503
X31381Y23503
X28821Y23503
X25381Y23503
X22821Y23503
X41071Y23503
X43631Y23503
X43631Y21723
X41071Y21723
X44071Y4003
X46631Y4003
X46631Y2223
X44071Y2223
T04
X6851Y9113
X4851Y9113
X2851Y9113
T05
X1851Y13113
X7851Y13113
T06
X14851Y23613
X50851Y23613
X50851Y2113
X14601Y2113
T07
X2101Y2363
X2101Y23363
X54101Y23363
X54101Y2363
M30
