G75*
G70*
%OFA0B0*%
%FSLAX24Y24*%
%IPPOS*%
%LPD*%
%AMOC8*
5,1,8,0,0,1.08239X$1,22.5*
%
%ADD10C,0.0000*%
%ADD11C,0.0600*%
%ADD12C,0.1417*%
%ADD13C,0.0827*%
%ADD14C,0.0866*%
%ADD15C,0.0520*%
%ADD16R,0.0396X0.0396*%
%ADD17C,0.0120*%
%ADD18C,0.0160*%
D10*
X000101Y000363D02*
X000101Y025358D01*
X056093Y025358D01*
X056093Y000363D01*
X000101Y000363D01*
X001510Y002363D02*
X001512Y002411D01*
X001518Y002459D01*
X001528Y002506D01*
X001541Y002552D01*
X001559Y002597D01*
X001579Y002641D01*
X001604Y002683D01*
X001632Y002722D01*
X001662Y002759D01*
X001696Y002793D01*
X001733Y002825D01*
X001771Y002854D01*
X001812Y002879D01*
X001855Y002901D01*
X001900Y002919D01*
X001946Y002933D01*
X001993Y002944D01*
X002041Y002951D01*
X002089Y002954D01*
X002137Y002953D01*
X002185Y002948D01*
X002233Y002939D01*
X002279Y002927D01*
X002324Y002910D01*
X002368Y002890D01*
X002410Y002867D01*
X002450Y002840D01*
X002488Y002810D01*
X002523Y002777D01*
X002555Y002741D01*
X002585Y002703D01*
X002611Y002662D01*
X002633Y002619D01*
X002653Y002575D01*
X002668Y002530D01*
X002680Y002483D01*
X002688Y002435D01*
X002692Y002387D01*
X002692Y002339D01*
X002688Y002291D01*
X002680Y002243D01*
X002668Y002196D01*
X002653Y002151D01*
X002633Y002107D01*
X002611Y002064D01*
X002585Y002023D01*
X002555Y001985D01*
X002523Y001949D01*
X002488Y001916D01*
X002450Y001886D01*
X002410Y001859D01*
X002368Y001836D01*
X002324Y001816D01*
X002279Y001799D01*
X002233Y001787D01*
X002185Y001778D01*
X002137Y001773D01*
X002089Y001772D01*
X002041Y001775D01*
X001993Y001782D01*
X001946Y001793D01*
X001900Y001807D01*
X001855Y001825D01*
X001812Y001847D01*
X001771Y001872D01*
X001733Y001901D01*
X001696Y001933D01*
X001662Y001967D01*
X001632Y002004D01*
X001604Y002043D01*
X001579Y002085D01*
X001559Y002129D01*
X001541Y002174D01*
X001528Y002220D01*
X001518Y002267D01*
X001512Y002315D01*
X001510Y002363D01*
X013351Y004863D02*
X013351Y020863D01*
X052101Y020863D01*
X052101Y004863D01*
X013351Y004863D01*
X014050Y002113D02*
X014052Y002160D01*
X014058Y002206D01*
X014068Y002252D01*
X014081Y002297D01*
X014099Y002340D01*
X014120Y002382D01*
X014144Y002422D01*
X014172Y002459D01*
X014203Y002494D01*
X014237Y002527D01*
X014273Y002556D01*
X014312Y002582D01*
X014353Y002605D01*
X014396Y002624D01*
X014440Y002640D01*
X014485Y002652D01*
X014531Y002660D01*
X014578Y002664D01*
X014624Y002664D01*
X014671Y002660D01*
X014717Y002652D01*
X014762Y002640D01*
X014806Y002624D01*
X014849Y002605D01*
X014890Y002582D01*
X014929Y002556D01*
X014965Y002527D01*
X014999Y002494D01*
X015030Y002459D01*
X015058Y002422D01*
X015082Y002382D01*
X015103Y002340D01*
X015121Y002297D01*
X015134Y002252D01*
X015144Y002206D01*
X015150Y002160D01*
X015152Y002113D01*
X015150Y002066D01*
X015144Y002020D01*
X015134Y001974D01*
X015121Y001929D01*
X015103Y001886D01*
X015082Y001844D01*
X015058Y001804D01*
X015030Y001767D01*
X014999Y001732D01*
X014965Y001699D01*
X014929Y001670D01*
X014890Y001644D01*
X014849Y001621D01*
X014806Y001602D01*
X014762Y001586D01*
X014717Y001574D01*
X014671Y001566D01*
X014624Y001562D01*
X014578Y001562D01*
X014531Y001566D01*
X014485Y001574D01*
X014440Y001586D01*
X014396Y001602D01*
X014353Y001621D01*
X014312Y001644D01*
X014273Y001670D01*
X014237Y001699D01*
X014203Y001732D01*
X014172Y001767D01*
X014144Y001804D01*
X014120Y001844D01*
X014099Y001886D01*
X014081Y001929D01*
X014068Y001974D01*
X014058Y002020D01*
X014052Y002066D01*
X014050Y002113D01*
X050300Y002113D02*
X050302Y002160D01*
X050308Y002206D01*
X050318Y002252D01*
X050331Y002297D01*
X050349Y002340D01*
X050370Y002382D01*
X050394Y002422D01*
X050422Y002459D01*
X050453Y002494D01*
X050487Y002527D01*
X050523Y002556D01*
X050562Y002582D01*
X050603Y002605D01*
X050646Y002624D01*
X050690Y002640D01*
X050735Y002652D01*
X050781Y002660D01*
X050828Y002664D01*
X050874Y002664D01*
X050921Y002660D01*
X050967Y002652D01*
X051012Y002640D01*
X051056Y002624D01*
X051099Y002605D01*
X051140Y002582D01*
X051179Y002556D01*
X051215Y002527D01*
X051249Y002494D01*
X051280Y002459D01*
X051308Y002422D01*
X051332Y002382D01*
X051353Y002340D01*
X051371Y002297D01*
X051384Y002252D01*
X051394Y002206D01*
X051400Y002160D01*
X051402Y002113D01*
X051400Y002066D01*
X051394Y002020D01*
X051384Y001974D01*
X051371Y001929D01*
X051353Y001886D01*
X051332Y001844D01*
X051308Y001804D01*
X051280Y001767D01*
X051249Y001732D01*
X051215Y001699D01*
X051179Y001670D01*
X051140Y001644D01*
X051099Y001621D01*
X051056Y001602D01*
X051012Y001586D01*
X050967Y001574D01*
X050921Y001566D01*
X050874Y001562D01*
X050828Y001562D01*
X050781Y001566D01*
X050735Y001574D01*
X050690Y001586D01*
X050646Y001602D01*
X050603Y001621D01*
X050562Y001644D01*
X050523Y001670D01*
X050487Y001699D01*
X050453Y001732D01*
X050422Y001767D01*
X050394Y001804D01*
X050370Y001844D01*
X050349Y001886D01*
X050331Y001929D01*
X050318Y001974D01*
X050308Y002020D01*
X050302Y002066D01*
X050300Y002113D01*
X053510Y002363D02*
X053512Y002411D01*
X053518Y002459D01*
X053528Y002506D01*
X053541Y002552D01*
X053559Y002597D01*
X053579Y002641D01*
X053604Y002683D01*
X053632Y002722D01*
X053662Y002759D01*
X053696Y002793D01*
X053733Y002825D01*
X053771Y002854D01*
X053812Y002879D01*
X053855Y002901D01*
X053900Y002919D01*
X053946Y002933D01*
X053993Y002944D01*
X054041Y002951D01*
X054089Y002954D01*
X054137Y002953D01*
X054185Y002948D01*
X054233Y002939D01*
X054279Y002927D01*
X054324Y002910D01*
X054368Y002890D01*
X054410Y002867D01*
X054450Y002840D01*
X054488Y002810D01*
X054523Y002777D01*
X054555Y002741D01*
X054585Y002703D01*
X054611Y002662D01*
X054633Y002619D01*
X054653Y002575D01*
X054668Y002530D01*
X054680Y002483D01*
X054688Y002435D01*
X054692Y002387D01*
X054692Y002339D01*
X054688Y002291D01*
X054680Y002243D01*
X054668Y002196D01*
X054653Y002151D01*
X054633Y002107D01*
X054611Y002064D01*
X054585Y002023D01*
X054555Y001985D01*
X054523Y001949D01*
X054488Y001916D01*
X054450Y001886D01*
X054410Y001859D01*
X054368Y001836D01*
X054324Y001816D01*
X054279Y001799D01*
X054233Y001787D01*
X054185Y001778D01*
X054137Y001773D01*
X054089Y001772D01*
X054041Y001775D01*
X053993Y001782D01*
X053946Y001793D01*
X053900Y001807D01*
X053855Y001825D01*
X053812Y001847D01*
X053771Y001872D01*
X053733Y001901D01*
X053696Y001933D01*
X053662Y001967D01*
X053632Y002004D01*
X053604Y002043D01*
X053579Y002085D01*
X053559Y002129D01*
X053541Y002174D01*
X053528Y002220D01*
X053518Y002267D01*
X053512Y002315D01*
X053510Y002363D01*
X053510Y023363D02*
X053512Y023411D01*
X053518Y023459D01*
X053528Y023506D01*
X053541Y023552D01*
X053559Y023597D01*
X053579Y023641D01*
X053604Y023683D01*
X053632Y023722D01*
X053662Y023759D01*
X053696Y023793D01*
X053733Y023825D01*
X053771Y023854D01*
X053812Y023879D01*
X053855Y023901D01*
X053900Y023919D01*
X053946Y023933D01*
X053993Y023944D01*
X054041Y023951D01*
X054089Y023954D01*
X054137Y023953D01*
X054185Y023948D01*
X054233Y023939D01*
X054279Y023927D01*
X054324Y023910D01*
X054368Y023890D01*
X054410Y023867D01*
X054450Y023840D01*
X054488Y023810D01*
X054523Y023777D01*
X054555Y023741D01*
X054585Y023703D01*
X054611Y023662D01*
X054633Y023619D01*
X054653Y023575D01*
X054668Y023530D01*
X054680Y023483D01*
X054688Y023435D01*
X054692Y023387D01*
X054692Y023339D01*
X054688Y023291D01*
X054680Y023243D01*
X054668Y023196D01*
X054653Y023151D01*
X054633Y023107D01*
X054611Y023064D01*
X054585Y023023D01*
X054555Y022985D01*
X054523Y022949D01*
X054488Y022916D01*
X054450Y022886D01*
X054410Y022859D01*
X054368Y022836D01*
X054324Y022816D01*
X054279Y022799D01*
X054233Y022787D01*
X054185Y022778D01*
X054137Y022773D01*
X054089Y022772D01*
X054041Y022775D01*
X053993Y022782D01*
X053946Y022793D01*
X053900Y022807D01*
X053855Y022825D01*
X053812Y022847D01*
X053771Y022872D01*
X053733Y022901D01*
X053696Y022933D01*
X053662Y022967D01*
X053632Y023004D01*
X053604Y023043D01*
X053579Y023085D01*
X053559Y023129D01*
X053541Y023174D01*
X053528Y023220D01*
X053518Y023267D01*
X053512Y023315D01*
X053510Y023363D01*
X050300Y023613D02*
X050302Y023660D01*
X050308Y023706D01*
X050318Y023752D01*
X050331Y023797D01*
X050349Y023840D01*
X050370Y023882D01*
X050394Y023922D01*
X050422Y023959D01*
X050453Y023994D01*
X050487Y024027D01*
X050523Y024056D01*
X050562Y024082D01*
X050603Y024105D01*
X050646Y024124D01*
X050690Y024140D01*
X050735Y024152D01*
X050781Y024160D01*
X050828Y024164D01*
X050874Y024164D01*
X050921Y024160D01*
X050967Y024152D01*
X051012Y024140D01*
X051056Y024124D01*
X051099Y024105D01*
X051140Y024082D01*
X051179Y024056D01*
X051215Y024027D01*
X051249Y023994D01*
X051280Y023959D01*
X051308Y023922D01*
X051332Y023882D01*
X051353Y023840D01*
X051371Y023797D01*
X051384Y023752D01*
X051394Y023706D01*
X051400Y023660D01*
X051402Y023613D01*
X051400Y023566D01*
X051394Y023520D01*
X051384Y023474D01*
X051371Y023429D01*
X051353Y023386D01*
X051332Y023344D01*
X051308Y023304D01*
X051280Y023267D01*
X051249Y023232D01*
X051215Y023199D01*
X051179Y023170D01*
X051140Y023144D01*
X051099Y023121D01*
X051056Y023102D01*
X051012Y023086D01*
X050967Y023074D01*
X050921Y023066D01*
X050874Y023062D01*
X050828Y023062D01*
X050781Y023066D01*
X050735Y023074D01*
X050690Y023086D01*
X050646Y023102D01*
X050603Y023121D01*
X050562Y023144D01*
X050523Y023170D01*
X050487Y023199D01*
X050453Y023232D01*
X050422Y023267D01*
X050394Y023304D01*
X050370Y023344D01*
X050349Y023386D01*
X050331Y023429D01*
X050318Y023474D01*
X050308Y023520D01*
X050302Y023566D01*
X050300Y023613D01*
X014300Y023613D02*
X014302Y023660D01*
X014308Y023706D01*
X014318Y023752D01*
X014331Y023797D01*
X014349Y023840D01*
X014370Y023882D01*
X014394Y023922D01*
X014422Y023959D01*
X014453Y023994D01*
X014487Y024027D01*
X014523Y024056D01*
X014562Y024082D01*
X014603Y024105D01*
X014646Y024124D01*
X014690Y024140D01*
X014735Y024152D01*
X014781Y024160D01*
X014828Y024164D01*
X014874Y024164D01*
X014921Y024160D01*
X014967Y024152D01*
X015012Y024140D01*
X015056Y024124D01*
X015099Y024105D01*
X015140Y024082D01*
X015179Y024056D01*
X015215Y024027D01*
X015249Y023994D01*
X015280Y023959D01*
X015308Y023922D01*
X015332Y023882D01*
X015353Y023840D01*
X015371Y023797D01*
X015384Y023752D01*
X015394Y023706D01*
X015400Y023660D01*
X015402Y023613D01*
X015400Y023566D01*
X015394Y023520D01*
X015384Y023474D01*
X015371Y023429D01*
X015353Y023386D01*
X015332Y023344D01*
X015308Y023304D01*
X015280Y023267D01*
X015249Y023232D01*
X015215Y023199D01*
X015179Y023170D01*
X015140Y023144D01*
X015099Y023121D01*
X015056Y023102D01*
X015012Y023086D01*
X014967Y023074D01*
X014921Y023066D01*
X014874Y023062D01*
X014828Y023062D01*
X014781Y023066D01*
X014735Y023074D01*
X014690Y023086D01*
X014646Y023102D01*
X014603Y023121D01*
X014562Y023144D01*
X014523Y023170D01*
X014487Y023199D01*
X014453Y023232D01*
X014422Y023267D01*
X014394Y023304D01*
X014370Y023344D01*
X014349Y023386D01*
X014331Y023429D01*
X014318Y023474D01*
X014308Y023520D01*
X014302Y023566D01*
X014300Y023613D01*
X001510Y023363D02*
X001512Y023411D01*
X001518Y023459D01*
X001528Y023506D01*
X001541Y023552D01*
X001559Y023597D01*
X001579Y023641D01*
X001604Y023683D01*
X001632Y023722D01*
X001662Y023759D01*
X001696Y023793D01*
X001733Y023825D01*
X001771Y023854D01*
X001812Y023879D01*
X001855Y023901D01*
X001900Y023919D01*
X001946Y023933D01*
X001993Y023944D01*
X002041Y023951D01*
X002089Y023954D01*
X002137Y023953D01*
X002185Y023948D01*
X002233Y023939D01*
X002279Y023927D01*
X002324Y023910D01*
X002368Y023890D01*
X002410Y023867D01*
X002450Y023840D01*
X002488Y023810D01*
X002523Y023777D01*
X002555Y023741D01*
X002585Y023703D01*
X002611Y023662D01*
X002633Y023619D01*
X002653Y023575D01*
X002668Y023530D01*
X002680Y023483D01*
X002688Y023435D01*
X002692Y023387D01*
X002692Y023339D01*
X002688Y023291D01*
X002680Y023243D01*
X002668Y023196D01*
X002653Y023151D01*
X002633Y023107D01*
X002611Y023064D01*
X002585Y023023D01*
X002555Y022985D01*
X002523Y022949D01*
X002488Y022916D01*
X002450Y022886D01*
X002410Y022859D01*
X002368Y022836D01*
X002324Y022816D01*
X002279Y022799D01*
X002233Y022787D01*
X002185Y022778D01*
X002137Y022773D01*
X002089Y022772D01*
X002041Y022775D01*
X001993Y022782D01*
X001946Y022793D01*
X001900Y022807D01*
X001855Y022825D01*
X001812Y022847D01*
X001771Y022872D01*
X001733Y022901D01*
X001696Y022933D01*
X001662Y022967D01*
X001632Y023004D01*
X001604Y023043D01*
X001579Y023085D01*
X001559Y023129D01*
X001541Y023174D01*
X001528Y023220D01*
X001518Y023267D01*
X001512Y023315D01*
X001510Y023363D01*
D11*
X003851Y018663D02*
X003851Y018063D01*
X004851Y018063D02*
X004851Y018663D01*
X005851Y018663D02*
X005851Y018063D01*
X010211Y018193D02*
X010211Y017593D01*
X011991Y017593D02*
X011991Y018193D01*
X011991Y015633D02*
X011991Y015033D01*
X010211Y015033D02*
X010211Y015633D01*
X010211Y011193D02*
X010211Y010593D01*
X011991Y010593D02*
X011991Y011193D01*
X011991Y008633D02*
X011991Y008033D01*
X010211Y008033D02*
X010211Y008633D01*
X019521Y004003D02*
X020121Y004003D01*
X022081Y004003D02*
X022681Y004003D01*
X025521Y004003D02*
X026121Y004003D01*
X028081Y004003D02*
X028681Y004003D01*
X031521Y004003D02*
X032121Y004003D01*
X034081Y004003D02*
X034681Y004003D01*
X037521Y004003D02*
X038121Y004003D01*
X040081Y004003D02*
X040681Y004003D01*
X043771Y004003D02*
X044371Y004003D01*
X046331Y004003D02*
X046931Y004003D01*
X046931Y002223D02*
X046331Y002223D01*
X044371Y002223D02*
X043771Y002223D01*
X040681Y002223D02*
X040081Y002223D01*
X038121Y002223D02*
X037521Y002223D01*
X034681Y002223D02*
X034081Y002223D01*
X032121Y002223D02*
X031521Y002223D01*
X028681Y002223D02*
X028081Y002223D01*
X026121Y002223D02*
X025521Y002223D01*
X022681Y002223D02*
X022081Y002223D01*
X020121Y002223D02*
X019521Y002223D01*
X011851Y002163D02*
X011851Y001563D01*
X010851Y001563D02*
X010851Y002163D01*
X009851Y002163D02*
X009851Y001563D01*
X008851Y001563D02*
X008851Y002163D01*
X007851Y002163D02*
X007851Y001563D01*
X006851Y001563D02*
X006851Y002163D01*
X005851Y002163D02*
X005851Y001563D01*
X004851Y001563D02*
X004851Y002163D01*
X022521Y021723D02*
X023121Y021723D01*
X025081Y021723D02*
X025681Y021723D01*
X028521Y021723D02*
X029121Y021723D01*
X031081Y021723D02*
X031681Y021723D01*
X034521Y021723D02*
X035121Y021723D01*
X037081Y021723D02*
X037681Y021723D01*
X040771Y021723D02*
X041371Y021723D01*
X043331Y021723D02*
X043931Y021723D01*
X043931Y023503D02*
X043331Y023503D01*
X041371Y023503D02*
X040771Y023503D01*
X037681Y023503D02*
X037081Y023503D01*
X035121Y023503D02*
X034521Y023503D01*
X031681Y023503D02*
X031081Y023503D01*
X029121Y023503D02*
X028521Y023503D01*
X025681Y023503D02*
X025081Y023503D01*
X023121Y023503D02*
X022521Y023503D01*
D12*
X007851Y013113D03*
X001851Y013113D03*
D13*
X002851Y009113D03*
D14*
X004851Y009113D03*
X006851Y009113D03*
D15*
X008841Y007113D02*
X009361Y007113D01*
X011841Y007113D02*
X012361Y007113D01*
X016591Y001363D02*
X017111Y001363D01*
X019591Y001363D02*
X020111Y001363D01*
X022591Y001363D02*
X023111Y001363D01*
X025591Y001363D02*
X026111Y001363D01*
X028591Y001363D02*
X029111Y001363D01*
X031591Y001363D02*
X032111Y001363D01*
X034591Y001363D02*
X035111Y001363D01*
X037591Y001363D02*
X038111Y001363D01*
X040841Y001363D02*
X041361Y001363D01*
X043841Y001363D02*
X044361Y001363D01*
X012361Y014113D02*
X011841Y014113D01*
X009361Y014113D02*
X008841Y014113D01*
X022091Y024363D02*
X022611Y024363D01*
X025091Y024363D02*
X025611Y024363D01*
X028091Y024363D02*
X028611Y024363D01*
X031091Y024363D02*
X031611Y024363D01*
X034091Y024363D02*
X034611Y024363D01*
X037091Y024363D02*
X037611Y024363D01*
X040341Y024363D02*
X040861Y024363D01*
X043341Y024363D02*
X043861Y024363D01*
D16*
X008351Y004613D03*
X008351Y002863D03*
X009351Y002863D03*
X036101Y003613D03*
X036101Y004238D03*
X042226Y004238D03*
X042226Y003613D03*
X048351Y003863D03*
D17*
X048601Y004113D01*
X052726Y004113D01*
X053601Y004988D01*
X053726Y020488D01*
X052476Y021613D01*
X050101Y021613D01*
X049726Y021988D01*
X044726Y021988D01*
X044226Y022488D01*
X038601Y022488D01*
X037836Y021723D01*
X037381Y021723D01*
X025381Y021723D02*
X024991Y021723D01*
X024101Y022613D01*
X021351Y022613D01*
X020226Y021488D01*
X012101Y021488D01*
X011101Y020488D01*
X011101Y013863D01*
X010211Y014753D01*
X010211Y015333D01*
X011991Y015333D02*
X011991Y014223D01*
X012101Y014113D01*
X011101Y013863D02*
X011101Y006363D01*
X009101Y004363D01*
X007851Y003113D01*
X007851Y001863D01*
X005851Y001863D02*
X005851Y005613D01*
X004351Y007113D01*
X001601Y007113D01*
X000726Y007988D01*
X000726Y018113D01*
X004476Y021863D01*
X019851Y021863D01*
X022351Y024363D01*
X011991Y008333D02*
X011991Y007223D01*
X012101Y007113D01*
X010211Y006473D02*
X008351Y004613D01*
X009101Y004363D02*
X018851Y004363D01*
X019211Y004003D01*
X019821Y004003D01*
X018976Y003238D02*
X018101Y004113D01*
X010851Y004113D01*
X009851Y003113D01*
X009851Y001863D01*
X009351Y002863D02*
X008351Y002863D01*
X011851Y003113D02*
X011851Y001863D01*
X011851Y003113D02*
X012601Y003863D01*
X017476Y003863D01*
X018601Y002738D01*
X042476Y002738D01*
X043741Y004003D01*
X044071Y004003D01*
X042226Y004238D02*
X041726Y004238D01*
X040976Y003488D01*
X037226Y003488D01*
X036351Y004238D01*
X036101Y004238D01*
X036101Y003613D02*
X036601Y003613D01*
X036976Y003238D01*
X041101Y003238D01*
X041476Y003613D01*
X042226Y003613D01*
X031821Y004003D02*
X031366Y004003D01*
X030601Y003238D01*
X018976Y003238D01*
X010211Y006473D02*
X010211Y008333D01*
D18*
X019821Y002223D02*
X019821Y001393D01*
X019851Y001363D01*
X020601Y000863D02*
X017351Y000863D01*
X016851Y001363D01*
X020601Y000863D02*
X021101Y001363D01*
X022851Y001363D01*
X023351Y000863D01*
X026601Y000863D01*
X027101Y001363D01*
X028851Y001363D01*
X029351Y000863D01*
X032601Y000863D01*
X033101Y001363D01*
X034851Y001363D01*
X035351Y000863D01*
X038601Y000863D01*
X039101Y001363D01*
X041101Y001363D01*
X044071Y001393D02*
X044101Y001363D01*
X044071Y001393D02*
X044071Y002223D01*
X037821Y002223D02*
X037821Y001393D01*
X037851Y001363D01*
X031851Y001363D02*
X031821Y001393D01*
X031821Y002223D01*
X025851Y001363D02*
X025821Y001393D01*
X025821Y002223D01*
X025381Y023503D02*
X025381Y024333D01*
X025351Y024363D01*
X026351Y024863D02*
X022851Y024863D01*
X022351Y024363D01*
X026351Y024863D02*
X026851Y024363D01*
X028351Y024363D01*
X028851Y024863D01*
X032351Y024863D01*
X032851Y024363D01*
X034351Y024363D01*
X034851Y024863D01*
X038601Y024863D01*
X039101Y024363D01*
X040601Y024363D01*
X043601Y024363D02*
X043631Y024333D01*
X043631Y023503D01*
X037381Y023503D02*
X037381Y024333D01*
X037351Y024363D01*
X031381Y024333D02*
X031381Y023503D01*
X031381Y024333D02*
X031351Y024363D01*
M02*
